<svg height="420" version="1.1" width="540" xmlns="http://www.w3.org/2000/svg" xmlns:xlink="http://www.w3.org/1999/xlink" style="overflow: hidden; position: relative; left: -0.6px; top: 0.8px;">
  <desc style="-webkit-tap-highlight-color: rgba(0, 0, 0, 0);">Created with Raphaël 2.2.0</desc>
  <defs style="-webkit-tap-highlight-color: rgba(0, 0, 0, 0);"></defs>
  <path
    fill="#cccccc"
    stroke="#222222"
    d="M204.447,64.906L225.571,109.53900000000002L245.811,106.53400000000002L262.415,117.97100000000002L283.076,110.31400000000002L284.427,131.34600000000003L281.144,131.92700000000002L280.469,135.51300000000003L280.565,140.65000000000003L268.112,186.10400000000004L300.165,186.78200000000004H385.41L385.89200000000005,186.29800000000003L382.22200000000004,180.38500000000002L377.97600000000006,173.31000000000003L375.08000000000004,165.36300000000003L369.57700000000006,157.12500000000003L361.85300000000007,146.17300000000003L361.75700000000006,139.00200000000004L365.42500000000007,139.09900000000005L365.9080000000001,135.51300000000003L360.6940000000001,128.92300000000003L360.21200000000005,122.42900000000003L357.60600000000005,117.77700000000003L355.38400000000007,116.61400000000003L351.7170000000001,116.80800000000004L347.9500000000001,112.25200000000004L342.4470000000001,107.79400000000004L339.3590000000001,102.56100000000004L337.5230000000001,98.58700000000003L333.95200000000006,95.87300000000003L331.82800000000003,95.19500000000004L330.574,89.28300000000003L329.31800000000004,86.18100000000003L328.16,81.82000000000002L331.63500000000005,78.04000000000002L328.25700000000006,72.70900000000002L327.38800000000003,64.90500000000002L318.50600000000003,58.268000000000015L315.223,55.555000000000014L313.101,52.84200000000001L311.652,52.067000000000014H305.763L299.873,50.12900000000001L295.17,46.93100000000001L291.76500000000004,44.50700000000001L287.807,43.63600000000001H284.33000000000004L281.72400000000005,45.86500000000001L277.86300000000006,43.63600000000001L275.64200000000005,44.41000000000001L274.48300000000006,46.25100000000001L274.67600000000004,50.03100000000001L276.70500000000004,51.19400000000001L278.82800000000003,51.96900000000001L280.95000000000005,51.09700000000001L281.14300000000003,52.55000000000001L279.79200000000003,53.13200000000001L280.372,54.10100000000001L281.819,55.555000000000014L282.495,56.71800000000001L281.53000000000003,57.39600000000001L280.305,57.702000000000005L279.65000000000003,58.519000000000005L280.28200000000004,59.541000000000004L282.398,60.11000000000001L282.077,61.401L278.858,61.207L276.219,62.177L276.026,64.309L277.315,65.73L278.344,64.76100000000001L279.76,64.24400000000001L280.65999999999997,65.21300000000001L281.11199999999997,66.57000000000001L280.65999999999997,67.798L278.602,68.121L275.832,68.961L274.865,69.672L275.445,72.32L274.34999999999997,73.03099999999999L274.092,74.776L274.93,75.74499999999999L276.669,75.487L278.66499999999996,74.131L279.30699999999996,73.743L281.49499999999995,73.484L282.52599999999995,73.54899999999999L281.94699999999995,74.64699999999999L281.10799999999995,75.55099999999999L280.59499999999997,76.06899999999999L281.561,77.42499999999998L283.03999999999996,78.97599999999998L283.29699999999997,80.07399999999998L283.42699999999996,81.49499999999999L283.61899999999997,83.43299999999999L285.09799999999996,84.33699999999999C285.09799999999996,84.33699999999999,286.12899999999996,85.30599999999998,285.48499999999996,86.40499999999999C284.842,87.50399999999999,281.75399999999996,90.28099999999999,281.75399999999996,90.28099999999999S279.75899999999996,90.53999999999999,279.82399999999996,88.14999999999999C279.88699999999994,85.75899999999999,278.47099999999995,88.279,278.47099999999995,88.279L278.21399999999994,90.79899999999999L272.80699999999996,88.40799999999999L261.03,83.04599999999999L249.83099999999996,77.48899999999999L247.57699999999997,76.71399999999998L240.88399999999996,69.41299999999998L240.04699999999997,68.31399999999998L234.19199999999998,67.99099999999999L218.67999999999998,61.076999999999984L204.447,64.906Z"
    stroke-width="1"
    stroke-linejoin="round"
    style="-webkit-tap-highlight-color: rgba(0, 0, 0, 0); stroke-linejoin: round;"></path>
  <path
    fill="#cccccc"
    stroke="#222222"
    d="M313.486,187.072L322.3,217.171L333.17900000000003,215.759L348.809,214.40699999999998L350.69100000000003,217.171L349.833,220.166L350.71500000000003,222.72L362.13700000000006,233.458L361.41200000000003,240.584L356.543,245.996L355.473,246.982L354.889,249.795L353.589,251.926L353.453,253.557L353.06699999999995,255.301L351.40599999999995,257.40999999999997L349.82399999999996,258.76399999999995C349.82399999999996,258.76399999999995,349.91299999999995,258.98299999999995,349.91299999999995,259.631C349.91299999999995,260.277,351.12699999999995,261.09,351.12699999999995,261.09L351.56299999999993,264.55899999999997V265.74499999999995L356.19899999999996,265.01599999999996L355.94399999999996,267.43199999999996L356.09099999999995,268.289L358.36999999999995,269.08799999999997L357.06699999999995,270.25199999999995L356.47799999999995,271.77699999999993L355.881,273.5519999999999L355.32599999999996,275.1949999999999L360.597,276.9469999999999L363.81399999999996,277.59199999999987L365.22999999999996,278.2379999999999L365.722,279.0089999999999L366.131,284.4409999999999L366.775,287.9289999999999C366.775,287.9289999999999,372.311,292.9699999999999,374.24199999999996,295.29599999999994C376.17199999999997,297.61999999999995,376.17199999999997,299.4309999999999,376.17199999999997,299.4309999999999L379.90599999999995,298.1379999999999C379.90599999999995,298.1379999999999,382.73799999999994,295.03599999999994,381.83599999999996,292.7099999999999S380.549,287.7999999999999,380.549,287.7999999999999L377.58799999999997,286.8959999999999L375.272,282.2459999999999L375.529,279.2729999999999L379.907,279.78899999999993L384.025,276.42999999999995L387.62899999999996,277.98099999999994L396.89599999999996,277.5919999999999L397.41299999999995,276.42999999999995L404.36299999999994,276.04099999999994L402.04699999999997,271.38899999999995L407.06699999999995,268.936L419.167,258.727L417.88,253.42799999999997L416.593,248.38899999999998L414.53200000000004,244.12499999999997L409.12700000000007,236.49999999999997L406.6820000000001,231.84799999999998C406.6820000000001,231.84799999999998,405.0080000000001,232.106,402.95000000000005,231.97699999999998C400.88900000000007,231.84799999999998,399.85800000000006,227.71299999999997,399.85800000000006,227.71299999999997L396.25500000000005,225.12999999999997L396.2540000000001,214.14599999999996L399.9870000000001,210.26899999999995L395.0950000000001,199.41499999999996L387.6300000000001,188.43099999999995L386.0850000000001,187.07499999999996H313.486Z"
    stroke-width="1"
    stroke-linejoin="round"
    style="-webkit-tap-highlight-color: rgba(0, 0, 0, 0); stroke-linejoin: round;"></path>
  <path
    fill="#cccccc"
    stroke="#222222"
    d="M268.348,186.107L313.607,186.923L319.25600000000003,207.427L322.3,217.171L334.613,215.863L348.809,214.408L350.69100000000003,217.171L349.677,219.78799999999998L350.69100000000003,222.261L360.54400000000004,231.859L362.136,233.458L361.41200000000003,240.584L355.47200000000004,246.983L354.74800000000005,250.473L353.588,251.92600000000002L352.72,256.29L349.824,258.764L351.12600000000003,261.09000000000003L351.562,262.98100000000005L351.562,265.74500000000006L356.19800000000004,265.0160000000001L355.90700000000004,267.7800000000001L356.34100000000007,268.5060000000001L357.06700000000006,268.5060000000001L358.37000000000006,269.0880000000001L357.06700000000006,270.25200000000007L355.7630000000001,273.88700000000006L355.3270000000001,275.1960000000001L351.7080000000001,272.1410000000001L350.11300000000006,271.8520000000001L348.3740000000001,273.8870000000001L348.2300000000001,276.2150000000001L343.7390000000001,280.5750000000001L346.3470000000001,283.7760000000001L347.0710000000001,286.24900000000014L344.3180000000001,287.9950000000001L343.1600000000001,286.83100000000013L341.27600000000007,287.9950000000001L337.79800000000006,287.9950000000001L335.7710000000001,287.9950000000001L330.84600000000006,284.0670000000001L326.3550000000001,281.1590000000001L323.02400000000006,280.8680000000001L320.41600000000005,279.5590000000001L319.83600000000007,275.0510000000001L318.2440000000001,275.1960000000001L317.5180000000001,272.8680000000001L311.1450000000001,273.4520000000001L307.23500000000007,274.4670000000001L295.9340000000001,260.3640000000001L296.66100000000006,258.9090000000001L297.0930000000001,257.7450000000001L296.66100000000006,256.4360000000001L295.64400000000006,253.8190000000001L295.64400000000006,251.9260000000001L293.47200000000004,252.3640000000001L292.16800000000006,251.0550000000001L290.71900000000005,248.2930000000001L289.41600000000005,247.56500000000008L289.56100000000004,246.4010000000001L289.127,244.0750000000001L287.533,242.1860000000001L285.505,239.8580000000001L284.635,237.45700000000008L283.912,236.36700000000008L281.44899999999996,235.34800000000007L279.70899999999995,233.89500000000007L276.08899999999994,229.38700000000006L273.9169999999999,225.60500000000005L273.1929999999999,224.15100000000004L270.5829999999999,223.42500000000004L267.6869999999999,221.38800000000003L266.9629999999999,219.64300000000003L266.9629999999999,210.62600000000003L270.9479999999999,209.77300000000002L269.5859999999999,198.52100000000002L268.5549999999999,189.97600000000003Z"
    stroke-width="1"
    stroke-linejoin="round"
    style="-webkit-tap-highlight-color: rgba(0, 0, 0, 0); stroke-linejoin: round;"></path>
  <path
    fill="#cccccc"
    stroke="#222222"
    d="M378.926,316.694L377.613,301.29400000000004L376.609,299.43300000000005L380.12199999999996,297.88400000000007L382.00199999999995,293.82500000000005L381.56899999999996,291.98100000000005L381.05999999999995,290.25100000000003L380.54699999999997,287.802L377.58599999999996,286.898L376.16399999999993,284.04400000000004L375.26899999999995,282.247L375.52599999999995,279.274L379.90399999999994,279.79L384.3759999999999,276.58500000000004L387.6269999999999,277.98100000000005L396.8939999999999,277.59200000000004L397.4109999999999,276.43000000000006L404.3609999999999,276.04100000000005L402.3819999999999,271.2250000000001L407.3779999999999,268.6700000000001L419.1629999999999,258.34600000000006L421.8899999999999,261.85800000000006L425.47699999999986,271.76200000000006L428.3489999999999,275.7250000000001L429.2449999999999,278.9670000000001L429.6919999999999,280.8580000000001C429.6919999999999,280.8580000000001,431.9349999999999,283.8290000000001,431.9349999999999,284.1880000000001C431.9349999999999,284.5490000000001,432.6519999999999,287.7020000000001,431.9349999999999,288.5120000000001C431.2179999999999,289.32100000000014,431.30599999999987,293.0120000000001,431.30599999999987,293.0120000000001L432.65299999999985,299.43200000000013C432.65299999999985,299.43200000000013,435.16499999999985,302.6490000000001,437.31699999999984,303.9090000000001S437.85299999999984,308.8620000000001,437.85299999999984,308.8620000000001L436.1519999999998,311.1120000000001L435.97099999999983,313.45400000000006L437.6739999999998,318.58500000000004L439.73799999999983,321.73900000000003L440.90299999999985,323.538L439.64899999999983,325.341H438.3029999999998L435.9699999999998,329.933L436.9569999999998,336.415L438.39099999999985,340.196L437.13699999999983,341.997H429.51199999999983L424.93699999999984,346.68100000000004L419.5559999999998,349.11100000000005L418.5689999999998,346.951L414.71199999999976,347.041L412.8289999999998,348.391L409.2419999999998,347.401L403.7699999999998,347.491L403.1409999999998,344.971L400.3609999999998,343.981L393.63399999999984,342.629L394.44199999999984,331.283L392.19899999999984,329.39000000000004L388.4329999999998,327.32000000000005L384.0369999999998,325.97L378.6039999999998,326.69500000000005L378.926,316.694Z"
    stroke-width="1"
    stroke-linejoin="round"
    style="-webkit-tap-highlight-color: rgba(0, 0, 0, 0); stroke-linejoin: round;"></path>
  <path
    fill="#cccccc"
    stroke="#222222"
    d="M118.858,108.957C118.858,108.957,113.194,80.27,148.721,78.978L143.315,65.797L170.346,76.13499999999999L204.447,64.90599999999999L225.571,109.53899999999999L209.221,126.01499999999999L180.645,137.64499999999998L178.39600000000002,140.39799999999997L173.50000000000003,140.03599999999997L172.40300000000002,142.12999999999997L163.39600000000002,147.20799999999997L161.89200000000002,158.91299999999998L148.46500000000003,158.32099999999997L142.80200000000002,157.02899999999997L135.59300000000002,155.47899999999996L129.479,150.03199999999995L142.80200000000002,126.79099999999995L134.305,120.07099999999996L129.34300000000002,119.83399999999996L122.26400000000002,114.52899999999997L118.858,108.957"
    stroke-width="1"
    stroke-linejoin="round"
    style="-webkit-tap-highlight-color: rgba(0, 0, 0, 0); stroke-linejoin: round;"></path>
  <path
    fill="#cccccc"
    stroke="#222222"
    d="M111.392,39.952L96.976,58.043L95.243,70.09L89.895,71.74000000000001L91.697,75.22900000000001L91.955,78.84800000000001L95.431,82.20800000000001L95.56,83.5H93.114L88.351,88.281L86.797,85.76L84.747,86.601L85.906,89.96L89.253,93.449L90.026,95.128L91.313,96.679L90.798,99.392L91.055,102.494L92.986,104.304L93.75800000000001,105.33800000000001L93.114,109.21400000000001L94.53,111.61200000000001H96.46000000000001L97.49100000000001,110.37700000000001L98.07000000000001,111.15200000000002L100.322,111.61200000000001L101.09400000000001,108.56800000000001L102.382,108.44000000000001L102.12400000000001,105.46700000000001L103.15400000000001,105.07800000000002L102.76700000000001,103.26900000000002L104.95500000000001,102.49400000000001L107.14300000000001,102.75300000000001L109.84700000000001,103.52800000000002L113.194,106.75800000000002L118.666,107.55400000000003C118.666,107.55400000000003,114.86699999999999,79.88100000000003,148.721,78.97600000000003L143.315,65.79500000000003L131.731,60.88500000000003L124.39399999999999,55.586000000000034L114.481,44.86100000000003L111.392,39.952Z"
    stroke-width="1"
    stroke-linejoin="round"
    style="-webkit-tap-highlight-color: rgba(0, 0, 0, 0); stroke-linejoin: round;"></path>
  <path
    fill="#cccccc"
    stroke="#222222"
    d="M65.567,7L49.734,53.908C49.734,53.908,49.735,54.426,51.022,56.105000000000004C52.309,57.784000000000006,52.567,59.078,52.567,59.078L52.695,61.661L46.903,66.443V68.898V70.578L47.546,71.224L47.932,74.197L46.903000000000006,74.843L48.833000000000006,76.652L49.09100000000001,79.366L46.903000000000006,81.43299999999999V84.14599999999999V87.11799999999998L52.051,88.15299999999998L52.181000000000004,92.41699999999997L50.507000000000005,93.96699999999997L51.022000000000006,95.77499999999998L52.051,96.67999999999998L52.823,98.61899999999997L53.853,101.33199999999997L55.928000000000004,103.98199999999997L57.345000000000006,105.26399999999997L60.608000000000004,101.25999999999996L61.319,100.03999999999996L62.348,104.69199999999996L64.021,105.98399999999997L65.566,107.27599999999997L66.339,103.01199999999997L68.655,103.26999999999997L71.615,99.90999999999997L74.96199999999999,103.91599999999997L78.56599999999999,103.65699999999997L79.59599999999999,102.62299999999996H83.32799999999999C83.32799999999999,102.62299999999996,86.41699999999999,103.39799999999997,86.67499999999998,106.49899999999997L92.98199999999999,107.27499999999996L93.75399999999999,105.33699999999996L91.011,102.01299999999996L90.794,99.39199999999997L91.309,96.67899999999997L89.78099999999999,94.60399999999997L89.24999999999999,93.44799999999996L85.90299999999999,89.95899999999996L84.74399999999999,86.59999999999997L86.67499999999998,85.56499999999997L88.34799999999998,88.27899999999997L93.11099999999999,83.49799999999996H95.55699999999999L95.42899999999999,82.20599999999996L91.95299999999999,78.84599999999996L91.695,75.22699999999996L89.89299999999999,71.73799999999996L95.24099999999999,70.08799999999995L96.97299999999998,58.040999999999954L111.38899999999998,39.94999999999995L98.38899999999998,26.38099999999995L88.60599999999998,14.23399999999995L87.06099999999998,12.94199999999995L65.567,7Z"
    stroke-width="1"
    stroke-linejoin="round"
    style="-webkit-tap-highlight-color: rgba(0, 0, 0, 0); stroke-linejoin: round;"></path>
  <path
    fill="#cccccc"
    stroke="#222222"
    d="M48.195,87.378L48.195,89.705L43.583,93.728L43.583,105.324L35.096,108.283L31.087999999999997,110.058L30.499,114.081L25.546999999999997,114.081L23.897,120.35300000000001L24.487,124.02100000000002L23.897,129.109L22.011999999999997,134.315L21.304,140.706L21.304,144.492L21.304,147.68699999999998L20.360999999999997,149.462L15.999999999999996,152.184L16.706999999999997,153.603L16.706999999999997,155.615L17.413999999999998,156.561L19.772,158.32L23.308,159.046L26.726,160.46599999999998L27.197,161.058L31.088,161.886L30.852,167.921L29.202,170.524L24.840000000000003,171.471L20.950000000000003,171.471L20.125000000000004,173.955L20.714000000000002,175.848L24.604000000000003,178.33300000000003L32.098,182.94800000000004L33.916,186.61700000000005L38.985,186.61700000000005L39.221,184.13100000000006L36.391999999999996,182.59400000000005L36.391999999999996,180.46300000000005L39.221,178.45200000000006L39.928,175.25600000000006L42.992999999999995,176.20300000000006L45.349999999999994,177.50500000000005L46.41,175.02100000000004L44.407,173.48200000000006L42.875,172.18000000000006L43.818,170.64200000000005L41.577999999999996,169.34000000000006L42.285,168.03900000000007L45.114,167.20900000000006L46.056999999999995,164.37000000000006L51.126,163.77800000000005L52.187,165.79100000000005L50.418,167.44700000000006L47.354,168.86700000000005L47.708,171.58800000000005L50.536,171.11600000000004L51.361000000000004,169.22200000000004L53.365,168.27500000000003L54.190000000000005,168.86700000000005L56.666000000000004,168.74800000000005L57.374,166.97400000000005L55.487,165.55300000000005L54.544000000000004,164.13300000000007L55.36900000000001,162.95000000000007L56.077000000000005,162.47700000000006L55.487,158.32000000000005L59.613,158.32000000000005L63.266999999999996,157.27100000000004L65.859,154.66700000000003L65.859,150.52500000000003L68.806,148.86900000000003L69.986,145.43700000000004L71.164,142.12400000000005L71.871,132.53900000000004L67.86399999999999,128.75400000000005L65.624,125.44000000000005L64.917,118.69500000000005L62.913000000000004,115.61800000000005L54.662000000000006,114.79000000000005L51.93500000000001,114.46900000000005L51.12500000000001,112.89700000000005L53.94200000000001,109.44100000000005L57.135000000000005,105.52300000000004L53.854000000000006,101.33300000000004L52.05100000000001,96.68100000000004L50.78500000000001,94.94100000000005L50.94600000000001,93.56100000000005L52.167000000000016,91.94600000000005L52.54000000000001,88.04800000000006Z"
    stroke-width="1"
    stroke-linejoin="round"
    style="-webkit-tap-highlight-color: rgba(0, 0, 0, 0); stroke-linejoin: round;"></path>
  <path
    fill="#cccccc"
    stroke="#222222"
    d="M39.51,177.145L46.903,183.13000000000002L50.653999999999996,183.90600000000003L55.141,180.52600000000004L56.556999999999995,178.47900000000004L57.077999999999996,176.67000000000004L59.129999999999995,176.67000000000004L60.32899999999999,178.28700000000003L61.47899999999999,179.84000000000003L62.30599999999999,181.28800000000004L64.74399999999999,182.20500000000004L68.88499999999999,183.37900000000005L68.317,184.57700000000006L67.15299999999999,187.03800000000007L66.532,188.34800000000007L71.202,189.98000000000008L79.855,186.61700000000008L83.58800000000001,184.16500000000008L84.74700000000001,181.06300000000007L87.70700000000001,181.06300000000007L107.27300000000001,180.4170000000001L108.81800000000001,178.73700000000008L113.06600000000002,178.35000000000008L129.478,150.82500000000007L142.80100000000002,126.79000000000008L134.30400000000003,120.07000000000008L129.34200000000004,119.83300000000008L125.09000000000005,116.68400000000008L122.33300000000004,114.64300000000009L118.85800000000005,108.95700000000008L118.66700000000004,107.55600000000008L113.19400000000005,106.76000000000008L110.05100000000004,103.72600000000007L104.95600000000005,102.49600000000007L102.95500000000004,103.20500000000007L103.15500000000004,105.08000000000007L101.86700000000005,105.40400000000007L102.38200000000005,108.44100000000007L101.09500000000004,108.56900000000007L100.32200000000005,111.61300000000007L98.26300000000005,111.02400000000007L97.49100000000004,110.37800000000007L96.52500000000005,111.53500000000007L94.72300000000004,111.61300000000007L93.16500000000003,108.91100000000007L92.98500000000003,107.27700000000007L86.35600000000002,106.43700000000007L85.95700000000002,104.31700000000006L83.89700000000002,103.06400000000006L79.59800000000001,102.62500000000007L78.87500000000001,103.25900000000007L75.10000000000001,103.56000000000007L71.617,99.91200000000008L68.325,103.23400000000008L66.34,103.01300000000008L65.56700000000001,107.27700000000007L62.300000000000004,104.46700000000007L61.38,100.31400000000006L51.125,112.89700000000006L51.935,114.46900000000007L54.662,114.79000000000006L62.735,115.28900000000006L64.917,118.69500000000006L65.624,125.44000000000007L67.86399999999999,128.75400000000008L71.871,132.53900000000007L71.20299999999999,141.59800000000007L68.80599999999998,148.86900000000006L66.16699999999999,150.30800000000005L65.85899999999998,154.66700000000006L63.26699999999998,157.27100000000007L59.612999999999985,158.32000000000008L55.719999999999985,158.32000000000008L56.298999999999985,162.4060000000001L54.73899999999998,163.8540000000001L55.35299999999998,165.3510000000001L57.16699999999998,166.81700000000012L56.66599999999998,168.74800000000013L54.18999999999998,168.86700000000013L53.237999999999985,168.33500000000012L51.52999999999999,169.14300000000011L50.65399999999999,171.03200000000012L48.09499999999999,171.52400000000011L47.35399999999999,168.8670000000001L50.135999999999996,167.5770000000001L52.05,165.53200000000012L51.086,163.52100000000013L46.266999999999996,164.27600000000012L45.873,164.43000000000012L45.177,167.02000000000012L42.285,168.03900000000013L41.812999999999995,169.22300000000013L43.614999999999995,170.02600000000012L43.06099999999999,171.8750000000001L46.41,175.0210000000001L45.349999999999994,177.5050000000001L43.135999999999996,175.8720000000001L40.824999999999996,175.5340000000001L39.983999999999995,175.05400000000012Z"
    stroke-width="1"
    stroke-linejoin="round"
    style="-webkit-tap-highlight-color: rgba(0, 0, 0, 0); stroke-linejoin: round;"></path>
  <path
    fill="#cccccc"
    stroke="#222222"
    d="M162.043,158.772L163.395,147.207L172.40200000000002,142.129L173.49900000000002,140.035L178.395,140.397L179.555,138.445L181.805,136.76999999999998L195.954,131.38L209.22,126.014L226.018,109.92599999999999L245.81,106.53299999999999L262.414,117.96999999999998L283.075,110.31299999999999L284.426,131.345L280.949,131.732L280.53200000000004,135.037L280.55300000000005,140.062L268.11100000000005,186.102L268.55600000000004,189.975L270.95700000000005,209.87199999999999L266.96400000000006,210.62499999999997V219.64199999999997L259.0350000000001,225.12799999999996L253.76000000000008,219.05399999999995L246.55100000000007,224.09399999999994L241.01600000000008,217.11499999999992C241.01600000000008,217.11499999999992,242.04400000000007,213.36799999999994,240.50000000000009,212.59299999999993C238.95600000000007,211.81799999999993,236.6390000000001,213.23899999999992,236.6390000000001,213.23899999999992L229.4310000000001,216.98799999999991L228.2720000000001,217.1159999999999L218.8750000000001,209.2339999999999L221.0630000000001,206.26099999999988L225.5710000000001,202.6439999999999L233.4210000000001,197.7329999999999L235.99500000000012,195.27799999999988L228.40000000000012,187.65399999999988L226.8570000000001,184.55299999999988L224.41100000000012,184.16499999999988L220.0340000000001,180.48099999999988L216.3660000000001,177.57399999999987L213.4690000000001,176.99199999999988L205.7460000000001,165.83099999999988L201.6910000000001,182.41999999999987L200.72600000000008,184.55199999999988L191.45700000000008,193.85499999999988L179.2930000000001,176.7979999999999L178.9070000000001,169.2379999999999L176.0110000000001,165.8299999999999L177.23400000000012,163.0349999999999L173.69400000000013,160.70899999999992L162.043,158.772Z"
    stroke-width="1"
    stroke-linejoin="round"
    style="-webkit-tap-highlight-color: rgba(0, 0, 0, 0); stroke-linejoin: round;"></path>
  <path
    fill="#cccccc"
    stroke="#222222"
    d="M191.457,193.856L200.725,184.553L201.884,181.628L205.61599999999999,165.224L212.719,175.911L213.208,176.616L214.789,177.258L216.36499999999998,177.574L223.95499999999998,183.782L226.856,184.553L228.972,188.228L235.995,195.27800000000002L232.531,198.28900000000002L228.564,200.77100000000002L221.73999999999998,205.71800000000002L218.87399999999997,209.234L228.27099999999996,217.116L222.42099999999996,223.983L221.72499999999997,226.482L218.87399999999997,224.683L216.84799999999996,226.082L210.65499999999994,217.809L210.65499999999994,215.66L210.57699999999994,211.892L205.61599999999993,207.595L201.11999999999992,202.698L196.92299999999992,201.037L193.73799999999991,198.139Z"
    stroke-width="1"
    stroke-linejoin="round"
    style="-webkit-tap-highlight-color: rgba(0, 0, 0, 0); stroke-linejoin: round;"></path>
  <path
    fill="#cccccc"
    stroke="#222222"
    d="M119.928,166.234L129.478,150.031L134.821,154.74L146.423,157.854L159.011,158.56900000000002L165.333,159.32000000000002L173.69299999999998,160.71L177.23299999999998,163.037L176.43299999999996,165.832L178.45699999999997,168.676L179.26399999999995,176.23999999999998L187.86299999999994,188.81599999999997L191.64899999999994,194.26699999999997L193.04299999999995,197.24899999999997L195.62099999999995,199.85299999999998L190.05599999999995,204.46499999999997L187.38899999999995,205.71799999999996L186.93199999999996,210.42099999999996L181.49699999999996,213.10099999999997L180.93799999999996,214.48399999999998L181.78599999999997,216.498L184.94399999999996,218.12199999999999L186.39399999999995,219.44299999999998L183.70799999999994,223.297L182.88299999999995,225.129L184.44999999999996,227.25L183.90599999999995,229.082L181.95999999999995,230.41899999999998L181.76399999999995,235.379L174.85199999999995,238.334L169.62499999999994,237.38L169.42399999999995,235.98L170.48699999999994,233.74499999999998L169.24199999999993,230.30299999999997L165.78299999999993,226.48199999999997L162.58999999999992,225.80499999999998L161.17399999999992,223.42799999999997L159.4339999999999,221.88699999999997L159.01899999999992,218.69999999999996L144.9699999999999,219.56699999999995L144.60299999999992,214.48399999999995L145.91699999999992,213.04599999999996L146.42899999999992,209.03699999999998L145.0099999999999,207.36999999999998L143.9579999999999,206.62999999999997L139.66699999999992,198.22599999999997L138.15799999999993,195.54299999999998L137.82899999999992,192.69099999999997L140.26599999999993,189.97999999999996L142.22099999999995,187.30699999999996L140.28599999999994,184.77499999999995L135.84499999999994,181.26899999999995L131.21899999999994,178.24899999999994L128.92099999999994,176.96299999999994Z"
    stroke-width="1"
    stroke-linejoin="round"
    style="-webkit-tap-highlight-color: rgba(0, 0, 0, 0); stroke-linejoin: round;"></path>
  <path
    fill="#cccccc"
    stroke="#222222"
    d="M39.03,187.1L39.405,191.143L40.081,192.887L41.818000000000005,191.821L43.17,191.239L45.487,192.208L47.128,192.887L49.638,191.627L51.125,190.852L53.983,191.336L56.684999999999995,192.887L60.257999999999996,192.887L62.959999999999994,194.183L65.181,194.183L68.271,196.28L69.912,199.864L71.36,201.707L72.904,202.482L76.187,200.35L78.794,199.18699999999998L81.786,198.314L83.621,198.218L84.104,201.22199999999998L84.585,203.26899999999998L86.517,207.134L89.413,208.297L92.889,207.42499999999998L100.612,195.40699999999998L104.76299999999999,188.81599999999997L106.01899999999999,188.81599999999997L110.07199999999999,184.35799999999998L107.41799999999999,180.25799999999998L84.74699999999999,181.063L83.58799999999998,184.165L80.36399999999998,186.147L71.20199999999997,189.98L66.53199999999997,188.34799999999998L68.88499999999996,183.379L62.828999999999965,181.66199999999998L59.12999999999997,176.67L57.07799999999997,176.67L56.55699999999997,178.47899999999998L55.14099999999997,180.52599999999998L51.12499999999997,183.54999999999998L46.90299999999997,183.13L39.50999999999997,177.14499999999998L36.97999999999997,179.88699999999997L36.27299999999997,182.35699999999997L39.22099999999997,184.13099999999997Z"
    stroke-width="1"
    stroke-linejoin="round"
    style="-webkit-tap-highlight-color: rgba(0, 0, 0, 0); stroke-linejoin: round;"></path>
  <path
    fill="#cccccc"
    stroke="#222222"
    d="M93.399,206.63L93.98,205.718L104.763,188.81599999999997L106.5,188.81599999999997L109.976,183.90599999999998L107.418,180.25799999999998L108.72200000000001,178.15599999999998L113.066,178.34999999999997L120.13900000000001,166.48599999999996L128.638,176.66999999999996L134.76600000000002,180.41699999999997L139.00400000000002,183.76399999999998L142.22100000000003,187.307L137.82900000000004,192.69099999999997L138.15800000000004,195.54299999999998L141.53300000000004,201.54399999999998L143.35800000000003,205.718L143.95800000000003,206.63L141.33200000000002,208.587L139.03900000000002,209.84699999999998L130.95800000000003,210.13899999999998L127.09600000000003,208.29699999999997L123.36300000000003,204.96899999999997L122.62700000000002,204.46499999999997L120.91800000000002,206.64999999999998L119.92800000000003,207.813L118.67800000000003,208.587L118.48700000000002,209.95999999999998L118.08500000000002,212.85199999999998L115.06200000000003,217.11799999999997L113.32400000000003,219.57199999999997L114.86800000000002,220.86399999999998L114.74000000000002,222.15599999999998L114.48100000000002,223.70799999999997L116.05800000000002,223.70799999999997L118.67800000000003,224.61199999999997L118.67800000000003,228.48799999999997L119.92800000000003,230.16799999999998L120.91800000000002,231.58999999999997L120.53200000000002,236.11299999999997L118.08500000000002,238.33399999999997L115.25300000000003,238.33399999999997L113.58100000000003,239.08299999999997L112.42200000000003,241.40899999999996L110.74800000000002,242.44399999999996L109.97600000000001,239.99099999999996L105.60000000000001,236.49999999999994L102.12500000000001,233.52699999999993L96.96300000000001,231.07299999999992L92.34100000000001,229.26299999999992L86.947,228.97199999999992L87.57900000000001,226.41999999999993L89.768,219.82999999999993L92.727,211.30199999999994Z"
    stroke-width="1"
    stroke-linejoin="round"
    style="-webkit-tap-highlight-color: rgba(0, 0, 0, 0); stroke-linejoin: round;"></path>
  <path
    fill="#cccccc"
    stroke="#222222"
    d="M34.269,186.617L38.985,186.617L39.405,191.143L40.56,192.592L43.17,191.239L44.792,191.918L47.128,192.887L51.125,190.852L53.983,191.336L56.299,192.887L60.258,192.887L62.96,194.183L65.181,194.183L68.182,196.219L70.202,200.058L72.904,202.482L75.518,200.559L78.363,199.378L81.786,198.314L83.598,198.09199999999998L84.206,201.66099999999997L86.018,205.71799999999996L86.517,207.13399999999996L89.413,208.29699999999997L91.155,207.81299999999996L92.889,207.42499999999995L92.813,210.71199999999996L89.768,219.82999999999996L87.57900000000001,225.67999999999995L86.947,228.97199999999995L82.46900000000001,228.97199999999995L79.298,228.41099999999994L77.73100000000001,227.94299999999996L75.287,229.90899999999996L73.795,231.68799999999996L72.489,232.34399999999997L69.037,230.19099999999997L63.57900000000001,225.03999999999996L61.668000000000006,222.13699999999997L59.43000000000001,218.10999999999999L58.12400000000001,215.676L55.41900000000001,212.399L51.68800000000001,208.587L48.42400000000001,206.219L45.824000000000005,202.285L41.708000000000006,199.383L39.40500000000001,196.667L37.04400000000001,194.183L34.99200000000001,191.918L34.26900000000001,189.457L34.042000000000016,186.617"
    stroke-width="1"
    stroke-linejoin="round"
    style="-webkit-tap-highlight-color: rgba(0, 0, 0, 0); stroke-linejoin: round;"></path>
  <path
    fill="#cccccc"
    stroke="#222222"
    d="M120.918,231.152L118.27900000000001,228.256L118.67800000000001,224.612L115.36300000000001,223.708L114.48100000000001,223.708L114.86800000000001,220.864L113.32400000000001,219.572L118.08500000000001,212.852L118.67800000000001,208.58700000000002L119.92800000000001,207.81300000000002L122.62700000000001,204.465L125.733,207.082L127.682,208.297L129.909,209.638L132.178,210.139L135.754,209.794L139.039,209.847L141.332,208.58700000000002L143.422,207.30100000000002L144.359,206.70000000000002L146.19500000000002,208.58700000000002L145.961,212.70700000000002L144.95700000000002,214.09500000000003L144.746,216.46800000000002L144.97,219.567L151.585,219.15900000000002L157.511,218.86700000000002L158.615,218.70000000000002L159.434,221.88700000000003L161.174,223.42800000000003L162.043,225.69000000000003L165.17000000000002,226.35300000000004L169.24200000000002,230.30300000000003L170.48700000000002,233.74500000000003L169.42400000000004,235.98000000000005L169.62500000000003,237.38000000000005L173.56800000000004,238.33400000000006L171.87600000000003,240.74100000000007L169.39000000000004,242.04000000000008L168.89300000000003,243.93800000000007L167.10100000000003,245.43600000000006L164.01700000000002,248.23300000000006L163.71800000000002,250.03000000000006L158.346,250.03000000000006L157.774,247.23500000000007L156.455,246.53600000000006L152.973,246.33400000000006L150.38600000000002,243.63700000000006L150.28700000000003,241.94000000000005L136.45800000000003,241.54200000000006L134.36700000000002,237.74500000000006L132.87500000000003,235.44700000000006L132.17800000000003,233.55000000000007L130.687,233.35000000000008L129.09400000000002,232.25000000000009L128.99500000000003,229.3540000000001L128.79600000000002,228.1560000000001L128.99500000000003,227.2480000000001L125.41300000000004,226.4820000000001L124.31900000000005,228.8540000000001L124.51800000000004,230.4540000000001L122.52800000000005,230.3530000000001Z"
    stroke-width="1"
    stroke-linejoin="round"
    style="-webkit-tap-highlight-color: rgba(0, 0, 0, 0); stroke-linejoin: round;"></path>
  <path
    fill="#cccccc"
    stroke="#222222"
    d="M110.589,242.842L112.422,241.40900000000002L113.581,239.08300000000003L115.769,238.33400000000003L117.631,238.33400000000003L120.532,236.11300000000003L120.91799999999999,231.15200000000002L122.43499999999999,229.816L124.51799999999999,230.454L124.51799999999999,230.454L124.65399999999998,228.127L125.41299999999998,226.482L128.99499999999998,227.248L129.057,231.152L129.083,231.94899999999998L130.38,233.13799999999998L132.178,233.54999999999998L133.601,236.56599999999997L136.171,240.44399999999996L137.01,241.55099999999996L141.649,241.64899999999997L148.245,241.78999999999996L150.585,241.83799999999997L150.585,243.16799999999998L152.57600000000002,245.80899999999997L155.81100000000004,246.49699999999996L157.51100000000002,247.09199999999996L158.18600000000004,249.24499999999995L163.38500000000005,249.98299999999995L164.01700000000005,248.23299999999995L168.89300000000006,243.93799999999996L169.39000000000007,242.03999999999996L171.87600000000006,240.74099999999996L173.56800000000007,238.33399999999995L179.95700000000008,235.90699999999995L181.76400000000007,235.37899999999996L182.28400000000008,242.31699999999995L183.18000000000006,247.55499999999995L186.39400000000006,249.10999999999996L189.53100000000006,250.98899999999995L191.45700000000005,252.54199999999994L188.63600000000005,257.9359999999999L186.93700000000004,261.74299999999994L185.87900000000005,265.66799999999995L184.64600000000004,269.05699999999996L184.88900000000004,273.87699999999995L185.49200000000005,278.8419999999999L186.43700000000004,281.88699999999994L185.13400000000004,283.6859999999999L183.26200000000003,282.7879999999999L182.61000000000004,284.5859999999999L182.28400000000005,285.4849999999999L173.00200000000004,280.4169999999999L170.80300000000003,278.9459999999999L167.22100000000003,275.4299999999999L162.82400000000004,272.0789999999999L157.51100000000005,268.0749999999999L149.87600000000006,263.5769999999999L139.94300000000007,259.3269999999999L136.03400000000008,258.2639999999999L125.12400000000008,258.0999999999999L121.94800000000008,255.1589999999999L120.40100000000008,252.54199999999992L118.04000000000008,251.0689999999999L115.76900000000008,249.2719999999999L111.68800000000007,247.1469999999999L110.22300000000007,246.08399999999992L110.74800000000008,242.44399999999993"
    stroke-width="1"
    stroke-linejoin="round"
    style="-webkit-tap-highlight-color: rgba(0, 0, 0, 0); stroke-linejoin: round;"></path>
  <path
    fill="#cccccc"
    stroke="#222222"
    d="M191.457,252.542L183.702,247.808L183.18,246.773L181.764,235.38L181.948,230.733L183.906,229.083L184.449,227.251L182.977,224.665L184.95000000000002,221.82L186.39300000000003,219.444L184.50500000000002,217.81L181.78500000000003,216.499L180.937,214.48499999999999L181.496,213.10199999999998L186.931,210.42199999999997L187.388,205.71899999999997L190.055,204.46599999999998L195.619,199.85399999999998L200.243,202.307L203.891,205.719L208.58499999999998,210.16899999999998L210.65399999999997,212.30399999999997V217.80999999999997L211.47099999999998,219.18699999999998L216.84599999999998,226.08299999999997L218.87199999999999,223.96599999999998L221.89499999999998,225.86499999999998L222.664,223.49699999999999L228.26899999999998,217.117L234.78099999999998,214.176L237.956,212.58499999999998C237.956,212.58499999999998,241.01999999999998,210.908,241.142,213.37099999999998C241.263,215.83299999999997,241.142,217.80999999999997,241.142,217.80999999999997L245.696,223.02199999999996L246.549,224.09599999999998L253.928,219.25199999999998L259.033,225.13L266.962,219.644L270.582,223.42600000000002L273.191,224.15200000000002L276.67199999999997,230.116L281.44599999999997,235.34900000000002L284.42299999999994,236.501L285.50299999999993,239.858L289.12499999999994,244.07500000000002L286.19399999999996,244.89900000000003L283.87499999999994,244.51200000000003L281.8159999999999,243.21900000000002L276.2809999999999,243.09000000000003L273.7079999999999,243.86500000000004L271.00499999999994,245.02700000000004L269.07399999999996,244.51100000000005L266.96099999999996,243.86500000000007L263.53799999999995,242.83200000000008L251.64799999999997,242.3160000000001L246.41799999999998,246.4490000000001L243.93099999999998,248.7750000000001L243.201,250.02900000000008L239.339,246.83800000000008L235.03,250.02900000000008L232.388,254.33200000000008L228.012,258.46900000000005L225.568,261.69800000000004L223.233,263.509H219.774L215.398,260.665L205.615,256.53000000000003L196.47500000000002,253.29800000000003L191.457,252.542Z"
    stroke-width="1"
    stroke-linejoin="round"
    style="-webkit-tap-highlight-color: rgba(0, 0, 0, 0); stroke-linejoin: round;"></path>
  <path
    fill="#cccccc"
    stroke="#222222"
    d="M182.284,285.485L183.262,282.788L185.13400000000001,283.68600000000004L186.437,281.88700000000006L185.032,276.09000000000003L184.64600000000002,269.057L185.28500000000003,266.663L189.00700000000003,257.225L191.45700000000002,252.54200000000003L195.09300000000002,253.09000000000003L199.76700000000002,254.46100000000004L208.91000000000003,257.922L213.52900000000002,259.874L217.66400000000002,262.13500000000005L221.584,263.99700000000007L227.031,268.41100000000006L235.721,276.10200000000003L243.089,281.65700000000004L243.089,283.62000000000006L241.135,284.27200000000005L239.831,285.22100000000006L239.505,287.99500000000006L238.528,289.18000000000006L240.809,290.6530000000001L242.275,291.7970000000001L245.043,290.6530000000001L245.859,290.16300000000007L247.162,291.7970000000001L248.465,296.0490000000001L246.184,297.6840000000001L243.933,299.4320000000001L242.765,298.50200000000007L241.45899999999997,298.50200000000007L241.13499999999996,302.59200000000004L238.85299999999995,305.208L236.73599999999996,308.317L237.55099999999996,313.221L235.03199999999995,313.221L233.63999999999996,310.77L233.15099999999995,313.221L232.66299999999995,314.858L231.48899999999995,316.495L230.38199999999995,316.495L227.93799999999996,312.40500000000003L223.53899999999996,305.70200000000006L218.48899999999995,301.28200000000004L213.76299999999995,297.848L205.45499999999996,293.106L202.35899999999995,292.29L196.33199999999997,290.653L191.45699999999997,287.995L185.41599999999997,286.563Z"
    stroke-width="1"
    stroke-linejoin="round"
    style="-webkit-tap-highlight-color: rgba(0, 0, 0, 0); stroke-linejoin: round;"></path>
  <path
    fill="#cccccc"
    stroke="#222222"
    d="M221.289,263.442L223.755,263.106L227.56799999999998,259.057L229.17999999999998,256.909L232.253,254.46099999999998L233.90099999999998,251.68599999999998L235.60799999999998,249.60199999999998L239.34099999999998,246.83799999999997L243.57399999999998,249.66499999999996L251.65099999999998,242.31699999999995L263.926,242.83299999999994L270.609,244.59999999999994L276.284,243.08999999999995L281.819,243.21899999999994L284.853,244.67599999999993L289.534,243.93799999999993L289.501,246.87699999999992L290.719,248.29299999999992L291.611,249.9929999999999L292.168,251.05499999999992L293.472,252.36399999999992L295.644,251.92599999999993L295.721,252.87899999999993L295.721,254.91499999999994L296.835,256.9629999999999L296.976,257.6269999999999L295.934,260.3639999999999L307.235,274.4669999999999L310.87600000000003,279.1449999999999L310.105,280.4029999999999L306.91900000000004,280.4029999999999L304.50500000000005,282.4399999999999L302.1890000000001,283.69799999999987L302.5750000000001,286.02599999999984L301.0300000000001,287.99499999999983L298.13400000000007,285.44399999999985L297.1690000000001,287.99499999999983L290.7010000000001,288.83399999999983L289.6380000000001,290.0939999999998L290.9910000000001,292.6159999999998L291.9560000000001,293.4869999999998L292.6310000000001,296.7679999999998L288.67300000000006,296.7679999999998L287.41800000000006,297.4589999999998L285.1000000000001,297.4589999999998L284.81200000000007,294.55299999999977L275.8330000000001,294.2619999999998L276.02600000000007,290.1919999999998L275.0610000000001,287.18799999999976L273.2270000000001,284.1819999999998L270.9110000000001,281.7579999999998L266.96300000000014,281.85799999999983L263.95800000000014,284.76399999999984L260.29100000000017,287.99499999999983L256.8140000000002,292.12899999999985L256.0420000000002,292.80699999999985L250.7320000000002,288.64099999999985L245.3290000000002,283.40699999999987L243.06400000000022,281.84799999999984L237.6030000000002,277.78599999999983L234.0780000000002,274.6329999999998L228.79500000000021,269.8889999999998L222.59900000000022,264.70199999999977Z"
    stroke-width="1"
    stroke-linejoin="round"
    style="-webkit-tap-highlight-color: rgba(0, 0, 0, 0); stroke-linejoin: round;"></path>
  <path
    fill="#cccccc"
    stroke="#222222"
    d="M229.67,317.042L232.22799999999998,316.155L233.98699999999997,310.669L235.69699999999997,313.222H237.551L236.736,308.318L239.24699999999999,304.75899999999996L241.48999999999998,302.02299999999997L241.45899999999997,298.503H242.765L243.933,299.433L248.465,296.05L246.397,290.308L242.67399999999998,291.634L238.896,289.099L239.98999999999998,287.247L240.45399999999998,285.149L243.08799999999997,283.62L243.06299999999996,281.849L253.04299999999995,290.456L255.60499999999996,292.468L258.01899999999995,294.406V300.459L263.26599999999996,305.725L266.08199999999994,307.40500000000003L272.10799999999995,307.182L273.64699999999993,307.293L273.2009999999999,314.69100000000003L274.9529999999999,315.699V316.49600000000004L271.5249999999999,317.71500000000003H269.2919999999999L268.2879999999999,322.422L266.9619999999999,326.34400000000005V330.93800000000005L264.4929999999999,336.653C264.4929999999999,336.653,266.32799999999986,343.93600000000004,266.0819999999999,344.27200000000005C265.8319999999999,344.61000000000007,266.0819999999999,348.1940000000001,266.0819999999999,348.1940000000001L266.72699999999986,351.4440000000001L260.4759999999999,356.26200000000006L258.7999999999999,357.83000000000004L259.0259999999999,365.90000000000003L257.0139999999999,367.244L253.6669999999999,363.09900000000005L248.46399999999988,358.16700000000003L243.2859999999999,352.45200000000006L239.3779999999999,343.15100000000007L233.3509999999999,327.2390000000001L229.67,317.042Z"
    stroke-width="1"
    stroke-linejoin="round"
    style="-webkit-tap-highlight-color: rgba(0, 0, 0, 0); stroke-linejoin: round;"></path>
  <path
    fill="#cccccc"
    stroke="#222222"
    d="M266.083,346.959L266.083,344.27L264.495,336.65099999999995L266.963,329.34999999999997L266.963,326.342L270.428,317.155L274.955,315.698L272.979,314.465L272.979,306.846L266.08299999999997,307.403L257.803,299.723L258.148,293.877L256.814,292.129L260.86600000000004,286.903L265.04600000000005,283.422L267.39400000000006,281.848L270.91100000000006,281.75800000000004L274.67400000000004,286.31500000000005L276.026,290.19200000000006L276.026,294.27000000000004L284.812,294.55300000000005L285.649,296.76800000000003L287.974,297.153L289.157,296.76800000000003L292.631,296.76800000000003L291.95599999999996,293.487L290.578,291.84200000000004L289.638,290.09400000000005L290.70099999999996,288.83400000000006L295.534,287.99500000000006L297.284,287.68800000000005L298.134,285.444L301.269,287.68800000000005L305.152,290.50200000000007L305.152,294.9050000000001L306.36899999999997,295.5490000000001L306.36899999999997,296.7680000000001L305.76,297.93000000000006L303.018,296.7680000000001L301.49499999999995,295.5490000000001L298.453,294.9050000000001L299.51399999999995,296.7680000000001L301.3419999999999,300.9030000000001L302.40899999999993,303.7270000000001L299.66599999999994,305.6470000000001L296.31399999999996,308.70600000000013L293.72499999999997,311.3030000000001L290.65299999999996,312.2230000000001L287.93399999999997,314.3600000000001L287.02,316.4950000000001L290.69399999999996,317.6800000000001L294.03,319.1060000000001L293.94599999999997,320.0200000000001L298.453,320.0220000000001L300.92199999999997,321.7110000000001L302.866,323.08100000000013L302.714,325.34000000000015L300.885,327.67000000000013L296.923,328.89300000000014L293.26800000000003,333.93800000000016L289.15700000000004,340.36400000000015L285.03900000000004,344.03400000000016L279.40500000000003,347.9560000000002L276.357,346.6330000000002L274.31800000000004,346.0240000000002L273.61400000000003,347.95600000000024L269.34700000000004,347.95600000000024Z"
    stroke-width="1"
    stroke-linejoin="round"
    style="-webkit-tap-highlight-color: rgba(0, 0, 0, 0); stroke-linejoin: round;"></path>
  <path
    fill="#cccccc"
    stroke="#222222"
    d="M302.409,303.727L302.156,303.08799999999997L298.45300000000003,294.905L301.495,295.549L304.653,297.459L305.76000000000005,297.93L306.369,295.54900000000004L305.15200000000004,294.90500000000003L305.15200000000004,290.502L301.26900000000006,287.688L302.57500000000005,286.026L302.201,283.764L306.77700000000004,280.524L309.00100000000003,280.524L310.87600000000003,279.145L307.235,274.467L309.701,273.827L314.065,273.184L317.518,272.86800000000005L318.24399999999997,275.196L319.83599999999996,275.05100000000004L319.83599999999996,278.68000000000006L320.37199999999996,279.24300000000005L323.02399999999994,280.86800000000005L326.35499999999996,281.15900000000005L328.631,282.63300000000004L334.022,286.598L335.267,287.604L335.771,287.995L341.276,287.995L343.16,286.831L344.31800000000004,287.995L346.88300000000004,285.61L346.00200000000007,283.35400000000004L343.7390000000001,280.57500000000005L348.2300000000001,276.21500000000003L348.2300000000001,273.543L350.11300000000006,271.85200000000003L352.10400000000004,272.47700000000003L354.06100000000004,274.127L355.732,275.524L359.262,276.723L363.814,277.59200000000004L365.23,278.23900000000003L365.68800000000005,278.543L366.13100000000003,284.442L366.62800000000004,287.137L369.545,290.512L373.336,294.282L376.389,298.811L377.725,302.58799999999997L378.607,312.94599999999997L378.607,325.34L378.607,326.69399999999996L374.61400000000003,329.55899999999997L372.095,330.06499999999994L370.24300000000005,330.06499999999994L368.74100000000004,328.7989999999999L366.32300000000004,329.3889999999999L364.29200000000003,330.7369999999999L360.01200000000006,329.3049999999999L356.9940000000001,328.8849999999999L352.21100000000007,329.3889999999999L350.2490000000001,328.9689999999999L350.2490000000001,325.33999999999986L348.7720000000001,321.42999999999984L349.1060000000001,318.94399999999985L350.2490000000001,316.83999999999986L351.95900000000006,313.3029999999999L352.21100000000007,309.7639999999999L350.9070000000001,303.4459999999999L347.8470000000001,299.49299999999994L345.0780000000001,299.43199999999996L341.55500000000006,299.43199999999996L339.3740000000001,301.29299999999995L335.9330000000001,302.01399999999995L333.6670000000001,300.91799999999995L329.0530000000001,301.29299999999995L325.3610000000001,300.74999999999994L324.1870000000001,304.45799999999997L322.5090000000001,305.467L318.7330000000001,305.637L316.6350000000001,304.54L313.4860000000001,304.709L311.2670000000001,306.057L308.66500000000013,305.045L305.72900000000016,304.29Z"
    stroke-width="1"
    stroke-linejoin="round"
    style="-webkit-tap-highlight-color: rgba(0, 0, 0, 0); stroke-linejoin: round;"></path>
  <path
    fill="#cccccc"
    stroke="#222222"
    d="M349.449,329.516L346.05600000000004,327.81100000000004L342.665,324.62000000000006L339.625,322.41800000000006L337.575,320.2900000000001L333.687,318.94200000000006L330.082,318.5160000000001L326.407,317.59400000000005L325.192,314.3310000000001L323.58,310.9220000000001L321.882,310.9220000000001L319.692,309.7170000000001L320.335,305.5630000000001L323.423,304.7780000000001L324.29200000000003,304.12500000000006L325.708,300.80100000000004L331.403,301.10200000000003L333.812,300.80100000000004L336.581,301.85600000000005L339.85,300.88900000000007L342.458,299.12200000000007L347.93,299.5730000000001L350.249,302.2020000000001L351.478,305.0380000000001L352.125,310.9850000000001L351.711,313.6200000000001L350.94300000000004,315.3600000000001L349.725,317.8030000000001L349.04,319.4420000000001L348.80600000000004,322.01800000000014L350.249,325.82500000000016L350.249,328.96900000000016Z"
    stroke-width="1"
    stroke-linejoin="round"
    style="-webkit-tap-highlight-color: rgba(0, 0, 0, 0); stroke-linejoin: round;"></path>
  <path
    fill="#cccccc"
    stroke="#222222"
    d="M302.866,323.081L299.573,320.762L298.22299999999996,320.02L293.94599999999997,320.02L294.03,319.106L291.332,317.954L287.167,316.15500000000003L287.93399999999997,314.36L290.65299999999996,312.223L293.50199999999995,311.37L298.28599999999994,306.90500000000003L302.40899999999993,303.72700000000003L307.9049999999999,304.85200000000003L311.26699999999994,306.057L310.31399999999996,309.346L305.31399999999996,311.319L305.09,314.319L304.751,315.272L307.018,316.198L310.43199999999996,316.198L313.09399999999994,316.80699999999996L314.92799999999994,317.99899999999997L315.75299999999993,319.91499999999996L315.34799999999996,321.657L314.92799999999994,322.702L310.25699999999995,323.081Z"
    stroke-width="1"
    stroke-linejoin="round"
    style="-webkit-tap-highlight-color: rgba(0, 0, 0, 0); stroke-linejoin: round;"></path>
  <path
    fill="#cccccc"
    stroke="#222222"
    d="M321.936,320.719L321.936,321.239L320.042,322.27799999999996L317.11199999999997,322.27799999999996L314.92799999999994,322.27799999999996L315.75299999999993,320.20599999999996L314.92799999999994,318.30299999999994L313.9959999999999,317.19999999999993L311.6859999999999,316.1979999999999L307.9429999999999,316.1979999999999L305.54299999999995,315.59599999999995L304.751,315.27199999999993L305.09,314.31899999999996L304.97299999999996,312.49899999999997L305.31399999999996,311.31899999999996L310.347,309.06499999999994L311.267,306.05699999999996L313.844,304.68999999999994L316.635,304.53999999999996L319.692,305.592L320.335,305.563L319.692,309.717L321.882,310.92199999999997L323.58,310.92199999999997L326.246,317.2L327.69399999999996,318.15299999999996L326.49999999999994,319.51L322.54099999999994,320.893Z"
    stroke-width="1"
    stroke-linejoin="round"
    style="-webkit-tap-highlight-color: rgba(0, 0, 0, 0); stroke-linejoin: round;"></path>
</svg>
