<svg height="420" version="1.1" width="540" xmlns="http://www.w3.org/2000/svg" xmlns:xlink="http://www.w3.org/1999/xlink" style="overflow: hidden; position: relative; left: -0.6px; top: 0.8px;">
  <desc style="-webkit-tap-highlight-color: rgba(0, 0, 0, 0);">Created with Raphaël 2.2.0</desc>
  <defs style="-webkit-tap-highlight-color: rgba(0, 0, 0, 0);"></defs>
  <path
    fill="#cccccc"
    stroke="#222222"
    d="M164.528,89.971L160.72899999999998,67.352L163.291,65.673L168.503,67.617L168.503,65.673L169.91799999999998,65.673L169.47699999999998,55.513000000000005L169.91799999999998,54.187000000000005L171.15499999999997,52.597L171.15499999999997,45.793L169.38799999999998,45.793L163.82099999999997,41.11L165.05899999999997,36.163L162.84999999999997,34.571999999999996L164.70499999999996,33.42399999999999L165.94199999999995,31.214999999999993L165.49899999999994,21.849999999999994L167.53199999999993,16.636999999999993L165.41099999999992,11.688999999999993L166.91299999999993,11.069999999999993L169.4759999999999,11.865999999999993L173.27399999999992,13.809999999999992L177.69199999999992,16.90199999999999L178.39899999999992,17.60799999999999L184.67299999999992,16.63699999999999L187.32299999999992,13.72199999999999L190.68099999999993,16.63699999999999L192.97799999999992,15.39999999999999L195.00999999999993,15.84099999999999L195.80499999999992,16.81299999999999L196.95399999999992,19.46399999999999L199.69299999999993,21.67299999999999L202.96199999999993,23.615999999999993L206.67299999999994,24.941999999999993L209.32299999999995,25.471999999999994L211.62099999999995,24.676999999999992L213.38799999999995,23.351999999999993L216.03899999999996,25.03099999999999L221.51599999999996,28.29999999999999L224.25399999999996,29.536999999999992L221.69399999999996,32.62899999999999L220.80999999999997,33.33599999999999L220.545,38.37199999999999L215.95,37.75399999999999L213.82999999999998,40.93399999999999L213.47599999999997,47.38399999999999L202.25499999999997,50.91799999999999L201.45999999999998,54.45299999999999L201.361,55.38199999999999L199.849,57.56299999999999L198.721,58.16299999999999L198.898,60.90199999999999L199.781,63.55299999999998L199.693,65.40899999999998L202.52,67.43999999999998L204.55200000000002,70.17999999999998L204.37600000000003,71.59399999999998L202.69700000000003,73.62499999999999L202.78600000000003,79.01499999999999L199.69300000000004,82.10699999999999L198.10300000000004,82.63699999999999L196.60100000000003,81.84199999999998L190.85800000000003,85.90699999999998L190.85800000000003,89.17499999999998L191.74100000000004,90.85399999999998L190.41700000000003,92.35599999999998L183.17100000000002,90.76499999999999L181.669,90.14699999999999L181.227,92.356L178.223,93.946L173.363,92.974L173.363,91.295L167.974,92.179Z"
    stroke-width="1"
    stroke-linejoin="round"
    style="-webkit-tap-highlight-color: rgba(0, 0, 0, 0); stroke-linejoin: round;"></path>
  <path
    fill="#cccccc"
    stroke="#222222"
    d="M199.992,81.809L202.786,79.015L202.697,73.625L204.376,71.593L204.552,70.02600000000001L202.51999999999998,67.44000000000001L199.69299999999998,65.40800000000002L199.78099999999998,63.55300000000002L198.89799999999997,60.902000000000015L198.72099999999998,58.16300000000002L199.84899999999996,57.56200000000002L201.37799999999996,55.22700000000002L202.25499999999997,50.91800000000002L213.47599999999997,47.38400000000002L213.82999999999998,40.93400000000002L215.951,37.75400000000002L220.546,38.37200000000002L220.81099999999998,33.33600000000002L221.79699999999997,32.50500000000002L224.25499999999997,29.536000000000016L225.52599999999995,30.473000000000017L228.73999999999995,31.607000000000017L230.35999999999996,32.13300000000002L233.35699999999997,34.23900000000002L235.34099999999998,35.57600000000002L237.04299999999998,35.17100000000002L239.18899999999996,34.40100000000002L240.11999999999998,34.64400000000002L242.956,32.94300000000002V30.31L246.804,29.865L253.285,23.424999999999997L253.689,19.982999999999997H255.066V18.321999999999996L256.078,20.224999999999994L257.33399999999995,22.330999999999996V28.973999999999997L260.1689999999999,32.699999999999996L263.7319999999999,32.659L265.7169999999999,30.674999999999997L267.7829999999999,32.334999999999994L271.26499999999993,35.209999999999994L273.8159999999999,35.37199999999999L276.0039999999999,40.718999999999994V45.37599999999999L276.6119999999999,47.03699999999999L277.0959999999999,55.17799999999999L277.4199999999999,57.64799999999999L279.7699999999999,60.72599999999999L281.71399999999994,65.1L283.01099999999997,67.854V69.15L280.53999999999996,71.62100000000001L280.984,77.29100000000001C280.984,77.29100000000001,282.36199999999997,79.07300000000001,282.32099999999997,79.23500000000001C282.28,79.39700000000002,282.28,80.97700000000002,282.28,80.97700000000002L282.23999999999995,83.85200000000002L283.01099999999997,85.87700000000002L283.902,87.49700000000003L284.23199999999997,92.12200000000003L285.04499999999996,98.31000000000003L285.371,106.65600000000003H278.85699999999997L277.10699999999997,105.92300000000003L275.722,106.41200000000003L275.479,106.65600000000003L273.199,104.33500000000004L271.00100000000003,106.65600000000003L273.28000000000003,109.22100000000003L272.17900000000003,112.55900000000003L271.20300000000003,117.15900000000002L270.83700000000005,118.62400000000002L268.39400000000006,119.92700000000002L268.15000000000003,126.72600000000003L265.341,131.00000000000003L265.015,131.36700000000002L263.387,129.73800000000003L259.926,133.07700000000003V134.82800000000003L257.646,136.53800000000004L256.01800000000003,135.27600000000004L254.79500000000002,136.90400000000002L254.919,141.66700000000003L253.697,143.74400000000003L255.365,145.16800000000003L255.122,147.57000000000002L250.929,149.52400000000003V153.63600000000002L247.26500000000001,154.08400000000003L246.286,151.76300000000003L242.704,150.21600000000004L246.368,145.73800000000003L243.071,139.87600000000003L236.516,136.98500000000004L235.213,131.81600000000003L231.916,127.62200000000003L230.97899999999998,124.93500000000003L232.56599999999997,121.23000000000003L233.05399999999997,117.93300000000004L233.09399999999997,115.24600000000004L232.76899999999998,112.92600000000004L231.50699999999998,110.36100000000005L227.80299999999997,107.38900000000005L222.46999999999997,104.70200000000006L220.84099999999998,103.56200000000005L221.00499999999997,102.66600000000005L223.08099999999996,100.42700000000005L220.96499999999995,93.94400000000005L219.29599999999994,88.33700000000005L213.67799999999994,90.53500000000004L213.14799999999994,93.18100000000004L208.30399999999995,97.53700000000003L199.99199999999993,81.80900000000004Z"
    stroke-width="1"
    stroke-linejoin="round"
    style="-webkit-tap-highlight-color: rgba(0, 0, 0, 0); stroke-linejoin: round;"></path>
  <path
    fill="#cccccc"
    stroke="#222222"
    d="M139.211,98.095C139.211,98.095,132.49800000000002,84.949,124.10700000000001,80.939V79.07499999999999L126.15800000000002,77.58299999999998L125.87800000000001,73.01399999999998L126.99700000000001,72.45499999999998L130.26000000000002,69.09799999999998L132.12500000000003,66.85999999999999L135.20200000000003,63.41099999999999L137.99900000000002,59.77399999999999L142.19500000000002,55.018999999999984L143.22100000000003,53.15499999999999L145.08600000000004,50.91699999999999L148.81600000000003,47.560999999999986L149.18900000000002,45.695999999999984L152.359,43.36499999999998L158.792,37.58399999999998L162.851,34.57299999999998L165.06,36.16299999999998L163.823,41.11099999999998L169.389,45.79399999999998H171.156V52.597999999999985L169.919,54.18799999999999L169.478,55.51399999999999L169.77,65.67399999999999H168.50500000000002V67.618L163.29300000000003,65.67399999999999L160.73000000000005,67.353L164.47700000000003,89.65599999999999L160.92400000000004,87.45299999999999L150.35400000000004,87.67399999999999L147.34400000000005,88.005L145.17800000000005,92.079L143.96700000000004,92.886L145.17800000000005,93.28999999999999L145.69200000000006,93.948L139.21100000000007,98.095Z"
    stroke-width="1"
    stroke-linejoin="round"
    style="-webkit-tap-highlight-color: rgba(0, 0, 0, 0); stroke-linejoin: round;"></path>
  <path
    fill="#cccccc"
    stroke="#222222"
    d="M172.928,99.009L172.782,93.117L173.363,92.974L178.223,93.946L181.169,92.386L181.644,90.04899999999999L182.875,90.64399999999999L190.417,92.356L191.741,90.854L190.858,89.075L190.858,85.907L196.548,81.87899999999999L198.103,82.63699999999999L199.604,82.13699999999999L199.99200000000002,81.80899999999998L203.11800000000002,87.72399999999999L206.82300000000004,94.73199999999999L208.30700000000004,97.53999999999999L213.15100000000004,93.184L213.68100000000004,90.538L219.29900000000004,88.339L223.07000000000002,100.384L221.11300000000003,102.556L220.84500000000003,103.564L222.02600000000004,104.39099999999999L223.81000000000003,105.377L226.15500000000003,106.559L228.05100000000002,107.588L229.65500000000003,108.874L231.21400000000003,110.125L231.78800000000004,110.924L232.77300000000005,112.92800000000001L232.99500000000006,114.507L232.99500000000006,115.72800000000001L233.08300000000006,116.295L228.13300000000007,116.498L224.04200000000006,113.257L222.78600000000006,116.214L218.04800000000006,117.18599999999999L208.27300000000005,116.862L206.70800000000006,120.588L205.46500000000006,121.722L202.38700000000006,124.368L201.84700000000007,124.90899999999999L199.52500000000006,123.181L191.64100000000008,123.50399999999999L191.2090000000001,121.722L187.96900000000008,123.073L187.10500000000008,120.75L185.86300000000008,118.05L183.48700000000008,116.7L183.7030000000001,114.918L181.4890000000001,115.296L180.3550000000001,113.352L176.6290000000001,112.11L175.03600000000012,111.921L174.3070000000001,112.974L174.3070000000001,116.295L172.4440000000001,117.51L169.7710000000001,115.24300000000001L167.0970000000001,115.24300000000001L167.0970000000001,114.18900000000001L164.91000000000008,113.54100000000001L164.91000000000008,112.48800000000001L165.8820000000001,110.54400000000001L166.9350000000001,109.00500000000001L169.6090000000001,110.787L170.8240000000001,108.357L169.6890000000001,104.955L170.41800000000012,101.472Z"
    stroke-width="1"
    stroke-linejoin="round"
    style="-webkit-tap-highlight-color: rgba(0, 0, 0, 0); stroke-linejoin: round;"></path>
  <path
    fill="#cccccc"
    stroke="#222222"
    d="M139.211,98.095L145.691,93.946L145.257,93.389L143.966,92.884L145.178,92.077L147.343,88.003L150.14399999999998,87.695L160.72899999999998,87.45599999999999L164.51199999999997,89.874L167.61699999999996,91.94999999999999L167.97399999999996,92.17899999999999L173.36299999999997,91.29499999999999L173.36299999999997,92.55899999999998L172.78199999999998,93.11699999999999L172.92799999999997,99.00899999999999L170.41799999999998,101.47199999999998L169.68899999999996,104.95499999999998L165.47899999999996,105.70799999999998L165.76899999999995,101.77699999999999L162.95499999999996,98.62399999999998L162.22699999999995,101.19499999999998L159.36399999999995,100.80699999999997L158.92799999999994,105.70799999999997L161.44999999999993,107.79399999999997L161.93599999999992,110.12399999999997L161.25599999999991,110.94799999999996L160.28599999999992,110.94799999999996L158.05399999999992,109.05599999999997L156.28699999999992,108.01799999999997L154.4629999999999,110.36499999999997L154.48899999999992,113.89199999999997L156.28699999999992,113.89199999999997L156.28699999999992,115.67399999999996L158.53899999999993,116.15999999999997L159.67199999999994,116.15999999999997L159.94199999999995,114.80999999999997L162.37199999999996,115.02599999999997L162.26499999999996,116.15999999999997L162.74999999999997,117.35499999999996L164.04699999999997,118.91499999999996L164.20799999999997,123.18099999999997L168.31199999999998,123.66599999999997L169.33899999999997,127.44599999999997L165.99099999999996,127.93299999999996L165.55799999999996,127.93299999999996L168.04299999999998,132.84699999999995L169.93099999999998,132.84699999999995L172.146,138.89499999999995L173.659,144.99699999999996L174.523,147.64299999999994L175.495,148.34499999999994L175.81900000000002,150.50399999999993L171.121,150.50399999999993L170.09400000000002,148.29099999999994L168.258,148.12899999999993L163.34400000000002,151.26099999999994L161.88700000000003,150.93799999999993L160.91500000000002,149.58599999999993L158.323,140.29899999999992L155.02800000000002,133.16999999999993L151.14000000000001,125.60999999999993L145.95600000000002,120.74999999999993L143.25600000000003,116.15999999999993L143.68800000000002,109.89599999999993L141.42000000000002,102.71399999999993Z"
    stroke-width="1"
    stroke-linejoin="round"
    style="-webkit-tap-highlight-color: rgba(0, 0, 0, 0); stroke-linejoin: round;"></path>
  <path
    fill="#cccccc"
    stroke="#222222"
    d="M169.931,132.847H168.043L165.725,127.933L169.339,127.447L168.312,123.667L164.208,123.182L164.046,118.916L162.75,117.356L162.264,116.161V115.017L159.941,114.81L159.508,115.932L158.756,116.161L156.286,115.459V113.893L154.488,113.746L154.463,110.366L156.287,108.019L158.054,109.057L160.286,110.949H161.256L161.936,110.125L161.497,108.02L161.45100000000002,107.79599999999999L158.92900000000003,105.71L159.33700000000002,100.67299999999999L162.198,101.00099999999999L162.95600000000002,98.62599999999999L165.70200000000003,101.70299999999999L165.49600000000004,105.49199999999999L169.69100000000003,104.957L170.79400000000004,108.264L169.57700000000003,110.61099999999999L166.93700000000004,109.00699999999999L166.03200000000004,110.33099999999999L164.91200000000003,112.109V113.386L167.09900000000005,114.191V115.131L169.69100000000006,115.244L172.44500000000005,117.512L174.30800000000005,116.141V112.97500000000001L174.95200000000006,112.04400000000001L176.63100000000006,112.111L180.35700000000006,113.35300000000001L181.49100000000004,115.29700000000001L183.70500000000004,114.91900000000001L183.52100000000004,116.44200000000001L185.86500000000004,118.051L188.14600000000004,123.001L191.24800000000005,121.875V124.91H188.73000000000005L188.86100000000005,127.542L188.79600000000005,129.049C188.79600000000005,129.049,184.96200000000005,132.715,184.86400000000006,132.848C184.76600000000005,132.98100000000002,169.93100000000007,132.847,169.93100000000007,132.847Z"
    stroke-width="1"
    stroke-linejoin="round"
    style="-webkit-tap-highlight-color: rgba(0, 0, 0, 0); stroke-linejoin: round;"></path>
  <path
    fill="#cccccc"
    stroke="#222222"
    d="M175.819,150.504L175.49499999999998,148.345L174.45699999999997,147.439L172.22099999999998,139.197L172.22099999999998,138.535L169.95199999999997,132.906L184.86099999999996,132.847L188.79299999999995,129.048L188.85799999999995,127.541L188.78499999999994,126.05799999999999L188.72799999999995,124.90899999999999L191.24599999999995,124.788L191.48899999999995,122.875L191.83199999999994,123.497L199.52499999999995,123.181L201.84699999999995,124.90899999999999L206.70799999999994,120.588L208.41099999999994,116.86699999999999L218.04799999999994,117.18599999999999L222.78599999999994,116.214L224.04199999999994,113.257L228.13299999999995,116.498L232.87099999999995,116.304L233.08299999999994,117.71300000000001L232.61799999999994,120.90400000000001L230.98299999999995,124.93800000000002L231.91899999999995,127.62400000000002L235.21599999999995,131.818L236.51899999999995,136.988L243.07399999999996,139.879L246.37099999999995,145.74099999999999L242.70699999999997,150.219L236.51599999999996,154.447L235.81399999999996,155.149L235.21999999999997,158.173L233.33099999999996,159.145L232.30399999999997,160.00900000000001L231.81799999999998,162.43900000000002L230.576,162.43900000000002L229.60299999999998,165.30100000000002L225.52599999999998,170.864L225.12199999999999,172.321L225.52599999999998,174.697L224.90699999999998,178.586L222.42199999999997,182.366L217.50799999999998,182.63600000000002L215.34699999999998,182.20400000000004L213.242,181.71800000000005L210.596,179.01700000000005L209.137,178.10000000000005L202.117,177.07400000000004L202.009,174.21100000000004L196.231,175.29200000000003L195.529,176.53400000000002L194.719,177.77500000000003L192.721,176.58700000000005L192.667,169.56700000000004L191.102,169.62200000000004L190.83100000000002,175.83200000000005L189.42700000000002,175.93900000000005L187.42900000000003,173.07700000000006L185.21500000000003,168.59500000000006L184.89100000000002,168.21700000000007L186.56500000000003,168.05500000000006L186.56500000000003,162.33200000000005L183.86500000000004,158.11900000000006L183.21700000000004,157.57900000000006L180.78700000000003,153.63700000000006L178.95100000000002,151.26100000000005Z"
    stroke-width="1"
    stroke-linejoin="round"
    style="-webkit-tap-highlight-color: rgba(0, 0, 0, 0); stroke-linejoin: round;"></path>
  <path
    fill="#cccccc"
    stroke="#222222"
    d="M283.903,87.499L286.55600000000004,87.87299999999999L288.27700000000004,86.20499999999998L288.27700000000004,84.60399999999998L287.58900000000006,83.40099999999998L288.27700000000004,80.47599999999998L289.08000000000004,79.61699999999999L292.00200000000007,82.94099999999999L293.3210000000001,83.74499999999999L295.2720000000001,87.24199999999999L297.4510000000001,87.07L300.37500000000006,83.97399999999999L304.7320000000001,85.46399999999998L307.1410000000001,84.03099999999998L307.1410000000001,81.04899999999998L309.54800000000006,78.69899999999998L310.46600000000007,74.85699999999999L314.70900000000006,74.85699999999999L314.70900000000006,77.72399999999999L324.4560000000001,84.088L329.2150000000001,84.318L330.8210000000001,83.114L332.48500000000007,82.426L333.6890000000001,82.025L338.3330000000001,81.36500000000001L344.5830000000001,81.36500000000001L347.16300000000007,83.22900000000001L347.62300000000005,85.35000000000001L347.04800000000006,86.43900000000001L347.33500000000004,88.67500000000001L347.966,91.60000000000001L349.226,93.778L350.604,94.92500000000001L350.604,97.162L348.53999999999996,98.93900000000001L345.27,100.774L342.003,101.633L340.111,102.43599999999999L338.906,103.64099999999999L338.96500000000003,105.934L336.213,106.163L335.75300000000004,108.17L335.237,109.718L335.867,110.406L339.48,110.406L343.322,112.126L345.844,113.50200000000001L347.108,115.05100000000002L347.108,115.45200000000001L349.973,115.68200000000002L351.75,117.80300000000001L352.094,119.522L351.121,121.128L349.342,122.103L348.252,124.511L347.449,126.97699999999999L345.387,130.35999999999999L344.469,132.309L320.846,133.399L319.295,134.258L317.576,132.768L315.22400000000005,136.552L310.06300000000005,133.742L289.07800000000003,144.92399999999998L288.76300000000003,147.56199999999998L286.33200000000005,149.82999999999998L290.05800000000005,151.45L291.19200000000006,153.718L291.92100000000005,156.148L292.00200000000007,158.335L294.10800000000006,159.71200000000002L292.48800000000006,162.38500000000002L295.0810000000001,164.329L291.83900000000006,172.024L292.48800000000006,175.264L292.24500000000006,176.723L288.76300000000003,184.49900000000002L290.05800000000005,185.64300000000003L290.13900000000007,188.06200000000004L290.8690000000001,190.00700000000003L291.5170000000001,193.08500000000004L290.1390000000001,194.86800000000002L284.5500000000001,200.13200000000003L287.4660000000001,203.85800000000003L289.9780000000001,206.04500000000004L290.5440000000001,208.15100000000004L292.4080000000001,208.15100000000004L292.00200000000007,212.60700000000003L287.79100000000005,212.60700000000003L288.357,214.87500000000003L288.033,218.68200000000002L285.44100000000003,215.92600000000002L285.03700000000003,214.066L286.088,212.121L286.41400000000004,211.63400000000001L283.903,211.715L282.444,213.498L280.986,214.14499999999998L279.852,212.92899999999997L278.799,212.20299999999997L273.048,212.52499999999998L270.294,212.12099999999998L268.917,212.60699999999997L267.054,213.41699999999997L262.19399999999996,212.84999999999997L260.16799999999995,212.52499999999998L256.4429999999999,212.44599999999997L251.38399999999993,217.46699999999996L250.93499999999992,217.87199999999996L246.47899999999993,218.68199999999996L245.99299999999994,219.89599999999996L245.10199999999995,220.62499999999997L238.45999999999995,214.95699999999997L239.51299999999995,213.33599999999996L238.94599999999994,210.74399999999994L238.86499999999995,209.12399999999994L238.05499999999995,207.90899999999993L238.05499999999995,206.20799999999994L238.45999999999995,205.96399999999994L238.94599999999994,204.74999999999994L236.67799999999994,203.94099999999995L235.70699999999994,200.77999999999994L233.84299999999993,197.53999999999994L231.24999999999994,194.54299999999995L228.41699999999994,192.43699999999995L227.92999999999995,191.54499999999996L228.41699999999994,190.24999999999997L229.54999999999995,189.35899999999998L229.06499999999994,187.33399999999997L227.92999999999995,184.98499999999999L226.31099999999995,184.57999999999998L225.09399999999994,185.49399999999997L223.87899999999993,186.03799999999998L222.25999999999993,184.499L222.42199999999994,182.36599999999999L224.90699999999995,178.58599999999998L225.50399999999996,174.569L225.12199999999996,172.321L225.72999999999996,170.585L229.62799999999996,165.23000000000002L230.50799999999995,162.638L231.86399999999995,162.21200000000002L232.30399999999995,160.00900000000001L233.33099999999993,159.145L235.21999999999994,158.173L235.81399999999994,155.149L236.51599999999993,154.447L242.70699999999994,150.219L246.08699999999993,151.678L247.26699999999994,154.08599999999998L250.93099999999993,153.47299999999998L250.93099999999993,149.52599999999998L255.12499999999991,147.57199999999997L255.3679999999999,145.17L253.6999999999999,143.74599999999998L254.9139999999999,141.42299999999997L254.6069999999999,136.94699999999997L256.0199999999999,135.277L257.7559999999999,136.458L259.92799999999994,134.83L260.03499999999997,132.976L263.38899999999995,129.74L265.097,131.276L268.159,126.537L268.396,119.929L270.732,118.682L272.18100000000004,112.56L273.28200000000004,109.22200000000001L271.00200000000007,106.65700000000001L273.2010000000001,104.33600000000001L275.48100000000005,106.65700000000001L277.10900000000004,105.924L278.55600000000004,106.53L285.37300000000005,106.469L285.064,98.746L284.564,94.642L284.146,90.91L284.024,89.196Z"
    stroke-width="1"
    stroke-linejoin="round"
    style="-webkit-tap-highlight-color: rgba(0, 0, 0, 0); stroke-linejoin: round;"></path>
  <path
    fill="#cccccc"
    stroke="#222222"
    d="M161.854,160.403L161.115,154.08599999999998L160.76500000000001,151.261L162.393,151.049L163.344,151.261L168.25799999999998,148.129L170.094,148.291L171.12099999999998,150.504L175.819,150.504L178.951,151.261L183.21699999999998,157.579L183.86499999999998,158.119L186.56499999999997,162.332L186.56499999999997,168.055L185.01099999999997,168.358L187.42899999999997,173.077L189.35099999999997,175.831L190.83799999999997,175.678L191.10199999999998,169.62199999999999L192.66699999999997,169.56699999999998L192.72099999999998,176.587L194.71899999999997,177.77499999999998L196.23099999999997,175.29199999999997L202.00899999999996,174.21099999999998L202.11199999999997,176.94199999999998L208.92199999999997,178.06799999999998L210.59599999999998,179.017L213.24199999999996,181.718L217.50799999999995,182.636L222.42199999999994,182.36599999999999L222.25999999999993,184.499L223.87899999999993,186.03799999999998L225.09399999999994,185.49399999999997L226.31099999999995,184.57999999999998L227.93999999999994,185.005L228.97499999999994,187.149L229.52399999999994,189.251L228.52499999999995,190.165L227.92999999999995,191.545L225.29899999999995,191.242L223.85899999999995,192.005L224.50099999999995,193.063L227.34599999999995,196.499L227.83199999999994,197.174L226.73499999999993,198.79500000000002L225.76399999999992,199.20200000000003L224.20399999999992,199.40300000000002L219.99199999999993,199.91100000000003L219.48499999999993,199.91100000000003L218.45299999999992,198.63300000000004L218.45299999999992,198.33100000000005L210.45399999999992,198.33100000000005L208.12499999999991,199.64600000000004L209.09699999999992,201.18500000000003L208.81299999999993,203.04800000000003L206.50499999999994,203.45500000000004L204.11599999999993,204.26300000000003L202.65699999999993,206.00400000000005L201.84699999999992,208.47600000000006L201.60399999999993,210.01400000000007L199.61999999999992,210.37900000000008L199.17399999999992,208.47600000000008L197.8379999999999,206.49100000000007L197.14899999999992,206.20800000000008L195.5289999999999,206.5310000000001L191.4789999999999,208.67700000000008L189.4539999999999,209.69200000000006L187.0639999999999,209.32700000000006L186.5379999999999,208.79900000000006L186.9829999999999,203.45500000000007L186.5379999999999,201.30600000000007L185.1199999999999,198.83700000000007L183.2569999999999,196.6490000000001L181.3129999999999,195.3120000000001L178.0859999999999,197.1630000000001L177.3309999999999,199.86300000000008L176.6289999999999,200.5660000000001L171.9309999999999,205.20800000000008L171.9309999999999,210.37900000000008L169.1229999999999,213.14700000000008L160.4819999999999,213.14700000000008L162.20999999999992,210.55300000000008L163.3439999999999,207.96300000000008L164.4249999999999,204.23700000000008L165.0189999999999,198.78200000000007L165.0189999999999,194.78600000000006L165.0189999999999,189.44000000000005L164.04599999999988,186.57700000000006L164.3159999999999,179.66600000000005L162.58799999999988,175.34500000000006L161.9949999999999,174.53600000000006Z"
    stroke-width="1"
    stroke-linejoin="round"
    style="-webkit-tap-highlight-color: rgba(0, 0, 0, 0); stroke-linejoin: round;"></path>
  <path
    fill="#cccccc"
    stroke="#222222"
    d="M150.376,178.663C150.376,178.663,152.885,175.241,155.737,176.36800000000002C155.737,176.36800000000002,156.807,177.05200000000002,155.98,178.02200000000002C155.981,178.02100000000002,151.988,178.87600000000003,150.37599999999998,178.663Z"
    stroke-width="1"
    stroke-linejoin="round"
    style="-webkit-tap-highlight-color: rgba(0, 0, 0, 0); stroke-linejoin: round;"></path>
  <path
    fill="#cccccc"
    stroke="#222222"
    d="M143.724,188.527C143.724,188.527,145.307,187.237,146.378,188.624C146.378,188.624,146.67,189.744,145.051,189.59799999999998C143.432,189.452,143.724,188.527,143.724,188.527Z"
    stroke-width="1"
    stroke-linejoin="round"
    style="-webkit-tap-highlight-color: rgba(0, 0, 0, 0); stroke-linejoin: round;"></path>
  <path
    fill="#cccccc"
    stroke="#222222"
    d="M142.628,198.121C142.628,198.121,143.50699999999998,196.27100000000002,144.23499999999999,198.17100000000002C144.754,199.52300000000002,142.702,199.65600000000003,142.628,198.121Z"
    stroke-width="1"
    stroke-linejoin="round"
    style="-webkit-tap-highlight-color: rgba(0, 0, 0, 0); stroke-linejoin: round;"></path>
  <path
    fill="#cccccc"
    stroke="#222222"
    d="M142.628,207.982L142.01999999999998,203.063L141.874,202.23499999999999L143.773,204.83999999999997L144.601,206.301C144.601,206.301,145.624,208.88199999999998,142.628,207.982Z"
    stroke-width="1"
    stroke-linejoin="round"
    style="-webkit-tap-highlight-color: rgba(0, 0, 0, 0); stroke-linejoin: round;"></path>
  <path
    fill="#cccccc"
    stroke="#222222"
    d="M224.549,241.763H230.067L227.309,239.155L230.067,237.349L231.37,238.553L232.876,237.349L234.781,236.74599999999998L236.988,232.83499999999998L237.49,231.43099999999998L236.988,230.529L237.49,226.716L238.09300000000002,225.011L237.59000000000003,223.206L236.18600000000004,219.89499999999998L234.88200000000003,217.688L233.67800000000003,216.48399999999998L233.78000000000003,213.146L234.28100000000003,209.76399999999998L234.58200000000002,206.95499999999998L236.68000000000004,203.939L238.94800000000004,204.748L238.46300000000002,205.963L238.11900000000003,206.16899999999998L238.05700000000002,207.81199999999998L238.86700000000002,209.123L238.948,210.743L239.51500000000001,213.33599999999998L238.46200000000002,214.956L245.104,220.625L245.995,219.896L246.481,218.682L250.75799999999998,217.904L256.445,212.446L260.022,212.523L263.86,213.04399999999998L267.05600000000004,213.41699999999997L270.16600000000005,212.16699999999997L273.05000000000007,212.52499999999998L278.80100000000004,212.20299999999997L279.85400000000004,212.92999999999998L281.10900000000004,214.09199999999998L282.446,213.498L283.90500000000003,211.71599999999998L286.41600000000005,211.635L285.03900000000004,214.06699999999998L285.40900000000005,215.77299999999997L288.035,218.68299999999996L288.35900000000004,214.87499999999997L287.79300000000006,212.60699999999997H292.00500000000005L292.41,208.15099999999998H290.672L289.98100000000005,206.046L287.46900000000005,203.858L284.61300000000006,200.20600000000002L290.14200000000005,194.86800000000002L291.4920000000001,192.95600000000002L290.87200000000007,190.008L290.1430000000001,188.06300000000002L290.06200000000007,185.644L288.76900000000006,184.495L292.24800000000005,176.72400000000002L292.49100000000004,175.26600000000002L291.843,172.026L295.084,164.33100000000002L292.491,162.38700000000003L294.111,159.71400000000003L292.001,158.19200000000004L291.85999999999996,155.93700000000004L291.19499999999994,153.72000000000003L290.0609999999999,151.45200000000003L286.33399999999995,149.83200000000002L288.76599999999996,147.56300000000002L289.08,144.925L310.065,133.74300000000002L315.226,136.55300000000003L317.578,132.76900000000003L319.298,134.26000000000005L320.849,133.40100000000004L344.472,132.31100000000004L347.00899999999996,134.55700000000004V137.32200000000003L346.02199999999993,138.54000000000002L347.00899999999996,140.05400000000003L346.51599999999996,142.39000000000004L345.52899999999994,144.89200000000005L345.98999999999995,146.77100000000004L346.25199999999995,147.39300000000006L347.667,147.88600000000005L349.08399999999995,148.77500000000006V150.42100000000005L348.26199999999994,152.52700000000004L347.10999999999996,154.20600000000005L345.39799999999997,154.73200000000006L343.818,156.50900000000004L343.356,159.24000000000004L341.677,161.74200000000005L341.348,163.55300000000005L341.249,164.67200000000005L339.375,164.70500000000004L338.256,163.28900000000004L334.306,165.29700000000005L332.69399999999996,165.65900000000005L332.003,165.49400000000006L330.652,164.44100000000006L327.756,164.57200000000006L326.21,165.78900000000007L325.585,168.09400000000008L324.731,169.6740000000001L322.328,173.2290000000001L321.43699999999995,175.4670000000001V184.2230000000001L319.46599999999995,187.0360000000001L316.67199999999997,189.8050000000001L316.025,190.5340000000001V191.8720000000001L317.23999999999995,194.0580000000001L317.441,195.3140000000001L316.551,196.89400000000012L314.89,198.31100000000012L313.554,198.91800000000012L313.22999999999996,198.4750000000001H308.65299999999996L306.78999999999996,199.8510000000001L305.49399999999997,201.1460000000001L305.69699999999995,202.7270000000001L305.73699999999997,207.2220000000001L307.114,207.7870000000001L308.36999999999995,207.7480000000001L309.62699999999995,209.0860000000001L310.43499999999995,210.2590000000001L311.53,211.2320000000001L312.988,212.6480000000001L313.514,214.31100000000012L313.231,217.50800000000012L312.95,219.22800000000012L311.073,222.60800000000012L310.792,223.01300000000012V225.0170000000001L311.91799999999995,224.79800000000012V228.21000000000012L310.97799999999995,229.7440000000001L309.852,232.21700000000013L308.256,231.71700000000013L306.032,229.55600000000013L305.031,229.52600000000012L304.685,230.18300000000013L304.623,231.12100000000012L305.03,232.40600000000012L305.62399999999997,233.90800000000013L306.032,234.90800000000013L306.09499999999997,236.34800000000013C306.09499999999997,236.34800000000013,301.368,235.40900000000013,300.335,238.06900000000013V240.88700000000014C300.335,240.88700000000014,301.055,244.89500000000015,305.657,244.36100000000013C305.899,244.33600000000013,305.62399999999997,246.99000000000012,305.62399999999997,246.99000000000012L303.34,249.05600000000013L303.43399999999997,250.9340000000001L304.436,253.97100000000012L304.46599999999995,256.06900000000013L303.52799999999996,258.19800000000015L303.09,260.23200000000014L302.337,262.73700000000014L301.49399999999997,264.2690000000001L301.33799999999997,265.4280000000001L301.087,265.8970000000001L296.799,268.0560000000001L295.26399999999995,267.4940000000001L293.198,265.83400000000006L292.792,265.36500000000007L291.133,266.6790000000001L290.727,268.9640000000001L287.471,272.5630000000001L287.064,273.6890000000001V279.8260000000001L286.15900000000005,282.5810000000001L284.62300000000005,285.1790000000001L283.99700000000007,285.96100000000007L280.2680000000001,287.40400000000005L278.4820000000001,289.1650000000001L276.1040000000001,291.0990000000001L272.7570000000001,291.4710000000001L271.0460000000001,290.3050000000001L270.7490000000001,288.07600000000014L270.3280000000001,287.18200000000013L268.8660000000001,286.76100000000014L266.4360000000001,287.82600000000014L264.8990000000001,288.3480000000001L261.1560000000001,288.69400000000013L259.6690000000001,289.63600000000014L257.6130000000001,288.8170000000001L256.3000000000001,287.3300000000001L254.5650000000001,286.4890000000001L251.9880000000001,286.24000000000007L251.91300000000012,284.63000000000005L252.0120000000001,283.86000000000007L251.84000000000012,280.6380000000001L252.0120000000001,279.3750000000001L249.0270000000001,279.1900000000001H248.1900000000001L248.0810000000001,276.8400000000001L246.8660000000001,276.4360000000001L246.4340000000001,275.8690000000001L245.84000000000012,274.70900000000006L245.1110000000001,273.60200000000003L245.0580000000001,272.54900000000004L246.1370000000001,271.92800000000005L247.5950000000001,271.00900000000007L247.56800000000013,269.71400000000006L247.62200000000013,266.52600000000007L246.56900000000013,265.20400000000006L244.78900000000013,263.66400000000004L243.03200000000012,260.80400000000003L241.89800000000014,258.59000000000003L241.62700000000015,255.29600000000002L238.87300000000016,253.99900000000002L236.84800000000016,252.98600000000002L233.89300000000014,253.068L229.51800000000014,249.30100000000002L226.40000000000015,250.71800000000002L222.71400000000014,253.18900000000002H221.94400000000013V251.56900000000002L224.81900000000013,248.693L224.65700000000012,247.43800000000002L223.96900000000014,246.87L224.21200000000013,245.292L224.98200000000014,245.089L224.57800000000015,243.105L224.54900000000015,241.76299999999998Z"
    stroke-width="1"
    stroke-linejoin="round"
    style="-webkit-tap-highlight-color: rgba(0, 0, 0, 0); stroke-linejoin: round;"></path>
  <path
    fill="#cccccc"
    stroke="#222222"
    d="M162.314,219.805L159.594,213.746L160.171,213.14600000000002H169.12199999999999L171.92999999999998,210.37800000000001V205.20700000000002L177.35999999999999,199.75500000000002L178.08599999999998,197.16100000000003L181.313,195.31000000000003L183.25699999999998,196.64700000000002L185.00199999999998,198.69500000000002L186.474,201.192L186.98399999999998,203.453L186.55499999999998,208.596L187.06499999999997,209.32500000000002L189.45499999999996,209.69000000000003L195.52999999999994,206.52900000000002L197.14999999999995,206.20700000000002L197.83799999999994,206.48900000000003L199.10899999999992,208.37600000000003L199.61999999999992,210.37800000000004L201.63399999999993,209.82900000000004L201.84799999999993,208.47500000000002L202.65799999999993,206.00300000000001L204.11599999999993,204.262L206.50499999999994,203.453L208.67199999999994,203.07L209.09699999999995,201.183L208.12499999999994,199.644L210.45399999999995,198.329H218.31199999999995L219.40299999999996,199.806L223.62299999999996,199.472L225.52599999999995,199.231L226.83999999999995,198.64L227.83099999999996,197.17299999999997L224.37499999999997,192.85299999999998L223.94899999999998,191.956L225.29899999999998,191.24099999999999L227.92999999999998,191.545L228.50799999999998,192.504L231.24999999999997,194.54299999999998L233.72499999999997,197.403L235.57999999999996,200.563L236.62099999999995,203.754L234.64299999999994,206.862L233.79999999999995,212.98499999999999L233.68099999999995,216.337L234.75499999999997,217.563L236.18399999999997,219.89499999999998L237.48999999999998,222.97099999999998L238.03599999999997,224.81399999999996L237.55899999999997,226.51699999999997C237.55899999999997,226.51699999999997,237.02499999999998,230.23499999999996,237.01599999999996,230.31499999999997C237.00399999999996,230.39499999999998,237.40899999999996,231.28599999999997,237.40899999999996,231.28599999999997L236.98699999999997,232.83499999999998L234.89599999999996,236.539L232.95799999999997,237.32199999999997L231.36799999999997,238.55199999999996L230.06499999999997,237.34799999999996L227.44499999999996,239.06299999999996L230.33599999999996,241.83099999999996L224.54799999999994,241.76299999999995L224.56299999999993,242.78599999999994L214.26699999999994,242.30699999999993L214.37499999999994,238.30799999999994L210.37899999999993,235.39399999999995L210.10899999999992,232.36999999999995L205.3569999999999,231.93899999999994C205.3569999999999,231.93899999999994,201.68499999999992,230.64099999999993,198.5529999999999,231.93899999999994L194.6109999999999,231.72199999999992C194.6109999999999,231.72199999999992,197.5269999999999,225.0769999999999,195.7989999999999,224.69999999999993L193.8789999999999,226.66399999999993L190.7109999999999,224.13399999999993L190.0509999999999,225.35599999999994L190.6299999999999,227.21999999999994L191.66199999999992,228.88099999999994L191.78799999999993,232.27899999999994L187.50899999999993,229.40899999999993C187.50899999999993,229.40899999999993,185.46999999999994,228.30199999999994,184.53899999999993,229.23299999999995C183.60699999999994,230.16599999999994,183.65899999999993,231.82699999999994,183.65899999999993,231.82699999999994L179.40499999999994,231.62499999999994C179.40499999999994,231.62499999999994,177.64199999999994,229.40899999999993,176.55999999999995,230.41599999999994C175.47699999999995,231.42299999999994,176.63499999999993,233.13599999999994,175.09999999999994,233.11099999999993C173.56399999999994,233.08399999999995,172.98499999999993,232.95899999999995,172.50699999999995,231.37299999999993C172.02899999999994,229.78799999999993,171.19899999999996,227.59799999999993,169.66399999999996,227.56999999999994C168.12699999999995,227.54699999999994,167.22199999999995,227.16899999999993,167.22199999999995,227.16899999999993C167.22199999999995,227.16899999999993,165.58499999999995,224.55099999999993,165.03199999999995,224.42399999999992C164.47799999999995,224.29799999999992,163.03599999999994,222.96799999999993,162.98899999999995,222.93499999999992C162.93899999999994,222.90499999999992,162.31399999999994,219.80499999999992,162.31399999999994,219.80499999999992Z"
    stroke-width="1"
    stroke-linejoin="round"
    style="-webkit-tap-highlight-color: rgba(0, 0, 0, 0); stroke-linejoin: round;"></path>
  <path
    fill="#cccccc"
    stroke="#222222"
    d="M164.029,224.063L161.257,225.57399999999998C161.257,225.57399999999998,160.836,223.641,158.871,224.27499999999998C156.906,224.90499999999997,157.08200000000002,225.152,157.11700000000002,226.79999999999998C157.15300000000002,228.44799999999998,158.09900000000002,228.73,158.275,229.15099999999998C158.45000000000002,229.57099999999997,158.871,235.748,158.871,235.748L157.854,238.238L157.994,246.274C157.994,246.274,160.942,249.462,163.656,247.6C166.369,245.737,165.519,245.454,165.519,245.454L165.074,243.388L166.977,245.77700000000002L169.56900000000002,244.764L170.217,246.709L171.918,246.992L177.547,250.14999999999998C177.547,250.14999999999998,178.843,249.545,180.261,250.59699999999998C181.678,251.64899999999997,181.678,251.64899999999997,181.678,251.64899999999997C181.678,251.64899999999997,183.339,249.09799999999998,186.335,249.74599999999998C189.333,250.39299999999997,193.585,250.92199999999997,193.585,250.92199999999997C193.585,250.92199999999997,194.719,247.72199999999998,197.959,249.38199999999998C201.199,251.04299999999998,203.305,252.33799999999997,203.305,252.33799999999997L205.209,250.55699999999996C205.209,250.55699999999996,206.991,249.34099999999995,207.963,251.64999999999995C208.935,253.95999999999995,208.44899999999998,253.87799999999996,208.44899999999998,253.87799999999996L211.44599999999997,253.71699999999996V256.06699999999995L212.94499999999996,258.21299999999997L213.55299999999997,255.94399999999996L216.99499999999998,255.86299999999997L219.50599999999997,253.22999999999996L221.93599999999998,253.43299999999996V251.40699999999995L224.77999999999997,248.44399999999996V247.19599999999997L223.98199999999997,246.73199999999997L224.20399999999998,245.29299999999998L224.974,245.08999999999997L224.529,242.78799999999998L214.273,242.153L214.377,238.31L210.48000000000002,235.467L210.03500000000003,232.364L205.68200000000002,231.96800000000002C205.68200000000002,231.96800000000002,202.45000000000002,230.83800000000002,198.555,231.94000000000003L194.613,231.723C194.613,231.723,197.718,224.69600000000003,195.801,224.70100000000002C195.61399999999998,224.70300000000003,193.881,226.66500000000002,193.881,226.66500000000002L190.667,224.22000000000003L190.121,225.23400000000004L190.553,226.96400000000003L191.645,228.85100000000003L191.791,232.28100000000003L187.512,229.41100000000003C187.512,229.41100000000003,185.434,228.44800000000004,184.661,229.13500000000002C183.888,229.82200000000003,183.882,230.37400000000002,183.882,230.37400000000002L183.662,231.71200000000002L179.407,231.627C179.407,231.627,177.877,229.411,176.65800000000002,230.346C176.562,230.418,176.162,230.55700000000002,176.084,231.315C176.006,232.073,175.93800000000002,232.589,175.93800000000002,232.589C175.93800000000002,232.589,176.073,232.91,175.28000000000003,233.001C174.48800000000003,233.09,173.45600000000002,232.85500000000002,173.45600000000002,232.85500000000002L172.775,232.086L172.171,230.364L171.253,228.549L170.16199999999998,227.662L168.41199999999998,227.46800000000002L167.31499999999997,227.204L166.15899999999996,225.603L165.22099999999998,224.52800000000002L164.39499999999998,224.08400000000003L164.02899999999997,224.06300000000005Z"
    stroke-width="1"
    stroke-linejoin="round"
    style="-webkit-tap-highlight-color: rgba(0, 0, 0, 0); stroke-linejoin: round;"></path>
  <path
    fill="#cccccc"
    stroke="#222222"
    d="M202.597,298.62L202.988,278.19100000000003V266.26700000000005L203.322,263.8380000000001L204.00900000000001,258.6260000000001L204.592,254.4410000000001L203.305,252.33700000000007L205.441,250.43100000000007L206.121,250.24400000000006L206.98700000000002,250.42500000000007L207.43500000000003,250.78600000000006L207.86900000000003,251.44200000000006L208.48700000000002,253.11600000000007L208.64300000000003,253.86700000000008L211.44500000000002,253.88800000000006V256.06500000000005L212.94400000000002,258.21100000000007L213.67300000000003,255.93900000000008L216.99500000000003,255.86200000000008L219.50600000000003,253.22900000000007L221.93600000000004,253.18900000000008H222.70600000000005L224.07100000000005,252.2740000000001L226.52900000000005,250.6550000000001L227.91800000000006,250.02300000000008L229.51000000000008,249.30100000000007L233.88500000000008,253.06800000000007L236.8400000000001,252.98600000000008L241.61900000000009,255.29600000000008L241.89000000000007,258.5900000000001L244.24000000000007,262.7850000000001L244.78100000000006,263.6640000000001L245.66000000000005,264.4260000000001L246.76100000000005,265.4550000000001L247.52700000000004,266.4140000000001L247.58400000000003,270.7680000000001L245.05200000000002,272.5490000000001L245.09900000000002,273.4930000000001L245.83400000000003,274.7090000000001L246.42800000000003,275.86900000000014L246.75800000000004,276.30400000000014L247.99500000000003,276.81600000000014L248.18300000000002,279.19100000000014L248.05300000000003,281.40900000000016L248.18300000000002,283.38800000000015L248.76300000000003,284.9370000000001L248.35700000000003,286.5870000000001L246.73200000000003,290.5490000000001C246.73200000000003,290.5490000000001,245.15800000000002,287.1700000000001,243.71100000000004,286.1550000000001C242.26300000000003,285.13900000000007,241.90700000000004,285.0900000000001,241.01900000000003,285.1660000000001C240.13100000000003,285.24200000000013,238.88700000000003,285.2930000000001,238.25100000000003,286.02800000000013C237.61700000000005,286.76500000000016,237.26200000000003,288.4400000000001,237.26200000000003,288.4400000000001L237.23600000000002,291.66500000000013L228.37600000000003,291.71700000000016L228.45100000000002,296.2350000000001L225.52900000000002,296.1350000000001L224.18000000000004,297.8480000000001C224.18000000000004,297.8480000000001,218.40200000000004,298.92900000000014,217.32100000000003,299.4420000000001C216.241,299.9550000000001,216.05200000000002,300.1180000000001,216.05200000000002,300.1180000000001L216.323,297.5250000000001C216.323,297.5250000000001,213.37900000000002,294.9860000000001,212.083,294.6370000000001C210.788,294.2840000000001,208.816,293.8940000000001,208.087,294.33800000000014C207.35799999999998,294.78300000000013,205.981,296.04000000000013,205.981,296.04000000000013L203.511,298.34700000000015L202.597,298.6200000000002Z"
    stroke-width="1"
    stroke-linejoin="round"
    style="-webkit-tap-highlight-color: rgba(0, 0, 0, 0); stroke-linejoin: round;"></path>
  <path
    fill="#cccccc"
    stroke="#222222"
    d="M208.976,352.093L208.07,344.82300000000004L207.54,340.776L206.367,332.341L205.79999999999998,327.234L205.32999999999998,321.87899999999996L204.35799999999998,314.426L203.71099999999998,308.027L202.59799999999998,301.872V298.95500000000004L202.6,298.52200000000005L203.509,298.34600000000006L205.33999999999997,296.63500000000005L207.15499999999997,295.02700000000004L208.06999999999996,294.468L208.68899999999996,294.16L209.88599999999997,294.18800000000005L210.34399999999997,294.25200000000007L211.26399999999995,294.43100000000004L212.41199999999995,294.75200000000007L213.56999999999994,295.41300000000007L214.86099999999993,296.3400000000001L216.14899999999994,297.37700000000007L216.32199999999995,297.5230000000001L216.05099999999996,300.1160000000001L217.43499999999995,299.3900000000001L218.51999999999995,299.0580000000001L219.27999999999994,298.8700000000001L220.48799999999994,298.59500000000014L221.63699999999994,298.35000000000014L222.93099999999995,298.08800000000014L224.09799999999996,297.86200000000014L225.52799999999996,296.13300000000015L228.44999999999996,296.2330000000002L228.37499999999997,291.7150000000002L237.23499999999996,291.6630000000002L237.26099999999997,288.43800000000016L237.54299999999998,287.43400000000014L237.92999999999998,286.51000000000016L238.48199999999997,285.80900000000014L238.85999999999996,285.57600000000014L239.28199999999995,285.41500000000013L239.79999999999995,285.29500000000013L240.18399999999994,285.2400000000001L240.85399999999993,285.17700000000013L241.19199999999992,285.15000000000015H241.63299999999992L241.8859999999999,285.17700000000013L242.1629999999999,285.2500000000001L242.5629999999999,285.4260000000001L242.8519999999999,285.5870000000001L243.35599999999988,285.9070000000001L243.7989999999999,286.2180000000001L244.2109999999999,286.5880000000001L244.5469999999999,286.9600000000001L244.8209999999999,287.3030000000001L245.2129999999999,287.85500000000013L245.5739999999999,288.4160000000001L246.0529999999999,289.2340000000001L246.59599999999992,290.2630000000001L246.73799999999991,290.53100000000006L248.3569999999999,286.58500000000004L248.76299999999992,284.93500000000006L248.1829999999999,283.3860000000001L248.0529999999999,281.4070000000001L248.1829999999999,279.1890000000001L252.0049999999999,279.3740000000001L251.85299999999992,280.4890000000001L252.0049999999999,283.7250000000001L251.90599999999992,284.62700000000007L251.97699999999992,286.1530000000001L254.5579999999999,286.4860000000001L256.1869999999999,287.2760000000001L257.6069999999999,288.81400000000014L259.6629999999999,289.63300000000015L261.2839999999999,288.5840000000002L264.89299999999986,288.3450000000002L268.85999999999984,286.7570000000002L270.32199999999983,287.17800000000017L270.7429999999998,288.0720000000002L271.01599999999985,290.1310000000002L272.74999999999983,291.4680000000002L275.96799999999985,291.1090000000002L280.26099999999985,287.4020000000002L283.38699999999983,286.19200000000023L283.9909999999998,285.95900000000023L284.2179999999998,288.40100000000024V289.0390000000002L284.85599999999977,289.7180000000002L285.05599999999976,290.7570000000002L284.33699999999976,291.7540000000002L282.5019999999998,292.8300000000002L282.3019999999998,296.6230000000002L282.8219999999998,298.1400000000002C282.8219999999998,298.1400000000002,283.45999999999975,300.09600000000023,282.78199999999975,301.0920000000002C282.1029999999998,302.0900000000002,278.7499999999998,304.1660000000002,278.7499999999998,304.1660000000002C278.7499999999998,304.1660000000002,273.8019999999998,308.55700000000024,272.7639999999998,309.3950000000002C271.7259999999998,310.23300000000023,270.68799999999976,310.3920000000002,270.68799999999976,310.3920000000002L269.73099999999977,309.79300000000023L268.09399999999977,308.31700000000023L265.73899999999975,309.95300000000026L257.63599999999974,310.03200000000027C257.63599999999974,310.03200000000027,254.08399999999975,309.5530000000003,253.44399999999973,315.34200000000027C252.80599999999973,321.12800000000027,252.48799999999974,322.00600000000026,252.48799999999974,322.00600000000026C252.48799999999974,322.00600000000026,250.85099999999974,324.79900000000026,245.90299999999974,326.03600000000023C245.90299999999974,326.03600000000023,243.06799999999973,330.02800000000025,242.90899999999974,331.9040000000002C242.74899999999974,333.7790000000002,239.55499999999972,335.17500000000024,238.99599999999973,337.33100000000024C238.43699999999973,339.4860000000002,236.36299999999972,340.68400000000025,236.36299999999972,342.60000000000025C236.36299999999972,344.51500000000027,234.7249999999997,341.92000000000024,234.7249999999997,341.92000000000024L231.4129999999997,345.87200000000024C231.4129999999997,345.87200000000024,229.6159999999997,344.67400000000026,229.1369999999997,346.6280000000002C228.65799999999967,348.5850000000002,228.25999999999968,346.8670000000002,228.3389999999997,348.5040000000002C228.4189999999997,350.1400000000002,228.0599999999997,350.9380000000002,228.0599999999997,350.9380000000002L227.6219999999997,352.65600000000023L225.7039999999997,354.53100000000023L222.3109999999997,355.9280000000002L219.2379999999997,357.08600000000024L218.59899999999968,357.76400000000024L218.23899999999966,360.03700000000026C218.23899999999966,360.03700000000026,217.51999999999967,360.8750000000003,217.12099999999967,362.1130000000003C216.72199999999967,363.3510000000003,216.72199999999967,363.5910000000003,216.72199999999967,363.5910000000003C216.72199999999967,363.5910000000003,212.77099999999967,364.50800000000027,211.13499999999968,368.8600000000003L208.26099999999968,368.2200000000003L207.06399999999968,365.8240000000003L207.22399999999968,363.22900000000027C207.22399999999968,363.22900000000027,204.78899999999967,365.06600000000026,204.78899999999967,365.7450000000003C204.78899999999967,366.4230000000003,204.0299999999997,366.38300000000027,204.0299999999997,366.38300000000027L202.2339999999997,363.66900000000027L199.7989999999997,364.6680000000003L199.15999999999968,361.1140000000003C199.15999999999968,361.1140000000003,199.2399999999997,359.6770000000003,199.59899999999968,359.7580000000003C199.95799999999969,359.8380000000003,201.31499999999969,358.7990000000003,201.31499999999969,358.7990000000003L197.4829999999997,356.00700000000035C197.4829999999997,356.00700000000035,197.8819999999997,357.96100000000035,197.4829999999997,358.80100000000033C197.0839999999997,359.6380000000003,197.0839999999997,359.8780000000003,196.84399999999968,359.8780000000003C196.60399999999967,359.8780000000003,196.04599999999968,359.15900000000033,196.04599999999968,359.15900000000033C196.04599999999968,359.15900000000033,196.4059999999997,357.24300000000034,195.08799999999968,356.20700000000033C193.77099999999967,355.17000000000036,194.3289999999997,353.9310000000003,194.3289999999997,353.9310000000003L196.4449999999997,352.2540000000003C196.4449999999997,352.2540000000003,197.3229999999997,351.5360000000003,198.2409999999997,351.8560000000003C199.1589999999997,352.17400000000026,201.0349999999997,352.4540000000003,201.0349999999997,352.4540000000003L202.8299999999997,352.9750000000003C202.8319999999997,352.97400000000033,207.3759999999997,353.8040000000003,208.9759999999997,352.0930000000003Z"
    stroke-width="1"
    stroke-linejoin="round"
    style="-webkit-tap-highlight-color: rgba(0, 0, 0, 0); stroke-linejoin: round;"></path>
  <path
    fill="#cccccc"
    stroke="#222222"
    d="M117.201,306.651L116.71499999999999,303.492L115.98599999999999,301.952L115.014,300.575L114.12299999999999,300.089H112.341L111.44999999999999,300.575L110.39699999999999,300.495L108.45299999999999,299.60200000000003L107.886,298.874H106.591L104.485,299.76500000000004L102.784,299.92600000000004L101.40700000000001,297.982L101.00200000000001,296.28200000000004V285.91400000000004L101.65,284.78000000000003L103.18900000000001,283.483L104.72800000000001,283.969L105.781,285.34499999999997L106.186,285.832L107.158,285.993L107.644,284.859L108.45400000000001,284.131L109.10100000000001,283.806L115.65900000000002,283.753L116.53600000000002,284.566L117.54100000000001,285.102L118.418,285.70099999999996V286.88599999999997L117.93100000000001,288.02C117.93100000000001,288.02,117.97100000000002,288.465,117.93100000000001,288.58599999999996C117.89000000000001,288.70699999999994,117.72800000000001,290.08399999999995,117.72800000000001,290.08399999999995L118.09200000000001,291.50299999999993L117.84900000000002,292.23099999999994L119.79300000000002,290.4889999999999L120.40000000000002,287.7349999999999L121.08800000000002,286.7229999999999L121.41200000000002,286.1969999999999L121.89800000000002,285.9139999999999C121.89800000000002,285.9139999999999,122.50600000000003,286.60199999999986,122.62700000000002,286.76599999999985C122.74900000000002,286.92699999999985,123.27500000000002,287.5749999999999,123.27500000000002,287.5749999999999L124.32800000000002,287.77799999999985L124.97600000000001,286.96699999999987L126.11000000000001,286.4809999999999C126.11000000000001,286.4809999999999,127.48700000000001,286.3599999999999,127.60900000000001,286.4809999999999C127.73,286.60199999999986,128.864,287.4139999999999,128.864,287.4139999999999L129.59300000000002,287.5359999999999L131.82000000000002,286.2789999999999L132.42700000000002,285.2669999999999C132.42700000000002,285.2669999999999,133.03500000000003,283.7689999999999,133.116,283.48399999999987C133.198,283.20099999999985,133.723,282.06799999999987,133.723,282.06799999999987L134.89700000000002,281.05399999999986H137.20600000000002L138.98800000000003,281.41799999999984L140.40500000000003,281.86299999999983L141.90400000000002,282.46999999999986L142.22800000000004,281.33599999999984C142.22800000000004,281.33599999999984,142.71400000000003,279.87899999999985,140.24400000000003,279.5149999999998C137.77300000000002,279.15099999999984,137.16600000000003,278.94699999999983,137.16600000000003,278.94699999999983C137.16600000000003,278.94699999999983,136.92300000000003,277.36699999999985,137.69200000000004,276.67999999999984C138.46200000000005,275.98999999999984,140.08100000000005,276.35499999999985,140.08100000000005,276.35499999999985C140.08100000000005,276.35499999999985,141.98500000000004,277.04399999999987,142.43100000000004,277.52999999999986C142.87600000000003,278.01599999999985,144.90200000000004,279.7889999999999,144.94100000000003,282.7959999999999C144.95900000000003,284.13299999999987,144.73800000000003,284.29399999999987,144.73800000000003,284.29399999999987L146.23700000000002,285.42899999999986L147.65500000000003,285.79299999999984C147.65500000000003,285.79299999999984,148.42500000000004,285.9139999999998,148.50600000000003,286.03599999999983C148.58700000000002,286.1569999999998,149.76100000000002,287.3709999999998,149.76100000000002,287.3709999999998L152.06900000000002,289.3149999999998L152.51500000000001,290.77399999999983L152.83900000000003,292.55499999999984L153.08200000000002,293.85099999999983L155.431,294.0939999999998L155.917,294.1349999999998V296.68699999999984L154.377,299.19799999999987L154.418,300.16999999999985L155.18800000000002,301.14299999999986L156.64600000000002,302.76399999999984C156.64600000000002,302.76399999999984,156.80800000000002,305.07099999999986,156.64600000000002,305.47599999999983C156.484,305.88199999999983,155.876,306.2869999999998,155.674,306.6519999999998C155.471,307.0159999999998,154.743,307.7459999999998,154.37800000000001,307.8259999999998C154.014,307.9069999999998,154.14700000000002,308.6559999999998,154.14700000000002,308.6559999999998L156.16400000000002,309.37099999999975L157.85500000000002,308.49399999999974L159.15500000000003,307.8099999999997L160.78100000000003,308.75399999999973L163.25300000000004,309.3699999999997L162.60300000000004,311.02799999999974L161.27000000000004,312.26499999999976L159.25300000000004,309.7589999999998L158.79700000000005,310.4429999999998L158.60300000000007,313.1419999999998L158.18000000000006,314.1189999999998L157.85500000000008,314.9319999999998L155.67500000000007,311.4849999999998L154.34200000000007,310.7369999999998L153.20400000000006,310.7689999999998L151.38100000000006,310.9439999999998L149.92300000000006,310.33699999999976L148.10100000000006,310.78199999999975L147.33200000000005,311.8769999999998L148.18300000000005,315.72399999999976L147.73700000000005,317.2639999999998L145.99600000000004,316.4939999999998L145.38800000000003,314.3059999999998L144.98300000000003,313.09099999999984L143.60600000000002,311.30899999999986L143.36300000000003,309.60699999999986L138.42200000000003,307.2599999999999L135.10100000000003,308.7159999999999C135.10100000000003,308.7159999999999,133.40000000000003,309.72899999999987,133.36,309.8919999999999C133.31900000000002,310.05399999999986,132.955,311.1879999999999,132.955,311.1879999999999L128.419,315.39999999999986L124.65200000000002,315.84499999999986L123.43700000000001,317.26399999999984L122.62700000000001,318.80199999999985L120.84500000000001,319.1659999999998L120.23800000000001,320.3399999999998L119.50900000000001,320.6649999999998L118.69900000000001,320.4219999999998L118.29400000000001,320.0579999999998L118.45600000000002,318.6399999999998V317.1819999999998L117.80800000000002,315.52199999999976L116.67400000000002,313.3339999999998L116.95700000000002,308.9459999999998L117.20100000000002,306.6509999999998Z"
    stroke-width="1"
    stroke-linejoin="round"
    style="-webkit-tap-highlight-color: rgba(0, 0, 0, 0); stroke-linejoin: round;"></path>
  <path
    fill="#cccccc"
    stroke="#222222"
    d="M155.352,291.57V290.34L154.169,288.87399999999997L152.372,287.68999999999994L150.716,286.17599999999993L149.487,284.14199999999994L150.054,282.39199999999994L150.905,281.3519999999999H152.419L153.17600000000002,282.5809999999999C153.17600000000002,282.5809999999999,154.169,283.6219999999999,154.263,283.76499999999993C154.357,283.9069999999999,154.784,285.7509999999999,154.784,285.7509999999999L155.06799999999998,287.1699999999999L155.87199999999999,286.8389999999999L156.676,285.9399999999999L156.95999999999998,284.6639999999999L157.575,283.76599999999985L158.143,283.52799999999985L158.427,284.09599999999983L157.244,287.83399999999983L157.433,291.57099999999986V292.27999999999986H156.81799999999998H155.778L155.352,291.5699999999999Z"
    stroke-width="1"
    stroke-linejoin="round"
    style="-webkit-tap-highlight-color: rgba(0, 0, 0, 0); stroke-linejoin: round;"></path>
  <path
    fill="#cccccc"
    stroke="#222222"
    d="M126.71,328.167L128.823,325.772L129.809,326.241L130.654,325.772L131.171,324.691L131.593,320.32399999999996L134.552,318.39799999999997L137.69799999999998,317.037L138.63699999999997,316.00399999999996L139.48299999999998,314.126C139.48299999999998,314.126,140.65699999999998,313.23499999999996,140.98499999999999,313.51599999999996C141.314,313.79699999999997,141.97099999999998,314.31399999999996,141.92399999999998,314.45399999999995C141.87699999999998,314.59499999999997,141.926,317.4599999999999,141.926,317.4599999999999L140.046,318.4459999999999L138.826,319.3389999999999C138.826,319.3389999999999,138.49699999999999,320.1289999999999,138.403,320.8139999999999C138.309,321.4999999999999,138.16899999999998,322.4369999999999,138.16899999999998,322.4369999999999C138.16899999999998,322.4369999999999,136.99499999999998,323.2849999999999,136.94699999999997,323.4249999999999C136.90099999999998,323.5659999999999,137.46399999999997,324.7389999999999,137.46399999999997,324.7389999999999L138.73299999999998,324.4099999999999L139.85999999999999,322.4839999999999L140.189,321.2169999999999L140.987,320.27699999999993L142.537,319.2439999999999C142.537,319.2439999999999,143.195,320.0419999999999,143.24200000000002,321.02899999999994C143.28900000000002,322.01499999999993,143.89900000000003,321.6379999999999,143.89900000000003,321.6379999999999L145.44900000000004,322.4839999999999C145.44900000000004,322.4839999999999,146.38800000000003,322.3909999999999,146.10600000000005,322.8599999999999C145.82500000000005,323.3299999999999,144.69700000000006,324.6909999999999,144.69700000000006,324.6909999999999C144.69700000000006,324.6909999999999,144.50900000000007,324.92599999999993,144.60300000000007,325.2079999999999C144.69700000000006,325.4899999999999,146.15900000000008,326.1009999999999,146.15900000000008,326.1009999999999C146.15900000000008,326.1009999999999,146.20000000000007,327.3679999999999,145.73000000000008,327.97899999999987C145.26000000000008,328.58799999999985,145.07300000000006,331.0789999999999,145.07300000000006,331.0789999999999C145.07300000000006,331.0789999999999,144.74400000000006,331.3129999999999,144.32200000000006,330.4199999999999C143.89900000000006,329.5289999999999,144.04000000000005,328.4479999999999,144.04000000000005,328.4479999999999C144.04000000000005,328.4479999999999,143.66400000000004,327.7439999999999,143.38200000000006,327.9309999999999C143.10000000000005,328.1189999999999,141.73800000000006,328.1669999999999,141.73800000000006,328.1669999999999C141.73800000000006,328.1669999999999,141.50400000000005,329.15199999999993,141.12700000000007,329.3859999999999C140.75200000000007,329.6209999999999,140.37700000000007,330.4669999999999,140.37700000000007,330.6079999999999C140.37700000000007,330.7489999999999,138.68600000000006,331.50099999999986,138.68600000000006,331.50099999999986L139.24900000000005,333.98899999999986C139.24900000000005,333.98899999999986,138.63900000000004,335.16299999999984,138.35700000000006,335.49199999999985C138.07500000000005,335.8199999999998,137.41800000000006,335.8679999999998,137.51200000000006,336.3369999999999C137.60500000000005,336.8069999999999,137.70000000000005,337.93399999999986,137.32400000000007,338.1679999999999C136.94800000000006,338.4029999999999,136.76800000000006,337.7469999999999,136.43500000000006,338.4499999999999C136.10200000000006,339.15299999999985,136.00900000000007,339.5289999999999,135.82100000000005,339.85699999999986C135.63300000000007,340.1879999999999,133.89600000000004,340.37599999999986,133.89600000000004,340.37599999999986L133.61400000000003,339.43699999999984L133.00300000000004,337.9809999999998C133.00300000000004,337.9809999999998,133.56700000000004,337.22999999999985,133.61400000000003,336.8539999999998C133.66000000000003,336.47799999999984,133.56700000000004,335.4449999999998,133.37900000000002,335.4449999999998C133.19100000000003,335.4449999999998,132.28600000000003,335.25699999999983,132.12800000000001,335.4449999999998C131.97000000000003,335.6329999999998,131.407,337.32399999999984,131.407,337.32399999999984L131.21900000000002,338.68399999999986L130.74900000000002,339.48399999999987L129.76300000000003,339.2959999999999L129.15200000000004,338.82599999999985L129.85700000000006,337.65099999999984L130.13800000000006,337.2769999999998L129.85700000000006,336.4769999999998L128.91800000000006,336.4319999999998L128.12000000000006,335.3979999999998L128.02600000000007,334.6939999999998L128.82400000000007,334.4129999999998L129.24700000000007,333.6609999999998L129.05900000000008,332.29899999999975L128.30800000000008,331.9709999999998L128.21400000000008,332.8159999999998L126.10100000000008,332.4399999999998L125.11500000000008,331.4549999999998L124.31700000000008,330.3739999999998L126.19500000000008,329.1059999999998L126.71000000000008,328.1669999999998Z"
    stroke-width="1"
    stroke-linejoin="round"
    style="-webkit-tap-highlight-color: rgba(0, 0, 0, 0); stroke-linejoin: round;"></path>
  <path
    fill="#cccccc"
    stroke="#222222"
    d="M117.413,335.022C117.413,335.022,116.849,336.055,116.849,336.19599999999997C116.849,336.337,117.131,337.41799999999995,117.131,337.41799999999995L118.023,337.88699999999994C118.023,337.88699999999994,118.35199999999999,337.65199999999993,118.446,337.36999999999995C118.53999999999999,337.09,118.727,336.00899999999996,118.727,336.00899999999996V335.352L120.183,335.445C120.183,335.445,120.465,335.633,120.7,335.82099999999997C120.935,336.00899999999996,120.935,336.00899999999996,120.935,336.00899999999996C120.935,336.00899999999996,121.686,335.21099999999996,121.733,335.02299999999997C121.78,334.835,122.062,335.39899999999994,121.921,334.59999999999997C121.78,333.80199999999996,121.311,333.47299999999996,121.311,333.47299999999996C121.311,333.47299999999996,121.07600000000001,333.097,120.935,332.76899999999995C120.794,332.43999999999994,121.686,332.251,121.686,332.251L122.391,331.171L123.095,330.044V329.481L122.579,328.635L121.217,327.742L120.512,326.918H119.62L118.775,327.273L118.07000000000001,328.446L117.74100000000001,328.87L117.13000000000001,328.494L117.08300000000001,327.55600000000004L116.42600000000002,326.91800000000006H115.67500000000001L114.87700000000001,326.33600000000007H114.07900000000001L113.84400000000001,327.60300000000007L114.36000000000001,329.0110000000001L114.68900000000001,330.0440000000001L115.91000000000001,330.1850000000001L116.66100000000002,330.4660000000001L117.17800000000001,333.80200000000013L117.41300000000001,335.02200000000016Z"
    stroke-width="1"
    stroke-linejoin="round"
    style="-webkit-tap-highlight-color: rgba(0, 0, 0, 0); stroke-linejoin: round;"></path>
  <path
    fill="#cccccc"
    stroke="#222222"
    d="M108.9,313.461L110.11,312.675C110.11,312.675,110.908,312.187,110.985,312.187C111.062,312.187,112.915,311.98,112.915,311.98C112.915,311.98,113.48100000000001,311.95500000000004,113.507,312.10900000000004C113.533,312.26300000000003,113.456,312.39000000000004,113.507,312.59600000000006C113.55900000000001,312.8040000000001,113.456,313.16600000000005,113.40400000000001,313.46100000000007C113.352,313.7560000000001,113.19800000000001,314.88700000000006,113.19800000000001,314.88700000000006C113.19800000000001,314.88700000000006,112.864,315.30000000000007,112.73500000000001,315.37700000000007C112.60600000000001,315.4530000000001,111.21100000000001,315.06800000000004,111.21100000000001,315.06800000000004L108.79700000000001,313.461H108.9Z"
    stroke-width="1"
    stroke-linejoin="round"
    style="-webkit-tap-highlight-color: rgba(0, 0, 0, 0); stroke-linejoin: round;"></path>
  <path
    fill="#cccccc"
    stroke="#222222"
    d="M114.897,318.569L116.519,318.21000000000004C116.519,318.21000000000004,117.034,317.978,117.034,318.67300000000006C117.034,319.3690000000001,116.93100000000001,319.8570000000001,116.49300000000001,319.95900000000006C116.05600000000001,320.06200000000007,115.284,319.85600000000005,115.15500000000002,319.70200000000006C115.02600000000001,319.54800000000006,114.89700000000002,318.5690000000001,114.89700000000002,318.5690000000001Z"
    stroke-width="1"
    stroke-linejoin="round"
    style="-webkit-tap-highlight-color: rgba(0, 0, 0, 0); stroke-linejoin: round;"></path>
  <path
    fill="#cccccc"
    stroke="#222222"
    d="M116.184,323.613L117.883,324.001C117.883,324.001,118.449,323.897,118.321,324.411C118.192,324.928,117.318,325.623,117.03399999999999,325.725C116.75099999999999,325.827,115.966,325.132,115.966,325.132C115.966,325.132,116.02999999999999,324.308,115.966,324.153C115.901,324,116.184,323.613,116.184,323.613Z"
    stroke-width="1"
    stroke-linejoin="round"
    style="-webkit-tap-highlight-color: rgba(0, 0, 0, 0); stroke-linejoin: round;"></path>
</svg>
