<svg height="420" version="1.1" width="540" xmlns="http://www.w3.org/2000/svg" xmlns:xlink="http://www.w3.org/1999/xlink" style="overflow: hidden; position: relative; left: -0.6px; top: 0.8px;">
  <desc style="-webkit-tap-highlight-color: rgba(0, 0, 0, 0);">Created with Raphaël 2.2.0</desc>
  <defs style="-webkit-tap-highlight-color: rgba(0, 0, 0, 0);"></defs>
  <path
    fill="#cccccc"
    stroke="#222222"
    d="M313.354,216.828L299.16999999999996,217.14600000000002L288.05199999999996,225.388L254.57499999999996,224.685L255.85099999999997,240.851L241.87299999999996,241.373L237.49799999999996,239.623L232.49799999999996,238.498L229.74799999999996,238.748L220.62299999999996,232.623L205.24799999999996,222.373L192.12299999999996,216.826L185.49799999999996,203.623L175.625,196V197.625L178.125,199.875L175.625,202.875V203.375L172.5,203.625L167.5,207.875C167.5,207.875,166.75,208.5,166.25,208.5S163.75,207,163.75,207L161.625,209.125L159.875,207.125L158.375,207.375L156.5,205.625L154.5,205.875C154.5,205.875,152.5,204,151,204S147.375,204.625,147.375,205.375S146.75,207.25,146.75,207.25S143.05,207.961,142.564,207.961S141.44199999999998,208.857,141.405,210.393C141.368,211.926,140.993,213.684,141.405,214.694C141.817,215.70399999999998,141.77,216.63899999999998,141.214,216.975C140.658,217.311,139.461,216.225,139.125,216.52599999999998C138.789,216.826,136.657,217.98499999999999,136.582,218.24699999999999S136.432,221.015,135.385,221.5C134.338,221.985,134.114,222.323,133.328,221.688C132.542,221.052,132.692,220.266,131.72,220.303C130.748,220.34,130.262,220.302,130.262,220.865C130.262,221.42700000000002,130.972,223.25900000000001,130.972,223.371S130.972,225.98700000000002,130.262,226.47500000000002C129.552,226.961,128.281,228.26800000000003,128.953,230.77400000000003C128.953,230.77400000000003,129.214,232.60600000000002,128.467,233.84000000000003C127.72000000000001,235.07400000000004,127.38300000000001,235.97300000000004,126.26100000000001,236.68400000000003C125.13900000000001,237.39300000000003,124.129,237.02000000000004,124.129,237.02000000000004V240.08500000000004L123.232,240.12200000000004V240.98200000000006L123.867,241.37700000000007L123.83,242.77700000000007C123.83,242.77700000000007,122.40899999999999,243.26100000000008,122.372,244.46000000000006S122.82,246.63000000000005,122.97,247.18900000000008C123.12,247.75000000000009,122.542,252.00000000000009,122.542,252.00000000000009L122.37,252.58300000000008L121.625,254.20800000000008L122.75,256.5420000000001C122.75,256.5420000000001,123.167,256.9170000000001,122.292,257.6250000000001S120.209,258.95800000000014,119.459,259.6250000000001S118.209,261.1250000000001,118.209,261.1250000000001V264.5410000000001C118.209,264.5410000000001,117.209,268.3330000000001,117.209,268.4580000000001S117.501,269.50000000000006,117.501,269.50000000000006L116.126,271.37500000000006C116.126,271.37500000000006,115.501,272.70700000000005,116.126,273.41600000000005C116.126,273.41600000000005,114.418,275.583,113.126,275.958S110.043,276.91600000000005,110.001,278.16600000000005S112.251,282.583,112.543,282.833S115.376,284.08200000000005,115.043,285.29100000000005S114.293,287.833,114.376,288.208S115.543,289.54100000000005,115.918,290.583S116.293,294.458,116.08500000000001,295.375S115.08500000000001,295.542,115.46000000000001,296.375S117.25200000000001,296.875,116.043,297.875S112.126,299.251,112.293,300.417S114.543,303.167,114.126,303.75S112.251,304.167,111.584,303.75S110.208,303.333,110,304.375S109.834,305.375,108.959,304.875S107.417,303.501,106.834,304.042S106.334,304.43199999999996,106.834,305.21599999999995S108.334,306.16599999999994,107.001,306.83299999999997S105.084,307.542,106.168,309.49999999999994S108.168,311.7919999999999,108.126,313.62499999999994S107.959,315.74999999999994,107.334,316.37499999999994S105.251,318.87499999999994,104.667,319.45799999999997S104.459,323.541,104.459,323.541S100.625,323.457,100.417,323.791S99.417,325.20799999999997,100.167,326.58299999999997S102.042,328.832,102.042,329.166S102.001,332.124,101.167,332.95799999999997S100.167,334.37399999999997,99.625,334.45799999999997S97.75,333.74899999999997,97.458,333.45799999999997S95.916,333.51099999999997,95.333,334.46399999999994S94.25,335.70799999999997,94.083,335.12499999999994S94.25,334.70799999999997,93.791,333.83299999999997S93.083,332.87499999999994,92.708,333.24999999999994S91.708,334.4169999999999,91.666,334.7919999999999S90.833,336.0009999999999,90.791,336.1669999999999S90.791,339.8329999999999,90.791,339.8329999999999L92.208,341.66599999999994L95.833,344.24999999999994C95.833,344.24999999999994,96.5,345.70699999999994,96.458,345.91599999999994S96.541,347.9579999999999,96.541,347.9579999999999L99,348.833C99,348.833,95.917,357.37600000000003,105.167,352.79200000000003L107.709,354.144L109.667,355.5L111.334,357C111.334,357,112.626,357.958,112.626,358.083S113.709,360.54200000000003,113.751,360.75S114.001,361.791,114.543,361.833S116.293,361.458,116.293,361.458S117.251,360.708,117.33500000000001,360.833S118.418,361.836,118.418,361.836H119.876L120.293,359.125L120.543,356.666L122.96000000000001,355.916L124.543,355.041L125.08500000000001,354.041L125.668,354.5L126.46000000000001,355.125L129.127,355.041L129.335,353.875L130.71,355.458L133.293,357.29100000000005L134.085,361.208L139.335,361.54200000000003C139.335,361.54200000000003,140.418,363.749,140.502,363.91600000000005S141.169,364.87500000000006,141.169,364.87500000000006L142.586,365.8330000000001L142.711,366.62500000000006L144.87800000000001,365.04100000000005L148.42000000000002,364.41600000000005C148.42000000000002,364.41600000000005,148.62800000000001,366.333,148.62800000000001,366.62500000000006S148.75300000000001,367.91700000000003,148.75300000000001,367.91700000000003L150.961,367.083L152.336,365.75L153.044,365.292C153.044,365.292,155.919,365.375,156.086,365.25S160.28,362.048,159.75300000000001,358.333C159.711,358.04100000000005,162.711,357.79100000000005,162.711,357.79100000000005L166.12800000000001,356.333L168.54500000000002,355.708L170.62800000000001,355.125L170.37800000000001,352.833C170.37800000000001,352.833,171.961,352.125,172.50300000000001,352.625S174.586,355,174.586,355L176.586,355.208L176.62800000000001,352.958C176.62800000000001,352.958,177.42000000000002,352.66600000000005,178.29500000000002,352.583S179.79500000000002,352.5,179.67000000000002,351.5S179.50000000000003,346,179.50000000000003,346L180.83300000000003,345.917C180.83300000000003,345.917,181.41600000000003,344.74899999999997,181.04100000000003,344.20799999999997S180.37400000000002,343.45899999999995,180.04100000000003,342.792S179.62400000000002,340.33299999999997,179.62400000000002,340.33299999999997S180.45700000000002,340.126,180.37400000000002,339.417S179.62400000000002,337.875,179.62400000000002,337.875S179.83200000000002,337.583,180.24900000000002,336.875S181.29100000000003,335.375,181.37400000000002,335.25S181.12400000000002,334.499,180.62400000000002,333.708S180.37400000000002,328.16700000000003,180.37400000000002,328.16700000000003S180.91600000000003,326.37500000000006,181.41600000000003,325.75000000000006S182.83300000000003,324.62500000000006,182.83300000000003,324.62500000000006L185.50000000000003,324.7080000000001C185.50000000000003,324.7080000000001,187.75000000000003,323.7490000000001,188.75000000000003,324.5830000000001S190.79200000000003,327.08400000000006,190.95800000000003,327.9170000000001S190.75000000000003,330.1670000000001,190.75000000000003,330.1670000000001S190.50000000000003,332.3760000000001,190.79200000000003,333.0420000000001S192.16700000000003,334.4580000000001,192.16700000000003,334.4580000000001S193.41700000000003,333.5420000000001,193.66700000000003,333.12500000000006S195.83300000000003,332.9580000000001,195.75000000000003,335.0830000000001S195.50000000000003,337.95900000000006,195.41700000000003,338.5420000000001S195.37500000000003,340.2920000000001,195.91700000000003,340.6670000000001S197.50000000000003,340.3750000000001,197.79200000000003,339.6250000000001S198.37500000000003,338.45800000000014,198.37500000000003,338.45800000000014L200.95800000000003,342.66700000000014C200.95800000000003,342.66700000000014,201.87500000000003,341.87400000000014,202.62500000000003,342.08300000000014S203.91700000000003,342.20800000000014,203.91700000000003,342.58300000000014S204.04200000000003,343.95800000000014,204.08400000000003,344.2500000000001S205.33400000000003,344.3750000000001,205.41700000000003,345.6250000000001S203.95900000000003,350.08300000000014,203.95900000000003,350.08300000000014S204.95900000000003,352.45800000000014,204.83400000000003,353.0000000000001S205.58400000000003,355.6250000000001,205.58400000000003,355.6250000000001L208.16700000000003,355.8750000000001C208.16700000000003,355.8750000000001,210.16700000000003,353.70800000000014,209.75000000000003,351.5000000000001S211.54200000000003,348.5000000000001,211.54200000000003,348.5000000000001L211.58400000000003,346.9170000000001C211.58400000000003,346.9170000000001,212.00100000000003,346.5830000000001,213.00100000000003,345.8330000000001S215.29300000000003,344.2920000000001,215.29300000000003,344.2920000000001L215.79300000000003,342.6670000000001L216.21000000000004,339.3750000000001L216.71000000000004,337.2500000000001L217.25200000000004,332.70800000000014L217.71000000000004,330.8750000000001L216.87700000000004,328.8750000000001L217.00200000000004,325.83300000000014L218.16900000000004,325.1250000000001C218.16900000000004,325.1250000000001,219.50200000000004,324.0010000000001,219.87700000000004,324.0420000000001S220.79400000000004,324.7920000000001,220.79400000000004,324.7920000000001L221.46100000000004,326.5000000000001L224.16900000000004,329.0420000000001L224.50200000000004,328.3750000000001C224.50200000000004,328.3750000000001,224.33500000000004,326.6670000000001,224.33500000000004,326.5000000000001S224.75200000000004,325.0840000000001,225.00200000000004,325.0420000000001S226.58500000000004,324.4580000000001,227.00200000000004,324.8330000000001S228.21100000000004,326.00000000000006,228.21100000000004,326.00000000000006S228.87600000000003,328.20900000000006,228.96000000000004,328.50000000000006S231.00200000000004,330.8330000000001,231.00200000000004,330.8330000000001S232.62600000000003,328.9570000000001,233.08500000000004,328.9160000000001S234.25100000000003,330.4160000000001,234.46000000000004,330.7910000000001S236.41900000000004,332.4160000000001,236.41900000000004,332.4160000000001L237.33500000000004,332.1250000000001C237.33500000000004,332.1250000000001,237.41900000000004,330.2910000000001,237.66900000000004,329.58300000000014S238.25200000000004,328.58300000000014,238.50200000000004,328.45800000000014S239.37600000000003,327.8750000000001,239.83500000000004,328.83300000000014S240.79400000000004,330.29200000000014,241.87700000000004,329.5000000000001S244.58600000000004,327.20800000000014,244.58600000000004,327.20800000000014L249.71100000000004,325.2500000000001L251.66900000000004,327.4170000000001L252.41900000000004,329.2080000000001L253.16900000000004,329.7080000000001L253,332L252.5,333.417L252.916,334.666L253.958,336L256.20799999999997,336.958L258.416,338.66600000000005L261.416,341.79100000000005L262.58299999999997,343.12500000000006L262.666,346.29100000000005L264.70799999999997,347.54100000000005L265.62499999999994,348.583L266.33299999999997,350.29100000000005L267.95799999999997,351.083L269.87499999999994,351.583L271.04099999999994,352.458L274.3329999999999,352.66600000000005C274.3329999999999,352.66600000000005,275.6249999999999,351.9990000000001,274.7499999999999,350.91600000000005S274.2489999999999,349.12500000000006,274.2909999999999,348.958S276.08299999999986,348.458,276.08299999999986,348.458L278.04199999999986,348.41600000000005L281.6249999999999,346.37500000000006L284.0829999999999,346.54100000000005L288.1249999999999,349.41600000000005L291.41699999999986,350.833L292.54199999999986,351.5L294.8749999999999,351.458L297.5829999999999,349.875L297.8329999999999,347.875L300.4169999999999,345.167L301.12499999999994,343.792L302.7919999999999,341.75L302.99999999999994,340.208C302.99999999999994,340.208,300.83299999999997,339.125,300.70799999999997,338.958S299.87399999999997,337.875,301.041,337.083S302.58299999999997,336,302.58299999999997,336L306.74999999999994,335.708L307.24999999999994,336.125L309.58299999999997,336V335.541L312.12499999999994,335.83299999999997L312.37499999999994,336.12499999999994L318.70799999999997,336.45799999999997L319.95799999999997,337.416L320.49999999999994,338.541V339.20799999999997L324.24999999999994,341.58299999999997L327.58299999999997,343.166L328.87499999999994,344.95799999999997L329.45799999999997,345.541L331.58299999999997,345.291L333.24999999999994,344.20799999999997L333.79099999999994,343.74999999999994H335L336.041,342.37499999999994L337.20799999999997,340.74999999999994L338.58299999999997,339.45799999999997L338.95799999999997,337.791L339.62499999999994,336.95799999999997L340.95799999999997,337.58299999999997L342.417,338.70799999999997L343.75,340.37499999999994L344.75,340.79099999999994L346.125,339.91599999999994L346.666,339.66599999999994L347.291,339.87499999999994L348.45799999999997,341.04099999999994L349.791,341.4579999999999L350.45799999999997,341.29099999999994V338.04099999999994L349.87499999999994,336.54099999999994L350.16599999999994,333.12499999999994L348.8329999999999,331.37499999999994L349.2499999999999,330.0419999999999L350.4579999999999,327.37499999999994L350.2079999999999,325.99999999999994L350.16599999999994,324.37499999999994L350.99999999999994,323.4169999999999L351.95799999999997,323.0829999999999C351.95799999999997,323.0829999999999,354.24999999999994,323.4999999999999,355.08299999999997,323.9999999999999S357.08299999999997,325.7499999999999,357.08299999999997,325.7499999999999V326.5829999999999L360.08299999999997,326.4579999999999L360.49999999999994,326.8749999999999L362.08299999999997,326.6249999999999L362.45799999999997,324.79199999999986L363.12499999999994,322.91699999999986L362.87499999999994,321.54199999999986L362.08299999999997,320.4999999999999L361.45799999999997,317.41699999999986L359.12499999999994,315.95799999999986L358.75,313L360.5,310.708L360.125,308.958C360.125,308.958,358.916,308.458,357.916,308.208S356.292,307.37600000000003,355.875,307.29200000000003S354.041,306.749,353.791,306.583S353.375,306.083,352.75,305.708S351.582,304.66700000000003,351.541,304.5S351.08299999999997,303.667,351.08299999999997,303.667L347.95799999999997,303.917C347.95799999999997,303.917,346.95799999999997,302.501,346.95799999999997,302.292S345.417,300.292,345.417,300.292L343.70799999999997,299.5C343.70799999999997,299.5,342.166,299.292,341.70799999999997,299.125S337.58299999999997,296.958,337.58299999999997,296.958L335.37499999999994,298.54200000000003L335.62499999999994,299.16600000000005C335.62499999999994,299.16600000000005,335.58399999999995,299.50000000000006,335.1669999999999,299.458S334.24999999999994,298.583,334.24999999999994,298.583L330.45799999999997,298.125V296.583L331.24999999999994,294.79100000000005C331.24999999999994,294.79100000000005,332.33299999999997,294.25000000000006,332.12499999999994,293.208S332.2919999999999,291.66600000000005,332.2919999999999,291.66600000000005S332.9579999999999,291.04200000000003,333.37499999999994,290.25000000000006S333.62399999999997,289.04200000000003,333.08299999999997,288.50000000000006S332.74899999999997,287.08200000000005,333.291,286.16600000000005S333.334,285.04200000000003,332.25,283.87500000000006S329.166,279.91600000000005,329.166,279.91600000000005S328.666,276.958,329.791,276.37500000000006S332.95799999999997,275.50000000000006,332.95799999999997,275.50000000000006S333.791,275.0830000000001,333.58299999999997,273.5830000000001S332.917,270.9580000000001,332.49999999999994,270.25000000000006S332.1669999999999,269.62600000000003,331.99999999999994,268.66700000000003S332.45799999999997,267.41700000000003,332.62499999999994,266.87500000000006S331.87399999999997,265.79100000000005,331.08299999999997,264.5830000000001S330.001,263.58400000000006,330.167,262.6670000000001S329.87399999999997,260.7920000000001,331.20799999999997,260.3750000000001S333.58299999999997,260.1250000000001,333.58299999999997,260.1250000000001L334.041,258.2920000000001C334.041,258.2920000000001,335.291,257.2490000000001,334.70799999999997,255.33300000000008S333.33399999999995,253.16600000000008,333.042,252.83300000000008S331.417,251.29100000000008,331.417,251.29100000000008L328.5,250.29100000000008L327.167,249.12500000000009L326.167,247.50000000000009L324.792,246.04100000000008L323.167,244.33300000000008L321.667,243.12500000000009L318.75,243.54100000000008C318.75,243.54100000000008,317.749,243.20800000000008,317.333,242.70800000000008S317.16700000000003,241.08300000000008,317.16700000000003,241.08300000000008S316.624,240.37500000000009,315.833,240.50000000000009S314.25,240.8340000000001,314.125,240.87500000000009S312.834,241.00000000000009,312.542,240.62500000000009S312.167,239.20800000000008,312.167,239.20800000000008L313.58299999999997,237.25000000000009L313.83299999999997,234.83300000000008L313,233.917L312.791,229.167L312.95799999999997,227.417L313.041,223.083L312.916,220.792L312.375,220.083L313.083,219.125L313.333,217.542L313.354,216.828Z"
    stroke-width="1"
    stroke-linejoin="round"
    style="-webkit-tap-highlight-color: rgba(0, 0, 0, 0); stroke-linejoin: round;"></path>
  <path
    fill="#cccccc"
    stroke="#222222"
    d="M185.5,203.625L208.816,205.178L221.221,193.397L219.971,183.402H226.178L225.682,179.921H226.94899999999998L227.557,176.886L226.177,175.636L226.94799999999998,172.15699999999998L228.09199999999998,168.498L228.62699999999998,167.962L232.28599999999997,172.33499999999998L235.22999999999996,171.26399999999998V168.34099999999998L236.56199999999995,165.37599999999998V163.76999999999998L238.49699999999996,162.74099999999999L238.16799999999995,159.694L240.55699999999996,157.676L241.21499999999995,157.30499999999998L242.57399999999996,158.25199999999998L243.84899999999996,158.499L245.57799999999997,157.922L247.26599999999996,156.934V155.20499999999998H248.70599999999996V149.89299999999997C248.70599999999996,149.89299999999997,250.88899999999995,149.60499999999996,251.67099999999996,147.95699999999997S251.99999999999997,147.00999999999996,251.99999999999997,147.00999999999996L253.89499999999998,149.10999999999996L260.19599999999997,146.26899999999995L260.936,143.79799999999994C260.936,143.79799999999994,261.678,143.01599999999993,261.801,144.70399999999995S262.70599999999996,147.54499999999996,262.871,147.87399999999994S263.734,149.35599999999994,263.734,149.35599999999994L265.46299999999997,147.58499999999995L267.81199999999995,148.36699999999996C267.81199999999995,148.36699999999996,268.92099999999994,148.16099999999997,268.46999999999997,147.29599999999996C268.017,146.43099999999995,268.017,146.06099999999995,268.017,146.06099999999995S272.052,145.85599999999994,270.2,144.20799999999994S268.842,144.16599999999994,268.842,144.16599999999994L268.471,140.95499999999993H271.934L274.247,142.31099999999992L278.56,140.24799999999993V143.12299999999993L285.935,144.18599999999992C285.935,144.18599999999992,287.748,139.06099999999992,289.248,141.18599999999992S289.998,143.68599999999992,289.998,143.68599999999992S290.561,140.81099999999992,292.311,140.81099999999992S295.37399999999997,142.4989999999999,295.37399999999997,142.4989999999999L297.93699999999995,139.81099999999992L298.93699999999995,142.2489999999999L302.87499999999994,140.93599999999992L304.18799999999993,138.43599999999992H306.93799999999993C306.93799999999993,138.43599999999992,308.06299999999993,145.06099999999992,308.31299999999993,145.7489999999999S308.31299999999993,147.6869999999999,308.31299999999993,147.6869999999999S306.97299999999996,148.3119999999999,308.4239999999999,149.8119999999999S310.49999999999994,151.9369999999999,310.49999999999994,151.9369999999999S310.49999999999994,153.0619999999999,310.06199999999995,154.0619999999999C309.62399999999997,155.0619999999999,309.81199999999995,159.1249999999999,309.81199999999995,159.1249999999999L311.74999999999994,163.7499999999999V166.81299999999987L310.18699999999995,167.06299999999987L309.74899999999997,168.75099999999986L309.93699999999995,169.62599999999986L306.62399999999997,171.80899999999986C306.62399999999997,171.80899999999986,306.311,172.81399999999985,306.93699999999995,173.87599999999986C307.56199999999995,174.93799999999987,308.56199999999995,177.81399999999985,308.56199999999995,177.81399999999985L308.18699999999995,181.75199999999984C308.18699999999995,181.75199999999984,311.06199999999995,182.37699999999984,310.62499999999994,184.18999999999983S309.56199999999995,186.18999999999983,309.56199999999995,186.18999999999983S312.18699999999995,187.75299999999982,310.06199999999995,189.25299999999982S306.74899999999997,190.12799999999982,306.62399999999997,190.62799999999982S304.936,192.9409999999998,307.49899999999997,194.37799999999982S314.49899999999997,199.50299999999982,314.56199999999995,199.75299999999982C314.62499999999994,200.00299999999982,315.81199999999995,201.6909999999998,315.81199999999995,201.6909999999998L318.12499999999994,202.0659999999998V204.3159999999998L316.18699999999995,205.1809999999998L315.31199999999995,206.6909999999998L315.68699999999995,212.0659999999998L314,212.875L313.562,216.125L313.353,216.828L299.168,217.14600000000002L288.375,225.14800000000002L254.813,224.69100000000003L255.82799999999997,240.56600000000003L241.87299999999996,241.37500000000003L237.49799999999996,239.62500000000003L232.49799999999996,238.50000000000003L229.74799999999996,238.75000000000003L221.43199999999996,233.16800000000003L214.08199999999997,228.26600000000005L207.52499999999998,223.65500000000006L205.384,222.46700000000007L196.308,218.59900000000007L192.12199999999999,216.82900000000006L188.791,210.19000000000005L186.042,204.71100000000004L185.5,203.625Z"
    stroke-width="1"
    stroke-linejoin="round"
    style="-webkit-tap-highlight-color: rgba(0, 0, 0, 0); stroke-linejoin: round;"></path>
  <path
    fill="#cccccc"
    stroke="#222222"
    d="M175.625,196C175.625,196,176.914,192.393,176.694,191.206C176.474,190.01899999999998,176.07999999999998,189.185,175.94799999999998,188.74699999999999C175.81599999999997,188.309,175.24499999999998,185.63,175.24499999999998,185.63L175.68399999999997,184.972C175.68399999999997,184.972,174.84999999999997,183.96200000000002,174.76199999999997,182.996C174.67399999999998,182.03,175.42099999999996,181.328,175.42099999999996,181.328L177.48399999999995,179.572C177.48399999999995,179.572,178.09899999999996,177.421,177.87999999999994,176.543C177.66099999999994,175.66500000000002,177.00199999999995,172.591,177.00199999999995,172.591S175.23099999999997,172.50300000000001,174.75499999999994,173.469C174.27899999999994,174.435,173.57699999999994,175.094,173.57699999999994,175.094S172.78699999999995,172.72299999999998,172.12799999999993,172.065C171.46899999999994,171.407,171.20599999999993,171.231,170.85499999999993,171.494C170.50399999999993,171.757,167.12299999999993,173.557,167.03499999999994,173.733C166.94699999999995,173.909,166.63999999999993,174.919,165.76199999999994,174.392C164.88399999999996,173.865,164.13699999999994,172.37199999999999,163.56699999999995,172.37199999999999C162.99699999999996,172.37199999999999,161.37199999999996,172.855,161.37199999999996,172.855L158.82599999999996,170.70399999999998L158.47399999999996,168.94799999999998L160.53799999999995,167.10399999999998L160.75699999999995,165.34799999999998L162.33799999999994,165.08399999999997C162.33799999999994,165.08399999999997,162.60099999999994,163.81099999999998,162.29399999999993,163.59099999999998C161.98699999999994,163.37099999999998,161.89899999999992,163.152,161.89899999999992,163.152L163.3919999999999,161.48399999999998L163.78699999999992,159.201C163.78699999999992,159.201,165.4989999999999,156.566,164.53399999999993,155.732C163.56899999999993,154.898,160.09899999999993,153.274,160.09899999999993,153.274L159.39699999999993,150.727L159.13299999999992,148.751L160.23099999999994,147.609C160.23099999999994,147.609,161.06499999999994,146.995,160.31899999999993,146.16S159.48499999999993,144.316,159.48499999999993,144.316L159.79299999999992,140.40800000000002L161.02199999999993,139.53000000000003L161.94399999999993,137.59800000000004L163.52499999999992,135.66600000000005L166.0709999999999,134.04100000000005L167.03699999999992,131.75800000000007L166.33499999999992,130.52900000000005L166.0709999999999,129.08000000000004C166.0709999999999,129.08000000000004,166.1589999999999,127.67500000000004,166.2909999999999,127.67500000000004S166.9489999999999,127.36700000000003,166.9489999999999,127.06000000000004S166.5539999999999,125.12800000000004,166.5539999999999,125.12800000000004L166.07099999999988,124.03000000000004L166.8179999999999,123.02000000000004L169.5839999999999,122.58100000000005L171.0329999999999,121.22000000000004L171.7789999999999,117.83900000000004L172.0219999999999,117.18300000000004H173.8609999999999H175.4549999999999H177L178.625,114.12300000000003C178.625,114.12300000000003,180.958,114.62300000000003,182.333,115.70600000000003S184.125,116.70600000000003,183.958,117.53900000000003S183.083,119.28900000000003,183.166,119.58100000000003S186.458,123.12300000000003,186.458,123.12300000000003L187.708,123.33100000000003L188.416,123.99800000000003L191.083,126.49800000000003L191.916,127.37300000000003H194.666C194.666,127.37300000000003,195.749,127.16500000000003,195.208,126.41500000000003S193.875,124.29000000000003,193.875,124.29000000000003L193.542,122.70700000000004L192.875,120.74900000000004L194.292,119.20700000000004C194.292,119.20700000000004,194.25,117.37400000000004,195.125,116.70700000000004S197.5,115.95700000000004,197.5,115.95700000000004L198.375,115.58200000000004L201.208,115.33200000000004L202,116.25V113.875L201,113.167H202.917L203.709,113.917L205.084,113.167L204.792,109.792V107.917C204.792,107.917,206.5,106.209,207.75,105.625S209.167,104.708,209.167,104.708H213.667C213.667,104.708,214.917,104.708,214.917,104S215.334,101.625,215.334,101.625H217.167C217.167,101.625,217.709,101.542,217.709,99.958S217.251,97.708,217.251,97.708S216.626,95.375,216.668,95.083S216.501,93.375,216.501,93.375L217.001,92.292L221.209,88.834C221.209,88.834,221.376,94.126,221.459,94.459S222.334,96.626,222.334,96.626L223.667,99.293C223.667,99.293,224.334,101.626,224.292,101.876S225,103.25,225,103.25L226.18,103.958L227.5,104.291L228.083,108.583L233.833,108.625C233.833,108.625,235.083,109.417,234.25,110.083S230.708,112.333,230.708,112.333L230.458,112.875C230.458,112.875,230.083,114.5,232,113.667S235.292,112.417,235.292,112.417L236.292,113.334L243.708,112.792L239.625,119.584L239.334,123.459C239.334,123.459,238.875,125.167,237.875,125.084S231.542,119.459,231.542,119.459L231.209,124.584C231.209,124.584,228.916,127.167,227.625,127.792S222.75,128.167,222.667,128.292S222.459,128.959,223.042,129.709S224,130.792,222.917,131.292S220.792,132.417,220.792,132.959S221.167,137.209,221.5,137.917S222.417,140.917,223.25,141.875S224.917,143.292,223.958,143.958S222.541,144.25,222.541,144.458S222.124,149.5,222.124,149.5S221.582,150.042,220.082,149.417S218.249,148.959,218.249,148.959L217.957,151.542C217.957,151.542,216.915,151.459,217.54,152.667S219.456,155.042,219.623,155.292S220.79,155.584,221.456,157.167S222.164,159.917,222.206,160.209S223.373,162.209,223.373,162.209S223.581,163.834,223.081,164.209S221.331,164.126,221.373,164.376S222.956,166.876,223.081,166.959S224.456,166.542,224.998,166.792S226.082,168.25,226.415,168.75S227.644,169.924,227.644,169.924L226.947,172.156L226.17600000000002,175.40300000000002L227.71300000000002,176.80700000000002L226.788,179.92000000000002H225.68L226.17600000000002,183.401L219.769,183.449L221.219,193.39600000000002L208.814,205.17600000000002L185.739,203.64000000000001L177.327,197.31400000000002L175.625,196Z"
    stroke-width="1"
    stroke-linejoin="round"
    style="-webkit-tap-highlight-color: rgba(0, 0, 0, 0); stroke-linejoin: round;"></path>
  <path
    fill="#cccccc"
    stroke="#222222"
    d="M221.238,88.58L223.91,86.739C223.91,86.739,229.551,89.411,231.096,90.837C232.639,92.263,235.786,94.4,235.786,94.4L236.202,94.756L239.943,95.172L241.01100000000002,95.825L248.79000000000002,95.46900000000001L250.03700000000003,94.459L251.69900000000004,94.34V92.796L255.50000000000003,93.212V94.34L256.80800000000005,94.756C256.80800000000005,94.756,258.23400000000004,93.152,258.41200000000003,93.093C258.59000000000003,93.034,260.016,92.73700000000001,260.016,93.568S260.432,94.993,260.432,94.993S261.916,93.865,262.452,94.33999999999999C262.987,94.81499999999998,264.472,96.478,264.472,96.478V96.95299999999999H266.668V98.97299999999998C266.668,98.97299999999998,265.897,99.68599999999998,265.897,100.57699999999998C265.897,101.46799999999999,265.245,102.89299999999999,265.957,103.78399999999998C266.669,104.67499999999998,266.61,104.79399999999998,266.194,105.50599999999997S263.75800000000004,106.75299999999997,263.34200000000004,108.29699999999997S263.46100000000007,111.32599999999996,263.46100000000007,111.32599999999996S264.2320000000001,113.70099999999996,264.2320000000001,113.87899999999996C264.2320000000001,114.05699999999996,264.8850000000001,113.76099999999997,263.46100000000007,115.06699999999996S258.35400000000004,119.58099999999996,259.00700000000006,122.84699999999997C259.6600000000001,126.11299999999997,259.6600000000001,126.34999999999997,259.6600000000001,126.52899999999997C259.6600000000001,126.70799999999997,260.0170000000001,127.77599999999997,259.1260000000001,128.72599999999997C258.2340000000001,129.67599999999996,257.9380000000001,132.34899999999996,257.8790000000001,132.58599999999998C257.82000000000005,132.82299999999998,257.76000000000005,134.309,258.47300000000007,135.2C259.1860000000001,136.09099999999998,259.24500000000006,137.04,258.47300000000007,137.278C257.70200000000006,137.516,256.69200000000006,136.15,255.44600000000008,136.209C254.1980000000001,136.268,251.7640000000001,135.675,251.34800000000007,136.565S250.57600000000008,139.475,250.63400000000007,140.306C250.69400000000007,141.137,251.81300000000007,146.185,251.81300000000007,146.185L252.00400000000008,147.01L251.97300000000007,147.31L251.64500000000007,148.02100000000002L251.00400000000008,148.847L250.0240000000001,149.48600000000002L248.8400000000001,149.87L248.62500000000009,149.969L248.7100000000001,155.125L247.2700000000001,155.204V156.812L245.7230000000001,157.83800000000002L243.9530000000001,158.46400000000003L242.6970000000001,158.27500000000003L241.2160000000001,157.30400000000003L238.3130000000001,159.57200000000003L238.4770000000001,162.53200000000004L236.60000000000008,163.75000000000003L236.56500000000008,165.00000000000003L235.30900000000008,168.17300000000003L235.2330000000001,171.26300000000003L232.334,172L228.62800000000001,167.961L228.191,168.399L227.71,169.722L226.417,168.75L225.516,167.28L224.78699999999998,166.735L223.25799999999998,166.95100000000002L221.37699999999998,164.37500000000003L221.61999999999998,164.29900000000004L222.88299999999998,164.30600000000004C222.88299999999998,164.30600000000004,223.45899999999997,163.45900000000003,223.41799999999998,162.83400000000003S223.19299999999998,161.92500000000004,223.19299999999998,161.92500000000004L222.21099999999998,160.20800000000003C222.21099999999998,160.20800000000003,221.84599999999998,157.77400000000003,221.398,157.02900000000002C220.95,156.28400000000002,220.566,155.82600000000002,220.173,155.61800000000002S218.809,154.395,218.809,154.395L217.466,152.497C217.466,152.497,217.035,151.304,217.87800000000001,151.542L218.245,149.028C218.245,149.028,218.62,148.91799999999998,219.01,149.036C219.39999999999998,149.154,220.506,149.568,220.506,149.568L221.394,149.715L222.054,149.553L222.541,144.541C222.541,144.541,223.81199999999998,144.203,224.21,143.74699999999999S224.392,143.158,224.235,142.957C224.078,142.756,223.34300000000002,141.974,223.34300000000002,141.974L222.364,140.24599999999998L221.504,137.915L221.23499999999999,136.82L220.82299999999998,133.438L220.83199999999997,132.774L221.23399999999995,132.278L222.04099999999994,131.736L223.38199999999995,131.024C223.38199999999995,131.024,223.69399999999996,130.638,223.54299999999995,130.397C223.39199999999994,130.15599999999998,222.86099999999996,129.439,222.86099999999996,129.439L222.60599999999997,128.521C222.60599999999997,128.521,222.69399999999996,128.261,222.94299999999996,128.255C223.19199999999995,128.249,225.00399999999996,128.21699999999998,225.00399999999996,128.21699999999998L227.05799999999996,127.98399999999998L227.98799999999997,127.58499999999998L228.76099999999997,127.00199999999998L230.14199999999997,125.71699999999998L231.21999999999997,124.47599999999998L231.53799999999998,119.58299999999998L233.444,121.36999999999999L235.397,123.231L237.028,124.61099999999999C237.028,124.61099999999999,237.737,125.14099999999999,238.004,125.07999999999998S239.02499999999998,124.30499999999998,239.161,123.94299999999998C239.298,123.58099999999999,239.35,123.28599999999999,239.35,123.28599999999999L239.62699999999998,119.58099999999999L243.70999999999998,112.78899999999999L236.29399999999998,113.33099999999999L235.29399999999998,112.41399999999999L231.486,113.84499999999998C231.486,113.84499999999998,231.048,113.95299999999999,230.74499999999998,113.82199999999999C230.44099999999997,113.69099999999999,230.539,113.627,230.43499999999997,113.26699999999998C230.33099999999996,112.90699999999998,230.66099999999997,112.43699999999998,230.66099999999997,112.43699999999998L231.60899999999998,111.79499999999999L232.77299999999997,111.079L234.19699999999997,110.122L234.527,109.668C234.527,109.668,234.517,109.236,234.27499999999998,109.003C234.03399999999996,108.77,233.736,108.621,233.736,108.621L228.08499999999998,108.58L227.516,104.383L226.182,103.955L225,103.25L224.311,102.006L224.15900000000002,101.134L223.69600000000003,99.39L223.42400000000004,98.802L222.68000000000004,97.31500000000001L221.79800000000003,95.35000000000001L221.46000000000004,94.45800000000001L221.30000000000004,91.43700000000001L221.22400000000005,89.27900000000001L221.238,88.58Z"
    stroke-width="1"
    stroke-linejoin="round"
    style="-webkit-tap-highlight-color: rgba(0, 0, 0, 0); stroke-linejoin: round;"></path>
  <path
    fill="#cccccc"
    stroke="#222222"
    d="M266.667,96.953L268.082,94.176L269.253,91.88H270.145L274.173,94.417L274.688,94.879L277.032,95.113L278.29699999999997,96.953L279.469,95.066L282.045,96.953L283.732,97.221C283.732,97.221,285.74800000000005,97.924,286.12300000000005,98.299S287.059,98.62700000000001,286.7300000000001,99.65700000000001C286.4020000000001,100.68700000000001,285.3260000000001,101.76500000000001,285.18500000000006,102.51500000000001C285.04300000000006,103.26500000000001,285.7010000000001,103.92100000000002,285.7010000000001,103.92100000000002S284.90400000000005,104.43700000000003,284.81000000000006,104.62400000000002S285.6070000000001,106.40400000000002,285.6070000000001,106.59100000000002S286.63700000000006,108.13700000000003,286.5450000000001,108.41800000000002C286.45200000000006,108.69900000000003,285.7010000000001,110.05800000000002,285.7010000000001,110.05800000000002L286.1230000000001,111.36900000000003L288.5610000000001,113.66500000000003L289.3580000000001,114.50800000000004C289.3580000000001,114.50800000000004,289.40300000000013,112.11900000000004,290.15300000000013,112.72800000000004S291.55900000000014,114.08600000000004,291.55900000000014,114.08600000000004S291.5120000000001,114.88200000000005,290.99600000000015,115.96000000000004S290.99600000000015,117.83400000000003,290.99600000000015,117.83400000000003L291.88600000000014,118.20900000000003L292.8700000000001,120.50500000000004L292.5430000000001,121.67500000000004L292.59000000000015,123.17500000000004H294.51100000000014C294.51100000000014,123.17500000000004,295.30700000000013,124.15800000000004,295.44800000000015,124.53300000000004C295.59000000000015,124.90800000000004,296.10600000000017,125.47100000000005,296.5260000000001,125.00200000000004C296.94800000000015,124.53300000000004,297.41700000000014,124.06500000000004,297.41700000000014,124.06500000000004S298.26000000000016,123.78400000000003,298.96300000000014,124.62700000000004C299.6660000000001,125.47000000000004,301.7280000000001,125.18000000000004,301.7280000000001,125.18000000000004S301.9610000000001,124.39200000000004,302.52500000000015,124.39200000000004C303.08800000000014,124.39200000000004,304.02300000000014,125.51700000000004,304.02300000000014,125.51700000000004L305.2910000000001,126.26600000000003C305.2910000000001,126.26600000000003,306.0390000000001,127.15700000000004,305.89800000000014,125.89100000000003C305.75800000000015,124.62500000000003,305.2910000000001,123.78300000000003,305.2910000000001,123.78300000000003L304.8220000000001,122.05000000000003C304.8220000000001,122.05000000000003,306.36700000000013,120.08300000000003,306.6950000000001,119.94200000000002S307.86700000000013,119.23900000000002,308.1480000000001,119.75400000000002C308.42800000000005,120.26900000000002,308.5700000000001,120.64400000000002,308.5700000000001,120.64400000000002S309.8820000000001,119.28500000000003,310.39600000000013,119.98800000000001C310.91200000000015,120.69100000000002,311.05200000000013,121.67500000000001,310.67700000000013,122.37800000000001S309.5050000000001,123.08100000000002,309.7860000000001,123.92400000000002C310.0670000000001,124.76700000000002,310.76800000000014,123.17400000000002,311.28500000000014,123.54900000000002C311.80100000000016,123.92400000000002,312.12900000000013,124.62700000000002,312.12900000000013,124.81400000000002S311.42700000000013,126.64100000000002,312.12900000000013,126.57100000000003C312.83100000000013,126.50100000000003,313.48700000000014,125.37600000000003,313.48700000000014,125.37600000000003S314.00400000000013,124.43800000000003,314.37800000000016,125.23500000000003C314.7520000000002,126.03200000000002,315.08000000000015,126.17200000000003,315.08000000000015,126.17200000000003L316.39200000000017,126.21900000000002L314.84700000000015,127.76400000000002L314.56600000000014,129.544L312.2230000000001,131.465L311.70800000000014,131.886L311.52000000000015,133.76L310.3000000000001,135.072C310.3000000000001,135.072,308.56900000000013,135.072,307.81900000000013,135.775S306.74100000000016,136.75900000000001,306.74100000000016,136.75900000000001L306.9420000000002,138.43800000000002H304.1920000000002L302.7570000000002,140.979L298.9420000000002,142.251L297.9420000000002,139.81300000000002L295.35600000000017,142.251C295.35600000000017,142.251,293.37100000000015,140.922,292.8430000000002,140.868C292.3170000000002,140.814,291.77400000000017,140.69299999999998,291.3040000000002,141.196C290.8350000000002,141.69899999999998,290.1210000000002,142.813,290.1210000000002,142.813S289.7750000000002,141.648,289.2540000000002,141.189S288.6040000000002,140.391,288.1150000000002,140.756C287.62800000000016,141.121,287.0450000000002,141.84,286.81800000000015,142.262C286.59000000000015,142.684,285.98200000000014,144.073,285.98200000000014,144.073L282.5860000000001,143.705L278.5650000000001,143.125V140.25L274.2520000000001,142.313L272.24900000000014,141.13899999999998L268.4780000000001,140.957L269.02300000000014,143.47199999999998C269.02300000000014,143.47199999999998,270.37300000000016,144.25599999999997,270.52100000000013,144.551C270.67000000000013,144.84599999999998,270.45100000000014,145.55599999999998,269.94300000000015,145.707C269.4370000000002,145.858,268.05600000000015,146.253,268.05600000000015,146.253L268.54400000000015,147.45299999999997L268.23700000000014,148.20899999999997L267.8170000000001,148.36899999999997L265.4690000000001,147.58699999999996L263.5460000000001,149.03699999999995L261.9910000000001,145.82899999999995L261.7650000000001,144.36899999999994L261.3260000000001,143.61899999999994L260.9390000000001,143.79899999999995L260.1980000000001,146.26999999999995L253.8320000000001,149.03799999999995L252.0680000000001,147.08299999999994L251.1400000000001,143.06199999999995L250.6710000000001,140.61299999999994V138.43999999999994L251.2490000000001,136.80299999999994L251.8120000000001,136.19499999999994L252.7090000000001,136.07199999999995L253.7350000000001,136.11599999999996L255.00600000000009,136.20799999999997L255.91600000000008,136.25199999999998L257.56500000000005,137.064L258.46900000000005,137.278L259.02200000000005,136.53199999999998L258.59600000000006,135.368L257.98900000000003,134.178L257.92600000000004,132.287L258.475,129.934L259.122,128.725L259.71700000000004,127.402L259.42800000000005,125.023L258.94900000000007,122.42699999999999L259.21700000000004,120.458L260.02700000000004,118.839L261.21600000000007,117.28099999999999L262.5210000000001,115.934L263.9530000000001,114.597L264.3810000000001,114.03599999999999L263.23500000000007,110.30699999999999C263.23500000000007,110.30699999999999,263.2460000000001,109.37099999999998,263.29800000000006,108.49699999999999C263.35100000000006,107.62299999999999,264.26700000000005,106.94799999999998,264.56200000000007,106.73999999999998S266.0970000000001,105.63899999999998,266.0970000000001,105.63899999999998L266.3940000000001,105.13899999999998L266.4520000000001,104.52599999999998L265.6810000000001,103.17499999999998L265.6250000000001,102.75999999999998L265.7600000000001,101.57199999999997L265.8980000000001,100.57699999999997L266.1090000000001,99.74399999999997L266.7710000000001,98.92399999999998L266.667,96.953Z"
    stroke-width="1"
    stroke-linejoin="round"
    style="-webkit-tap-highlight-color: rgba(0, 0, 0, 0); stroke-linejoin: round;"></path>
  <path
    fill="#cccccc"
    stroke="#222222"
    d="M216.182,93.215C216.182,93.215,213.652,91.744,213.652,91.052C213.652,90.36000000000001,213.84699999999998,89.04100000000001,214.539,88.435S215.707,87.721,215.707,87.721L215.42499999999998,83.807H217.653C217.653,83.807,218.388,83.828,218.691,82.898C218.994,81.96799999999999,218.691,81.55799999999999,218.691,81.55799999999999L217.804,80.88799999999999L217.977,79.85L218.928,76.91L219.469,76.023L221.78199999999998,75.136L223.07999999999998,74.185L223.98799999999997,73.19L224.22599999999997,72.586L224.35599999999997,69.321L226.86399999999998,67.15899999999999L230.30199999999996,64.10999999999999L230.64799999999997,63.828999999999986L233.41699999999997,63.698999999999984L234.93799999999996,61.56199999999998L235.78299999999996,60.62399999999998L237.56299999999996,59.81099999999998L239.15799999999996,58.747999999999976L240.18799999999996,57.559999999999974L241.50099999999995,56.653999999999975L241.68899999999994,54.747999999999976L243.50199999999992,52.247999999999976L245.40799999999993,49.09199999999998L247.28299999999993,46.34199999999998L248.03299999999993,45.497999999999976L248.56399999999994,43.497999999999976L248.76699999999994,43.122999999999976L251.12499999999994,43.028999999999975H252.95299999999995H254.56099999999995C254.56099999999995,43.028999999999975,258.12399999999997,44.997999999999976,258.37399999999997,45.528999999999975C258.62399999999997,46.059999999999974,258.24899999999997,46.09199999999998,257.344,46.059999999999974C256.438,46.02799999999998,255.344,45.24699999999997,255.031,45.653999999999975C254.71800000000002,46.06099999999997,255.469,47.372999999999976,255.781,47.809999999999974S255.561,49.528999999999975,255.561,49.528999999999975L255.217,51.09199999999998C255.217,51.09199999999998,254.99800000000002,52.21699999999998,255.49800000000002,52.622999999999976C255.99800000000002,53.028999999999975,258.12300000000005,53.56099999999998,257.87300000000005,54.403999999999975C257.62300000000005,55.24699999999997,256.46700000000004,55.903999999999975,256.56000000000006,56.59199999999998C256.6530000000001,57.27999999999998,256.40400000000005,58.06099999999998,256.40400000000005,58.622999999999976S253.40400000000005,61.528999999999975,253.40400000000005,61.528999999999975L251.74800000000005,61.934999999999974L245.56000000000006,61.528999999999975L246.02900000000005,62.684999999999974L251.59200000000004,67.21599999999998L254.06100000000004,69.49699999999999L255.15600000000003,70.34099999999998C255.15600000000003,70.34099999999998,258.03100000000006,69.65299999999998,258.84400000000005,70.09099999999998C259.65700000000004,70.52899999999998,260.124,71.18499999999997,260.124,71.18499999999997V74.24799999999998L249.24900000000002,79.87299999999998L249.18600000000004,82.68599999999998L249.56100000000004,85.93599999999998L251.12400000000002,86.73799999999999L252.24900000000002,88.83199999999998L252.687,90.87399999999998L253.312,91.87899999999998L253.56400000000002,92.99899999999998L251.70200000000003,92.79499999999999V94.33899999999998L250.18700000000004,94.44699999999999L248.91100000000003,95.37199999999999L241.11900000000003,95.81899999999999L240.07900000000004,95.25299999999999L236.20300000000003,94.75499999999998L229.60100000000003,89.76599999999998L224.03700000000003,86.79799999999997L221.59800000000004,88.33099999999997L218.55100000000004,91.01599999999998L216.182,93.215Z"
    stroke-width="1"
    stroke-linejoin="round"
    style="-webkit-tap-highlight-color: rgba(0, 0, 0, 0); stroke-linejoin: round;"></path>
  <path
    fill="#cccccc"
    stroke="#222222"
    d="M255.877,48.297L258.229,48.672C258.229,48.672,259.442,51.067,260.125,51.279999999999994C260.809,51.492999999999995,262.619,50.401999999999994,263.497,50.69499999999999S267.302,51.43999999999999,267.302,51.43999999999999S267.649,53.30299999999999,267.968,53.834999999999994C268.28700000000003,54.36699999999999,268.819,54.525999999999996,269.64500000000004,54.818999999999996C270.46900000000005,55.111999999999995,270.908,54.842999999999996,271.75000000000006,55.467999999999996S274.21900000000005,56.062,274.21900000000005,56.062S274.96900000000005,59.217999999999996,274.78200000000004,59.906C274.595,60.594,272.46900000000005,62.312,272.46900000000005,62.312L270.81300000000005,64.187L268.75000000000006,65.25C268.75000000000006,65.25,264.21900000000005,65.469,263.90600000000006,65.469C263.5930000000001,65.469,263.75000000000006,64.875,261.90600000000006,64.969C260.06200000000007,65.06299999999999,258.62500000000006,65.87599999999999,259.25000000000006,66.70899999999999S264.04200000000003,70.70899999999999,264.04200000000003,70.70899999999999L267.04200000000003,73.00099999999999L269.12500000000006,76.29299999999999L271.3330000000001,79.37599999999999L271.50000000000006,81.20899999999999L271.29100000000005,83.33399999999999L269.50000000000006,90.08399999999999L269.25300000000004,91.88099999999999L266.672,96.94399999999999L264.47,96.954L264.42100000000005,96.42399999999999L262.40000000000003,94.30799999999999C262.40000000000003,94.30799999999999,262.093,94.235,261.92100000000005,94.329C261.749,94.42299999999999,260.53000000000003,94.81299999999999,260.53000000000003,94.81299999999999L260.37100000000004,94.89699999999999L259.97200000000004,93.341C259.97200000000004,93.341,259.913,93.14999999999999,259.689,93.08399999999999C259.46500000000003,93.01799999999999,258.55800000000005,93.05799999999999,258.55800000000005,93.05799999999999L256.85900000000004,94.70299999999999L255.50400000000005,94.23499999999999L255.40600000000003,93.35999999999999L253.63400000000004,93.08299999999998L253.31500000000005,91.88099999999999L252.69000000000005,90.87599999999999L252.25200000000007,88.83399999999999L251.12700000000007,86.74L249.65900000000008,85.987L249.20200000000008,82.797L249.24900000000008,79.989L251.60400000000007,78.659L258.8330000000001,74.91900000000001L260.1260000000001,74.251L260.06200000000007,71.105L258.8450000000001,70.09400000000001L258.0870000000001,69.85100000000001L255.2460000000001,70.32400000000001L252.7430000000001,68.281L249.68600000000012,65.66600000000001L247.89900000000011,64.21000000000001L246.18600000000012,62.815000000000005L245.4990000000001,61.418000000000006L251.6410000000001,61.93200000000001L253.5040000000001,61.45500000000001L256.4790000000001,58.79300000000001L256.582,57L256.611,56.259L256.904,55.78L257.82,54.557L257.71999999999997,53.877L257.09,53.419000000000004L256.28,53.032000000000004L255.66499999999996,52.736000000000004L255.35599999999997,52.465L255.19199999999998,51.99L255.182,51.343L255.31099999999998,50.665000000000006L255.55899999999997,49.534000000000006L255.877,48.297Z"
    stroke-width="1"
    stroke-linejoin="round"
    style="-webkit-tap-highlight-color: rgba(0, 0, 0, 0); stroke-linejoin: round;"></path>
  <path
    fill="#cccccc"
    stroke="#222222"
    d="M248.57,43.031L246.97799999999998,41.25V40.152L245.98999999999998,39.658L245.49999999999997,37.791000000000004L246.31799999999998,36.693000000000005L246.374,34.38700000000001L245.936,33.34400000000001L245.827,29.995000000000008L246.431,28.95200000000001L248.792,26.86600000000001C248.792,26.86600000000001,250.65800000000002,26.15200000000001,251.317,26.86600000000001C251.975,27.58000000000001,253.459,28.89800000000001,253.459,28.89800000000001L255.49,29.00800000000001C255.49,29.00800000000001,255.928,30.05100000000001,256.259,30.49000000000001C256.589,30.92900000000001,258.839,31.91700000000001,258.839,31.91700000000001L262.353,32.79500000000001C262.353,32.79500000000001,263.505,33.56400000000001,263.89,33.34400000000001C264.275,33.12400000000001,265.154,33.34400000000001,264.769,32.63000000000001S264.056,31.14800000000001,263.781,30.81800000000001C263.508,30.48800000000001,264.99,29.33600000000001,265.978,29.884000000000007C266.96500000000003,30.43200000000001,267.515,29.445000000000007,267.515,29.445000000000007L270.094,29.994000000000007L271.796,30.433000000000007L273.169,29.445000000000007L274.541,30.104000000000006L274.813,31.147000000000006C274.813,31.147000000000006,274.76099999999997,31.586000000000006,275.969,33.178000000000004C277.177,34.77,278.33,37.29600000000001,278.33,37.29600000000001S280.252,38.723000000000006,279.09999999999997,39.76700000000001C277.94599999999997,40.81100000000001,276.79299999999995,42.67700000000001,276.79299999999995,42.67700000000001L276.662,44.589000000000006C276.662,44.589000000000006,276.9,46.66100000000001,276.962,47.142S276.361,50.236000000000004,276.361,50.236000000000004S275.67,51.077000000000005,275.099,52.00900000000001C274.527,52.94100000000001,273.659,53.45100000000001,274.04699999999997,54.68300000000001C274.43699999999995,55.915000000000006,274.234,56.126000000000005,274.234,56.126000000000005L272.197,55.715C272.197,55.715,271.232,55.256,271.015,55.087C270.79699999999997,54.918000000000006,270.02099999999996,54.922000000000004,270.02099999999996,54.922000000000004L268.58799999999997,54.401L268.36899999999997,54.265L267.897,53.699L267.59999999999997,52.787L267.21,51.425L263.354,50.660999999999994L262.75399999999996,50.681999999999995L261.04799999999994,51.138999999999996L260.4359999999999,51.303L259.8169999999999,51.080999999999996L259.2659999999999,50.42399999999999L258.1529999999999,48.49999999999999L256.0979999999999,48.33299999999999L255.6429999999999,47.61099999999999L255.0259999999999,46.33099999999999L254.9769999999999,45.76699999999999L255.3399999999999,45.374999999999986L256.1279999999999,45.75499999999999L257.33999999999986,46.06299999999999L258.09999999999985,46.051999999999985L258.42299999999983,45.670999999999985L258.16499999999985,45.29999999999998L256.85499999999985,44.381999999999984L255.48799999999986,43.560999999999986L254.55799999999985,43.03299999999999H252.36999999999986H249.27499999999986H248.56799999999987V43.031Z"
    stroke-width="1"
    stroke-linejoin="round"
    style="-webkit-tap-highlight-color: rgba(0, 0, 0, 0); stroke-linejoin: round;"></path>
  <path
    fill="#cccccc"
    stroke="#222222"
    d="M279.875,42.542L277.559,41.554L279.1,39.768L279.467,39L279.07099999999997,38.042L278.243,37.107L276.604,34.101L275.118,31.916L274.541,30.105L277.209,29.791L282.96,32.874L288.335,35.832L290.25199999999995,36.499L291.50199999999995,37.332L292.835,36.374C292.835,36.374,293.46,36.291000000000004,294.085,37.082S295.25199999999995,38.29,295.25199999999995,38.29L297.96,38.748L298.62699999999995,39.830999999999996L297.46,43.913999999999994L297.5,44.5V46L297.583,48.583V50.125L297.66600000000005,50.708L297.62500000000006,51.208H292.2080000000001L291.1660000000001,51.583L289.7080000000001,50.541L287.3330000000001,52.208C287.3330000000001,52.208,286.95900000000006,52.708,286.0420000000001,52.208S284.5420000000001,51.041,284.5420000000001,51.041L286.0420000000001,50.248999999999995C286.0420000000001,50.248999999999995,286.4580000000001,49.291,286.2080000000001,48.498999999999995S285.62500000000006,46.623999999999995,285.62500000000006,46.623999999999995L286.91700000000003,45.456999999999994C286.91700000000003,45.456999999999994,287.37500000000006,45.248999999999995,287.25000000000006,44.66499999999999S286.91700000000003,43.206999999999994,286.91700000000003,43.206999999999994S285.874,42.873999999999995,285.083,43.206999999999994S282.79200000000003,44.03999999999999,282.79200000000003,44.03999999999999L281.04200000000003,42.956999999999994L279.875,42.542Z"
    stroke-width="1"
    stroke-linejoin="round"
    style="-webkit-tap-highlight-color: rgba(0, 0, 0, 0); stroke-linejoin: round;"></path>
  <path
    fill="#cccccc"
    stroke="#222222"
    d="M274.813,58.547L274.28999999999996,56.366V55.667L273.84,54.177L274.32599999999996,53.065L275.04999999999995,52.089L276.36299999999994,50.236L276.9669999999999,47.247L276.7099999999999,44.983L276.6939999999999,44.151999999999994L276.9129999999999,42.49099999999999L277.5589999999999,41.55299999999999L279.5349999999999,42.39499999999999L281.0439999999999,42.95799999999999L282.8689999999999,44.01699999999999L285.31499999999994,43.13299999999999L286.82699999999994,43.182999999999986L287.25199999999995,44.66699999999999C287.25199999999995,44.66699999999999,287.35999999999996,45.06499999999999,287.25199999999995,45.16599999999999S285.73299999999995,46.52899999999999,285.73299999999995,46.52899999999999S286.0609999999999,48.00999999999999,286.1449999999999,48.29699999999999C286.23099999999994,48.58399999999999,286.3329999999999,49.06399999999999,286.26399999999995,49.41399999999999S286.08399999999995,50.139999999999986,286.08399999999995,50.139999999999986L284.58799999999997,51.091999999999985C284.58799999999997,51.091999999999985,282.62499999999994,51.89199999999998,282.59399999999994,52.429999999999986C282.56299999999993,52.96799999999998,282.59399999999994,54.34299999999998,282.49999999999994,54.56199999999998S282.53099999999995,54.81199999999998,281.37499999999994,55.374999999999986S278.90599999999995,55.93799999999999,278.65599999999995,56.655999999999985C278.40599999999995,57.37399999999998,277.96799999999996,57.999999999999986,277.96799999999996,57.999999999999986L274.813,58.547Z"
    stroke-width="1"
    stroke-linejoin="round"
    style="-webkit-tap-highlight-color: rgba(0, 0, 0, 0); stroke-linejoin: round;"></path>
  <path
    fill="#cccccc"
    stroke="#222222"
    d="M292.208,51.208L291.73400000000004,53.861999999999995C291.73400000000004,53.861999999999995,293.60100000000006,54.22599999999999,294.78400000000005,55.63699999999999C295.96700000000004,57.047999999999995,295.33000000000004,56.77499999999999,295.33000000000004,56.77499999999999S296.69500000000005,57.36699999999999,297.333,57.91299999999999C297.97,58.45899999999999,298.15200000000004,59.91499999999999,298.15200000000004,59.91499999999999S299.65400000000005,59.504999999999995,299.74500000000006,60.50699999999999S299.00700000000006,62.73699999999999,298.62500000000006,63.32899999999999C298.24300000000005,63.92099999999999,296.69500000000005,64.37599999999999,296.69500000000005,64.37599999999999S295.9270000000001,63.69299999999999,295.74300000000005,63.37499999999999S294.511,64.64899999999999,294.511,64.64899999999999L294.10200000000003,65.332L292.32800000000003,64.37599999999999L291.05300000000005,66.87899999999999L287.3,69.61L283.494,69.064L280.99100000000004,70.065L278.66900000000004,69.423L276.66600000000005,68.836L275.02700000000004,69.064L272.023,72.29599999999999C272.023,72.29599999999999,271.386,72.341,270.29400000000004,71.93199999999999C269.20200000000006,71.52299999999998,268.01800000000003,71.38599999999998,268.01800000000003,71.38599999999998L266.55300000000005,72.62399999999998L263.33400000000006,70.16199999999998L261.36600000000004,68.60399999999997L259.271,66.73299999999998L259.13800000000003,66.11599999999997L259.437,65.71799999999998L260.494,65.20099999999998L261.90700000000004,64.96699999999998L262.999,65.01499999999999L263.68600000000004,65.34099999999998L265.64500000000004,65.39499999999998L268.52200000000005,65.25999999999998L270.81500000000005,64.18599999999998L272.03900000000004,62.80099999999998L273.29800000000006,61.60299999999998L274.5420000000001,60.32899999999998L274.8130000000001,58.54599999999998L278.1080000000001,57.78699999999998L278.6590000000001,56.65599999999998L279.0360000000001,56.126999999999974L281.0850000000001,55.504999999999974L282.1290000000001,54.982999999999976L282.5440000000001,54.312999999999974L282.5810000000001,53.04199999999997L282.87000000000006,52.03999999999997L284.0160000000001,51.35199999999997L284.88900000000007,51.38299999999997L286.04300000000006,52.20899999999997L286.86800000000005,52.425999999999966L287.96200000000005,51.767999999999965L289.70900000000006,50.54099999999997L290.77700000000004,51.30399999999997L291.16700000000003,51.58299999999997L292.208,51.208Z"
    stroke-width="1"
    stroke-linejoin="round"
    style="-webkit-tap-highlight-color: rgba(0, 0, 0, 0); stroke-linejoin: round;"></path>
  <path
    fill="#cccccc"
    stroke="#222222"
    d="M325.302,91.428L322.074,86.551L321.303,84.83200000000001L320.917,82.867L320.00399999999996,80.62100000000001L318.741,78.06L317.334,74.749L316.209,72.624L315.209,71.082L313.501,67.41499999999999L311.459,64.49799999999999V61.87299999999999L309.751,59.66499999999999L308.91799999999995,57.78999999999999L308.58399999999995,55.74799999999999L307.6259999999999,53.53999999999999L306.58399999999995,50.74799999999999L304.667,47.49799999999999L303.251,45.41499999999999L301.959,43.12299999999999L300.209,41.10899999999999L298.625,39.83099999999999L297.251,43.87299999999999L297.58299999999997,49.83099999999999L297.251,51.03899999999999L295.876,51L292.20799999999997,51.208L291.782,53.596L292.734,54.187L293.83,54.778999999999996L295.29699999999997,56.300999999999995L295.501,56.73499999999999L296.777,57.52199999999999L297.491,58.084999999999994L298,59.189L298.152,59.916L299.03299999999996,59.854L299.75199999999995,60.083V60.666L299.609,61.45099999999999L299.126,62.52199999999999L298.625,63.32999999999999L297.891,63.89799999999999L296.911,64.30799999999999L296.399,64.1L295.745,63.37499999999999L295.233,63.68599999999999L294.553,64.589L294.178,65.205L294.001,68.416L296.167,68.958L297.126,70.041L297.584,70.624L299.126,70.832L298.876,72.624L297.251,73.249L297.001,78.999L296.459,80.332L295.25,80.624C295.25,80.624,293.625,80.18599999999999,292.75,80.749S290.375,81.499,290.5,82.624S289.187,83.749,289.187,83.749L286.812,83.812V85.375V86.188C286.812,86.188,288.125,85.688,288.75,86.251S289.438,87.626,289.438,87.626S290.938,87.167,291.813,86.74000000000001C292.688,86.313,293.063,86.16700000000002,294.251,86.74000000000001C295.43899999999996,87.313,296.06399999999996,87.501,296.06399999999996,87.501L297.87699999999995,87.438C297.87699999999995,87.438,299.0679999999999,85.25,299.75399999999996,85.813S300.938,88,300.938,88L302.313,89.938L304.438,91.881L305.188,93.251L306.938,93.81400000000001L308.126,95.12700000000001L308.68899999999996,96.37700000000001L309.06399999999996,97.31500000000001H312.43899999999996L314.18899999999996,96.19000000000001L317.25199999999995,94.44000000000001L320.68999999999994,93.31500000000001L323.06499999999994,92.19000000000001L325.302,91.428Z"
    stroke-width="1"
    stroke-linejoin="round"
    style="-webkit-tap-highlight-color: rgba(0, 0, 0, 0); stroke-linejoin: round;"></path>
  <path
    fill="#cccccc"
    stroke="#222222"
    d="M266.799,72.625L268.018,71.387L271.65299999999996,72.278L275.02799999999996,69.066L276.667,68.83800000000001L280.99199999999996,70.06700000000001L283.65599999999995,68.83800000000001L287.2579999999999,69.42500000000001L291.0539999999999,66.88000000000001L292.3279999999999,64.37700000000001L294.1019999999999,65.33300000000001L294.0009999999999,68.41600000000001L296.1669999999999,68.95800000000001L297.5839999999999,70.62500000000001L299.12599999999986,70.83300000000001V72.62500000000001L297.42999999999984,73.18100000000001L297.001,79L296.459,80.333L295.25,80.625L293.514,80.493L292.75,80.75L291.459,81.372L290.719,81.888L290.688,82.34100000000001L290.335,83.292L289.654,83.688L288.70799999999997,83.765L286.81199999999995,83.815V86.097L286.597,87.17299999999999L285.251,88.55899999999998L284.94,90.17299999999999C284.94,90.17299999999999,284.899,93.58699999999999,284.877,93.64899999999999S284.959,94.47699999999999,284.959,94.47699999999999L283.283,94.70499999999998L283.52500000000003,97.31499999999998L282.03900000000004,96.95599999999999L279.463,95.06899999999999L278.09000000000003,96.95599999999999L277.02700000000004,95.11599999999999L274.68300000000005,94.88199999999999L270.33900000000006,91.883L269.2710000000001,91.72L269.45200000000006,90.411L269.55100000000004,89.883L270.25200000000007,87.23899999999999L271.0230000000001,84.33599999999998L271.2890000000001,83.33599999999998L271.4980000000001,81.21099999999998L271.33100000000013,79.37799999999999L267.8940000000001,74.35299999999998L267.1560000000001,73.18599999999998L266.799,72.625Z"
    stroke-width="1"
    stroke-linejoin="round"
    style="-webkit-tap-highlight-color: rgba(0, 0, 0, 0); stroke-linejoin: round;"></path>
  <path
    fill="#cccccc"
    stroke="#222222"
    d="M338.021,106.21L335.375,109.36999999999999L332.149,113.175L328.28,116.98L324.022,120.45700000000001L319.702,123.88100000000001L316.332,126.27000000000001L315.073,126.17000000000002L314.186,125.12400000000001C314.186,125.12400000000001,313.938,124.843,313.774,125.01400000000001C313.61,125.18500000000002,312.811,126.20400000000001,312.811,126.20400000000001L312.01399999999995,126.421L311.82199999999995,126.009L312.09299999999996,124.946L311.693,123.957L311.09299999999996,123.359L310.53799999999995,123.823L309.85799999999995,124.083L309.74499999999995,123.43299999999999L310.078,123.011L310.577,122.344L310.872,121.26899999999999L310.66,120.45799999999998C310.66,120.45799999999998,310.44500000000005,120.04599999999998,310.093,119.93699999999998C309.74100000000004,119.82799999999999,309.07,120.20099999999998,309.07,120.20099999999998L308.644,120.56399999999998L307.982,119.59399999999998C307.982,119.59399999999998,308.06,119.49599999999998,307.77700000000004,119.53999999999998S306.689,119.93999999999998,306.689,119.93999999999998L304.87600000000003,121.97099999999999L305.10200000000003,123.106L305.235,123.597L305.725,124.967L305.90900000000005,126.077C305.90900000000005,126.077,306.14300000000003,126.56099999999999,305.862,126.624S305.06100000000004,126.131,305.06100000000004,126.131L304.13700000000006,125.585L303.02600000000007,124.589C303.02600000000007,124.589,302.45000000000005,124.257,302.20900000000006,124.482S301.65900000000005,125.108,301.65900000000005,125.108S300.177,125.211,299.86100000000005,125.114C299.5450000000001,125.01700000000001,299.08400000000006,124.75,299.08400000000006,124.75S298.89000000000004,124.245,298.69000000000005,124.233C298.49000000000007,124.221,297.65700000000004,124.02300000000001,297.65700000000004,124.02300000000001S296.61,125.17800000000001,296.29300000000006,125.15400000000001C295.97600000000006,125.13000000000001,295.65700000000004,124.879,295.65700000000004,124.879L295.446,124.53200000000001L294.50800000000004,123.174L292.58500000000004,123.12700000000001L292.54,121.67500000000001L292.867,120.50500000000001L291.88300000000004,118.209L290.99300000000005,117.834L290.76500000000004,117.027L290.845,116.353L291.196,115.491L291.44100000000003,114.727L291.509,114.036L290.019,112.649C290.019,112.649,289.79200000000003,112.553,289.677,112.795C289.562,113.037,289.45000000000005,113.49,289.45000000000005,113.49L289.35800000000006,114.657L287.08200000000005,112.27799999999999L286.17100000000005,111.41999999999999L285.696,110.05899999999998L286.49100000000004,108.53799999999998V108.17299999999999L285.60200000000003,106.59199999999998L284.805,104.62499999999999L285.363,104.14899999999999L285.604,103.98199999999999L285.171,102.88899999999998L285.169,102.18799999999999L285.914,101.14299999999999L286.81,99.62499999999999L286.737,98.80599999999998L285.8,98.08499999999998L284.13800000000003,97.50099999999998L283.52700000000004,97.18999999999997L283.285,94.70299999999997L284.867,94.48799999999997L284.91,92.35999999999997L284.973,89.99899999999997L285.317,88.49099999999997L286.65500000000003,87.25099999999998L286.91,86.15499999999997C286.91,86.15499999999997,287.983,85.90299999999998,288.53000000000003,86.15499999999997C289.07700000000006,86.40699999999997,289.22900000000004,87.01899999999998,289.37600000000003,87.30899999999997S291.62300000000005,86.82799999999997,291.62300000000005,86.82799999999997S292.81000000000006,86.09499999999997,294.153,86.69499999999998C295.49600000000004,87.29499999999997,296.091,87.40699999999998,296.091,87.40699999999998L297.95,87.50099999999998L299.275,85.77399999999997C299.275,85.77399999999997,299.789,85.71899999999997,300.066,86.15999999999997C300.34299999999996,86.60099999999997,300.828,87.68899999999996,300.828,87.68899999999996L301.06,88.17899999999996L302.255,89.86499999999995L304.433,91.88199999999995L305.167,93.32999999999994L306.98299999999995,93.87099999999994L308.08699999999993,95.09299999999993L309.11799999999994,97.31499999999993H312.52399999999994L315.18699999999995,95.61399999999993L317.412,94.38499999999993L319.86699999999996,93.58099999999993L321.61199999999997,92.87299999999993L323.20199999999994,91.88199999999993L325.29499999999996,91.42999999999994L325.82699999999994,92.91899999999994L328.7439999999999,96.21099999999994L332.57699999999994,100.62799999999994L334.53499999999997,101.66999999999994L335.36899999999997,103.25299999999994L337.15999999999997,105.12799999999994L338.021,106.21Z"
    stroke-width="1"
    stroke-linejoin="round"
    style="-webkit-tap-highlight-color: rgba(0, 0, 0, 0); stroke-linejoin: round;"></path>
</svg>
