<svg height="420" version="1.1" width="540" xmlns="http://www.w3.org/2000/svg" xmlns:xlink="http://www.w3.org/1999/xlink" style="overflow: hidden; position: relative; top: 0.8px;">
  <desc style="-webkit-tap-highlight-color: rgba(0, 0, 0, 0);">Created with Raphaël 2.2.0</desc>
  <defs style="-webkit-tap-highlight-color: rgba(0, 0, 0, 0);"></defs>
  <path
    fill="#cccccc"
    stroke="#222222"
    d="M237.604,137.394C237.604,137.394,241.19400000000002,138.898,242.043,139.92600000000002S243.395,141.73600000000002,243.395,141.73600000000002V144.14900000000003L245.07500000000002,145.31600000000003L244.60000000000002,147.07000000000002C244.60000000000002,147.07000000000002,244.88200000000003,147.42600000000002,245.42600000000002,147.59300000000002S246.806,148.22000000000003,247.197,148.556S247.707,149.87800000000001,247.707,149.87800000000001L247.50199999999998,151.084L249.481,152.851C249.481,152.851,249.738,153.436,249.328,154.465S247.17000000000002,159.584,247.17000000000002,159.584S246.75000000000003,161.13400000000001,247.64100000000002,161.576S249.086,162.167,249.086,162.167L251.375,159.75H254.098C254.098,159.75,257.639,159.012,259.276,157.756S262.339,155.514,262.743,155.379S265.43399999999997,155.356,267.041,155.63S269.719,156.614,270.743,155.914S272.843,154.164,272.843,154.164S273.603,153.05399999999997,275.421,153.819S278.72499999999997,154.898,279.441,153.47699999999998S280.351,151.60199999999998,280.351,151.60199999999998S280.051,154.65499999999997,280.351,155.86299999999997S282.515,163.51699999999997,283.539,164.81999999999996S284.286,170.21499999999997,284.269,171.50299999999996S284.31600000000003,175.13199999999995,284.31600000000003,175.13199999999995S281.744,181.34699999999995,281.194,182.59399999999994S279.69300000000004,185.96499999999995,279.69300000000004,185.96499999999995L276.11800000000005,184.66699999999994C276.11800000000005,184.66699999999994,273.94900000000007,186.51899999999995,272.39500000000004,187.41999999999996S269.15400000000005,188.54799999999994,268.71900000000005,189.61599999999996S268.0690000000001,191.05999999999995,268.9320000000001,192.11599999999996S270.13900000000007,192.96299999999997,269.9530000000001,193.73399999999995S269.2990000000001,195.40099999999995,269.0450000000001,195.50499999999994S267.6170000000001,195.10899999999995,267.18300000000005,194.56399999999994S265.44500000000005,192.17399999999995,264.86000000000007,192.16899999999993S264.04600000000005,191.54599999999994,262.19700000000006,191.54399999999993S259.04100000000005,191.9279999999999,259.04100000000005,191.9279999999999L257.13400000000007,191.54799999999992L255.61700000000008,189.8979999999999L253.90300000000008,189.38299999999992C253.90300000000008,189.38299999999992,253.00800000000007,189.7849999999999,252.8400000000001,190.33399999999992S251.8370000000001,192.44199999999992,252.1570000000001,193.4989999999999S253.3720000000001,194.8499999999999,253.5540000000001,197.2579999999999S253.21200000000007,199.82699999999988,252.43800000000007,200.9919999999999S250.31100000000006,202.8079999999999,250.73800000000008,204.0629999999999S252.68900000000008,207.2539999999999,252.68900000000008,207.2539999999999S252.59900000000007,209.6329999999999,252.52600000000007,210.6629999999999S252.86200000000008,213.2329999999999,253.05000000000007,213.8309999999999S252.06900000000007,216.5909999999999,252.11000000000007,217.1339999999999S255.61500000000007,221.2729999999999,255.61500000000007,221.2729999999999L256.35100000000006,222.7529999999999L256.44500000000005,228.3589999999999L257.25000000000006,229.1089999999999C257.25000000000006,229.1089999999999,255.61300000000006,232.52299999999988,256.19200000000006,233.8719999999999S258.9770000000001,237.5639999999999,258.9770000000001,238.4369999999999S257.61500000000007,239.8939999999999,257.3350000000001,240.5929999999999S252.8970000000001,241.9689999999999,252.8970000000001,241.9689999999999L252.0890000000001,246.7709999999999L248.1590000000001,249.8979999999999L226.1120000000001,232.20299999999992C226.1120000000001,232.20299999999992,223.9080000000001,231.86599999999993,221.16200000000012,231.6009999999999S216.53800000000012,230.8539999999999,215.1590000000001,229.51799999999992S211.53100000000012,225.5999999999999,211.53100000000012,225.5999999999999L211.27600000000012,222.1229999999999L210.37000000000012,218.6499999999999L210.19300000000013,216.48199999999989L211.3810000000001,215.5559999999999C211.3810000000001,215.5559999999999,212.95300000000012,215.5569999999999,214.6120000000001,213.5479999999999S219.5020000000001,204.3779999999999,219.5020000000001,204.3779999999999S220.8120000000001,202.1949999999999,222.2960000000001,201.0599999999999S227.1000000000001,198.26599999999988,228.6710000000001,195.55799999999988S230.5920000000001,192.2389999999999,230.5920000000001,192.2389999999999L232.5130000000001,191.62899999999988C232.5130000000001,191.62899999999988,234.6580000000001,190.49199999999988,234.80800000000008,189.96899999999988S234.00300000000007,188.8939999999999,234.00300000000007,188.8939999999999L233.11400000000006,189.03999999999988L233.64800000000005,187.49799999999988C233.64800000000005,187.49799999999988,234.04500000000004,187.34999999999988,234.80700000000004,186.56299999999987S235.23700000000005,185.90999999999988,235.05300000000005,184.66399999999987S234.44500000000005,183.50699999999986,234.44500000000005,183.50699999999986L235.19100000000006,178.17399999999986C235.19100000000006,178.17399999999986,232.49900000000005,174.98999999999987,232.87400000000005,172.59099999999987S235.75800000000004,161.99599999999987,235.95400000000006,160.45899999999986S236.11500000000007,156.59199999999987,235.19800000000006,154.52099999999987S232.99400000000006,149.70999999999987,232.99400000000006,149.70999999999987L235.21900000000005,145.25499999999985C235.21900000000005,145.25499999999985,234.60800000000006,141.58499999999987,235.67100000000005,139.76099999999985S237.604,137.394,237.604,137.394Z"
    stroke-width="1"
    stroke-linejoin="round"
    style="-webkit-tap-highlight-color: rgba(0, 0, 0, 0); stroke-linejoin: round;"></path>
  <path
    fill="#cccccc"
    stroke="#222222"
    d="M312.73,210.815C312.73,210.815,313.348,215.576,312.73,216.99699999999999S310.999,219.593,310.999,219.593V222.74499999999998C310.999,222.74499999999998,308.218,224.78499999999997,308.46500000000003,226.021S309.20700000000005,228,309.20700000000005,228V230.597L313.00500000000005,235.17100000000002L314.0280000000001,236.34600000000003L317.7990000000001,236.65600000000003L319.7780000000001,235.04900000000004C319.7780000000001,235.04900000000004,324.35100000000006,235.60600000000002,326.57700000000006,236.65600000000003S334.86000000000007,241.60100000000003,334.92300000000006,244.32100000000003S334.92300000000006,247.90700000000004,334.92300000000006,247.90700000000004L331.3380000000001,250.07000000000005C331.3380000000001,250.07000000000005,329.79300000000006,250.25600000000006,330.41100000000006,251.92400000000006S333.19300000000004,256.0690000000001,332.9460000000001,257.36600000000004S331.40100000000007,258.66300000000007,331.4630000000001,260.39400000000006S330.7820000000001,265.21700000000004,330.7820000000001,265.40200000000004S324.9100000000001,271.27500000000003,323.6120000000001,272.88100000000003S320.4580000000001,275.108,321.1380000000001,277.086S321.7000000000001,280.502,321.7000000000001,280.502L314.7490000000001,280.719L314.34600000000006,278.243L293.7920000000001,277.89799999999997L292.6420000000001,271.33299999999997L280.0130000000001,271.00399999999996C280.0130000000001,271.00399999999996,283.0270000000001,269.061,284.4080000000001,265.98099999999994S287.11500000000007,257.2289999999999,287.11500000000007,257.2289999999999L292.27000000000004,256.8719999999999C292.27000000000004,256.8719999999999,294.189,257.6099999999999,294.86400000000003,257.1769999999999S296.28600000000006,257.5939999999999,295.867,255.8479999999999S293.685,250.8529999999999,293.581,250.5609999999999S292.72900000000004,249.4489999999999,294.32300000000004,248.33199999999988S298.05400000000003,246.00499999999988,298.05400000000003,246.00499999999988S299.004,245.7509999999999,299.25300000000004,244.63599999999988S296.67800000000005,239.8869999999999,296.12100000000004,237.9229999999999S294.32800000000003,231.0319999999999,293.87000000000006,229.78999999999988S292.52400000000006,224.81099999999986,292.88700000000006,222.31199999999987S293.62700000000007,217.36399999999986,293.62700000000007,217.36399999999986S293.50200000000007,213.41099999999986,291.3160000000001,213.83199999999985S282.5640000000001,218.71299999999985,282.5640000000001,218.71299999999985S278.7460000000001,219.60299999999984,277.38000000000005,218.54499999999985S274.40200000000004,215.78999999999985,274.40200000000004,215.78999999999985S273.39000000000004,214.42799999999986,273.37500000000006,216.33699999999985S273.50200000000007,224.23999999999984,273.50200000000007,224.23999999999984L272.6210000000001,226.88599999999983C272.6210000000001,226.88599999999983,269.9550000000001,227.10099999999983,268.6360000000001,227.86799999999982S264.79800000000006,230.65999999999983,263.9190000000001,230.94699999999983S261.2720000000001,231.13099999999983,260.05000000000007,230.56499999999983S256.4840000000001,228.83699999999982,256.4840000000001,228.83699999999982S256.0460000000001,224.16499999999982,256.3490000000001,222.75299999999982S252.3510000000001,218.92099999999982,252.14900000000011,217.67699999999982S252.48400000000012,216.36599999999981,253.0890000000001,215.12199999999982S252.31700000000012,213.5419999999998,252.4500000000001,211.6929999999998S252.7190000000001,207.86099999999982,252.7190000000001,207.86099999999982S250.8370000000001,205.27199999999982,250.7360000000001,204.0619999999998S253.8610000000001,200.12899999999982,253.5920000000001,197.54099999999983S251.8110000000001,194.64999999999984,252.2140000000001,192.69999999999982S253.1540000000001,189.43899999999982,253.1540000000001,189.43899999999982S255.0710000000001,189.1029999999998,255.71000000000012,190.00999999999982S257.66000000000014,192.49699999999982,259.0380000000001,191.92599999999982S262.06400000000014,191.2209999999998,262.97200000000015,191.89299999999983S265.25800000000015,191.62299999999982,265.9300000000002,192.79999999999984S267.61100000000016,195.05299999999983,267.61100000000016,195.05299999999983S268.65400000000017,196.26299999999983,269.39300000000014,195.15399999999983S270.2330000000001,193.40499999999983,269.12300000000016,192.3299999999998S267.71200000000016,189.7759999999998,269.9970000000002,188.7329999999998C272.2820000000002,187.6909999999998,274.23100000000017,186.1439999999998,274.5680000000002,185.8409999999998S276.11500000000024,184.66499999999982,276.11500000000024,184.66499999999982L279.6900000000002,185.96299999999982L275.45900000000023,199.15299999999982C275.45900000000023,199.15299999999982,274.80900000000025,201.1389999999998,275.70600000000024,201.96999999999983S277.30900000000025,203.20299999999983,277.30900000000025,203.20299999999983S278.63900000000024,203.55599999999984,278.88200000000023,202.44499999999982S279.36700000000025,199.97899999999981,279.9240000000002,199.9669999999998S283.1170000000002,200.70799999999983,283.1170000000002,200.70799999999983L286.1090000000002,204.21599999999984L288.5620000000002,207.57199999999983L289.11800000000017,208.72499999999982L290.99600000000015,207.1269999999998L291.67400000000015,206.11799999999982C291.67400000000015,206.11799999999982,292.60400000000016,205.43299999999982,292.84200000000016,205.91199999999984S293.59700000000015,207.43199999999985,293.59700000000015,207.43199999999985L294.46200000000016,212.36199999999985L296.6850000000002,210.44699999999986C296.6850000000002,210.44699999999986,297.3500000000002,209.95099999999985,298.09000000000015,210.02899999999985S299.59400000000016,210.24099999999984,299.59400000000016,210.24099999999984L302.52400000000017,208.74299999999985L307.4200000000002,205.89699999999985L308.9670000000002,204.99799999999985L311.7100000000002,209.12099999999984L312.73,210.815Z"
    stroke-width="1"
    stroke-linejoin="round"
    style="-webkit-tap-highlight-color: rgba(0, 0, 0, 0); stroke-linejoin: round;"></path>
  <path
    fill="#cccccc"
    stroke="#222222"
    d="M245.074,121.457C245.074,121.457,248.92000000000002,121.134,247.675,122.606S244.61800000000002,129.965,246.656,131.21099999999998S254.01500000000001,132.57,257.41200000000003,133.702S265.67900000000003,138.684,266.01700000000005,139.25S270.65900000000005,142.646,270.65900000000005,142.646L275.7540000000001,136.07899999999998L280.7360000000001,129.39899999999997C280.7360000000001,129.39899999999997,281.8680000000001,128.26599999999996,283.9060000000001,129.96499999999997S290.2470000000001,133.13499999999996,290.2470000000001,133.13499999999996L292.39800000000014,136.30499999999995L294.43600000000015,136.75799999999995L296.36100000000016,139.02299999999994C296.36100000000016,139.02299999999994,297.26700000000017,139.36199999999994,297.94600000000014,136.75799999999995L298.2590000000001,134.81599999999995L302.7500000000001,136.66699999999994C302.7500000000001,136.66699999999994,303.74900000000014,136.58399999999995,303.9160000000001,138.16699999999994S302.5000000000001,142.33399999999995,302.5830000000001,143.58399999999995S303.3330000000001,148.16699999999994,305.0830000000001,148.16699999999994S309.4160000000001,148.16699999999994,309.4160000000001,148.16699999999994S310.6660000000001,147.58399999999995,311.5830000000001,149.33399999999995S314.5820000000001,150.91699999999994,316.4160000000001,151.16699999999994S321.2500000000001,151.33399999999995,324.0000000000001,152.33399999999995S328.1660000000001,153.91699999999994,328.1660000000001,153.91699999999994S328.8320000000001,155.66699999999994,328.1660000000001,156.24999999999994S327.4160000000001,156.99999999999994,328.0830000000001,157.74999999999994S329.3330000000001,158.83299999999994,329.3330000000001,158.83299999999994V160.41599999999994L327.00000000000006,164.33299999999994L323.16700000000003,165.58299999999994L323.41700000000003,169.99999999999994C323.41700000000003,169.99999999999994,322.50100000000003,173.58299999999994,320.41700000000003,172.33299999999994S316.66700000000003,169.58299999999994,316.66700000000003,169.58299999999994S313.41700000000003,168.99999999999994,312.91700000000003,170.08299999999994S313.00000000000006,173.91599999999994,313.00000000000006,173.91599999999994S313.3330000000001,175.99899999999994,312.3330000000001,177.24899999999994S311.75000000000006,179.91599999999994,312.00000000000006,180.83199999999994S311.66600000000005,184.08199999999994,310.66600000000005,185.08199999999994S307.00000000000006,187.41499999999994,305.833,189.74899999999994S303.41700000000003,194.66499999999994,303.75,195.83199999999994S308.916,204.41599999999994,308.916,204.41599999999994L308.965,205.00099999999995L299.849,210.29999999999995C299.849,210.29999999999995,297.20099999999996,209.67099999999996,296.796,210.29999999999995S294.461,212.36499999999995,294.461,212.36499999999995L293.563,207.24599999999995C293.563,207.24599999999995,292.486,204.64199999999994,291.453,206.43799999999996S289.118,208.72799999999995,289.118,208.72799999999995S288.264,206.52699999999996,286.334,204.46099999999996S283.28000000000003,200.77899999999997,283.28000000000003,200.77899999999997S279.82300000000004,199.25199999999998,279.374,200.32999999999996S279.15000000000003,204.10199999999995,277.309,203.20399999999995S274.704,200.95899999999995,275.557,198.89299999999994S279.509,186.36399999999995,279.509,186.36399999999995S283.084,178.49799999999993,283.834,176.16399999999996S284.168,167.74699999999996,284.001,166.24699999999996S282.917,164.41399999999996,281.334,159.41399999999996S279.918,152.83099999999996,279.918,152.83099999999996S278.91700000000003,154.91399999999996,276.334,154.08099999999996S273.251,153.66399999999996,272.251,154.74799999999996S270.16799999999995,156.16499999999996,270.16799999999995,156.16499999999996S266.33399999999995,155.49799999999996,264.251,155.16499999999996S260.167,157.41499999999996,258.584,158.16499999999996S254.334,159.74799999999996,254.334,159.74799999999996H251.074L249.084,162.16499999999996C249.084,162.16499999999996,246.168,161.66499999999996,247.168,159.58199999999997S249.834,153.16499999999996,249.834,153.16499999999996L247.501,151.08199999999997L247.834,149.12399999999997C247.834,149.12399999999997,246.147,147.41599999999997,245.074,147.58199999999997S245.074,144.99899999999997,245.074,144.99899999999997L243.584,144.58199999999997V142.08199999999997C243.584,142.08199999999997,242.335,139.49899999999997,240.168,138.58199999999997S237.27,137.20499999999996,237.27,137.20499999999996L238.288,135.02899999999997V130.53899999999996C238.288,130.53899999999996,236.071,128.45299999999995,237.244,127.51099999999995S240.106,126.03399999999995,240.106,126.03399999999995L241.942,125.83999999999995L245.074,121.457Z"
    stroke-width="1"
    stroke-linejoin="round"
    style="-webkit-tap-highlight-color: rgba(0, 0, 0, 0); stroke-linejoin: round;"></path>
  <path
    fill="#cccccc"
    stroke="#222222"
    d="M129.88,74.972L133.09,72.19C133.09,72.19,133.946,69.515,134.695,68.65899999999999S138.012,66.83999999999999,138.012,66.83999999999999V62.98699999999999C138.012,62.98699999999999,138.761,61.060999999999986,140.152,61.80999999999999S142.18499999999997,61.636999999999986,142.18499999999997,61.636999999999986V62.02399999999999L147.10799999999998,55.067999999999984C147.10799999999998,55.067999999999984,148.28499999999997,52.82199999999998,145.93099999999998,49.61099999999998S142.18499999999997,44.902999999999984,142.18499999999997,44.902999999999984S140.79299999999998,42.335999999999984,142.71899999999997,41.80099999999999S147.40199999999996,40.40999999999999,147.40199999999996,40.40999999999999L147.96299999999997,37.19999999999999L153.63399999999996,36.557999999999986H155.77399999999994L156.84399999999994,35.27399999999999L165.93999999999994,42.442999999999984L174.07299999999995,49.39899999999999H184.45299999999995C184.45299999999995,49.39899999999999,185.20199999999994,66.09199999999998,185.30899999999994,67.48299999999999S187.44799999999995,68.874,187.44799999999995,68.874V73.689L188.51799999999994,74.43799999999999L189.58799999999994,74.33099999999999L190.01599999999993,77.54099999999998L188.30399999999995,80.42999999999998C188.30399999999995,80.42999999999998,186.48499999999996,80.00199999999998,186.69899999999996,80.96499999999997S186.91299999999995,81.92799999999997,186.91299999999995,81.92799999999997S186.48599999999996,83.10199999999998,185.73699999999997,83.95799999999997S183.06199999999995,85.24199999999998,183.70399999999998,86.52599999999997S185.30899999999997,89.52199999999996,185.30899999999997,89.52199999999996H186.27199999999996L186.37899999999996,91.44799999999996L187.87699999999995,95.40699999999997L188.19799999999995,96.79799999999997C188.19799999999995,96.79799999999997,187.12799999999996,97.33299999999997,185.73699999999994,98.40299999999998S181.67099999999994,101.50699999999998,181.67099999999994,101.50699999999998L177.71199999999993,90.27099999999997L177.28399999999993,89.52199999999998L168.82999999999993,89.62899999999998C168.82999999999993,89.62899999999998,166.36899999999991,87.38199999999998,166.15499999999992,90.16399999999997S165.83399999999992,95.30099999999997,165.83399999999992,95.30099999999997L162.5169999999999,103.64799999999997H161.12599999999992C161.12599999999992,103.64799999999997,162.1959999999999,108.14199999999997,160.69799999999992,107.28499999999997S154.59799999999993,103.64599999999997,154.59799999999993,103.64599999999997S153.74199999999993,104.39599999999997,154.16999999999993,105.35799999999998S149.35499999999993,103.85999999999997,149.35499999999993,103.85999999999997L149.46199999999993,90.80499999999998C149.46199999999993,90.80499999999998,145.82299999999992,86.63199999999998,144.32499999999993,85.24099999999999S137.68999999999994,78.49899999999998,137.36899999999994,78.07099999999998S132.23299999999995,75.39599999999999,132.23299999999995,75.39599999999999L129.88,74.972Z"
    stroke-width="1"
    stroke-linejoin="round"
    style="-webkit-tap-highlight-color: rgba(0, 0, 0, 0); stroke-linejoin: round;"></path>
  <path
    fill="#cccccc"
    stroke="#222222"
    d="M156.845,35.274L165.941,42.443L174.074,49.399H184.454C184.454,49.399,185.203,66.092,185.31,67.483S187.449,68.87400000000001,187.449,68.87400000000001V73.68900000000001L188.519,74.438L189.589,74.331L190.017,77.541L188.305,80.42999999999999C188.305,80.42999999999999,186.48600000000002,80.002,186.70000000000002,80.96499999999999S186.91400000000002,81.92799999999998,186.91400000000002,81.92799999999998S186.48700000000002,83.10199999999999,185.73800000000003,83.95799999999998S183.06300000000002,85.24199999999999,183.70500000000004,86.52599999999998S185.31000000000003,89.52199999999998,185.31000000000003,89.52199999999998H186.27300000000002C186.27300000000002,89.52199999999998,188.73300000000003,87.10399999999997,190.01800000000003,88.56599999999997S192.13900000000004,90.23699999999998,192.13900000000004,90.23699999999998H197.67300000000003C197.67300000000003,90.23699999999998,204.56400000000002,93.78699999999998,205.39900000000003,94.51799999999999S209.78400000000002,94.72599999999998,210.41100000000003,96.18799999999999S211.03700000000003,97.64999999999999,211.03700000000003,97.64999999999999L212.49900000000002,96.919C212.49900000000002,96.919,212.91600000000003,95.98,213.229,97.64999999999999S213.229,101.30399999999999,213.229,101.30399999999999S214.691,102.66099999999999,214.58700000000002,104.54099999999998S216.989,107.35999999999999,216.675,110.07499999999999S214.79600000000002,114.04299999999999,214.9,115.713S215.00400000000002,118.636,215.00400000000002,118.636L222.73100000000002,123.22999999999999C222.73100000000002,123.22999999999999,225.13200000000003,124.06499999999998,224.19200000000004,125.83999999999999S220.74700000000004,131.06,221.26900000000003,133.566S221.89500000000004,137.22,221.89500000000004,137.22L223.25200000000004,138.577L228.89000000000004,142.127C228.89000000000004,142.127,232.43900000000005,145.05100000000002,232.85700000000006,146.721S233.27500000000006,149.122,233.27500000000006,149.122S234.52900000000005,146.82500000000002,235.05000000000007,146.09400000000002S234.73700000000008,144.11,235.05000000000007,141.70900000000003S237.76400000000007,136.59300000000002,237.76400000000007,136.59300000000002L238.28600000000006,135.02700000000002V130.537C238.28600000000006,130.537,236.09400000000005,129.18,237.24200000000005,127.509S241.94000000000005,125.839,241.94000000000005,125.839L245.07300000000006,121.453L246.84700000000007,118.321C246.84700000000007,118.321,246.95100000000008,114.667,246.84700000000007,112.474S247.89100000000008,105.896,247.89100000000008,105.896V101.72L244.02900000000008,102.55499999999999C244.02900000000008,102.55499999999999,242.25300000000007,103.181,241.73100000000008,101.30199999999999S241.10500000000008,95.142,241.10500000000008,95.142L240.47800000000007,91.592L242.87900000000008,88.878L243.61000000000007,86.163L244.55000000000007,85.014C244.55000000000007,85.014,244.86300000000006,83.55199999999999,244.44600000000005,82.821S244.02800000000005,81.36,244.02800000000005,81.36S246.63800000000006,79.899,247.05600000000004,77.706S247.89000000000004,74.991,247.89000000000004,74.991V74.052V72.173C247.89000000000004,72.173,247.99600000000004,69.772,249.77100000000004,69.667S251.02400000000003,66.743,250.91900000000004,63.82S251.07100000000003,61.837,251.07100000000003,61.837S250.18700000000004,62.045,250.08300000000003,56.199000000000005S249.979,50.352000000000004,249.979,50.352000000000004L241.835,50.143L241.52200000000002,44.087C241.52200000000002,44.087,237.96900000000002,40.64,230.24400000000003,41.476000000000006C222.51800000000003,42.31100000000001,216.77600000000004,41.78900000000001,216.77600000000004,41.78900000000001L215.52300000000005,43.04200000000001C215.52300000000005,43.04200000000001,204.66500000000005,44.39900000000001,202.78500000000005,43.87700000000001S200.07100000000005,41.05900000000001,200.59300000000005,40.11900000000001S201.42800000000005,37.50900000000001,201.42800000000005,37.50900000000001S203.82900000000006,36.361000000000004,201.95000000000005,33.75000000000001S194.22400000000005,23.309000000000005,194.22400000000005,23.309000000000005L190.98800000000006,17.776000000000003C190.98800000000006,17.776000000000003,190.77900000000005,13.286000000000003,186.08100000000005,16.419000000000004S180.23400000000004,20.804000000000002,180.23400000000004,20.804000000000002L177.83300000000003,21.848000000000003L175.11800000000002,28.635L171.04600000000002,29.157L170.83700000000002,31.245C170.83700000000002,31.245,167.913,32.289,166.556,32.498S165.199,32.707,165.199,32.707S163.842,30.828,163.11100000000002,32.081S162.90200000000002,32.916000000000004,162.90200000000002,32.916000000000004S159.87400000000002,32.185,159.24800000000002,31.976000000000003S158.204,33.646,158.204,33.646L156.845,35.274Z"
    stroke-width="1"
    stroke-linejoin="round"
    style="-webkit-tap-highlight-color: rgba(0, 0, 0, 0); stroke-linejoin: round;"></path>
  <path
    fill="#cccccc"
    stroke="#222222"
    d="M247.893,101.724L244.031,102.559C244.031,102.559,242.255,103.185,241.733,101.306S241.107,95.146,241.107,95.146L240.48,91.596L242.881,88.882L243.612,86.167L244.552,85.018C244.552,85.018,244.86499999999998,83.556,244.44799999999998,82.825S244.02999999999997,81.364,244.02999999999997,81.364S246.64,79.903,247.05799999999996,77.71000000000001S247.89199999999997,74.995,247.89199999999997,74.995V74.05600000000001V72.177C247.89199999999997,72.177,247.99799999999996,69.77600000000001,249.77299999999997,69.671S251.02599999999995,66.747,250.92099999999996,63.824000000000005S251.07299999999995,61.84100000000001,251.07299999999995,61.84100000000001L256.59599999999995,62.36300000000001L259.05099999999993,63.87400000000001C259.05099999999993,63.87400000000001,260.37199999999996,63.37100000000001,260.74999999999994,62.99300000000001S262.26099999999997,62.49000000000001,262.26099999999997,62.49000000000001L264.02399999999994,63.62300000000001L264.8469999999999,64.25200000000001L267.3649999999999,64.56700000000001L270.8269999999999,68.09200000000001L271.7709999999999,67.65200000000002L274.2259999999999,65.32300000000002C274.2259999999999,65.32300000000002,275.67399999999986,62.99400000000002,273.7859999999999,63.560000000000024S271.5829999999999,64.31500000000003,271.5829999999999,64.31500000000003L270.8909999999999,62.74100000000003L271.1419999999999,61.69800000000003L272.0859999999999,61.294000000000025L272.7159999999999,59.97200000000002L276.2409999999999,59.468000000000025L277.2479999999999,58.27200000000003V53.67700000000003C277.2479999999999,53.67700000000003,278.69799999999987,52.544000000000025,279.01299999999986,51.41100000000003S279.76799999999986,49.77400000000003,279.76799999999986,49.77400000000003L285.18199999999985,45.24200000000003C285.18199999999985,45.24200000000003,286.37699999999984,43.03900000000003,287.88799999999986,42.66100000000003S291.98199999999986,38.94700000000003,291.98199999999986,38.94700000000003L295.12899999999985,35.61100000000003C295.12899999999985,35.61100000000003,295.3799999999998,34.54100000000003,296.95399999999984,35.61100000000003S299.09499999999986,37.24800000000003,299.09499999999986,37.24800000000003L302.17999999999984,37.122000000000035L310.4259999999998,36.55600000000003L312.69199999999984,35.80100000000003L317.16199999999986,39.32600000000003C317.16199999999986,39.32600000000003,318.67199999999985,40.64800000000003,318.04299999999984,42.53600000000003S317.91699999999986,43.92100000000003,317.91699999999986,43.92100000000003L316.59599999999983,44.425000000000026L316.28099999999984,47.572000000000024C316.28099999999984,47.572000000000024,312.6299999999998,48.95700000000002,311.87499999999983,51.727000000000025S311.93899999999985,60.288000000000025,311.93899999999985,60.288000000000025S310.04999999999984,62.24000000000002,310.36499999999984,63.184000000000026S311.3729999999998,63.624000000000024,312.7579999999998,64.31700000000002S319.9369999999998,67.59000000000002,321.6359999999998,72.87800000000001S324.0909999999998,83.64200000000001,324.0909999999998,83.64200000000001L324.40399999999977,84.775L318.6129999999998,84.83800000000001C318.6129999999998,84.83800000000001,317.5429999999998,86.60000000000001,314.39499999999975,89.18100000000001S309.92599999999976,91.95100000000001,309.92599999999976,91.95100000000001S308.4779999999998,90.06200000000001,306.96699999999976,87.92200000000001S304.1969999999998,84.83800000000001,304.1969999999998,84.83800000000001S301.9939999999998,87.41900000000001,301.4269999999998,87.85900000000001S297.9609999999998,88.804,295.4439999999998,88.929S288.9609999999998,91.887,288.9609999999998,91.887S284.6789999999998,85.278,283.54599999999976,84.396S278.57299999999975,86.536,278.57299999999975,86.536S270.70299999999975,92.57900000000001,268.37399999999974,94.908S257.79899999999975,103.532,257.79899999999975,103.532S256.1629999999997,107.56099999999999,255.72199999999975,105.232S255.65899999999976,98.875,255.65899999999976,98.875S256.09899999999976,97.238,253.32999999999976,98.812S247.893,101.724,247.893,101.724Z"
    stroke-width="1"
    stroke-linejoin="round"
    style="-webkit-tap-highlight-color: rgba(0, 0, 0, 0); stroke-linejoin: round;"></path>
  <path
    fill="#cccccc"
    stroke="#222222"
    d="M324.09,83.637L324.40299999999996,84.77L318.61199999999997,84.833C318.61199999999997,84.833,317.542,86.595,314.39399999999995,89.176S309.92499999999995,91.946,309.92499999999995,91.946S308.477,90.057,306.96599999999995,87.917S304.19599999999997,84.833,304.19599999999997,84.833S301.993,87.414,301.426,87.854S297.96,88.79899999999999,295.443,88.92399999999999S288.96,91.88199999999999,288.96,91.88199999999999S284.678,85.273,283.54499999999996,84.39099999999999S278.57199999999995,86.53099999999999,278.57199999999995,86.53099999999999S270.70199999999994,92.574,268.37299999999993,94.90299999999999S257.79799999999994,103.52699999999999,257.79799999999994,103.52699999999999S256.1619999999999,107.55599999999998,255.72099999999995,105.22699999999999S255.65799999999996,98.86999999999999,255.65799999999996,98.86999999999999S256.09799999999996,97.23299999999999,253.32899999999995,98.80699999999999S247.89299999999994,101.72299999999998,247.89299999999994,101.72299999999998S247.89299999999994,104.89099999999999,247.89299999999994,105.39499999999998S246.85399999999996,111.03799999999998,246.87399999999994,113.19799999999998S246.84899999999993,118.32299999999998,246.84899999999993,118.32299999999998L245.07499999999993,121.45499999999998C245.07499999999993,121.45499999999998,248.92099999999994,121.13199999999999,247.67599999999993,122.60399999999998S244.61899999999994,129.963,246.65699999999993,131.20899999999997S254.01599999999993,132.56799999999998,257.4129999999999,133.7S265.6799999999999,138.682,266.0179999999999,139.248S270.6599999999999,142.64399999999998,270.6599999999999,142.64399999999998L275.75499999999994,136.07699999999997L280.73699999999997,129.39699999999996C280.73699999999997,129.39699999999996,281.86899999999997,128.26399999999995,283.907,129.96299999999997S290.248,133.13299999999995,290.248,133.13299999999995L292.399,136.30299999999994L294.437,136.75599999999994L296.362,139.02099999999993C296.362,139.02099999999993,297.26800000000003,139.35999999999993,297.947,136.75599999999994S297.833,133.58599999999996,299.079,132.33999999999995S300.891,130.52799999999993,300.891,130.52799999999993S299.08000000000004,127.24499999999993,299.98600000000005,124.97999999999993S303.94900000000007,124.18699999999993,303.94900000000007,124.18699999999993L313.6860000000001,125.65899999999992L316.5160000000001,126.90499999999992L318.3280000000001,127.35799999999992L319.34800000000007,128.14999999999992L328.74500000000006,127.81099999999992L331.23500000000007,126.90499999999992L332.36800000000005,125.43299999999992V124.86699999999992V123.96099999999991C332.36800000000005,123.96099999999991,336.3310000000001,123.05599999999991,337.2370000000001,121.69699999999992S339.61500000000007,117.73399999999992,339.61500000000007,117.73399999999992V114.33799999999992L342.21900000000005,111.05399999999992C342.21900000000005,111.05399999999992,342.559,105.27999999999992,342.21900000000005,103.80799999999992S340.29400000000004,101.31699999999992,340.29400000000004,101.31699999999992S341.65000000000003,96.44899999999993,339.047,93.50499999999992S336.105,90.10899999999992,334.85900000000004,89.76899999999992S331.34900000000005,88.74999999999991,331.34900000000005,88.74999999999991S331.34800000000007,85.46699999999991,328.40500000000003,84.89999999999992S324.09,83.637,324.09,83.637Z"
    stroke-width="1"
    stroke-linejoin="round"
    style="-webkit-tap-highlight-color: rgba(0, 0, 0, 0); stroke-linejoin: round;"></path>
  <path
    fill="#cccccc"
    stroke="#222222"
    d="M129.88,74.972L132.233,75.398C132.233,75.398,137.048,77.645,137.369,78.073S142.827,83.85199999999999,144.325,85.243S149.462,90.80699999999999,149.462,90.80699999999999L149.355,103.862C149.355,103.862,154.599,106.323,154.17,105.36S154.59799999999998,103.648,154.59799999999998,103.648S159.2,106.42999999999999,160.69799999999998,107.28699999999999S161.12599999999998,103.64999999999999,161.12599999999998,103.64999999999999H162.51699999999997L165.83399999999997,95.303C165.83399999999997,95.303,165.94099999999997,92.949,166.15499999999997,90.166S168.82999999999998,89.631,168.82999999999998,89.631L177.284,89.524L177.712,90.273L181.671,101.509C181.671,101.509,184.346,99.476,185.737,98.405S188.198,96.8,188.198,96.8L187.877,95.40899999999999L186.37900000000002,91.44999999999999L186.27200000000002,89.52399999999999C186.27200000000002,89.52399999999999,188.60000000000002,87.463,189.46500000000003,88.18399999999998S191.17400000000004,90.23899999999999,193.09100000000004,90.23899999999999S197.67100000000005,90.23899999999999,197.67100000000005,90.23899999999999L203.18800000000005,93.17699999999999C203.18800000000005,93.17699999999999,204.80200000000005,94.67099999999999,206.51800000000006,94.89399999999999S210.16400000000004,95.32,210.65500000000006,96.76499999999999S211.03500000000005,97.65199999999999,211.03500000000005,97.65199999999999L212.80000000000004,96.66099999999999C212.80000000000004,96.66099999999999,213.70200000000003,97.17099999999999,213.70200000000003,98.04999999999998S213.32700000000003,100.38199999999998,213.32700000000003,100.38199999999998L213.22700000000003,101.30599999999998C213.22700000000003,101.30599999999998,214.17100000000002,101.28499999999998,214.41000000000003,103.22299999999998S214.99200000000002,105.95199999999998,214.99200000000002,105.95199999999998S216.62400000000002,106.95299999999999,216.60500000000002,108.79799999999999S215.699,113.14099999999999,215.699,113.14099999999999L214.58100000000002,114.666C214.58100000000002,114.666,214.751,118.488,215.00300000000001,118.637S221.191,122.316,221.191,122.316L223.17600000000002,123.435C223.17600000000002,123.435,225.11800000000002,124.236,224.191,125.84100000000001S221.189,131.199,221.228,132.383S221.894,137.221,221.894,137.221L224.442,139.328L228.89000000000001,142.12800000000001L232.06,145.299L232.995,147.305V150.13400000000001C232.995,150.13400000000001,236.231,155.167,236.151,158.92200000000003S231.597,171.78400000000002,233.19500000000002,175.06000000000003S235.19200000000004,178.17600000000004,235.19200000000004,178.17600000000004S234.23400000000004,183.92800000000005,234.47300000000004,184.00800000000004S236.38900000000004,186.08500000000004,234.87100000000004,186.88400000000004S233.11400000000003,189.04100000000005,233.11400000000003,189.04100000000005L229.91800000000003,190.23900000000006H224.64600000000004C224.64600000000004,190.23900000000006,221.21000000000004,190.88000000000005,217.93500000000003,188.40200000000007C214.66000000000003,185.92500000000007,209.62600000000003,181.29100000000008,209.62600000000003,181.29100000000008S207.07000000000002,180.0130000000001,206.83000000000004,180.81200000000007S205.15200000000004,178.81400000000008,205.15200000000004,178.81400000000008L204.99200000000005,177.29600000000008C204.99200000000005,177.29600000000008,203.31400000000005,176.01700000000008,202.83500000000004,177.13600000000008S202.67500000000004,179.05300000000008,202.67500000000004,179.05300000000008S201.31700000000004,179.5320000000001,200.91700000000003,178.7340000000001S198.76000000000002,177.8550000000001,198.76000000000002,177.8550000000001S197.961,178.9740000000001,197.08200000000002,178.5740000000001S196.603,177.4550000000001,196.603,177.4550000000001V175.5380000000001L194.526,175.45800000000008L193.08800000000002,176.17700000000008L192.92800000000003,174.02000000000007C192.92800000000003,174.02000000000007,191.01100000000002,172.58200000000008,191.09100000000004,174.26000000000008S191.09100000000004,176.73700000000008,191.09100000000004,176.73700000000008S188.05500000000004,174.50000000000009,186.85700000000003,176.73700000000008S185.97800000000004,177.9350000000001,185.97800000000004,177.9350000000001L185.17900000000003,181.0510000000001C185.17900000000003,181.0510000000001,182.38300000000004,181.53000000000011,180.86500000000004,183.1280000000001S177.98900000000003,187.4980000000001,177.98900000000003,187.4980000000001L175.91200000000003,189.9190000000001C175.91200000000003,189.9190000000001,179.50800000000004,191.4370000000001,178.46900000000002,192.2350000000001S175.91200000000003,192.6340000000001,175.91200000000003,192.6340000000001L173.67500000000004,193.4330000000001C173.67500000000004,193.4330000000001,170.23900000000003,193.0340000000001,168.64200000000005,194.5510000000001S162.41100000000006,200.7020000000001,162.41100000000006,200.7020000000001S159.45500000000007,199.66300000000012,159.37500000000006,200.7020000000001S159.05600000000007,203.2590000000001,159.05600000000007,203.2590000000001L156.57900000000006,205.4960000000001L155.94100000000006,206.8520000000001L153.70400000000006,207.2510000000001C153.70400000000006,207.2510000000001,151.70600000000007,204.53500000000008,150.82800000000006,204.13600000000008S145.47500000000005,203.0970000000001,145.47500000000005,203.0970000000001L141.48000000000005,199.98200000000008C141.48000000000005,199.98200000000008,139.08400000000006,198.7040000000001,139.32300000000004,199.98200000000008S137.80600000000004,200.9410000000001,137.32600000000002,200.5420000000001S135.96800000000002,200.9410000000001,135.96800000000002,200.9410000000001S132.21300000000002,200.3010000000001,131.574,201.5800000000001S130.417,204.0580000000001,129.877,202.22000000000008S129.17700000000002,195.58900000000008,129.17700000000002,195.58900000000008L130.37500000000003,192.47300000000007C130.37500000000003,192.47300000000007,130.53500000000003,190.71500000000006,128.13800000000003,189.67700000000008S124.94200000000004,185.84300000000007,124.94200000000004,185.84300000000007L123.66400000000003,184.24500000000006L119.91000000000003,184.00700000000006L112.48000000000002,176.97700000000006C112.48000000000002,176.97700000000006,112.24000000000002,173.14200000000005,111.20200000000001,171.70400000000006S106.96800000000002,168.02900000000005,106.96800000000002,168.02900000000005S104.89100000000002,166.99100000000004,106.24900000000002,159.88100000000006S108.96500000000002,149.12400000000005,108.96500000000002,149.12400000000005S107.76600000000002,143.50300000000004,108.64500000000002,142.46500000000006S109.36400000000002,138.95000000000007,109.36400000000002,138.95000000000007S110.96100000000001,136.39400000000006,111.92000000000002,134.63600000000008S113.91800000000002,125.36900000000009,113.91800000000002,125.36900000000009S114.63700000000001,125.13000000000008,113.59800000000003,122.17400000000009S113.67800000000003,115.14400000000009,113.83700000000003,114.10500000000009S114.15600000000003,114.9040000000001,114.15600000000003,109.15200000000009S112.31800000000004,99.96500000000009,112.31800000000004,99.96500000000009L112.95700000000004,93.25400000000009L114.07600000000004,91.97600000000008L117.19200000000004,92.61500000000008C117.19200000000004,92.61500000000008,121.26600000000003,93.49400000000009,123.26300000000003,89.49900000000008S128.53600000000003,77.59500000000008,128.53600000000003,77.59500000000008L129.88,74.972Z"
    stroke-width="1"
    stroke-linejoin="round"
    style="-webkit-tap-highlight-color: rgba(0, 0, 0, 0); stroke-linejoin: round;"></path>
  <path
    fill="#cccccc"
    stroke="#222222"
    d="M155.943,206.855L156.58100000000002,205.499L159.05800000000002,203.262C159.05800000000002,203.262,159.29700000000003,201.744,159.377,200.705S162.413,200.705,162.413,200.705S167.04700000000003,196.07100000000003,168.644,194.554S173.677,193.436,173.677,193.436L175.914,192.637C175.914,192.637,177.432,193.036,178.47099999999998,192.238S175.914,189.922,175.914,189.922L177.99099999999999,187.501C177.99099999999999,187.501,179.349,184.729,180.867,183.131S185.18099999999998,181.054,185.18099999999998,181.054L185.98,177.938C185.98,177.938,185.661,178.97699999999998,186.85899999999998,176.73999999999998S191.093,176.73999999999998,191.093,176.73999999999998S191.173,175.94099999999997,191.093,174.26299999999998S192.92999999999998,174.02299999999997,192.92999999999998,174.02299999999997L193.08999999999997,176.17999999999998L194.52799999999996,175.46099999999998L196.60499999999996,175.541V177.458C196.60499999999996,177.458,196.20599999999996,178.177,197.08399999999997,178.577S198.76199999999997,177.858,198.76199999999997,177.858S200.51899999999998,177.93800000000002,200.91899999999998,178.737S202.677,179.05599999999998,202.677,179.05599999999998S202.357,178.25699999999998,202.837,177.13899999999998S204.994,177.29899999999998,204.994,177.29899999999998L205.154,178.81699999999998C205.154,178.81699999999998,206.59199999999998,181.61299999999997,206.832,180.81499999999997S209.628,181.29399999999998,209.628,181.29399999999998S214.66099999999997,185.928,217.93699999999998,188.40499999999997C221.212,190.88299999999998,224.648,190.24199999999996,224.648,190.24199999999996H229.92L233.11599999999999,189.04399999999995C233.11599999999999,189.04399999999995,235.184,188.44599999999994,234.74999999999997,189.64099999999996S232.85099999999997,191.64999999999995,232.85099999999997,191.64999999999995L230.40899999999996,192.24699999999996C230.40899999999996,192.24699999999996,228.99799999999996,195.39399999999995,226.93499999999997,197.07699999999997S220.69399999999996,202.01599999999996,219.93399999999997,203.37299999999996S217.27499999999998,210.10199999999998,216.18999999999997,211.62099999999995S211.95699999999997,215.74699999999996,210.65399999999997,216.01699999999994S210.81699999999998,220.03199999999993,211.19599999999997,221.71399999999994S211.68399999999997,227.30399999999995,211.24999999999997,227.95499999999993S210.00199999999998,227.95499999999993,210.00199999999998,227.95499999999993S206.474,226.81599999999992,205.44299999999998,227.73799999999991S206.09499999999997,231.04799999999992,205.986,232.1339999999999S205.552,236.0409999999999,205.552,236.0409999999999S207.072,236.2049999999999,206.69199999999998,237.2899999999999S205.17199999999997,241.63099999999991,205.76999999999998,242.6069999999999S207.23499999999999,246.07999999999993,206.14999999999998,246.45999999999992S205.11899999999997,249.4989999999999,205.33599999999998,250.14999999999992S204.956,252.64599999999993,204.468,253.56799999999993S201.48399999999998,255.84599999999992,200.832,257.8539999999999S199.583,261.2179999999999,201.32,261.86999999999995S204.523,264.25899999999996,204.034,266.37499999999994S204.088,273.75399999999996,202.84,275.49099999999993S199.31300000000002,278.91099999999994,196.816,280.05099999999993S193.994,282.05999999999995,194.537,282.6019999999999S196.98000000000002,284.87799999999993,196.274,286.4529999999999S190.956,291.9339999999999,190.956,291.9339999999999L190.46699999999998,295.7329999999999C190.46699999999998,295.7329999999999,186.343,298.8789999999999,185.31199999999998,301.6469999999999S180.754,308.58999999999986,179.777,312.4439999999999S178.04,321.12799999999993,178.04,321.12799999999993H175.48999999999998C175.48999999999998,321.12799999999993,172.66799999999998,319.33599999999996,172.07099999999997,319.66099999999994S168.75999999999996,321.99399999999997,168.75999999999996,321.99399999999997S168.05399999999997,322.10299999999995,167.40299999999996,321.181S166.31799999999996,319.98699999999997,165.88299999999995,320.09499999999997S164.57999999999996,320.20399999999995,164.19999999999996,320.909S163.81999999999996,322.429,163.81999999999996,322.429S163.11399999999998,322.428,162.67999999999998,321.99399999999997S160.61799999999997,321.832,160.61799999999997,321.832S159.09799999999996,321.234,159.58699999999996,320.638S161.48599999999996,319.118,161.48599999999996,319.118S162.62599999999995,318.521,162.13699999999997,317.11S160.45399999999998,313.79900000000004,160.45399999999998,313.79900000000004L158.93399999999997,313.581C158.93399999999997,313.581,158.66299999999998,312.82,160.12799999999996,311.79S165.77299999999997,306.038,165.77299999999997,306.038L164.36199999999997,301.75100000000003C164.36199999999997,301.75100000000003,160.67199999999997,301.75000000000006,160.50899999999996,301.64200000000005S157.36199999999997,300.0690000000001,157.95799999999997,299.03800000000007S161.21399999999997,295.9440000000001,161.21399999999997,295.9440000000001S163.98099999999997,294.9680000000001,166.69499999999996,292.25500000000005S170.38499999999996,288.72700000000003,170.38499999999996,288.72700000000003S176.62699999999995,287.58700000000005,177.87499999999997,285.95900000000006S179.17699999999996,282.32300000000004,179.17699999999996,282.32300000000004L181.23999999999995,281.074C181.23999999999995,281.074,182.27099999999996,279.608,180.80599999999995,279.663S177.33299999999994,278.47,178.85199999999995,277.65500000000003S184.65899999999993,275.86300000000006,184.76799999999994,275.701S186.17899999999995,275.43,186.06999999999994,274.019S183.02999999999994,270.275,182.16199999999995,269.081S180.31599999999995,267.182,180.09899999999996,266.259S178.03699999999995,265.119,178.03699999999995,265.119L178.36299999999994,259.8L179.77399999999994,259.475L179.55699999999993,254.04900000000004L180.85999999999993,252.80100000000004C180.85999999999993,252.80100000000004,179.17699999999994,243.52200000000005,178.85199999999992,240.21100000000004S178.52599999999993,236.90000000000003,178.52599999999993,236.90000000000003L175.37899999999993,236.35700000000003L176.84399999999994,232.01500000000001C176.84399999999994,232.01500000000001,177.38599999999994,229.46400000000003,175.54099999999994,230.87500000000003S170.33099999999993,234.07700000000003,170.33099999999993,234.07700000000003S167.45499999999993,235.65300000000002,166.80299999999994,233.15700000000004S165.82499999999993,227.56800000000004,164.08899999999994,225.72200000000004S162.35199999999995,223.00700000000003,161.42999999999995,222.68200000000004S156.49199999999996,221.92200000000005,155.02599999999995,221.97700000000003S151.87799999999996,219.42600000000004,154.10299999999995,218.01500000000004S159.47699999999995,212.42500000000004,160.39899999999994,211.06900000000005S161.26699999999994,207.27000000000004,159.52999999999994,206.99900000000005S155.943,206.855,155.943,206.855Z"
    stroke-width="1"
    stroke-linejoin="round"
    style="-webkit-tap-highlight-color: rgba(0, 0, 0, 0); stroke-linejoin: round;"></path>
  <path
    fill="#cccccc"
    stroke="#222222"
    d="M178.039,321.125C178.039,321.125,178.79899999999998,316.295,179.77599999999998,312.441S184.279,304.412,185.31099999999998,301.64399999999995S190.46599999999998,295.72999999999996,190.46599999999998,295.72999999999996L190.95499999999998,291.931C190.95499999999998,291.931,195.56799999999998,288.024,196.273,286.45S195.078,283.14099999999996,194.536,282.599S194.319,281.188,196.815,280.048S201.591,277.226,202.839,275.488S203.545,268.488,204.033,266.372S203.05599999999998,262.51800000000003,201.319,261.867S200.179,259.85900000000004,200.831,257.851S203.97799999999998,254.487,204.46699999999998,253.565S205.552,250.798,205.33499999999998,250.147S205.064,246.83599999999998,206.14899999999997,246.457S206.36599999999999,243.581,205.76899999999998,242.60399999999998S206.31099999999998,238.37199999999999,206.69099999999997,237.28699999999998S205.551,236.03799999999998,205.551,236.03799999999998S205.87599999999998,233.21699999999998,205.98499999999999,232.13099999999997S204.41099999999997,228.65699999999998,205.44199999999998,227.73499999999999S210.00099999999998,227.952,210.00099999999998,227.952S210.81499999999997,228.603,211.24899999999997,227.952L211.50699999999998,226.502L213.057,227.36800000000002C213.057,227.36800000000002,215.185,229.979,217.21499999999997,230.94600000000003S223.01699999999997,231.52600000000004,223.01699999999997,231.52600000000004L226.11099999999996,232.20300000000003C226.11099999999996,232.20300000000003,236.16799999999995,239.45600000000002,238.58499999999995,241.97000000000003S248.15799999999996,249.89900000000003,248.15799999999996,249.89900000000003L252.41199999999995,246.51400000000004L252.89499999999995,241.97000000000003L257.05299999999994,241.29300000000003L257.82599999999996,239.35800000000003C257.82599999999996,239.35800000000003,259.46999999999997,239.16500000000002,257.82599999999996,236.74800000000002S255.98899999999998,234.52300000000002,256.27899999999994,232.20300000000003S257.2459999999999,229.10900000000004,257.2459999999999,229.10900000000004S262.0809999999999,232.20300000000003,263.91799999999995,230.94600000000003S268.94599999999997,227.27100000000002,270.78299999999996,227.07800000000003S272.61999999999995,226.88500000000002,272.61999999999995,226.88500000000002L257.14899999999994,246.80400000000003C257.14899999999994,246.80400000000003,254.73199999999994,247.48100000000002,255.02199999999993,251.15500000000003S256.8589999999999,257.247,256.8589999999999,257.247S261.5009999999999,259.56600000000003,261.88699999999994,261.791S263.53099999999995,267.592,263.53099999999995,270.009S265.17499999999995,273.48900000000003,265.36799999999994,274.456S264.98099999999994,276.29400000000004,264.88499999999993,276.584S264.40199999999993,278.421,264.40199999999993,278.421S257.3429999999999,275.617,256.6669999999999,276.004S251.8329999999999,272.329,250.47899999999993,272.619S246.41699999999992,276.004,246.12699999999992,276.39000000000004S243.32299999999992,279.29,243.61299999999991,279.96700000000004S246.4159999999999,283.735,246.4159999999999,283.735S247.5759999999999,284.41200000000003,247.8659999999999,285.185S251.7319999999999,287.89300000000003,252.2169999999999,289.247S252.4099999999999,293.599,251.5399999999999,294.759S252.6039999999999,297.755,253.3779999999999,299.01300000000003S255.4089999999999,302.68800000000005,253.8609999999999,304.52500000000003S249.70299999999992,309.07000000000005,249.70299999999992,309.07000000000005L246.51299999999992,308.97300000000007L242.54799999999992,304.04100000000005L241.9679999999999,304.52400000000006L242.3549999999999,308.48900000000003L231.8149999999999,309.552L230.5579999999999,308.682L217.1179999999999,308.97200000000004C217.1179999999999,308.97200000000004,214.6039999999999,309.16400000000004,216.05499999999992,311.29200000000003S218.08599999999993,313.903,218.2789999999999,315.06300000000005S218.6659999999999,319.607,218.6659999999999,319.607L211.3179999999999,317.478C211.3179999999999,317.478,209.6739999999999,317.671,209.2869999999999,318.735S208.6099999999999,320.66900000000004,208.6099999999999,320.66900000000004L204.4519999999999,318.83200000000005C204.4519999999999,318.83200000000005,204.0649999999999,317.672,204.2589999999999,316.898S202.7119999999999,314.672,202.3249999999999,315.25300000000004S202.0349999999999,317.09100000000007,202.0349999999999,317.09100000000007L199.81099999999992,317.18800000000005L200.00399999999993,314.867L198.74699999999993,315.641C198.74699999999993,315.641,195.07299999999992,312.642,192.26799999999992,315.35S182.11499999999992,320.088,182.11499999999992,320.088L178.039,321.125Z"
    stroke-width="1"
    stroke-linejoin="round"
    style="-webkit-tap-highlight-color: rgba(0, 0, 0, 0); stroke-linejoin: round;"></path>
  <path
    fill="#cccccc"
    stroke="#222222"
    d="M272.621,226.886L257.15,246.805C257.15,246.805,254.73299999999998,247.482,255.02299999999997,251.156S256.85999999999996,257.248,256.85999999999996,257.248S261.50199999999995,259.567,261.888,261.792S263.532,267.59299999999996,263.532,270.01S265.176,273.49,265.36899999999997,274.457S264.98199999999997,276.295,264.88599999999997,276.585S264.40299999999996,278.42199999999997,264.40299999999996,278.42199999999997S257.34399999999994,275.618,256.66799999999995,276.005S251.83399999999995,272.33,250.47999999999996,272.62S246.41799999999995,276.005,246.12799999999996,276.391S243.32399999999996,279.291,243.61399999999995,279.968S246.41699999999994,283.736,246.41699999999994,283.736S247.57699999999994,284.413,247.86699999999993,285.186S251.73299999999995,287.894,252.21799999999993,289.248S252.41099999999994,293.59999999999997,251.54099999999994,294.76S252.60499999999993,297.756,253.37899999999993,299.014S255.40999999999994,302.689,253.86199999999994,304.526S249.70399999999995,309.071,249.70399999999995,309.071L246.51399999999995,308.97400000000005L242.54899999999995,304.04200000000003L241.96899999999994,304.52500000000003L242.35599999999994,308.49L231.81599999999995,309.553L230.55899999999994,308.683L217.11899999999994,308.973C217.11899999999994,308.973,214.60499999999993,309.165,216.05599999999995,311.293S218.08699999999996,313.904,218.27999999999994,315.064S218.66699999999994,319.608,218.66699999999994,319.608L211.31899999999993,317.479C211.31899999999993,317.479,209.67499999999993,317.67199999999997,209.28799999999993,318.736S208.61099999999993,320.67,208.61099999999993,320.67L204.45299999999995,318.833C204.45299999999995,318.833,204.06599999999995,317.673,204.25999999999993,316.899S202.71299999999994,314.673,202.32599999999994,315.254S202.03599999999994,317.09200000000004,202.03599999999994,317.09200000000004L199.81199999999995,317.189L200.00499999999997,314.868L198.74799999999996,315.642C198.74799999999996,315.642,195.07399999999996,312.643,192.26899999999995,315.351S182.11599999999996,320.089,182.11599999999996,320.089L178.03999999999996,321.124C178.03999999999996,321.124,178.38799999999998,332.42400000000004,178.03999999999996,333.92S176.85499999999996,336.55400000000003,175.35899999999995,335.357S170.51199999999994,333.74100000000004,170.51199999999994,333.74100000000004L169.55399999999995,332.72400000000005C169.55399999999995,332.72400000000005,168.23799999999994,330.87000000000006,167.75899999999996,332.48500000000007S166.08299999999997,335.16300000000007,165.06599999999995,335.85800000000006S163.56999999999994,338.34800000000007,163.62999999999994,338.5280000000001S162.49299999999994,340.5030000000001,162.49299999999994,340.5030000000001L193.91799999999995,340.8620000000001L194.80399999999995,341.4000000000001L194.08599999999996,348.3990000000001C194.08599999999996,348.3990000000001,195.10299999999995,348.6380000000001,196.83799999999997,347.92000000000013S201.74499999999998,346.1850000000001,204.13799999999998,347.02300000000014S210.361,348.93800000000016,212.45499999999998,347.86100000000016S220.41299999999998,343.25400000000013,220.41299999999998,343.25400000000013S222.86599999999999,342.05700000000013,225.79799999999997,343.37300000000016S227.47399999999996,344.56800000000015,227.47399999999996,344.56800000000015L229.14899999999997,344.4490000000001L229.80699999999996,345.4060000000001L231.00399999999996,343.6710000000001L233.75599999999997,343.3720000000001C233.75599999999997,343.3720000000001,234.77299999999997,342.47500000000014,235.31199999999998,343.13300000000015S237.047,343.9110000000002,237.885,343.31300000000016S243.57,342.53500000000014,243.57,342.53500000000014S245.125,342.7140000000001,244.766,340.6200000000001S244.706,337.98700000000014,244.706,337.98700000000014S248.117,336.43100000000015,251.887,336.43100000000015S255.657,336.43100000000015,255.657,336.43100000000015L256.375,340.91900000000015C256.375,340.91900000000015,257.633,342.29500000000013,258.649,341.0380000000002S260.503,338.0470000000002,260.503,338.0470000000002L261.281,334.3970000000002L263.494,329.67000000000024C263.494,329.67000000000024,264.45200000000006,327.8750000000002,265.648,328.8320000000002S267.26300000000003,329.37000000000023,267.26300000000003,329.37000000000023S269.23900000000003,327.03600000000023,269.71700000000004,328.77100000000024S270.196,331.3440000000002,270.196,331.3440000000002L271.213,332.8400000000002V336.0710000000002C271.213,336.0710000000002,272.83000000000004,336.3700000000002,273.009,336.6090000000002S274.80400000000003,339.2420000000002,274.80400000000003,339.2420000000002L276.838,339.7210000000002C276.838,339.7210000000002,278.274,339.7200000000002,278.692,341.2760000000002S280.487,349.1740000000002,280.487,349.41400000000016S281.983,350.2520000000002,283.12,350.2520000000002S285.873,351.68800000000016,286.112,353.4230000000002S285.75300000000004,356.53400000000016,285.75300000000004,356.77400000000017S283.12100000000004,357.07300000000015,282.76200000000006,358.33000000000015S282.46200000000005,360.84400000000016,282.46200000000005,360.84400000000016S283.773,362.64000000000016,286.16900000000004,361.20300000000015S292.33500000000004,355.9370000000001,292.33500000000004,355.9370000000001S293.77200000000005,355.75600000000014,294.011,356.53500000000014S295.088,359.0480000000001,295.74600000000004,358.27000000000015S296.105,356.53500000000014,296.105,356.53500000000014L296.172,326.37800000000016L327.75800000000004,327.0360000000002L328.83500000000004,299.09400000000016C328.83500000000004,299.09400000000016,328.29600000000005,296.4610000000002,327.81700000000006,295.3840000000002S328.35600000000005,293.46900000000016,328.1170000000001,292.8110000000002S325.1840000000001,291.1350000000002,325.1840000000001,291.1350000000002L325.2440000000001,287.6040000000002C325.2440000000001,287.6040000000002,325.0060000000001,285.03100000000023,323.6290000000001,283.7140000000002S322.1140000000001,280.4910000000002,322.1140000000001,280.4910000000002L314.7450000000001,280.7200000000002L314.3420000000001,278.2440000000002L293.7880000000001,277.89900000000017L292.86700000000013,271.3360000000002L279.2210000000001,271.2210000000002C279.2210000000001,271.2210000000002,281.6970000000001,271.2210000000002,284.40300000000013,265.9820000000002S287.1100000000001,257.2300000000002,287.1100000000001,257.2300000000002L292.6370000000001,257.1720000000002C292.6370000000001,257.1720000000002,295.7470000000001,257.9780000000002,295.86200000000014,255.84800000000018S292.80900000000014,250.5530000000002,293.44300000000015,249.28600000000017S298.04900000000015,246.00500000000017,298.04900000000015,246.00500000000017S299.54600000000016,245.65900000000016,299.20000000000016,244.22000000000017S297.24200000000013,241.28300000000016,296.43600000000015,238.92300000000017S294.7090000000002,232.53200000000018,294.19100000000014,230.74700000000018S292.29100000000017,226.65700000000018,292.75100000000015,223.2610000000002S293.73000000000013,216.6980000000002,293.73000000000013,216.6980000000002S293.1540000000001,212.8980000000002,290.6780000000001,214.0500000000002S282.5600000000001,218.7140000000002,282.5600000000001,218.7140000000002S278.64600000000013,219.5770000000002,276.8610000000001,218.25300000000018S273.3480000000001,213.53100000000018,273.3480000000001,216.92900000000017S273.52100000000013,224.87400000000017,273.52100000000013,224.87400000000017L272.621,226.886Z"
    stroke-width="1"
    stroke-linejoin="round"
    style="-webkit-tap-highlight-color: rgba(0, 0, 0, 0); stroke-linejoin: round;"></path>
</svg>
