<svg height="420" version="1.1" width="540" xmlns="http://www.w3.org/2000/svg" xmlns:xlink="http://www.w3.org/1999/xlink" style="overflow: hidden; position: relative; top: 0.8px;">
  <desc style="-webkit-tap-highlight-color: rgba(0, 0, 0, 0);">Created with Raphaël 2.2.0</desc>
  <defs style="-webkit-tap-highlight-color: rgba(0, 0, 0, 0);"></defs>
  <path
    fill="#cccccc"
    stroke="#222222"
    d="M16.513,113.729L20.92,113.112C20.92,113.112,22.419,112.759,23.124000000000002,111.966S27.090000000000003,107.911,27.090000000000003,107.911S26.385000000000005,107.294,29.558000000000003,107.382S33.349000000000004,107.373,33.349000000000004,107.373S37.316,102.357,39.784000000000006,101.74000000000001S42.781000000000006,101.21100000000001,42.781000000000006,101.21100000000001L50.184000000000005,92.83800000000001C50.184000000000005,92.83800000000001,55.208000000000006,88.07900000000001,55.649,86.668S56.354,84.81700000000001,55.649,84.46400000000001S54.678000000000004,83.31800000000001,55.031,82.61300000000001S57.498999999999995,79.70400000000001,57.498999999999995,79.70400000000001S60.318999999999996,79.792,61.288999999999994,81.643S61.20099999999999,82.436,61.288999999999994,84.728S60.525999999999996,89.39999999999999,61.70099999999999,90.54599999999999S70.368,92.66099999999999,70.368,92.66099999999999S72.57199999999999,91.69099999999999,71.60199999999999,90.36899999999999S69.83899999999998,86.31499999999998,70.27999999999999,85.52099999999999S71.95499999999998,81.81899999999999,74.51099999999998,82.52399999999999S77.06699999999998,83.22899999999998,77.06699999999998,83.22899999999998L80.50499999999998,78.55699999999999C80.50499999999998,78.55699999999999,81.20999999999998,76.79399999999998,79.44699999999997,77.14699999999999S77.41999999999997,77.94,77.41999999999997,77.94S75.92099999999998,76.88199999999999,76.44999999999997,75.913S79.44699999999997,74.943,79.44699999999997,74.943S79.18299999999998,72.475,78.56599999999997,72.03399999999999S80.64399999999998,67.00999999999999,80.64399999999998,67.00999999999999S89.31999999999998,67.716,92.13999999999997,69.478S96.45899999999997,75.29499999999999,96.45899999999997,75.29499999999999L107.82699999999997,69.38999999999999L116.20099999999996,65.24699999999999C116.20099999999996,65.24699999999999,120.96099999999997,64.62899999999999,122.81199999999997,64.71799999999999S132.15599999999998,67.80299999999998,132.15599999999998,67.80299999999998L139.64799999999997,59.51699999999998L149.34399999999997,47.704999999999984L156.04299999999998,39.68399999999998L166.62099999999998,44.61999999999998L167.50199999999998,47.17599999999998L173.76099999999997,49.90799999999998L177.99199999999996,50.70099999999998L176.08399999999997,53.94099999999998L175.11999999999998,55.49899999999998L175.343,57.50199999999998L173.414,58.39299999999998L176.60399999999998,58.83799999999998L174.452,63.51199999999998L176.678,64.17999999999998L177.197,67.14799999999998C177.197,67.14799999999998,179.943,69.07699999999998,179.943,70.26399999999998S180.31300000000002,74.12199999999999,178.607,74.93799999999999S170.965,75.94699999999999,170.001,76.704S166.366,77.23899999999999,166.143,81.393S165.92,86.141,165.92,86.141S163.695,86.364,163.99099999999999,86.88300000000001S167.107,88.59,167.62599999999998,89.55400000000002S168.44199999999998,94.45100000000002,168.44199999999998,94.45100000000002L172.44799999999998,93.70900000000002C172.44799999999998,93.70900000000002,168.665,95.34200000000001,168.962,96.67700000000002S170.37099999999998,98.90300000000002,169.333,99.64500000000002S166.069,99.94100000000003,165.846,101.64800000000002S166.81,104.98600000000002,167.181,106.10000000000002S167.107,108.54900000000002,167.107,108.54900000000002S165.4,108.47500000000002,165.475,108.92000000000002S166.736,111.14500000000001,167.033,111.66400000000002S165.624,112.81800000000001,164.73299999999998,113.72500000000002S162.72999999999996,114.78000000000003,163.61999999999998,115.96700000000003S165.623,118.04500000000003,165.623,118.04500000000003S166.142,119.45400000000004,165.623,119.82500000000003S163.249,119.00900000000003,163.249,119.00900000000003S163.397,117.45100000000002,161.24599999999998,118.11900000000003S156.94199999999998,117.82200000000003,156.349,118.78600000000003S156.49699999999999,121.45700000000004,156.49699999999999,121.45700000000004L155.533,122.49600000000004L156.72,127.54100000000004L157.536,132.43700000000004C157.536,132.43700000000004,154.939,134.06900000000005,155.014,134.36600000000004S157.388,140.89500000000004,158.204,141.71100000000004S159.317,142.60100000000003,159.317,142.60100000000003L159.54000000000002,147.35000000000002L161.46900000000002,150.17000000000002L161.098,156.25300000000001H159.466L158.947,162.411C158.947,162.411,163.695,163.153,164.28900000000002,162.411S165.699,164.191,165.699,164.191L166.312,165.357C166.312,165.357,162.973,164.476,162.556,165.357S161.768,167.907,161.768,167.907S157.131,166.51600000000002,154.997,166.93300000000002S145.769,169.76200000000003,145.769,169.76200000000003S145.675,167.30500000000004,144.144,168.00000000000003S142.70600000000002,170.27200000000002,142.75300000000001,170.68900000000002S134.68400000000003,172.40500000000003,134.68400000000003,172.40500000000003S135.05400000000003,179.31600000000003,134.91500000000002,179.45500000000004S134.776,181.21700000000004,132.92100000000002,180.15000000000003S127.95900000000002,176.90400000000002,127.95900000000002,176.90400000000002S125.54600000000002,180.75400000000002,125.40700000000001,180.75400000000002S121.83700000000002,180.05800000000002,121.83700000000002,180.05800000000002L117.61700000000002,183.58200000000002C117.61700000000002,183.58200000000002,115.38800000000002,181.91200000000003,114.09000000000002,181.449S110.75100000000002,181.40300000000002,110.75100000000002,181.40300000000002L110.00900000000001,179.87300000000002L100.549,180.56900000000002L96.19000000000001,179.64100000000002L93.31500000000001,177.925L88.58500000000001,173.984L88.307,172.59300000000002V165.544C88.307,165.544,86.22,160.99900000000002,85.524,160.442S81.675,153.25400000000002,81.119,152.698S75.6,145.23000000000002,73.56,144.535S64.748,142.216,63.589,141.798S58.163,135.676,56.586999999999996,134.981S47.45099999999999,130.945,46.337999999999994,129.50799999999998S38.361999999999995,127.65299999999998,36.27499999999999,127.83899999999998S32.65699999999999,129.32299999999998,30.940999999999992,128.534S27.23099999999999,126.957,25.79399999999999,126.586S22.26999999999999,126.447,22.26999999999999,126.447L18.977999999999987,121.485L17.447999999999986,118.888L15.824999999999987,115.271L16.513,113.729Z"
    stroke-width="1"
    stroke-linejoin="round"
    style="-webkit-tap-highlight-color: rgba(0, 0, 0, 0); stroke-linejoin: round;"></path>
  <path
    fill="#cccccc"
    stroke="#222222"
    d="M178.305,51.059C178.305,51.059,185.328,55.896,186.65300000000002,56.89S194.33900000000003,60.997,196.52500000000003,61.925S197.78400000000002,63.184,201.62700000000004,63.449S215.60700000000003,65.238,215.60700000000003,65.238L223.35900000000004,66.298H225.64600000000004L238.55000000000004,59.974000000000004L248.36300000000003,55.038000000000004L254.07200000000003,52.361000000000004L262.694,50.458000000000006L272.387,48.258L283.091,46.653000000000006L284.757,45.879000000000005L292.547,48.02L310.862,54.383L321.50600000000003,58.011L331.199,61.401C331.199,61.401,331.853,61.698,331.199,63.839000000000006S330.842,67.229,330.842,67.229L331.79699999999997,68.539L352.015,73.415L371.877,78.47L381.094,80.612L395.009,85.31L408.68600000000004,90.186L419.80600000000004,93.159L424.98,94.29100000000001L432.889,95.24300000000001L435.624,95.599C435.624,95.599,437.46700000000004,96.848,438.656,98.09700000000001S439.726,100.00000000000001,439.726,100.00000000000001S439.132,100.89300000000001,435.088,102.20100000000001S421.233,108.20700000000001,421.233,108.20700000000001S413.445,107.97000000000001,412.077,108.802S401.848,111.71700000000001,401.373,115.10600000000001S400.957,119.566,400.957,119.566S401.611,118.61500000000001,401.79,120.34S393.70300000000003,127.059,393.644,127.298S393.049,128.547,393.049,128.547L388.46999999999997,127.833L386.508,126.465L386.091,125.157L385.319,121.827H381.572L381.87,119.627L380.8,119.211L377.41,120.816C377.41,120.816,375.211,121.232,374.97200000000004,120.578S374.021,120.34,374.021,120.34L372.951,123.016C372.951,123.016,369.918,123.254,367.77700000000004,124.20500000000001S365.33900000000006,125.63300000000001,365.398,125.98900000000002S366.34900000000005,130.329,366.40900000000005,130.508S366.76500000000004,132.173,366.76500000000004,132.173L325.91200000000003,129.379L319.84700000000004,125.98899999999999L315.32700000000006,123.07499999999999L304.62300000000005,121.945C304.62300000000005,121.945,305.27600000000007,119.446,303.61100000000005,117.96S300.81600000000003,116.711,300.81600000000003,116.711S297.12800000000004,120.993,296.53400000000005,121.825S291.6580000000001,118.554,291.6580000000001,118.554L286.6600000000001,119.504C286.6600000000001,119.504,285.4120000000001,117.839,282.4380000000001,117.006S277.6800000000001,118.255,278.9290000000001,121.288S280.7120000000001,125.15299999999999,280.7120000000001,125.15299999999999S280.9490000000001,126.699,280.5930000000001,127.532S279.8210000000001,128.662,279.8210000000001,128.662S275.1240000000001,129.019,274.8260000000001,130.327S275.1230000000001,135.144,275.6580000000001,136.392S275.6580000000001,137.82,275.6580000000001,137.82L274.70700000000005,139.486L274.46900000000005,142.697L272.92300000000006,145.492L271.13900000000007,147.98999999999998L270.7830000000001,149.77399999999997L270.6040000000001,154.47199999999998L269.7290000000001,162.094C269.7290000000001,162.094,268.5550000000001,163.15099999999998,268.2030000000001,164.912S267.1780000000001,170.726,267.1780000000001,170.726S263.8660000000001,182.143,263.8660000000001,182.371S262.0960000000001,184.768,262.0960000000001,184.768H249.6530000000001C249.6530000000001,184.768,246.97100000000012,181.571,244.4020000000001,181.058S234.2430000000001,182.37099999999998,230.8180000000001,183.17S224.4250000000001,184.48299999999998,224.4250000000001,184.48299999999998L224.3110000000001,187.79399999999998L219.1170000000001,186.367L218.3190000000001,188.422L212.0400000000001,193.673L201.4800000000001,188.707L206.84600000000012,184.426L210.55600000000013,181.00199999999998C210.55600000000013,181.00199999999998,211.01300000000012,179.403,211.52600000000012,178.54699999999997S213.75200000000012,176.54999999999995,213.92300000000012,176.03599999999997S214.72200000000012,173.63799999999998,214.72200000000012,172.78199999999998S211.75400000000013,167.759,211.75400000000013,167.759L210.44100000000014,167.24499999999998V162.62099999999998C210.44100000000014,162.62099999999998,208.10000000000014,161.65099999999998,209.01400000000015,160.45199999999997S211.06900000000016,157.54099999999997,211.06900000000016,157.54099999999997L210.89800000000017,152.63199999999998C210.89800000000017,152.63199999999998,209.12600000000018,151.75199999999998,207.56400000000016,151.62699999999998S203.31400000000016,151.25199999999998,203.31400000000016,151.25199999999998L199.37600000000018,147.814L198.4380000000002,152.62699999999998C198.4380000000002,152.62699999999998,197.2500000000002,153.87699999999998,197.2500000000002,154.25199999999998S197.8130000000002,157.31499999999997,197.8130000000002,157.31499999999997S195.7500000000002,158.25299999999996,196.0000000000002,159.18999999999997S197.9380000000002,161.43999999999997,198.1880000000002,161.68999999999997S200.12600000000018,162.81499999999997,199.62600000000018,163.93999999999997S197.5630000000002,164.87799999999996,197.5630000000002,165.62799999999996S199.4380000000002,168.75299999999996,199.4380000000002,168.75299999999996S199.3130000000002,169.37799999999996,198.2500000000002,171.06599999999995S197.7500000000002,173.81599999999995,197.5620000000002,175.00399999999993S197.37400000000022,176.19199999999992,197.37400000000022,176.19199999999992L193.81100000000023,175.31699999999992C193.81100000000023,175.31699999999992,191.99800000000025,171.37899999999993,191.56100000000023,171.00399999999993S188.87300000000025,169.87899999999993,188.87300000000025,169.87899999999993S189.68600000000023,168.25399999999993,188.12300000000025,167.12899999999993S185.93500000000026,164.94099999999995,185.93500000000026,164.94099999999995S185.68500000000026,170.87899999999993,183.68500000000026,167.87899999999993S179.18500000000026,162.37899999999993,179.18500000000026,162.37899999999993S179.12200000000027,161.25399999999993,176.37200000000027,162.00399999999993S170.18400000000028,162.62899999999993,170.18400000000028,162.62899999999993S169.8710000000003,164.56699999999992,168.43400000000028,165.00399999999993S165.9470000000003,164.68199999999993,165.9470000000003,164.68199999999993L164.6340000000003,162.30699999999993C164.6340000000003,162.30699999999993,164.7180000000003,162.17099999999994,163.7500000000003,162.45899999999992S158.8030000000003,162.3319999999999,158.8030000000003,162.3319999999999L159.4610000000003,156.2599999999999L161.2610000000003,156.2039999999999L161.4450000000003,150.1469999999999L159.5360000000003,147.3559999999999L159.3130000000003,142.6069999999999L158.2000000000003,141.71699999999993L156.5490000000003,138.39299999999992L155.0100000000003,134.37199999999993L156.3960000000003,133.19099999999992L157.5110000000003,132.31599999999992L155.5290000000003,122.50199999999992L156.63300000000032,121.47899999999993C156.63300000000032,121.47899999999993,156.0230000000003,120.48699999999992,156.11800000000034,119.78699999999994S156.55900000000034,118.57099999999994,156.55900000000034,118.57099999999994S159.02100000000033,118.62199999999994,160.35300000000035,118.31699999999994S161.77000000000035,117.68499999999993,162.41000000000034,118.00199999999994S163.43100000000032,118.70199999999994,163.43100000000032,118.70199999999994L163.36500000000032,119.08899999999994C163.36500000000032,119.08899999999994,164.89100000000033,119.96099999999994,165.2550000000003,119.89599999999994S166.04800000000031,119.49999999999994,166.04800000000031,119.49999999999994L165.69700000000032,117.87299999999995L163.30700000000033,115.37299999999995C163.30700000000033,115.37299999999995,163.11100000000033,114.87299999999995,163.43100000000032,114.55399999999995S167.01300000000032,111.95499999999994,167.01300000000032,111.95499999999994S165.2070000000003,109.18499999999995,165.47100000000032,108.92699999999994S167.32500000000033,108.61699999999993,167.32500000000033,108.61699999999993S167.60600000000034,107.78699999999994,167.30400000000034,106.72299999999993S166.04100000000034,103.42699999999992,166.04100000000034,103.42699999999992S165.82300000000035,101.55999999999992,165.90900000000033,101.35599999999992S166.60800000000035,100.46699999999993,167.16800000000032,100.32599999999992S169.4460000000003,99.55799999999992,169.4460000000003,99.55799999999992S169.6040000000003,98.98499999999993,169.71000000000032,98.58199999999992S168.95300000000032,96.41699999999992,168.95300000000032,96.41699999999992L172.94400000000033,93.55199999999992L168.58900000000034,94.42999999999992C168.58900000000034,94.42999999999992,168.12600000000035,91.30399999999992,167.94300000000035,90.59999999999992S167.32400000000035,89.18399999999993,167.32400000000035,89.18399999999993L164.32700000000034,86.94499999999992L164.39900000000034,86.45199999999993L165.92000000000033,85.98599999999993L166.03700000000032,83.37099999999994C166.03700000000032,83.37099999999994,166.24700000000033,80.09499999999994,166.47100000000032,79.56399999999994S167.50900000000033,77.99699999999994,167.50900000000033,77.99699999999994L169.10700000000034,77.14499999999994L170.48900000000035,76.47999999999993L172.81500000000034,76.01699999999994L176.95100000000033,75.40699999999994L178.81000000000034,74.82599999999994C178.81000000000034,74.82599999999994,180.03900000000036,73.79999999999994,179.92300000000034,72.64899999999993S179.97400000000033,69.67899999999993,179.97400000000033,69.67899999999993L177.19500000000033,67.15499999999993L176.67600000000033,64.18699999999993L174.57800000000032,63.239999999999924L176.57300000000032,58.906999999999925L173.59800000000033,58.31399999999992L175.34000000000032,57.50999999999992L175.1780000000003,55.40799999999992L177.78800000000032,51.04899999999992L178.305,51.059Z"
    stroke-width="1"
    stroke-linejoin="round"
    style="-webkit-tap-highlight-color: rgba(0, 0, 0, 0); stroke-linejoin: round;"></path>
  <path
    fill="#cccccc"
    stroke="#222222"
    d="M393.333,131.75V135L388.16600000000005,136.5H385.5C385.5,136.5,384.166,142.583,383.416,144.333S382.83299999999997,148.25,382.83299999999997,148.25S385.332,151.084,385.916,154.667S387.582,159.084,385.166,160.167S382.166,161.167,382.166,161.167V170.834L381.167,173.667L380.25,177.151C380.25,177.151,377.166,178.917,377.083,179.334S376.583,184.417,376.583,184.417L376.083,188.834L375.083,192.334L372.61400000000003,197.371L370.82800000000003,201.709V206.81300000000002C370.82800000000003,206.81300000000002,371.891,209.151,371.891,209.322S371.593,209.663,371.593,209.663L369.67900000000003,211.19400000000002L373.85900000000004,215.549L373.182,227.347C373.182,227.347,369.783,229.601,369.67900000000003,229.751S366.869,229.901,365.59200000000004,233.058S364.31500000000005,236.214,364.31500000000005,236.214S357.77700000000004,237.267,356.27400000000006,239.821S355.37300000000005,242.526,355.37300000000005,242.526S357.92900000000003,241.02200000000002,358.60400000000004,241.473S359.355,244.48000000000002,359.355,244.48000000000002L360.182,247.78600000000003C360.182,247.78600000000003,361.16,248.61200000000002,361.084,248.91300000000004S361.084,252.97200000000004,361.084,252.97200000000004S363.112,255.22600000000003,364.841,255.82700000000003S368.148,255.37600000000003,368.148,255.37600000000003L370.10200000000003,252.22000000000003H372.281C372.281,252.22000000000003,371.604,254.62000000000003,372.055,256.01300000000003S373.708,260.11100000000005,373.708,260.11100000000005S374.535,257.25700000000006,376.113,257.63200000000006S378.517,259.58500000000004,378.517,259.58500000000004L378.442,262.44100000000003L378.818,263.56800000000004H386.18199999999996L385.806,260.56200000000007C385.806,260.56200000000007,388.21,262.5160000000001,388.887,263.56800000000004S391.742,264.545,391.742,264.545L392.944,263.04200000000003L394.298,262.89200000000005L395.425,264.16900000000004L396.176,262.29100000000005C396.176,262.29100000000005,397.529,262.06500000000005,397.905,263.04200000000003S398.957,264.99600000000004,398.957,264.99600000000004L398.582,268.37800000000004L397.604,269.20000000000005H399.257V275.66300000000007L400.61,277.24100000000004L401.963,277.617L401.51300000000003,279.946L401.36300000000006,282.425L403.16600000000005,283.928L401.58900000000006,286.33299999999997H399.63500000000005L399.56000000000006,286.85799999999995H396.93000000000006C396.93000000000006,286.85799999999995,396.93100000000004,288.28599999999994,397.08000000000004,288.73699999999997S398.20700000000005,290.54099999999994,398.20700000000005,290.54099999999994L397.98100000000005,292.0439999999999L396.32800000000003,292.72099999999995V295.35099999999994H394.6L393.84900000000005,296.3279999999999L391.82000000000005,295.65199999999993C391.82000000000005,295.65199999999993,391.14400000000006,294.5999999999999,390.54300000000006,294.22399999999993S389.19000000000005,294.59899999999993,389.19000000000005,294.59899999999993L389.34000000000003,297.67999999999995C389.34000000000003,297.67999999999995,388.28700000000003,300.23599999999993,386.70900000000006,299.85999999999996S385.43300000000005,299.40999999999997,384.90600000000006,298.65799999999996S385.1310000000001,296.253,385.1310000000001,296.253L386.33400000000006,294.37399999999997C386.33400000000006,294.37399999999997,385.5060000000001,293.849,383.55300000000005,293.99899999999997S380.69800000000004,293.99899999999997,380.69800000000004,293.99899999999997S380.954,292.11899999999997,379.211,291.368S376.265,290.993,376.265,290.993S377.99399999999997,292.195,378.219,293.77299999999997S370.629,295.27599999999995,370.629,295.27599999999995S366.796,295.57499999999993,365.89500000000004,296.703S365.069,298.43199999999996,365.069,298.43199999999996S368.825,298.65899999999993,370.103,300.76199999999994S371.982,304.59399999999994,371.982,304.59399999999994L371.68100000000004,305.11999999999995H368.75000000000006L368.52400000000006,307.8999999999999L366.27000000000004,308.2009999999999C366.27000000000004,308.2009999999999,362.66400000000004,303.9929999999999,358.004,301.7389999999999S351.016,299.4849999999999,351.016,299.4849999999999L341.24600000000004,298.4329999999999L334.408,297.75599999999986L328.697,295.72799999999984L319.90500000000003,291.2189999999998L312.91700000000003,287.9119999999998L311.78900000000004,287.0859999999998L293.90400000000005,286.3339999999998L289.24500000000006,285.3569999999998L281.57900000000006,281.9729999999998L276.62000000000006,278.1409999999998L272.2610000000001,273.1809999999998L265.12200000000007,269.04799999999983L266.02400000000006,267.54499999999985C266.02400000000006,267.54499999999985,266.92500000000007,266.8679999999998,266.8500000000001,262.5099999999998S266.32400000000007,258.4519999999998,266.32400000000007,258.4519999999998S267.30100000000004,255.67199999999983,269.4800000000001,254.09399999999982S272.5610000000001,251.7639999999998,272.5610000000001,251.7639999999998L278.1230000000001,252.36599999999981L280.0760000000001,250.48699999999982L280.8280000000001,250.63699999999983L281.20400000000006,252.51599999999982C281.20400000000006,252.51599999999982,280.52600000000007,257.4019999999998,281.4290000000001,257.47599999999983S283.23300000000006,257.40099999999984,283.23300000000006,257.40099999999984L283.98500000000007,254.61999999999983C283.98500000000007,254.61999999999983,285.6380000000001,256.7239999999998,286.8400000000001,257.6259999999998S289.4700000000001,258.0019999999998,289.4700000000001,258.0019999999998L290.3710000000001,256.8749999999998L290.0710000000001,254.09499999999977L295.1040000000001,248.68499999999977L295.3300000000001,245.30299999999977L298.6370000000001,245.07699999999977L299.5380000000001,244.70099999999977L299.46300000000014,241.69499999999977L302.09300000000013,240.86899999999977L302.9950000000001,240.79399999999978L302.3180000000001,237.7129999999998L307.8030000000001,231.6259999999998L302.61700000000013,224.8619999999998L302.5430000000001,222.9839999999998C302.5430000000001,222.9839999999998,303.0680000000001,222.2319999999998,303.2190000000001,222.0059999999998S303.89600000000013,219.9739999999998,303.89600000000013,219.9739999999998L304.19600000000014,212.53699999999978L301.9420000000001,212.91299999999978L301.1150000000001,210.0579999999998C301.1150000000001,210.0579999999998,296.0080000000001,210.95999999999978,294.5800000000001,214.4929999999998S289.8460000000001,216.8979999999998,289.8460000000001,216.8979999999998S285.2620000000001,214.19299999999978,283.6090000000001,214.9439999999998S280.7540000000001,216.6729999999998,280.7540000000001,216.6729999999998L276.6210000000001,217.0479999999998L268.8810000000001,222.38399999999982C268.8810000000001,222.38399999999982,268.5050000000001,218.77699999999982,265.1230000000001,217.34899999999982S259.1110000000001,217.72499999999982,259.1110000000001,217.72499999999982L254.9030000000001,221.25699999999983L249.04200000000012,221.10699999999983V215.99699999999982L251.6720000000001,214.6439999999998L252.3490000000001,213.36699999999982L250.7710000000001,211.1869999999998L253.5500000000001,208.70699999999982L256.4810000000001,205.32599999999982L258.1340000000001,202.09499999999983L259.1110000000001,199.31499999999983L261.0650000000001,197.43599999999984L260.68900000000014,189.24499999999983L259.6370000000001,188.04299999999984L260.68900000000014,186.38999999999984L261.74100000000016,184.76899999999983L263.97000000000014,181.94999999999985L266.7570000000001,172.18199999999985L267.9120000000001,166.46399999999986L268.7100000000001,163.49899999999985L270.1010000000001,162.26799999999986L270.6340000000001,153.69899999999987L271.07600000000014,148.30899999999988L272.56900000000013,145.9889999999999L274.3220000000001,142.9659999999999L274.69600000000014,139.64199999999988L276.65500000000014,137.1089999999999L274.82700000000017,130.3289999999999L277.0760000000002,129.0869999999999L277.5220000000002,128.9889999999999L279.82200000000023,128.6639999999999H280.25700000000023L280.69600000000025,127.2169999999999L280.7140000000002,125.1549999999999L279.35500000000025,122.29899999999991L278.40800000000024,119.7779999999999L279.0120000000002,117.82999999999991L280.0150000000002,117.04199999999992L281.6280000000002,116.85499999999992L282.4410000000002,117.00699999999992L284.3550000000002,117.74899999999992L286.42100000000016,119.23199999999993L291.66000000000014,118.55499999999992L294.93600000000015,121.29699999999993L295.77700000000016,121.79399999999993L296.37100000000015,121.92799999999993L298.33900000000017,119.62099999999992L300.81800000000015,116.71199999999992C300.81800000000015,116.71199999999992,303.5790000000002,117.08099999999992,304.1340000000001,118.55899999999991S304.62400000000014,121.94599999999991,304.62400000000014,121.94599999999991L315.32800000000015,123.07599999999991L325.9130000000001,129.3789999999999L366.76600000000013,132.17299999999992L365.64100000000013,125.43199999999992C365.64100000000013,125.43199999999992,367.2520000000001,124.26099999999991,368.6150000000001,123.87999999999991S373.0870000000001,122.67699999999991,373.0870000000001,122.67699999999991L374.0230000000001,120.33899999999991C374.0230000000001,120.33899999999991,374.18500000000006,119.86299999999991,374.8680000000001,120.38399999999992S376.3640000000001,121.12599999999992,376.3640000000001,121.12599999999992L378.11000000000007,120.48399999999992L380.80100000000004,119.20899999999992L381.87100000000004,119.62499999999991L381.57300000000004,121.82499999999992H385.32000000000005L386.39200000000005,126.09399999999992L388.47100000000006,127.83099999999992L393.1580000000001,128.3379999999999L394.1210000000001,126.9289999999999L401.49700000000007,121.1199999999999L402.19700000000006,122.20399999999991C402.19700000000006,122.20399999999991,399.26400000000007,127.20699999999991,398.74700000000007,127.85399999999991S395.2540000000001,130.3549999999999,395.2540000000001,130.3549999999999L393.333,131.75Z"
    stroke-width="1"
    stroke-linejoin="round"
    style="-webkit-tap-highlight-color: rgba(0, 0, 0, 0); stroke-linejoin: round;"></path>
  <path
    fill="#cccccc"
    stroke="#222222"
    d="M128.124,206.407L122.82799999999999,201.40200000000002C122.82799999999999,201.40200000000002,121.478,196.42200000000003,115.99799999999999,193.67100000000002S109.80399999999999,190.603,109.80399999999999,190.603L103.92799999999998,189.25300000000001L95.88699999999999,179.465L99.08399999999999,180.15800000000002L100.54699999999998,180.573L109.96299999999998,179.465L110.58899999999998,181.077C110.58899999999998,181.077,113.18199999999999,181.156,113.82999999999998,181.386S117.35599999999998,183.397,117.35599999999998,183.397L121.83499999999998,180.063L125.40499999999997,180.759L127.95699999999998,176.909C127.95699999999998,176.909,132.29,179.869,132.91899999999998,180.155S135.009,180.964,134.94299999999998,178.758S134.945,172.36800000000002,134.945,172.36800000000002L142.751,170.69500000000002C142.751,170.69500000000002,142.538,168.56900000000002,143.721,168.247S145.041,167.98700000000002,145.041,167.98700000000002L145.656,169.026L145.934,169.71L151.144,168.01500000000001L155.592,166.871C155.592,166.871,160.633,167.577,161.32100000000003,167.785S162.31300000000002,165.966,162.31300000000002,165.966S162.62500000000003,165.29000000000002,163.127,165.02200000000002S166.131,165.02200000000002,166.131,165.02200000000002L168.098,165.079L169.221,164.53900000000002L169.82500000000002,163.703L170.376,162.751C170.376,162.751,176.42000000000002,162.211,177.221,161.838S179.404,162.18,179.404,162.18L180.784,164.11L183.849,168.10100000000003C183.849,168.10100000000003,184.22799999999998,168.88400000000001,184.646,168.71900000000002S185.56699999999998,167.52100000000002,185.56699999999998,167.52100000000002L185.933,164.372C185.933,164.372,187.93599999999998,166.842,188.602,167.561S188.876,169.834,188.876,169.834L191.548,170.808L193.729,175.131L197.376,176.188C197.376,176.188,197.61100000000002,174.922,197.604,174.45999999999998S197.881,171.77399999999997,197.881,171.77399999999997L199.439,168.74999999999997C199.439,168.74999999999997,197.993,166.32799999999997,197.793,165.89799999999997S198.939,164.87799999999996,199.282,164.40799999999996S199.672,162.78499999999997,199.672,162.78499999999997L196.466,160.00199999999998L195.989,158.95499999999998C195.989,158.95499999999998,196.317,158.571,196.668,158.165S197.814,157.31099999999998,197.814,157.31099999999998L197.20999999999998,153.83199999999997L198.576,152.23799999999997L199.28199999999998,147.59199999999998L203.158,151.11299999999997L208.302,151.73299999999998L210.898,152.62899999999996L211.063,157.34399999999997C211.063,157.34399999999997,208.69799999999998,160.22999999999996,209.05599999999998,161.11699999999996S210.44199999999998,162.61699999999996,210.44199999999998,162.61699999999996L210.55299999999997,167.28399999999996L211.83699999999996,167.86999999999998L214.63099999999997,172.414C214.63099999999997,172.414,214.38799999999998,175.456,213.92399999999998,176.03199999999998S211.63299999999998,178.225,211.34999999999997,178.86899999999997S210.63999999999996,180.72099999999998,210.63999999999996,180.72099999999998L207.10199999999995,184.18599999999998L201.18899999999994,188.902L199.26199999999994,189.99699999999999L199.19799999999995,195.83499999999998L197.79299999999995,198.14499999999998V204.17499999999998L194.51599999999996,206.99699999999999C194.51599999999996,206.99699999999999,189.70399999999995,213.541,190.34599999999998,214.952S186.68899999999996,213.477,184.765,215.209S179.95399999999998,215.91400000000002,179.505,217.582S177.32399999999998,222.778,177.32399999999998,222.778S177.96599999999998,225.40699999999998,178.54299999999998,226.882S180.46699999999998,228.23000000000002,182.64799999999997,228.55S185.59899999999996,228.55,185.59899999999996,228.55S184.05899999999997,235.542,183.54599999999996,235.92700000000002S183.22499999999997,235.86400000000003,180.27499999999998,233.93900000000002S174.95099999999996,230.47500000000002,174.95099999999996,230.47500000000002L171.48699999999997,229.127C171.48699999999997,229.127,162.82699999999997,228.16500000000002,162.37799999999996,228.23000000000002S151.98599999999996,228.16600000000003,151.98599999999996,228.16600000000003L149.99699999999996,228.55100000000002C149.99699999999996,228.55100000000002,149.41899999999995,229.77,147.49499999999995,230.02700000000002S140.63099999999994,228.423,140.63099999999994,228.423L137.23099999999994,222.329L133.83099999999993,215.144L130.43099999999993,210.012L128.124,206.407Z"
    stroke-width="1"
    stroke-linejoin="round"
    style="-webkit-tap-highlight-color: rgba(0, 0, 0, 0); stroke-linejoin: round;"></path>
  <path
    fill="#cccccc"
    stroke="#222222"
    d="M180.21,216.77C180.21,216.77,181.517,216.613,182.684,216.215S185.638,214.746,185.638,214.746S186.641,214.473,188.02,214.84S190.24,215.352,190.24,215.352S190.08200000000002,215.317,190.24,214.649S190.747,213.069,190.747,213.069L192.25900000000001,210.33499999999998L194.514,206.99999999999997L197.791,204.17799999999997V198.14799999999997L199.196,195.83799999999997L199.401,189.91999999999996L201.853,188.88299999999995L212.038,193.67199999999994L218.37800000000001,188.26399999999995L219.05700000000002,186.51599999999996L224.30900000000003,187.79399999999995L224.42300000000003,184.48299999999995C224.42300000000003,184.48299999999995,234.53100000000003,182.30899999999994,235.56100000000004,182.09599999999995S242.11400000000003,180.94599999999994,243.04100000000003,180.97199999999995S245.17800000000003,181.12199999999996,246.96300000000002,182.29099999999994S249.651,184.76899999999995,249.651,184.76899999999995H250H261.5H261.836L259.636,188.04299999999995L260.68800000000005,189.24499999999995L261.064,197.43599999999995L259.23,199.19999999999996L258.18,201.96099999999996L256.541,205.20699999999997L253.27,208.95699999999997L250.77,211.18799999999996L252.233,213.20899999999995L251.752,214.49399999999994L248.84400000000002,216.07899999999995L249.04200000000003,221.43799999999996L254.90300000000002,221.25799999999995L259.74800000000005,217.38599999999997C259.74800000000005,217.38599999999997,266.4800000000001,214.61499999999998,268.83200000000005,222.08799999999997L276.62100000000004,217.04899999999998L280.44300000000004,216.70199999999997C280.44300000000004,216.70199999999997,283.54600000000005,214.88199999999998,284.71900000000005,214.83899999999997S289.84600000000006,216.89999999999998,289.84600000000006,216.89999999999998S293.15700000000004,217.09999999999997,293.93800000000005,215.64899999999997S295.61600000000004,212.88199999999998,295.61600000000004,212.88199999999998L298.61100000000005,210.85399999999998L301.11600000000004,210.05999999999997L301.94300000000004,212.91499999999996L304.19700000000006,212.53899999999996L303.9150000000001,219.53099999999995L302.5450000000001,222.98499999999996L302.82200000000006,225.12799999999996L307.68300000000005,231.46999999999997L302.43500000000006,237.58499999999998L302.83400000000006,240.06199999999998L299.4630000000001,241.69699999999997L299.53800000000007,244.70299999999997L298.63700000000006,245.07899999999998L295.33000000000004,245.30499999999998L295.124,248.38799999999998L290.071,254.09699999999998L290.37100000000004,256.87699999999995L289.47,258.00399999999996H287.548L285.879,256.77L283.98400000000004,254.623L283.232,257.404L281.42800000000005,257.479L280.97800000000007,256.32L281.0230000000001,254.256L281.20400000000006,252.52L280.8280000000001,250.64100000000002L280.0760000000001,250.491L278.2820000000001,252.217L272.5610000000001,251.769L271.1730000000001,252.84900000000002C271.1730000000001,252.84900000000002,268.1810000000001,251.66400000000002,267.36200000000014,250.205S266.54400000000015,248.746,266.54400000000015,248.746L264.60600000000017,250.604C264.60600000000017,250.604,261.2810000000002,246.87800000000001,260.7810000000002,246.62800000000001S257.0310000000002,249.816,256.1560000000002,250.03400000000002S251.03100000000018,249.65900000000002,251.03100000000018,249.65900000000002S251.28100000000018,251.37800000000001,249.40600000000018,251.347S246.00000000000017,250.847,246.00000000000017,250.847L245.71900000000016,249.37800000000001L240.50000000000017,249.597C240.50000000000017,249.597,241.40600000000018,251.316,240.09400000000016,251.316S237.46900000000016,249.87800000000001,237.46900000000016,249.87800000000001L236.28100000000018,246.81500000000003L237.68700000000018,243.69000000000003C237.68700000000018,243.69000000000003,239.12500000000017,240.25200000000004,241.06200000000018,241.44000000000003S243.94600000000017,245.56500000000003,243.94600000000017,245.56500000000003L247.93700000000018,246.00300000000001L248.43700000000018,241.94000000000003L249.31200000000018,240.12700000000004C249.31200000000018,240.12700000000004,250.50000000000017,240.50200000000004,250.50000000000017,239.18900000000005S249.04100000000017,236.37600000000006,249.04100000000017,236.37600000000006L248.62500000000017,233.87600000000006C248.62500000000017,233.87600000000006,251.00000000000017,234.87600000000006,250.06300000000016,232.87600000000006S247.87500000000017,230.56300000000007,247.00000000000017,231.81300000000007S240.50000000000017,232.93800000000007,240.50000000000017,232.93800000000007L239.68700000000018,231.25000000000009L234.81200000000018,231.12500000000009L232.8740000000002,229.4370000000001L227.5610000000002,229.5620000000001L227.3110000000002,232.8120000000001L224.99800000000022,233.8120000000001C224.99800000000022,233.8120000000001,224.56000000000023,235.7980000000001,224.49800000000022,236.0550000000001S220.68500000000023,238.37400000000008,220.68500000000023,238.37400000000008L219.87200000000024,239.06200000000007L216.18400000000025,236.81200000000007L215.43400000000025,233.43700000000007L213.55900000000025,232.49900000000008L206.43400000000025,229.74900000000008L202.74600000000027,228.12400000000008L202.30800000000028,227.87400000000008L201.80800000000028,227.62400000000008L201.4950000000003,225.8110000000001C201.4950000000003,225.8110000000001,200.8700000000003,224.9980000000001,199.5570000000003,224.0610000000001S195.7440000000003,222.7480000000001,195.7440000000003,222.7480000000001S196.7440000000003,223.6860000000001,193.80600000000032,223.9980000000001S188.68100000000032,223.2480000000001,188.68100000000032,223.2480000000001L183.49300000000034,222.3820000000001C183.49300000000034,222.3820000000001,183.68100000000032,219.2210000000001,183.30500000000035,219.4850000000001S181.36700000000036,219.7490000000001,181.36700000000036,219.7490000000001L180.21,216.77Z"
    stroke-width="1"
    stroke-linejoin="round"
    style="-webkit-tap-highlight-color: rgba(0, 0, 0, 0); stroke-linejoin: round;"></path>
  <path
    fill="#cccccc"
    stroke="#222222"
    d="M196.344,241.202V239.653H191.66299999999998L192.027,238.882H186.744L183.544,235.93L184.823,231.273L185.80100000000002,228.442C185.80100000000002,228.442,181.64200000000002,228.458,180.353,227.94400000000002S178.341,226.21400000000003,178.341,226.21400000000003L177.322,222.78100000000003L179.638,217.27000000000004L180.211,216.77000000000004L181.101,219.19400000000005L181.376,219.75100000000003L182.78,219.65100000000004C182.78,219.65100000000004,183.142,219.04800000000003,183.313,219.48700000000005S183.51999999999998,221.98000000000005,183.51999999999998,221.98000000000005L183.49999999999997,222.38400000000004L188.91699999999997,223.33300000000006C188.91699999999997,223.33300000000006,190.08299999999997,223.73600000000005,190.39299999999997,223.80000000000007S193.11999999999998,224.04900000000006,193.11999999999998,224.04900000000006L195.39099999999996,223.65600000000006L195.91299999999995,223.06300000000007L198.59899999999996,223.53800000000007L201.31399999999996,225.59400000000008L201.81399999999996,227.62500000000009L207.69099999999997,230.2330000000001L215.17099999999996,233.32600000000008L216.37899999999996,236.9290000000001L220.08999999999997,238.8820000000001L224.50099999999998,236.0560000000001L225.00099999999998,234.0310000000001L227.00099999999998,232.7300000000001L227.35299999999998,232.3020000000001L227.54,229.87600000000012L233.00799999999998,229.54400000000012L234.81499999999997,231.1250000000001L239.50299999999996,231.24500000000012L240.50199999999995,232.93700000000013L244.53399999999996,232.72100000000012L246.62699999999995,232.1250000000001C246.62699999999995,232.1250000000001,247.91699999999994,230.3250000000001,249.04299999999995,231.4330000000001S250.27999999999994,233.70900000000012,250.27999999999994,233.70900000000012S250.52699999999996,234.7560000000001,248.68999999999994,233.89900000000011C248.50199999999995,233.81100000000012,249.04299999999995,236.3740000000001,249.04299999999995,236.3740000000001S250.65399999999994,237.6900000000001,250.46299999999994,238.8130000000001S250.01799999999994,240.1030000000001,250.01799999999994,240.1030000000001L249.43999999999994,240.1510000000001L248.43999999999994,241.9360000000001L247.75399999999993,245.9780000000001L243.94799999999992,245.5610000000001C243.94799999999992,245.5610000000001,242.3379999999999,241.6090000000001,241.06399999999994,241.4360000000001S238.46899999999994,240.4550000000001,236.52699999999993,246.2680000000001L236.28299999999993,246.87300000000008L237.47099999999992,249.87300000000008C237.47099999999992,249.87300000000008,238.8969999999999,251.20700000000008,239.6069999999999,251.24900000000008S240.55599999999993,251.19400000000007,240.55599999999993,251.19400000000007L240.75999999999993,250.28700000000006L240.50199999999992,249.59200000000007L245.72099999999992,249.37300000000008L246.00199999999992,250.84200000000007C246.00199999999992,250.84200000000007,248.26999999999992,251.36300000000006,249.09399999999994,251.33200000000008S250.21099999999993,251.3230000000001,250.47899999999993,251.0720000000001S251.04199999999992,249.83100000000007,251.04199999999992,249.83100000000007L256.2639999999999,250.1430000000001L260.4769999999999,246.68900000000008L264.7999999999999,250.7330000000001L266.6359999999999,248.89800000000008L267.6929999999999,250.6500000000001L268.33899999999994,251.3340000000001L270.69599999999997,252.63600000000008L270.974,252.9960000000001L268.752,254.7040000000001L266.898,257.20400000000006L266.02700000000004,258.74800000000005H266.73500000000007L266.77700000000004,264.92400000000004L266.33200000000005,267.04400000000004L265.12500000000006,268.70000000000005L264.58900000000006,269.34400000000005L253.91000000000005,269.03900000000004L250.36400000000006,267.27700000000004L247.16700000000006,264.27600000000007L244.07900000000006,262.60100000000006L236.46700000000007,262.25200000000007L229.98600000000008,259.4030000000001L218.4410000000001,253.6850000000001L215.0660000000001,252.1850000000001H208.8780000000001L203.6280000000001,249.8100000000001L198.3150000000001,246.5600000000001L196.6900000000001,244.8720000000001L195.75200000000012,243.0540000000001L196.344,241.202Z"
    stroke-width="1"
    stroke-linejoin="round"
    style="-webkit-tap-highlight-color: rgba(0, 0, 0, 0); stroke-linejoin: round;"></path>
</svg>
