<svg height="420" version="1.1" width="540" xmlns="http://www.w3.org/2000/svg" xmlns:xlink="http://www.w3.org/1999/xlink" style="overflow: hidden; position: relative; top: 0.6px;">
  <desc style="-webkit-tap-highlight-color: rgba(0, 0, 0, 0);">Created with Raphaël 2.2.0</desc>
  <defs style="-webkit-tap-highlight-color: rgba(0, 0, 0, 0);"></defs>
  <path
    fill="#cccccc"
    stroke="#222222"
    d="M352.841,180.326L358.58,239.514L355.71099999999996,238.94L351.54999999999995,234.349L348.25199999999995,233.748L347.94899999999996,232.352L346.24999999999994,233.869L344.0659999999999,233.019L342.4269999999999,234.354L341.3959999999999,233.20200000000003L338.4229999999999,233.01900000000003C338.4229999999999,233.01900000000003,335.5119999999999,231.44200000000004,334.35899999999987,233.92900000000003S333.50899999999984,235.62800000000004,333.50899999999984,235.62800000000004L326.22899999999987,239.08600000000004C326.22899999999987,239.08600000000004,324.1659999999999,237.32600000000005,322.1029999999999,237.69000000000005S319.7379999999999,238.35700000000006,319.7379999999999,238.35700000000006L316.4619999999999,236.59800000000007V234.11000000000007C316.4619999999999,234.11000000000007,313.8529999999999,230.22700000000006,312.21499999999986,228.28600000000006S303.72199999999987,218.64000000000004,303.72199999999987,218.64000000000004L301.05199999999985,218.51800000000003L300.26299999999986,217.66900000000004L298.07899999999984,218.33600000000004L297.5939999999998,218.51800000000003L297.8979999999998,214.21000000000004C297.8979999999998,214.21000000000004,292.2539999999998,213.45000000000005,291.95199999999977,209.91700000000003S291.6489999999998,206.38400000000004,291.6489999999998,206.38400000000004L286.7349999999998,201.22800000000004L286.2499999999998,200.56000000000003L290.49599999999975,190.67100000000002L290.61799999999977,184.847L290.8599999999998,184.362L288.67599999999976,183.512L287.52299999999974,182.299L287.31899999999973,179.982L288.7499999999997,179.604L290.3799999999997,179.43200000000002L291.7859999999997,179.645L293.58599999999973,179.877L295.25099999999975,180.24800000000002L297.93399999999974,177.657L298.8149999999997,176.93900000000002L300.20099999999974,176.76100000000002L301.55099999999976,177.16700000000003L302.51999999999975,178.62000000000003L303.3769999999998,180.24800000000002L304.4319999999998,178.85500000000002L308.6269999999998,179.12300000000002L309.63999999999976,173.75600000000003L311.20299999999975,163.747L311.4299999999997,163.29000000000002L314.0669999999997,164.08200000000002L318.08799999999974,165.85700000000003L318.5909999999997,165.01800000000003L321.3049999999997,164.30500000000004L325.7529999999997,162.49900000000002L327.5429999999997,164.88600000000002L330.1279999999997,165.62400000000002L331.1479999999997,167.616L332.88699999999966,169.02900000000002L333.00299999999964,170.87400000000002L338.69299999999964,171.60100000000003L340.62799999999964,170.62400000000002L343.2779999999996,172.431L346.12799999999964,170.24900000000002L348.00299999999964,171.87400000000002L352.62799999999964,172.49900000000002L352.5089999999996,179.24400000000003L352.841,180.326Z"
    stroke-width="1"
    stroke-linejoin="round"
    style="-webkit-tap-highlight-color: rgba(0, 0, 0, 0); stroke-linejoin: round;"></path>
  <path
    fill="#cccccc"
    stroke="#222222"
    d="M278.244,301.563C280.646,302.364,283.211,299.47999999999996,283.211,299.47999999999996L288.529,299.10499999999996L288.923,298.44699999999995C288.923,298.44699999999995,292.422,296.86199999999997,293.412,294.88199999999995S297.637,290.26199999999994,297.637,290.26199999999994L300.475,290.3279999999999L300.673,289.2059999999999C300.673,289.2059999999999,301.003,285.9719999999999,301.201,285.7079999999999S305.35900000000004,284.6509999999999,305.35900000000004,284.6509999999999L307.40600000000006,286.4999999999999C307.40600000000006,286.4999999999999,307.9990000000001,286.7639999999999,309.12100000000004,286.1699999999999S310.17800000000005,287.4899999999999,310.17800000000005,287.4899999999999L309.25300000000004,289.5359999999999L309.583,292.1099999999999L311.10200000000003,292.8369999999999L311.49800000000005,294.5529999999999L314.27000000000004,295.4779999999999L314.86400000000003,297.5899999999999L317.76800000000003,298.0519999999999L317.63500000000005,297.5239999999999L317.17300000000006,295.54399999999987L320.27600000000007,293.8939999999999L322.2560000000001,295.6759999999999L322.98300000000006,293.3649999999999L325.29300000000006,293.2329999999999L325.42500000000007,288.2159999999999L331.82700000000006,288.4809999999999L332.619,290.9229999999999L334.53400000000005,291.5829999999999L336.6460000000001,295.74099999999993L338.7580000000001,296.40099999999995C338.7580000000001,296.40099999999995,341.6620000000001,292.37499999999994,341.7290000000001,292.10999999999996S342.5860000000001,288.80999999999995,342.9170000000001,288.282S343.3800000000001,285.905,342.98300000000006,283.727S342.98300000000006,281.67999999999995,343.6430000000001,280.756S342.58600000000007,277.78499999999997,342.58600000000007,277.78499999999997L338.9560000000001,277.191C338.9560000000001,277.191,338.9560000000001,277.191,337.7010000000001,278.313S334.2030000000001,277.78499999999997,334.2030000000001,277.78499999999997S331.56200000000007,278.51199999999994,330.11000000000007,278.24699999999996S329.51500000000004,275.871,329.51500000000004,275.871L334.20300000000003,271.84499999999997L333.60900000000004,271.054C333.60900000000004,271.054,331.82700000000006,269.866,330.57300000000004,268.41299999999995S326.74500000000006,268.14799999999997,326.74500000000006,268.14799999999997S326.74500000000006,268.14799999999997,325.5570000000001,266.89399999999995S321.6620000000001,265.63999999999993,321.6620000000001,265.63999999999993L318.4270000000001,263.0659999999999L315.9860000000001,247.81799999999993L318.9570000000001,240.75499999999994L319.6360000000001,238.30299999999994C319.6360000000001,238.30299999999994,321.0050000000001,236.98299999999995,323.06200000000007,237.66599999999994S326.45200000000006,238.98099999999994,326.45200000000006,238.98099999999994L333.5110000000001,235.62799999999993C333.5110000000001,235.62799999999993,334.3880000000001,232.47499999999994,335.9840000000001,232.58199999999994S338.1580000000001,232.89399999999995,338.1580000000001,232.89399999999995L341.3980000000001,233.20199999999994L342.4290000000001,234.35399999999993L344.0680000000001,233.01899999999992L346.2520000000001,233.86899999999991L347.95100000000014,232.35199999999992L348.25400000000013,233.7479999999999L351.55200000000013,234.3489999999999L355.71300000000014,238.9399999999999L358.58200000000016,239.51399999999992L363,280L370.5,352.75C370.5,352.75,370.013,356.161,365.307,357.139S359.269,357.139,359.269,357.139L344.974,353.41L341.157,352.345C341.157,352.345,337.252,352.07800000000003,335.209,352.877S333.166,353.676,333.166,353.676L331.391,352.167L329.082,354.11999999999995L324.373,360.2459999999999L283.889,365.3959999999999L255.437,368.9739999999999C255.437,368.9739999999999,253.174,365.5359999999999,251.09400000000002,364.72199999999987S249.28400000000002,362.90999999999985,250.37000000000003,361.1009999999999S252.26900000000003,357.20999999999987,252.26900000000003,357.20999999999987L256.25000000000006,354.76799999999986C256.25000000000006,354.76799999999986,257.78800000000007,352.5049999999999,259.05500000000006,350.0629999999999S261.49600000000004,346.53499999999985,262.67300000000006,344.00099999999986S264.48300000000006,340.1109999999999,264.48300000000006,340.1109999999999S267.83000000000004,337.3959999999999,269.7300000000001,335.4059999999999S275.61000000000007,336.4029999999999,275.61000000000007,336.4029999999999S278.1450000000001,336.4029999999999,278.4170000000001,335.8599999999999S277.4220000000001,333.2359999999999,277.4220000000001,333.2359999999999L276.1550000000001,332.8749999999999C276.1550000000001,332.8749999999999,272.6260000000001,329.79899999999986,270.9980000000001,328.98399999999987S268.7360000000001,327.98899999999986,268.7360000000001,327.98899999999986S267.4700000000001,326.26899999999983,268.19400000000013,324.36999999999983S270.72700000000015,320.7529999999998,270.18400000000014,318.48999999999984S270.99800000000016,306.2769999999998,271.08800000000014,305.2819999999998S273.35000000000014,301.9239999999998,274.07300000000015,301.7029999999998S278.244,301.563,278.244,301.563Z"
    stroke-width="1"
    stroke-linejoin="round"
    style="-webkit-tap-highlight-color: rgba(0, 0, 0, 0); stroke-linejoin: round;"></path>
  <path
    fill="#cccccc"
    stroke="#222222"
    d="M283.211,299.48C283.211,299.48,280.647,302.36400000000003,278.244,301.56300000000005S272.39700000000005,297.11800000000005,272.39700000000005,297.11800000000005S274.15900000000005,294.03600000000006,273.7180000000001,291.67300000000006S272.39700000000005,283.10200000000003,272.39700000000005,283.10200000000003S266.16800000000006,263.50100000000003,264.58400000000006,262.41700000000003S259.9170000000001,260.50000000000006,259.9170000000001,260.50000000000006V258.16700000000003L262.4160000000001,256.41700000000003L262.3330000000001,254.25000000000003L273.75000000000006,245.16700000000003L271.00000000000006,244.33300000000003H269.91600000000005L268.50000000000006,241.25000000000003L267.8330000000001,238.25000000000003L266.00000000000006,229.25000000000003L264.0830000000001,222.83300000000003L263.00000000000006,220.08300000000003L261.25000000000006,218.41700000000003H259.50000000000006C259.50000000000006,218.41700000000003,256.91700000000003,215.74900000000002,257.00000000000006,213.83300000000003S260.0830000000001,208.91700000000003,260.0830000000001,208.91700000000003L260.5830000000001,202.91700000000003L261.4160000000001,201.00800000000004L261.1660000000001,199.91700000000003H258.2500000000001L254.9160000000001,195.58300000000003C254.9160000000001,195.58300000000003,249.83400000000012,194.48100000000002,247.41700000000012,191.574S240.5000000000001,182.93,240.5000000000001,182.93S237.5830000000001,182.249,236.7500000000001,181.249S233.33400000000012,171.666,233.08400000000012,170.832S232.4930000000001,166.65699999999998,232.4930000000001,166.65699999999998L235.1580000000001,164.189L237.8340000000001,161.28L238.98200000000008,159.345L240.0550000000001,157.81L240.8710000000001,157.268L242.4660000000001,156.921H244.1140000000001L245.35700000000008,156.885L248.0240000000001,157.128L250.04100000000008,155.40499999999997L250.84800000000007,157.03399999999996L252.06700000000006,159.28899999999996L253.55900000000005,161.14599999999996L254.76700000000005,162.51899999999995L255.43700000000004,163.24799999999996L252.34300000000005,168.69399999999996L262.499,174.12299999999996L260.874,177.62299999999996L266.624,178.99799999999996L272.529,180.90899999999996L276.628,182.20299999999997C276.628,182.20299999999997,280.53499999999997,183.325,281.62399999999997,182.92899999999997S284.22499999999997,181.62599999999998,284.22499999999997,181.62599999999998L286.248,180.325L287.526,179.928L287.521,182.3L288.777,183.553L290.715,184.307L290.58099999999996,186.93599999999998V190.45699999999997L286.31899999999996,200.39199999999997L291.22499999999997,205.94299999999996L291.64599999999996,206.38499999999996C291.64599999999996,206.38499999999996,291.364,209.07699999999997,292.032,210.40799999999996S293.46299999999997,212.47899999999996,293.46299999999997,212.47899999999996S296.537,213.71199999999996,297.20799999999997,214.08199999999997S297.866,214.62599999999998,297.866,214.62599999999998L297.592,218.51899999999998L300.26099999999997,217.67L301.246,218.527L303.349,218.624L307.38,222.767L310.777,226.625C310.777,226.625,315.84,233.198,316.109,233.595S316.46,236.599,316.46,236.599L319.63399999999996,238.302L318.955,240.754L315.984,247.81699999999998L318.42499999999995,263.065L321.65999999999997,265.639C321.65999999999997,265.639,324.366,265.639,325.55499999999995,266.89300000000003S326.74299999999994,268.14700000000005,326.74299999999994,268.14700000000005S329.31699999999995,266.95900000000006,330.5709999999999,268.41200000000003S333.6069999999999,271.05300000000005,333.6069999999999,271.05300000000005L334.2009999999999,271.84400000000005L329.5129999999999,275.87000000000006C329.5129999999999,275.87000000000006,328.6559999999999,277.98100000000005,330.10799999999995,278.24600000000004S334.20099999999996,277.78400000000005,334.20099999999996,277.78400000000005S336.44399999999996,279.434,337.69899999999996,278.31200000000007S338.95399999999995,277.19000000000005,338.95399999999995,277.19000000000005L342.58399999999995,277.78400000000005C342.58399999999995,277.78400000000005,344.30099999999993,279.8310000000001,343.64099999999996,280.75500000000005S342.58399999999995,281.54800000000006,342.98099999999994,283.72600000000006S343.24499999999995,287.75200000000007,342.91499999999996,288.28100000000006S341.794,291.84400000000005,341.727,292.10900000000004S338.756,296.40000000000003,338.756,296.40000000000003L336.64399999999995,295.74L334.5319999999999,291.582L332.6169999999999,290.92199999999997L331.82499999999993,288.47999999999996L325.42299999999994,288.215L325.29099999999994,293.23199999999997L322.98099999999994,293.364L322.25399999999996,295.67499999999995L320.27399999999994,293.893L317.17099999999994,295.54299999999995L317.6329999999999,297.52299999999997L317.7659999999999,298.051L314.8619999999999,297.589L314.2679999999999,295.477L311.4959999999999,294.55199999999996L311.0999999999999,292.83599999999996L309.5809999999999,292.109L309.2509999999999,289.53499999999997L310.17599999999993,287.489C310.17599999999993,287.489,310.24099999999993,285.575,309.1189999999999,286.169S307.40399999999994,286.49899999999997,307.40399999999994,286.49899999999997L305.3569999999999,284.65C305.3569999999999,284.65,301.39699999999993,285.443,301.1989999999999,285.707S300.6709999999999,289.205,300.6709999999999,289.205L300.4729999999999,290.327L297.6349999999999,290.261C297.6349999999999,290.261,294.4009999999999,292.901,293.40999999999985,294.88100000000003S288.9209999999999,298.446,288.9209999999999,298.446L288.5269999999999,299.10400000000004L283.211,299.48Z"
    stroke-width="1"
    stroke-linejoin="round"
    style="-webkit-tap-highlight-color: rgba(0, 0, 0, 0); stroke-linejoin: round;"></path>
  <path
    fill="#cccccc"
    stroke="#222222"
    d="M243.679,256.044C243.679,256.044,242.651,251.33399999999997,244.193,249.61999999999998S244.107,246.878,244.193,245.59399999999997S245.906,242.51099999999997,245.906,242.51099999999997S247.019,247.30799999999996,246.762,247.47899999999996S245.95,255.53099999999995,245.072,256.044S243.679,256.044,243.679,256.044Z"
    stroke-width="1"
    stroke-linejoin="round"
    style="-webkit-tap-highlight-color: rgba(0, 0, 0, 0); stroke-linejoin: round;"></path>
  <path
    fill="#cccccc"
    stroke="#222222"
    d="M243.85,259.813L247.619,255.61599999999999C247.619,255.61599999999999,249.829,254.53199999999998,249.538,256.27299999999997S246.80100000000002,261.955,246.80100000000002,261.955L245.73600000000002,264.438L242.90900000000002,264.781L243.85,259.813Z"
    stroke-width="1"
    stroke-linejoin="round"
    style="-webkit-tap-highlight-color: rgba(0, 0, 0, 0); stroke-linejoin: round;"></path>
  <path
    fill="#cccccc"
    stroke="#222222"
    d="M229.446,165.174C229.446,165.174,227.832,157.972,228.005,155.959S228.465,152.29,228.465,152.29S230.823,147.909,232.203,144.74599999999998S236.4,135.891,237.953,130.48399999999998S240.424,119.15899999999998,240.424,119.15899999999998L243.99200000000002,120.08299999999998C243.99200000000002,120.08299999999998,245.12400000000002,120.18899999999998,246.86900000000003,119.15899999999998S251.30900000000003,116.97399999999998,251.95300000000003,116.86499999999998S252.73300000000003,116.86499999999998,252.73300000000003,116.86499999999998L249.68000000000004,113.48299999999998L251.11300000000003,111.74399999999997L252.95400000000004,111.28399999999998L253.67000000000004,109.95399999999998C253.67000000000004,109.95399999999998,255.70700000000005,111.64199999999998,256.22800000000007,112.30699999999997S257.4530000000001,113.70099999999998,257.39400000000006,115.19199999999998S256.74000000000007,117.01299999999998,256.74000000000007,117.01299999999998L260.0130000000001,117.62699999999998L260.1160000000001,121.71799999999998L263.6960000000001,124.93999999999997L261.49700000000007,127.90699999999997L261.5010000000001,130.94499999999996L261.32900000000006,131.61499999999995L259.8040000000001,130.95399999999995C259.8040000000001,130.95399999999995,257.80000000000007,130.36499999999995,257.21600000000007,130.81199999999995S255.48000000000008,132.20699999999997,255.50600000000006,133.01599999999996S256.37200000000007,136.12999999999997,256.37200000000007,136.12999999999997S258.2290000000001,138.14599999999996,258.38000000000005,138.46699999999996S258.70200000000006,139.36499999999995,258.70200000000006,139.36499999999995S257.27200000000005,140.58399999999995,256.65600000000006,141.21899999999997S255.54300000000006,142.85599999999997,255.84000000000006,143.30199999999996S259.16200000000003,145.75799999999995,259.16200000000003,145.75799999999995S260.1,145.90099999999995,259.92300000000006,146.95199999999994S258.84100000000007,148.78599999999994,258.39000000000004,149.07699999999994S256.20500000000004,151.01499999999993,255.04600000000005,149.13199999999995S252.81000000000006,145.37599999999995,252.81000000000006,145.37599999999995L251.81400000000005,143.36599999999996C251.81400000000005,143.36599999999996,251.25800000000004,142.95699999999997,250.53700000000006,143.52599999999995S246.91200000000006,146.12699999999995,246.91200000000006,146.12699999999995S246.41400000000007,149.07699999999994,246.65900000000008,149.80499999999995S249.97400000000007,155.28199999999995,249.97400000000007,155.28199999999995L248.02700000000007,157.13199999999995C248.02700000000007,157.13199999999995,242.03900000000007,156.29199999999994,240.40400000000008,157.52899999999994S239.34300000000007,159.53999999999994,237.35500000000008,161.88199999999995S231.74300000000008,167.31699999999995,231.74300000000008,167.31699999999995L229.446,165.174Z"
    stroke-width="1"
    stroke-linejoin="round"
    style="-webkit-tap-highlight-color: rgba(0, 0, 0, 0); stroke-linejoin: round;"></path>
  <path
    fill="#cccccc"
    stroke="#222222"
    d="M261.501,131.542L265.084,132.292C265.084,132.292,265.126,131.459,266.918,129.125S269.25100000000003,126.75,271.75100000000003,127.292S274.91700000000003,130.792,274.91700000000003,130.792L276.25100000000003,130.834L276.41700000000003,130.542C276.41700000000003,130.542,276.12600000000003,129.5,276.334,126.709S279.001,125.584,279.001,127.084S281.084,129.042,281.584,128.584S282.168,126.417,282.168,126.417S282.25100000000003,125.75,283.668,124.584S285.293,125.751,285.293,125.751S285.75100000000003,126.334,284.793,127.126S284.043,129.043,285.584,129.043S286.918,128.376,286.918,128.376S286.668,124.668,287.209,123.834S289.376,126.167,289.376,126.167S291.709,123.875,292.167,123.125S292.751,121.958,292.667,120.958S290.70899999999995,119.958,290.70899999999995,119.958L290.6259999999999,122.25L289.7919999999999,122.667C289.7919999999999,122.667,289.0839999999999,121.792,288.3339999999999,121.709S286.12599999999986,122.209,286.12599999999986,122.209S285.2089999999999,119.626,285.5839999999999,118.376S286.0839999999999,118.043,286.7089999999999,117.751S287.12599999999986,117.001,287.12599999999986,117.001S286.50099999999986,114.959,287.25099999999986,112.918S291.66699999999986,112.96000000000001,293.04199999999986,114.71000000000001S292.66699999999986,116.543,292.66699999999986,116.543L294.45899999999983,118.293L295.42199999999985,117.29700000000001L296.57599999999985,117.361L298.49899999999985,118.57900000000001L298.5629999999999,119.412L299.7159999999999,120.30900000000001L300.5499999999999,119.86000000000001L301.1259999999999,118.45000000000002L303.36999999999995,118.12900000000002L304.33099999999996,119.53900000000002C304.33099999999996,119.53900000000002,305.03599999999994,121.65500000000002,305.29299999999995,123.00100000000002S307.98599999999993,124.15400000000002,307.98599999999993,124.15400000000002S309.71599999999995,122.55100000000003,310.5489999999999,123.00000000000003S317.15199999999993,128.19200000000004,317.15199999999993,128.19200000000004L321.3189999999999,128.76900000000003L324.2039999999999,130.82000000000002L328.2419999999999,131.204L328.8189999999999,129.858C328.8189999999999,129.858,331.6389999999999,126.20400000000001,332.7929999999999,125.691S336.2549999999999,127.87100000000001,336.2549999999999,127.87100000000001L339.97199999999987,127.614C339.97199999999987,127.614,341.4469999999999,126.524,343.75399999999985,127.037S345.99699999999984,129.409,345.99699999999984,129.409S346.57399999999984,129.409,347.15099999999984,128.832S350.54799999999983,128.255,350.54799999999983,128.255L352.08599999999984,131.268L354.4159999999998,133.832L352.6229999999998,172.499L348,171.875L346.125,170.25L343.375,172.5L340.625,170.625L338.875,171.625L333,170.875V169.125L331,167.5L330.125,165.625L327.625,165L325.75,162.5L321.625,164.25L318.75,164.75L318,166L314.25,164.125L311.427,163.5V162.25L309.875,172.5L308.625,179.125H304.375L303.375,180.25C303.375,180.25,301.75,176.875,301.125,176.875S299.086,176.25,297.668,177.75S295.25,180.25,295.25,180.25S292.75,179.875,291,179.5S285.875,180.375,285,181S282.875,183.25,279.625,182.875S268.5,179.375,266.625,179S260.875,177.625,260.875,177.625L262.5,174.125L252.318,168.683L255.437,163.25C255.437,163.25,251.37400000000002,158.943,250.99900000000002,157.472S247.24900000000002,150.75,246.74900000000002,150S246.74900000000002,146.261,246.74900000000002,146.261S250.99900000000002,142.596,251.74900000000002,143.298S252.62400000000002,145.50300000000001,253.87400000000002,147.501S255.99900000000002,150.625,258.124,149.25S261.494,146.636,258.46200000000005,145.221S255.27900000000005,142.695,256.13800000000003,141.734S258.15900000000005,140.167,258.51300000000003,139.20700000000002S256.74300000000005,136.83200000000002,256.18800000000005,135.82200000000003S254.92600000000004,132.53700000000003,256.24000000000007,131.52700000000004S259.1190000000001,130.41500000000005,259.82700000000006,130.81900000000005S261.501,131.542,261.501,131.542Z"
    stroke-width="1"
    stroke-linejoin="round"
    style="-webkit-tap-highlight-color: rgba(0, 0, 0, 0); stroke-linejoin: round;"></path>
  <path
    fill="#cccccc"
    stroke="#222222"
    d="M239.063,77.063L245.063,78.188L255.75099999999998,70.188C255.75099999999998,70.188,258.06399999999996,74.063,260.18899999999996,72.313S262.31399999999996,70.563,262.31399999999996,70.563L272.68899999999996,72.376C272.68899999999996,72.376,273.56399999999996,71.626,276.00199999999995,71.626S282.93999999999994,73.68900000000001,282.93999999999994,73.68900000000001S284.62799999999993,74.93900000000001,283.00299999999993,76.25200000000001S280.12799999999993,77.62700000000001,280.12799999999993,77.62700000000001L281.8159999999999,78.927C281.8159999999999,78.927,286.7539999999999,76.852,291.1909999999999,78.927S297.3789999999999,81.93900000000001,297.3789999999999,81.93900000000001L296.5039999999999,78.876C296.5039999999999,78.876,297.5039999999999,77.376,298.4419999999999,77.251S301.4419999999999,77.81400000000001,301.4419999999999,77.81400000000001L302.0049999999999,85.31400000000001H313.06799999999987C313.06799999999987,85.31400000000001,313.63099999999986,83.876,314.75599999999986,84.56400000000001S316.81899999999985,85.31400000000001,316.81899999999985,85.31400000000001L320.44399999999985,81.81400000000001L320.94399999999985,79.81400000000001L326,77.25C326,77.25,326.875,76.875,325.562,75.75S325.062,73.375,325.062,73.375L326.937,72.375L329.687,69.062C329.687,69.062,331.875,71,332.562,71.687S338.25,72.312,338,73.375S333.875,84.938,333.937,86.313S337.312,89.438,337.687,88.313S340.375,82.25,342.125,81S345.5,80.562,347.438,79.437S352.188,76.749,352.188,76.749L356.27299999999997,78.92399999999999L354.419,133.832L352.089,131.268L350.551,128.255C350.551,128.255,347.731,128.255,347.154,128.832S346,129.409,346,129.409S346.064,127.55099999999999,343.757,127.03699999999999S339.975,127.61399999999999,339.975,127.61399999999999L336.25800000000004,127.871C336.25800000000004,127.871,333.949,125.179,332.79600000000005,125.69099999999999S328.82200000000006,129.85799999999998,328.82200000000006,129.85799999999998L328.24500000000006,131.20399999999998L324.20700000000005,130.82L321.32200000000006,128.769L317.1550000000001,128.192C317.1550000000001,128.192,311.3850000000001,123.44800000000001,310.5520000000001,123S307.9890000000001,124.154,307.9890000000001,124.154S305.5520000000001,124.347,305.2960000000001,123.00099999999999S304.3340000000001,119.53899999999999,304.3340000000001,119.53899999999999L303.3730000000001,118.12899999999999L301.1290000000001,118.44999999999999L300.55300000000005,119.85999999999999L299.71900000000005,120.30899999999998L298.56600000000003,119.41199999999998L298.502,118.57899999999998L296.579,117.36099999999998L295.425,117.29699999999998L294.462,118.29299999999998L292.67,116.54299999999998C292.67,116.54299999999998,294.42,116.45999999999998,293.045,114.70999999999998S288.004,110.87599999999998,287.254,112.91799999999998S287.126,117,287.126,117S287.334,117.458,286.709,117.75S285.959,117.125,285.584,118.375S286.126,122.208,286.126,122.208S287.584,121.625,288.334,121.708S289.79200000000003,122.666,289.79200000000003,122.666L290.62600000000003,122.249L290.70900000000006,119.957C290.70900000000006,119.957,292.5830000000001,119.957,292.6670000000001,120.957S292.6250000000001,122.374,292.1670000000001,123.124S289.3760000000001,126.166,289.3760000000001,126.166S287.7500000000001,123,287.2090000000001,123.833S286.9180000000001,128.375,286.9180000000001,128.375S287.1250000000001,129.042,285.5840000000001,129.042S283.8350000000001,127.917,284.7930000000001,127.125S285.2930000000001,125.75,285.2930000000001,125.75S285.0850000000001,123.417,283.6680000000001,124.583S282.1680000000001,126.416,282.1680000000001,126.416S282.0840000000001,128.125,281.5840000000001,128.583S279.0010000000001,128.583,279.0010000000001,127.083S276.5420000000001,123.916,276.3340000000001,126.708S276.41700000000014,130.541,276.41700000000014,130.541L276.25100000000015,130.833L274.91700000000014,130.791C274.91700000000014,130.791,274.25100000000015,127.833,271.75100000000015,127.291S268.71000000000015,126.791,266.9180000000001,129.124S265.0840000000001,132.291,265.0840000000001,132.291L261.5010000000001,131.541L261.4960000000001,127.904L263.6950000000001,124.937L260.1150000000001,121.715L260.0120000000001,117.62400000000001L256.7390000000001,117.01C256.7390000000001,117.01,258.5290000000001,114.81,256.2270000000001,112.304S253.6690000000001,109.95100000000001,253.6690000000001,109.95100000000001L252.9530000000001,111.281L251.11200000000008,111.741L249.6790000000001,113.48L252.59500000000008,116.753C252.59500000000008,116.753,250.75300000000007,116.958,248.96300000000008,117.93S245.33200000000008,120.385,243.69500000000008,120.027S240.42200000000008,119.157,240.42200000000008,119.157S241.24800000000008,111.832,241.41500000000008,110.082S240.99800000000008,99.16499999999999,240.91500000000008,96.41499999999999S240,82,240,82L239.063,77.063Z"
    stroke-width="1"
    stroke-linejoin="round"
    style="-webkit-tap-highlight-color: rgba(0, 0, 0, 0); stroke-linejoin: round;"></path>
  <path
    fill="#cccccc"
    stroke="#222222"
    d="M356.272,78.925L357.161,54.678L357.868,34.412C357.868,34.412,356.798,34.568999999999996,356.272,35.747S356.296,37.868,355.197,38.025S353.15500000000003,36.217999999999996,353.39,35.589999999999996S354.65299999999996,33.153999999999996,353.354,32.68299999999999S350.012,31.975999999999992,350.012,31.975999999999992S346.4,30.011999999999993,345.614,30.482999999999993S343.41499999999996,31.189999999999994,343.41499999999996,31.189999999999994L341.05799999999994,30.953999999999994C341.05799999999994,30.953999999999994,340.5319999999999,26.59199999999999,339.12499999999994,25.96699999999999S330.46899999999994,25.278999999999993,330.46899999999994,25.278999999999993L327.56299999999993,24.840999999999994L325.12499999999994,22.684999999999995C325.12499999999994,22.684999999999995,323.68699999999995,23.153999999999996,323.90599999999995,24.528999999999996S324.7989999999999,30.091999999999995,323.88399999999996,29.309999999999995S319.84399999999994,26.403999999999996,318.78099999999995,26.590999999999994S315.62499999999994,28.121999999999993,314.74999999999994,28.653999999999993S312.59399999999994,28.872999999999994,312.59399999999994,28.872999999999994S311.87499999999994,25.341999999999995,308.74999999999994,25.778999999999993S304.03099999999995,27.68499999999999,302.68699999999995,27.09199999999999S298.87399999999997,23.46699999999999,297.65599999999995,24.185999999999993S295.87499999999994,26.96699999999999,295.87499999999994,27.654999999999994S294.03099999999995,29.592999999999993,293.34399999999994,28.029999999999994S293.49999999999994,24.435999999999993,291.49999999999994,24.966999999999995S287.46899999999994,26.654999999999994,287.46899999999994,26.654999999999994L285.15599999999995,26.498999999999995V28.811999999999994C285.15599999999995,28.811999999999994,285.74999999999994,30.374999999999993,284.74999999999994,29.874999999999993S282.56199999999995,28.436999999999994,282.56199999999995,28.436999999999994S283.12499999999994,25.123999999999995,280.87399999999997,25.998999999999995S275.561,28.061999999999994,275.561,28.061999999999994S273.311,25.998999999999995,270.873,25.873999999999995S266.81,25.435999999999996,266.81,25.435999999999996S260.935,19.435999999999996,258.81,18.247999999999998S253.06,14.747999999999998,253.06,14.747999999999998S249.497,15.747999999999998,249.31,15.997999999999998S247.872,16.060999999999996,247.56,14.747999999999998S246.372,11.184999999999997,244.747,11.122999999999998S242.05900000000003,14.122999999999998,241.93400000000003,14.372999999999998S239.55900000000003,15.247999999999998,238.05900000000003,13.059999999999997S234.68400000000003,7.809999999999997,233.80900000000003,10.434999999999997S232.87100000000004,15.747999999999998,232.87100000000004,15.747999999999998S230.74600000000004,18.997999999999998,229.55800000000005,19.060999999999996S227.30800000000005,17.747999999999998,226.30800000000005,17.560999999999996S224.12000000000006,18.498999999999995,223.93300000000005,18.560999999999996S216.68300000000005,16.435999999999996,216.68300000000005,16.435999999999996S210.99500000000006,16.060999999999996,210.43300000000005,17.248999999999995S209.62000000000006,20.248999999999995,210.43300000000005,20.998999999999995S217.93300000000005,23.498999999999995,218.99600000000004,24.561999999999994S223.68400000000003,28.061999999999994,223.68400000000003,28.061999999999994L225.55900000000003,28.311999999999994C225.55900000000003,28.311999999999994,228.30900000000003,31.999999999999993,229.05900000000003,33.99999999999999S234,45.188,234,45.188L235.75,45.876000000000005C235.75,45.876000000000005,238.125,56.501000000000005,238,58.001000000000005S239.063,77.06400000000001,239.063,77.06400000000001L245.063,78.18900000000001L255.75099999999998,70.18900000000001C255.75099999999998,70.18900000000001,258.06399999999996,74.06400000000001,260.18899999999996,72.31400000000001S262.31399999999996,70.56400000000001,262.31399999999996,70.56400000000001L272.68899999999996,72.37700000000001C272.68899999999996,72.37700000000001,273.56399999999996,71.62700000000001,276.00199999999995,71.62700000000001S282.93999999999994,73.69000000000001,282.93999999999994,73.69000000000001S284.62799999999993,74.94000000000001,283.00299999999993,76.25300000000001S280.12799999999993,77.62800000000001,280.12799999999993,77.62800000000001L281.8159999999999,78.92800000000001C281.8159999999999,78.92800000000001,286.7539999999999,76.85300000000001,291.1909999999999,78.92800000000001S297.3789999999999,81.94000000000001,297.3789999999999,81.94000000000001L296.5039999999999,78.87700000000001C296.5039999999999,78.87700000000001,297.5039999999999,77.37700000000001,298.4419999999999,77.25200000000001S301.4419999999999,77.81500000000001,301.4419999999999,77.81500000000001L302.0049999999999,85.31500000000001H313.06799999999987C313.06799999999987,85.31500000000001,313.63099999999986,83.87700000000001,314.75599999999986,84.56500000000001S316.81899999999985,85.31500000000001,316.81899999999985,85.31500000000001L320.44399999999985,81.81500000000001L320.94399999999985,79.81500000000001L326,77.25C326,77.25,326.875,76.875,325.562,75.75S325.062,73.375,325.062,73.375L326.937,72.375L329.687,69.062C329.687,69.062,331.875,71,332.562,71.687S338.25,72.312,338,73.375S333.875,84.938,333.937,86.313S337.312,89.438,337.687,88.313S340.375,82.25,342.125,81S345.5,80.562,347.438,79.437S352.188,76.749,352.188,76.749L356.272,78.925Z"
    stroke-width="1"
    stroke-linejoin="round"
    style="-webkit-tap-highlight-color: rgba(0, 0, 0, 0); stroke-linejoin: round;"></path>
  <path
    fill="#cccccc"
    stroke="#222222"
    d="M188.755,198.557C188.755,198.557,186.055,203.582,184.07399999999998,206.696S181.01299999999998,209.089,179.843,213.769S175.523,231.05200000000002,175.25199999999998,232.132S173.271,237.534,172.641,238.434S171.471,241.224,171.471,241.224V244.64499999999998C171.471,244.64499999999998,165.26,250.22599999999997,164.809,254.277S166.249,259.67699999999996,165.439,260.757S162.289,263.907,162.289,263.907L156.88799999999998,260.48699999999997V257.15599999999995L153.10699999999997,250.58499999999995C153.10699999999997,250.58499999999995,150.76699999999997,248.33399999999995,148.33599999999998,246.98399999999995S144.378,244.59399999999997,144.378,244.59399999999997L150.047,234.74099999999996L149.94899999999998,232.44699999999995H154.367C154.367,232.44699999999995,155.7,232.04499999999996,155.86999999999998,230.98699999999994S155.04699999999997,228.78599999999994,155.04699999999997,228.78599999999994L154.68999999999997,227.11999999999995L151.84299999999996,224.58999999999995L151.54299999999995,222.12199999999996C151.54299999999995,222.12199999999996,151.44799999999995,220.64899999999994,149.68799999999996,219.91199999999995S146.52699999999996,219.21399999999994,146.52699999999996,219.21399999999994L144.20099999999996,219.78099999999995L142.87899999999996,218.05899999999994L142.80399999999997,215.49399999999994L144.17399999999998,214.94499999999994L144.34199999999998,214.72499999999994L143.49599999999998,213.55599999999993L143.00599999999997,212.77999999999992C143.00599999999997,212.77999999999992,142.71999999999997,211.49399999999991,143.78899999999996,211.6069999999999S146.50099999999995,212.14899999999992,147.54599999999996,211.60199999999992S153.61199999999997,208.4819999999999,153.61199999999997,208.4819999999999S154.54699999999997,208.2589999999999,155.14599999999996,208.8679999999999S156.70399999999995,210.14999999999992,157.28799999999995,209.28699999999992S158.33599999999996,207.4519999999999,158.33599999999996,207.4519999999999S159.20999999999995,206.78199999999993,159.98299999999995,206.6939999999999S161.85499999999996,206.3479999999999,161.85499999999996,206.3479999999999S162.34299999999996,205.0489999999999,162.11899999999997,204.1119999999999S162.15999999999997,203.22099999999992,162.53999999999996,202.66199999999992S165.72599999999997,198.99099999999993,165.72599999999997,198.99099999999993L164.57199999999997,197.33199999999994L167.38499999999996,192.28199999999993L158.65699999999995,182.39999999999992L166.69499999999996,173.02999999999992L169.76599999999996,174.2489999999999L171.64499999999995,172.8369999999999C171.64499999999995,172.8369999999999,172.56599999999995,173.2019999999999,173.14499999999995,173.50599999999991S178.40499999999994,173.6999999999999,179.20599999999996,173.73999999999992S180.90899999999996,173.36899999999991,181.61399999999995,174.64499999999992S182.31799999999996,177.4579999999999,182.31799999999996,177.4579999999999L186.71799999999996,176.1959999999999L187.16799999999995,178.7199999999999L189.57499999999996,178.89299999999992C189.57499999999996,178.89299999999992,189.64599999999996,180.76799999999992,190.24699999999996,181.7949999999999S192.37099999999995,183.7429999999999,191.20299999999995,186.2549999999999S190.70699999999994,188.0939999999999,190.31799999999996,192.2359999999999S188.755,198.557,188.755,198.557Z"
    stroke-width="1"
    stroke-linejoin="round"
    style="-webkit-tap-highlight-color: rgba(0, 0, 0, 0); stroke-linejoin: round;"></path>
  <path
    fill="#cccccc"
    stroke="#222222"
    d="M186.276,218.373V213.16C186.276,213.16,187.982,211.994,190.04600000000002,208.404S192.31300000000002,203.647,192.31300000000002,203.647L194.354,201.94199999999998H197.405V204.634C197.405,204.634,198.93,204.903,199.11,207.057S199.11,210.737,199.11,210.737S198.661,211.994,198.57100000000003,213.519S198.21200000000002,215.942,198.21200000000002,215.942S196.866,217.662,195.07100000000003,218.37300000000002S188.34000000000003,219.48800000000003,188.43000000000004,221.84400000000002S188.87900000000005,224.64800000000002,188.52000000000004,226.26300000000003S187.89200000000005,229.58300000000003,186.27600000000004,229.13500000000005S184.03200000000004,226.53200000000004,184.21200000000005,225.54500000000004S184.18200000000004,220.07000000000005,184.18200000000004,220.07000000000005L186.276,218.373Z"
    stroke-width="1"
    stroke-linejoin="round"
    style="-webkit-tap-highlight-color: rgba(0, 0, 0, 0); stroke-linejoin: round;"></path>
  <path
    fill="#cccccc"
    stroke="#222222"
    d="M154.185,269.005C154.185,269.005,156.83,268.701,157.27,269.005S158.621,268.322,159.199,268.87S160.27300000000002,269.914,160.191,270.658S159.55700000000002,272.918,158.841,271.95300000000003S157.161,270.19000000000005,156.66500000000002,271.26500000000004S155.78300000000002,273.35900000000004,155.78300000000002,273.35900000000004L153.16600000000003,269.833C153.165,269.832,153.413,268.619,154.185,269.005Z"
    stroke-width="1"
    stroke-linejoin="round"
    style="-webkit-tap-highlight-color: rgba(0, 0, 0, 0); stroke-linejoin: round;"></path>
  <path
    fill="#cccccc"
    stroke="#222222"
    d="M189.457,178.723H187.005L186.716,176.199L182.316,177.461C182.316,177.461,182.298,174.03500000000003,180.39600000000002,173.818S173.58800000000002,173.818,173.58800000000002,173.818S172.074,172.73600000000002,171.85700000000003,172.73600000000002S169.76500000000001,174.251,169.76500000000001,174.251L166.591,173.213L158.656,182.40099999999998L167.38400000000001,192.283L164.57100000000003,197.333L165.72500000000002,198.992C165.72500000000002,198.992,161.54200000000003,202.959,162.11900000000003,204.113S161.75800000000004,206.493,161.75800000000004,206.493L159.98300000000003,206.695C159.98300000000003,206.695,160.90400000000002,203.916,159.09800000000004,202.374S157.29200000000003,200.832,157.29200000000003,200.832L155.83200000000002,201.09L154.26800000000003,198.967L149.75500000000002,192.95800000000003V190.76700000000002L148.45600000000002,189.58L146.442,189.19000000000003L146.62900000000002,179.50100000000003L146.47700000000003,179.29400000000004L145.12400000000002,177.87600000000003C145.12400000000002,177.87600000000003,144.30700000000002,176.51200000000003,144.42800000000003,176.32100000000003S144.12900000000002,176.01600000000002,144.54800000000003,175.48200000000003S146.23400000000004,173.21200000000002,146.23400000000004,173.21200000000002L147.03200000000004,172.602L146.80700000000004,169.27L145.47100000000003,169.12800000000001L145.54300000000003,167.471L143.93700000000004,167.623C143.93700000000004,167.623,142.76800000000003,165.721,142.91600000000005,165.00799999999998S143.64400000000006,162.85999999999999,143.64400000000006,162.85999999999999L145.02100000000007,160.898L146.64400000000006,159.106L147.78800000000007,158.043L149.33400000000006,158.74800000000002L149.59400000000005,157.04100000000003L150.07300000000006,156.85700000000003H151.65800000000007L151.08400000000006,154.747L153.47400000000005,153.76500000000001L157.25100000000003,152.08C157.25100000000003,152.08,159.27900000000002,151.36,160.16200000000003,151.412S161.25100000000003,151.497,161.25100000000003,151.497S163.87100000000004,148.55100000000002,165.22900000000004,148.268S166.88700000000003,148.542,167.13300000000004,148.989S167.58500000000004,149.997,167.58500000000004,149.997L170.21700000000004,149.179C170.21700000000004,149.179,170.93100000000004,149.075,171.46700000000004,149.286S173.92700000000005,149.694,174.80000000000004,149.143S176.67000000000004,147.904,176.67000000000004,147.904L180,146.75C180,146.75,181.506,147.271,181.302,149.321S180.429,154.145,180.429,154.145S180.798,157.137,181.06,158.038S183.556,164.566,183.556,164.566L185.108,168.462L185.406,168.683H188.719C188.719,168.683,189.53199999999998,167.74099999999999,190.40699999999998,168.683S192.313,170.844,192.313,170.844L189.457,178.723Z"
    stroke-width="1"
    stroke-linejoin="round"
    style="-webkit-tap-highlight-color: rgba(0, 0, 0, 0); stroke-linejoin: round;"></path>
  <path
    fill="#cccccc"
    stroke="#222222"
    d="M197.966,155.798C197.966,155.798,195.27200000000002,157.423,194.5,159.895S192.75,163.78,192.25,164.84S189.631,168.16,189.631,168.16L188.854,168.682H185.17000000000002C185.17000000000002,168.682,184.96800000000002,167.80599999999998,183.98000000000002,165.546S181.64900000000003,159.96599999999998,181.64900000000003,159.96599999999998S180.09500000000003,155.37499999999997,180.44800000000004,154.03199999999998S181.79000000000005,149.481,181.01300000000003,147.90699999999998S179.75400000000005,146.33999999999997,179.75400000000005,146.33999999999997L179.33600000000004,138.84599999999998L179.69400000000005,136.52199999999996C179.69400000000005,136.52199999999996,180.24700000000004,134.82399999999996,181.02100000000004,135.80899999999997S181.97100000000003,137.40099999999998,181.97100000000003,137.40099999999998L188.49900000000002,142.00099999999998L191.21800000000002,142.25099999999998L193.979,142.31799999999998L195.292,142.47299999999998L198.273,142.80499999999998C198.273,142.80499999999998,198.891,143.117,198.934,143.51799999999997S198.779,144.21899999999997,198.28,144.37599999999998S196.692,145.06499999999997,197.155,145.68899999999996S198.774,146.89299999999997,198.774,146.89299999999997L198.683,147.24799999999996L197.60899999999998,148.82699999999997C197.60899999999998,148.82699999999997,197.32299999999998,149.01099999999997,197.748,149.56399999999996S198.612,150.60599999999997,198.612,150.60599999999997L201.103,149.98899999999998C201.103,149.98899999999998,201.143,151.42,200.261,152.48799999999997S197.966,155.798,197.966,155.798Z"
    stroke-width="1"
    stroke-linejoin="round"
    style="-webkit-tap-highlight-color: rgba(0, 0, 0, 0); stroke-linejoin: round;"></path>
  <path
    fill="#cccccc"
    stroke="#222222"
    d="M194.5,129.75C194.5,129.75,202.258,133.89,204.007,134.356S212.226,134.53,213.45000000000002,135.522S215.257,137.384,214.03300000000002,139.834S209.25300000000001,142.167,208.32100000000003,143.508S205.11500000000004,149.978,205.11500000000004,149.978H201.15200000000004L198.58700000000005,150.502C198.58700000000005,150.502,197.12900000000005,149.336,197.71200000000005,148.637S198.93600000000004,146.83,198.93600000000004,146.83S196.89600000000004,146.247,197.07100000000003,145.31500000000003S198.93600000000004,144.20700000000002,198.93600000000004,144.20700000000002S199.40200000000004,142.69100000000003,197.36200000000002,142.633S191.15800000000002,141.919,191.15800000000002,141.919L192.81500000000003,138.21800000000002L192.25000000000003,132.08300000000003L194.5,129.75Z"
    stroke-width="1"
    stroke-linejoin="round"
    style="-webkit-tap-highlight-color: rgba(0, 0, 0, 0); stroke-linejoin: round;"></path>
  <path
    fill="#cccccc"
    stroke="#222222"
    d="M143.938,167.624L143.891,170.024L140.974,169.506L139.60899999999998,167.341V165.318H137.444L136.03199999999998,163.389L134.95,166.306L133.821,164.518L133.492,162.636L133.304,160.706L130.01,156.89399999999998C130.01,156.89399999999998,128.26899999999998,154.82399999999998,129.72799999999998,154.39999999999998S132.17499999999998,153.129,132.17499999999998,153.129L132.128,150.91799999999998L134.528,149.12999999999997C134.528,149.12999999999997,135.986,148.84699999999998,134.951,147.19999999999996S134.057,141.78799999999995,134.057,141.78799999999995S135.939,141.59999999999997,136.504,141.31799999999996S138.62199999999999,140.09399999999997,138.62199999999999,140.09399999999997S139.75099999999998,139.24699999999996,139.469,138.91799999999998S137.72799999999998,138.11799999999997,137.72799999999998,138.11799999999997L135.60999999999999,139.43499999999997C135.60999999999999,139.43499999999997,135.18699999999998,139.48199999999997,134.434,138.11799999999997S134.19899999999998,136.23599999999996,134.19899999999998,136.23599999999996L135.70499999999998,135.48299999999998L135.516,131.34199999999998L134.387,126.16599999999998L132.693,121.17699999999998C132.693,121.17699999999998,131.04600000000002,117.64799999999998,132.03400000000002,116.23699999999998S134.43400000000003,113.46099999999998,134.43400000000003,113.46099999999998S135.37500000000003,111.43799999999999,134.05800000000002,110.35499999999999S132.97500000000002,108.89599999999999,132.97500000000002,108.89599999999999L134.01000000000002,108.18999999999998C134.01000000000002,108.18999999999998,134.15200000000002,106.63699999999999,134.15200000000002,106.11999999999999S134.81,105.74399999999999,134.763,105.085S134.104,103.062,134.104,103.062L132.74,103.721L132.562,102.70100000000001L134.865,100.19300000000001C134.865,100.19300000000001,138.68900000000002,96.98600000000002,139.922,95.01200000000001S145.432,88.30900000000001,145.432,88.30900000000001S149.54399999999998,90.83900000000001,149.95499999999998,91.75300000000001S150.819,92.91500000000002,150.819,92.91500000000002S158.13899999999998,91.64000000000001,160.112,93.73700000000002S161.51,96.16300000000003,161.921,97.56100000000002S161.469,100.11100000000002,162.456,100.97400000000002S165.046,102.78300000000002,167.308,102.12500000000001S169.981,99.57600000000001,173.76399999999998,101.13800000000002S180.30299999999997,103.44100000000002,180.30299999999997,103.44100000000002L184.82599999999996,103.56500000000001C184.82599999999996,103.56500000000001,186.84199999999996,103.97600000000001,186.01899999999998,106.89600000000002S183.92,113.50000000000001,185.08599999999998,118.08400000000002S188.753,124.41700000000002,189.753,125.50100000000002S194.503,129.75100000000003,194.503,129.75100000000003L192.253,132.08400000000003L192.83599999999998,138.41700000000003L191,142.25L188.5,142L182,137.5C182,137.5,180.667,134.25,179.917,135.917S179.334,140.167,179.334,140.167L179.501,145.917L180.001,146.75C180.001,146.75,176.334,148,175.334,148.833S172,149.5,172,149.5S170.75,148.833,169.75,149.333S167.583,150,167.583,150S166.833,147,164.5,148.667S161.25,151.5,161.25,151.5S159.25,151.083,157.25,152.083S151.083,154.75,151.083,154.75L151.666,156.895C151.666,156.895,149.499,156.583,149.499,157.25S149.332,158.75,149.332,158.75S147.998,157.833,147.665,158.083S144.415,161.416,143.915,162.333S142.832,164.583,142.915,165.333S143.938,167.624,143.938,167.624Z"
    stroke-width="1"
    stroke-linejoin="round"
    style="-webkit-tap-highlight-color: rgba(0, 0, 0, 0); stroke-linejoin: round;"></path>
  <path
    fill="#cccccc"
    stroke="#222222"
    d="M83.228,287.023C83.228,287.023,82.55199999999999,283.932,83.228,281.90500000000003S86.607,276.11100000000005,86.607,277.946S85.642,284.127,85.255,284.899S83.228,287.023,83.228,287.023Z"
    stroke-width="1"
    stroke-linejoin="round"
    style="-webkit-tap-highlight-color: rgba(0, 0, 0, 0); stroke-linejoin: round;"></path>
  <path
    fill="#cccccc"
    stroke="#222222"
    d="M144.202,244.91L149.658,235.226V233.043L149.951,232.447H154.82299999999998C154.82299999999998,232.447,156.25199999999998,231.148,155.927,230.174S155.082,228.94,155.082,228.94L154.692,227.121L151.769,224.523L151.574,222.185C151.574,222.185,150.794,220.496,149.82000000000002,219.976S146.377,219.197,146.377,219.197L144.20100000000002,219.782L142.80400000000003,217.96300000000002V215.49500000000003L144.42800000000003,214.84500000000003L143.06400000000002,212.96100000000004C143.06400000000002,212.96100000000004,142.34900000000002,211.27300000000005,144.49300000000002,211.66200000000003S147.54600000000002,211.60300000000004,147.54600000000002,211.60300000000004L153.39200000000002,208.54300000000003C153.39200000000002,208.54300000000003,154.69100000000003,208.08900000000003,155.14600000000002,208.86800000000002S156.705,210.10200000000003,157.419,209.12800000000001S158.459,207.114,158.459,207.114L160.343,206.594C160.343,206.594,160.47199999999998,204.323,159.82299999999998,203.349S157.74399999999997,200.75,157.74399999999997,200.75L155.53599999999997,201.14L154.17199999999997,198.801L149.75499999999997,192.956L149.94999999999996,190.94199999999998L148.45599999999996,189.57799999999997L146.44199999999995,189.188L146.47699999999995,179.29199999999997L145.15999999999994,177.92699999999996C145.15999999999994,177.92699999999996,143.98299999999995,176.23299999999998,144.54799999999994,175.47999999999996S146.52499999999995,173.07999999999996,146.52499999999995,173.07999999999996L147.04299999999995,172.74999999999994L146.80799999999994,169.26799999999994H145.63199999999995L145.53799999999995,167.33899999999994L143.93799999999996,167.62099999999995L143.89099999999996,170.02099999999996L140.97399999999996,169.50299999999996L139.60899999999995,167.33799999999997V165.31499999999997H137.44399999999996L136.03199999999995,163.38599999999997L134.94999999999996,166.30299999999997L133.82099999999997,164.51499999999996L133.49199999999996,162.63299999999995L133.30399999999997,160.70299999999995L130.00999999999996,156.89099999999993C130.00999999999996,156.89099999999993,128.26899999999995,154.82099999999994,129.72799999999995,154.39699999999993S132.17499999999995,153.12599999999995,132.17499999999995,153.12599999999995L132.12799999999996,150.91499999999994L134.52799999999996,149.12699999999992C134.52799999999996,149.12699999999992,135.98599999999996,148.84399999999994,134.95099999999996,147.19699999999992S134.05699999999996,141.7849999999999,134.05699999999996,141.7849999999999S135.93899999999996,141.59699999999992,136.50399999999996,141.3149999999999S138.62199999999996,140.09099999999992,138.62199999999996,140.09099999999992S139.75099999999995,139.24399999999991,139.46899999999997,138.91499999999994S137.72799999999995,138.11499999999992,137.72799999999995,138.11499999999992L135.60999999999996,139.43199999999993C135.60999999999996,139.43199999999993,135.18699999999995,139.47899999999993,134.43399999999997,138.11499999999992S134.19899999999996,136.23299999999992,134.19899999999996,136.23299999999992L135.70499999999996,135.47999999999993L135.51599999999996,131.33899999999994L134.38699999999997,126.16299999999994L132.69299999999998,121.17399999999994C132.69299999999998,121.17399999999994,131.046,117.64499999999994,132.034,116.23399999999994S134.434,113.45799999999994,134.434,113.45799999999994S135.375,111.43499999999995,134.058,110.35199999999995S132.975,108.89299999999994,132.975,108.89299999999994L134.01,108.18699999999994C134.01,108.18699999999994,134.152,106.63399999999994,134.152,106.11699999999995S134.80999999999997,105.74099999999994,134.76299999999998,105.08199999999995S134.10399999999998,103.05899999999995,134.10399999999998,103.05899999999995L132.73999999999998,103.71799999999996C132.73999999999998,103.71799999999996,131.23399999999998,100.51799999999996,129.44599999999997,102.35299999999997S126.95199999999997,104.09399999999997,126.95199999999997,104.09399999999997L126.24599999999997,103.38799999999996L123.42299999999997,103.43499999999996C123.42299999999997,103.43499999999996,121.77599999999997,102.25799999999995,120.50599999999997,102.35199999999996S117.11799999999997,105.12799999999996,115.23599999999998,105.64599999999996S111.32999999999997,107.95199999999996,107.94299999999997,105.78699999999996S104.74299999999997,103.38699999999996,104.74299999999997,103.38699999999996L105.25999999999996,99.81099999999996L105.07199999999996,99.01099999999997C105.07199999999996,99.01099999999997,104.17799999999995,100.09399999999997,102.53099999999996,100.13999999999997S99.98999999999997,99.52799999999998,99.98999999999997,99.52799999999998L99.42599999999997,96.79899999999998C99.42599999999997,96.79899999999998,97.96799999999998,95.95199999999998,97.11999999999998,96.79899999999998S95.66199999999998,98.02299999999998,94.01499999999997,97.31699999999998S92.22699999999998,95.95199999999998,92.22699999999998,95.95199999999998L91.75599999999997,95.24599999999998L92.03799999999997,93.97499999999998L91.75599999999997,92.18599999999998C91.75599999999997,92.18599999999998,90.62699999999997,91.19799999999998,89.68499999999997,92.18599999999998S83.75599999999997,93.54999999999998,83.47399999999998,94.67999999999998S83.47399999999998,98.39699999999998,83.47399999999998,98.39699999999998L87.75599999999997,101.12599999999998C87.75599999999997,101.12599999999998,86.86099999999998,104.13699999999997,87.70899999999997,105.07899999999998S89.87399999999998,111.24399999999999,88.97999999999998,112.84399999999998S85.82799999999997,114.16099999999997,85.35699999999997,115.38499999999998S84.88599999999997,117.64399999999998,84.88599999999997,117.64399999999998S86.43799999999997,118.44399999999997,86.76799999999997,119.00899999999997S86.86199999999997,120.79699999999997,86.06199999999997,122.20899999999997S81.87399999999997,126.49099999999997,81.87399999999997,126.49099999999997L86.20299999999996,126.96199999999997L88.69699999999996,128.938L92.64999999999996,128.98499999999999C92.64999999999996,128.98499999999999,93.35599999999997,129.408,93.77899999999997,130.255S93.59099999999997,133.031,93.59099999999997,133.031L95.14399999999996,134.81900000000002L97.44999999999996,134.96C97.44999999999996,134.96,96.31699999999996,139.994,96.50499999999997,141.994S95.81699999999996,147.932,94.87999999999997,149.494S93.37999999999997,154.494,93.50499999999997,155.619S93.12999999999997,157.744,92.12999999999997,160.682S91.62999999999997,165.36999999999998,91.00499999999997,165.932S90.625,166.5,90.625,169S89.687,173.188,90.187,176.188S92.437,184.00099999999998,92.937,186.438S93.812,190.313,93.812,190.313L95.625,192.12599999999998L96.875,217.50099999999998C96.875,217.50099999999998,98.5,219.87599999999998,98.563,220.93899999999996S97.625,224.43899999999996,96.5,223.87699999999995S93.937,222.00199999999995,92.375,222.87699999999995S88.687,225.37699999999995,88.687,225.37699999999995S89.75,228.62699999999995,89.375,231.18999999999994S88.625,234.62799999999993,86.062,237.75299999999993S83.187,243.69099999999992,83.374,244.06599999999992S86.624,248.06599999999992,86.624,248.06599999999992S86.56099999999999,251.3789999999999,86.812,252.0039999999999S89.562,256.3789999999999,90.25,253.7539999999999S90.438,247.3789999999999,90.438,247.3789999999999S90.876,244.7539999999999,92.563,244.19099999999992S98.313,242.62799999999993,101.626,244.2539999999999S106.31400000000001,246.1289999999999,106.31400000000001,246.1289999999999S106.93900000000001,243.7539999999999,110.50200000000001,243.6289999999999S115.81500000000001,244.1289999999999,116.25200000000001,244.8169999999999S119.19000000000001,243.4419999999999,119.19000000000001,243.4419999999999L119.31500000000001,239.7539999999999L122.81500000000001,239.31599999999992C122.81500000000001,239.31599999999992,127.56500000000001,240.56599999999992,129.44,242.3789999999999S132.003,244.6919999999999,132.003,244.6919999999999L133.003,246.6919999999999L135.19099999999997,249.12999999999988L136.44099999999997,249.94299999999987L137.31599999999997,248.50499999999988L138.00399999999996,246.9419999999999L137.813,246L143.063,245.062L144.202,244.91Z"
    stroke-width="1"
    stroke-linejoin="round"
    style="-webkit-tap-highlight-color: rgba(0, 0, 0, 0); stroke-linejoin: round;"></path>
  <path
    fill="#cccccc"
    stroke="#222222"
    d="M83.228,287.023C83.228,287.023,82.55199999999999,283.932,83.228,281.90500000000003S86.607,276.11100000000005,86.607,277.946S85.642,284.127,85.255,284.899S83.228,287.023,83.228,287.023Z"
    stroke-width="1"
    stroke-linejoin="round"
    style="-webkit-tap-highlight-color: rgba(0, 0, 0, 0); stroke-linejoin: round;"></path>
</svg>
