<svg height="420" version="1.1" width="540" xmlns="http://www.w3.org/2000/svg" xmlns:xlink="http://www.w3.org/1999/xlink" style="overflow: hidden; position: relative; left: -0.6px; top: 0.8px;">
  <desc style="-webkit-tap-highlight-color: rgba(0, 0, 0, 0);">Created with Raphaël 2.2.0</desc>
  <defs style="-webkit-tap-highlight-color: rgba(0, 0, 0, 0);"></defs>
  <path
    fill="#cccccc"
    stroke="#222222"
    d="M220.15,212.421C222.151,214.422,224.90200000000002,214.37199999999999,224.90200000000002,214.37199999999999S224.90200000000002,214.37199999999999,224.99900000000002,213.12099999999998S227.55300000000003,210.76999999999998,227.55300000000003,210.76999999999998L229.15400000000002,216.49599999999998H230.30500000000004L233.10600000000002,213.22199999999998C233.10600000000002,213.22199999999998,233.60700000000003,214.97299999999998,234.20700000000002,215.02299999999997S235.35700000000003,214.72299999999996,235.35700000000003,214.72299999999996L235.00700000000003,212.32199999999995C235.00700000000003,212.32199999999995,235.00700000000003,212.32199999999995,236.20700000000002,212.12199999999996S241.30900000000003,214.77299999999997,241.30900000000003,214.77299999999997L245.66200000000003,213.12299999999996L246.96200000000005,214.92399999999995C246.96200000000005,214.92399999999995,247.26300000000003,215.07399999999996,248.96300000000005,215.87399999999994S255.56700000000006,216.47499999999994,255.56700000000006,216.47499999999994L258.7680000000001,213.82399999999993L262.7200000000001,213.57399999999993L264.9210000000001,212.30299999999994L270.5240000000001,212.27299999999994C270.5240000000001,212.27299999999994,270.5740000000001,212.62399999999994,271.2740000000001,210.92199999999994S275.2770000000001,208.01999999999995,275.2770000000001,208.01999999999995L277.8780000000001,204.91799999999995V203.86799999999994C277.8780000000001,203.86799999999994,278.5290000000001,203.61699999999993,279.9300000000001,202.76699999999994S282.58100000000013,203.51699999999994,282.58100000000013,203.51699999999994L284.8320000000001,203.86799999999994C284.8320000000001,203.86799999999994,284.68200000000013,203.61699999999993,284.7310000000001,202.86699999999993S285.2340000000001,201.41699999999994,285.8350000000001,201.41699999999994S287.73500000000007,200.21599999999995,288.1860000000001,199.41599999999994S287.6360000000001,197.66499999999994,287.6360000000001,197.66499999999994H289.38700000000006C289.38700000000006,197.66499999999994,291.23800000000006,196.31399999999994,293.0880000000001,193.86299999999994S296.8910000000001,194.81299999999993,296.8910000000001,194.81299999999993S296.8910000000001,194.81299999999993,299.1930000000001,192.11199999999994S305.0460000000001,193.21299999999994,305.0460000000001,193.21299999999994S306.8470000000001,191.56299999999993,308.2470000000001,191.46199999999993S312.3650000000001,192.44299999999993,312.3650000000001,192.44299999999993S311.43900000000014,200.75099999999992,311.2520000000001,204.18799999999993S310,217.375,309.5,218.5S289.75,235.625,289.75,235.625L270.166,252.75C270.166,252.75,266.999,251.916,265.916,253.583S265.33299999999997,256.666,265.33299999999997,256.666S262.332,257.666,261.166,259.666S249.083,278.166,249.083,278.166L243.083,284.666C243.083,284.666,240.499,284.75,239.916,286.08299999999997S239.416,287.99999999999994,239.416,287.99999999999994S236.25,291.58299999999997,234.5,293.08299999999997S227.083,299,227.083,299L222.583,309.833C222.583,309.833,219.583,311.33200000000005,219.5,311.91600000000005S217.828,312.16600000000005,217.039,313.333S216,315.25,216,315.25L213.083,317.75C213.083,317.75,205.338,324.7,204.212,326.037S199.14499999999998,332.512,198.863,333.989S198.37,338.07099999999997,198.37,338.07099999999997S195.133,339.68899999999996,193.02100000000002,341.51899999999995S187.883,345.24799999999993,187.883,345.24799999999993V349.33099999999996C187.883,349.33099999999996,185.279,350.03399999999993,185.77200000000002,350.80899999999997S187.17900000000003,352.921,187.39100000000002,353.41299999999995S187.60200000000003,355.45399999999995,187.39100000000002,355.8059999999999S185.84300000000002,356.3689999999999,187.11,357.2129999999999S187.74300000000002,358.8309999999999,187.32100000000003,359.3239999999999S187.95400000000004,360.8029999999999,187.25100000000003,361.6469999999999S184.08400000000003,364.1099999999999,183.80300000000003,365.02499999999986S184.29600000000002,367.27599999999984,183.80300000000003,367.90999999999985S181.05800000000002,367.48799999999983,181.05800000000002,367.48799999999983L167.54600000000002,354.04499999999985C167.54600000000002,354.04499999999985,161.98600000000002,346.16299999999984,161.42300000000003,343.91099999999983S159.73400000000004,338.7029999999998,159.73400000000004,338.7029999999998L160.22700000000003,338.0689999999998L156.56700000000004,331.31299999999976L154.31500000000003,326.10499999999973V323.9229999999997L150.65500000000003,314.7749999999997V313.0149999999997C150.65500000000003,313.0149999999997,145.80000000000004,303.9359999999997,145.44700000000003,302.2459999999997S145.16500000000002,298.4459999999997,145.16500000000002,298.4459999999997S141.64600000000002,289.5779999999997,141.08300000000003,287.9599999999997S141.08300000000003,283.3149999999997,141.08300000000003,283.3149999999997L141.43500000000003,282.6109999999997L144.46100000000004,283.5259999999997L153.46900000000005,279.62599999999975C153.46900000000005,279.62599999999975,152.41400000000004,283.10499999999973,154.31400000000005,282.18899999999974S167.96700000000004,274.30599999999976,167.96700000000004,274.30599999999976L165.29500000000004,267.76099999999974L171.27700000000004,269.4489999999997L172.89600000000004,282.04699999999974L175.28900000000004,280.42899999999975L183.59400000000005,282.46899999999977L183.03100000000006,277.1919999999998C183.03100000000006,277.1919999999998,186.33900000000006,277.75499999999977,186.40900000000005,276.1359999999998S184.79000000000005,260.2309999999998,184.79000000000005,260.2309999999998L184.86000000000004,257.13399999999984L189.22300000000004,257.06399999999985L195.06400000000005,261.91899999999987L194.36000000000004,253.54499999999987L196.61200000000005,253.61499999999987L197.94900000000004,254.74099999999987L203.29800000000003,252.34699999999987L203.58000000000004,250.86899999999986L205.33900000000003,250.09499999999986L205.76100000000002,248.54699999999985L207.73200000000003,248.12399999999985C207.73200000000003,248.12399999999985,209.63200000000003,244.39299999999986,212.30700000000002,242.91399999999985S215.615,239.46499999999983,216.60000000000002,238.05799999999985S216.53000000000003,235.38399999999984,216.53000000000003,235.38399999999984L218.00800000000004,234.46899999999985L216.31900000000005,232.70899999999986L218.50100000000003,231.37199999999987L217.65600000000003,229.40099999999987L218.50100000000003,228.62799999999987L219.48600000000005,226.51699999999988L215.61500000000004,226.44599999999988L217.03700000000003,223.1379999999999C217.03700000000003,223.1379999999999,218.57000000000002,222.2919999999999,218.85200000000003,220.46299999999988S217.58500000000004,217.43799999999987,217.58500000000004,217.43799999999987L218.07800000000003,215.11499999999987L217.03700000000003,214.55199999999988L219.12000000000003,211.5429999999999L220.15,212.421Z"
    stroke-width="1"
    stroke-linejoin="round"
    style="-webkit-tap-highlight-color: rgba(0, 0, 0, 0); stroke-linejoin: round;"></path>
  <path
    fill="#cccccc"
    stroke="#222222"
    d="M141.085,283.317L141.437,282.613L144.46300000000002,283.528L153.47100000000003,279.62800000000004C153.47100000000003,279.62800000000004,152.41600000000003,283.107,154.31600000000003,282.19100000000003S167.96900000000002,274.30800000000005,167.96900000000002,274.30800000000005L165.29700000000003,267.76300000000003L171.27900000000002,269.451L172.89800000000002,282.04900000000004L175.29100000000003,280.43100000000004L183.59600000000003,282.47100000000006L183.03300000000004,277.1940000000001C183.03300000000004,277.1940000000001,186.34100000000004,277.75700000000006,186.41100000000006,276.1380000000001S184.79200000000006,260.2330000000001,184.79200000000006,260.2330000000001L184.86200000000005,257.13600000000014L189.22500000000005,257.06600000000014L195.06600000000006,261.92100000000016L194.36200000000005,253.54700000000017L196.61400000000006,253.61700000000016L197.95100000000005,254.74300000000017L203.30000000000004,252.34900000000016L203.58200000000005,250.87100000000015L205.34100000000004,250.09700000000015L205.76300000000003,248.54900000000015L207.73400000000004,248.12600000000015C207.73400000000004,248.12600000000015,209.63400000000004,244.39500000000015,212.30900000000003,242.91600000000014S215.61700000000002,239.46700000000013,216.60200000000003,238.06000000000014S216.53200000000004,235.38600000000014,216.53200000000004,235.38600000000014L218.01000000000005,234.47100000000015L216.32100000000005,232.71100000000015L218.50300000000004,231.37400000000017L217.65800000000004,229.40300000000016L218.50300000000004,228.63000000000017L219.48800000000006,226.51900000000018L215.61700000000005,226.44800000000018L217.03900000000004,223.14000000000019C217.03900000000004,223.14000000000019,218.57200000000003,222.29400000000018,218.85400000000004,220.46500000000017S217.58700000000005,217.44000000000017,217.58700000000005,217.44000000000017L218.08000000000004,215.11700000000016L217.03900000000004,214.55400000000017L219.12200000000004,211.5450000000002L217.60500000000005,210.3670000000002L215.79900000000004,211.31800000000018L216.39900000000003,208.7670000000002C216.39900000000003,208.7670000000002,214.63600000000002,207.8390000000002,214.17000000000002,208.08600000000018S212.63000000000002,209.5630000000002,211.52700000000002,209.74100000000018S210.44600000000003,210.21700000000018,210.44600000000003,210.21700000000018L208.77000000000004,212.88200000000018L207.74500000000003,208.81700000000018L198.67100000000002,206.1640000000002L195.97700000000003,204.9150000000002L195.44000000000003,203.2140000000002L193.43900000000002,204.1140000000002L193.93900000000002,199.2620000000002C193.93900000000002,199.2620000000002,194.461,198.6710000000002,194.78900000000002,197.9310000000002S194.39100000000002,196.1080000000002,194.502,195.1930000000002S195.27,193.3060000000002,195.27,193.3060000000002S193.997,191.8630000000002,194.28900000000002,191.40900000000022S195.70000000000002,189.57500000000022,195.70000000000002,189.57500000000022S195.75500000000002,184.5730000000002,195.485,183.79600000000022S194.59400000000002,182.51000000000022,194.59400000000002,182.51000000000022L184.45600000000002,179.02200000000022L178.17700000000002,177.4070000000002L171.68400000000003,175.2620000000002L165.79100000000003,132.4530000000002L165.63100000000003,131.2410000000002L164.33400000000003,133.16400000000021L162.58400000000003,127.16400000000021L159.83400000000003,126.58100000000022L159.58400000000003,127.58100000000022L159.25100000000003,128.83100000000022L158.50100000000003,129.58100000000022L155.58400000000003,129.08100000000022L155.33400000000003,126.58100000000022L153.91700000000003,124.33100000000022L152.58400000000003,123.49800000000022C152.58400000000003,123.49800000000022,151.16700000000003,121.08100000000022,150.75100000000003,122.58100000000022S150.08400000000003,124.83100000000022,150.08400000000003,124.83100000000022V125.86100000000022H152L151.667,128.16400000000021C151.667,128.16400000000021,152.417,128.0800000000002,152.334,129.4970000000002S151.751,131.7470000000002,151.751,131.7470000000002S153.334,134.91400000000021,152.668,136.2470000000002S149.418,137.16400000000021,148.918,139.0800000000002S148.668,145.7470000000002,148.668,145.7470000000002S149.918,149.3300000000002,150.085,151.2470000000002S149.585,153.41400000000021,149.585,154.41400000000021S151.085,157.58100000000022,151.085,157.58100000000022L150.502,160.08100000000022C150.502,160.08100000000022,151.835,160.83100000000022,151.252,161.74800000000022S150.585,163.91500000000022,150.585,163.91500000000022S152.168,165.41500000000022,151.335,166.24800000000022S149.002,166.66500000000022,149.252,167.74800000000022S150.835,171.33100000000022,150.835,171.33100000000022L151.752,174.58100000000022C151.752,174.58100000000022,152.252,176.58100000000022,151.669,177.16400000000021S153.919,180.66400000000021,153.919,180.66400000000021L152.919,186.7470000000002C152.919,186.7470000000002,152.169,186.7470000000002,152.669,187.4970000000002S153.836,188.3300000000002,153.836,188.3300000000002S154.086,193.99800000000022,153.00300000000001,194.16400000000021S149.083,194,149.083,194L149.166,196.448L150.916,196.083C150.916,196.083,152.416,197.666,152.416,198.583S150.333,201.083,150.333,201.083S148.249,199.833,147.166,201.333S147.916,205,146.583,205.917S140.666,210.833,141.75,214.583S143.917,218.334,144,219.167S141.92,220.666,141.085,222.166S137.167,222.667,136.084,224.5S134.834,228.916,134.834,228.916S133.5,230.166,134.167,232.166S134.834,234.166,134.834,234.166L133.084,238.833C133.084,238.833,130.917,238.832,130.084,239.916S127.75,240.583,126.917,241.583S123.25,242,122.917,243S124.167,244.25,123.75,246.25S125.167,254.25,126.167,255.833S129.917,256.33299999999997,130.167,258.83299999999997S131.667,263.49999999999994,131.667,263.49999999999994L137.834,276.08299999999997L141.085,283.317Z"
    stroke-width="1"
    stroke-linejoin="round"
    style="-webkit-tap-highlight-color: rgba(0, 0, 0, 0); stroke-linejoin: round;"></path>
  <path
    fill="#cccccc"
    stroke="#222222"
    d="M171.442,175.179L165.445,129.844C165.445,129.844,166.237,127.28,167.237,127.363S168.362,127.321,169.278,127.905S170.98499999999999,127.363,170.652,126.905S169.902,125.69800000000001,170.194,125.364S171.81799999999998,123.656,171.81799999999998,123.656S170.65099999999998,122.406,169.85999999999999,121.36500000000001S169.069,116.409,169.069,116.409S167.278,114.66000000000001,166.903,113.45200000000001S166.903,111.037,166.903,111.037S168.736,109.57900000000001,168.82,108.20400000000001S167.904,103.873,167.154,103.498S164.988,104.123,164.988,104.123S160.74,101.665,160.324,101.16600000000001S160.074,98.001,160.074,98.001S160.449,96.918,159.866,96.33500000000001S159.491,90.13000000000001,159.491,90.13000000000001S157.82600000000002,89.21300000000001,158.36700000000002,88.00600000000001S159.07500000000002,86.46500000000002,159.07500000000002,86.46500000000002S159.57500000000002,86.00700000000002,158.57500000000002,85.09000000000002S157.36700000000002,83.09100000000002,157.86700000000002,82.59100000000002S159.53300000000002,81.29900000000002,159.53300000000002,81.29900000000002L159.57500000000002,79.42500000000003C159.57500000000002,79.42500000000003,158.74200000000002,79.38300000000002,158.82500000000002,78.17600000000003S160.03300000000002,75.88400000000003,159.53300000000002,73.80200000000004S158.95100000000002,70.63700000000003,158.95100000000002,70.63700000000003L162.032,68.68000000000004C162.032,68.68000000000004,163.657,68.93000000000004,164.448,68.30500000000004S168.487,64.18200000000003,168.487,64.18200000000003L168.82,61.85000000000003L167.446,59.43400000000003L167.363,56.56000000000003L166.322,53.77000000000003L167.446,50.93800000000003L167.654,45.19100000000003C167.654,45.19100000000003,167.196,43.900000000000034,166.53,44.10800000000003S165.28,44.56600000000003,165.28,44.56600000000003L161.657,37.153000000000034C161.657,37.153000000000034,159.95000000000002,35.48600000000003,161.699,35.153000000000034S165.155,34.48700000000004,165.155,34.48700000000004L167.446,32.113000000000035L167.071,29.989000000000036L171.817,21.494000000000035C171.817,21.494000000000035,173.401,20.120000000000037,172.443,19.287000000000035S172.151,18.079000000000036,172.151,18.079000000000036L178.77200000000002,15.205000000000036C178.77200000000002,15.205000000000036,180.14700000000002,13.914000000000035,180.48000000000002,13.331000000000035S181.35500000000002,13.164000000000035,181.64600000000002,13.623000000000035S184.27,11.125000000000036,185.144,10.750000000000036S186.477,9.792000000000035,186.643,11.333000000000036S186.643,14.373000000000037,186.643,14.373000000000037L189.433,15.706000000000037C189.433,15.706000000000037,191.432,14.790000000000036,192.09799999999998,14.915000000000036S193.13899999999998,15.623000000000037,193.13899999999998,15.623000000000037L193.92999999999998,16.206000000000035L194.30499999999998,18.580000000000034H195.42899999999997V20.705000000000034C195.42899999999997,20.705000000000034,197.71999999999997,22.247000000000035,197.80299999999997,23.829000000000033S197.17799999999997,28.201000000000032,197.17799999999997,28.201000000000032L199.96799999999996,31.409000000000034C199.96799999999996,31.409000000000034,200.75999999999996,30.659000000000034,201.09299999999996,31.284000000000034S201.67599999999996,32.659000000000034,201.67599999999996,32.659000000000034L204.21599999999995,32.909000000000034L204.54899999999995,34.32500000000003L208.00599999999994,34.40800000000003L208.71399999999994,35.15800000000003L211.21299999999994,34.99100000000003C211.21299999999994,34.99100000000003,213.71199999999993,36.49000000000003,214.46099999999993,36.282000000000025S216.94899999999993,35.49100000000003,217.03799999999993,34.825000000000024S216.54399999999993,32.53400000000003,218.12599999999992,33.117000000000026S220.9159999999999,31.992000000000026,221.2909999999999,31.451000000000025S221.7489999999999,28.453000000000024,221.7489999999999,28.453000000000024S224.3309999999999,27.370000000000026,223.8319999999999,25.662000000000024S223.6659999999999,22.581000000000024,225.2899999999999,23.039000000000023S226.4139999999999,23.164000000000023,226.7059999999999,22.331000000000024S227.7469999999999,21.665000000000024,228.6629999999999,22.623000000000026S230.4539999999999,24.580000000000027,230.4539999999999,24.580000000000027V26.288000000000025C230.4539999999999,26.288000000000025,231.3289999999999,27.246000000000024,231.6619999999999,28.370000000000026S232.3689999999999,30.494000000000025,232.8689999999999,30.827000000000027S235.5009999999999,29.80800000000003,236.2509999999999,28.68300000000003S239,27.375,240.125,27S242.688,26.75,242.688,26.75L243.938,26.5V25C243.938,25,244.688,24.625,246.188,24.312S247.813,23.249000000000002,248.938,23.749000000000002S250.063,24.249000000000002,250.063,24.249000000000002L252.25099999999998,22.624000000000002C252.25099999999998,22.624000000000002,254.06399999999996,22.687,255.00099999999998,24.374000000000002S256.18899999999996,26.937,256.001,27.624000000000002S253.75099999999998,31.437,253.75099999999998,31.437V33.812C253.75099999999998,33.812,252.50099999999998,35.375,252.62599999999998,37.375S253.68899999999996,40.125,254.50099999999998,41.625S255.37599999999998,44.438,255.37599999999998,44.438S257.251,46.501000000000005,258.001,46.438S260.31399999999996,44.125,261.18899999999996,44.75S262.56399999999996,45.5,263.00199999999995,48.063S263.87699999999995,52.001000000000005,264.75199999999995,53.251000000000005S266.68999999999994,55.81400000000001,268.12699999999995,56.06400000000001S270.18999999999994,55.501000000000005,271.06499999999994,55.18900000000001S273.37799999999993,54.68900000000001,273.87799999999993,55.50200000000001S274.50299999999993,57.19000000000001,274.50299999999993,57.19000000000001S276.0659999999999,57.69000000000001,276.62799999999993,57.06500000000001S279.3159999999999,55.69000000000001,280.00299999999993,56.44000000000001S282.59399999999994,56.47700000000001,281.0589999999999,58.82500000000001S277.80799999999994,64.06200000000001,277.80799999999994,64.06200000000001S275.55199999999996,64.78500000000001,275.5059999999999,65.507S277.6729999999999,68.351,277.6729999999999,68.351L277.71699999999987,74.039C277.71699999999987,74.039,274.4659999999999,75.258,274.0149999999999,76.522S273.60899999999987,79.501,273.60899999999987,79.501S274.3319999999999,80.043,274.96299999999985,79.63600000000001S276.58799999999985,77.83000000000001,276.9039999999998,79.049S277.2199999999998,82.48,277.2199999999998,82.48S278.9819999999998,84.286,278.7549999999998,85.27900000000001S279.0699999999998,87.40100000000001,279.0699999999998,87.40100000000001S281.41799999999984,88.48400000000001,279.6569999999998,90.742S272.7509999999998,96.47500000000001,272.7509999999998,96.47500000000001L270.4479999999998,97.01700000000001L267.87499999999983,98.91300000000001L265.70799999999986,98.64200000000001C265.70799999999986,98.64200000000001,265.25799999999987,98.32600000000001,265.2119999999999,99.409S266.0689999999999,102.20800000000001,266.0689999999999,102.20800000000001L268.7779999999999,103.96800000000002L269.7249999999999,104.10400000000001L270.9439999999999,103.33600000000001C270.9439999999999,103.33600000000001,271.8029999999999,102.74900000000001,272.9769999999999,103.65200000000002S274.3759999999999,105.09600000000002,274.3759999999999,105.09600000000002L274.6019999999999,108.57200000000002C274.6019999999999,108.57200000000002,275.6859999999999,111.86700000000002,276.72399999999993,112.77000000000001S279.8829999999999,115.20800000000001,279.8829999999999,115.20800000000001L280.4699999999999,117.05900000000001C280.4699999999999,117.05900000000001,281.1939999999999,117.87200000000001,282.45699999999994,118.14200000000001S285.07499999999993,119.00000000000001,285.6619999999999,118.41300000000001S287.7849999999999,117.19400000000002,288.1449999999999,118.41300000000001S288.6859999999999,120.12800000000001,288.6859999999999,120.12800000000001S293.06499999999994,120.26400000000001,293.3359999999999,122.25000000000001S293.1549999999999,124.82300000000001,293.1549999999999,124.82300000000001S294.2389999999999,127.08000000000001,294.68999999999994,127.48700000000001S295.50299999999993,128.16400000000002,296.31499999999994,127.352S299.2049999999999,125.998,300.1979999999999,127.126S302.2289999999999,130.33100000000002,302.2289999999999,130.33100000000002L302.59099999999995,135.794C302.59099999999995,135.794,303.80999999999995,135.794,303.98999999999995,136.20000000000002S304.35099999999994,137.645,304.35099999999994,137.645S306.69899999999996,138.818,306.56299999999993,139.99200000000002S307.0589999999999,145.36400000000003,307.0589999999999,145.36400000000003S309.72399999999993,148.48000000000005,311.57499999999993,151.36900000000003S315.3669999999999,158.90800000000002,315.3669999999999,158.90800000000002S315.3339999999999,164.91700000000003,314.9169999999999,166.91700000000003S314.16599999999994,180.50000000000003,313.8329999999999,182.41700000000003S312.3619999999999,192.44200000000004,312.3619999999999,192.44200000000004S309.6439999999999,191.36000000000004,308.2439999999999,191.46100000000004S305.0429999999999,193.21200000000005,305.0429999999999,193.21200000000005S301.4919999999999,189.41000000000005,299.1899999999999,192.11100000000005S296.88799999999986,194.81200000000004,296.88799999999986,194.81200000000004S294.93599999999986,191.41100000000003,293.08499999999987,193.86200000000005S289.38399999999984,197.66400000000004,289.38399999999984,197.66400000000004H287.63299999999987C287.63299999999987,197.66400000000004,288.63299999999987,198.61500000000004,288.1829999999999,199.41500000000005S286.4329999999999,201.41600000000005,285.8319999999999,201.41600000000005S284.7779999999999,202.11600000000004,284.7279999999999,202.86600000000004S284.8289999999999,203.86700000000005,284.8289999999999,203.86700000000005L282.5779999999999,203.51600000000005C282.5779999999999,203.51600000000005,281.32699999999994,201.91600000000005,279.9269999999999,202.76600000000005S277.8749999999999,203.86700000000005,277.8749999999999,203.86700000000005V204.91700000000006L275.2739999999999,208.01900000000006C275.2739999999999,208.01900000000006,271.9709999999999,209.22000000000006,271.2709999999999,210.92100000000005S270.5209999999999,212.27200000000005,270.5209999999999,212.27200000000005L264.9179999999999,212.30200000000005L262.71699999999987,213.57300000000004L258.7649999999999,213.82300000000004L255.56399999999988,216.47400000000005C255.56399999999988,216.47400000000005,250.6609999999999,216.67300000000006,248.95999999999987,215.87300000000005S246.95899999999986,214.92300000000006,246.95899999999986,214.92300000000006L245.65899999999985,213.12200000000007L241.30599999999984,214.77200000000008C241.30599999999984,214.77200000000008,237.40499999999983,211.92000000000007,236.20399999999984,212.12100000000007S235.00399999999985,212.32100000000005,235.00399999999985,212.32100000000005L235.35399999999984,214.72200000000007C235.35399999999984,214.72200000000007,234.80299999999986,215.07200000000006,234.20399999999984,215.02200000000008S233.10299999999984,213.2210000000001,233.10299999999984,213.2210000000001L230.30199999999985,216.4950000000001H229.15099999999984L227.54999999999984,210.7690000000001C227.54999999999984,210.7690000000001,225.09299999999985,211.86900000000009,224.99599999999984,213.1200000000001S224.89899999999983,214.3710000000001,224.89899999999983,214.3710000000001S222.14799999999983,214.4210000000001,220.14699999999982,212.4200000000001S217.69599999999983,210.3180000000001,217.69599999999983,210.3180000000001L215.79499999999982,211.3190000000001L216.3949999999998,208.76800000000011C216.3949999999998,208.76800000000011,214.84399999999982,207.31700000000012,213.59399999999982,208.41700000000012S210.4429999999998,210.2180000000001,210.4429999999998,210.2180000000001L208.74199999999982,212.6690000000001L207.74199999999982,208.8170000000001C207.74199999999982,208.8170000000001,204.54099999999983,207.66600000000008,202.58999999999983,207.16600000000008S198.08799999999982,206.01600000000008,198.08799999999982,206.01600000000008L196.03699999999984,205.11600000000007L195.43699999999984,203.21500000000006L193.43599999999984,204.11500000000007C193.43599999999984,204.11500000000007,193.73599999999985,200.16400000000007,193.93599999999984,199.26300000000006S195.38699999999983,198.06300000000007,194.78699999999984,196.56200000000007S194.63699999999983,193.86200000000008,195.03699999999984,193.51100000000008S193.98699999999982,192.0600000000001,194.28699999999984,191.40900000000008S195.68699999999984,189.80800000000008,195.68699999999984,189.80800000000008S195.98699999999985,183.85600000000008,195.13699999999983,182.9060000000001S187.88399999999984,179.9050000000001,187.88399999999984,179.9050000000001L176.583,177L171.442,175.179Z"
    stroke-width="1"
    stroke-linejoin="round"
    style="-webkit-tap-highlight-color: rgba(0, 0, 0, 0); stroke-linejoin: round;"></path>
</svg>
