<svg height="420" version="1.1" width="540" xmlns="http://www.w3.org/2000/svg" xmlns:xlink="http://www.w3.org/1999/xlink" style="overflow: hidden; position: relative; top: 0.8px;">
  <desc style="-webkit-tap-highlight-color: rgba(0, 0, 0, 0);">Created with Raphaël 2.2.0</desc>
  <defs style="-webkit-tap-highlight-color: rgba(0, 0, 0, 0);"></defs>
  <path
    fill="#cccccc"
    stroke="#222222"
    d="M393.256,211.043V215.11L390.616,217.418L391.275,220.716L388.087,224.78300000000002H339.613C339.613,224.78300000000002,338.844,228.08100000000002,335.766,229.07000000000002S331.809,232.80700000000002,331.809,232.80700000000002S328.84000000000003,230.388,327.52200000000005,231.26800000000003S318.23100000000005,232.58700000000002,315.34700000000004,233.57700000000003S304.879,235.116,304.879,235.116L301.69100000000003,232.36800000000002C301.69100000000003,232.36800000000002,296.749,230.71900000000002,295.97900000000004,231.81700000000004S294.88000000000005,233.68500000000003,294.88000000000005,233.68500000000003S293.77900000000005,231.92600000000004,292.46100000000007,231.48700000000002S288.17500000000007,229.94800000000004,288.17500000000007,229.94800000000004L287.4050000000001,233.57600000000002C287.4050000000001,233.57600000000002,282.45900000000006,235.222,281.2500000000001,237.97100000000003S280.48000000000013,247.53400000000002,279.4910000000001,248.08300000000003S273.7750000000001,250.83100000000002,273.7750000000001,250.83100000000002V252.919H271.1370000000001V254.348C271.1370000000001,254.348,267.0700000000001,252.92000000000002,266.41000000000014,255.008S266.41000000000014,257.75600000000003,266.41000000000014,257.75600000000003S263.4420000000001,253.79900000000004,262.6730000000001,257.206S265.09300000000013,260.611,264.65300000000013,262.81S261.24600000000015,264.899,260.2570000000001,267.537C260.2570000000001,267.537,259.20300000000015,270.964,259.47700000000015,271.561S264.6560000000001,270.04499999999996,266.37100000000015,271.40099999999995S268.44500000000016,276.74499999999995,269.96000000000015,277.42199999999997S274.14700000000016,275.707,274.14700000000016,275.707L277.53700000000015,277.543C277.53700000000015,277.543,282.92100000000016,274.988,283.55800000000016,273.713S285.35200000000015,272.517,285.35200000000015,272.517L290.01200000000017,281.379L292.7860000000002,283.682L294.35600000000017,287.87L296.7110000000002,288.39300000000003C296.7110000000002,288.39300000000003,300.5310000000002,285.252,301.47400000000016,284.624S305.0330000000002,281.223,309.01100000000014,282.845S316.75800000000015,287.398,316.75800000000015,287.398S323.52200000000016,286.716,326.34200000000016,288.654S330.52400000000017,291.847,330.52400000000017,291.847S334.8170000000002,290.95599999999996,335.60200000000015,289.282S337.85200000000015,285.618,337.85200000000015,285.618L336.8580000000001,283.786C336.8580000000001,283.786,330.9960000000001,278.447,329.79200000000014,276.877S326.17600000000016,270.181,325.84900000000016,269.58S321.92200000000014,266.03499999999997,321.43100000000015,265.10699999999997S321.65000000000015,263.198,321.65000000000015,263.198S325.08800000000014,261.234,325.90500000000014,259.38S328.6320000000001,255.344,328.6320000000001,255.344S329.83100000000013,253.87099999999998,330.8680000000001,253.87099999999998S332.9420000000001,255.23399999999998,334.14100000000013,254.635S336.97700000000015,253.053,336.97700000000015,253.053L337.63100000000014,251.907L335.06800000000015,249.234C335.06800000000015,249.234,335.88500000000016,248.417,337.57700000000017,248.30700000000002S342.43100000000015,246.50600000000003,343.6320000000002,247.816S348.65000000000015,250.707,349.19500000000016,252.016S349.9590000000002,255.343,349.9590000000002,255.343S350.72200000000015,258.67,353.01300000000015,258.507S356.2860000000002,258.289,357.3770000000001,256.817S360.4850000000001,254.362,360.4850000000001,254.362L373.7400000000001,254.09L384.04900000000015,250.925L388.3580000000002,249.616L393.64900000000017,246.34400000000002L399.15900000000016,244.87000000000003L404.6680000000002,243.99800000000002L412.3600000000002,243.23300000000003C412.3600000000002,243.23300000000003,414.5960000000002,240.67000000000004,416.0140000000002,239.52400000000003S420.1600000000002,237.01500000000004,420.1600000000002,237.01500000000004L422.8880000000002,231.72400000000005C422.8880000000002,231.72400000000005,424.6330000000002,230.25000000000006,423.9790000000002,229.76000000000005S423.1620000000002,222.83200000000005,423.0520000000002,221.68700000000004S422.3410000000002,216.61400000000003,419.9420000000002,213.83300000000003S412.9610000000002,208.324,412.9610000000002,208.324L409.4150000000002,213.014C409.4150000000002,213.014,409.4710000000002,214.65,406.6340000000002,214.48700000000002S397.1410000000002,212.68600000000004,397.1410000000002,212.68600000000004L393.2560000000002,210.88600000000002"
    stroke-width="1"
    stroke-linejoin="round"
    style="-webkit-tap-highlight-color: rgba(0, 0, 0, 0); stroke-linejoin: round;"></path>
  <path
    fill="#cccccc"
    stroke="#222222"
    d="M321.566,172.909C321.566,172.909,333.46,175.97799999999998,336.75699999999995,177.188S348.7389999999999,182.46499999999997,352.47599999999994,184.113S358.6309999999999,188.619,360.8299999999999,189.938S368.8519999999999,196.45999999999998,370.0619999999999,197.81599999999997S379.5159999999999,202.68899999999996,381.3839999999999,204.33699999999996S386.7699999999999,208.18399999999997,386.7699999999999,208.18399999999997L393.25499999999994,211.04199999999997V215.10899999999998L390.61499999999995,217.41699999999997L391.27399999999994,220.71499999999997L388.08599999999996,224.78199999999998H339.61199999999997C339.61199999999997,224.78199999999998,338.84299999999996,228.07999999999998,335.765,229.069S331.808,232.80599999999998,331.808,232.80599999999998S328.839,230.38699999999997,327.521,231.267S318.23,232.58599999999998,315.346,233.576S304.878,235.11499999999998,304.878,235.11499999999998L301.69,232.367C301.69,232.367,296.748,230.718,295.978,231.816S294.879,233.684,294.879,233.684S293.778,231.925,292.46000000000004,231.486S288.17400000000004,229.947,288.17400000000004,229.947L287.40400000000005,233.575C287.40400000000005,233.575,282.458,235.22099999999998,281.2490000000001,237.97S280.4790000000001,247.533,279.49000000000007,248.082S273.77400000000006,250.82999999999998,273.77400000000006,250.82999999999998V252.91799999999998H271.1360000000001V254.34699999999998C271.1360000000001,254.34699999999998,267.0690000000001,252.91899999999998,266.4090000000001,255.00699999999998S266.4090000000001,257.755,266.4090000000001,257.755S263.4410000000001,253.798,262.6720000000001,257.205S265.0920000000001,260.60999999999996,264.6520000000001,262.80899999999997S261.2450000000001,264.89799999999997,260.2560000000001,267.53599999999994S259.1570000000001,272.7029999999999,260.2560000000001,274.24099999999993S262.0150000000001,276.4389999999999,262.0150000000001,276.4389999999999S260.9980000000001,278.0859999999999,259.4730000000001,278.5259999999999S257.6180000000001,279.5149999999999,257.6180000000001,279.5149999999999S257.7280000000001,281.49399999999986,255.9700000000001,281.3839999999999S253.22200000000012,280.7239999999999,251.9030000000001,278.7449999999999S251.02400000000011,276.3269999999999,251.02400000000011,276.3269999999999L248.93500000000012,275.44799999999987C248.93500000000012,275.44799999999987,245.41700000000012,271.9299999999999,243.76900000000012,273.9089999999999S243.10900000000012,276.7669999999999,242.45000000000013,277.6459999999999S242.45100000000014,278.3039999999999,240.36200000000014,279.1839999999999S236.84400000000014,280.3929999999999,236.07500000000013,280.50299999999993S232.99800000000013,279.40399999999994,232.99800000000013,279.40399999999994S229.04000000000013,278.3039999999999,227.39200000000014,278.7439999999999S224.20400000000015,279.8539999999999,224.20400000000015,281.3879999999999S223.48200000000014,286.8759999999999,224.99700000000016,288.7439999999999S229.81000000000014,293.68999999999994,229.81000000000014,293.68999999999994L224.03300000000016,296.65799999999996C224.03300000000016,296.65799999999996,221.34600000000015,297.86699999999996,218.81800000000015,296.65799999999996S217.71800000000016,293.46999999999997,214.31100000000015,293.46999999999997S208.26600000000016,292.7,208.26600000000016,292.7S208.37600000000018,289.404,205.07800000000017,288.964S200.90100000000018,288.634,200.90100000000018,288.634L201.56000000000017,286.545C201.56000000000017,286.545,203.97800000000018,286.766,205.18700000000018,283.688S204.96700000000018,279.401,204.96700000000018,279.401S200.13100000000017,274.895,199.69100000000017,273.576S198.59100000000018,270.16900000000004,198.04200000000017,270.38800000000003S196.72300000000018,269.95000000000005,196.28400000000016,270.939S193.64600000000016,270.719,191.77800000000016,270.719S188.04100000000017,270.28,186.94200000000015,271.928S183.09500000000014,276.984,183.09500000000014,276.984V277.534L178.69800000000015,275.22499999999997C178.69800000000015,275.22499999999997,178.36800000000014,273.13699999999994,178.69800000000015,272.587S177.59900000000016,269.84,176.06000000000014,267.971S174.08100000000013,260.496,174.08100000000013,260.496S173.86100000000013,256.87,174.96000000000012,255.65999999999997S177.37800000000013,252.36199999999997,175.94900000000013,249.06399999999996S169.79300000000012,242.68999999999997,169.13400000000013,241.58999999999997S166.71600000000012,234.44599999999997,167.59500000000014,233.01699999999997S170.78300000000013,230.70799999999997,172.10200000000015,230.15899999999996S175.29000000000013,229.60899999999995,175.29000000000013,229.60899999999995L175.18000000000012,227.41099999999994C175.18000000000012,227.41099999999994,178.80700000000013,227.84999999999994,179.5760000000001,227.19099999999995S180.8950000000001,225.87299999999993,179.68600000000012,224.55299999999994S177.04800000000012,222.35499999999993,177.04800000000012,222.35499999999993L177.4880000000001,220.26699999999994L179.68600000000012,220.37699999999995L179.79600000000013,213.23099999999997C179.79600000000013,213.23099999999997,187.24500000000015,217.16699999999997,187.56700000000012,214.26199999999997S186.92100000000013,211.63899999999998,185.95300000000012,210.22799999999998S188.1720000000001,206.59799999999998,188.1720000000001,206.59799999999998L189.1600000000001,205.029C189.1600000000001,205.029,192.4330000000001,205.903,194.8000000000001,206.452S201.6510000000001,209.154,201.6510000000001,209.154L202.2760000000001,205.795C202.2760000000001,205.795,202.5780000000001,204.75099999999998,202.8180000000001,204.628S204.3060000000001,204.41299999999998,204.6520000000001,204.498S205.9090000000001,204.896,205.9090000000001,204.896L205.64300000000011,197.57799999999997L208.5290000000001,195.89199999999997L214.9340000000001,200.52899999999997C214.9340000000001,200.52899999999997,216.55500000000012,199.62299999999996,217.1040000000001,200.06699999999998S217.9060000000001,200.70999999999998,218.3960000000001,201.06799999999998S220.9190000000001,201.96499999999997,220.9190000000001,201.96499999999997L224.9200000000001,199.81499999999997C224.9200000000001,199.81499999999997,225.1900000000001,203.31699999999998,225.4930000000001,203.83599999999996S225.8090000000001,204.54299999999995,226.76300000000012,204.76199999999994S229.39900000000011,204.62599999999995,230.0000000000001,204.35599999999994S231.4560000000001,203.52199999999993,232.5230000000001,204.14999999999995C232.5230000000001,204.14999999999995,234.80500000000012,205.28199999999995,234.90000000000012,205.42499999999995S237.59100000000012,205.50299999999996,238.07200000000012,205.25499999999997S240.00800000000012,204.29199999999997,240.53200000000012,204.03499999999997S244.1780000000001,201.19699999999997,244.49600000000012,200.68699999999995S246.00700000000012,198.43199999999996,246.25400000000013,198.05199999999996S247.02500000000012,197.05799999999996,247.52700000000013,196.64899999999997S249.44200000000012,195.58099999999996,249.44200000000012,195.58099999999996L252.37600000000012,194.42599999999996L255.71200000000013,193.28599999999997L259.1780000000001,192.03199999999998L263.6400000000001,191.24699999999999L267.1890000000001,191.124L270.48800000000006,191.167L272.8450000000001,191.258L281.25900000000007,185.68800000000002L282.8380000000001,188.169L282.9240000000001,189.645L283.5570000000001,189.399C283.5570000000001,189.399,286.74500000000006,190.347,287.22600000000006,190.399S289.69000000000005,190.514,289.69000000000005,190.514L290.6890000000001,189.43200000000002L291.21100000000007,189.02300000000002L291.75000000000006,188.88700000000003L292.06300000000005,189.14900000000003L292.208,189.62300000000002L292.23100000000005,189.90200000000002L292.12600000000003,190.57500000000002L291.57800000000003,191.76000000000002L291.19500000000005,192.79200000000003C291.19500000000005,192.79200000000003,291.52400000000006,194.13800000000003,291.78100000000006,194.53800000000004S293.27200000000005,196.20400000000004,293.27200000000005,196.20400000000004L293.92300000000006,196.46600000000004L295.0040000000001,196.07100000000003L296.15100000000007,194.80100000000002L296.57700000000006,194.38700000000003L297.4750000000001,193.61700000000002L298.3780000000001,192.99400000000003L299.3760000000001,192.52500000000003L300.1080000000001,192.37600000000003L300.31900000000013,192.37500000000003L300.83500000000015,192.47300000000004L301.3170000000002,192.74300000000005L301.86600000000016,193.39600000000004L302.09200000000016,193.79900000000004L302.60700000000014,194.92600000000004L302.92800000000017,195.58100000000005L302.6850000000002,196.37200000000004L302.5670000000002,196.48200000000006L304.1940000000002,197.57300000000006L305.0950000000002,197.80900000000005L305.8260000000002,197.43700000000004L306.7820000000002,196.94100000000003L308.3440000000002,196.28400000000002L310.0870000000002,196.436L315.3440000000002,196.89700000000002L316.9310000000002,192.72700000000003C316.9310000000002,192.72700000000003,319.5300000000002,192.94300000000004,319.7900000000002,192.53600000000003S320.17100000000016,191.15200000000004,320.17100000000016,191.15200000000004L319.73700000000014,189.30600000000004C319.73700000000014,189.30600000000004,318.69400000000013,186.59700000000004,318.4520000000001,186.21500000000003S317.7110000000001,185.25500000000002,317.7110000000001,185.25500000000002S316.0500000000001,185.66800000000003,315.7910000000001,185.407S315.3440000000001,184.11700000000002,315.3440000000001,184.11700000000002L314.8230000000001,180.52700000000002L318.74000000000007,176.304L321.02700000000004,173.796L321.566,172.909Z"
    stroke-width="1"
    stroke-linejoin="round"
    style="-webkit-tap-highlight-color: rgba(0, 0, 0, 0); stroke-linejoin: round;"></path>
  <path
    fill="#cccccc"
    stroke="#222222"
    d="M234.746,205.338C234.746,205.338,236.87900000000002,205.543,237.538,205.338S241.39700000000002,203.48399999999998,241.39700000000002,203.48399999999998S240.31500000000003,204.182,240.663,203.963S243.513,201.756,243.739,201.522S245.668,199.093,245.668,199.093L246.138,198.23999999999998L246.723,197.34199999999998L247.632,196.56799999999998C247.632,196.56799999999998,248.381,196.28699999999998,248.916,195.82799999999997S252.635,194.34799999999998,252.635,194.34799999999998L255.715,193.29199999999997L258.375,192.30799999999996L260.069,191.83299999999997L261.579,191.55399999999997L263.872,191.289L267.076,191.13H269.38L272.848,191.26399999999998L275.595,189.415L278.87600000000003,187.206L281.326,185.476L282.841,188.319L282.959,189.58499999999998L283.449,189.37499999999997C283.449,189.37499999999997,287.37,190.43899999999996,288.22200000000004,190.55299999999997S289.69200000000006,190.51999999999998,289.69200000000006,190.51999999999998L290.3430000000001,189.78799999999998"
    stroke-width="1"
    stroke-linejoin="round"
    style="-webkit-tap-highlight-color: rgba(0, 0, 0, 0); stroke-linejoin: round;"></path>
  <path
    fill="#cccccc"
    stroke="#222222"
    d="M283.449,189.373C283.449,189.373,289.178,191.036,289.616,190.599S291.717,187.885,292.154,189.373S291.103,191.91199999999998,291.191,193.04999999999998S293.55499999999995,197.86399999999998,295.13,195.939S300.294,190.68599999999998,301.87,193.4S302.57,196.487,302.57,196.487S304.671,198.303,305.459,197.69S308.348,196.289,308.348,196.289L315.348,196.902L316.839,192.7C316.839,192.7,321.13,194.27599999999998,319.991,190.16199999999998C318.852,186.04699999999997,317.715,185.26,317.715,185.26S315.782,186.31,315.34799999999996,184.73499999999999S314.82699999999994,180.533,314.82699999999994,180.533L320.96099999999996,173.92L321.566,172.91C321.566,172.91,313.98999999999995,171.381,311.72999999999996,171.452S309.15,171.45,309.15,171.45S307.41999999999996,172.649,307.263,172.863C307.263,172.863,307.017,173.905,305.375,173.923S302.279,173.465,302.279,173.465S301.224,172.718,300.747,172.841S299.583,173.473,299.375,173.81S298.36,176.389,298.045,176.89000000000001S297.26300000000003,177.99800000000002,297.26300000000003,177.99800000000002L294.03400000000005,178.09400000000002L293.50200000000007,180.22600000000003L294.05800000000005,181.77400000000003L288.03700000000003,187.05800000000002L282.84200000000004,188.413L282.96000000000004,189.585L283.449,189.373Z"
    stroke-width="1"
    stroke-linejoin="round"
    style="-webkit-tap-highlight-color: rgba(0, 0, 0, 0); stroke-linejoin: round;"></path>
  <path
    fill="#cccccc"
    stroke="#222222"
    d="M211.616,133.306L231.714,143.465C231.714,143.465,231.798,155.014,231.039,155.772S218.647,157.963,218.647,157.963S217.72,158.975,214.095,162.094S205.075,166.983,203.969,167.995S204.148,173.053,203.97899999999998,173.642S205.749,174.99099999999999,205.749,174.99099999999999S209.12099999999998,176.50799999999998,212.24,178.868S215.52800000000002,180.975,215.61200000000002,183.33599999999998S218.14000000000001,185.44299999999998,218.64600000000002,187.499C219.15200000000002,189.55599999999998,216.70700000000002,188.814,213.251,190.248S208.952,192.77599999999998,208.952,192.77599999999998L208.531,195.89499999999998L205.645,197.581L205.911,204.899C205.911,204.899,202.584,203.429,202.318,205.495S201.65200000000002,209.157,201.65200000000002,209.157S197.52700000000002,207.162,194.467,206.363S188.062,204.766,188.062,204.766L185.02,203.834L183.024,201.972L176.504,201.306C176.504,201.306,177.03699999999998,197.71300000000002,177.43599999999998,196.383S178.367,191.99200000000002,178.63299999999998,190.928S180.09699999999998,192.258,180.629,189.73C181.161,187.202,179.831,185.605,179.831,185.605S177.03699999999998,183.742,176.504,179.48399999999998S176.504,172.69799999999998,176.504,172.69799999999998S175.839,171.766,175.041,171.89999999999998S171.852,170.325,171.852,170.325L167.675,169.02599999999998L166.65400000000002,168.56199999999998L170.18000000000004,165.035L171.99000000000004,161.012L174.70000000000005,159.793L176.91900000000004,156.507L179.33500000000004,151.323C179.33500000000004,151.323,180.82700000000003,147.589,181.31600000000003,146.919S181.70000000000002,145.584,184.32500000000002,143.893S189.15200000000002,140.855,189.15200000000002,140.855S192.43400000000003,139.154,193.103,139.25S197.952,141.698,197.952,141.698L198.431,141.834L198.38000000000002,139.654L200.56100000000004,139.374C200.56100000000004,139.374,201.55900000000003,138.642,202.75400000000005,137.513S203.72400000000005,135.71,205.64200000000005,135.636S207.60000000000005,135.411,207.60000000000005,135.411S207.52300000000005,133.757,207.83700000000005,133.462S208.78800000000004,132.868,209.48400000000004,132.821S212.00500000000002,132.821,212.00500000000002,132.821L211.616,133.306Z"
    stroke-width="1"
    stroke-linejoin="round"
    style="-webkit-tap-highlight-color: rgba(0, 0, 0, 0); stroke-linejoin: round;"></path>
  <path
    fill="#cccccc"
    stroke="#222222"
    d="M265.834,97.25C265.834,97.25,266.91700000000003,93.596,264.16700000000003,95.298S261.417,97,261.417,97S262.08399999999995,95.417,260.58399999999995,94S257.83399999999995,93.25,257.83399999999995,93.25S252.49999999999994,91.603,251.74999999999994,93.093S252.58399999999995,95.417,253.41699999999994,96.333"
    stroke-width="1"
    stroke-linejoin="round"
    style="-webkit-tap-highlight-color: rgba(0, 0, 0, 0); stroke-linejoin: round;"></path>
  <path
    fill="#cccccc"
    stroke="#222222"
    d="M275.516,170.098C275.516,170.098,280.78200000000004,169.29700000000003,282.84200000000004,170.098S286.61800000000005,170.78500000000003,287.42,168.953S288.22200000000004,167.121,288.22200000000004,167.121S294.51700000000005,167.007,296.57700000000006,165.633S301.72700000000003,159.566,303.33000000000004,157.84900000000002S307.56600000000003,154.75900000000001,308.939,156.47500000000002S310.084,161.74,310.084,161.74L315.349,169.29500000000002C315.349,169.29500000000002,307.794,171.699,307.108,173.072S302.874,173.988,301.5,173.072S298.982,174.102,298.639,175.476S297.265,177.994,297.265,177.994H294.06L293.488,180.283L294.059,181.76999999999998L288.108,187.03499999999997L282.842,188.40899999999996L281.363,185.52799999999996L276.184,177.41599999999997L274.458,174.71199999999996L274.29200000000003,173.90599999999995L273.98900000000003,171.18299999999994L273.63000000000005,170.53699999999995L275.516,170.098Z"
    stroke-width="1"
    stroke-linejoin="round"
    style="-webkit-tap-highlight-color: rgba(0, 0, 0, 0); stroke-linejoin: round;"></path>
  <path
    fill="#cccccc"
    stroke="#222222"
    d="M179.455,99.854L185.062,104.625C185.062,104.625,185.062,104.625,184.687,105.938S182,106.5,182,106.5L181.75,109.125C181.75,109.125,181.25,114.125,180.812,117.125S178.37400000000002,120.75,178.49900000000002,123.063S179.45400000000004,125.751,179.45400000000004,125.751S179.87400000000002,129.501,181.37400000000002,130.376S183.687,131.626,184.12400000000002,134.001S183.12400000000002,136.314,183.12400000000002,136.314S181.93600000000004,136.439,181.24900000000002,137.87699999999998S182.187,139.81499999999997,182.187,139.81499999999997L184.687,142.06499999999997C184.687,142.06499999999997,187,142.62799999999996,188.062,141.62699999999998C188.062,141.62699999999998,182.257,144.32299999999998,180.74,147.98999999999998S178.33800000000002,153.617,177.768,154.88199999999998S175.808,158.42199999999997,175.176,159.37099999999998S171.256,161.015,171.256,161.015S170.434,159.814,169.36,160.446S165.50400000000002,156.975,164.871,155.391S163.669,153.55499999999998,164.175,152.29S165.061,150.394,165.12400000000002,149.951S164.681,147.105,163.22700000000003,143.50199999999998S158.92800000000003,134.90399999999997,158.92800000000003,134.90399999999997S156.71500000000003,135.34599999999998,154.18600000000004,135.59899999999996S151.21400000000003,135.66199999999995,151.21400000000003,135.66199999999995L150.70800000000003,133.51299999999995L149.57000000000002,133.76599999999993C149.57000000000002,133.76599999999993,155.294,128.95999999999992,157.091,127.48499999999993S166.311,121.21499999999993,166.311,121.21499999999993S168.57,120.47699999999993,169.584,117.06599999999993S171.06,113.00999999999993,171.889,111.81099999999994S177.559,103.09799999999994,177.559,103.09799999999994L179.455,99.854Z"
    stroke-width="1"
    stroke-linejoin="round"
    style="-webkit-tap-highlight-color: rgba(0, 0, 0, 0); stroke-linejoin: round;"></path>
  <path
    fill="#cccccc"
    stroke="#222222"
    d="M187.974,79.059C187.974,79.059,189.975,76.182,190.78799999999998,74.244S192.289,68.491,192.289,68.491H194.04C194.04,68.491,201.66899999999998,76.80799999999999,202.04399999999998,79.059S202.04399999999998,91.316,202.04399999999998,91.316S199.04299999999998,87.68900000000001,197.41699999999997,85.563S195.09299999999996,82.812,195.09299999999996,82.812S196.60399999999996,80.874,192.60199999999995,79.904S187.974,79.059,187.974,79.059Z"
    stroke-width="1"
    stroke-linejoin="round"
    style="-webkit-tap-highlight-color: rgba(0, 0, 0, 0); stroke-linejoin: round;"></path>
  <path
    fill="#cccccc"
    stroke="#222222"
    d="M204.875,106.125C204.875,106.125,209.75,99.875,212.25,98.125S215,91.625,215.375,90.75S219.5,88.75,220.125,84.375S217.25,78,218.75,74.75S228.75,69.125,228.75,69.125S231.25,71.125,232.75,72.75S235.875,75.125,237.5,75.625S239.125,76.125,239.125,76.125V82.125C239.125,82.125,237.198,85.691,237.864,87.084S239.235,89.263,239.125,90.71600000000001S243.191,94.349,242.768,95.438S240.772,98.101,241.195,99.554S242.799,101.915,242.799,101.915S243.61700000000002,104.519,242.799,105.30600000000001S239.439,108.757,239.439,108.757L236.957,109.06L235.686,111.058C235.686,111.058,233.62800000000001,110.87700000000001,231.63,110.33200000000001S227.816,112.81400000000001,227.816,112.81400000000001S223.7,112.572,224.305,113.72200000000001S227.393,116.99100000000001,227.393,116.99100000000001S227.211,118.50400000000002,226.243,118.50400000000002S224.063,119.04900000000002,223.337,120.13900000000002S222.429,121.47100000000002,222.429,121.47100000000002L219.099,118.86800000000002L215.10299999999998,118.26300000000002L214.135,118.08100000000002L214.256,115.72000000000001L210.745,113.662L210.806,111.361C210.806,111.361,208.02100000000002,108.21300000000001,206.26500000000001,108.153S203.78300000000002,107.97200000000001,203.78300000000002,107.97200000000001L204.875,106.125Z"
    stroke-width="1"
    stroke-linejoin="round"
    style="-webkit-tap-highlight-color: rgba(0, 0, 0, 0); stroke-linejoin: round;"></path>
  <path fill="#cccccc" stroke="#222222" d="M239.43,64.789L244.215,61.28L247.989,64.31L247.989,66.06400000000001L243.709,69.125Z" stroke-width="1" stroke-linejoin="round" style="-webkit-tap-highlight-color: rgba(0, 0, 0, 0); stroke-linejoin: round;"></path>
  <path
    fill="#cccccc"
    stroke="#222222"
    d="M223.471,60.058C223.471,60.058,224.808,57.453,225.606,56.815S232.146,52.614999999999995,232.146,52.614999999999995S233.688,52.721,235.60199999999998,51.55199999999999S239.42899999999997,49.477999999999994,239.42899999999997,49.477999999999994S238.47199999999998,45.96999999999999,239.42899999999997,44.056S244.42699999999996,37.622,239.908,37.196999999999996S232.517,37.196999999999996,232.517,37.196999999999996S227.731,40.812999999999995,227.04,41.397999999999996S223.47799999999998,42.302,222.521,43.25899999999999S221.351,45.22599999999999,221.351,45.22599999999999L221.67,48.53399999999999C221.67,48.53399999999999,220.66,49.79999999999999,220.819,50.86299999999999S222.361,52.03199999999999,221.98899999999998,53.41499999999999S221.40499999999997,57.242999999999995,221.56399999999996,58.03999999999999S221.08499999999995,59.102999999999994,222.25499999999997,60.059999999999995S223.471,60.058,223.471,60.058Z"
    stroke-width="1"
    stroke-linejoin="round"
    style="-webkit-tap-highlight-color: rgba(0, 0, 0, 0); stroke-linejoin: round;"></path>
  <path
    fill="#cccccc"
    stroke="#222222"
    d="M202.425,50.86C202.531,50.701,201.681,44.161,205.40300000000002,43.098S210.241,41.928,210.241,41.928S211.57000000000002,41.875,212.42100000000002,39.961S215.13200000000003,35.973,216.19600000000003,38.153S217.10000000000002,40.705,216.56800000000004,41.184S216.98300000000003,43.736,216.98300000000003,43.736S218.32300000000004,45.384,217.31300000000005,45.384S213.37800000000004,42.46,213.37800000000004,42.46S212.31500000000005,42.035000000000004,211.83600000000004,42.939S213.16600000000005,46.289,212.95300000000003,46.874S208.96500000000003,46.555,207.63600000000002,47.725S204.71200000000002,50.756,203.80800000000002,51.234S202.425,50.86,202.425,50.86Z"
    stroke-width="1"
    stroke-linejoin="round"
    style="-webkit-tap-highlight-color: rgba(0, 0, 0, 0); stroke-linejoin: round;"></path>
  <path
    fill="#cccccc"
    stroke="#222222"
    d="M179.455,99.854L182.50900000000001,97.381L183.52800000000002,86.326L187.97400000000002,78.96199999999999C187.97400000000002,78.96199999999999,189.92800000000003,79.17899999999999,190.431,79.41099999999999S194.012,80.29899999999999,194.40800000000002,80.58399999999999S195.401,81.38399999999999,195.365,81.847S195.09400000000002,82.92299999999999,195.09400000000002,82.92299999999999L201.74800000000002,90.954C201.74800000000002,90.954,199.127,95.749,198.377,97.249S195.46,102.541,195.46,104.457S196.002,107.49799999999999,198.585,108.41499999999999S203.782,107.969,203.782,107.969S206.163,108.05199999999999,206.604,108.196S208.95800000000003,109.579,208.95800000000003,109.579L210.68500000000003,111.228L210.74300000000002,113.65899999999999L214.25400000000002,115.71699999999998L214.133,118.07799999999999L219.097,118.865L222.496,121.69699999999999C222.496,121.69699999999999,225.083,123.15099999999998,225,125.16899999999998S225.406,128.237,225,129.76999999999998S223.747,132.71599999999998,222.657,132.272S219.50900000000001,129.126,218.21800000000002,129.771S211.51800000000003,132.79799999999997,211.51800000000003,132.79799999999997S207.75000000000003,132.49799999999996,207.75000000000003,133.74799999999996S207.56200000000004,135.56099999999995,207.56200000000004,135.56099999999995S205.06200000000004,135.06099999999995,203.24900000000005,136.99899999999994S200.56100000000006,139.37399999999994,200.56100000000006,139.37399999999994H198.37300000000008L198.43600000000006,142.06199999999993C198.43600000000006,142.06199999999993,194.18600000000006,138.74899999999994,192.74800000000008,139.31199999999993S189.12300000000008,140.62499999999991,188.0600000000001,141.62499999999991S184.6850000000001,142.0629999999999,184.6850000000001,142.0629999999999L182.1850000000001,139.8129999999999C182.1850000000001,139.8129999999999,180.5600000000001,139.3129999999999,181.2470000000001,137.87499999999991S183.1220000000001,136.31199999999993,183.1220000000001,136.31199999999993S184.5600000000001,136.37499999999991,184.1220000000001,133.99899999999994S182.8720000000001,131.24899999999994,181.3720000000001,130.37399999999994S179.4520000000001,125.74899999999994,179.4520000000001,125.74899999999994S178.6220000000001,125.37399999999994,178.4970000000001,123.06099999999994S180.3720000000001,120.12299999999993,180.8100000000001,117.12299999999993S181.74800000000008,109.12299999999993,181.74800000000008,109.12299999999993L182,106.5C182,106.5,184.313,107.25,184.688,105.937S185.063,104.624,185.063,104.624L179.455,99.854Z"
    stroke-width="1"
    stroke-linejoin="round"
    style="-webkit-tap-highlight-color: rgba(0, 0, 0, 0); stroke-linejoin: round;"></path>
  <path
    fill="#cccccc"
    stroke="#222222"
    d="M249.667,106.801C249.667,106.801,256.663,113.629,258.35,111.943S262.903,105.283,262.903,105.283S266.44300000000004,111.605,266.696,111.774S272.175,115.315,275.379,117.17S282.96700000000004,121.385,283.38800000000003,123.239S281.954,127.28500000000001,281.954,127.28500000000001S284.229,134.449,283.05,137.315S282.122,140.519,279.425,140.181S272.765,139.79100000000003,272.344,142.22S272.513,148.948,272.513,148.948S274.873,150.043,275.126,152.15S273.608,156.53300000000002,273.608,156.53300000000002S277.73900000000003,159.906,277.233,161.84400000000002S276.389,165.46800000000002,275.041,166.81600000000003S272.175,169.42900000000003,272.175,169.42900000000003L273.946,170.77800000000002L274.36800000000005,174.57100000000003L281.36400000000003,185.52900000000002L272.84900000000005,191.26000000000002C272.84900000000005,191.26000000000002,262.903,190.50100000000003,258.01300000000003,192.44000000000003S247.39300000000003,195.55700000000002,246.21200000000005,198.086S242.41900000000004,203.145,239.55300000000005,204.577S234.74700000000004,205.33599999999998,234.74700000000004,205.33599999999998S232.13400000000004,203.313,230.44800000000004,204.15499999999997S225.47500000000002,205.67299999999997,225.39000000000004,203.22799999999998S225.00000000000006,199.772,225.00000000000006,199.772L221.25900000000004,201.963C221.25900000000004,201.963,219.15100000000004,202.131,218.05500000000004,200.698S214.93600000000004,200.53,214.93600000000004,200.53L208.53100000000003,195.893L208.95200000000003,192.774C208.95200000000003,192.774,209.79500000000002,191.679,213.25100000000003,190.246S219.15200000000004,189.554,218.64600000000004,187.497C218.14000000000004,185.441,215.69600000000005,185.69400000000002,215.61200000000005,183.334S215.36000000000004,181.227,212.24000000000007,178.866S205.74900000000008,174.989,205.74900000000008,174.989S203.8110000000001,174.23000000000002,203.97900000000007,173.64000000000001S202.86300000000006,169.00400000000002,203.96900000000008,167.99300000000002S210.47000000000008,165.211,214.09500000000008,162.092S218.64700000000008,157.961,218.64700000000008,157.961S230.2800000000001,156.52800000000002,231.03900000000007,155.77S231.71400000000008,143.46300000000002,231.71400000000008,143.46300000000002L211.6160000000001,133.30400000000003L212.3060000000001,132.45000000000002L214.1350000000001,131.63700000000003L218.0530000000001,129.85100000000003C218.0530000000001,129.85100000000003,218.7910000000001,129.38100000000003,219.6900000000001,130.02700000000002S222.26300000000012,132.048,222.26300000000012,132.048S223.31100000000012,132.678,223.8320000000001,132.02700000000002S224.88800000000012,130.29500000000002,225.0570000000001,129.52800000000002S225.0430000000001,126.95000000000002,225.0200000000001,126.49000000000002S225.2010000000001,125.32400000000003,225.00000000000009,124.71100000000003S224.30800000000008,123.26500000000003,224.30800000000008,123.26500000000003S223.44900000000007,122.35900000000002,223.18300000000008,122.16300000000003S222.38000000000008,121.60000000000002,222.38000000000008,121.60000000000002S223.35000000000008,119.96800000000002,223.77800000000008,119.59400000000002S224.52300000000008,118.97300000000003,224.84300000000007,118.83800000000002S225.69000000000008,118.70700000000002,226.23900000000006,118.50100000000002S227.17700000000005,117.84600000000002,227.26600000000005,117.51000000000002S227.38900000000004,116.98800000000001,227.38900000000004,116.98800000000001L225.98600000000005,115.70100000000001C225.98600000000005,115.70100000000001,224.34600000000006,113.989,224.30100000000004,113.71900000000001S224.12500000000006,112.941,225.53100000000003,112.86500000000001S227.88500000000005,112.694,227.88500000000005,112.694S229.37600000000006,110.901,229.85700000000006,110.661S230.65300000000005,110.312,231.22300000000007,110.265S232.61300000000006,110.625,233.84400000000008,110.806S235.68100000000007,111.054,235.68100000000007,111.054L236.95200000000006,109.056L239.50500000000005,108.67999999999999C239.50500000000005,108.67999999999999,242.33500000000006,105.92299999999999,242.69000000000005,105.40599999999999S246.91600000000005,106.83099999999999,247.83200000000005,106.58099999999999S249.667,106.801,249.667,106.801Z"
    stroke-width="1"
    stroke-linejoin="round"
    style="-webkit-tap-highlight-color: rgba(0, 0, 0, 0); stroke-linejoin: round;"></path>
  <path
    fill="#cccccc"
    stroke="#222222"
    d="M256.5,104.667L260,103.5C260,103.5,262.418,100.25,262.834,99.833S265.834,97.25,265.834,97.25S266.91700000000003,93.596,264.16700000000003,95.298S261.417,97,261.417,97S262.08399999999995,95.417,260.58399999999995,94S257.83399999999995,93.25,257.83399999999995,93.25S252.49999999999994,91.603,251.74999999999994,93.093S252.58399999999995,95.417,253.41699999999994,96.333S255.16599999999994,99.166,254.24999999999994,99.75S247.91699999999994,98.917,246.91699999999994,100S246.49999999999994,102.917,248.41699999999994,103.25S252.16699999999994,104.667,252.16699999999994,104.667L255.16699999999994,105.283L256.5,104.667Z"
    stroke-width="1"
    stroke-linejoin="round"
    style="-webkit-tap-highlight-color: rgba(0, 0, 0, 0); stroke-linejoin: round;"></path>
  <path
    fill="#cccccc"
    stroke="#222222"
    d="M341.424,311.359C341.424,311.359,347.806,311.84999999999997,349.443,311.359S354.024,308.73999999999995,356.07,308.659S360.979,308.659,360.979,308.659S363.515,305.96,364.825,305.141S368.834,304.24100000000004,369.57,303.913S372.188,301.786,372.188,301.786L376.116,301.458C376.116,301.458,374.724,298.677,374.152,298.35S367.688,298.35,367.688,298.35S366.051,296.223,363.515,294.913S359.015,292.704,357.542,294.422S355.98699999999997,298.007,354.924,297.196S350.669,293.475,350.669,293.475H353.20599999999996L354.10499999999996,291.845C354.10499999999996,291.845,355.41599999999994,291.394,353.20599999999996,289.59400000000005S349.852,287.71200000000005,349.852,287.71200000000005L347.642,288.20200000000006C347.642,288.20200000000006,344.943,287.46700000000004,344.452,286.6480000000001S342.489,284.84800000000007,340.525,284.7660000000001S337.395,284.7660000000001,337.395,284.7660000000001L337.856,285.61500000000007C337.856,285.61500000000007,336.084,288.33000000000004,335.875,288.74300000000005S335.363,289.79100000000005,334.861,290.12500000000006S332.768,291.22100000000006,332.10699999999997,291.41800000000006S330.65999999999997,291.8450000000001,330.65999999999997,291.8450000000001L331.313,293.8110000000001C331.313,293.8110000000001,331.376,301.1240000000001,331.563,301.9360000000001S335.251,305.3110000000001,335.251,305.3110000000001L340.31399999999996,308.5610000000001L341.25199999999995,309.5610000000001L341.424,311.359Z"
    stroke-width="1"
    stroke-linejoin="round"
    style="-webkit-tap-highlight-color: rgba(0, 0, 0, 0); stroke-linejoin: round;"></path>
  <path
    fill="#cccccc"
    stroke="#222222"
    d="M356.154,288.311C356.154,288.311,362.761,285.859,362.313,284.733S360.12899999999996,281.76,358.001,281.144S353.38599999999997,280.919,353.38599999999997,280.919L351.618,277.784C351.618,277.784,351.339,276.272,350.442,277.28S349.546,278.28799999999995,349.546,278.28799999999995S347.811,276.92299999999994,346.355,276.93399999999997S344.731,278.121,344.731,278.121S345.57099999999997,278.736,345.57099999999997,279.40799999999996S345.515,280.52799999999996,345.515,280.52799999999996H342.604C342.604,280.52799999999996,340.56399999999996,281.91799999999995,341.78,282.623S345.96299999999997,283.775,347.08299999999997,284.279S351.05899999999997,284.39,351.56199999999995,285.11899999999997S354.64199999999994,287.80699999999996,354.64199999999994,287.80699999999996L355.6499999999999,288.59L356.154,288.311Z"
    stroke-width="1"
    stroke-linejoin="round"
    style="-webkit-tap-highlight-color: rgba(0, 0, 0, 0); stroke-linejoin: round;"></path>
  <path
    fill="#cccccc"
    stroke="#222222"
    d="M297.697,317.436C297.697,317.436,300.866,299.30499999999995,300.601,296.66499999999996S300.617,285.26099999999997,300.617,285.26099999999997S304.101,282.88599999999997,304.372,282.782S306.53700000000003,282.169,307.56100000000004,282.428S310.831,283.676,310.831,283.676L315.74,286.65L316.761,287.39799999999997L321.11400000000003,287.32899999999995C321.11400000000003,287.32899999999995,324.677,287.74999999999994,325.511,288.20199999999994S328.54400000000004,290.1739999999999,329.535,291.01099999999997S331.31100000000004,293.81399999999996,331.31100000000004,293.81399999999996L331.56100000000004,301.93899999999996C331.56100000000004,301.93899999999996,331.64700000000005,302.32899999999995,332.468,303.05199999999996S335.86600000000004,305.71,335.86600000000004,305.71L338.99500000000006,307.719L340.43600000000004,308.698L341.24800000000005,309.563V311.144L338.201,313.9L332.56,313.813L330.657,315.666L323.216,315.579C323.216,315.579,318.392,320.533,313.741,321.266S305.258,321.697,305.258,321.697L300.349,319.286L297.697,317.436Z"
    stroke-width="1"
    stroke-linejoin="round"
    style="-webkit-tap-highlight-color: rgba(0, 0, 0, 0); stroke-linejoin: round;"></path>
  <path
    fill="#cccccc"
    stroke="#222222"
    d="M291.315,313.163C291.315,313.163,286.881,311.685,285.404,310.946S278.878,305.651,278.878,305.651S274.81399999999996,309.838,275.553,312.423S278.017,317.718,277.401,318.826S272.598,321.413,273.584,323.50600000000003S276.415,327.94000000000005,275.55400000000003,328.555S272.23,328.555,272.23,328.555S271.86,326.338,270.382,326.707S264.964,327.199,264.964,327.199L259.437,326.21500000000003C259.437,326.21500000000003,257.82300000000004,322.52000000000004,255.36,320.55S251.419,316.487,251.419,316.487L248.21800000000002,316.118C248.21800000000002,316.118,244.52400000000003,311.931,242.92300000000003,311.069S239.59800000000004,308.483,238.24300000000002,309.838S236.88800000000003,311.93,236.88800000000003,311.93L231.46900000000002,311.807C231.46900000000002,311.807,229.86800000000002,311.315,229.622,311.684S228.02100000000002,314.27000000000004,228.02100000000002,314.27000000000004L223.21800000000002,312.79100000000005L221.42900000000003,313.16100000000006L220.75500000000002,314.88500000000005L217.79900000000004,314.76200000000006L217.06000000000003,313.4080000000001L214.59700000000004,313.2850000000001L213.61200000000002,311.9310000000001C213.61200000000002,311.9310000000001,214.35100000000003,310.4530000000001,216.19800000000004,309.5910000000001S221.11600000000004,309.96000000000015,221.42800000000003,307.37400000000014S220.50800000000004,307.4970000000001,220.87700000000004,304.54200000000014S220.50800000000004,302.20200000000017,222.72400000000005,300.60200000000015S224.03500000000005,296.41500000000013,224.03500000000005,296.41500000000013L229.81200000000004,293.69300000000015L224.76000000000005,288.40300000000013C224.76000000000005,288.40300000000013,224.21400000000006,287.66700000000014,224.12600000000006,286.37600000000015S224.32800000000006,280.70500000000015,224.32800000000006,280.70500000000015S224.72700000000006,279.59700000000015,226.13500000000005,279.15700000000015S229.78600000000006,278.70200000000017,230.82900000000004,278.91600000000017S234.08300000000003,280.01800000000014,234.88000000000002,280.2490000000002S238.13300000000004,280.04100000000017,238.89400000000003,279.7580000000002S241.19700000000003,279.4880000000002,241.88700000000003,278.4640000000002S242.72400000000002,276.6370000000002,242.72400000000002,276.6370000000002S243.00600000000003,274.7410000000002,243.579,274.1570000000002S244.863,272.9070000000002,246.044,273.5010000000002S248.818,275.3380000000002,248.818,275.3380000000002L250.45000000000002,275.7830000000002L251.026,276.3300000000002C251.026,276.3300000000002,250.894,276.9620000000002,251.25500000000002,277.62700000000024S253.27,280.38900000000024,253.27,280.38900000000024L254.62900000000002,281.1590000000002L256.46500000000003,281.35300000000024L257.35900000000004,280.69700000000023L257.622,279.51800000000026L258.583,278.85200000000026L259.896,278.37000000000023L261.358,277.28000000000026L262.02,276.44200000000023C262.02,276.44200000000023,260.034,274.6570000000002,259.765,273.26900000000023S259.496,271.88100000000026,259.496,271.88100000000026S263.507,270.8010000000003,264.614,270.9400000000003S266.738,271.52000000000027,267.18399999999997,272.3600000000003S268.51399999999995,275.3420000000003,268.51399999999995,275.3420000000003L269.27799999999996,276.8160000000003C269.27799999999996,276.8160000000003,269.717,277.8140000000003,270.75499999999994,277.5310000000003S274.1499999999999,275.71000000000026,274.1499999999999,275.71000000000026L277.5399999999999,277.5460000000003L282.8049999999999,274.5140000000003L283.7009999999999,273.4740000000003C283.7009999999999,273.4740000000003,284.9059999999999,272.40300000000025,285.1659999999999,272.52800000000025S290.0169999999999,281.38200000000023,290.0169999999999,281.38200000000023L292.7909999999999,283.68500000000023L294.3609999999999,287.8730000000002L296.5089999999999,288.3510000000002L300.6179999999999,285.26400000000024V299.88100000000026L297.69799999999987,317.4400000000003L293.00199999999984,314.7550000000003L291.315,313.163Z"
    stroke-width="1"
    stroke-linejoin="round"
    style="-webkit-tap-highlight-color: rgba(0, 0, 0, 0); stroke-linejoin: round;"></path>
  <path
    fill="#cccccc"
    stroke="#222222"
    d="M224.035,296.66C224.035,296.66,221.34799999999998,297.869,218.82,296.66S217.72,293.47200000000004,214.313,293.47200000000004S208.268,292.70200000000006,208.268,292.70200000000006S208.37800000000001,289.40600000000006,205.08,288.96600000000007S200.90300000000002,288.6360000000001,200.90300000000002,288.6360000000001L201.562,286.5470000000001C201.562,286.5470000000001,203.98000000000002,286.7680000000001,205.18900000000002,283.69000000000005S204.96900000000002,279.4030000000001,204.96900000000002,279.4030000000001S200.133,274.89700000000005,199.693,273.5780000000001S198.59300000000002,270.1710000000001,198.044,270.3900000000001S196.72500000000002,269.9520000000001,196.286,270.9410000000001S193.648,270.72100000000006,191.78,270.72100000000006S188.043,270.28200000000004,186.944,271.93000000000006S183.09699999999998,276.98600000000005,183.09699999999998,276.98600000000005V277.53600000000006L178.7,275.22700000000003C178.7,275.22700000000003,178.36999999999998,273.139,178.7,272.58900000000006S177.601,269.84200000000004,176.06199999999998,267.97300000000007S174.08299999999997,260.49800000000005,174.08299999999997,260.49800000000005S173.86299999999997,256.87200000000007,174.96199999999996,255.66200000000003S177.37999999999997,252.36400000000003,175.95099999999996,249.06600000000003S169.79499999999996,242.69200000000004,169.13599999999997,241.59200000000004S166.71799999999996,234.44800000000004,167.59699999999998,233.01900000000003S170.78499999999997,230.71000000000004,172.10399999999998,230.16100000000003S175.29199999999997,229.61100000000002,175.29199999999997,229.61100000000002L175.18199999999996,227.413C175.18199999999996,227.413,178.80899999999997,227.852,179.57799999999995,227.193S180.89699999999993,225.875,179.68799999999996,224.555S177.04999999999995,222.357,177.04999999999995,222.357L177.48999999999995,220.269L179.68799999999996,220.37900000000002L179.79799999999997,213.23300000000003C179.79799999999997,213.23300000000003,187.24699999999999,217.16900000000004,187.56899999999996,214.26400000000004S186.92299999999997,211.64100000000005,185.95499999999996,210.23000000000005S188.17399999999995,206.60000000000005,188.17399999999995,206.60000000000005L189.16199999999995,205.03100000000006L185.31999999999994,203.92600000000007L183.02399999999994,201.97200000000007L176.53499999999994,201.10300000000007C176.53499999999994,201.10300000000007,173.30799999999994,203.61800000000005,171.12099999999995,204.55500000000006S164.29999999999995,203.67100000000008,162.37299999999996,206.27400000000006S159.30099999999996,210.17700000000005,159.50999999999996,212.72900000000007S161.85299999999995,217.20700000000008,160.91599999999997,219.34100000000007S159.82299999999998,222.82800000000006,157.37599999999998,223.71400000000006S150.81599999999997,226.00500000000005,148.837,228.08800000000005S143.527,231.88800000000006,143.37099999999998,231.99200000000005S140.55999999999997,233.08600000000004,141.028,231.42000000000004S140.97299999999998,225.69200000000004,140.97299999999998,225.69200000000004S139.25799999999998,224.54600000000005,137.85199999999998,227.41000000000003S135.14399999999998,231.99200000000002,132.95799999999997,232.82500000000002S130.35399999999996,233.71,130.35399999999996,233.71S129.36499999999995,241.46800000000002,128.53199999999995,243.967S128.21999999999994,252.348,127.64699999999995,254.692S125.19999999999995,259.586,125.77199999999995,260.784S129.05199999999994,262.138,130.30199999999994,262.815S133.47799999999992,264.793,134.05099999999993,267.135S133.52999999999994,269.78999999999996,135.19599999999994,271.092S137.95599999999993,271.769,138.26799999999994,273.904S138.42499999999995,281.401,137.64299999999994,282.13S135.55999999999995,281.661,135.61199999999994,284.15999999999997S134.98699999999994,289.05499999999995,134.98699999999994,289.05499999999995S133.80999999999995,289.12399999999997,131.87199999999993,289.99899999999997S128.55899999999994,290.37399999999997,128.37199999999993,293.06199999999995S127.99699999999993,298.43699999999995,126.68399999999993,298.93699999999995S122.30899999999993,299.56199999999995,122.30899999999993,299.56199999999995S122.68399999999993,303.62499999999994,119.87099999999992,306.43699999999995S115.87099999999992,309.49999999999994,115.87099999999992,309.49999999999994L118.18399999999993,310.74999999999994L119.30899999999993,312.68799999999993C119.30899999999993,312.68799999999993,123.05899999999993,311.31299999999993,126.49699999999993,313.93799999999993S132.74699999999993,319.18799999999993,132.74699999999993,319.18799999999993H134.87199999999993C134.87199999999993,319.18799999999993,135.43499999999992,318.56299999999993,136.12199999999993,316.87499999999994S136.99699999999993,314.87499999999994,136.99699999999993,314.87499999999994L140.05999999999992,314.56199999999995L141.18499999999992,313.49899999999997L141,310.375C141,310.375,141.688,309.187,142.375,309.812S148.563,310.5,148.563,310.5S152.063,312.375,152.438,312.25S155.75099999999998,309.062,157.688,309.812S162.438,310.687,164.00099999999998,312.937S166.56399999999996,318,166.56399999999996,318L167.81399999999996,318.688L171.87699999999995,314.438L173.62699999999995,314.813L175.31499999999994,314.938L175.93999999999994,314.5L175.75199999999995,311.562L178.50199999999995,307.437C178.50199999999995,307.437,180.43999999999994,309.187,180.75199999999995,310S182.87699999999995,309.687,182.87699999999995,309.687L183.37699999999995,312.937C183.37699999999995,312.937,184.00199999999995,313.5,185.62699999999995,313.75S187.00199999999995,311.875,187.00199999999995,311.875L188.93999999999994,312.188C188.93999999999994,312.188,189.87799999999993,313.501,191.25299999999993,313.501S193.25299999999993,311.626,193.25299999999993,311.626L194.75299999999993,309.313C194.75299999999993,309.313,196.87799999999993,309.25,197.12799999999993,310.001S198.94099999999992,313.43899999999996,198.94099999999992,313.43899999999996L199.81599999999992,312.626H201.56599999999992C201.56599999999992,312.626,202.81599999999992,315.68899999999996,205.31599999999992,314.31399999999996S208.94099999999992,312.001,208.94099999999992,312.001L213.80499999999992,311.618C213.80499999999992,311.618,214.83099999999993,310.267,215.68099999999993,309.865S217.79999999999993,309.137,219.07999999999993,309.158S220.59999999999994,308.77700000000004,220.59999999999994,308.77700000000004L221.30199999999994,307.91400000000004L221.42999999999992,306.27500000000003L221.02399999999992,306.07800000000003L220.8129999999999,305.567L221.0409999999999,302.434L221.4309999999999,301.40000000000003L222.3289999999999,300.88800000000003L222.7269999999999,300.60100000000006L223.48699999999988,299.87700000000007L224.03799999999987,298.84100000000007L224.21399999999986,297.45000000000005L224.035,296.66Z"
    stroke-width="1"
    stroke-linejoin="round"
    style="-webkit-tap-highlight-color: rgba(0, 0, 0, 0); stroke-linejoin: round;"></path>
  <path
    fill="#cccccc"
    stroke="#222222"
    d="M162.75,171.5C162.75,171.5,161.25,173.75,160.875,175.625S160.75,178.375,159.875,178.75S157.125,178.75,157.125,178.75L156.375,177L150.25,172.909H148.375L149,167.875C149,167.875,146.875,167.5,147.75,166.25S149.571,164.125,149.571,164.125L150.125,160.375L150.75,159.125C150.75,159.125,151.642,158.25,149.571,158.125S145.375,158.125,145.375,158.125L144.625,157.25V155.39L143.125,153.125C143.125,153.125,140.875,149.875,139.75,151.75S136.25,153.125,136.25,153.125S137,148,140.375,144.875S149.571,133.763,149.571,133.763L150.709,133.51000000000002L151.098,135.16100000000003L151.215,135.66000000000003L153.116,135.687L156.163,135.358L158.174,135.041L158.928,134.902C158.928,134.902,162.59,141.69799999999998,162.75,142.22S165.235,148.736,165.107,149.581S163.901,152.43099999999998,163.986,153.036S165.096,155.90200000000002,165.26899999999998,156.213S167.40699999999998,159.684,168.22899999999998,160.091S169.58599999999998,160.33700000000002,169.58599999999998,160.33700000000002L170.265,160.30300000000003L171.006,160.729L171.256,161.013H171.99L170.18,165.036L166.77200000000002,168.444L166.43900000000002,169.658C166.43900000000002,169.658,165.52700000000002,170.05399999999997,164.29700000000003,170.53099999999998S162.75,171.5,162.75,171.5Z"
    stroke-width="1"
    stroke-linejoin="round"
    style="-webkit-tap-highlight-color: rgba(0, 0, 0, 0); stroke-linejoin: round;"></path>
  <path
    fill="#cccccc"
    stroke="#222222"
    d="M145.694,166.953C145.694,166.953,142.862,166.245,140.172,168.086S136.774,170.281,136.774,170.281S137.694,166.175,137.694,165.32500000000002S136.349,162.989,135.712,161.99800000000002S133.659,159.662,133.659,159.662L134.65,158.388C134.65,158.388,135.429,156.052,135.5,154.565S136.268,153.026,136.268,153.026S137.452,153.30100000000002,138.096,153.026S139.58,152.193,139.913,151.529S141.019,151.12,141.46800000000002,151.451S142.39600000000002,152.23999999999998,142.39600000000002,152.23999999999998L143.667,153.94299999999998L144.625,155.39V157.25L145.375,158.125C145.375,158.125,149.451,158.092,149.82,158.146S150.755,158.21599999999998,150.888,158.54999999999998S150.71,159.20499999999998,150.71,159.20499999999998L150.191,160.242L149.57,164.12599999999998C149.57,164.12599999999998,148.302,165.49999999999997,148.077,165.80399999999997S147.54,166.86199999999997,147.54,166.86199999999997L145.694,166.953Z"
    stroke-width="1"
    stroke-linejoin="round"
    style="-webkit-tap-highlight-color: rgba(0, 0, 0, 0); stroke-linejoin: round;"></path>
  <path
    fill="#cccccc"
    stroke="#222222"
    d="M119.846,157.713H123.813C123.813,157.713,127.383,158.832,127.284,159.661S124.408,162.87,124.408,162.87S120.144,165.052,119.846,162.87S119.846,157.713,119.846,157.713Z"
    stroke-width="1"
    stroke-linejoin="round"
    style="-webkit-tap-highlight-color: rgba(0, 0, 0, 0); stroke-linejoin: round;"></path>
  <path
    fill="#cccccc"
    stroke="#222222"
    d="M128.76,175.681L129.493,171.335L132.333,171.812C132.333,171.812,133.799,175.90900000000002,134.347,176.913S135.5,178.917,135.5,178.917S134.96,179.84,133.108,179.386S129.705,177.458,129.705,177.458L128.76,175.681Z"
    stroke-width="1"
    stroke-linejoin="round"
    style="-webkit-tap-highlight-color: rgba(0, 0, 0, 0); stroke-linejoin: round;"></path>
  <path
    fill="#cccccc"
    stroke="#222222"
    d="M129.767,171.314C129.767,171.314,129.38,167.403,130.025,165.76999999999998S130.798,163.879,130.798,163.879L132.388,161.988L134.02100000000002,160.656C134.02100000000002,160.656,138.276,163.364,137.93200000000002,165.03900000000002S137.049,170.10500000000002,137.049,170.10500000000002L135.88,172.59300000000002L133.463,175.31000000000003L129.767,171.314Z"
    stroke-width="1"
    stroke-linejoin="round"
    style="-webkit-tap-highlight-color: rgba(0, 0, 0, 0); stroke-linejoin: round;"></path>
  <path
    fill="#cccccc"
    stroke="#222222"
    d="M166.845,168.649L171.99099999999999,170.254C171.99099999999999,170.254,172.54799999999997,170.819,173.04999999999998,171.106S174.22899999999998,171.853,174.90699999999998,171.908S176.31199999999998,172.22199999999998,176.391,172.55999999999997S176.254,175.60599999999997,176.272,176.25499999999997S176.529,180.01199999999997,176.736,180.72299999999996S177.887,183.69199999999995,178.61599999999999,184.45199999999997S179.69099999999997,185.13899999999998,180.07299999999998,185.96499999999997S180.88299999999998,188.27499999999998,180.72299999999998,189.13899999999998S180.59599999999998,190.70199999999997,180.047,190.88099999999997S178.752,190.46499999999997,178.65,190.88099999999997S177.827,194.79199999999997,177.827,194.79199999999997S176.787,199.53499999999997,176.726,199.90999999999997S176.536,201.10299999999998,176.536,201.10299999999998L173.801,203.04699999999997C173.801,203.04699999999997,172.505,203.88099999999997,171.926,204.16699999999997S170.70899999999997,204.84099999999998,169.58999999999997,204.84199999999998S165.67999999999998,204.57899999999998,164.08399999999997,205.08999999999997S161.03999999999996,208.08399999999997,160.96499999999997,208.19199999999998S159.94099999999997,209.825,159.79099999999997,210.32999999999998S159.44599999999997,211.87499999999997,159.49199999999996,212.422S160.06699999999995,214.837,160.06699999999995,214.837L160.82499999999996,216.65599999999998C160.82499999999996,216.65599999999998,161.14499999999995,217.43899999999996,161.14899999999997,218.30199999999996S160.265,220.91099999999997,160.265,220.91099999999997S159.75699999999998,222.16299999999998,159.21599999999998,222.61599999999999S157.95199999999997,223.49599999999998,156.62399999999997,223.986S152.07999999999996,225.617,150.67799999999997,226.642S147.58499999999998,229.275,146.92399999999998,229.749S143.85199999999998,231.759,143.48099999999997,231.93099999999998S142.56699999999998,232.44199999999998,141.93899999999996,232.37099999999998S141.05299999999997,232.08599999999998,141.05299999999997,232.08599999999998L140.90699999999998,231.73199999999997L141.07199999999997,231.24999999999997L141.22299999999998,229.12299999999996L141.1,226.88999999999996L140.975,225.69299999999996C140.975,225.69299999999996,139.96,225.14399999999995,139.286,225.69499999999996S137.489,228.21699999999996,137.036,228.95799999999997S135.542,231.09899999999996,135.203,231.40399999999997S133.937,232.40699999999995,132.43800000000002,233.02299999999997S130.26700000000002,233.71699999999996,130.26700000000002,233.71699999999996L130.13900000000004,230.81799999999996L127.61800000000004,227.92299999999994C127.61800000000004,227.92299999999994,128.08500000000004,221.49899999999994,127.91800000000003,220.95699999999994S125.08500000000004,218.41499999999994,124.71000000000004,217.70699999999994S123.91800000000003,215.03999999999994,125.41800000000003,214.28999999999994S129.87600000000003,212.79099999999994,130.54300000000003,210.99899999999994S131.37700000000004,210.24899999999994,131.04300000000003,207.24899999999994S131.29300000000003,202.16499999999994,131.29300000000003,202.16499999999994L134.68900000000002,201.99799999999993C134.68900000000002,201.99799999999993,134.45000000000002,200.37499999999994,134.62500000000003,200.00999999999993S135.15900000000002,199.14099999999993,135.51900000000003,198.86199999999994S137.19700000000003,197.66699999999994,137.19700000000003,197.66699999999994L139.26800000000003,196.66299999999995L141.29300000000003,196.29299999999995L142.25100000000003,196.24899999999994C142.25100000000003,196.24899999999994,140.72000000000003,195.45099999999994,140.43300000000002,194.89999999999995S139.97500000000002,194.02699999999996,140.27100000000002,193.46599999999995S141.709,191.59199999999996,141.96200000000002,191.18099999999995S142.63000000000002,189.76799999999994,142.63000000000002,189.76799999999994S143.026,189.03899999999993,143.30300000000003,189.49899999999994S144.23900000000003,191.13899999999992,144.53600000000003,191.33799999999994S146.31200000000004,191.99799999999993,146.31200000000004,191.99799999999993L148.62000000000003,189.90599999999992L149.87500000000003,188.74799999999993L150.65500000000003,187.71999999999994L150.95500000000004,186.71999999999994L152.00000000000003,185.87199999999993L153.25000000000003,184.49699999999993C153.25000000000003,184.49699999999993,154.27600000000004,184.35499999999993,154.86900000000003,183.78199999999993S155.94200000000004,182.60499999999993,155.94200000000004,182.60499999999993L156.75200000000004,181.08199999999994L157.13800000000003,179.70599999999993V178.91299999999993C157.13800000000003,178.91299999999993,159.01800000000003,179.16199999999992,159.63600000000002,178.82499999999993S160.44700000000003,178.67699999999994,160.61700000000002,177.39299999999994S160.97100000000003,175.21799999999993,160.97100000000003,175.21799999999993L161.47300000000004,173.83999999999995L162.01500000000004,172.73799999999994L162.56300000000005,171.78799999999995C162.56300000000005,171.78799999999995,162.96600000000004,171.15099999999995,163.32000000000005,170.89299999999994S164.50100000000006,170.44699999999995,164.50100000000006,170.44699999999995L166.45800000000006,169.58699999999993L166.845,168.649Z"
    stroke-width="1"
    stroke-linejoin="round"
    style="-webkit-tap-highlight-color: rgba(0, 0, 0, 0); stroke-linejoin: round;"></path>
  <path
    fill="#cccccc"
    stroke="#222222"
    d="M133.658,175.5C134.56599999999997,177.5,135.5,178.917,135.5,178.917L138,181.375H140.25L142.29,183.5L144.5,185.625L146.375,186.75L148.125,185.625L150.921,186.75L152,185.875L153.25,184.5C153.25,184.5,154.536,184.585,155.942,182.608S157.125,178.75,157.125,178.75L156.375,177L150.125,172.909H148.375C148.375,172.909,149.213,167.70499999999998,148.767,167.821S147.573,167.014,147.573,167.014L145.328,166.888C145.328,166.888,145.602,166.68,144.57500000000002,166.824S142.35000000000002,167.083,141.55200000000002,167.35000000000002S139.22500000000002,168.728,139.22500000000002,168.728L136.77400000000003,170.281L135.88000000000002,172.594L133.658,175.5Z"
    stroke-width="1"
    stroke-linejoin="round"
    style="-webkit-tap-highlight-color: rgba(0, 0, 0, 0); stroke-linejoin: round;"></path>
  <path
    fill="#cccccc"
    stroke="#222222"
    d="M113.538,197.765C113.538,197.765,114.836,196.07799999999997,115.225,193.094S117.55999999999999,185.828,117.55999999999999,185.828L121.582,183.622C121.582,183.622,125.734,180.72000000000003,126.253,179.51100000000002S128.759,175.68000000000004,128.759,175.68000000000004L129.70399999999998,177.45700000000002C129.70399999999998,177.45700000000002,130.98,178.562,131.84399999999997,178.91600000000003S133.49499999999998,179.61400000000003,134.14499999999995,179.50700000000003S135.49899999999997,178.91600000000003,135.49899999999997,178.91600000000003L137.99899999999997,181.37400000000002H140.24899999999997L144.37399999999997,185.50400000000002L146.32899999999998,186.722L148.35899999999998,185.71900000000002L150.95399999999998,186.722C150.95399999999998,186.722,150.93599999999998,187.749,149.87399999999997,188.749S146.31099999999998,191.999,146.31099999999998,191.999S144.623,191.749,144.31099999999998,191.061S142.873,188.74800000000002,142.498,190.061S141.248,191.874,140.748,192.624S139.623,194.374,140.748,195.18699999999998S142.248,196.24999999999997,142.248,196.24999999999997S139.31,196.18699999999998,137.435,197.49999999999997S134.435,199.37499999999997,134.56,200.68799999999996S134.685,202.00099999999995,134.685,202.00099999999995H131.31C131.31,202.00099999999995,129.642,196.93799999999996,128.757,195.37599999999995S126.685,192.06299999999996,123.685,194.18799999999996S116.31,198.25099999999995,116.31,198.25099999999995L114.185,197.93799999999996L113.538,197.765Z"
    stroke-width="1"
    stroke-linejoin="round"
    style="-webkit-tap-highlight-color: rgba(0, 0, 0, 0); stroke-linejoin: round;"></path>
  <path
    fill="#cccccc"
    stroke="#222222"
    d="M94.581,206.477H98.25500000000001L98.72600000000001,205.629C98.72600000000001,205.629,107.11200000000001,206.19299999999998,110.03200000000001,203.744S114.17800000000001,199.975,114.17800000000001,199.975L113.53900000000002,197.76399999999998L115.87600000000002,198.18499999999997L116.31400000000002,198.24899999999997C116.31400000000002,198.24899999999997,121.64200000000002,195.56199999999995,122.69800000000002,194.85199999999998S125.53000000000002,192.87099999999998,126.43100000000003,193.22499999999997S128.34600000000003,194.68499999999997,128.34600000000003,194.68499999999997L129.12900000000002,196.11699999999996L130.30900000000003,198.68699999999995L131.28200000000004,201.90099999999995C131.28200000000004,201.90099999999995,130.91700000000003,204.74099999999996,130.94300000000004,205.54199999999994S131.32100000000003,208.47099999999995,131.21000000000004,209.12599999999995S130.66700000000003,210.73099999999994,130.54400000000004,211.00099999999995S129.98100000000005,212.06399999999994,129.18600000000004,212.52499999999995S125.75200000000004,213.95599999999996,125.26600000000003,214.38099999999994S123.32500000000003,215.90199999999993,123.17700000000004,217.98499999999996S122.79000000000003,221.49599999999995,122.79000000000003,221.49599999999995L121.45100000000004,221.28799999999995C121.45100000000004,221.28799999999995,120.41000000000004,222.50799999999995,120.26100000000004,223.63899999999995S119.57600000000004,224.47199999999995,119.57600000000004,224.47199999999995S116.66100000000003,221.34799999999996,115.08400000000003,219.50299999999996S111.60300000000004,216.76599999999996,111.60300000000004,216.76599999999996S108.27100000000004,214.29699999999997,106.15800000000004,213.82099999999997S100.74200000000005,213.04799999999997,99.70100000000005,212.18399999999997S95.50600000000006,209.59499999999997,95.50600000000006,209.59499999999997L94.22700000000006,207.89999999999998L94.581,206.477Z"
    stroke-width="1"
    stroke-linejoin="round"
    style="-webkit-tap-highlight-color: rgba(0, 0, 0, 0); stroke-linejoin: round;"></path>
  <path
    fill="#cccccc"
    stroke="#222222"
    d="M66.945,225.987V218.418C66.945,218.418,68.86699999999999,217.216,70.309,216.255S77.878,209.287,78.719,207.364S81.24199999999999,205.441,81.24199999999999,205.441L87.49,196.911C87.49,196.911,91.095,199.194,90.97399999999999,200.035S89.293,202,89.293,202S89.77300000000001,203.399,91.816,204.721S94.449,207.002,94.449,207.002L94.224,207.9L95.45400000000001,209.531L97.239,210.583L99.30000000000001,211.883L100.23500000000001,212.50400000000002L102.13500000000002,213.067L103.90500000000002,213.399L106.43900000000002,213.895L107.41500000000002,214.258L109.15700000000002,215.16400000000002L110.10200000000002,215.74400000000003L111.47100000000002,216.67200000000003L112.36200000000002,217.193L113.84500000000003,218.276L115.08100000000003,219.50400000000002L116.39400000000003,220.99800000000002L117.22700000000003,221.92100000000002L118.40400000000004,223.20900000000003L119.65900000000003,224.50800000000004C119.65900000000003,224.50800000000004,121.08700000000003,227.03500000000003,119.79100000000004,227.88200000000003S118.17800000000004,229.12500000000003,118.17800000000004,229.12500000000003S117.09400000000004,225.71300000000002,114.92500000000004,226.93000000000004S112.20100000000004,229.68000000000004,112.04300000000003,230.20900000000003S106.96500000000003,230.55300000000003,106.96500000000003,230.55300000000003S107.52100000000003,227.98800000000003,106.80600000000003,227.51200000000003S106.80600000000003,226.21600000000004,107.22900000000003,225.58100000000002S106.01300000000003,222.275,104.69000000000003,223.20100000000002S102.57400000000003,224.31100000000004,102.57400000000003,224.31100000000004L96.14800000000002,219.65600000000003C96.14800000000002,219.65600000000003,93.29200000000003,218.57200000000003,92.55100000000003,219.60300000000004S91.94300000000003,220.45000000000005,91.94300000000003,220.45000000000005L87.02400000000003,215.87500000000006C87.02400000000003,215.87500000000006,83.12400000000002,214.12600000000006,81.95800000000003,216.29200000000006S80.41600000000003,218.87500000000006,80.41600000000003,218.87500000000006S78.49900000000002,218.50100000000006,77.79100000000003,220.66700000000006S77.66600000000003,228.29200000000006,77.66600000000003,228.29200000000006S77.58300000000003,228.70900000000006,76.58300000000003,230.29200000000006S74.71500000000003,232.77700000000007,74.71500000000003,232.77700000000007L68.74400000000003,227.61300000000008L66.945,225.987Z"
    stroke-width="1"
    stroke-linejoin="round"
    style="-webkit-tap-highlight-color: rgba(0, 0, 0, 0); stroke-linejoin: round;"></path>
  <path
    fill="#cccccc"
    stroke="#222222"
    d="M115.875,309.5C115.875,309.5,114.125,307.187,114.25,305.312S113.625,298.437,113.437,297.624S113.312,292.93600000000004,112.874,291.249S110.374,289.499,110.374,289.499S109.999,289.624,109.624,287.68600000000004S110.999,285.37300000000005,110.999,285.37300000000005S110.93599999999999,284.74800000000005,111.124,281.18500000000006S112.999,270.31000000000006,112.937,268.49700000000007S109.499,266.0590000000001,109.499,266.0590000000001S109.499,263.4960000000001,109.499,261.2460000000001S109.874,258.6210000000001,110.937,256.5580000000001S110.812,253.3080000000001,109.937,252.3080000000001S108.249,250.0580000000001,108.249,250.0580000000001L105.499,249.5580000000001C105.499,249.5580000000001,105.499,246.87000000000012,105.499,243.9330000000001S105.43599999999999,239.99500000000012,106.812,237.3080000000001S110.312,232.6830000000001,110.687,232.37000000000012L111.917,230.3870000000001H106.997L107.154,229.20300000000012C107.154,229.20300000000012,107.201,227.87600000000012,106.941,227.64000000000013S106.298,227.14800000000014,106.58,226.63000000000014S107.286,225.42600000000013,107.286,225.42600000000013L107.211,224.84700000000012L106.879,224.1660000000001L106.34100000000001,223.5110000000001L105.75800000000001,223.1110000000001L105.24300000000001,223.0060000000001L104.953,223.06000000000012C104.953,223.06000000000012,104.06400000000001,223.62100000000012,103.765,223.78100000000012S102.574,224.30700000000013,102.574,224.30700000000013L96.148,219.65200000000013C96.148,219.65200000000013,93.88,219.02800000000013,93.374,219.18000000000012S92.609,219.51900000000012,92.446,219.74600000000012S91.998,220.37000000000012,91.998,220.37000000000012L87.025,215.87000000000012C87.025,215.87000000000012,85.415,215.17500000000013,84.908,215.26400000000012S83.788,215.2560000000001,83.788,215.2560000000001L82.955,215.4030000000001L82.408,215.7280000000001L82.057,216.12500000000009L80.416,218.86900000000009C80.416,218.86900000000009,79.871,218.6140000000001,79.225,219.00500000000008S78.053,219.87900000000008,77.881,220.4170000000001S77.293,222.0860000000001,77.46,223.04100000000008S77.46799999999999,225.2390000000001,77.42099999999999,225.4190000000001S77.65499999999999,228.17800000000008,77.65499999999999,228.17800000000008L77.41599999999998,228.98500000000007L76.06499999999998,231.06600000000006L74.79899999999998,232.68000000000006C74.79899999999998,232.68000000000006,79.83199999999998,236.36900000000006,80.83199999999998,236.57800000000006S86.78999999999998,235.11900000000006,86.70699999999998,236.57800000000006S86.28999999999998,244.28700000000006,85.66499999999998,245.66200000000006S83.49799999999998,249.24400000000006,82.53999999999998,250.20300000000006S78.95699999999998,251.32900000000006,77.66499999999998,252.03700000000006S73.49799999999998,253.45400000000006,74.28999999999998,254.53700000000006S77.28999999999998,257.66200000000003,77.28999999999998,257.66200000000003S80.45699999999998,257.204,82.37299999999998,256.66200000000003S85.58099999999997,254.07800000000003,88.16499999999998,255.24500000000003S91.16499999999998,258.45300000000003,91.16499999999998,258.45300000000003L94.51999999999998,270.10600000000005C94.51999999999998,270.10600000000005,94.94099999999999,273.58400000000006,94.17599999999999,274.27200000000005S92.53199999999998,274.88200000000006,91.92099999999999,277.67300000000006S90.42999999999999,281.2660000000001,90.04799999999999,282.60400000000004S85.03999999999999,287.26800000000003,84.582,288.45300000000003S86.493,294.37600000000003,86.41699999999999,295.752S86.64599999999999,299.344,86.64599999999999,299.344S85.42299999999999,300.223,85.76699999999998,301.561S88.55699999999999,306.989,88.55699999999999,306.989L88.90199999999999,312.07099999999997C88.90199999999999,312.07099999999997,88.32799999999999,313.561,91.04199999999999,314.02S95.36099999999999,314.364,95.74399999999999,315.893S95.70599999999999,320.25,94.67399999999999,321.78S92.60999999999999,324.57099999999997,92.76299999999999,326.63399999999996S92.151,329.08,92.151,329.08L93.068,330.073L93.297,331.832L95.01299999999999,334.354L96.96699999999998,335.003L97.34899999999999,334.774L97.15799999999999,329.499L99.68099999999998,327.206L102.62399999999998,326.747C102.62399999999998,326.747,103.42699999999998,325.524,104.22899999999998,324.72200000000004S105.48999999999998,323.19300000000004,105.48999999999998,323.19300000000004S108.20399999999998,323.11800000000005,108.50999999999998,323.88100000000003S110.11499999999998,323.84200000000004,110.30599999999998,322.963S113.13399999999999,319.944,113.82199999999999,318.721S114.08999999999999,312.337,114.08999999999999,312.337L115.875,309.5Z"
    stroke-width="1"
    stroke-linejoin="round"
    style="-webkit-tap-highlight-color: rgba(0, 0, 0, 0); stroke-linejoin: round;"></path>
  <path
    fill="#cccccc"
    stroke="#222222"
    d="M115.875,309.5C115.875,309.5,117.063,309.25,119.875,306.437S122.313,299.562,122.313,299.562S125.376,299.437,126.688,298.937S128.188,295.749,128.376,293.062S129.939,290.874,131.876,289.999S134.991,289.055,134.991,289.055S135.668,286.659,135.616,284.16S136.866,282.858,137.64700000000002,282.13000000000005S138.58400000000003,276.03900000000004,138.27200000000002,273.90400000000005S136.866,272.39400000000006,135.20000000000002,271.09200000000004S134.62800000000001,269.47800000000007,134.055,267.13500000000005S131.555,263.49100000000004,130.306,262.81500000000005S126.34900000000002,261.982,125.77600000000001,260.78400000000005S127.07800000000002,257.03600000000006,127.65100000000001,254.69200000000004S127.70300000000002,246.46600000000004,128.536,243.96700000000004S130.358,233.71000000000004,130.358,233.71000000000004L130.08700000000002,230.75600000000003L127.61900000000001,227.92300000000003L127.95100000000001,221.94600000000003C127.95100000000001,221.94600000000003,128.452,221.29400000000004,127.447,220.36500000000004S124.85000000000001,217.90500000000003,124.85000000000001,217.90500000000003S124.25900000000001,216.20000000000002,124.39800000000001,215.71400000000003S124.537,215.22800000000004,124.537,215.22800000000004S123.403,216.69300000000004,123.307,217.18900000000005S123.015,219.79900000000006,122.98700000000001,220.04100000000005S122.822,221.29600000000005,122.822,221.29600000000005L121.518,221.40300000000005L120.694,222.41700000000006L120.339,223.27300000000005L119.891,224.46100000000004L119.66300000000001,224.50600000000003C119.66300000000001,224.50600000000003,120.156,225.50600000000003,120.23800000000001,225.96800000000002S120.34700000000001,227.21,120.18200000000002,227.45100000000002S119.15700000000001,228.30700000000002,118.94700000000002,228.46800000000002S118.14200000000001,229.01100000000002,118.14200000000001,229.01100000000002S117.47900000000001,227.61500000000004,117.16000000000001,227.324S116.498,226.739,116.162,226.703S115.04400000000001,226.868,115.04400000000001,226.868L113.81000000000002,227.686L112.74100000000001,228.816L112.21600000000001,229.741C112.21600000000001,229.741,112.19200000000001,230.08700000000002,112.04700000000001,230.20700000000002S111.06700000000001,232.06100000000004,110.69200000000001,232.37300000000002S108.19200000000001,234.62300000000002,106.81700000000001,237.311S105.5,241,105.5,243.938S105.5,249.563,105.5,249.563L108.25,250.063C108.25,250.063,109.063,251.313,109.938,252.313S112.001,254.50099999999998,110.938,256.563S109.5,259,109.5,261.25S109.5,266.063,109.5,266.063S112.875,266.688,112.938,268.501S111.313,277.626,111.125,281.18899999999996S111,285.375,111,285.375S109.25,285.75,109.625,287.688S110.375,289.501,110.375,289.501S112.438,289.56399999999996,112.875,291.251S113.25,296.81399999999996,113.438,297.626S114.376,303.43899999999996,114.251,305.31399999999996S114.501,309.87699999999995,114.501,309.87699999999995L115.875,309.5Z"
    stroke-width="1"
    stroke-linejoin="round"
    style="-webkit-tap-highlight-color: rgba(0, 0, 0, 0); stroke-linejoin: round;"></path>
</svg>
