<svg height="420" version="1.1" width="540" xmlns="http://www.w3.org/2000/svg" xmlns:xlink="http://www.w3.org/1999/xlink" style="overflow: hidden; position: relative; top: 0.8px;">
  <desc style="-webkit-tap-highlight-color: rgba(0, 0, 0, 0);">Created with Raphaël 2.2.0</desc>
  <defs style="-webkit-tap-highlight-color: rgba(0, 0, 0, 0);"></defs>
  <path
    fill="#cccccc"
    stroke="#222222"
    d="M212.117,86.476V76.724C212.117,76.724,210.426,73.214,210.68599999999998,72.303S211.38799999999998,71.003,211.38799999999998,71.003S210.13899999999998,68.012,211.38799999999998,67.102S213.41699999999997,65.542,213.41699999999997,65.542L210.65899999999996,61.771C210.65899999999996,61.771,210.03199999999995,63.571,208.78599999999997,63.251S206.64999999999998,62.538999999999994,205.40399999999997,63.214999999999996S202.30799999999996,64.354,202.05799999999996,65.422S199.63699999999997,69.053,198.99599999999995,67.77199999999999S196.43299999999996,65.743,195.04499999999996,66.81099999999999S192.87299999999996,69.41,192.87299999999996,69.41S186.64399999999995,68.76899999999999,185.29099999999997,66.669S183.72499999999997,64.035,183.72499999999997,64.035S185.29099999999997,63.038,185.11299999999997,62.29S183.08399999999997,60.332,183.33299999999997,59.583999999999996S185.85999999999996,56.522999999999996,185.85999999999996,56.522999999999996L183.51099999999997,54.031C183.51099999999997,54.031,182.12199999999996,54.849,180.91099999999997,55.704S177.20799999999997,57.413000000000004,174.96599999999998,56.274S170.623,52.857,170.623,52.857S167.134,56.168,166.636,56.31S164.856,56.523,164.856,56.523L163.68099999999998,55.206L167.17,52.358000000000004H165.85299999999998C165.85299999999998,52.358000000000004,163.04,48.833000000000006,162.86199999999997,48.370000000000005S161.33099999999996,52.499,161.33099999999996,52.499L159.08799999999997,49.580000000000005C159.08799999999997,49.580000000000005,157.48499999999996,51.502,156.73799999999997,51.182S155.42099999999996,50.506,155.42099999999996,50.506L156.13299999999995,49.438C156.13299999999995,49.438,155.70599999999996,46.662000000000006,154.38899999999995,46.021S150.93599999999995,45.309,151.36299999999994,46.519S151.85699999999994,48.726,151.30699999999993,49.295S150.72199999999992,50.611000000000004,149.61799999999994,49.544000000000004S148.30099999999993,47.978,148.30099999999993,47.978S146.94799999999992,48.084,147.01899999999992,49.295S147.4819999999999,51.182,146.34299999999993,51.146S144.70599999999993,50.327,144.66999999999993,49.58S142.53399999999993,48.867999999999995,141.64399999999992,49.723S138.86999999999992,53.452999999999996,138.86999999999992,53.452999999999996L133.43699999999993,52.095L130.38099999999991,55.150999999999996L131.51299999999992,58.31999999999999L121.55299999999991,69.752L115.66699999999992,64.31899999999999L112.27099999999992,68.95899999999999C112.27099999999992,68.95899999999999,119.80699999999992,73.689,121.99499999999992,76.689S128.74499999999992,83.252,130.3079999999999,85.252S135.2459999999999,92.127,135.6829999999999,93.565S137.3709999999999,101.44,138.9959999999999,103.565S143.55899999999988,110.69,143.7459999999999,112.253S144.8709999999999,117.941,144.8709999999999,117.941L158.43399999999988,110.441L160.43399999999988,109.378L164.43399999999988,105.378C164.43399999999988,105.378,176.87199999999987,101.378,181.99699999999987,99.065S201.49699999999987,91.815,201.49699999999987,91.815L211.62199999999987,87.752L212.117,86.476Z"
    stroke-width="1"
    stroke-linejoin="round"
    style="-webkit-tap-highlight-color: rgba(0, 0, 0, 0); stroke-linejoin: round;"></path>
  <path
    fill="#cccccc"
    stroke="#222222"
    d="M138.875,53.451L133.442,52.093L130.386,55.149L131.518,58.318L121.55799999999999,69.75L115.672,64.31700000000001L112.276,68.95700000000001C112.276,68.95700000000001,106.051,64.882,105.938,64.43S105.146,63.07200000000001,105.146,63.07200000000001S99.26,63.97700000000001,98.242,60.92100000000001S96.771,54.01700000000001,94.73400000000001,52.093S91.33800000000001,48.131,91.33800000000001,47.566S91.33800000000001,45.869,91.33800000000001,45.869L88.28200000000001,45.416C88.28200000000001,45.416,81.83100000000002,40.209999999999994,79.56700000000001,39.983S74.926,39.983,74.926,39.983S73.11500000000001,41.253,71.078,39.882S68.022,36.134,68.022,36.134V30.135L68.81400000000001,23.910000000000004C68.81400000000001,23.910000000000004,68.927,21.986000000000004,72.096,21.646000000000004S76.397,20.967000000000006,76.397,20.967000000000006L76.96300000000001,20.062000000000005H81.71700000000001C81.71700000000001,20.062000000000005,81.83000000000001,17.798000000000005,84.77300000000001,19.156000000000006S87.71600000000001,20.514000000000006,87.71600000000001,20.514000000000006S90.206,19.532000000000007,92.58300000000001,18.722000000000005S100.84500000000001,14.742000000000004,100.84500000000001,14.742000000000004S103.22200000000001,12.705000000000005,102.88300000000001,16.214000000000006S102.543,19.722000000000005,102.543,19.722000000000005S99.14800000000001,23.118000000000006,101.751,24.476000000000006S105.93900000000001,26.060000000000006,105.93900000000001,26.060000000000006S107.29700000000001,25.947000000000006,108.316,25.947000000000006S111.485,26.739000000000008,112.277,28.550000000000008S112.164,32.28500000000001,112.164,32.28500000000001S107.185,32.17200000000001,106.845,33.41700000000001S105.374,37.26500000000001,108.429,39.52900000000001S112.956,41.34000000000001,112.956,41.34000000000001L113.97500000000001,41.00000000000001V36.02000000000001L116.01200000000001,33.19000000000001C116.01200000000001,33.19000000000001,120.31300000000002,33.30300000000001,121.55800000000002,32.73700000000001S126.76500000000001,31.945000000000007,126.08500000000002,34.32100000000001S126.76500000000003,38.05600000000001,127.44300000000003,37.37700000000001S129.70700000000002,37.49000000000001,129.70700000000002,37.49000000000001L132.53700000000003,33.86800000000001C132.53700000000003,33.86800000000001,134.68700000000004,35.56500000000001,134.57400000000004,36.92400000000001S132.65000000000003,38.73500000000001,132.65000000000003,38.73500000000001L133.10300000000004,40.54600000000001L133.66900000000004,44.96000000000001L134.68800000000005,46.88400000000001L137.40400000000005,42.696000000000005C137.40400000000005,42.696000000000005,138.30900000000005,42.357000000000006,139.44100000000006,41.33800000000001S140.46000000000006,39.52700000000001,140.46000000000006,39.52700000000001S143.63000000000005,37.37700000000001,143.17700000000008,40.09300000000001S142.72400000000007,42.80900000000001,142.72400000000007,42.80900000000001L144.19600000000008,44.393000000000015C144.19600000000008,44.393000000000015,144.08300000000008,45.97700000000002,142.95100000000008,45.41200000000001S138.5370000000001,44.84600000000001,138.5370000000001,44.84600000000001L140.0080000000001,47.22300000000001C140.0080000000001,47.22300000000001,137.7450000000001,49.03500000000001,137.9710000000001,50.27900000000001S138.875,53.451,138.875,53.451Z"
    stroke-width="1"
    stroke-linejoin="round"
    style="-webkit-tap-highlight-color: rgba(0, 0, 0, 0); stroke-linejoin: round;"></path>
  <path
    fill="#cccccc"
    stroke="#222222"
    d="M152.714,128.564L145.267,117.72099999999999L151.00799999999998,114.54599999999999L158.63299999999998,110.33399999999999L160.27299999999997,109.46199999999999L161.41899999999995,108.39299999999999L163.88399999999996,105.92799999999998L164.35299999999995,105.45899999999999C164.35299999999995,105.45899999999999,169.21599999999995,103.79999999999998,170.56399999999996,103.33699999999999S177.23999999999995,100.96999999999998,177.23999999999995,100.96999999999998L182.54199999999994,98.82299999999998L187.90599999999995,96.68999999999998L192.09399999999994,95.14099999999998L197.74399999999994,93.12199999999997L202.07699999999994,91.58099999999997C202.07699999999994,91.58099999999997,203.11199999999994,91.16599999999997,204.36299999999994,90.66399999999997S210.91799999999995,88.03399999999998,210.91799999999995,88.03399999999998L211.62399999999994,87.75099999999998L212.63199999999995,87.35999999999997C212.63199999999995,87.35999999999997,226.09299999999996,99.06299999999997,228.15899999999993,101.20499999999997S241.00999999999993,114.89599999999997,241.00999999999993,114.89599999999997L244.60499999999993,115.12499999999997L245.21699999999993,117.93799999999997H249.57599999999994L249.88299999999992,115.66099999999997L257.9899999999999,116.27299999999997C257.9899999999999,116.27299999999997,258.2959999999999,118.03299999999997,257.5309999999999,120.09799999999997S256.2309999999999,122.31799999999997,256.2309999999999,122.31799999999997L255.9239999999999,124.30699999999997C255.9239999999999,124.30699999999997,252.4049999999999,124.38299999999997,252.7879999999999,125.91299999999997S254.08899999999988,128.56499999999997,254.08899999999988,128.56499999999997S253.5539999999999,132.64399999999998,252.4829999999999,133.94399999999996S248.3519999999999,138.22799999999995,248.3519999999999,138.22799999999995H245.9049999999999C245.9049999999999,138.22799999999995,247.96999999999989,140.75199999999995,247.2819999999999,141.13499999999996S243.91599999999988,141.82299999999995,243.91599999999988,141.82299999999995L242.3869999999999,140.75199999999995L240.47499999999988,141.28699999999995C240.47499999999988,141.28699999999995,239.7859999999999,142.28099999999995,238.2559999999999,141.28699999999995S236.80299999999988,139.45199999999994,236.80299999999988,139.45199999999994L236.57399999999987,138.53399999999993L232.29099999999988,140.52299999999994L232.7499999999999,142.13099999999994C232.7499999999999,142.13099999999994,233.28499999999988,143.27799999999993,232.1379999999999,144.19599999999994S229.30799999999988,145.11399999999995,229.30799999999988,145.11399999999995S228.39099999999988,143.50799999999995,227.31999999999988,143.66099999999994S223.4949999999999,144.57899999999995,223.4949999999999,144.57899999999995L218.98199999999989,147.33199999999994L219.2859999999999,148.63199999999995C219.2859999999999,148.63199999999995,212.1729999999999,148.86099999999996,211.17799999999988,150.16199999999995S210.18299999999988,152.37999999999994,210.18299999999988,152.37999999999994L207.58199999999988,150.31499999999994L207.8879999999999,148.32599999999994H205.43999999999988L203.90999999999988,147.86699999999993L203.60399999999987,145.41899999999993L197.17899999999986,144.27199999999993L196.64299999999986,146.10799999999995C196.64299999999986,146.10799999999995,194.19399999999985,144.19599999999994,193.65899999999985,145.03699999999995S195.18899999999985,147.48499999999996,195.18899999999985,147.48499999999996S194.42399999999986,148.55599999999995,193.73599999999985,148.70899999999995S193.04799999999986,148.86199999999994,193.04799999999986,148.86199999999994S192.20699999999985,150.31599999999995,192.05399999999986,150.69799999999995S192.12999999999985,151.46299999999994,192.12999999999985,151.46299999999994S189.91199999999986,149.62799999999993,189.06999999999985,150.23899999999995S187.08099999999985,153.90999999999994,187.08099999999985,153.90999999999994S188.84099999999984,156.12799999999993,188.99399999999986,156.51099999999994S189.75899999999984,158.88199999999995,188.45799999999986,159.11199999999994S186.00999999999985,158.27099999999993,186.00999999999985,158.04099999999994S185.47499999999985,155.51699999999994,185.47499999999985,155.51699999999994S184.86299999999986,153.45199999999994,184.02099999999984,153.14599999999993S180.88499999999985,153.37499999999994,180.96099999999984,154.52199999999993S180.34799999999984,156.51199999999994,180.34799999999984,156.51199999999994L178.20599999999985,156.97099999999995C178.20599999999985,156.97099999999995,176.98199999999986,158.04099999999994,175.37599999999983,157.96499999999995S167.80399999999983,155.05799999999994,167.72699999999983,152.99299999999994S165.66099999999983,145.72699999999995,165.43099999999984,145.19099999999995S163.90099999999984,143.04899999999995,163.28899999999985,143.81399999999994S161.45399999999984,140.98299999999995,160.61199999999985,139.91299999999993S157.47599999999986,133.33499999999992,157.47599999999986,133.33499999999992L155.63999999999984,129.66399999999993L155.02799999999985,127.06299999999993L152.714,128.564Z"
    stroke-width="1"
    stroke-linejoin="round"
    style="-webkit-tap-highlight-color: rgba(0, 0, 0, 0); stroke-linejoin: round;"></path>
  <path
    fill="#cccccc"
    stroke="#222222"
    d="M323.486,149.007L325.601,147.596L325.315,142.181L326.83299999999997,142.02300000000002L329.741,139.08200000000002C329.741,139.08200000000002,328.98199999999997,138.13400000000001,330.24699999999996,137.28000000000003S332.17599999999993,136.52100000000004,332.17599999999993,136.52100000000004L332.7129999999999,134.97200000000004L330.37299999999993,132.37900000000005L330.2779999999999,128.61700000000005L328.6339999999999,125.93000000000005L327.4639999999999,122.57900000000005L326.23199999999986,120.84100000000005L325.3149999999999,119.92400000000005L325.15699999999987,116.50900000000004C325.15699999999987,116.50900000000004,324.4619999999999,116.19300000000004,324.4619999999999,115.05500000000005S324.33499999999987,112.21000000000005,324.33499999999987,112.21000000000005S326.76999999999987,111.64000000000006,327.18099999999987,110.15400000000005S327.9089999999999,107.02500000000005,328.69899999999984,105.60200000000006S330.43699999999984,102.40900000000006,330.43699999999984,102.40900000000006S332.83999999999986,101.93500000000006,333.37699999999984,102.91500000000006S335.90599999999984,102.34600000000006,336.28499999999985,101.39700000000006S336.06399999999985,99.53200000000007,335.93699999999984,99.27900000000007S337.2019999999998,97.03400000000006,337.2019999999998,97.03400000000006S337.8969999999998,95.95900000000006,337.2019999999998,95.32700000000007S335.55899999999986,93.08100000000007,336.47499999999985,92.16500000000006S338.74999999999983,91.24800000000006,338.97199999999987,89.98400000000007S339.3509999999999,87.23400000000007,337.95999999999987,86.19000000000007S336.09499999999986,84.48200000000007,335.77799999999985,84.04000000000006S334.00699999999983,83.15500000000006,334.00699999999983,83.15500000000006L333.72299999999984,81.41600000000005C333.72299999999984,81.41600000000005,332.26899999999983,81.32100000000005,331.44699999999983,80.18300000000005S330.1499999999998,78.00100000000005,330.02399999999983,76.76800000000004S330.75199999999984,74.49200000000005,329.73999999999984,73.51200000000004S326.0099999999998,70.79300000000005,326.0099999999998,70.79300000000005L326.16799999999984,67.60000000000005C326.16799999999984,67.60000000000005,323.5749999999998,64.43800000000005,322.02599999999984,63.870000000000054S317.41099999999983,61.21500000000005,317.41099999999983,61.21500000000005S316.99999999999983,59.16000000000005,317.2529999999998,58.68600000000005S317.2199999999998,56.18800000000005,316.01899999999983,57.01000000000005S313.4569999999998,59.792000000000044,313.26799999999986,59.98200000000005S310.16899999999987,58.40200000000005,309.6009999999999,58.30700000000005S306.85199999999986,59.06600000000005,306.5669999999999,59.41300000000005S302.6139999999999,57.03300000000005,302.32999999999987,56.81600000000005S301.57099999999986,54.766000000000055,301.57099999999986,54.766000000000055L298.03099999999984,54.577000000000055L295.40599999999984,52.711000000000055L294.6469999999998,49.89800000000005C294.6469999999998,49.89800000000005,290.47299999999984,45.56700000000005,290.03099999999984,45.02900000000005S287.3439999999998,44.11200000000005,287.3439999999998,44.11200000000005L286.8679999999998,41.77300000000005C286.8679999999998,41.77300000000005,283.73799999999983,39.876000000000055,282.0949999999998,40.982000000000056S280.4519999999998,43.16400000000006,279.9139999999998,44.681000000000054S277.2909999999998,48.56900000000005,276.7529999999998,49.043000000000056S275.2989999999998,50.40200000000006,275.2989999999998,50.40200000000006L275.48799999999983,54.41700000000006C275.48799999999983,54.41700000000006,272.51399999999984,54.92300000000006,271.8829999999998,56.28200000000006S269.7339999999998,59.317000000000064,269.7339999999998,59.317000000000064S267.6159999999998,59.15900000000006,266.6989999999998,60.487000000000066S265.0549999999998,63.61700000000007,264.1379999999998,64.37600000000006S258.5739999999998,66.52600000000007,257.5929999999998,65.67200000000007S253.79899999999978,61.12000000000007,253.79899999999978,61.12000000000007L247.72799999999978,61.499000000000066L245.45299999999978,59.381000000000064L245.13699999999977,56.91500000000006L242.18599999999978,54.866000000000064V53.73800000000006C242.18599999999978,53.73800000000006,239.57699999999977,50.63600000000007,239.43599999999978,49.79000000000006S236.5449999999998,45.91300000000006,235.6999999999998,46.124000000000066S233.8669999999998,46.05300000000007,233.51399999999978,46.899000000000065S232.5979999999998,48.09800000000006,232.0339999999998,47.393000000000065S231.7509999999998,46.27300000000007,231.25799999999978,45.564000000000064S229.8479999999998,44.78400000000006,228.0149999999998,43.585000000000065S224.56099999999978,41.682000000000066,224.56099999999978,41.682000000000066S222.79799999999977,40.90700000000007,222.72799999999978,40.34300000000007S223.0099999999998,37.94600000000007,223.0099999999998,37.94600000000007S219.6259999999998,33.222000000000065,218.2859999999998,32.72900000000007S215.6779999999998,33.08200000000007,213.7739999999998,33.71600000000007S207.63999999999982,35.761000000000074,206.9349999999998,37.17100000000007S205.5949999999998,39.85000000000007,205.4549999999998,41.96500000000007S206.5119999999998,45.984000000000066,206.9349999999998,46.618000000000066S207.3579999999998,47.252000000000066,207.3579999999998,47.252000000000066L210.1779999999998,47.957000000000065C210.1779999999998,47.957000000000065,209.2609999999998,49.72000000000006,209.3319999999998,50.63600000000007S211.6589999999998,57.89700000000007,211.6589999999998,58.179000000000066S210.8249999999998,59.98500000000006,210.8839999999998,61.070000000000064S213.41899999999978,65.53900000000006,213.41899999999978,65.53900000000006S212.08899999999977,66.53700000000006,211.6299999999998,66.92300000000006S210.7159999999998,68.13700000000006,210.8589999999998,68.95700000000006S211.3889999999998,71.00000000000007,211.3889999999998,71.00000000000007S210.56299999999982,72.21700000000007,210.6789999999998,72.78200000000007S212.1179999999998,76.72100000000006,212.1179999999998,76.72100000000006V86.47300000000006L211.6719999999998,87.62900000000006L212.4849999999998,87.41500000000006L214.25799999999978,88.77200000000006L216.29199999999977,90.55000000000007L223.71399999999977,97.10400000000007L229.75299999999976,102.87700000000007L233.08199999999977,106.41800000000006L241.01199999999977,114.89300000000006L244.48399999999978,115.11500000000005L245.2189999999998,117.93600000000005H249.4159999999998L249.8699999999998,115.76600000000005L258.0059999999998,116.37100000000005C258.0059999999998,116.37100000000005,258.4929999999998,117.68500000000006,258.0529999999998,118.77900000000005S256.93499999999983,121.67500000000005,256.58399999999983,121.99600000000005S256.2189999999998,122.41100000000006,256.2189999999998,122.41100000000006L255.77499999999984,124.21000000000006C255.77499999999984,124.21000000000006,254.04099999999983,124.40900000000006,253.50999999999985,124.77900000000007S252.53999999999985,125.13000000000007,252.79099999999985,125.91100000000007S254.09199999999984,128.56300000000007,254.09199999999984,128.56300000000007S253.23399999999984,133.2800000000001,252.54499999999985,133.86200000000008S248.44299999999984,138.13900000000007,248.44299999999984,138.13900000000007L245.90699999999984,138.22500000000008C245.90699999999984,138.22500000000008,247.02399999999983,139.5070000000001,247.22299999999984,140.1910000000001S247.49099999999984,141.1270000000001,246.92399999999984,141.2760000000001S244.06699999999984,141.8020000000001,244.06699999999984,141.8020000000001S246.56299999999985,143.3730000000001,246.75099999999983,145.2480000000001S246.93899999999982,148.9980000000001,248.25099999999983,149.5610000000001S251.37599999999983,149.87400000000008,251.37599999999983,149.87400000000008S250.93799999999985,151.99900000000008,252.31399999999982,152.81200000000007S255.7519999999998,154.12500000000006,257.37699999999984,155.06200000000007S260.0649999999998,156.25000000000006,261.12699999999984,155.75000000000006S266.6899999999998,154.87500000000006,269.9399999999998,156.43800000000005S274.5029999999998,157.81300000000005,275.0649999999998,157.25100000000003S277.6899999999998,156.00500000000002,277.8779999999998,157.65900000000002S278.0029999999998,160.93800000000002,278.0029999999998,160.93800000000002L282.2529999999998,161.501L284.5659999999998,162.314L291.0039999999998,162.87699999999998C291.0039999999998,162.87699999999998,292.4419999999998,158.975,293.9419999999998,159.14499999999998S296.50499999999977,160.00199999999998,296.6919999999998,160.50199999999998S299.62999999999977,161.00199999999998,299.62999999999977,161.00199999999998S301.44299999999976,158.064,301.75499999999977,157.75199999999998S302.56799999999976,159.62699999999998,302.56799999999976,159.62699999999998L304.25599999999974,158.439C304.25599999999974,158.439,303.31799999999976,157.689,304.81899999999973,157.189S306.7569999999997,156.439,306.7569999999997,156.439L307.4449999999997,153.376L308.8829999999997,151.56300000000002L311.6329999999997,146.37500000000003C311.6329999999997,146.37500000000003,314.0079999999997,144.43700000000004,316.1329999999997,146.06200000000004S318.4459999999997,148.37500000000003,319.3209999999997,148.68700000000004S323.486,149.007,323.486,149.007Z"
    stroke-width="1"
    stroke-linejoin="round"
    style="-webkit-tap-highlight-color: rgba(0, 0, 0, 0); stroke-linejoin: round;"></path>
  <path
    fill="#cccccc"
    stroke="#222222"
    d="M180.351,156.511C180.351,156.511,181.04,155.66899999999998,180.964,154.521S183.182,152.838,184.024,153.14499999999998S185.478,155.516,185.478,155.516S186.013,157.81,186.013,158.04S187.16,159.34,188.461,159.111S189.149,156.893,188.997,156.51S187.084,153.909,187.084,153.909S188.231,150.849,189.073,150.238S192.133,151.462,192.133,151.462S191.904,151.07999999999998,192.05700000000002,150.697S193.05100000000002,148.861,193.05100000000002,148.861S193.05100000000002,148.861,193.739,148.708S195.192,147.484,195.192,147.484S193.127,145.87800000000001,193.662,145.036S196.64600000000002,146.107,196.64600000000002,146.107L197.18200000000002,144.271L203.60700000000003,145.41799999999998L203.91300000000004,147.86599999999999L205.44300000000004,148.325H207.89100000000005L207.58500000000004,150.314L210.18600000000004,152.379C210.18600000000004,152.379,210.18600000000004,151.46099999999998,211.18100000000004,150.161S219.28900000000004,148.631,219.28900000000004,148.631L218.98500000000004,147.331L223.49800000000005,144.57799999999997C223.49800000000005,144.57799999999997,226.25100000000003,143.813,227.32300000000004,143.65999999999997S229.31100000000004,145.11299999999997,229.31100000000004,145.11299999999997S230.99400000000003,145.11299999999997,232.14100000000005,144.19499999999996S232.75300000000004,142.12999999999997,232.75300000000004,142.12999999999997L232.29400000000004,140.52199999999996L236.57700000000003,138.53299999999996L236.80600000000004,139.45099999999996C236.80600000000004,139.45099999999996,236.73000000000005,140.29199999999997,238.25900000000004,141.28599999999997L237.79700000000005,151.71599999999998C237.79700000000005,151.71599999999998,238.85700000000006,152.96699999999998,238.95200000000006,153.40099999999998S238.42300000000006,160.08999999999997,238.42300000000006,160.331S235.00600000000006,166.20299999999997,234.81400000000005,166.636S234.23600000000005,167.406,234.23600000000005,167.406H235.58400000000006H236.16200000000006L236.30600000000007,168.705H243.09200000000007V174.43200000000002V174.67300000000003H247.85700000000006C247.85700000000006,174.67300000000003,251.32300000000006,174.48100000000002,251.61100000000005,175.68400000000003S251.61100000000005,199.36200000000002,251.61100000000005,199.36200000000002L251.73900000000003,200.03600000000003C251.73900000000003,200.03600000000003,250.11900000000003,199.93900000000002,250.11900000000003,199.74700000000004S249.83100000000002,198.88100000000003,249.73400000000004,198.20700000000005S248.96400000000003,197.19500000000005,248.00200000000004,197.24400000000006S246.31700000000004,197.29300000000006,246.31700000000004,197.29300000000006S246.12400000000002,196.23200000000006,245.16200000000003,196.76300000000006S243.62200000000004,197.91800000000006,243.62200000000004,197.91800000000006L226.73000000000005,197.10000000000005L226.29600000000005,199.02600000000004L218.21100000000004,199.21800000000005L218.01900000000003,202.05700000000004L210.22300000000004,202.25000000000006L209.79000000000005,205.56700000000006H206.37300000000005C206.37300000000005,205.56700000000006,205.45900000000006,206.09700000000007,205.31400000000005,206.67400000000006S204.30300000000005,204.99000000000007,203.53300000000004,204.07500000000007S202.08900000000006,203.73800000000008,201.75200000000004,204.60400000000007S200.79000000000005,205.56600000000006,200.79000000000005,205.56600000000006L200.64500000000004,200.46500000000006L201.36700000000005,200.03300000000007L201.55900000000005,193.48800000000008C201.55900000000005,193.48800000000008,199.34600000000006,191.03400000000008,199.39300000000006,189.6860000000001S199.58500000000006,184.8730000000001,199.58500000000006,184.8730000000001S198.95900000000006,184.0550000000001,198.67000000000007,182.6590000000001S196.18100000000007,177.7760000000001,194.50100000000006,175.1920000000001S190.15000000000006,169.6350000000001,190.15000000000006,169.6350000000001L189.67600000000007,169.2460000000001L189.59000000000006,166.79100000000008C189.59000000000006,166.79100000000008,188.29800000000006,167.1790000000001,187.52300000000005,166.23100000000008S185.67000000000004,163.64700000000008,184.29200000000006,163.86200000000008S181.83700000000005,164.50800000000007,181.83700000000005,164.50800000000007S181.06200000000004,163.64700000000008,179.59700000000004,163.64700000000008S177.48600000000005,163.60400000000007,176.66800000000003,164.0780000000001S174.68700000000004,163.47500000000008,174.68700000000004,163.47500000000008L177.01300000000003,160.58800000000008L178.99400000000003,160.63100000000009C178.99400000000003,160.63100000000009,180.15700000000004,159.7690000000001,180.45800000000003,158.6500000000001S180.351,156.511,180.351,156.511Z"
    stroke-width="1"
    stroke-linejoin="round"
    style="-webkit-tap-highlight-color: rgba(0, 0, 0, 0); stroke-linejoin: round;"></path>
  <path
    fill="#cccccc"
    stroke="#222222"
    d="M244.066,141.804C244.066,141.804,246.562,143.375,246.75,145.25S246.938,149,248.25,149.563S251.375,149.87599999999998,251.375,149.87599999999998S250.937,152.00099999999998,252.313,152.81399999999996S255.75099999999998,154.12699999999995,257.376,155.06399999999996S260.06399999999996,156.25199999999995,261.126,155.75199999999995S266.68899999999996,154.87699999999995,269.93899999999996,156.43999999999994S274.50199999999995,157.81499999999994,275.06399999999996,157.25299999999993S277.68899999999996,156.00699999999992,277.87699999999995,157.66099999999992S278.00199999999995,160.9399999999999,278.00199999999995,160.9399999999999L282.25199999999995,161.5029999999999L284.56499999999994,162.3159999999999L291.00299999999993,162.87899999999988C291.00299999999993,162.87899999999988,292.4409999999999,158.9769999999999,293.9409999999999,159.14699999999988S296.5039999999999,160.00399999999988,296.6909999999999,160.50399999999988S299.6289999999999,161.00399999999988,299.6289999999999,161.00399999999988L299.2259999999999,164.15199999999987C299.2259999999999,164.15199999999987,298.4489999999999,164.55999999999986,298.4489999999999,165.52299999999988S299.4129999999999,167.5599999999999,299.0789999999999,168.7449999999999S300.59699999999987,170.2639999999999,300.2259999999999,171.85599999999988S297.44799999999987,173.7449999999999,298.26299999999986,175.11499999999987S300.89299999999986,176.66799999999986,301.26299999999986,178.37199999999987S301.44799999999987,180.85399999999987,299.44799999999987,181.03899999999987S296.4109999999999,181.29799999999986,296.4109999999999,181.29799999999986L297.7079999999999,183.52099999999987L298.0439999999999,183.81699999999987C298.0439999999999,183.81699999999987,292.9699999999999,187.85399999999987,291.41399999999993,187.81699999999987S289.0809999999999,187.26099999999985,289.0809999999999,187.26099999999985L275.7099999999999,187.50399999999985C275.7099999999999,187.50399999999985,274.9969999999999,184.70599999999985,272.7439999999999,185.89099999999985S266.49099999999993,189.59499999999986,266.49099999999993,189.59499999999986L265.93499999999995,190.59499999999986H260.49099999999993C260.49099999999993,190.59499999999986,260.2319999999999,188.92799999999986,259.19499999999994,189.85399999999984S258.0489999999999,191.03899999999985,258.0489999999999,191.03899999999985S256.8259999999999,188.70599999999985,255.93799999999993,189.18699999999984S253.93799999999993,190.55699999999985,253.93799999999993,190.55699999999985S251.76299999999992,189.63199999999983,251.74099999999993,189.00099999999983S251.71299999999994,177.81399999999982,251.71299999999994,177.81399999999982L251.65499999999994,176.06499999999983C251.65499999999994,176.06499999999983,251.77899999999994,175.39799999999983,250.83399999999995,175.08099999999982S246.52099999999996,174.67599999999982,246.52099999999996,174.67599999999982H243.09399999999997V168.70799999999983H236.30799999999996L236.17099999999996,167.4669999999998L234.83299999999997,167.40899999999982H234.23799999999997L234.80499999999998,166.6629999999998L235.361,165.67599999999982L235.98399999999998,164.6149999999998L237.176,162.5899999999998L238.081,161.0159999999998L238.38899999999998,160.4349999999998L238.951,154.0039999999998C238.951,154.0039999999998,239.04,153.3599999999998,238.638,152.8099999999998S237.8,151.7189999999998,237.8,151.7189999999998L238.25400000000002,141.4709999999998L238.317,141.2209999999998C238.317,141.2209999999998,239.169,141.8909999999998,239.674,141.7209999999998S240.48000000000002,141.28899999999982,240.48000000000002,141.28899999999982L241.74200000000002,140.9359999999998L242.39200000000002,140.75399999999982L244.066,141.804Z"
    stroke-width="1"
    stroke-linejoin="round"
    style="-webkit-tap-highlight-color: rgba(0, 0, 0, 0); stroke-linejoin: round;"></path>
  <path
    fill="#cccccc"
    stroke="#222222"
    d="M298.039,183.813L297.703,183.517L296.40599999999995,181.29399999999998C296.40599999999995,181.29399999999998,297.4429999999999,181.21999999999997,299.4429999999999,181.035S301.6289999999999,180.072,301.2579999999999,178.368S299.0729999999999,176.481,298.2579999999999,175.111S299.85099999999994,173.444,300.22099999999995,171.852S298.73999999999995,169.92600000000002,299.07399999999996,168.741S298.44399999999996,166.48200000000003,298.44399999999996,165.519S299.22099999999995,164.148,299.22099999999995,164.148L299.62399999999997,161L301.412,158.203C301.412,158.203,301.83,157.389,302.068,158.034S302.561,159.625,302.561,159.625L304.10299999999995,158.54V158.283C304.10299999999995,158.283,303.77799999999996,157.81599999999997,304.10299999999995,157.581S306.74899999999997,156.43699999999998,306.74899999999997,156.43699999999998L307.49899999999997,153.295L308.79099999999994,151.667L311.62399999999997,146.374C311.62399999999997,146.374,312.395,145.757,313.11199999999997,145.59799999999998S314.924,145.37599999999998,315.893,145.89999999999998S317.989,147.694,318.31399999999996,147.99099999999999S319.34299999999996,148.766,320.066,148.837S323.48499999999996,149.006,323.48499999999996,149.006S325.30099999999993,150.425,325.87799999999993,151.001S329.83399999999995,152.943,329.6909999999999,153.95000000000002S328.9099999999999,157.186,329.6959999999999,157.906S330.98599999999993,159.489,330.98599999999993,159.489S333.64699999999993,159.129,334.07899999999995,160.424S337.31499999999994,165.96200000000002,337.96299999999997,166.75400000000002S338.82599999999996,168.192,338.82599999999996,168.192S342.953,171.124,343.29099999999994,171.49S344.86799999999994,172.70100000000002,344.89599999999996,172.786S347.20799999999997,172.307,347.20799999999997,172.307L348.92699999999996,174.87099999999998C348.92699999999996,174.87099999999998,349.152,176.45,348.67299999999994,176.647S346.95399999999995,175.51999999999998,346.58799999999997,176.59S346.08099999999996,179.211,344.503,179.296S342.812,179.493,343.263,180.62S343.63,182.39600000000002,342.503,183.66400000000002S340.188,187.49800000000002,340.188,187.49800000000002S336.063,189.12300000000002,334.438,191.561S331.188,197.124,330.375,197.186S327.5,197.186,327.5,197.186L326.562,195.87300000000002L325.562,197.21300000000002C325.562,197.21300000000002,324.749,197.93600000000004,323.874,197.49800000000002S321.06100000000004,195.24800000000002,321.06100000000004,195.24800000000002L319.74800000000005,194.93500000000003L319.68500000000006,192.81000000000003L317.43500000000006,191.03200000000004L318.62300000000005,188.99800000000005C318.62300000000005,188.99800000000005,319.43600000000004,187.49800000000005,317.56000000000006,187.49800000000005S315.06000000000006,187.49800000000005,315.06000000000006,187.49800000000005S311.62200000000007,188.49800000000005,311.87200000000007,189.56100000000004S313.31000000000006,191.74900000000002,312.62200000000007,192.12400000000002S308.75,192,308.75,192S308.875,191.312,307.375,190S305.125,187.875,303.437,188.5S300.062,189.188,299.937,188.375S299.5,187.5,299.5,187.5L301.413,186.625L298.039,183.813Z"
    stroke-width="1"
    stroke-linejoin="round"
    style="-webkit-tap-highlight-color: rgba(0, 0, 0, 0); stroke-linejoin: round;"></path>
  <path
    fill="#cccccc"
    stroke="#222222"
    d="M357.263,287.325L357.73999999999995,284.108L366.49899999999997,263.493L368.227,259.62L368.585,256.641L370.25199999999995,255.74900000000002L370.54999999999995,250.86300000000003H372.99199999999996L373.40999999999997,247.40700000000004C373.40999999999997,247.40700000000004,372.27799999999996,245.85800000000003,373.767,245.67900000000003S375.671,244.90500000000003,376.386,244.36800000000002S377.696,244.36900000000003,378.769,243.77200000000002S380.676,243.175,380.676,242.163S380.616,239.066,380.08,238.172S379.186,237.337,379.782,235.788S380.2,233.406,379.186,233.287S377.27799999999996,232.454,378.053,231.262S379.961,230.606,378.948,228.87800000000001S377.577,224.82600000000002,377.219,224.17100000000002S376.504,222.56400000000002,375.849,222.20600000000002S374.24,220.835,376.02799999999996,220.001S379.24499999999995,216.845,379.18499999999995,215.23600000000002S378.70799999999997,211.781,378.29099999999994,210.64900000000003S378.11199999999997,208.14700000000002,378.11199999999997,208.14700000000002L375.075,204.63100000000003L374.837,202.24800000000002L372.691,200.699L375.19399999999996,198.43400000000003C375.19399999999996,198.43400000000003,375.55199999999996,196.23000000000002,374.479,195.69400000000002S374.3,195.45600000000002,374.777,194.50300000000001S375.313,189.43,374.003,187.49800000000002C372.692,185.56600000000003,372.752,184.91100000000003,372.752,184.91100000000003H371.144L370.787,181.81200000000004C370.787,181.81200000000004,369.892,179.48800000000003,368.16499999999996,179.84600000000003S365.78099999999995,179.90600000000003,364.47099999999995,179.25000000000003S360.83699999999993,177.93900000000002,359.58599999999996,178.47600000000003S358.275,180.02500000000003,358.275,180.02500000000003S357.144,178.77400000000003,356.01099999999997,177.70100000000002S351.9,176.92700000000002,351.9,176.92700000000002L349.397,175.67600000000002L348.979,175.45200000000003C348.979,175.45200000000003,348.996,176.01200000000003,348.925,176.229C348.925,176.229,348.65000000000003,176.757,348.334,176.62400000000002S347.272,176.19000000000003,347.272,176.19000000000003S346.69,176.04200000000003,346.633,176.48200000000003S346.125,178.41600000000003,345.81199999999995,178.61400000000003S345.05199999999996,179.26000000000002,344.501,179.29700000000003S342.916,179.45200000000003,343.037,179.90200000000002S343.659,181.538,343.481,182.04600000000002S341.669,185.09500000000003,341.185,185.78100000000003S340.23,187.40500000000003,340.23,187.40500000000003S338.373,190.49900000000002,338.373,191.70800000000003S338.998,194.58300000000003,337.748,196.33300000000003S335.16499999999996,199.95900000000003,335.16499999999996,199.95900000000003S337.83099999999996,204.12600000000003,337.95599999999996,205.70900000000003S338.08099999999996,210.25100000000003,338.08099999999996,210.25100000000003S334.039,214.45800000000003,332.83099999999996,215.66700000000003S328.83099999999996,219.25100000000003,328.83099999999996,219.25100000000003S328.664,221.04200000000003,326.95599999999996,222.16700000000003S319.914,227.16700000000003,319.45599999999996,227.58400000000003S318.193,228.27500000000003,319.45599999999996,229.78200000000004S323.69199999999995,233.51000000000005,325.11999999999995,234.10400000000004S328.09499999999997,234.26200000000003,328.25299999999993,236.28500000000005S326.3499999999999,239.81500000000005,326.9439999999999,241.44100000000006S328.3319999999999,243.22800000000007,328.3319999999999,243.22800000000007S328.1729999999999,245.88400000000007,329.1249999999999,247.11400000000006S330.4739999999999,249.21700000000007,330.4739999999999,249.21700000000007S330.7499999999999,250.92300000000006,329.40299999999985,251.08100000000007S325.63699999999983,251.63700000000009,325.95399999999984,252.1910000000001S329.2049999999998,253.1030000000001,330.83099999999985,252.70700000000008S333.05199999999985,251.7150000000001,333.05199999999985,251.7150000000001L337.8899999999999,254.09500000000008C337.8899999999999,254.09500000000008,337.4139999999999,258.3780000000001,336.77999999999986,258.65600000000006S335.5509999999999,258.25900000000007,335.59099999999984,259.2900000000001S335.74899999999985,261.5900000000001,335.74899999999985,261.5900000000001S333.48999999999984,261.0360000000001,334.4019999999999,263.4550000000001S337.3369999999999,266.7070000000001,337.3369999999999,266.7070000000001S337.13799999999986,268.4120000000001,336.58299999999986,268.8880000000001S336.18699999999984,270.0770000000001,336.18699999999984,270.0770000000001S333.5699999999998,267.5000000000001,333.37199999999984,268.8080000000001S334.00699999999983,271.1870000000001,334.2839999999998,272.0990000000001S334.87899999999985,272.3380000000001,334.87899999999985,272.3380000000001L334.56199999999984,278.36500000000007C334.56199999999984,278.36500000000007,333.9669999999998,278.88200000000006,333.57099999999986,280.11000000000007S333.01599999999985,280.58900000000006,333.01599999999985,280.58900000000006L333.09499999999986,282.9680000000001C333.09499999999986,282.9680000000001,331.54899999999986,283.1260000000001,331.94599999999986,284.19700000000006S333.76999999999987,286.14000000000004,333.76999999999987,286.14000000000004L334.5629999999999,286.77500000000003L352.32799999999986,287.32500000000005H357.263Z"
    stroke-width="1"
    stroke-linejoin="round"
    style="-webkit-tap-highlight-color: rgba(0, 0, 0, 0); stroke-linejoin: round;"></path>
  <path
    fill="#cccccc"
    stroke="#222222"
    d="M330.96,217.4L328.063,214.687L327.75,213.187C327.75,213.187,325.5,213.875,324.812,212.74900000000002S326.25,210.68600000000004,325.187,210.06100000000004S322.437,210.06100000000004,322.437,210.06100000000004S320.124,208.37300000000005,319.937,207.74800000000005S319.624,206.62300000000005,317.874,205.99800000000005S316.124,201.56000000000006,317.874,202.12300000000005S324.062,201.43500000000006,324.499,200.24800000000005S326.562,195.87300000000005,326.562,195.87300000000005L327.5,197.18600000000004L330.635,197.07800000000003C330.635,197.07800000000003,333.134,193.60900000000004,333.495,193.03400000000002S335.814,190.002,336.491,189.53900000000002S340.114,187.60600000000002,340.114,187.60600000000002S338.486,190.71600000000004,338.431,191.27100000000002S338.60699999999997,193.58900000000003,338.515,194.21800000000002S337.681,196.21800000000002,337.375,196.85700000000003S335.166,199.95900000000003,335.166,199.95900000000003S336.754,202.61400000000003,337.114,203.38600000000002S337.948,205.36200000000002,337.98499999999996,206.12700000000004S338.08199999999994,210.25100000000003,338.08199999999994,210.25100000000003L330.96,217.4Z"
    stroke-width="1"
    stroke-linejoin="round"
    style="-webkit-tap-highlight-color: rgba(0, 0, 0, 0); stroke-linejoin: round;"></path>
  <path
    fill="#cccccc"
    stroke="#222222"
    d="M318.78,228.203C318.78,228.203,321.678,224.16,321.678,222.739S322.167,220.385,320.968,220.03S316.704,219.852,316.92600000000004,219.186S318.52500000000003,217.72,318.52500000000003,217.72S318.48100000000005,216.299,317.504,215.144S316.793,212.522,317.815,210.87900000000002S320.194,208.14200000000002,320.194,208.14200000000002L322.43800000000005,210.062C322.43800000000005,210.062,324.03800000000007,209.67800000000003,324.53400000000005,209.83S325.744,210.25,325.415,210.775S324.488,212.03300000000002,324.694,212.451S325.35900000000004,213.286,325.738,213.337S326.564,213.409,326.884,213.361S327.75100000000003,213.18699999999998,327.75100000000003,213.18699999999998L328.08500000000004,214.70799999999997L330.82200000000006,217.39999999999998L328.8810000000001,219.21099999999998C328.8810000000001,219.21099999999998,328.69700000000006,220.02499999999998,328.4640000000001,220.44699999999997S328.1970000000001,221.22999999999996,327.48000000000013,221.76399999999998S321.1750000000001,226.283,321.1750000000001,226.283L320.19600000000014,227.01L318.78,228.203Z"
    stroke-width="1"
    stroke-linejoin="round"
    style="-webkit-tap-highlight-color: rgba(0, 0, 0, 0); stroke-linejoin: round;"></path>
  <path
    fill="#cccccc"
    stroke="#222222"
    d="M325.122,234.104C326.55,234.699,328.09700000000004,234.262,328.255,236.28500000000003S326.352,239.81500000000003,326.94599999999997,241.44100000000003S328.33399999999995,243.22800000000004,328.33399999999995,243.22800000000004S328.17499999999995,245.88400000000004,329.12699999999995,247.11400000000003S330.47599999999994,249.21700000000004,330.47599999999994,249.21700000000004S330.75199999999995,250.92300000000003,329.4049999999999,251.08100000000005S325.6389999999999,251.63700000000006,325.9559999999999,252.19100000000006S329.2069999999999,253.10300000000007,330.8329999999999,252.70700000000005S333.0539999999999,251.71500000000006,333.0539999999999,251.71500000000006L337.89199999999994,254.09500000000006C337.89199999999994,254.09500000000006,337.41599999999994,258.37800000000004,336.7819999999999,258.65600000000006S335.55299999999994,258.25900000000007,335.5929999999999,259.2900000000001S335.7509999999999,261.5900000000001,335.7509999999999,261.5900000000001S333.4919999999999,261.0360000000001,334.40399999999994,263.4550000000001S337.33899999999994,266.7070000000001,337.33899999999994,266.7070000000001S337.13999999999993,268.4120000000001,336.5849999999999,268.8880000000001S336.1889999999999,270.0770000000001,336.1889999999999,270.0770000000001S333.5719999999999,267.5000000000001,333.3739999999999,268.8080000000001S334.0089999999999,271.1870000000001,334.2859999999999,272.0990000000001S334.8809999999999,272.3380000000001,334.8809999999999,272.3380000000001L334.5639999999999,278.36500000000007C334.5639999999999,278.36500000000007,333.9689999999999,278.88200000000006,333.5729999999999,280.11000000000007S333.0179999999999,280.58900000000006,333.0179999999999,280.58900000000006S331.15199999999993,280.96100000000007,331.0999999999999,280.3380000000001S330.50299999999993,277.3810000000001,329.1809999999999,276.9140000000001S327.10799999999995,275.6170000000001,325.60299999999995,276.9140000000001S321.91999999999996,277.5370000000001,321.91999999999996,277.5370000000001S321.06399999999996,279.6890000000001,320.104,279.6110000000001S315.876,279.6890000000001,315.876,279.6890000000001S318.10499999999996,276.7320000000001,318.18399999999997,276.44700000000006S318.599,275.22800000000007,318.599,275.22800000000007L321.037,275.1240000000001C321.037,275.1240000000001,323.11199999999997,272.3490000000001,322.931,270.4550000000001S321.29699999999997,266.0990000000001,320.93399999999997,265.8650000000001S321.27099999999996,262.5440000000001,321.27099999999996,262.5440000000001S318.96799999999996,261.7390000000001,318.78399999999993,259.87200000000007S319.01399999999995,255.61900000000009,319.01399999999995,255.61900000000009L318.46899999999994,253.9060000000001C318.46899999999994,253.9060000000001,315.82399999999996,250.48200000000008,314.81299999999993,249.4970000000001S312.19499999999994,245.6620000000001,312.19499999999994,245.6620000000001L310.36999999999995,243.1750000000001C310.36999999999995,243.1750000000001,308.9599999999999,243.2580000000001,308.66999999999996,244.7920000000001S308.21399999999994,246.8240000000001,306.763,247.9430000000001S301.455,251.3010000000001,301.455,251.3010000000001L302.45,241.2670000000001L304.938,239.60800000000012L304.896,238.07400000000013L307.84000000000003,237.82600000000014L308.172,236.70600000000013L309.913,236.37500000000014L310.32800000000003,235.25500000000014L312.028,235.21400000000014C312.028,235.21400000000014,312.23400000000004,236.45800000000014,312.35900000000004,237.12100000000015S313.10600000000005,238.28300000000016,313.14700000000005,238.44800000000015S315.96700000000004,240.89300000000014,315.7180000000001,238.86200000000014S314.8470000000001,234.79900000000015,314.8470000000001,234.79900000000015L320.6520000000001,234.96500000000015L320.6120000000001,230.94900000000015L322.4150000000001,232.42100000000016L323.6050000000001,233.25400000000016L325.122,234.104Z"
    stroke-width="1"
    stroke-linejoin="round"
    style="-webkit-tap-highlight-color: rgba(0, 0, 0, 0); stroke-linejoin: round;"></path>
  <path
    fill="#cccccc"
    stroke="#222222"
    d="M240.25,212.75C240.25,212.75,241.375,217.625,239.375,218.75S237.375,219.875,237.375,219.875L240,232.375H242.125L243,234.625L239.625,237.25H236.375L223.125,248.25C223.125,248.25,221.25,247.625,219.875,248.25S217.625,249.375,217.625,249.375L214.75,247.875L215.75,229.625L208.375,223V220.375C208.375,220.375,205.125,220.721,203.625,218.173S200.786,205.568,200.786,205.568S201.557,205.04700000000003,201.7,204.71900000000002S202.637,202.889,203.482,204.02300000000002S204.787,206.17600000000002,204.787,206.17600000000002S205.115,206.95600000000002,205.339,206.592S205.996,205.81500000000003,206.147,205.71300000000002S209.65599999999998,205.56700000000004,209.65599999999998,205.56700000000004L210.28199999999998,202.24800000000005L218.094,202.00000000000006L218.297,199.31200000000007L226.293,199.02500000000006L226.727,197.09900000000007L243.421,197.90800000000007L243.666,197.86900000000009L244.403,197.2450000000001L244.98499999999999,196.8610000000001C244.98499999999999,196.8610000000001,245.928,196.42900000000012,246.12099999999998,196.8610000000001S246.37499999999997,197.2930000000001,246.37499999999997,197.2930000000001L248.10799999999998,197.2410000000001C248.10799999999998,197.2410000000001,249.43599999999998,197.2640000000001,249.59999999999997,197.8360000000001S249.98999999999995,199.2030000000001,250.05099999999996,199.4630000000001S250.38599999999997,199.8850000000001,250.56899999999996,199.9130000000001S251.73499999999996,200.0360000000001,251.73499999999996,200.0360000000001S252.57799999999995,200.2920000000001,252.60599999999997,201.0240000000001S252.35199999999998,202.7710000000001,252.35199999999998,202.7710000000001H248.71699999999998C248.71699999999998,202.7710000000001,246.546,204.6860000000001,245.86999999999998,205.6450000000001S245.33599999999998,210.9430000000001,245.33599999999998,210.9430000000001S243.308,212.3240000000001,242.79999999999998,212.4930000000001S240.25,212.75,240.25,212.75Z"
    stroke-width="1"
    stroke-linejoin="round"
    style="-webkit-tap-highlight-color: rgba(0, 0, 0, 0); stroke-linejoin: round;"></path>
  <path
    fill="#cccccc"
    stroke="#222222"
    d="M175.776,256.446L177.419,253.84500000000003C177.419,253.84500000000003,177.008,252.47600000000003,177.76100000000002,251.51800000000003S179.19800000000004,249.87600000000003,178.17200000000003,248.50700000000003S175.06500000000003,244.81100000000004,177.23400000000004,242.21000000000004S181.59300000000005,235.91400000000004,181.59300000000005,235.91400000000004S181.93500000000006,235.09200000000004,183.44100000000006,234.68200000000004S185.76800000000006,234.68200000000004,185.76800000000006,234.68200000000004S189.53200000000007,232.81100000000004,191.03800000000007,234.49900000000005S194.18600000000006,238.24000000000007,191.44900000000007,240.56700000000006S188.30100000000007,243.78400000000008,188.30100000000007,243.78400000000008S188.84800000000007,247.68400000000008,188.09500000000008,248.57400000000007S180.5670000000001,255.69200000000006,180.5670000000001,255.69200000000006S180.22500000000008,258.49800000000005,179.4720000000001,258.90900000000005S176.5970000000001,260.0040000000001,176.11800000000008,258.90900000000005S175.776,256.446,175.776,256.446Z"
    stroke-width="1"
    stroke-linejoin="round"
    style="-webkit-tap-highlight-color: rgba(0, 0, 0, 0); stroke-linejoin: round;"></path>
  <path
    fill="#cccccc"
    stroke="#222222"
    d="M188.232,256.583C188.232,256.583,193.502,247.89100000000002,195.281,243.99000000000004S197.53900000000002,235.43500000000003,197.53900000000002,235.43500000000003S203.22000000000003,229.96100000000004,205.95700000000002,230.57700000000003S209.92600000000002,232.08200000000002,208.69400000000002,236.32500000000002S207.12,240.91000000000003,208.489,244.05800000000002S209.995,248.50700000000003,207.73600000000002,250.15000000000003S201.781,252.13500000000005,199.865,255.89900000000003S192.919,269.86100000000005,192.919,269.86100000000005S191.51600000000002,271.98300000000006,190.83100000000002,272.53000000000003S189.46200000000002,273.283,189.46200000000002,273.283S187.81900000000002,271.093,188.23000000000002,269.382S188.16400000000002,264.934,188.16400000000002,264.934S189.25600000000003,263.156,189.25600000000003,262.95000000000005S188.16400000000002,261.23900000000003,188.16400000000002,261.23900000000003L188.232,256.583Z"
    stroke-width="1"
    stroke-linejoin="round"
    style="-webkit-tap-highlight-color: rgba(0, 0, 0, 0); stroke-linejoin: round;"></path>
  <path
    fill="#cccccc"
    stroke="#222222"
    d="M179.54,264.386C179.54,264.386,180.29299999999998,262.88100000000003,180.97799999999998,262.47S185.76899999999998,259.185,185.76899999999998,259.185S186.658,261.444,187.206,262.197S187.206,272.531,187.206,272.531S186.112,274.926,184.743,275.473S179.884,276.089,179.884,276.089S180.021,275.131,180.158,272.667S179.884,269.03999999999996,179.884,269.03999999999996S179.063,266.71299999999997,179.131,265.89199999999994S179.54,264.386,179.54,264.386Z"
    stroke-width="1"
    stroke-linejoin="round"
    style="-webkit-tap-highlight-color: rgba(0, 0, 0, 0); stroke-linejoin: round;"></path>
  <path
    fill="#cccccc"
    stroke="#222222"
    d="M243,234.625L242.125,232.375H240L237.375,219.875C237.375,219.875,237.375,219.875,239.375,218.75S240.25,212.75,240.25,212.75S242.293,212.662,242.801,212.493S245.337,210.94299999999998,245.337,210.94299999999998S245.195,206.60399999999998,245.87099999999998,205.64499999999998S248.718,202.771,248.718,202.771H252.35299999999998C252.35299999999998,202.771,252.93099999999998,205.874,254.47099999999998,204.33399999999997S256.102,202.50399999999996,256.102,202.50399999999996H260.721V214.29699999999997L261.446,214.84099999999998L265.79400000000004,214.47899999999998C265.79400000000004,214.47899999999998,265.886,215.748,266.42900000000003,216.38099999999997S266.42800000000005,218.10099999999997,266.97200000000004,219.09799999999998S269.146,220.004,269.146,220.367S269.598,222.147,269.146,223.023S266.519,226.526,267.334,227.704S268.421,229.51600000000002,268.421,229.51600000000002S272.95,227.25100000000003,272.58799999999997,230.51200000000003S273.13199999999995,241.38200000000003,273.13199999999995,241.38200000000003H269.59899999999993C269.59899999999993,241.38200000000003,266.3379999999999,238.30200000000002,263.8019999999999,238.30200000000002S258.6389999999999,240.02300000000002,258.6389999999999,240.02300000000002S258.1859999999999,242.28900000000002,257.4609999999999,241.38200000000003S256.4649999999999,238.21100000000004,256.4649999999999,238.21100000000004S256.03599999999994,238.12000000000003,255.2539999999999,238.66400000000004S252.6089999999999,238.75500000000005,252.6089999999999,238.75500000000005L252.2069999999999,237.66800000000006C252.2069999999999,237.66800000000006,249.4899999999999,236.03800000000007,248.7659999999999,237.03400000000008S248.4039999999999,239.11700000000008,248.4039999999999,239.11700000000008S247.1349999999999,239.93100000000007,246.13899999999992,238.84500000000008S245.05199999999994,237.03300000000007,245.05199999999994,237.03300000000007L243.33099999999993,236.76200000000009L243.42099999999994,238.1200000000001C243.42099999999994,238.1200000000001,243.23999999999992,239.1160000000001,242.78699999999995,239.20700000000008S240.52199999999996,238.9360000000001,240.52199999999996,238.9360000000001L239.95199999999997,236.9980000000001L243,234.625Z"
    stroke-width="1"
    stroke-linejoin="round"
    style="-webkit-tap-highlight-color: rgba(0, 0, 0, 0); stroke-linejoin: round;"></path>
  <path
    fill="#cccccc"
    stroke="#222222"
    d="M269.145,220.366C269.145,220.00400000000002,267.515,220.09500000000003,266.971,219.097S266.971,217.014,266.428,216.38S265.793,214.478,265.793,214.478L261.445,214.84L260.71999999999997,214.296V202.503H256.101C256.101,202.503,256.01,202.79299999999998,254.47,204.333S252.352,202.77,252.352,202.77S252.657,201.288,252.606,201.023S252.51399999999998,200.429,252.125,200.232S251.469,200.008,251.469,200.008L251.736,192.119V188.995L253.933,190.55100000000002L255.70499999999998,189.311C255.70499999999998,189.311,256.484,188.757,257.20099999999996,189.78300000000002S258.044,191.03300000000002,258.044,191.03300000000002L259.19,189.848C259.19,189.848,259.813,189.139,260.12,189.73700000000002S260.641,190.65500000000003,260.641,190.65500000000003L265.829,190.59000000000003L266.048,190.59300000000002L266.448,189.66000000000003L271.185,186.74800000000002L272.944,185.788C272.944,185.788,274.512,185.204,275.007,186.18S275.642,187.499,275.642,187.499L279.205,187.436L284.19,187.346L288.627,187.26500000000001L289.096,187.12400000000002C289.096,187.12400000000002,289.601,187.54500000000002,290.069,187.639S290.409,189.405,290.409,189.405S291.94,190.505,291.847,191.033S288.816,192.093,288.659,193.343S287.836,196.66899999999998,287.836,196.66899999999998L285.503,196.166V198.749C285.503,198.749,286.503,199.082,286.003,200.499S283.169,206.915,284.336,208.749S284.503,213.5,284.003,214.583S281.003,218.172,281.003,218.172L281.41999999999996,214.333C281.41999999999996,214.333,277.503,214.417,277.753,215.583S279.336,219.147,278.753,220.365S277.003,223.75,277.003,223.75S277.003,221.583,276.003,220.5S271.661,217.75,271.661,217.75L269.145,220.366Z"
    stroke-width="1"
    stroke-linejoin="round"
    style="-webkit-tap-highlight-color: rgba(0, 0, 0, 0); stroke-linejoin: round;"></path>
  <path
    fill="#cccccc"
    stroke="#222222"
    d="M311.651,254.517L273.974,255.109C273.974,255.109,273.317,254.05800000000002,273.974,252.61100000000002S274.895,251.55800000000002,275.35499999999996,250.507S276.01199999999994,245.773,276.01199999999994,244.984S273.65399999999994,242.68300000000002,273.68199999999996,242.091S273.08199999999994,240.96200000000002,273.08199999999994,240.96200000000002L272.76699999999994,237.71300000000002L278.62999999999994,238.65300000000002L278.93299999999994,235.371L282.2219999999999,234.995C282.2219999999999,234.995,283.0969999999999,235.145,283.73799999999994,234.43800000000002S286.5919999999999,230.79600000000002,286.84899999999993,230.50500000000002S287.5589999999999,229.84600000000003,288.2129999999999,229.705S290.8759999999999,229.34900000000002,290.8759999999999,229.34900000000002S292.2459999999999,229.45700000000002,292.5639999999999,229.66700000000003S294.8749999999999,231.56700000000004,294.8749999999999,231.56700000000004L295.25099999999986,231.79100000000003L294.125,233C294.125,233,293.495,233.552,294.245,233.679S296.005,234.079,296.226,234.178S296.812,234.495,296.812,234.495S297.379,234.874,296.845,235.214S295.94100000000003,235.706,295.94100000000003,235.706L294.75600000000003,236.571L295.999,237.812L297.769,238.144C297.769,238.144,298.2,238.288,298.556,238.351S301.578,238.49699999999999,302.001,238.468S304.311,238.209,304.311,238.209L304.892,238.074L304.93399999999997,239.608L302.693,241.102L302.44599999999997,241.267L301.45099999999996,251.04V251.301L304.433,249.50099999999998C304.433,249.50099999999998,306.772,247.99399999999997,307.235,247.557S308.325,246.278,308.445,245.786S308.515,244.188,309.199,243.739S310.366,243.174,310.366,243.174L311.913,245.282L312.887,246.834C312.887,246.834,311.833,248.665,312.208,249.54S313.04200000000003,251.29,312.41700000000003,251.79S311.651,254.517,311.651,254.517Z"
    stroke-width="1"
    stroke-linejoin="round"
    style="-webkit-tap-highlight-color: rgba(0, 0, 0, 0); stroke-linejoin: round;"></path>
  <path
    fill="#cccccc"
    stroke="#222222"
    d="M289.838,213.163C289.838,213.163,290.08500000000004,217.043,289.838,217.4S288.541,219.508,288.19100000000003,219.859S287.56000000000006,229.877,287.56000000000006,229.877S291.48400000000004,228.687,292.88400000000007,229.877S295.2010000000001,231.842,295.2010000000001,231.842L297.38400000000007,229.836L298.10600000000005,229.08C298.10600000000005,229.08,298.57900000000006,228.101,298.35200000000003,227.80100000000002S297.288,226.341,297.12100000000004,225.88400000000001S296.15200000000004,220.99800000000002,296.1,220.679S296,220.063,296,220.063S293.542,219.03199999999998,293.35,218.96699999999998S292.41200000000003,218.71099999999998,292.41200000000003,218.71099999999998S292.03100000000006,218.652,292.17300000000006,218.248S293.1310000000001,216.86499999999998,293.1820000000001,216.82299999999998S294.2610000000001,216.045,294.2610000000001,216.045L294.40400000000005,215.81799999999998L290.58500000000004,213.59599999999998L289.838,213.163Z"
    stroke-width="1"
    stroke-linejoin="round"
    style="-webkit-tap-highlight-color: rgba(0, 0, 0, 0); stroke-linejoin: round;"></path>
  <path
    fill="#cccccc"
    stroke="#222222"
    d="M287.628,227.817L288.191,219.859L289.83799999999997,217.4V213.163L287.628,211.803L284.615,209.023C284.615,209.023,285.27,210.424,284.738,212.261S283.751,215.012,283.751,215.012L281,218.173L281.417,214.334L280.19,214.422L278.49399999999997,214.776C278.49399999999997,214.776,277.49999999999994,215.012,277.921,216.168S279.027,218.586,278.889,219.477S278.512,220.855,278.512,220.855L282.877,220.69899999999998C282.877,220.69899999999998,283.608,223.09199999999998,283.827,224.207S284.259,227.023,284.259,227.023L286.278,227.341L287.628,227.817Z"
    stroke-width="1"
    stroke-linejoin="round"
    style="-webkit-tap-highlight-color: rgba(0, 0, 0, 0); stroke-linejoin: round;"></path>
  <path
    fill="#cccccc"
    stroke="#222222"
    d="M282.907,234.916L278.933,235.37L278.705,238.663L272.774,237.81300000000002C272.774,237.81300000000002,272.644,233.978,272.511,233.329S272.613,230.542,272.60400000000004,230.24S272.41,228.50400000000002,271.076,228.751S268.326,229.323,268.326,229.323L267.257,227.559C267.257,227.559,267.069,226.927,267.257,226.411S268.456,224.113,268.692,223.751S269.318,222.62800000000001,269.331,222.32500000000002S269.144,220.366,269.144,220.366L271.658,217.751C271.658,217.751,274.97200000000004,219.653,275.221,219.841S276.339,220.662,276.583,221.484S276.999,223.752,276.999,223.752L278.295,221.282L278.56600000000003,220.722L282.906,220.797C282.906,220.797,283.358,222.313,283.522,222.95S284.24399999999997,226.91799999999998,284.24399999999997,226.91799999999998L285.86699999999996,227.27499999999998L286.27599999999995,227.33899999999997L287.43699999999995,227.74899999999997L287.55799999999994,229.75799999999995C287.55799999999994,229.75799999999995,286.77599999999995,230.43899999999996,285.84099999999995,231.84099999999995S283.631,234.54699999999994,283.631,234.54699999999994L282.907,234.916Z"
    stroke-width="1"
    stroke-linejoin="round"
    style="-webkit-tap-highlight-color: rgba(0, 0, 0, 0); stroke-linejoin: round;"></path>
  <path
    fill="#cccccc"
    stroke="#222222"
    d="M321.682,286.483L322.219,286.224L333.932,286.27C333.932,286.27,332.971,285.53999999999996,332.369,284.916S331.98800000000006,284.3,331.89300000000003,283.735S333.086,282.75,333.086,282.75L333.014,280.588C333.014,280.588,332.534,280.66,331.885,280.696S331.065,280.103,330.924,279.46700000000004S330.363,278.05800000000005,329.96799999999996,277.487S328.65599999999995,276.84400000000005,327.758,276.33200000000005S325.87899999999996,276.6890000000001,325.161,277.22600000000006S321.916,277.53700000000003,321.916,277.53700000000003S321.6,278.204,321.145,278.92600000000004S319.991,279.605,319.991,279.605L315.87199999999996,279.69L318.17999999999995,276.448L318.59499999999997,275.229L321.03299999999996,275.125C321.03299999999996,275.125,321.39,274.607,322.054,273.489S322.93699999999995,270.741,322.82199999999995,269.80499999999995S321.42599999999993,266.50199999999995,321.2699999999999,266.26599999999996S320.8309999999999,265.54799999999994,320.8309999999999,265.54799999999994L321.2679999999999,262.5439999999999C321.2679999999999,262.5439999999999,320.7939999999999,262.33399999999995,320.3769999999999,262.09899999999993S319.2969999999999,261.14399999999995,318.9449999999999,260.53399999999993S319.0099999999999,255.61999999999995,319.0099999999999,255.61999999999995L318.4279999999999,253.85899999999995L317.4869999999999,252.65999999999994L316.0649999999999,250.90899999999993L314.38299999999987,249.02099999999993L312.8319999999999,246.93199999999993C312.8319999999999,246.93199999999993,312.48699999999985,247.65799999999993,312.3009999999999,248.15699999999993S312.02999999999986,249.20299999999992,312.26599999999985,249.6779999999999S312.81199999999984,250.9689999999999,312.70599999999985,251.31099999999992S312.2789999999998,251.93799999999993,312.03799999999984,252.41499999999994S311.64999999999986,254.51699999999994,311.64999999999986,254.51699999999994L302.4109999999999,254.66299999999993L273.9729999999999,255.10899999999992L274.3309999999999,255.88299999999992L280.1649999999999,267.83399999999995L289.49799999999993,286.126C289.49799999999993,286.126,291.83099999999996,290.292,291.70599999999996,291.084S289.70599999999996,291.126,289.70599999999996,291.126L287.83099999999996,289.667C287.83099999999996,289.667,284.24799999999993,289.626,282.16499999999996,289.417S275.027,288.92199999999997,275.027,288.92199999999997L269.80699999999996,294.142L271.05999999999995,296.349L270.7029999999999,297.036L269.50999999999993,298.08L271.4789999999999,300.347L272.16599999999994,299.95799999999997C272.16599999999994,299.95799999999997,273.38899999999995,298.318,273.86499999999995,298.70599999999996S275.23699999999997,298.79499999999996,276.01199999999994,298.467S276.5489999999999,300.346,277.2049999999999,301.062S277.2049999999999,302.791,276.7869999999999,303S274.4319999999999,302.403,274.4319999999999,302.403L265.9919999999999,302.493L265.1869999999999,302.791C265.1869999999999,302.791,263.5459999999999,304.104,262.4129999999999,304.64S259.6099999999999,304.611,259.3109999999999,303.388S257.01499999999993,302.433,257.01499999999993,302.433L256.7459999999999,304.252L255.49299999999994,303.089L252.71299999999994,305.492L262.3399999999999,309.87800000000004V314.509L259.1719999999999,314.99600000000004L254.1759999999999,321.45400000000006L242.8439999999999,314.26500000000004L239.4329999999999,319.261L240.28599999999992,321.82000000000005C240.28599999999992,321.82000000000005,240.28599999999992,321.82000000000005,241.38299999999992,325.35300000000007S243.69799999999992,331.32400000000007,245.28199999999993,333.0300000000001S255.02999999999992,337.4170000000001,259.7819999999999,338.8790000000001S265.75199999999995,342.0470000000001,265.75199999999995,342.0470000000001S268.31199999999995,342.9000000000001,271.60099999999994,343.6310000000001S283.17699999999996,349.7260000000001,283.17699999999996,349.7260000000001L287.929,349.6040000000001L290.97499999999997,351.3100000000001L294.265,351.79700000000014C294.265,351.79700000000014,297.068,354.11200000000014,300.114,354.23400000000015S303.52599999999995,356.42700000000013,303.52599999999995,357.15900000000016S306.44999999999993,360.32700000000017,306.44999999999993,360.32700000000017H311.6889999999999L311.4459999999999,358.25600000000014C311.4459999999999,358.25600000000014,309.25299999999993,357.64700000000016,309.1309999999999,356.42800000000017S310.7149999999999,355.2090000000002,311.68999999999994,354.9660000000002S315.22399999999993,353.62500000000017,315.22399999999993,353.62500000000017S316.07699999999994,350.45700000000016,315.83199999999994,350.09200000000016S314.00499999999994,347.89900000000017,314.00499999999994,347.89900000000017L317.6599999999999,344.9750000000002H320.0969999999999C320.0969999999999,344.9750000000002,319.97599999999994,343.7560000000002,320.0969999999999,342.5370000000002S318.39199999999994,340.3430000000002,318.1479999999999,339.0030000000002S322.4129999999999,335.4700000000002,322.2299999999999,334.1290000000002S320.9509999999999,332.3020000000002,320.9509999999999,332.3020000000002L323.50999999999993,330.4740000000002L321.682,286.483ZM315.75,269.5L309.75,269.594L310.063,273C310.063,273,306.219,272.719,307.188,274.719S308.532,276.813,308.532,276.813L306,279.406H302.906L301.281,279.719L301,281.844L296.969,281.469L296.287,277.037L298.034,274.018V273.06399999999996H301.212C301.212,273.06399999999996,300.577,271.31699999999995,299.941,270.205S297.241,266.233,298.75,264.962S300.259,263.691,300.259,263.691L296.64500000000004,260.32399999999996L299.01400000000007,257.46199999999993L302.52700000000004,258.94199999999995C302.52700000000004,258.94199999999995,302.80400000000003,259.23699999999997,303.67300000000006,258.90199999999993S305.3500000000001,256.57399999999996,305.9820000000001,257.63899999999995S306.7920000000001,259.96799999999996,306.7920000000001,259.96799999999996S306.5540000000001,260.698,307.5210000000001,260.81699999999995S311.3110000000001,260.83699999999993,311.3110000000001,260.83699999999993V262.59399999999994L316.0280000000001,262.4549999999999L315.81000000000006,268.80999999999995L315.75,269.5Z"
    stroke-width="1"
    stroke-linejoin="round"
    style="-webkit-tap-highlight-color: rgba(0, 0, 0, 0); stroke-linejoin: round;"></path>
  <path
    fill="#cccccc"
    stroke="#222222"
    d="M239.435,319.26L242.846,314.264L254.178,321.45300000000003L259.174,314.995L262.342,314.508V309.87699999999995L252.71499999999997,305.49099999999993L255.49499999999998,303.0879999999999L256.748,304.2509999999999L257.017,302.4319999999999C257.017,302.4319999999999,259.014,302.16399999999993,259.313,303.3869999999999S261.281,305.1749999999999,262.41499999999996,304.6389999999999S265.18899999999996,302.7899999999999,265.18899999999996,302.7899999999999L265.99399999999997,302.4919999999999L274.43399999999997,302.40199999999993C274.43399999999997,302.40199999999993,276.37199999999996,303.2079999999999,276.789,302.9989999999999S277.863,301.7759999999999,277.207,301.0609999999999S276.789,298.1379999999999,276.014,298.4659999999999S274.343,299.0929999999999,273.867,298.70499999999987S272.168,299.9569999999999,272.168,299.9569999999999L271.481,300.3459999999999L269.512,298.0789999999999L270.705,297.0349999999999L271.062,296.3479999999999L269.809,294.1409999999999L275.02900000000005,288.9209999999999C275.02900000000005,288.9209999999999,280.08400000000006,289.2069999999999,282.16700000000003,289.4159999999999S287.833,289.6659999999999,287.833,289.6659999999999L289.708,291.1249999999999C289.708,291.1249999999999,291.583,291.8749999999999,291.708,291.0829999999999S289.5,286.1249999999999,289.5,286.1249999999999L280.167,267.83299999999986L274.33299999999997,255.88199999999986L273.97499999999997,255.10799999999986L269.82099999999997,258.0819999999999C269.82099999999997,258.0819999999999,270.166,259.5269999999999,269.37399999999997,259.9059999999999S266.275,260.83499999999987,266.10299999999995,260.1119999999999S260.2169999999999,262.96899999999994,260.2169999999999,262.96899999999994L244.69199999999992,263.1069999999999L232.26599999999993,263.1089999999999C232.26599999999993,263.1089999999999,232.62699999999992,261.76899999999995,233.96699999999993,261.40899999999993S236.59399999999994,259.0899999999999,234.68799999999993,258.0589999999999S229.99899999999994,255.2249999999999,229.17399999999992,256.3589999999999S227.52599999999993,260.9439999999999,227.47399999999993,261.3569999999999S223.40299999999993,264.3449999999999,222.83599999999993,264.9129999999999S222.88699999999992,267.6959999999999,222.83599999999993,269.2419999999999S222.06199999999993,275.2199999999999,220.77299999999994,275.3229999999999S216.58299999999994,276.4169999999999,216.37499999999994,276.20899999999995S212.24999999999994,271.6259999999999,212.24999999999994,271.6259999999999S210.41699999999994,270.8349999999999,210.66699999999994,271.8759999999999S213.24999999999994,275.4179999999999,213.16699999999994,276.5009999999999S212.95899999999995,280.2099999999999,211.24999999999994,279.7509999999999S205.45799999999994,275.9169999999999,205.45799999999994,275.9169999999999S201.08299999999994,277.5009999999999,200.04099999999994,278.7089999999999S194.24899999999994,283.8339999999999,194.24899999999994,283.8339999999999S194.12399999999994,288.62599999999986,194.91599999999994,290.37599999999986S197.29099999999994,294.29199999999986,197.29099999999994,294.29199999999986S202.33299999999994,294.04199999999986,203.62399999999994,295.04199999999986S213.20699999999994,298.83499999999987,215.20699999999994,300.12599999999986S219.24899999999994,301.45999999999987,221.49899999999994,301.50099999999986S225.41699999999994,301.29199999999986,226.58299999999994,302.91699999999986S230.08299999999994,307.41799999999984,231.91599999999994,309.50099999999986S237.70799999999994,317.79199999999986,237.70799999999994,317.79199999999986L239.435,319.26Z"
    stroke-width="1"
    stroke-linejoin="round"
    style="-webkit-tap-highlight-color: rgba(0, 0, 0, 0); stroke-linejoin: round;"></path>
  <path
    fill="#cccccc"
    stroke="#222222"
    d="M191.125,277.5L193.5,276.089C193.5,276.089,193.36,273.75,194.243,272.625S198.65,267.125,198.825,265.625S201.541,259.636,203.498,257.392S207.98499999999999,252.09199999999998,211.279,251.472S216.005,251.625,216.578,251.907S218.87,252.04600000000002,220.06300000000002,251.52S222.258,250.756,221.972,252.42700000000002S221.834,256.83500000000004,222.917,255.50100000000003S224.417,250.50100000000003,224.417,250.50100000000003L223.642,247.82100000000003L228.438,243.84000000000003L232.981,240.06900000000005L236.376,237.25100000000003H239.626L239.952,236.99800000000005L240.469,238.75200000000004L240.24699999999999,240.48100000000005L237.45299999999997,243.06100000000006C237.45299999999997,243.06100000000006,236.62399999999997,243.54600000000008,236.765,244.21100000000007S236.98299999999998,246.64100000000008,236.98299999999998,246.64100000000008S237.29999999999998,249.6260000000001,237.37599999999998,250.1020000000001S238.36599999999999,252.4240000000001,238.82099999999997,253.0070000000001S241.59099999999998,256.12700000000007,242.34099999999998,256.91300000000007S243.82799999999997,258.50300000000004,244.02299999999997,259.1500000000001S244.69299999999996,263.1070000000001,244.69299999999996,263.1070000000001H232.17299999999994C232.17299999999994,263.1070000000001,232.55999999999995,262.1690000000001,232.88999999999996,262.05500000000006S233.90199999999996,261.55000000000007,234.35499999999996,261.25900000000007S235.54099999999997,260.14200000000005,235.59399999999997,259.8300000000001S235.73199999999997,258.6700000000001,234.95299999999997,258.22300000000007S232.26399999999998,256.74000000000007,232.26399999999998,256.74000000000007L230.52899999999997,256.0640000000001C230.52899999999997,256.0640000000001,229.48499999999996,255.63600000000008,229.03899999999996,256.5690000000001S228.02999999999997,259.14900000000006,228.02999999999997,259.14900000000006L227.59499999999997,260.77500000000003C227.59499999999997,260.77500000000003,227.52299999999997,261.41100000000006,227.20599999999996,261.67600000000004S223.22999999999996,264.588,223.22999999999996,264.588S222.61899999999997,264.833,222.61199999999997,265.52200000000005S222.97199999999998,268.61400000000003,222.94599999999997,269.22800000000007S222.11699999999996,273.66100000000006,221.77199999999996,274.26500000000004S221.18799999999996,275.237,220.56099999999995,275.34600000000006S218.90399999999994,275.2370000000001,217.90899999999996,274.3160000000001S214.68999999999997,270.8390000000001,214.74099999999996,270.1490000000001S212.25099999999995,268.2500000000001,212.25099999999995,268.2500000000001L207.91799999999995,270.1670000000001L210.00099999999995,273.2830000000001C210.00099999999995,273.2830000000001,212.08399999999995,277.1670000000001,210.91799999999995,277.50000000000006S209.58499999999995,277.00100000000003,207.83499999999995,275.66700000000003S203.50199999999995,273.56600000000003,203.00199999999995,273.283S201.74099999999996,273.583,200.78799999999995,274.833S197.08499999999995,279.25100000000003,195.50199999999995,279.41700000000003S191.91899999999995,280.333,191.91899999999995,280.333L190.50199999999995,279.25L191.125,277.5Z"
    stroke-width="1"
    stroke-linejoin="round"
    style="-webkit-tap-highlight-color: rgba(0, 0, 0, 0); stroke-linejoin: round;"></path>
  <path
    fill="#cccccc"
    stroke="#222222"
    d="M242.669,257.229C242.669,257.229,237.42600000000002,252.32899999999998,237.375,250.10199999999998S236.369,244.18399999999997,236.942,243.54799999999997S240.37900000000002,240.62099999999998,240.37900000000002,240.62099999999998L240.52200000000002,238.93399999999997L242.31500000000003,239.20699999999997C242.31500000000003,239.20699999999997,242.93600000000004,239.31699999999998,243.11900000000003,238.93399999999997S243.41300000000004,237.99699999999996,243.41300000000004,237.99699999999996L243.33100000000005,236.75999999999996L245.05200000000005,237.03099999999995C245.05200000000005,237.03099999999995,245.50600000000006,238.07399999999996,245.73100000000005,238.35399999999996S246.88500000000005,239.58699999999996,247.56000000000006,239.39599999999996S248.40400000000005,239.11499999999995,248.40400000000005,239.11499999999995S248.31700000000006,238.14599999999996,248.43700000000004,237.67199999999994S248.95700000000005,236.74299999999994,249.30600000000004,236.72899999999993S251.10900000000004,237.08299999999994,251.59900000000005,237.33999999999992S252.15000000000003,237.63299999999992,252.15000000000003,237.63299999999992L252.57500000000005,238.65799999999993C252.57500000000005,238.65799999999993,253.57400000000004,238.98699999999994,254.15200000000004,238.92899999999992S255.61200000000005,238.39399999999992,255.90400000000005,238.3089999999999S256.46600000000007,238.20899999999992,256.46600000000007,238.20899999999992S256.72800000000007,239.7309999999999,256.8910000000001,240.18499999999992S257.3710000000001,241.2539999999999,257.3710000000001,241.2539999999999S257.87700000000007,241.86299999999991,258.1300000000001,241.3789999999999S258.7670000000001,239.94099999999992,258.7670000000001,239.94099999999992S259.8340000000001,239.3439999999999,260.2640000000001,239.16399999999993S262.1970000000001,238.44699999999992,262.82100000000014,238.37999999999994S264.77500000000015,238.40799999999993,265.12400000000014,238.53199999999993S266.8390000000001,239.29199999999992,267.36800000000017,239.65099999999993S269.6000000000002,241.37999999999994,269.6000000000002,241.37999999999994H272.9600000000002L273.1010000000002,241.09699999999995C273.1010000000002,241.09699999999995,273.7150000000002,241.32699999999994,273.6400000000002,241.76799999999994S273.86000000000024,242.49499999999995,274.0340000000002,242.67599999999993S275.6500000000002,244.28299999999993,275.6500000000002,244.28299999999993S276.0270000000002,244.73099999999994,276.0130000000002,245.14499999999992S275.6650000000002,249.47499999999994,275.5320000000002,249.9399999999999S275.0870000000002,251.01899999999992,274.7850000000002,251.36399999999992S273.8760000000002,252.6349999999999,273.7860000000002,253.14599999999993S273.5880000000002,253.42299999999992,273.69000000000017,254.04099999999994S273.8740000000002,255.18199999999993,273.8740000000002,255.18199999999993L270.17800000000017,257.8279999999999L269.87800000000016,258.0429999999999C269.87800000000016,258.0429999999999,269.92100000000016,258.4419999999999,269.89800000000014,258.7719999999999S269.85500000000013,259.6609999999999,269.49600000000015,259.83499999999987S267.8530000000002,260.46299999999985,267.23000000000013,260.45299999999986S266.2350000000001,260.3729999999999,266.17000000000013,260.2429999999999S265.8410000000001,259.9609999999999,265.3820000000001,260.1489999999999S260.3110000000001,262.9139999999999,260.3110000000001,262.9139999999999L252.6490000000001,263.0379999999999L244.69500000000008,263.1079999999999C244.69500000000008,263.1079999999999,244.4410000000001,260.50099999999986,244.12900000000008,259.4379999999999S242.669,257.229,242.669,257.229Z"
    stroke-width="1"
    stroke-linejoin="round"
    style="-webkit-tap-highlight-color: rgba(0, 0, 0, 0); stroke-linejoin: round;"></path>
</svg>
