<svg height="420" version="1.1" width="540" xmlns="http://www.w3.org/2000/svg" xmlns:xlink="http://www.w3.org/1999/xlink" style="overflow: hidden; position: relative; top: 0.8px;">
  <desc style="-webkit-tap-highlight-color: rgba(0, 0, 0, 0);">Created with Raphaël 2.2.0</desc>
  <defs style="-webkit-tap-highlight-color: rgba(0, 0, 0, 0);"></defs>
  <path
    fill="#cccccc"
    stroke="#222222"
    d="M163.157,239.83L163.793,235.923L165.065,233.107V227.927L165.52,225.474L166.156,223.112V222.475L163.157,218.204C163.157,218.204,164.61100000000002,214.56900000000002,165.065,213.93300000000002S164.656,211.389,164.656,211.389L165.065,206.573L162.612,203.211L163.702,199.94000000000003H166.702L167.702,196.94000000000003L166.339,196.34500000000003L169.353,194.48700000000002L168.97400000000002,192.21600000000004L166.88400000000001,191.76200000000003L170.37500000000003,189.12500000000003L173.68800000000002,188.68700000000004L174.55900000000003,187.09500000000003L175.45900000000003,185.04800000000003L176.54500000000004,183.49200000000002L177.48500000000004,182.72700000000003L178.48700000000005,182.23700000000002L179.76800000000006,181.92600000000002L180.31900000000005,181.686L180.25300000000004,178.186L180.69400000000005,177.281L181.66600000000005,176.216L183.92500000000004,174.899L184.24000000000004,172.116L184.79000000000005,170.012L185.17000000000004,169.326L186.44500000000005,168.578L187.81300000000005,168.203L188.75400000000005,168.516L192.46400000000006,165.159L194.50200000000007,163.488L195.29200000000006,163.194L196.68500000000006,163.313L199.12200000000007,161.155L199.73800000000008,163.903L202.1800000000001,163.81C202.1800000000001,163.81,202.7230000000001,163.734,203.01700000000008,162.87800000000001S203.3890000000001,161.62,203.3890000000001,161.62L204.55900000000008,162.502L208.98600000000008,161.441L209.56900000000007,161.077L210.90200000000007,160.863L211.62000000000006,161.327L214.04900000000006,162.544L216.46700000000007,163.119L217.62300000000008,163.314L220.39800000000008,160.374L221.91600000000008,158.61599999999999L222.77300000000008,157.688C222.77300000000008,157.688,223.79400000000007,157.48,224.28300000000007,157.408S227.22000000000008,158.034,227.22000000000008,158.034L231.2030000000001,159.34L232.71300000000008,159.564L233.96400000000008,159.023L234.86600000000007,159L236.56800000000007,159.936L238.04800000000006,160.37900000000002L239.83400000000006,161.57200000000003L241.34400000000005,162.58100000000002L244.22400000000005,164.83200000000002L245.66500000000005,165.95900000000003L246.46500000000006,167.42300000000003L247.11000000000007,168.84000000000003L248.83200000000008,169.08600000000004L251.14500000000007,169.41700000000003V172.38200000000003L255.59200000000007,172.87600000000003L257.9800000000001,175.01800000000003H261.0280000000001L261.61300000000006,176.18800000000002C261.61300000000006,176.18800000000002,261.62000000000006,176.96200000000002,261.12200000000007,177.11S260.08700000000005,177.477,260.08700000000005,177.477L260.28600000000006,178.677L260.36500000000007,179.15699999999998L260.9990000000001,180.486L261.4000000000001,181.618L261.41800000000006,182.529L261.1890000000001,183.061L260.5710000000001,183.726L260.03100000000006,184.163L259.30000000000007,184.49L259.8760000000001,188.691C259.8760000000001,188.691,261.0360000000001,188.611,262.4760000000001,188.846S265.6540000000001,189.00900000000001,266.69400000000013,189.96200000000002S267.92000000000013,191.46800000000002,267.92000000000013,191.46800000000002L268.19400000000013,192.27200000000002L268.11400000000015,192.651L267.84500000000014,193.209L267.99100000000016,193.665L268.9010000000002,194.96599999999998L270.3450000000002,196.35199999999998L271.2140000000002,197.54999999999998L275.6350000000002,202.87699999999998L278.2490000000002,203.141L278.3970000000002,205.167L278.7290000000002,209.69L280.6710000000002,210.581L281.1770000000002,212.695L286.9360000000002,212.986L289.1120000000002,211.916L289.1920000000002,207.036L293.4060000000002,206.933L297.2560000000002,207.29999999999998C297.2560000000002,207.29999999999998,298.3920000000002,208.52999999999997,298.7340000000002,209.10399999999998S299.4070000000002,210.26799999999997,299.4070000000002,210.26799999999997S299.73300000000023,212.90499999999997,300.00700000000023,213.58699999999996S300.53800000000024,214.66299999999995,300.53800000000024,214.66299999999995L301.40800000000024,215.46699999999996C301.40800000000024,215.46699999999996,302.3030000000002,217.51899999999995,302.04200000000026,217.76199999999994S300.2670000000003,218.47399999999993,300.2670000000003,218.47399999999993L299.78200000000027,219.42099999999994L300.00300000000027,220.69199999999992L300.20600000000024,221.48599999999993L300.56000000000023,222.86799999999994L301.32900000000024,224.69999999999993L301.63200000000023,225.42099999999994L299.81900000000024,227.14999999999995L298.85700000000026,227.86299999999994L298.41700000000026,228.06299999999993L297.67900000000026,228.05599999999993L297.28900000000027,230.38699999999992L295.4210000000003,232.07799999999992L293.64300000000026,233.57399999999993L291.98700000000025,233.87599999999992L291.00800000000027,234.72799999999992C291.00800000000027,234.72799999999992,290.87400000000025,235.27399999999992,290.83300000000025,235.75599999999991S290.11600000000027,237.54799999999992,290.11600000000027,237.54799999999992L285.4900000000003,238.59799999999993C285.4900000000003,238.59799999999993,284.7030000000003,239.50699999999992,284.6020000000003,239.83499999999992S284.6560000000003,244.8379999999999,284.6560000000003,244.8379999999999S284.9930000000003,247.1589999999999,284.9080000000003,247.9739999999999S284.4580000000003,250.2219999999999,284.3860000000003,250.4069999999999S283.9120000000003,251.2739999999999,283.5970000000003,251.5289999999999S280.2410000000003,255.4259999999999,280.2410000000003,255.4259999999999S280.2950000000003,255.5919999999999,280.89900000000034,256.1729999999999S281.90300000000036,256.81099999999986,281.95000000000033,257.3749999999999S281.7630000000003,258.2949999999999,281.7630000000003,258.2949999999999L275.3640000000003,262.3759999999999L280.9190000000003,262.6719999999999V267.6609999999999V280.1719999999999L271.00200000000035,291.8889999999999L274.27300000000037,292.2309999999999L274.23500000000035,303.33299999999986L272.92900000000037,303.83099999999985L252.53200000000038,303.5819999999998L248.1420000000004,302.6119999999998L239.5970000000004,302.7729999999998L236.4890000000004,301.9029999999998L234.9340000000004,304.5139999999998L234.1310000000004,305.36099999999976L233.5050000000004,305.13799999999975L233.0770000000004,304.6029999999997L230.8290000000004,303.0839999999997L229.1040000000004,303.8029999999997L226.4760000000004,302.1519999999997L225,301.95C225,301.95,224.103,297.933,222.618,296.881S216.65699999999998,294.183,216.65699999999998,294.183L216.26199999999997,290.167L214.55099999999996,287.59999999999997C214.55099999999996,287.59999999999997,216.91999999999996,284.635,216.19599999999997,283.912S212.90499999999997,282.79299999999995,212.90499999999997,282.79299999999995L209.021,278.054L210.271,275.289C210.271,275.289,209.87599999999998,272.852,208.296,273.906S206.387,275.223,206.387,275.223L202.701,274.827L198.422,268.112L194.011,267.454L189.996,263.373L189.40300000000002,262.057L190.65400000000002,261.00300000000004L190.25900000000001,257.97600000000006L189.14000000000001,256.65900000000005L189.66600000000003,249.09000000000006L190.062,247.83800000000005L192.366,247.57400000000004L192.95800000000003,244.08400000000003L193.22200000000004,241.71600000000004L192.89300000000003,240.20200000000003L192.03700000000003,238.75400000000002C192.03700000000003,238.75400000000002,189.86500000000004,239.01800000000003,189.47000000000003,239.412S188.02200000000002,239.609,188.02200000000002,239.609L187.36400000000003,238.49C187.36400000000003,238.49,184.92900000000003,238.161,183.28300000000004,238.95100000000002S182.09800000000004,238.556,182.09800000000004,238.556S183.02000000000004,236.51500000000001,180.78200000000004,236.383S179.40000000000003,238.621,179.40000000000003,238.621S177.95000000000005,239.806,177.75300000000004,240.00300000000001S175.71200000000005,240.20000000000002,175.71200000000005,240.20000000000002L175.64600000000004,244.08300000000003L174,244.742L173.802,246.915L172.486,247.178L171.236,246.059L169.064,248.82399999999998L167.61599999999999,248.23199999999997L166.826,246.25699999999998L166.36599999999999,245.00599999999997L164.523,245.92799999999997L163.404,245.20299999999997L163.272,244.08299999999997H162.022L162.351,240.19999999999996L163.157,239.83Z"
    stroke-width="1"
    stroke-linejoin="round"
    style="-webkit-tap-highlight-color: rgba(0, 0, 0, 0); stroke-linejoin: round;"></path>
  <path
    fill="#cccccc"
    stroke="#222222"
    d="M226.972,326.648V323.788V318.564C226.972,318.564,228.526,318.937,229.024,319.124S229.024,316.512,229.024,316.512L225.542,314.21L223.303,312.904V309.981C223.303,309.981,222.371,308.613,222.68099999999998,306.685S224.546,303.141,224.546,303.141L226.474,302.146L229.24499999999998,303.887L230.82699999999997,303.078L233.12799999999996,304.633C233.12799999999996,304.633,233.99899999999997,306.373,234.93199999999996,304.508S236.48699999999997,301.897,236.48699999999997,301.897L239.59499999999997,302.767L247.74099999999999,302.518L252.529,303.57599999999996L259.68,303.825L267.204,303.887L272.926,303.825L274.23199999999997,303.327V292.318L272.056,291.883H270.998L282.835,278.01099999999997L293.438,266.111L306.965,251.219L313.49899999999997,244.082L361.93199999999996,245.59199999999998L362.13699999999994,249.82999999999998L363.50399999999996,249.898L364.58799999999997,252.042L369.54799999999994,256.142L374.75899999999996,253.59L376.35599999999994,254.479L380.4579999999999,259.029L381.5519999999999,258.5H394L392.584,263.333C392.584,263.333,390.501,265.41700000000003,392.001,268S395.251,274.5,395.251,274.5S397.751,275.251,397.001,277.917S395.584,283.417,395.334,284S393.66700000000003,284.667,393.66700000000003,284.667S392.75100000000003,282.58299999999997,391.834,283.33299999999997S387.584,286.83299999999997,387.584,286.83299999999997S388.91700000000003,289.166,387.834,290.666S385.168,292.166,385.168,292.166S386.194,292.834,386.598,295S386.598,300.25,386.598,300.25S384.50100000000003,301.083,385.50100000000003,303.083S386.58400000000006,307.66600000000005,386.58400000000006,307.66600000000005S389.50000000000006,307.50000000000006,389.6670000000001,309.333S388.6670000000001,312.333,388.6670000000001,312.333L384.2380000000001,316.833V319.083C384.2380000000001,319.083,387.6150000000001,323.73100000000005,388.2190000000001,325.47900000000004S388.5550000000001,331.39500000000004,388.5550000000001,331.39500000000004L385.19400000000013,332.00000000000006C385.19400000000013,332.00000000000006,381.22700000000015,335.63000000000005,380.3530000000001,337.04200000000003S379.5460000000001,344.975,379.5460000000001,344.975S377.3270000000001,349.076,378.3360000000001,349.882S379.8150000000001,353.713,379.41200000000015,354.319S377.66400000000016,353.714,377.66400000000016,353.714S378.0670000000002,351.9,375.91600000000017,351.765S366.7060000000002,350.152,366.7060000000002,350.152L356.6220000000002,346.925L347.5470000000002,344.237L335.9840000000002,341.21200000000005L326.0350000000002,339.06100000000004L317.4300000000002,337.04400000000004L314.80800000000016,336.57300000000004L314.40500000000014,332.47200000000004L308.4900000000001,329.71500000000003C308.4900000000001,329.71500000000003,291.62600000000015,323.00000000000006,288.87600000000015,323.25000000000006S276.12600000000015,326.25000000000006,276.12600000000015,326.25000000000006L269.37600000000015,326.62500000000006L255.75,336.5C255.75,336.5,250,335.5,247.625,334.625S245.375,332.25,245.375,332.25L237.5,333C237.5,333,231,328.375,229.875,328.125S226.972,326.648,226.972,326.648Z"
    stroke-width="1"
    stroke-linejoin="round"
    style="-webkit-tap-highlight-color: rgba(0, 0, 0, 0); stroke-linejoin: round;"></path>
  <path
    fill="#cccccc"
    stroke="#222222"
    d="M327.867,112.524L344.712,124.47800000000001L361.26099999999997,135.42100000000002L371.86999999999995,142.16000000000003L384.14899999999994,150.30100000000002L399.49699999999996,160.57700000000003L408.63899999999995,165.38100000000003C408.63899999999995,165.38100000000003,411.70899999999995,160.17700000000002,413.24399999999997,161.77800000000002S416.24699999999996,165.782,417.448,169.31900000000002S420.251,181.46400000000003,419.717,182.264S417.113,181.597,418.382,183.732S421.653,187.069,421.653,187.069L416.916,199.74699999999999L408.5,221.75L407.5,224L405.75,229.75L394,258.5H384H381.552L380.25300000000004,259.128L376.357,254.48L374.76000000000005,253.59099999999998L369.31600000000003,256.257L364.73600000000005,252.292L364.052,251.13L363.505,249.9L362.138,249.832L361.933,245.594L313.5,244.084L297.25,261.834L280.916,280.168V262.668L275.194,262.478L281.536,258.443C281.536,258.443,282.276,258.113,281.947,257.37199999999996S280.135,255.55999999999995,280.135,255.55999999999995S282.68899999999996,252.10099999999994,283.594,251.52499999999995S284.664,249.21799999999996,284.664,249.21799999999996S285.07599999999996,248.72299999999996,284.829,246.58199999999997S284.334,240.98299999999998,284.499,240.15899999999996S285.487,238.59399999999997,285.487,238.59399999999997L290.017,237.68899999999996C290.017,237.68899999999996,290.923,236.37099999999995,290.84,235.87599999999998S291.00399999999996,234.724,291.00399999999996,234.724L291.828,233.90099999999998L293.64,233.57099999999997L297.263,230.52399999999997L297.676,228.05199999999996C297.676,228.05199999999996,298.251,228.54499999999996,299.817,227.14599999999996S301.63,225.41699999999994,301.63,225.41699999999994L300.55899999999997,222.86399999999995L299.736,219.65199999999996C299.736,219.65199999999996,299.819,218.99299999999997,300.14799999999997,218.58199999999997S302.042,217.75899999999996,302.042,217.75899999999996S301.87699999999995,215.36999999999995,300.80699999999996,214.87599999999995S299.40799999999996,210.26499999999996,299.40799999999996,210.26499999999996S298.17299999999994,207.95799999999997,297.431,207.38199999999995S289.19599999999997,206.88799999999995,289.19599999999997,206.88799999999995L289.114,211.91199999999995L286.80699999999996,212.98199999999994L281.20699999999994,212.81699999999995L280.7129999999999,210.59299999999996L278.73599999999993,209.76999999999995L278.24099999999993,203.01599999999996L275.68799999999993,202.93399999999997L268.60599999999994,194.61599999999996C268.60599999999994,194.61599999999996,267.4529999999999,193.13399999999996,267.86499999999995,192.80399999999995S268.27699999999993,192.47499999999994,268.27699999999993,192.47499999999994S267.7819999999999,189.83999999999995,265.2289999999999,189.18099999999993S259.8759999999999,188.68699999999993,259.8759999999999,188.68699999999993L259.2999999999999,184.48599999999993C259.2999999999999,184.48599999999993,260.0409999999999,184.40399999999994,261.1119999999999,183.16899999999993S260.4529999999999,179.54499999999993,260.4529999999999,179.54499999999993S259.5469999999999,177.07399999999993,260.4529999999999,177.23899999999992S261.68799999999993,176.3329999999999,261.68799999999993,176.3329999999999L261.0299999999999,175.0159999999999H257.9819999999999L255.5939999999999,172.8739999999999L251.1469999999999,172.3799999999999V169.4149999999999L247.1119999999999,168.8379999999999L245.87599999999992,166.11999999999992L241.34699999999992,162.57899999999992L238.05099999999993,160.37699999999992C238.05099999999993,160.37699999999992,239.80899999999994,159.71899999999994,239.07199999999992,158.57499999999993S237.33999999999992,155.88399999999993,237.33999999999992,155.88399999999993L236.75599999999991,154.38599999999994L237.14299999999992,153.10299999999995L237.68599999999992,152.06599999999995L239.08499999999992,152.22199999999995L240.76299999999992,152.37699999999995L241.3209999999999,152.31599999999995L241.5699999999999,152.16799999999995L241.7249999999999,151.67599999999996L241.53599999999992,150.88499999999996L241.1949999999999,149.80299999999997L241.13199999999992,149.64499999999998L242.38799999999992,148.843L243.25899999999993,147.796L244.57899999999992,146.414L245.6599999999999,145.166L247.2049999999999,145.154L249.3709999999999,147.649L250.1829999999999,148.623L251.2549999999999,150.606L251.71499999999992,151.337L252.79399999999993,152.22299999999998L253.60399999999993,152.509L254.20199999999994,152.434L255.10399999999993,151.798L255.98299999999992,150.445L257.92599999999993,150.93699999999998L260.4649999999999,151.259L262.08199999999994,149.994L265.0539999999999,150.776L271.2469999999999,151.912L279.7509999999999,153.305L282.3859999999999,153.464L286.8889999999999,153.209L288.1029999999999,152.931L290.3129999999999,151.76000000000002L292.29699999999985,151.03900000000002L295.19299999999987,150.419L296.52799999999985,150.418C296.52799999999985,150.418,297.54699999999985,151,297.90599999999984,151.19S300.1109999999998,151.404,300.1109999999998,151.404L303.3399999999998,150.558L307.3879999999998,151.274L309.4539999999998,152.078L311.31999999999977,153.287L312.70699999999977,154.256H318.1989999999998L320.7249999999998,153.179L321.5719999999998,150.93200000000002L322.96399999999977,149.53500000000003L322.80099999999976,145.71000000000004L331.82799999999975,145.30800000000005L333.6919999999997,143.36100000000005L334.22999999999973,140.04700000000005L335.37199999999973,137.58600000000004L334.5029999999997,131.38800000000003C334.5029999999997,131.38800000000003,334.4779999999997,131.06700000000004,333.8149999999997,130.77200000000002S331.2549999999997,129.64800000000002,331.2549999999997,129.64800000000002S330.72999999999973,128.19800000000004,330.8039999999997,127.32100000000003S330.4549999999997,125.75800000000002,330.4549999999997,125.75800000000002L329.5179999999997,124.00800000000002L328.9209999999997,122.28000000000003L328.7649999999997,121.31400000000004L328.6249999999997,119.24900000000004L328.5339999999997,117.53900000000004L327.2319999999997,116.70900000000005L326.7129999999997,116.10500000000005L326.56699999999967,115.48800000000004L326.74499999999966,114.58600000000004L326.9649999999997,114.04400000000004L327.3969999999997,113.23300000000003L327.867,112.524Z"
    stroke-width="1"
    stroke-linejoin="round"
    style="-webkit-tap-highlight-color: rgba(0, 0, 0, 0); stroke-linejoin: round;"></path>
  <path
    fill="#cccccc"
    stroke="#222222"
    d="M297.308,75.103L314.406,96.637L323.26800000000003,107.089L327.86800000000005,112.525C327.86800000000005,112.525,325.94500000000005,115.117,326.78100000000006,116.20400000000001S328.53700000000003,117.542,328.53700000000003,117.542S328.72200000000004,121.405,328.84700000000004,121.985S329.75800000000004,124.92699999999999,330.338,125.589S330.793,128.11599999999999,330.918,129.152S334.108,130.35399999999998,334.522,131.43099999999998S335.268,137.646,335.268,137.646L334.23199999999997,140.04899999999998L333.69399999999996,143.36299999999997L331.83,145.30999999999997L322.675,145.89L322.75800000000004,149.66C322.75800000000004,149.66,321.557,150.902,321.47400000000005,151.06799999999998S320.72800000000007,153.18099999999998,320.72800000000007,153.18099999999998L318.20200000000006,154.25799999999998H312.56700000000006L310.70500000000004,152.808L309.21400000000006,151.938L307.3910000000001,151.27499999999998L305.65100000000007,150.98499999999999L303.37300000000005,150.695C303.37300000000005,150.695,300.184,151.607,298.73300000000006,151.482S297.73800000000006,149.949,294.75500000000005,150.488S290.24100000000004,151.647,288.66700000000003,152.683S280.507,153.429,280.507,153.429L272.057,152.062L265.05600000000004,150.77800000000002L261.908,149.949C261.908,149.949,260.913,150.73600000000002,260.582,151.192S255.98499999999999,150.446,255.98499999999999,150.446S255.40599999999998,151.938,254.20399999999998,152.435S251.552,151.151,251.552,151.151L250.18599999999998,148.62400000000002L247.28599999999997,145.14400000000003L241.13599999999997,149.64600000000004C241.13599999999997,149.64600000000004,241.85399999999996,151.24200000000005,241.13599999999997,152.28000000000003S238.26199999999997,150.84300000000002,237.46399999999997,152.36000000000004S236.34699999999998,154.03600000000003,237.46399999999997,156.11200000000005S240.01899999999998,158.90600000000006,240.01899999999998,158.90600000000006L237.86399999999998,160.26300000000006H235.593C235.593,160.26300000000006,236.11399999999998,157.57500000000007,232.363,159.76300000000006S229.133,154.97000000000006,224.027,157.67900000000006S219.547,163.20100000000005,217.35899999999998,163.82700000000006S212.46099999999998,161.84700000000007,211.628,161.32600000000005S207.981,161.32600000000005,206.939,162.47200000000004S203.396,161.84700000000004,203.396,161.84700000000004S202.04199999999997,165.16500000000005,200.271,163.92300000000003S198.291,161.63900000000004,198.291,161.63900000000004L196.311,163.51400000000004C196.311,163.51400000000004,194.54000000000002,162.90800000000004,193.70600000000002,164.20100000000005S189.85100000000003,167.99400000000006,189.85100000000003,167.99400000000006S185.47500000000002,168.09800000000007,184.95400000000004,169.66100000000006S184.01600000000005,174.45400000000006,184.01600000000005,174.45400000000006S179.53500000000005,177.05900000000005,179.95200000000006,179.56000000000006S179.92500000000007,182.37300000000005,179.92500000000007,182.37300000000005S174.74300000000008,183.72600000000006,173.59700000000007,188.41500000000005H170.05400000000006L170.50200000000007,186.26900000000006L169.28200000000007,184.99200000000008L168.17900000000006,186.26900000000006C168.17900000000006,186.26900000000006,167.30700000000004,186.67500000000007,165.79800000000006,186.85000000000005S165.62400000000005,187.48400000000004,164.17200000000005,188.41600000000005S161.55900000000005,188.41600000000005,161.55900000000005,188.41600000000005S161.38500000000005,186.56000000000006,160.34000000000006,187.08300000000006S158.13300000000007,189.11600000000004,157.43600000000006,189.75400000000005S155.34600000000006,189.34800000000004,154.99700000000007,188.99900000000005S153.13900000000007,188.24400000000006,153.13900000000007,188.24400000000006S153.54500000000007,185.45600000000005,151.97700000000006,184.64300000000006S148.55100000000007,185.39800000000005,148.55100000000007,185.39800000000005L144.60200000000006,182.32000000000005L143.90500000000006,181.39100000000005L141.29200000000006,181.73900000000006C141.29200000000006,181.73900000000006,138.63300000000007,173.31100000000006,137.57000000000005,172.06100000000006S138.94500000000005,167.31100000000006,138.63300000000004,166.18600000000006S135.57000000000005,160.56100000000006,135.57000000000005,160.56100000000006S139.19500000000005,158.62300000000008,138.57000000000005,156.99800000000008S135.57000000000005,153.3100000000001,135.57000000000005,153.3100000000001V150.4350000000001C135.57000000000005,150.4350000000001,132.07000000000005,145.8720000000001,130.19500000000005,145.2470000000001S127.69500000000005,144.1220000000001,127.69500000000005,144.1220000000001L125.44500000000005,144.7470000000001C125.44500000000005,144.7470000000001,123.19500000000005,143.8090000000001,122.82000000000005,143.7470000000001S122.82000000000005,140.3090000000001,122.82000000000005,140.3090000000001S121.82000000000005,138.9340000000001,119.69500000000005,139.37100000000012S117.32000000000005,140.6840000000001,117.32000000000005,140.6840000000001V137.8090000000001L112.25700000000005,137.4340000000001C112.25700000000005,137.4340000000001,112.25700000000005,132.62100000000012,114.13200000000005,131.99600000000012S116.25700000000005,128.87100000000012,116.25700000000005,128.87100000000012L115.25700000000005,123.74600000000012C115.25700000000005,123.74600000000012,117.75700000000005,123.74600000000012,119.13200000000005,123.49600000000012S119.00700000000005,118.74600000000012,118.75700000000005,118.37100000000012S120.25700000000005,116.87100000000012,121.13200000000005,116.62100000000012S123.25700000000005,111.62100000000012,126.38200000000005,113.24600000000012S129.88200000000006,113.87100000000012,129.88200000000006,113.87100000000012L130,105.5L129,105L129.375,100.5C129.375,100.5,125,98.625,127.875,95C127.875,95,126.5,93,126,92.25S126,89.375,126,89.375L125,87.5L124.625,84.125C124.625,84.125,121.273,81.017,122.821,79.335S126.316,77.3,126.316,77.3L127.422,74.247L127.599,71.062C127.599,71.062,129.54500000000002,70.752,129.236,69.735S125.25399999999999,66.416,125.25399999999999,66.416V62.302C125.25399999999999,62.302,122.246,59.426,121.49399999999999,57.391S120.25499999999998,54.339,120.25499999999998,54.339L119.76799999999999,52.481C119.76799999999999,52.481,119.19299999999998,52.525,118.97199999999998,51.64S119.59099999999998,50.18,119.59099999999998,50.18L121.00699999999998,48.632L121.05099999999997,45.092999999999996C121.05099999999997,45.092999999999996,120.29899999999998,43.410999999999994,121.13899999999997,42.925S122.33299999999997,42.04,122.33299999999997,42.04L122.02299999999997,40.536L121.44799999999996,38.368L121.53599999999996,36.687000000000005L119.41199999999996,33.01500000000001L118.48299999999996,30.184000000000008L116.62499999999996,29.21100000000001L115.07699999999996,28.591000000000008C115.07699999999996,28.591000000000008,116.53699999999995,27.39700000000001,116.00599999999996,26.070000000000007S115.03199999999995,23.903000000000006,115.03199999999995,23.903000000000006L112.51099999999995,21.425000000000004L108.13099999999996,21.159000000000006L107.73299999999996,20.761000000000006L111.62599999999996,16.779000000000007L113.79399999999997,16.160000000000007L114.81099999999996,14.833000000000007L115.03199999999997,10.542000000000007C115.03199999999997,10.542000000000007,116.57999999999997,8.860000000000007,118.70399999999997,10.232000000000006S123.56999999999996,14.877000000000006,123.56999999999996,14.877000000000006L123.48199999999997,15.718000000000005C123.48199999999997,15.718000000000005,125.64999999999998,14.302000000000005,127.94999999999997,14.391000000000005S131.17899999999997,15.453000000000005,131.17899999999997,15.453000000000005L131.66599999999997,20.275000000000006C131.66599999999997,20.275000000000006,133.52399999999997,22.089000000000006,132.90499999999997,23.637000000000008S134.71899999999997,23.637000000000008,133.96699999999998,25.31800000000001S132.94899999999998,27.35300000000001,132.94899999999998,27.35300000000001L135.60399999999998,29.035000000000007C135.60399999999998,29.035000000000007,138.34699999999998,29.123000000000008,139.45299999999997,29.654000000000007S144.05399999999997,32.30800000000001,144.05399999999997,32.30800000000001S145.82399999999998,34.166000000000004,147.63699999999997,33.458000000000006S151,32.531,151,32.531S151.885,31.291999999999998,152.77,31.557S154.23000000000002,33.327,154.23000000000002,33.327S156.70700000000002,32.265,157.85700000000003,33.15S161.97200000000004,38.635,161.97200000000004,38.635L163.69800000000004,44.254C163.69800000000004,44.254,163.76600000000005,45.739999999999995,163.56600000000003,46.836999999999996S163.16700000000003,49.080999999999996,163.31600000000003,49.379999999999995S164.56300000000005,54.61599999999999,164.31400000000002,55.31399999999999S164.61300000000003,57.257999999999996,166.15900000000002,56.60999999999999S169.699,55.11399999999999,169.699,55.11399999999999S170.995,56.06199999999999,171.544,56.75999999999999S172.441,53.51899999999999,172.441,53.16999999999999S173.28900000000002,51.12599999999999,173.28900000000002,51.12599999999999L174.23600000000002,50.37799999999999L175.882,50.27799999999999L179.871,46.93799999999999L185.505,46.68799999999999L187.1,48.133999999999986L187.549,45.14299999999999C187.549,45.14299999999999,187.05,44.24499999999998,188.895,44.14499999999999S191.089,43.944999999999986,192.286,44.84299999999999S193.832,45.84099999999999,193.832,45.84099999999999L195.677,45.341999999999985L197.123,44.54399999999998C197.123,44.54399999999998,199.766,45.441999999999986,200.563,46.18999999999998S205.749,51.325999999999986,205.749,51.325999999999986L213.378,53.86799999999999L218.66799999999998,55.16699999999999L238.833,62L250.333,65.5L261,68.333L272,70.5L285.167,72.167L297.308,75.103Z"
    stroke-width="1"
    stroke-linejoin="round"
    style="-webkit-tap-highlight-color: rgba(0, 0, 0, 0); stroke-linejoin: round;"></path>
  <path
    fill="#cccccc"
    stroke="#222222"
    d="M157.666,343.48L157.185,321.52500000000003V309.46400000000006C157.185,309.46400000000006,152.361,306.95900000000006,157.185,306.03100000000006C157.657,305.94000000000005,157.092,303.06200000000007,157.092,303.06200000000007H149.113V292.02200000000005H130.558L132.97,294.06300000000005L134.918,294.52700000000004L137.423,299.53700000000003H133.712L133.434,303.71200000000005L118.126,303.34100000000007V300.83600000000007C118.126,300.83600000000007,119.88900000000001,298.98100000000005,119.88900000000001,298.23800000000006S119.42500000000001,295.73300000000006,119.42500000000001,295.73300000000006L115.71400000000001,292.57900000000006V281.53900000000004H112.37400000000001C112.37400000000001,281.53900000000004,115.80700000000002,278.84900000000005,112.37400000000001,278.57000000000005S109.12700000000001,278.57000000000005,109.12700000000001,278.57000000000005L109.12500000000001,271.42600000000004H101.14800000000001V269.94200000000006H93.16900000000001H91.96300000000001C91.96300000000001,269.94200000000006,93.16900000000001,264.74700000000007,94.09700000000001,263.4480000000001S95.581,261.0360000000001,95.581,261.0360000000001S97.9,258.2530000000001,94.932,258.2530000000001S92.705,258.2530000000001,92.705,258.2530000000001L92.51899999999999,255.7480000000001H90.38499999999999V253.7070000000001H88.44L87.791,252.7790000000001H86.121C86.121,252.7790000000001,85.286,254.4490000000001,84.82199999999999,256.3970000000001S84.82199999999999,263.5410000000001,84.82199999999999,263.5410000000001L84.61599999999999,264.0980000000001L76.65799999999999,256.0270000000001L76.19399999999999,253.8000000000001L77.30699999999999,249.8110000000001L79.07,242.6670000000001H91.87299999999999C91.87299999999999,242.6670000000001,93.54299999999999,242.2030000000001,92.89399999999999,243.5020000000001S90.946,246.1920000000001,90.946,246.1920000000001L91.503,248.32600000000008L95.028,251.20200000000008L95.492,251.85100000000008L95.863,255.00500000000008L100.409,254.4480000000001L101.15100000000001,257.78800000000007L105.233,258.15900000000005C105.233,258.15900000000005,108.387,254.26300000000006,109.408,254.63400000000004S111.449,256.30400000000003,111.449,256.30400000000003L112.098,259.36600000000004L115.531,259.18000000000006L115.71700000000001,256.11800000000005L118.87200000000001,256.21100000000007L118.96500000000002,252.87100000000007L122.21200000000002,253.33500000000006L121.74800000000002,255.46900000000005H132.88100000000003C132.88100000000003,255.46900000000005,137.42700000000002,257.78800000000007,139.46800000000002,257.88100000000003S141.973,257.51000000000005,141.973,256.211S137.613,250.73700000000002,137.613,250.73700000000002L140.303,248.51000000000002L132.788,240.62400000000002L135.942,234.68600000000004C135.942,234.68600000000004,138.354,231.34600000000003,138.54000000000002,232.45900000000003S139.282,234.96400000000003,139.282,234.96400000000003S141.601,234.77800000000002,141.323,233.94300000000004S140.58100000000002,232.23100000000005,140.58100000000002,232.23100000000005L140.21,231.37400000000005C140.21,231.37400000000005,140.303,228.84100000000007,142.9,230.14000000000004S150.322,234.96400000000006,150.322,234.96400000000006S154.497,231.06800000000007,158.115,232.64500000000007S163.125,231.68100000000007,163.774,231.37400000000008S165.066,230.78900000000007,165.066,230.78900000000007V233.10200000000006L163.794,235.91800000000006L163.15800000000002,239.82500000000007L162.33100000000002,240.41600000000008L162.02,243.8760000000001V244.0780000000001H163.27L163.40200000000002,245.1980000000001L164.52100000000002,245.9230000000001L166.364,245.0010000000001L167.614,248.2270000000001L169.062,248.8190000000001L171.234,246.05400000000012L172.484,247.17300000000012L173.8,246.9100000000001L173.99800000000002,244.7370000000001L175.644,244.07800000000012L175.71,240.1950000000001L177.751,239.9980000000001L179.398,238.6160000000001C179.398,238.6160000000001,179.003,236.9810000000001,179.593,236.6960000000001S180.86599999999999,236.3200000000001,181.232,236.4390000000001S182.251,236.7250000000001,182.254,237.35800000000012S182.09699999999998,238.55000000000013,182.09699999999998,238.55000000000013S181.88199999999998,239.0770000000001,182.158,239.14700000000013S182.94199999999998,239.09200000000013,182.94199999999998,239.09200000000013L184.30499999999998,238.6010000000001L185.90599999999998,238.5100000000001L187.36399999999998,238.4840000000001L188.02199999999996,239.6030000000001C188.02199999999996,239.6030000000001,189.04699999999997,239.6810000000001,189.25999999999996,239.5420000000001S189.69399999999996,239.2640000000001,189.69399999999996,239.2640000000001L191.94399999999996,238.7590000000001L192.84799999999996,240.1170000000001L193.22299999999996,241.70900000000012L192.94099999999995,244.18500000000012L192.36699999999993,247.56800000000013L190.11799999999994,247.82600000000014L189.66699999999994,249.08400000000015L189.14099999999993,256.65300000000013L190.25999999999993,257.97000000000014L190.63399999999993,260.83300000000014L189.44899999999993,262.1490000000001L189.86599999999993,263.0750000000001L193.87799999999993,267.3110000000001L198.28999999999994,268.08600000000007L202.82099999999994,274.8330000000001L206.38799999999995,275.21600000000007L207.76199999999994,274.25800000000004C207.76199999999994,274.25800000000004,208.50399999999993,273.49300000000005,209.17299999999994,273.65400000000005S209.95599999999993,274.34000000000003,209.95599999999993,274.34000000000003L210.27199999999993,275.28200000000004L209.02199999999993,278.047L211.36499999999992,280.90500000000003L212.90599999999992,282.786C212.90599999999992,282.786,215.4989999999999,283.39300000000003,215.84799999999993,283.649S216.33399999999992,284.271,216.33399999999992,284.271S216.2549999999999,284.98900000000003,215.85199999999992,285.663S214.5519999999999,287.594,214.5519999999999,287.594L216.26299999999992,290.161L216.6469999999999,294.068C216.6469999999999,294.068,221.9639999999999,296.186,222.61899999999991,296.875S223.9979999999999,298.881,223.9979999999999,298.881L224.9759999999999,301.83399999999995L226.25799999999992,302.25399999999996L224.54899999999992,303.13599999999997C224.54899999999992,303.13599999999997,223.1299999999999,305.04299999999995,222.92499999999993,305.763S222.53199999999993,307.381,222.65399999999994,308.042S223.30399999999995,309.976,223.30399999999995,309.976V312.899L229.02499999999995,316.50600000000003L229.21599999999995,318.908C229.21599999999995,318.908,229.09799999999996,319.112,228.42499999999995,318.932S227.13399999999996,318.59700000000004,227.13399999999996,318.59700000000004L226.97299999999996,323.78200000000004L227.03899999999996,326.687L223.68899999999996,326.55L223.25599999999997,325.90500000000003L218.80899999999997,322.281L216.44799999999998,320.359L214.47099999999998,319.921L211.67099999999996,324.093L208.26699999999997,327.99100000000004L205.30199999999996,331.66900000000004L203.10599999999997,334.52400000000006C203.10599999999997,334.52400000000006,200.58099999999996,336.7180000000001,197.12199999999996,335.78600000000006S190.09499999999997,336.50000000000006,188.83199999999997,336.9940000000001S185.92199999999997,336.7200000000001,185.92199999999997,336.7200000000001L181.41999999999996,341.1660000000001L176.31399999999996,338.0920000000001C176.31399999999996,338.0920000000001,173.34899999999996,336.0060000000001,171.15299999999996,337.3230000000001S169.28599999999997,341.1110000000001,169.28599999999997,341.1110000000001L168.62699999999998,342.4280000000001C168.62699999999998,342.4280000000001,171.09799999999998,342.0990000000001,171.09799999999998,342.7020000000001S170.76799999999997,345.2820000000001,170.76799999999997,345.2820000000001S169.23099999999997,344.7870000000001,167.19999999999996,346.3250000000001S165.66199999999995,347.80700000000013,165.66199999999995,347.80700000000013L165.27799999999996,350.4970000000001C165.27799999999996,350.4970000000001,164.50999999999996,351.3750000000001,163.19199999999995,351.54000000000013S159.89799999999994,349.83800000000014,159.89799999999994,349.83800000000014L159.95299999999995,346.0500000000001L157.70199999999994,344.3490000000001L157.666,343.48Z"
    stroke-width="1"
    stroke-linejoin="round"
    style="-webkit-tap-highlight-color: rgba(0, 0, 0, 0); stroke-linejoin: round;"></path>
  <path
    fill="#cccccc"
    stroke="#222222"
    d="M45.5,175.333H97.167L112.25,137.437L117.313,138.032L117.137,141.973L117.313,140.686C117.313,140.686,119.541,139.25400000000002,120.307,139.29500000000002S122.259,139.81400000000002,122.259,139.81400000000002L122.813,140.312V143.75L125.354,144.715L127.688,144.125L130.685,145.485L132.712,147.16600000000003L135.563,150.437V153.312C135.563,153.312,138.98299999999998,155.48100000000002,138.563,157S135.563,160.563,135.563,160.563S139.009,165.39499999999998,138.599,166.843S137.51299999999998,169.959,137.51299999999998,169.959L137.38799999999998,171.747L138.33899999999997,173.335L139.60599999999997,176.316L140.15499999999997,178.325V179.36599999999999L141.16599999999997,181.36599999999999L143.89899999999997,181.39399999999998L148.31999999999996,185.22599999999997C148.31999999999996,185.22599999999997,151.55599999999995,183.38199999999998,152.31999999999996,184.89099999999996S152.87699999999995,188.62699999999995,152.87699999999995,188.62699999999995H154.29099999999994C154.29099999999994,188.62699999999995,156.71399999999994,190.49399999999994,157.42999999999995,189.75699999999995S159.70699999999994,187.50199999999995,159.70699999999994,187.50199999999995S160.19899999999993,186.38599999999994,160.84699999999992,187.22599999999994S161.55399999999992,188.41899999999995,161.55399999999992,188.41899999999995S162.9759999999999,189.32399999999996,163.8909999999999,188.57599999999996S164.9329999999999,187.50199999999995,164.9329999999999,187.50199999999995L165.2239999999999,186.91599999999994L168.1749999999999,186.27199999999993L169.2779999999999,184.99499999999995L170.4979999999999,186.27199999999993L170.1089999999999,188.13499999999993L170.8159999999999,188.41799999999992L170.3779999999999,189.12599999999992L166.8869999999999,191.76299999999992L168.9769999999999,192.21699999999993L169.35599999999988,194.61799999999994L166.4119999999999,196.30399999999995L167.7049999999999,196.94199999999995L166.7479999999999,199.81299999999996L163.7059999999999,199.94199999999995L162.6159999999999,203.21299999999994L165.0519999999999,206.77999999999994L164.6719999999999,211.26699999999994C164.6719999999999,211.26699999999994,165.5349999999999,212.94899999999993,164.9849999999999,214.06899999999993S163.2309999999999,218.30399999999995,163.2309999999999,218.30399999999995L166.11299999999991,222.40799999999996L166.11999999999992,223.26599999999996C166.11999999999992,223.26599999999996,165.5039999999999,225.59099999999995,165.47099999999992,225.76899999999995S165.0709999999999,227.92799999999994,165.0709999999999,227.92799999999994V230.90199999999993L163.6169999999999,231.48499999999993C163.6169999999999,231.48499999999993,163.5749999999999,231.78199999999993,162.8009999999999,232.21599999999992S160.9459999999999,233.06999999999994,160.9459999999999,233.06999999999994L159.03699999999992,232.97699999999995L157.2489999999999,232.43299999999994L155.3329999999999,232.37099999999992L152.44099999999992,233.44999999999993L150.39299999999992,234.90799999999993L146.1879999999999,232.10599999999994L142.6559999999999,230.04899999999995L141.7589999999999,229.77399999999994L141.0859999999999,229.87499999999994L140.6139999999999,230.35599999999994L140.3659999999999,230.68599999999995L140.2859999999999,231.54399999999995L141.3459999999999,233.66999999999996L141.3099999999999,234.24599999999995L140.3939999999999,234.77399999999994L139.4129999999999,234.95499999999996L138.7799999999999,233.45699999999997L138.39099999999988,232.24699999999996L138.03399999999988,232.06699999999995L137.57699999999988,232.73799999999994L136.0359999999999,234.56499999999994L134.6609999999999,237.10599999999994L132.79099999999988,240.62699999999992L129.55799999999988,236.39399999999992C129.55799999999988,236.39399999999992,128.77599999999987,240.82299999999992,127.62999999999988,240.40599999999992S125.70199999999988,238.89499999999992,125.70199999999988,238.89499999999992L125.96299999999988,236.39399999999992L121.53399999999988,235.0399999999999C121.53399999999988,235.0399999999999,121.69099999999987,233.68499999999992,120.43999999999988,231.5489999999999S117.31399999999988,230.0379999999999,117.31399999999988,230.0379999999999S115.69899999999988,229.5689999999999,115.22999999999988,230.8719999999999S106.68599999999988,231.0279999999999,106.68599999999988,231.0279999999999S104.70599999999988,228.6819999999999,105.27899999999988,226.49499999999992S105.79999999999988,223.0049999999999,105.79999999999988,223.0049999999999L100.85099999999989,222.3789999999999C100.85099999999989,222.3789999999999,101.37199999999989,220.2939999999999,102.25799999999988,218.1579999999999S103.03999999999988,214.51199999999992,103.03999999999988,214.51199999999992L102.77899999999988,213.57399999999993L101.73699999999988,212.53199999999993L100.69499999999988,212.89599999999993L99.96599999999988,213.57399999999993L99.34099999999988,214.45999999999992L95.38099999999989,214.56399999999994L91.31799999999988,210.81199999999993L88.19199999999988,209.71799999999993L84.07599999999988,208.62399999999994L80.16799999999988,215.23999999999995L79.43899999999988,216.43799999999996L76.52199999999988,214.30199999999996L74.64699999999988,211.69699999999997L74.07399999999988,209.76899999999998L75.37699999999988,208.206L74.23099999999988,204.60999999999999L73.97199999999988,201.53699999999998L71.00199999999988,203.778L69.07399999999988,204.611L66.52099999999989,203.25699999999998L65.37499999999989,202.63199999999998L61.362999999999886,202.21499999999997L64.90599999999989,198.93299999999996L57.29999999999989,199.50599999999997C57.29999999999989,199.50599999999997,56.62299999999989,196.64099999999996,56.41399999999989,195.80699999999996S56.20599999999989,194.97299999999996,56.20599999999989,194.97299999999996L47.40099999999989,195.02599999999995L46.50799999999989,185.33399999999995L45.50799999999989,178.16699999999994V175.333Z"
    stroke-width="1"
    stroke-linejoin="round"
    style="-webkit-tap-highlight-color: rgba(0, 0, 0, 0); stroke-linejoin: round;"></path>
  <path
    fill="#cccccc"
    stroke="#222222"
    d="M50.029,233.172H56.779C56.779,233.172,61.707,243.886,62.136,245.815S62.886,249.994,62.886,249.994V254.494H76.33800000000001V255.565L84.61600000000001,264.099L84.80400000000002,263.328L84.61700000000002,259.381L84.69500000000002,257.203L84.82100000000003,256.399L85.44200000000002,254.382L86.12000000000002,252.78H87.79000000000002L88.43900000000002,253.708H90.38700000000001V255.482L92.52100000000002,255.749L92.92300000000002,258.254C92.92300000000002,258.254,95.50700000000002,258.221,95.80900000000001,258.372S96.43700000000001,259.252,96.43700000000001,259.252S96.406,259.81100000000004,96.058,260.342S94.436,262.962,94.436,262.962L93.474,264.745L91.965,269.943H101.15V271.24L109.12700000000001,271.428L109.26400000000001,278.495C109.26400000000001,278.495,112.647,278.519,113.07700000000001,278.685S113.87600000000002,279.282,113.87600000000002,279.282S113.64000000000001,280.301,113.26300000000002,280.69399999999996S112.37600000000002,281.53999999999996,112.37600000000002,281.53999999999996H115.71600000000002V292.58L119.45400000000002,295.839L119.89100000000002,298.239L119.56900000000002,299.03299999999996L118.12900000000002,300.83699999999993V303.16799999999995L133.437,303.71299999999997L133.705,299.69399999999996L137.42600000000002,299.53799999999995L134.92100000000002,294.52799999999996L132.973,294.06399999999996L130.561,292.02299999999997L138.446,291.87499999999994L149.115,292.02299999999997V303.063H157.09400000000002L157.34600000000003,305.756C157.34600000000003,305.756,155.26700000000002,306.4,155.20700000000002,306.88699999999994S157.187,309.46399999999994,157.187,309.46399999999994L157.37400000000002,330.06199999999995L157.705,344.35699999999997C157.705,344.35699999999997,156.752,343.99999999999994,156.43900000000002,345.37499999999994S156.18900000000002,348.74999999999994,156.18900000000002,348.74999999999994L151.81400000000002,355.12499999999994L149.12600000000003,355.81299999999993C149.12600000000003,355.81299999999993,145.37600000000003,359.2509999999999,142.12600000000003,360.1259999999999S138.81300000000005,361.8759999999999,138.81300000000005,361.8759999999999S138.56300000000005,364.0009999999999,136.81300000000005,363.6259999999999S131.62500000000006,359.31299999999993,131.62500000000006,359.31299999999993L128.37500000000006,358.37499999999994L123.75000000000006,355.62499999999994L123.18700000000005,353.74999999999994C123.18700000000005,353.74999999999994,119.18700000000005,349.62499999999994,118.24900000000005,349.24999999999994S116.74900000000005,348.81199999999995,116.74900000000005,348.81199999999995L109.74900000000005,351.55899999999997C109.74900000000005,351.55899999999997,107.62400000000005,352.49899999999997,105.43600000000005,353.06199999999995S102.06100000000005,352.68699999999995,102.06100000000005,352.68699999999995S101.49800000000005,350.61899999999997,98.06100000000005,351.55899999999997S95.87300000000005,352.49899999999997,95.87300000000005,352.49899999999997L90.62300000000005,352.311C90.62300000000005,352.311,88.68500000000004,350.186,89.49800000000005,348.748S90.81100000000005,345.998,90.81100000000005,345.998L90.49800000000005,343.685L89.62300000000005,341.185L89.12300000000005,337.997L87.56000000000004,336.434C87.56000000000004,336.434,86.48300000000005,335.04900000000004,87.18500000000004,333.821S89.00900000000004,331.084,89.00900000000004,331.084L81.95700000000005,324.243L81.29000000000005,321.26099999999997L79.67600000000004,319.01599999999996L75.71100000000004,314.561C75.71100000000004,314.561,73.08000000000004,311.755,70.94000000000004,311.43899999999996S67.74700000000004,310.912,66.27300000000004,311.193S64.73000000000003,312.561,64.73000000000003,312.561S63.397000000000034,313.614,63.186000000000035,311.719S63.677000000000035,309.018,63.677000000000035,309.018L65.18600000000004,306.52799999999996L65.22100000000003,304.282C65.22100000000003,304.282,66.94000000000003,304.037,67.01000000000003,303.15999999999997S66.62400000000004,301.722,66.62400000000004,301.722L64.23800000000004,299.26599999999996C64.23800000000004,299.26599999999996,65.01000000000005,298.28399999999993,65.71200000000005,297.371S65.15000000000005,295.198,64.73000000000005,294.35499999999996S65.46700000000004,291.72299999999996,65.46700000000004,291.72299999999996L65.22100000000005,290.84599999999995L61.32600000000004,290.21399999999994L60.344000000000044,289.4429999999999V286.8809999999999C60.344000000000044,286.8809999999999,57.74800000000005,285.7939999999999,57.081000000000046,284.8819999999999S53.783000000000044,282.0749999999999,53.783000000000044,282.0749999999999S49.993000000000045,280.4949999999999,48.660000000000046,280.52999999999986S45.362000000000045,280.17999999999984,43.468000000000046,281.2669999999999S38.346000000000046,283.7569999999999,38.346000000000046,283.7569999999999S31.329000000000047,283.7929999999999,31.189000000000046,283.5469999999999S29.294000000000047,283.0909999999999,28.627000000000045,281.1959999999999S28.312000000000044,278.7399999999999,28.312000000000044,278.7399999999999S29.365000000000045,277.3379999999999,30.452000000000044,276.5299999999999S34.276000000000046,273.30099999999993,35.22300000000004,273.7219999999999S38.41500000000004,275.82699999999994,38.41500000000004,275.82699999999994S39.222000000000044,273.26599999999996,38.83600000000004,271.8279999999999S36.97700000000004,269.33699999999993,36.97700000000004,269.33699999999993L36.55600000000004,268.0729999999999C36.55600000000004,268.0729999999999,37.39800000000004,265.8619999999999,38.45100000000004,265.1959999999999S44.76600000000004,260.63499999999993,44.76600000000004,260.63499999999993S45.43300000000004,258.17999999999995,44.55600000000004,257.23299999999995S42.48600000000004,255.51399999999995,42.48600000000004,255.51399999999995V252.18099999999995C42.48600000000004,252.18099999999995,42.92900000000004,251.24799999999996,43.62000000000004,250.46099999999996S47.26600000000004,249.71299999999997,47.26600000000004,249.71299999999997L47.18900000000004,244.95399999999995L49.54900000000004,242.86199999999994L50.24500000000004,241.49499999999995L50.029,233.172Z"
    stroke-width="1"
    stroke-linejoin="round"
    style="-webkit-tap-highlight-color: rgba(0, 0, 0, 0); stroke-linejoin: round;"></path>
  <path
    fill="#cccccc"
    stroke="#222222"
    d="M50,231.378L49,214.84599999999998L47.393,195.02599999999998L56.198,194.97299999999998L57.292,199.50599999999997L64.898,198.93299999999996L61.355,202.21499999999997L65.36699999999999,202.63199999999998L69.31599999999999,204.504L71.27699999999999,203.566L73.96399999999998,201.538L74.22299999999998,204.61100000000002L75.36899999999999,208.20700000000002L74.06599999999999,209.77L74.78299999999999,211.89700000000002L75.93399999999998,213.496L76.51499999999999,214.304L79.43199999999999,216.44L84.19399999999999,208.34799999999998L90.75699999999999,210.61899999999997L91.312,210.81299999999996L95.375,214.56499999999997L99.335,214.46099999999996L100.00699999999999,213.53099999999995L100.84499999999998,212.70899999999995L101.84599999999999,212.64799999999994L102.71,213.51199999999994L103.03399999999999,214.84499999999994L102.809,216.43999999999994L101.982,218.86999999999995L100.845,222.44499999999994L105.725,222.99799999999993C105.725,222.99799999999993,105.565,225.26999999999992,105.488,225.58799999999994S105.106,227.17399999999995,105.195,227.71399999999994S105.86,229.77699999999993,105.86,229.77699999999993L106.67999999999999,231.03099999999992C106.67999999999999,231.03099999999992,113.139,231.49099999999993,113.41499999999999,231.4689999999999S115.14399999999999,231.0049999999999,115.14399999999999,231.0049999999999L115.64099999999999,230.2719999999999L116.532,229.9629999999999L117.30799999999999,230.0399999999999L118.42599999999999,229.9989999999999L119.28899999999999,230.3309999999999L120.15399999999998,231.1619999999999L120.79199999999999,232.2159999999999L121.19599999999998,233.1749999999999L121.43999999999998,234.05299999999988L121.52699999999999,235.0419999999999L125.95599999999999,236.3959999999999L125.755,238.9759999999999L126.588,239.80999999999992L127.92999999999999,240.49699999999993L128.648,239.51799999999992L129.19,237.9399999999999L129.551,236.3969999999999L130.72199999999998,237.8499999999999L132.24299999999997,239.9199999999999L133.28899999999996,241.1579999999999L134.48499999999996,242.4139999999999L137.30499999999995,245.3729999999999L138.70899999999995,246.84599999999992L140.29999999999995,248.5159999999999L137.60999999999996,250.7429999999999L140.18299999999996,253.45399999999992C140.18299999999996,253.45399999999992,141.41099999999997,254.9749999999999,141.51899999999998,255.15299999999993S141.98999999999998,255.87399999999994,141.96999999999997,256.21599999999995S142.02399999999997,257.066,141.70399999999998,257.35099999999994S140.16199999999998,257.89399999999995,140.16199999999998,257.89399999999995L137.89799999999997,257.554L133.04999999999995,255.55199999999996L121.74499999999995,255.47399999999996L122.20899999999995,253.33999999999997L118.96199999999995,252.87599999999998L118.86899999999994,256.21599999999995L115.71399999999994,256.12299999999993L115.45199999999994,259.18799999999993L112.09599999999995,259.36999999999995L111.44699999999995,256.30799999999994C111.44699999999995,256.30799999999994,110.18899999999995,254.86399999999995,109.65399999999994,254.74699999999993S108.78999999999994,254.74899999999994,108.78999999999994,254.74899999999994L105.30499999999994,258.07399999999996L101.14999999999993,257.792L100.40799999999993,254.45199999999997L95.84699999999992,254.88599999999997L95.49099999999993,251.85499999999996L95.02699999999993,251.20599999999996L91.50199999999992,248.32999999999996L90.94499999999992,246.19599999999997C90.94499999999992,246.19599999999997,92.55499999999992,244.12299999999996,92.68799999999992,243.88299999999998S93.02799999999992,242.902,93.02799999999992,242.902S92.79199999999992,242.34699999999998,92.02399999999992,242.59099999999998S86.79299999999992,242.671,86.79299999999992,242.671H79.07L76.19399999999999,253.804C76.19399999999999,253.804,76.21399999999998,253.901,76.27599999999998,254.199S62.88599999999998,254.497,62.88599999999998,254.497V250.316V249.997L62.097999999999985,245.67100000000002L61.197999999999986,243.22700000000003L60.030999999999985,240.45600000000005L58.57199999999998,237.13800000000003L56.77999999999998,233.17600000000004H50.02999999999998L50,231.378Z"
    stroke-width="1"
    stroke-linejoin="round"
    style="-webkit-tap-highlight-color: rgba(0, 0, 0, 0); stroke-linejoin: round;"></path>
</svg>
