<svg height="420" version="1.1" width="540" xmlns="http://www.w3.org/2000/svg" xmlns:xlink="http://www.w3.org/1999/xlink" style="overflow: hidden; position: relative; top: 0.8px;">
  <desc style="-webkit-tap-highlight-color: rgba(0, 0, 0, 0);">Created with Raphaël 2.2.0</desc>
  <defs style="-webkit-tap-highlight-color: rgba(0, 0, 0, 0);"></defs>
  <path
    fill="#cccccc"
    stroke="#222222"
    d="M143.01,94.357C143.219,95.078,145.802,94.668,145.802,94.668S147.459,96.521,147.882,97.46400000000001S153.473,101.88500000000002,153.669,103.47800000000001S151.71800000000002,107.965,152.79100000000003,109.49300000000001S156.65900000000002,110.27400000000002,157.40700000000004,109.233S158.18700000000004,107.802,158.18700000000004,107.802L158.35000000000005,113.816C158.35000000000005,113.816,158.22100000000006,119.148,160.62600000000006,119.083S165.98900000000006,119.018,166.25000000000006,121.716S166.08800000000005,132.152,166.08800000000005,132.152L166.83600000000004,132.67299999999997C166.83600000000004,132.67299999999997,168.81900000000005,133.02999999999997,169.43700000000004,133.87599999999998S173.95600000000005,138.265,173.95600000000005,138.265S176.68700000000004,139.79299999999998,177.98800000000006,138.94799999999998S182.08400000000006,135.46899999999997,182.08400000000006,135.46899999999997L183.28700000000006,135.04699999999997L183.67700000000005,133.71399999999997L185.01000000000005,133.16099999999997C185.01000000000005,133.16099999999997,186.21300000000005,132.51099999999997,186.34300000000005,132.31599999999997S187.74000000000004,130.78799999999998,188.39100000000005,131.56799999999998S189.39900000000006,132.803,189.39900000000006,132.803L190.66800000000006,134.364L191.22000000000006,134.721H193.91800000000006C193.91800000000006,134.721,195.34800000000007,136.054,195.41400000000007,137.159S195.90200000000007,139.076,196.55200000000008,139.66199999999998S198.56800000000007,140.99499999999998,198.86000000000007,142.19799999999998S200.25800000000007,145.189,201.23400000000007,144.70099999999996S203.57400000000007,142.68599999999998,203.57400000000007,142.68599999999998S204.19300000000007,141.873,205.36300000000006,142.003S207.70400000000006,142.296,209.49100000000004,140.41S211.27900000000005,138.524,211.27900000000005,138.524S214.51000000000005,134.982,214.81300000000005,134.55S217.18600000000004,130.36200000000002,217.67900000000006,129.65400000000002S220.67400000000006,125.83400000000003,221.55200000000005,125.21100000000003S223.66600000000005,123.86800000000002,224.28800000000004,123.63800000000003S227.11100000000005,122.84600000000003,227.66100000000003,122.74500000000003S229.03800000000004,122.34200000000003,229.03800000000004,122.34200000000003S229.28300000000004,125.71300000000002,229.90800000000004,126.48300000000003S232.68000000000004,128.95100000000002,232.68000000000004,128.95100000000002L230.50200000000004,130.12300000000002L220,131.75L220.902,140.868L222.527,142.243L222.349,144.09199999999998C222.349,144.09199999999998,223.047,145.87199999999999,223.12099999999998,146.10999999999999S223.533,147.47899999999998,223.671,148.225S223.53199999999998,149.23,223.32,149.644S223.009,150.798,223.438,151.33700000000002S225.09199999999998,153.15800000000002,225.09199999999998,153.15800000000002L226.49399999999997,154.804L228.80199999999996,157.319L230.12499999999997,158.464C230.12499999999997,158.464,230.35899999999998,159.01,231.47999999999996,158.847S233.23399999999995,158.101,233.88699999999997,158.35500000000002S235.36399999999998,159.3,235.78299999999996,160.37300000000002S237.04199999999994,164.08300000000003,237.35699999999997,164.63400000000001S238.41799999999998,166.31500000000003,238.80099999999996,166.774S239.89799999999997,168.005,239.89799999999997,168.005L241.71599999999998,168.103C241.71599999999998,168.103,244.12399999999997,170.93900000000002,244.71399999999997,171.549S246.16499999999996,173.05100000000002,246.16499999999996,173.05100000000002S248.97499999999997,176.51700000000002,249.58899999999997,177.347S250.86699999999996,179.113,251.12999999999997,179.805S251.78799999999995,181.757,252.12699999999998,182.11700000000002S253.182,183.38100000000003,253.182,183.38100000000003S253.65099999999998,184.34800000000004,253.756,184.64800000000002S251.34,184.491,250.88,185.31900000000002S251.323,187.87900000000002,251.323,187.87900000000002L248.387,189.686C248.387,189.686,246.731,189.686,246.731,188.78300000000002S245.226,185.54600000000002,244.096,185.17000000000002S241.15800000000002,185.69600000000003,240.55700000000002,186.37400000000002S236.568,185.17000000000002,236.568,185.17000000000002L235.214,185.923C235.214,185.923,232.578,183.74,232.127,185.923S230.99800000000002,189.687,230.99800000000002,189.687S228.514,188.482,228.21300000000002,189.687S228.06300000000002,192.096,228.06300000000002,192.096S228.89100000000002,193.677,228.741,195.108S229.794,194.957,229.34300000000002,197.14000000000001S228.21400000000003,200.15200000000002,228.21400000000003,200.15200000000002S226.93400000000003,198.04500000000002,226.40700000000004,199.24900000000002C225.88000000000005,200.45300000000003,224.37500000000003,200.07700000000003,224.14900000000003,200.98000000000002S223.39600000000004,201.882,222.94400000000002,200.603S220.30900000000003,199.398,220.46,200.678S221.43900000000002,205.04399999999998,219.406,205.27S214.588,201.656,213.007,202.936S211.501,205.79600000000002,211.501,205.79600000000002L210.97400000000002,207.30200000000002H207.05900000000003L205.02600000000004,208.80800000000002C205.02600000000004,208.80800000000002,202.69300000000004,208.80800000000002,201.48900000000003,208.28100000000003S199.56900000000005,208.50700000000003,198.38400000000004,208.50700000000003S195.17300000000003,207.95900000000003,196.08600000000004,209.39400000000003S197.12900000000005,211.65500000000003,197.12900000000005,211.65500000000003S194.99900000000005,213.00400000000002,195.60800000000006,215.00400000000002S198.56500000000005,217.96,195.82500000000007,219.61200000000002S192.52000000000007,221.35100000000003,192.52000000000007,221.35100000000003L191.82500000000007,222.26400000000004L188.12900000000008,223.30700000000004L187.49900000000008,225.31500000000005L187.24900000000008,233.25300000000004L181.62400000000008,232.12800000000004C181.62400000000008,232.12800000000004,176.93700000000007,234.92600000000004,174.85000000000008,233.25300000000004S172.7630000000001,231.58000000000004,172.7630000000001,231.58000000000004L171.2420000000001,231.22600000000003C171.2420000000001,231.22600000000003,170.1100000000001,230.51800000000003,168.8370000000001,231.08400000000003S167.8460000000001,231.29600000000002,167.8460000000001,231.29600000000002S165.65300000000008,229.84600000000003,164.1670000000001,228.36S162.2570000000001,226.52,162.2570000000001,226.52L160.3470000000001,225.99C160.3470000000001,225.99,157.3050000000001,223.797,156.6330000000001,222.453S154.7580000000001,218.63400000000001,155.00600000000009,218.067S156.5980000000001,215.025,155.92600000000007,213.08S154.19300000000007,209.68400000000003,154.19300000000007,209.68400000000003L152.81300000000007,207.73900000000003L152.84900000000007,206.43000000000004C152.84900000000007,206.43000000000004,154.86400000000006,205.05000000000004,153.55600000000007,203.81200000000004S151.92900000000006,202.60900000000004,151.92900000000006,202.60900000000004L149.48900000000006,202.14900000000003L146.09300000000007,199.00200000000004L143.72300000000007,198.93100000000004C143.72300000000007,198.93100000000004,138.34600000000006,195.35900000000004,136.68300000000008,194.61600000000004S134.6320000000001,193.62600000000003,133.71200000000007,194.12100000000004S130.98800000000008,195.74800000000005,129.50300000000007,194.47500000000005S128.05200000000008,193.66100000000006,128.61800000000008,192.21000000000006S129.7150000000001,190.12300000000008,129.7150000000001,190.12300000000008L129.7860000000001,188.92000000000007L130.3170000000001,188.10700000000008L130.6350000000001,187.50400000000008C130.6350000000001,187.50400000000008,130.1040000000001,186.40900000000008,130.2810000000001,185.66600000000008S130.9180000000001,184.03900000000007,130.9180000000001,184.03900000000007S127.3450000000001,179.54600000000008,127.4160000000001,178.1670000000001S127.6280000000001,176.54000000000008,127.9470000000001,176.1510000000001S130.7770000000001,174.9830000000001,130.5290000000001,172.8250000000001S129.75100000000012,170.5250000000001,129.75100000000012,170.5250000000001L129.04300000000012,169.4290000000001L129.36100000000013,167.9430000000001C129.36100000000013,167.9430000000001,126.67300000000013,165.0430000000001,126.88500000000013,164.2290000000001S127.02700000000013,162.7080000000001,127.02700000000013,162.7080000000001L129.78600000000012,162.2120000000001C129.78600000000012,162.2120000000001,131.2010000000001,160.9390000000001,131.34200000000013,159.4180000000001S131.16500000000013,157.33200000000008,129.82100000000014,156.3060000000001S125.82400000000014,154.4660000000001,125.82400000000014,154.4660000000001S124.62100000000014,154.0070000000001,124.30300000000014,152.98100000000008S120.48300000000015,150.43400000000008,119.03200000000014,149.47900000000007S116.09600000000015,147.88800000000006,115.21200000000015,147.60400000000007S112.41800000000015,146.79100000000008,112.41800000000015,146.79100000000008S111.53400000000015,146.33100000000007,111.99400000000014,145.2340000000001S113.55100000000014,142.6170000000001,113.51500000000014,142.1570000000001S113.12600000000015,138.2300000000001,113.09000000000015,135.1530000000001S112.80700000000014,125.77900000000011,112.80700000000014,125.77900000000011S113.05600000000014,124.39900000000011,114.01000000000015,122.8430000000001S114.54100000000015,119.2350000000001,114.18700000000015,118.38600000000011S115.95600000000016,116.0870000000001,115.95600000000016,116.0870000000001L116.61400000000016,115.8170000000001L119.12100000000017,116.96700000000011C119.12100000000017,116.96700000000011,119.81000000000016,117.19600000000011,120.28600000000017,116.8140000000001S122.00500000000017,115.5960000000001,123.51900000000018,116.00800000000011S125.37300000000018,116.59100000000011,125.37300000000018,116.59100000000011L126.18500000000017,117.1290000000001C126.18500000000017,117.1290000000001,126.69300000000017,116.9410000000001,127.16400000000017,117.1220000000001S128.17200000000017,117.56700000000009,128.58300000000017,118.0990000000001S129.26900000000018,119.2770000000001,129.79100000000017,119.6380000000001S130.66600000000017,120.3540000000001,131.21600000000018,120.1340000000001S131.94900000000018,120.1720000000001,132.63800000000018,118.9610000000001S134.07000000000016,116.0140000000001,134.07000000000016,116.0140000000001S133.89000000000016,115.6810000000001,134.52300000000017,115.5680000000001S136.73900000000017,115.15600000000009,137.33800000000016,114.4500000000001S138.03800000000015,113.8070000000001,138.28300000000016,113.8140000000001S138.97800000000015,113.96400000000011,139.22500000000016,114.1800000000001S140.08900000000017,114.7600000000001,140.55200000000016,114.33300000000011S141.66100000000017,113.44900000000011,141.21400000000017,112.84100000000011S140.28600000000017,111.91000000000011,140.26200000000017,111.42500000000011S140.63600000000017,110.49100000000011,140.85800000000017,110.13400000000011S142.15700000000018,108.37400000000011,141.3250000000002,107.45000000000012S140.24000000000018,106.34600000000012,140.24000000000018,106.34600000000012S140.29800000000017,105.85100000000011,140.56800000000018,105.34900000000012S142.1480000000002,104.20700000000012,142.40100000000018,103.40000000000012S142.22700000000017,101.84300000000012,142.13900000000018,101.55300000000013S142.08600000000018,101.02100000000013,142.31000000000017,100.80900000000013S143.31000000000017,99.79900000000012,143.19200000000018,98.90300000000012S142.8730000000002,97.75200000000012,142.6700000000002,97.42900000000012S141.9380000000002,96.43600000000012,141.9380000000002,96.43600000000012L142.7130000000002,95.78500000000012L143.3030000000002,95.27800000000012L143.01,94.357Z"
    stroke-width="1"
    stroke-linejoin="round"
    style="-webkit-tap-highlight-color: rgba(0, 0, 0, 0); stroke-linejoin: round;"></path>
  <path
    fill="#cccccc"
    stroke="#222222"
    d="M220.934,98.146L212.081,90.628C212.081,90.628,208.07799999999997,88.182,206.96499999999997,87.159S205.18599999999998,85.29,205.18599999999998,85.29S203.76199999999997,86.66900000000001,201.98299999999998,86.402S194.77599999999998,84.311,193.17499999999998,83.243S186.19199999999998,78.48299999999999,184.367,76.79299999999999S176.76,69.09799999999998,175.737,68.475S169.553,64.383,167.195,63.047999999999995S159.855,57.709999999999994,159.855,57.709999999999994L155.404,53.07299999999999L151.462,55.864999999999995C151.462,55.864999999999995,148.75199999999998,55.565999999999995,148.575,54.544S148.34599999999998,53.215999999999994,148.34599999999998,53.215999999999994L142.11499999999998,53.24799999999999C142.11499999999998,53.24799999999999,141.212,52.33999999999999,140.57299999999998,52.07299999999999S139.56499999999997,51.602999999999994,139.06699999999998,51.62199999999999S138.23399999999998,51.392999999999994,137.23899999999998,51.16899999999999S135.801,50.73599999999999,135.40299999999996,51.16899999999999S134.22399999999996,51.79499999999999,133.92799999999997,52.03699999999999S133.36599999999996,52.11699999999999,133.22999999999996,53.236999999999995S133.19799999999995,54.458,132.49899999999997,55.08899999999999S129.94599999999997,57.51599999999999,129.49999999999997,58.291999999999994S128.97099999999998,59.089999999999996,128.97099999999998,59.089999999999996S131.30499999999998,63.516999999999996,131.40399999999997,63.696999999999996S133.90199999999996,68.49199999999999,134.07199999999997,68.904S134.65499999999997,71.30499999999999,134.65499999999997,71.30499999999999L135.42399999999998,71.797C135.42399999999998,71.797,138.44199999999998,73.068,139.05499999999998,73.61S142.46599999999998,76.256,143.30599999999998,76.397S145.96999999999997,76.887,145.96999999999997,76.887S147.25699999999998,78.644,147.14399999999998,80.135S146.85799999999998,82.59100000000001,146.85799999999998,82.59100000000001S145.61199999999997,83.83900000000001,145.83399999999997,84.48200000000001S146.86699999999996,86.02200000000002,146.86699999999996,86.02200000000002S147.23699999999997,86.27300000000002,147.19199999999995,86.84800000000001S146.87999999999994,87.72100000000002,146.87999999999994,87.72100000000002S144.06799999999993,90.14000000000001,143.50399999999993,91.86100000000002S142.80199999999994,93.63900000000002,143.01099999999994,94.36000000000001S145.80299999999994,94.67100000000002,145.80299999999994,94.67100000000002S147.45999999999995,96.52400000000002,147.88299999999995,97.46700000000003S153.47399999999996,101.88800000000003,153.66999999999996,103.48100000000002S151.71899999999997,107.96800000000002,152.79199999999997,109.49600000000002S156.65999999999997,110.27700000000003,157.40799999999996,109.23600000000002S158.18799999999996,107.80500000000002,158.18799999999996,107.80500000000002L158.35099999999997,113.81900000000002C158.35099999999997,113.81900000000002,158.22199999999998,119.15100000000001,160.62699999999998,119.08600000000001S165.98999999999998,119.02100000000002,166.25099999999998,121.71900000000001S166.08899999999997,132.155,166.08899999999997,132.155L166.83699999999996,132.676C166.83699999999996,132.676,168.81999999999996,133.033,169.43799999999996,133.879S173.95699999999997,138.268,173.95699999999997,138.268S176.68799999999996,139.796,177.98899999999998,138.951S182.08499999999998,135.47199999999998,182.08499999999998,135.47199999999998L183.28799999999998,135.04999999999998L183.67799999999997,133.71699999999998L185.01099999999997,133.164C185.01099999999997,133.164,186.21399999999997,132.51399999999998,186.34399999999997,132.319S187.74099999999996,130.791,188.39199999999997,131.571S189.39999999999998,132.806,189.39999999999998,132.806L190.66899999999998,134.36700000000002L191.22099999999998,134.72400000000002H193.91899999999998C193.91899999999998,134.72400000000002,195.349,136.05700000000002,195.415,137.162S195.903,139.079,196.553,139.66500000000002S198.569,140.99800000000002,198.861,142.20100000000002S200.259,145.19200000000004,201.23499999999999,144.704S203.575,142.68900000000002,203.575,142.68900000000002S204.194,141.87600000000003,205.36399999999998,142.00600000000003S207.70499999999998,142.29900000000004,209.49199999999996,140.41300000000004S211.27999999999997,138.52700000000004,211.27999999999997,138.52700000000004L203.21799999999996,131.50500000000005L201.65799999999996,129.94400000000005L201.29999999999995,126.56300000000005C201.29999999999995,126.56300000000005,197.62699999999995,124.97000000000004,197.85399999999996,124.22200000000005S198.21099999999996,122.95400000000005,198.21099999999996,122.95400000000005L200.35699999999994,121.39400000000005C200.35699999999994,121.39400000000005,200.71399999999994,121.45800000000004,200.03199999999995,120.15800000000004S199.25199999999995,116.51700000000004,199.25199999999995,116.51700000000004S197.82099999999994,114.89100000000003,198.04899999999995,113.91500000000003S199.15399999999994,112.09500000000004,199.15399999999994,112.09500000000004S199.77199999999993,110.50200000000004,199.31699999999995,109.00600000000004S198.04899999999995,103.86900000000004,198.04899999999995,103.86900000000004V100.61800000000004L197.98399999999995,99.51300000000003C197.98399999999995,99.51300000000003,198.49999999999994,98.65500000000003,199.27399999999994,99.21800000000003S202.10399999999996,101.76700000000004,202.10399999999996,101.76700000000004L203.61599999999996,102.50500000000004C203.61599999999996,102.50500000000004,205.93599999999995,101.45000000000003,206.69199999999995,101.96000000000004S208.04599999999996,102.89200000000004,208.16899999999995,104.03500000000004S208.37899999999996,105.61700000000003,208.81899999999996,106.51400000000004S209.20599999999996,108.23700000000004,209.45199999999997,109.39700000000003S209.69799999999998,112.68400000000004,209.69799999999998,112.68400000000004L211.896,111.94600000000004L212.35299999999998,111.82300000000004L212.15999999999997,109.25600000000003C212.15999999999997,109.25600000000003,215.18699999999995,109.24200000000003,215.97599999999997,108.90400000000002S220.09099999999998,108.70600000000003,220.73899999999998,110.05900000000003S221.55599999999998,112.22900000000003,222.54299999999998,110.98900000000003S224.03599999999997,109.15700000000004,224.03599999999997,109.15700000000004L224.28999999999996,108.25400000000003C224.28999999999996,108.25400000000003,223.10699999999997,104.30900000000004,222.54299999999995,103.29500000000003S221.61299999999994,102.53300000000003,221.41599999999994,101.09600000000003S221.35999999999993,98.95400000000004,221.35999999999993,98.95400000000004L220.934,98.146Z"
    stroke-width="1"
    stroke-linejoin="round"
    style="-webkit-tap-highlight-color: rgba(0, 0, 0, 0); stroke-linejoin: round;"></path>
  <path
    fill="#cccccc"
    stroke="#222222"
    d="M212.658,43.249C212.658,43.249,210.992,37.47,211.28599999999997,36.785000000000004S212.36399999999998,35.414,212.36399999999998,35.414L211.95499999999998,32.133C211.95499999999998,32.133,212.55999999999997,31.447000000000003,213.68599999999998,32.133S216.331,33.113,216.03699999999998,34.239000000000004S215.59599999999998,36.002,215.59599999999998,36.002S215.98799999999997,37.019000000000005,216.86899999999997,37.539S218.77899999999997,38.402,218.68099999999998,39.039S218.338,41.39,218.338,41.39L215.351,45.259L214.714,42.81L214.469,42.076L212.658,43.249Z"
    stroke-width="1"
    stroke-linejoin="round"
    style="-webkit-tap-highlight-color: rgba(0, 0, 0, 0); stroke-linejoin: round;"></path>
  <path
    fill="#cccccc"
    stroke="#222222"
    d="M116.716,115.833C116.716,115.833,118.258,115.593,115.40899999999999,113.382S107.91499999999999,107.94800000000001,107.91499999999999,107.94800000000001S105.62899999999999,106.411,107.38999999999999,104.87500000000001S110.01299999999999,103.41300000000001,109.90099999999998,101.35200000000002S107.54099999999998,95.95600000000002,107.35299999999998,95.61900000000001S107.54099999999998,91.64600000000002,107.54099999999998,91.64600000000002S105.66699999999999,89.43600000000002,105.74199999999998,89.06100000000002S106.41699999999997,87.90000000000002,107.57799999999997,87.48700000000002S109.33799999999998,86.28600000000003,109.45099999999998,85.68700000000003S110.05099999999997,83.88900000000002,110.27599999999998,83.58900000000003S109.30099999999999,80.29100000000003,109.03899999999999,79.65400000000002S108.36399999999999,78.30400000000003,108.55199999999999,76.69300000000003S109.826,73.05800000000002,109.826,73.05800000000002S107.577,70.51000000000002,107.315,69.68500000000002S106.603,66.12400000000002,106.753,65.41300000000001S105.667,62.116000000000014,105.517,61.70400000000001S105.368,60.31700000000001,107.691,58.705000000000005S112,54.39600000000001,112.562,53.38400000000001S118.559,47.126000000000005,118.559,47.126000000000005L124.48,41.542L130.06300000000002,35.135000000000005L131.97400000000002,33.036L136.883,35.172000000000004C136.883,35.172000000000004,139.281,38.132000000000005,140.705,38.95700000000001S148.311,43.117000000000004,149.211,44.35300000000001S151.274,47.65200000000001,152.54700000000003,49.41300000000001S155.40400000000002,53.07300000000001,155.40400000000002,53.07300000000001L151.46200000000002,55.86500000000001C151.46200000000002,55.86500000000001,148.78000000000003,55.70100000000001,148.615,54.77000000000001S148.341,53.18200000000001,148.341,53.18200000000001L142.154,53.29100000000001C142.154,53.29100000000001,140.95,51.86700000000001,139.253,51.64800000000001S135.96699999999998,50.49800000000001,135.31099999999998,51.15500000000001S133.23,51.976000000000006,133.23,53.23600000000001S133.176,54.49500000000001,131.697,55.80900000000001S129.014,58.985000000000014,129.014,58.985000000000014L130.43300000000002,61.942000000000014C130.43300000000002,61.942000000000014,134.21500000000003,68.67600000000002,134.37900000000002,69.77100000000002S134.65300000000002,71.30400000000002,134.65300000000002,71.30400000000002L135.25600000000003,71.74100000000001C135.25600000000003,71.74100000000001,138.04800000000003,72.61700000000002,139.36200000000002,73.87600000000002S143.30400000000003,76.39500000000002,143.30400000000003,76.39500000000002L145.93200000000002,76.83300000000003C145.93200000000002,76.83300000000003,147.246,78.69500000000002,147.13700000000003,80.44700000000003S146.80800000000002,82.74600000000004,146.80800000000002,82.74600000000004S145.54900000000004,83.67700000000004,145.877,84.71700000000004S146.80800000000002,85.48300000000005,147.136,86.63300000000004S146.863,87.40000000000003,145.439,89.09700000000004S143.358,91.94400000000003,143.03,92.98400000000004S143.304,95.28400000000003,143.304,95.28400000000003L141.935,96.43300000000004C141.935,96.43300000000004,143.304,97.85700000000004,143.194,99.28000000000003S141.771,100.75800000000002,142.099,101.47000000000003S143.03,103.38600000000002,141.49699999999999,104.48100000000002S140.238,106.34300000000002,140.238,106.34300000000002S141.771,107.27400000000002,141.552,108.58800000000002S140.019,110.88700000000003,140.293,111.54500000000002S141.552,112.80400000000002,141.333,113.57100000000001S139.8,114.66600000000001,139.472,114.39200000000001S138.323,113.18700000000001,137.33700000000002,114.44700000000002S134.16100000000003,115.30400000000002,134.10700000000003,115.83400000000002S133.01200000000003,118.55400000000002,132.30000000000004,119.43000000000002S130.32800000000003,120.68900000000002,129.12400000000005,118.82700000000003S126.82400000000005,116.96500000000003,126.49600000000005,117.18400000000003S125.73000000000005,116.36300000000003,123.70400000000005,116.03500000000003S120.63800000000005,116.36400000000002,120.14500000000005,116.96600000000002S116.716,115.833,116.716,115.833Z"
    stroke-width="1"
    stroke-linejoin="round"
    style="-webkit-tap-highlight-color: rgba(0, 0, 0, 0); stroke-linejoin: round;"></path>
  <path
    fill="#cccccc"
    stroke="#222222"
    d="M162.563,19.002C162.563,19.002,159.878,17.886,160.15699999999998,16.386S161.58599999999998,14.293999999999999,162.17899999999997,13.91S163.08599999999998,9.655000000000001,163.08599999999998,9.655000000000001H164.82999999999998C164.82999999999998,9.655000000000001,164.58599999999998,13.490000000000002,164.34199999999998,14.328000000000001S162.563,19.002,162.563,19.002Z"
    stroke-width="1"
    stroke-linejoin="round"
    style="-webkit-tap-highlight-color: rgba(0, 0, 0, 0); stroke-linejoin: round;"></path>
  <path
    fill="#cccccc"
    stroke="#222222"
    d="M164.83,18.584L166.71300000000002,16.212V12.725L167.09600000000003,11.504999999999999L168.56100000000004,11.748999999999999L168.77000000000004,13.04C168.77000000000004,13.04,170.75800000000004,14.854,171.35100000000003,16.073999999999998S173.05900000000003,18.758999999999997,171.87400000000002,19.491S169.81600000000003,19.84,169.81600000000003,19.84S169.57200000000003,18.236,168.77000000000004,18.863S167.96800000000005,19.491,167.96800000000005,19.491V21.688H166.25900000000004L166.18900000000005,19.7L164.83,18.584Z"
    stroke-width="1"
    stroke-linejoin="round"
    style="-webkit-tap-highlight-color: rgba(0, 0, 0, 0); stroke-linejoin: round;"></path>
  <path
    fill="#cccccc"
    stroke="#222222"
    d="M211.277,138.525L203.21499999999997,131.50300000000001L201.65499999999997,129.942L201.29699999999997,126.561C201.29699999999997,126.561,197.62399999999997,124.968,197.85099999999997,124.22000000000001S198.20799999999997,122.95200000000001,198.20799999999997,122.95200000000001L200.35399999999996,121.39200000000001C200.35399999999996,121.39200000000001,200.71099999999996,121.456,200.02899999999997,120.156S199.24899999999997,116.515,199.24899999999997,116.515S197.81799999999996,114.889,198.04599999999996,113.913S199.15099999999995,112.093,199.15099999999995,112.093S199.76899999999995,110.5,199.31399999999996,109.004S198.04599999999996,103.867,198.04599999999996,103.867V100.616L197.98099999999997,99.511C197.98099999999997,99.511,198.49699999999996,98.65299999999999,199.27099999999996,99.216S202.10099999999997,101.765,202.10099999999997,101.765L203.61299999999997,102.503C203.61299999999997,102.503,205.93299999999996,101.448,206.68899999999996,101.958S208.04299999999998,102.89,208.16599999999997,104.033S208.37599999999998,105.615,208.81599999999997,106.512S209.20299999999997,108.235,209.44899999999998,109.395S209.695,112.682,209.695,112.682L211.893,111.944L212.35,111.821L212.15699999999998,109.25399999999999C212.15699999999998,109.25399999999999,215.18399999999997,109.24,215.97299999999998,108.90199999999999S220.088,108.704,220.736,110.05699999999999S221.553,112.22699999999999,222.54,110.987S224.033,109.155,224.033,109.155L224.28699999999998,108.252C224.28699999999998,108.252,223.10399999999998,104.307,222.53999999999996,103.29299999999999S221.60999999999996,102.53099999999999,221.41299999999995,101.094S221.35699999999994,98.952,221.35699999999994,98.952L220.93599999999995,98.14399999999999C220.93599999999995,98.14399999999999,226.93399999999994,103.26899999999999,228.67399999999995,105.87899999999999S232.50299999999996,112.02499999999999,234.70599999999996,114.22999999999999S237.08299999999997,117.07199999999999,237.08299999999997,117.07199999999999S237.48799999999997,119.972,236.32899999999998,120.49399999999999S232.73299999999998,120.31999999999998,231.516,120.55199999999999S229.13899999999998,121.42299999999999,229.07999999999998,122.234S224.08499999999998,122.249,220.25199999999998,126.416S216.08499999999998,133.083,214.58499999999998,134.833S211.277,138.525,211.277,138.525Z"
    stroke-width="1"
    stroke-linejoin="round"
    style="-webkit-tap-highlight-color: rgba(0, 0, 0, 0); stroke-linejoin: round;"></path>
  <path
    fill="#cccccc"
    stroke="#222222"
    d="M292.592,246.113C292.592,246.113,285.5,246.562,283.688,246.75S278.875,248.625,278.875,248.625S275.687,244.812,274.812,245.375S272.312,249.438,272.312,249.438S267.249,250.813,266.624,252.25099999999998S265.374,256.18899999999996,265.374,256.18899999999996S266.624,256.56399999999996,266.624,258.12699999999995S266.56100000000004,261.06499999999994,266.56100000000004,261.06499999999994S265.06100000000004,261.25299999999993,264.87300000000005,262.06499999999994S265.43600000000004,267.06499999999994,264.62300000000005,267.87799999999993S262.063,269,262.063,269S260.313,268.875,259.313,269.5S256.5,270.125,256.5,270.125L254.375,271.125L253.625,266.312L251.875,262.249L250.187,263.312L250.375,264.375L247.375,265.063C247.375,265.063,247,268.251,246.437,268.813S245.24900000000002,271.938,245.24900000000002,271.938S244.56100000000004,271.813,243.49900000000002,273.188S242.06100000000004,275.313,242.06100000000004,275.313S241.71500000000003,277.126,239.91900000000004,274.813S236.68600000000004,271.188,234.68600000000004,272.5S230.12300000000005,275.688,230.12300000000005,275.688S229.49800000000005,276.188,227.62300000000005,274.938S224.31000000000006,274.125,224.31000000000006,274.125S225.18500000000006,272.25,223.31000000000006,273.25S221.12200000000007,275.988,221.12200000000007,275.988S219.74700000000007,276.062,219.55900000000008,277.437S219.1210000000001,279.437,219.1210000000001,279.437S219.8760000000001,280.51,218.3960000000001,281.595S215.2400000000001,283.173,215.2400000000001,284.949S217.7060000000001,291.163,217.7060000000001,291.163S218.6920000000001,292.445,216.5220000000001,292.544S210.20900000000012,288.993,209.0260000000001,292.544S207.3500000000001,299.448,207.3500000000001,299.448S203.8980000000001,298.462,203.40500000000011,300.72999999999996S203.40500000000011,306.352,203.40500000000011,306.352S199.7560000000001,309.804,200.9390000000001,312.073S202.7140000000001,315.42699999999996,202.7140000000001,315.42699999999996L202.02400000000011,320.753C202.02400000000011,320.753,198.6700000000001,323.712,197.58600000000013,324.304S197.19100000000012,327.263,198.27600000000012,328.44699999999995S204.5890000000001,332.09599999999995,204.5890000000001,332.09599999999995S208.0410000000001,329.92599999999993,208.7310000000001,329.43299999999994S213.1690000000001,328.2489999999999,214.0570000000001,327.7559999999999S217.5090000000001,327.2629999999999,218.1010000000001,328.0519999999999S220.07400000000013,327.2629999999999,222.7370000000001,328.5449999999999S227.7670000000001,329.7289999999999,227.7670000000001,329.7289999999999S226.5830000000001,333.37799999999993,228.65500000000011,333.2799999999999S232.69900000000013,332.2939999999999,235.3620000000001,334.6609999999999S239.0110000000001,339.4939999999999,239.40600000000012,339.8889999999999S244.40300000000013,342.8479999999999,244.8140000000001,343.3409999999999S247.3950000000001,344.0309999999999,248.4800000000001,343.3409999999999S250.2550000000001,340.7829999999999,250.6500000000001,343.7879999999999S251.0450000000001,346.7929999999999,251.0450000000001,346.7929999999999S253.2150000000001,348.17399999999986,254.1030000000001,346.7929999999999S256.9630000000001,344.3269999999999,257.4570000000001,345.60899999999987S257.4570000000001,347.7789999999999,258.2460000000001,349.15999999999985S263.1780000000001,351.42899999999986,262.58600000000007,353.10499999999985S260.21900000000005,356.65599999999984,262.0930000000001,357.9379999999999S266.23600000000005,362.67199999999985,266.63000000000005,364.5459999999999S268.10900000000004,368.68899999999985,268.89900000000006,368.78699999999986S270.87200000000007,368.78699999999986,270.87200000000007,368.78699999999986L271.85800000000006,367.3079999999999L270.2800000000001,364.2499999999999C270.2800000000001,364.2499999999999,269.2940000000001,361.7839999999999,270.5760000000001,361.4879999999999S274.2250000000001,359.7129999999999,274.62000000000006,356.85199999999986S274.91600000000005,351.72299999999984,273.63400000000007,350.5389999999999S272.0560000000001,347.2839999999999,272.0560000000001,347.2839999999999L272.4510000000001,339.7889999999999C272.4510000000001,339.7889999999999,268.2100000000001,338.99899999999985,268.6040000000001,335.64499999999987S269.8860000000001,329.82599999999985,269.8860000000001,329.82599999999985L272.2530000000001,325.88099999999986C272.2530000000001,325.88099999999986,273.0420000000001,322.0339999999999,272.4500000000001,319.96299999999985S272.1540000000001,316.60899999999987,272.1540000000001,316.60899999999987S275.4090000000001,318.2859999999999,277.67700000000013,318.18699999999984S289.31600000000014,317.49699999999984,289.31600000000014,317.49699999999984S291.88000000000017,317.20099999999985,291.97900000000016,314.14299999999986S292.59000000000015,308.12599999999986,292.59000000000015,308.12599999999986L294.7400000000001,306.44899999999984L295.5290000000001,306.05399999999986V304.86999999999983L297.5990000000001,303.39099999999985V299.93899999999985C297.5990000000001,299.93899999999985,298.9800000000001,296.58599999999984,299.3740000000001,294.41699999999986S299.3740000000001,290.17499999999984,299.3740000000001,290.17499999999984S295.92300000000006,286.42699999999985,294.8380000000001,283.96099999999984S294.5420000000001,277.94399999999985,294.5420000000001,275.97199999999987S292.5100000000001,272.71699999999987,292.5890000000001,269.95499999999987S293.2600000000001,260.88099999999986,293.2600000000001,260.88099999999986S295.33100000000013,258.31699999999984,295.6270000000001,256.6399999999999S294.34500000000014,248.84799999999987,294.34500000000014,248.84799999999987L292.592,246.113Z"
    stroke-width="1"
    stroke-linejoin="round"
    style="-webkit-tap-highlight-color: rgba(0, 0, 0, 0); stroke-linejoin: round;"></path>
  <path
    fill="#cccccc"
    stroke="#222222"
    d="M245.138,132.159L241.786,132.596C241.786,132.596,240.183,133.98,240.256,132.377S240.694,128.733,239.163,128.51500000000001S232.678,128.953,232.678,128.953S229.618,127.203,229.326,125.09100000000001S229.035,122.34400000000001,229.035,122.34400000000001S228.99099999999999,121.48500000000001,230.054,121.06500000000001S230.632,120.38100000000001,232.871,120.53800000000001S235.83100000000002,120.99700000000001,236.327,120.49600000000001S237.159,118.48,237.27,118.05900000000001S237.494,117.27400000000002,237.494,117.27400000000002L240.467,119.88200000000002C240.467,119.88200000000002,241.113,122.88300000000002,241.78500000000003,123.55600000000003S244.92600000000002,130.67900000000003,244.92600000000002,130.67900000000003L245.51500000000001,132.05400000000003L245.138,132.159Z"
    stroke-width="1"
    stroke-linejoin="round"
    style="-webkit-tap-highlight-color: rgba(0, 0, 0, 0); stroke-linejoin: round;"></path>
  <path
    fill="#cccccc"
    stroke="#222222"
    d="M281.763,197.243C281.763,197.243,279.787,197.194,279.44199999999995,197.886S279.78799999999995,199.22,278.20799999999997,200.059S274.45399999999995,202.379,273.27,200.602S270.604,197.735,269.123,197.243S267.543,196.404,266.703,197.49099999999999S266.159,198.92399999999998,264.82599999999996,198.77499999999998S263.49299999999994,195.96099999999998,263.49299999999994,195.96099999999998L261.31999999999994,195.61499999999998C261.31999999999994,195.61499999999998,261.61799999999994,193.63899999999998,260.43199999999996,193.24499999999998S254.90099999999995,192.10999999999999,254.70299999999995,191.12199999999999S253.86299999999994,184.94899999999998,253.86299999999994,184.94899999999998S253.25299999999993,183.04899999999998,252.46699999999996,182.47799999999998S251.39699999999996,180.09799999999998,250.72999999999996,178.95499999999998S246.37399999999997,173.266,246.37399999999997,173.266L243.63699999999997,170.433L241.63699999999997,168.005H239.89999999999998C239.89999999999998,168.005,237.49599999999998,165.649,236.78199999999998,163.268S235.28199999999998,158.388,233.759,158.34S231.903,159.245,230.498,158.673S225.237,153.294,225.237,153.294S223.42499999999998,151.614,223.094,150.747S223.797,149.59,223.673,148.22600000000003S223.294,146.90300000000002,223.029,145.74600000000004S222.35,144.09300000000005,222.35,144.09300000000005V142.10900000000004C222.35,142.10900000000004,221.069,140.99300000000002,220.904,140.86900000000003S220,131.75,220,131.75L230.5,130.125L232.678,128.953L237.15,128.51H238.695C238.695,128.51,239.559,128.464,239.822,128.802S240.28300000000002,129.751,240.28300000000002,129.751L240.346,130.635L240.27100000000002,132.123C240.27100000000002,132.123,240.04000000000002,132.92499999999998,240.48700000000002,133.15099999999998S241.43600000000004,132.855,241.43600000000004,132.855L241.78800000000004,132.596L243.64200000000005,132.354L245.51600000000005,132.05200000000002C245.51600000000005,132.05200000000002,246.75100000000006,135.65600000000003,247.37600000000006,136.71900000000002S248.50100000000006,138.87500000000003,250.31400000000005,141.12500000000003S253.12700000000004,144.43800000000002,253.31400000000005,146.62500000000003S256.87700000000007,152.12500000000003,257.1890000000001,153.37500000000003S261.50200000000007,161.81300000000002,262.37700000000007,163.62500000000003S265.44000000000005,169.68800000000002,265.44000000000005,169.68800000000002L265.69000000000005,172.18800000000002C265.69000000000005,172.18800000000002,269.00300000000004,175.126,270.19000000000005,177.501S274.37800000000004,184.814,275.44000000000005,186.751S277.44000000000005,190.689,278.75300000000004,192.626S281.763,197.243,281.763,197.243Z"
    stroke-width="1"
    stroke-linejoin="round"
    style="-webkit-tap-highlight-color: rgba(0, 0, 0, 0); stroke-linejoin: round;"></path>
  <path
    fill="#cccccc"
    stroke="#222222"
    d="M269.133,141.712C269.133,141.712,268.899,142.272,269.92499999999995,142.31799999999998S272.90899999999993,141.75799999999998,272.86299999999994,142.551S272.76899999999995,144.83599999999998,273.56199999999995,144.23S274.532,143.522,274.35799999999995,142.70399999999998S272.82599999999996,139.325,272.82599999999996,139.325S272.443,138.48999999999998,272.19899999999996,138.24499999999998S271.43199999999996,137.54799999999997,271.328,138.54099999999997S271.066,139.49899999999997,271.066,139.49899999999997L269.10999999999996,139.48099999999997C269.10999999999996,139.48099999999997,268.037,140.51799999999997,268.489,141.14899999999997S269.133,141.712,269.133,141.712Z"
    stroke-width="1"
    stroke-linejoin="round"
    style="-webkit-tap-highlight-color: rgba(0, 0, 0, 0); stroke-linejoin: round;"></path>
  <path
    fill="#cccccc"
    stroke="#222222"
    d="M187.25,233.25L187.5,225.312L188.13,223.304L191.826,222.261L192.521,221.34799999999998C192.521,221.34799999999998,193.08599999999998,221.261,195.826,219.60899999999998S196.21699999999998,217.00099999999998,195.60899999999998,215.00099999999998S197.12999999999997,211.652,197.12999999999997,211.652S196.99999999999997,210.826,196.08699999999996,209.391S197.19899999999996,208.504,198.38499999999996,208.504S200.28599999999997,207.751,201.48999999999995,208.278S205.02699999999996,208.80499999999998,205.02699999999996,208.80499999999998L207.05999999999995,207.29899999999998H210.97499999999994L211.50199999999992,205.79299999999998C211.50199999999992,205.79299999999998,211.42699999999994,204.21299999999997,213.00799999999992,202.93299999999996S217.3739999999999,205.49299999999997,219.40699999999993,205.26699999999997S220.61099999999993,201.95499999999996,220.46099999999993,200.67499999999995S222.49399999999991,199.32099999999994,222.94499999999994,200.59999999999997S223.92399999999995,201.87999999999997,224.14999999999995,200.97699999999998S225.88099999999994,200.45,226.40799999999996,199.24599999999998C226.93399999999997,198.04199999999997,228.21499999999995,200.14899999999997,228.21499999999995,200.14899999999997S228.89299999999994,199.32099999999997,229.34399999999994,197.13699999999997S228.59199999999993,196.53499999999997,228.74199999999993,195.10499999999996S228.06399999999994,192.09299999999996,228.06399999999994,192.09299999999996S227.91399999999993,190.88899999999995,228.21399999999994,189.68399999999997S230.99899999999994,189.68399999999997,230.99899999999994,189.68399999999997S231.67699999999994,188.10299999999998,232.12799999999993,185.91999999999996S235.21499999999992,185.91999999999996,235.21499999999992,185.91999999999996L236.56899999999993,185.16699999999997C236.56899999999993,185.16699999999997,239.95699999999994,187.04899999999998,240.55799999999994,186.37099999999998S242.96699999999993,184.79,244.09699999999992,185.16699999999997S246.7319999999999,187.87699999999998,246.7319999999999,188.77999999999997S248.38799999999992,189.68299999999996,248.38799999999992,189.68299999999996L251.32399999999993,187.87599999999998C251.32399999999993,187.87599999999998,250.42099999999994,186.14499999999998,250.88099999999991,185.31599999999997S253.8619999999999,184.94399999999996,253.75699999999992,184.64499999999998L254.5829999999999,190.396C254.5829999999999,190.396,254.2889999999999,191.35399999999998,255.50799999999992,191.808S259.7799999999999,193.058,259.7799999999999,193.058S261.2569999999999,193.487,261.2979999999999,194.447S261.4419999999999,195.631,261.4419999999999,195.631L263.6029999999999,195.934C263.6029999999999,195.934,263.3039999999999,197.919,264.1769999999999,198.424S265.7749999999999,198.904,266.0569999999999,198.457S266.9769999999999,196.875,267.3729999999999,196.82999999999998S268.01099999999985,196.84599999999998,268.71299999999985,197.09599999999998S271.2529999999999,198.22899999999998,271.98299999999983,199.03399999999996S273.40099999999984,200.93699999999995,273.7719999999998,201.13099999999997S274.6549999999998,201.66299999999998,275.5709999999998,201.31399999999996S278.6169999999998,199.91799999999998,278.8799999999998,199.60299999999995S279.2079999999998,198.92199999999994,279.3249999999998,198.40299999999996S279.5459999999998,197.55199999999996,280.12499999999983,197.42999999999995S281.44399999999985,197.35699999999994,281.44399999999985,197.35699999999994L287.22599999999983,205.71299999999994C287.22599999999983,205.71299999999994,288.03799999999984,208.41799999999995,288.21799999999985,209.18499999999995S290.78799999999984,213.19799999999995,290.78799999999984,213.19799999999995L288.6689999999998,214.59499999999994C288.6689999999998,214.59499999999994,288.89399999999983,219.82499999999993,289.7959999999998,221.80899999999994S292.2309999999998,227.35399999999993,292.14099999999985,228.34599999999995S290.83299999999986,234.38799999999995,290.83299999999986,234.38799999999995S289.97599999999983,236.01199999999994,290.6519999999999,238.26599999999996S292.5909999999999,246.11099999999996,292.5909999999999,246.11099999999996S285.4989999999999,246.55999999999997,283.6869999999999,246.74799999999996S278.8739999999999,248.62299999999996,278.8739999999999,248.62299999999996S275.6859999999999,244.80999999999997,274.8109999999999,245.37299999999996S272.3109999999999,249.43599999999995,272.3109999999999,249.43599999999995S267.24799999999993,250.81099999999995,266.62299999999993,252.24899999999994S265.37299999999993,256.18699999999995,265.37299999999993,256.18699999999995S266.62299999999993,256.56199999999995,266.62299999999993,258.12499999999994S266.55999999999995,261.06299999999993,266.55999999999995,261.06299999999993S265.05999999999995,261.2509999999999,264.87199999999996,262.06299999999993S265.43499999999995,267.06299999999993,264.62199999999996,267.8759999999999S262.063,269,262.063,269S260.313,268.875,259.313,269.5S256.5,270.125,256.5,270.125L254.375,271.125L253.625,266.312L251.875,262.249L250.187,263.312L250.375,264.375L247.375,265.063C247.375,265.063,247,268.251,246.437,268.813S245.24900000000002,271.938,245.24900000000002,271.938S244.56100000000004,271.813,243.49900000000002,273.188S242.06100000000004,275.313,242.06100000000004,275.313S241.71500000000003,277.126,239.91900000000004,274.813S236.68600000000004,271.188,234.68600000000004,272.5S230.12300000000005,275.688,230.12300000000005,275.688S229.49800000000005,276.188,227.62300000000005,274.938S224.31000000000006,274.125,224.31000000000006,274.125S225.18500000000006,272.25,223.31000000000006,273.25S221.12200000000007,275.988,221.12200000000007,275.988S219.74700000000007,276.062,219.55900000000008,277.437S219.1210000000001,279.437,219.1210000000001,279.437L217.0580000000001,277.687L216.49500000000012,274.374L212.8450000000001,270.52000000000004C212.8450000000001,270.52000000000004,212.57400000000013,269.163,212.0980000000001,268.34700000000004S211.35100000000008,266.92,211.35100000000008,266.92S211.0800000000001,265.088,210.12900000000008,265.90200000000004S207.14100000000008,267.25900000000007,207.14100000000008,267.25900000000007L206.80200000000008,270.85800000000006C206.80200000000008,270.85800000000006,206.05500000000006,271.74100000000004,203.61100000000008,270.1790000000001S196.95800000000008,268.8900000000001,195.26000000000008,269.0930000000001S193.42700000000008,268.2770000000001,193.02000000000007,267.25900000000007S189.21800000000007,264.0680000000001,188.74200000000008,263.38900000000007S188.06300000000007,259.7900000000001,188.06300000000007,259.7900000000001S186.49600000000007,257.2100000000001,187.24600000000007,255.30900000000008S187.99600000000007,251.8460000000001,187.99600000000007,251.8460000000001S190.84900000000007,252.2530000000001,191.86700000000008,250.6920000000001S190.71200000000007,246.4150000000001,190.71200000000007,246.4150000000001S189.21800000000007,244.9210000000001,192.47800000000007,244.1740000000001S194.65100000000007,242.07000000000008,193.49700000000007,241.59400000000008S192.27400000000006,239.1500000000001,191.79900000000006,237.86000000000007S188.94700000000006,234.46400000000008,188.94700000000006,234.46400000000008L187.25,233.25Z"
    stroke-width="1"
    stroke-linejoin="round"
    style="-webkit-tap-highlight-color: rgba(0, 0, 0, 0); stroke-linejoin: round;"></path>
  <path
    fill="#cccccc"
    stroke="#222222"
    d="M335.667,211.522C335.667,211.522,336.647,211.63,337.029,212.17499999999998S338.065,212.82999999999998,338.718,211.849S338.336,210.37699999999998,338.336,210.37699999999998L338.934,207.707L337.3,206.944C337.3,206.944,336.374,207.707,336.647,207.97899999999998S336.866,209.45,336.866,209.45L336.429,209.765H335.666V211.522Z"
    stroke-width="1"
    stroke-linejoin="round"
    style="-webkit-tap-highlight-color: rgba(0, 0, 0, 0); stroke-linejoin: round;"></path>
</svg>
