<svg height="420" version="1.1" width="540" xmlns="http://www.w3.org/2000/svg" xmlns:xlink="http://www.w3.org/1999/xlink" style="overflow: hidden; position: relative; top: -0.4px;">
  <desc style="-webkit-tap-highlight-color: rgba(0, 0, 0, 0);">Created with Raphaël 2.2.0</desc>
  <defs style="-webkit-tap-highlight-color: rgba(0, 0, 0, 0);"></defs>
  <path
    fill="#cccccc"
    stroke="#222222"
    d="M282.809,111.041L284.925,131.688L281.286,132.02599999999998L280.609,136.427L280.609,140.23399999999998L268.856,184.61999999999998L312.596,185.59099999999998L386.129,185.59099999999998L379.107,175.099L376.653,168.24499999999998L373.776,161.89799999999997L368.61400000000003,156.05999999999997L361.58900000000006,146.15899999999996L361.75900000000007,139.38899999999995L364.1280000000001,138.54299999999995L366.8360000000001,137.27299999999994L364.8050000000001,133.88899999999995L361.16700000000014,129.06499999999994L360.82800000000015,125.25799999999994L360.4900000000001,121.44999999999993L356.2580000000001,117.21799999999993L352.7050000000001,116.37199999999993L349.4040000000001,113.74899999999992L346.4430000000001,110.44899999999993L342.7190000000001,107.57099999999993L340.4350000000001,104.35599999999992L337.64300000000014,99.27899999999993L334.67000000000013,95.96799999999993L333.52100000000013,96.45999999999994L328.30900000000014,98.73399999999994L325.6270000000001,98.60199999999993L322.0720000000001,98.43199999999993L322.4280000000001,97.57699999999993L319.43900000000014,94.20299999999993L295.5120000000001,103.87499999999993L285.8480000000001,106.69799999999992L284.3770000000001,109.12299999999992L282.2280000000001,110.18199999999992Z"
    stroke-width="1"
    stroke-linejoin="round"
    style="-webkit-tap-highlight-color: rgba(0, 0, 0, 0); stroke-linejoin: round;"></path>
  <path
    fill="#cccccc"
    stroke="#222222"
    d="M204.711,64.99L226.40300000000002,109.917C226.40300000000002,109.917,245.01000000000002,105.289,246.93800000000002,106.83200000000001S261.978,117.727,262.846,118.016C263.714,118.30600000000001,282.996,109.628,283.767,109.628C284.538,109.628,285.30899999999997,106.832,285.30899999999997,106.832L292.251,105.097L303.049,101.04799999999999L316.06399999999996,96.22799999999998L319.438,94.20399999999998L322.42699999999996,97.57799999999997V98.44599999999997L328.308,98.73599999999998L330.912,97.57899999999998L334.66999999999996,95.96999999999998L331.77899999999994,91.50899999999999L328.5969999999999,84.46699999999998V81.47899999999998C328.5969999999999,81.47899999999998,331.4899999999999,79.64699999999999,331.4899999999999,78.48999999999998C331.4899999999999,77.33299999999998,329.4659999999999,74.53699999999998,329.4659999999999,74.53699999999998L328.2119999999999,71.35499999999998L327.44099999999986,65.47399999999998L317.89599999999984,57.95399999999998L316.06399999999985,57.27899999999998L314.03999999999985,55.92899999999998L312.11199999999985,53.22899999999998L305.94199999999984,51.87899999999998L300.54299999999984,50.625999999999976L296.58999999999986,48.21599999999998L291.47999999999985,44.84099999999998L288.29799999999983,43.97299999999998H284.44199999999984L281.64599999999984,46.479999999999976L279.52499999999986,45.129999999999974C279.52499999999986,45.129999999999974,272.19799999999987,43.97299999999997,275.66899999999987,50.33599999999998L277.69299999999987,52.263999999999974L281.06799999999987,51.492999999999974L280.9709999999999,54.385999999999974L281.1639999999999,54.867999999999974L283.28499999999985,56.891999999999975L280.1999999999999,57.662999999999975L279.3319999999999,59.01299999999998L280.9709999999999,59.976999999999975L283.09199999999987,60.16999999999997L282.99599999999987,61.32699999999997L279.0429999999999,61.51999999999997L277.1149999999999,62.29099999999997L276.7299999999999,64.41199999999996L277.21199999999993,65.76199999999996L278.94699999999995,64.70099999999996L280.68199999999996,65.18299999999996L280.77799999999996,67.68899999999996L277.98199999999997,67.49699999999997L276.34299999999996,69.32899999999997L274.89699999999993,69.90799999999996L276.34299999999996,70.77599999999995L275.95699999999994,71.83699999999996L274.6069999999999,73.47599999999996L275.2819999999999,75.40399999999995L276.8239999999999,75.30799999999995L279.3309999999999,74.15099999999995L282.3199999999999,73.09099999999995L282.70499999999987,74.44099999999995L281.7409999999999,75.21199999999995L281.16199999999986,75.79099999999994L281.45099999999985,76.85199999999995L282.60799999999983,78.00899999999994L283.57199999999983,79.74399999999994L283.86199999999985,83.21499999999995L285.50099999999986,84.17899999999995C285.50099999999986,84.17899999999995,285.9829999999999,86.10699999999994,285.01899999999983,87.55399999999995C284.05499999999984,88.99999999999994,281.64399999999983,90.63899999999994,281.64399999999983,90.63899999999994L280.1979999999998,88.42199999999994L278.6549999999998,88.80799999999994L278.1729999999998,90.25399999999993L275.6669999999998,89.28999999999994L259.2769999999998,82.15599999999993L249.63599999999983,77.04599999999994L239.99499999999983,69.04399999999994L233.34299999999985,68.65799999999994L220.80999999999986,62.294999999999945L213.77199999999985,62.391999999999946L204.711,64.99Z"
    stroke-width="1"
    stroke-linejoin="round"
    style="-webkit-tap-highlight-color: rgba(0, 0, 0, 0); stroke-linejoin: round;"></path>
  <path
    fill="#cccccc"
    stroke="#222222"
    d="M314.33,185.696L386.13,185.591L392.615,195.144L397.629,202.772L400.32800000000003,209.027V210.569L396.857,212.88299999999998L396.471,220.98199999999997L397.435,222.90999999999997L400.328,226.57399999999996L402.256,229.85199999999995L407.07599999999996,231.97299999999996L410.162,237.17899999999995L416.717,245.66299999999995L418.83799999999997,255.49699999999996L419.80299999999994,257.03899999999993L410.93299999999994,264.7509999999999L407.51899999999995,267.8299999999999L403.4239999999999,269.9149999999999L402.4479999999999,270.3429999999999L403.9899999999999,274.5849999999999L390.3009999999999,276.89899999999994L390.1609999999999,266.78L380.46699999999987,261.28L377.18899999999985,248.93999999999997L376.03199999999987,244.69799999999998C376.03199999999987,244.69799999999998,371.7909999999999,244.891,371.0189999999999,246.819S367.0659999999999,247.58999999999997,367.0659999999999,247.58999999999997L363.6919999999999,243.926L356.9159999999999,244.932L361.61399999999986,239.891L362.4829999999999,232.81699999999998L349.9099999999999,219.022C349.9099999999999,219.022,352.02699999999993,213.40099999999998,346.7059999999999,214.088C336.6949999999999,215.38,322.7469999999999,216.406,322.5549999999999,216.599C322.3619999999999,216.792,320.6939999999999,209.98899999999998,320.6939999999999,209.98899999999998S317.9949999999999,200.54099999999997,316.4519999999999,195.91299999999998C314.908,191.288,314.33,185.696,314.33,185.696"
    stroke-width="1"
    stroke-linejoin="round"
    style="-webkit-tap-highlight-color: rgba(0, 0, 0, 0); stroke-linejoin: round;"></path>
  <path
    fill="#cccccc"
    stroke="#222222"
    d="M358.895,244.25L363.441,243.714C363.441,243.714,365.808,245.56,365.94199999999995,246.429C366.07499999999993,247.297,368.04599999999994,248.057,368.04599999999994,248.057L370.11499999999995,247.256L373.28299999999996,244.9L375.782,244.48600000000002L376.601,247.68900000000002L377.534,250.967C377.534,250.967,378.371,253.721,378.371,254.121C378.371,254.52200000000002,379.03299999999996,256.615,379.03299999999996,256.615L380.133,261.214L382.73699999999997,262.817L388.888,265.831C388.888,265.831,390.301,266.868,390.15,267.62600000000003C390.03299999999996,268.216,389.904,276.689,389.904,276.689L387.197,276.839L384.55,275.704L380,278.846H375.859L375.258,281.117C375.258,281.117,374.724,283.588,377.061,285.457C379.39799999999997,287.328,381.268,289.131,381.268,289.131S382.53799999999995,292.66999999999996,381.001,295.14099999999996C379.464,297.614,376.92699999999996,298.28,376.92699999999996,298.28L366.643,286.794L366.10799999999995,280.651L365.57399999999996,277.045L358.22799999999995,275.308L355.68999999999994,274.441L355.53799999999995,274.327L356.08699999999993,272.764L358.5759999999999,268.25100000000003L356.1169999999999,266.949L356.4059999999999,264.2L353.54899999999986,265.121L351.7809999999999,265.349L351.2799999999999,260.921L350.81499999999994,258.88L349.78999999999996,257.766L351.59099999999995,256.23600000000005L353.15299999999996,254.47300000000004L353.82099999999997,250.80000000000004L355.35699999999997,248.79700000000003L355.74399999999997,247.01300000000003L356.426,245.32400000000004L358.895,244.25Z"
    stroke-width="1"
    stroke-linejoin="round"
    style="-webkit-tap-highlight-color: rgba(0, 0, 0, 0); stroke-linejoin: round;"></path>
  <path
    fill="#cccccc"
    stroke="#222222"
    d="M307.509,241.917L301.289,240.326L296.804,239.313L293.33299999999997,242.06199999999998L289.426,243.36399999999998L287.834,241.48399999999998L285.81,239.16799999999998L284.941,236.78199999999998L284.21799999999996,235.69699999999997L281.75899999999996,234.68399999999997L280.02299999999997,233.23799999999997L276.40599999999995,228.75299999999996L274.23599999999993,224.99199999999996L273.5129999999999,223.54499999999996L270.90899999999993,222.82199999999995L268.01499999999993,220.79599999999994L267.2919999999999,219.05999999999995L267.2919999999999,210.09099999999995L271.3429999999999,210.09099999999995L270.13999999999993,197.76999999999995L269.3179999999999,189.58799999999997L268.85599999999994,184.61999999999998L314.00499999999994,185.69599999999997L319.51599999999996,206.90899999999996L322.554,216.60099999999997L334.851,215.29899999999998L348.585,214.236L350.034,215.25L349.896,219.205L350.774,220.48700000000002L360.746,231.21200000000002L362.33599999999996,232.80400000000003L361.614,239.89300000000003L355.68199999999996,246.25800000000004L354.95899999999995,249.72900000000004L353.80199999999996,251.17600000000004L352.93399999999997,255.51600000000005L350.041,257.975L348.259,258.555L345.41200000000003,259.277L340.49300000000005,254.79199999999997L332.10200000000003,255.66099999999997L323.278,255.22599999999997L318.35900000000004,252.04399999999998L316.189,247.55899999999997L311.25300000000004,246.72499999999997L307.78100000000006,242.38499999999996Z"
    stroke-width="1"
    stroke-linejoin="round"
    style="-webkit-tap-highlight-color: rgba(0, 0, 0, 0); stroke-linejoin: round;"></path>
  <path
    fill="#cccccc"
    stroke="#222222"
    d="M289.456,243.156L293.332,242.061L296.804,239.312L307.50899999999996,241.91600000000003L311.63499999999993,246.78900000000002L316.1889999999999,247.55900000000003L318.7449999999999,252.29300000000003L322.6749999999999,254.83600000000004L328.0179999999999,255.46000000000004L332.1029999999999,255.66100000000003L340.4939999999999,254.79300000000003L345.4129999999999,259.27700000000004L350.0419999999999,257.975C350.0419999999999,257.975,352.7819999999999,263.543,351.7779999999999,264.91900000000004C350.7739999999999,266.29400000000004,356.4069999999999,264.19500000000005,356.4069999999999,264.19500000000005L356.11799999999994,266.9440000000001L357.2749999999999,267.6670000000001L358.57699999999994,268.2460000000001L357.0609999999999,270.9950000000001L355.53899999999993,274.3220000000001L352.02699999999993,271.2110000000001L350.3309999999999,270.9950000000001L348.5949999999999,273.0200000000001L348.5139999999999,274.3220000000001L348.4509999999999,275.3350000000001L343.9669999999999,279.67500000000007L346.0159999999999,282.1790000000001L347.1079999999999,284.6810000000001L346.1149999999999,286.06200000000007L344.2709999999999,286.77900000000005L343.5439999999999,285.67400000000004L341.9529999999999,286.77900000000005L336.00999999999993,287.0520000000001L330.0559999999999,282.47800000000007L326.60799999999995,280.25300000000004L323.28099999999995,279.96400000000006L320.67699999999996,278.66100000000006L320.022,274.00700000000006L318.507,274.32200000000006L317.901,272.17500000000007L311.152,273.03400000000005L307.513,273.59800000000007L303.38199999999995,268.46100000000007L296.22999999999996,259.56500000000005L297.27,256.84400000000005L296.017,252.89100000000005V250.86600000000004L293.415,251.25100000000003L291.81600000000003,249.06300000000005L290.752,247.40500000000006L289.807,246.14800000000005L289.456,243.156Z"
    stroke-width="1"
    stroke-linejoin="round"
    style="-webkit-tap-highlight-color: rgba(0, 0, 0, 0); stroke-linejoin: round;"></path>
  <path
    fill="#cccccc"
    stroke="#222222"
    d="M379.104,315.604L377,299.586L376.928,298.277L379.895,296.502L381.72299999999996,292.861L381.746,291.017L381.23699999999997,289.298L379.63399999999996,287.63L377.76699999999994,285.962L375.58699999999993,283.567L375.4529999999999,281.333L375.8579999999999,278.84200000000004L380.0809999999999,278.891L384.5489999999999,275.701L387.7939999999999,277.09200000000004L395.4679999999999,276.02600000000007L397.5639999999999,275.55000000000007L403.99099999999993,274.5850000000001L402.5299999999999,270.3710000000001L407.5189999999999,267.8300000000001L419.2869999999999,257.5600000000001L422.01199999999994,261.0530000000001L425.59399999999994,270.9060000000001L428.46099999999996,274.8470000000001L429.35599999999994,278.0720000000001L429.80299999999994,279.9530000000001C429.80299999999994,279.9530000000001,432.04299999999995,282.9100000000001,432.04299999999995,283.2670000000001C432.04299999999995,283.6260000000001,432.75999999999993,286.76100000000014,432.04299999999995,287.5680000000001C431.32599999999996,288.3730000000001,431.41599999999994,292.0470000000001,431.41599999999994,292.0470000000001L432.75999999999993,298.4320000000001C432.75999999999993,298.4320000000001,435.2679999999999,301.6310000000001,437.41799999999995,302.88500000000005C439.566,304.13900000000007,437.9549999999999,307.81300000000005,437.9549999999999,307.81300000000005L436.2539999999999,310.05100000000004L436.0739999999999,312.38100000000003L437.7749999999999,317.485L439.8359999999999,320.622L440.9999999999999,322.413L439.74599999999987,324.204H438.4019999999999L433.4759999999999,319.815L430.8779999999999,317.665L426.03999999999985,316.50100000000003L420.3969999999999,313.903L417.7089999999999,312.649L417.4409999999999,303.782L415.9179999999999,300.91499999999996L416.1879999999999,294.46599999999995L413.32099999999986,293.929L410.8129999999999,295.80999999999995L406.6029999999999,299.21399999999994L403.4679999999999,300.1979999999999L402.6609999999999,302.8859999999999L399.0789999999999,302.79599999999994L396.8389999999999,303.69199999999995L394.5099999999999,306.0199999999999L388.5989999999999,306.91599999999994L386.26999999999987,308.70699999999994L384.02999999999986,312.29099999999994L380.89499999999987,315.6039999999999H379.104Z"
    stroke-width="1"
    stroke-linejoin="round"
    style="-webkit-tap-highlight-color: rgba(0, 0, 0, 0); stroke-linejoin: round;"></path>
  <path
    fill="#cccccc"
    stroke="#222222"
    d="M379.058,325.75V315.059L380.896,315.60400000000004L384.291,311.87700000000007L385.899,309.30300000000005L387.863,307.48300000000006L388.6,306.9170000000001L393.97700000000003,306.1010000000001L396.216,304.3160000000001L399.08,302.7960000000001L402.662,302.8860000000001L403.66999999999996,300.1360000000001L406.604,299.21400000000006L413.322,293.92900000000003L416.189,294.466L415.947,300.236L417.443,303.783V312.187L421.839,314.568L426.95799999999997,316.722L430.878,317.66499999999996L435.577,321.688L439.276,324.815L436.288,328.288C436.288,328.288,436.384,330.40700000000004,437.15500000000003,331.759C437.92600000000004,333.10900000000004,437.829,338.892,437.829,338.892L437.25100000000003,340.917H431.081L429.538,340.339L427.899,342.749L424.333,344.677H422.40500000000003L421.055,346.702H418.64300000000003L417.68,345.641L414.209,345.35200000000003L412.377,346.70200000000006H409.166V345.06100000000004L405.918,345.641L403.797,345.832L401.96500000000003,342.844L399.362,342.17L395.601,341.688L393.77,341.399L393.191,339.374L394.445,335.32500000000005L394.734,331.083L391.745,328.19000000000005L388.66,326.0690000000001L383.84000000000003,324.20400000000006L379.058,325.75Z"
    stroke-width="1"
    stroke-linejoin="round"
    style="-webkit-tap-highlight-color: rgba(0, 0, 0, 0); stroke-linejoin: round;"></path>
  <path
    fill="#cccccc"
    stroke="#222222"
    d="M136.1,121.293L135.843,120.394L138.236,116.42L138.15599999999998,115.172L135.26,113.231L133.015,112.29499999999999L133.76,109.90399999999998L134.29999999999998,108.82499999999999L138.54199999999997,110.10999999999999L141.14499999999998,110.16699999999999L145.42799999999997,111.00199999999998L146.12599999999998,111.13899999999998L150.62499999999997,106.25399999999998L155.48099999999997,107.17799999999998L157.26199999999997,102.44799999999998L170.80699999999996,79.77299999999998L170.80699999999996,76.62399999999998L192.72499999999997,69.42499999999998L204.48699999999997,65.05499999999998L225.95599999999996,109.53199999999998L211.94199999999995,123.86499999999998L208.72899999999996,126.62799999999999L185.07599999999996,135.499L180.38399999999996,137.362L179.19499999999996,140.254L173.95699999999997,139.869L173.05699999999996,141.861L168.08099999999996,144.99499999999998L163.22299999999996,147.646L162.51599999999996,158.50799999999998L145.61199999999997,157.86599999999999L143.29799999999997,156.837L138.15599999999998,155.93699999999998L134.74999999999997,154.20199999999997L131.14999999999998,151.43799999999996L129.99399999999997,150.60299999999995L143.27899999999997,128.60799999999995L143.81199999999995,127.46399999999994L139.18499999999995,124.12199999999994L136.09999999999994,121.55099999999995"
    stroke-width="1"
    stroke-linejoin="round"
    style="-webkit-tap-highlight-color: rgba(0, 0, 0, 0); stroke-linejoin: round;"></path>
  <path
    fill="#cccccc"
    stroke="#222222"
    d="M119.389,108.953L119.208,107.66C119.208,107.66,114.352,79.13,149.211,79.13L143.812,66.018L170.80700000000002,76.302V79.77300000000001L159.624,98.67L157.053,102.783L156.154,105.612L155.383,107.411L150.627,106.254L147.542,109.596L146.12800000000001,111.138L140.85700000000003,110.11H138.54300000000003L135.58600000000004,109.339L134.30000000000004,108.825L133.14300000000003,111.13900000000001L133.01500000000004,112.296L136.10000000000005,113.58200000000001L138.15700000000004,115.173L138.28500000000003,117.182L135.84300000000002,120.395H133.52900000000002H130.70100000000002L122.86000000000003,114.61L119.389,108.953Z"
    stroke-width="1"
    stroke-linejoin="round"
    style="-webkit-tap-highlight-color: rgba(0, 0, 0, 0); stroke-linejoin: round;"></path>
  <path
    fill="#cccccc"
    stroke="#222222"
    d="M111.933,40.309L121.50200000000001,52.184L129.34300000000002,59.047999999999995L133.52800000000002,64.476L139.57000000000002,70.775C139.57000000000002,70.775,139.18400000000003,72.18900000000001,137.64200000000002,72.44600000000001C136.09900000000002,72.70300000000002,133.78600000000003,72.44600000000001,133.78600000000003,72.44600000000001L130.95700000000002,72.56000000000002L129.02900000000002,71.28900000000002C129.02900000000002,71.28900000000002,128.90100000000004,68.58900000000001,128.13000000000002,69.74600000000001C127.35900000000002,70.903,126.33000000000003,73.08900000000001,126.33000000000003,73.08900000000001L123.50200000000002,77.33100000000002L119.05800000000002,77.84500000000001L116.43300000000002,82.08700000000002L111.93400000000003,78.10200000000002C111.93400000000003,78.10200000000002,108.33400000000003,75.27400000000002,105.89200000000002,77.45900000000002C103.45000000000002,79.64500000000001,102.29300000000002,80.67300000000002,102.29300000000002,80.67300000000002L99.97900000000001,82.85800000000002L98.43700000000001,81.83000000000001V80.67300000000002L97.02300000000001,82.85800000000002L95.995,82.34400000000002L92.524,79.00100000000002L92.267,75.40200000000002L90.467,71.93100000000001L95.80499999999999,70.30700000000002L97.53699999999999,58.305000000000014L111.933,40.309Z"
    stroke-width="1"
    stroke-linejoin="round"
    style="-webkit-tap-highlight-color: rgba(0, 0, 0, 0); stroke-linejoin: round;"></path>
  <path
    fill="#cccccc"
    stroke="#222222"
    d="M96.044,82.858L93.679,83.629L88.435,87.598L87.252,85.68599999999999L85.324,86.585L86.27199999999999,89.523L89.19,92.86999999999999L90.594,95.198L91.87899999999999,96.74L91.535,98.548L91.506,101.131L92.63,103.465L94.321,105.35300000000001L93.89099999999999,107.93700000000001L94.32,110.29100000000001L95.39999999999999,111.52000000000001L98.05,110.36600000000001L100.878,111.59400000000001L101.649,108.566L102.892,107.949L102.678,105.481L103.50699999999999,104.16499999999999V102.52499999999999L106.59799999999998,102.65299999999999L110.59399999999998,103.74799999999999L112.69099999999997,105.764L119.05899999999997,107.024C119.05899999999997,107.024,116.43299999999996,79.001,149.21299999999997,79.129L144.07099999999997,66.275L130.61899999999997,59.96300000000001L132.82699999999997,63.56300000000001L139.57199999999997,70.77400000000002L138.48699999999997,72.14000000000001L134.68699999999995,71.93100000000001L131.74399999999994,72.528L129.03099999999995,71.28800000000001L128.54399999999995,69.47600000000001L127.20699999999995,71.34200000000001L123.80099999999995,76.88400000000001L119.05999999999995,77.84300000000002L116.81499999999994,81.47000000000001L113.50899999999994,79.49500000000002L111.93499999999995,78.10000000000002L108.97099999999995,76.71900000000002L105.89299999999994,77.45700000000002L103.69699999999995,79.41900000000003L100.96099999999994,81.92900000000003L98.43699999999994,81.82800000000003L98.56499999999994,79.64200000000002L96.044,82.858"
    stroke-width="1"
    stroke-linejoin="round"
    style="-webkit-tap-highlight-color: rgba(0, 0, 0, 0); stroke-linejoin: round;"></path>
  <path
    fill="#cccccc"
    stroke="#222222"
    d="M50.542,64.186L48.077,66.21300000000001L47.532,70.26100000000001L48.175,71.418L48.342,72.70400000000001L47.531,74.11800000000001L49.458999999999996,76.81700000000001L49.035999999999994,79.00300000000001L47.53099999999999,80.67400000000002V86.58700000000002L52.672999999999995,88.25800000000002L52.785999999999994,91.99400000000003L51.129999999999995,94.04300000000003L51.644,95.84200000000004L53.168,97.98300000000005L54.241,100.76600000000005L55.519,102.38900000000005L57.864999999999995,104.24500000000005L61.928,100.08400000000005L62.852999999999994,104.24500000000005L66.16999999999999,107.28300000000004L66.94099999999999,103.04100000000004L69.255,103.29800000000004L72.21199999999999,99.95600000000005L75.005,103.28600000000004C75.554,103.94100000000005,79.15299999999999,103.68400000000004,79.15299999999999,103.68400000000004L80.439,102.01300000000003L85.324,103.32000000000004C85.324,103.32000000000004,86.03099999999999,104.81600000000003,87.252,106.51200000000003L93.92099999999999,107.75900000000003L94.321,105.35500000000003L92.032,102.59100000000004L91.365,99.44100000000003L91.87899999999999,96.74200000000003L89.82199999999999,93.52900000000004L88.81099999999999,92.47900000000004L86.479,90.05800000000004L85.322,86.71600000000004L87.25,85.68800000000003L88.433,87.60000000000004L93.677,83.63100000000004L96.05900000000001,83.03300000000004V81.57500000000005L92.52000000000001,79.00400000000005L92.08000000000001,75.05200000000005L90.95400000000001,71.82600000000005L84.551,72.68800000000005L82.622,72.06200000000004L79.73,68.46200000000005L74.50500000000001,66.63900000000005L70.92500000000001,62.54900000000005L69.63900000000001,65.13300000000005L50.68,64.193"
    stroke-width="1"
    stroke-linejoin="round"
    style="-webkit-tap-highlight-color: rgba(0, 0, 0, 0); stroke-linejoin: round;"></path>
  <path
    fill="#cccccc"
    stroke="#222222"
    d="M66.17,7.53L50.542,53.653L52.345,57.406L53.239,60.385L51.827999999999996,63.128L50.541999999999994,64.186L69.64099999999999,65.132L70.92699999999999,62.548L74.526,66.533L77.482,67.68900000000001L79.732,68.46100000000001L82.624,72.061L84.42399999999999,72.703L90.46499999999999,71.932L95.80599999999998,70.29L97.53599999999999,58.306000000000004L111.933,40.309L90.416,16.257L87.17,13.314L83.93,12.422L72.865,9.374L66.685,7.53"
    stroke-width="1"
    stroke-linejoin="round"
    style="-webkit-tap-highlight-color: rgba(0, 0, 0, 0); stroke-linejoin: round;"></path>
  <path
    fill="#cccccc"
    stroke="#222222"
    d="M21.967,147.009L21.025,149.24699999999999L16.669999999999998,151.36499999999998L17.211,153.03599999999997L17.375,154.66099999999997L17.799,155.93199999999996L19.954,157.69999999999996L21.967,158.05799999999996L26.043,159.63899999999995L29.677999999999997,161.16799999999995L31.737,161.60499999999996L31.737,164.31299999999996L30.589,169.04199999999997L28.503,170.48999999999998L24.673000000000002,171.14L21.613000000000003,171.14L20.790000000000003,173.611L21.378000000000004,175.49499999999998L23.747000000000003,177.00199999999998L27.432000000000002,179.29699999999997L31.060000000000002,181.52299999999997L32.678000000000004,181.52299999999997L33.365,183.80299999999997L34.483000000000004,186.46699999999996L39.624,186.20699999999997L39.624,183.60699999999997L36.916000000000004,181.96999999999997L37.098000000000006,180.03999999999996L39.62400000000001,177.49599999999995L41.153000000000006,174.43599999999995L44.568000000000005,175.84899999999996L46.132000000000005,176.78799999999995L47.040000000000006,174.66999999999996L43.39000000000001,171.25699999999995L44.568000000000005,169.84499999999994L42.44800000000001,168.90299999999993L42.919000000000004,167.72599999999994L45.94500000000001,166.30199999999994L47.361000000000004,163.99799999999993L50.33500000000001,163.65199999999993L50.33500000000001,145.89699999999993L45.626000000000005,143.12399999999994L42.652,142.42699999999994L41.389,143.36099999999993L41.147000000000006,144.32499999999993L40.32900000000001,147.59799999999993L39.22100000000001,146.56199999999993L37.622000000000014,145.12499999999991L35.97400000000001,147.4809999999999L33.26700000000001,147.4809999999999L32.32500000000001,148.4219999999999L28.50500000000001,148.3849999999999L21.96700000000001,147.0089999999999"
    stroke-width="1"
    stroke-linejoin="round"
    style="-webkit-tap-highlight-color: rgba(0, 0, 0, 0); stroke-linejoin: round;"></path>
  <path
    fill="#cccccc"
    stroke="#222222"
    d="M48.821,87.487L48.821,89.80099999999999L44.568,93.49699999999999L43.625,104.86799999999998L31.679000000000002,110.44399999999997L31.149,114.04999999999997L25.733,114.04999999999997L24.557000000000002,120.28999999999996L24.847,126.50699999999996L23.705000000000002,131.34399999999997L22.517000000000003,135.58699999999996L21.967000000000002,142.41899999999995L21.967000000000002,145.83299999999994L22.790000000000003,147.12699999999995L28.676000000000002,148.42199999999994L32.325,148.42199999999994L33.267,147.48099999999994L35.974000000000004,147.48099999999994L37.62200000000001,145.47899999999993L39.50500000000001,147.12699999999992L40.32900000000001,147.59799999999993L41.38900000000001,143.36099999999993L44.09600000000001,141.35899999999992L47.53100000000001,139.0049999999999L45.31300000000002,136.84699999999992L43.860000000000014,133.00199999999992L42.91900000000001,120.05399999999992L46.45100000000001,114.87399999999991L49.51100000000001,115.4619999999999L50.00500000000001,113.6259999999999L51.62900000000001,111.5949999999999L54.53700000000001,108.7779999999999L57.692000000000014,104.42999999999991L54.27800000000001,100.85999999999991L52.44100000000001,96.42499999999991L51.43100000000001,94.81199999999991L51.56800000000001,93.6379999999999L52.78700000000001,92.0309999999999L53.16000000000001,88.1529999999999Z"
    stroke-width="1"
    stroke-linejoin="round"
    style="-webkit-tap-highlight-color: rgba(0, 0, 0, 0); stroke-linejoin: round;"></path>
  <path
    fill="#cccccc"
    stroke="#222222"
    d="M51.159,112.638L49.510999999999996,114.05000000000001L49.510999999999996,115.46200000000002L46.45099999999999,114.87400000000002L42.919,120.05400000000003L43.86,133.00200000000004L45.862,138.29900000000004L47.039,139.59400000000002L44.096000000000004,141.359L42.958000000000006,142.20000000000002L48.21600000000001,144.30200000000002L50.33500000000001,145.71500000000003L50.33500000000001,162.07700000000003L50.71500000000001,163.60800000000003L52.21800000000001,163.60800000000003L52.51300000000001,164.93300000000002L48.39800000000001,168.35700000000003L48.94400000000001,171.15500000000003L51.38000000000001,170.28100000000003L51.98300000000001,168.90300000000005L54.26400000000001,168.16000000000005L54.80900000000001,168.55000000000004L57.280000000000015,168.43200000000004L57.780000000000015,166.51100000000005L54.69000000000001,163.72500000000005L56.60100000000001,161.55200000000005L56.10400000000001,158.05800000000005L60.79400000000001,157.89500000000004L64.46000000000001,156.42600000000004L66.462,154.42400000000004L66.462,150.30400000000003L69.599,148.09500000000003L71.759,141.94700000000003L72.466,132.41200000000003L68.463,128.64600000000004L66.357,125.54300000000005L65.521,118.64100000000005L63.519,115.58000000000004L56.06,114.83400000000005L52.949000000000005,114.94300000000004Z"
    stroke-width="1"
    stroke-linejoin="round"
    style="-webkit-tap-highlight-color: rgba(0, 0, 0, 0); stroke-linejoin: round;"></path>
  <path
    fill="#cccccc"
    stroke="#222222"
    d="M117.063,172.357L113.893,177.79L109.266,177.79L108.20500000000001,179.62199999999999L85.35600000000001,179.62199999999999L84.48800000000001,181.54999999999998L83.81300000000002,184.057L80.14900000000002,186.207L76.19700000000002,187.527L74.26900000000002,188.39499999999998L71.13900000000002,189.42399999999998L66.74900000000002,188.39499999999998L68.00900000000003,185.939L68.93600000000004,184.13299999999998L69.25500000000004,182.707L62.60800000000004,181.588L60.00000000000004,177.308L58.93900000000004,175.57299999999998L53.54100000000004,180.152L52.26600000000004,182.253L51.49600000000004,183.482L47.177000000000035,181.55L43.51400000000004,179.14000000000001L39.87100000000004,176.78500000000003L41.12100000000004,174.44800000000004L43.765000000000036,175.51700000000002L46.021000000000036,176.78500000000003L47.040000000000035,174.67000000000002L43.390000000000036,171.257L44.45000000000004,170.315L42.448000000000036,168.903L43.540000000000035,167.434L45.945000000000036,166.302L47.65500000000004,163.964L51.74800000000003,163.488L52.513000000000034,164.933L48.39800000000003,168.357L48.94400000000003,171.155L51.38000000000003,170.281L51.74800000000003,168.43800000000002L53.89200000000003,168.00500000000002L55.36200000000003,168.52300000000002L57.40400000000003,167.95800000000003L57.78000000000003,166.51100000000002L54.690000000000026,163.72500000000002L56.64300000000003,161.84500000000003L56.10400000000003,158.05800000000002L60.395000000000024,157.90900000000002L64.69700000000003,156.18900000000002L66.46200000000003,154.42400000000004L72.46600000000004,149.63800000000003L72.80700000000003,153.62300000000005L72.46600000000004,157.54400000000004L78.91500000000003,156.10900000000004L80.82700000000004,153.10900000000004L83.13800000000003,150.89200000000002L87.18800000000003,151.08400000000003L87.86200000000004,149.54200000000003L89.77300000000004,147.77900000000002L88.70000000000005,146.16400000000002L86.33500000000005,144.996L86.91100000000004,142.73700000000002L93.16700000000004,141.28300000000002L97.32700000000004,141.89600000000002L100.74800000000005,143.382L102.27200000000005,144.827L103.04200000000004,145.708L101.53300000000004,146.776L96.06200000000004,147.51700000000002L96.06200000000004,152.14500000000004L103.36800000000004,152.33500000000004L103.16200000000003,154.55900000000003L103.27200000000003,158.50800000000004L105.77100000000003,161.80400000000003L112.05300000000003,168.33900000000003Z"
    stroke-width="1"
    stroke-linejoin="round"
    style="-webkit-tap-highlight-color: rgba(0, 0, 0, 0); stroke-linejoin: round;"></path>
  <path
    fill="#cccccc"
    stroke="#222222"
    d="M66.462,153.977L66.462,150.304L69.405,148.656L71.796,141.446L72.46600000000001,131.802L68.87,129.778L66.227,125.35L65.521,118.64099999999999L63.519,115.57999999999998L53.855,114.86999999999999L52.336,114.99199999999999L51.159,112.63799999999999L61.928,100.083L62.852999999999994,104.245L66.556,107.28200000000001L66.941,103.04L69.255,103.29700000000001L72.21199999999999,99.95500000000001L75.55399999999999,103.94000000000001L79.15299999999999,103.683L80.439,102.012L84.86599999999999,103.196L87.25199999999998,106.511L93.77499999999998,107.50999999999999L93.76499999999997,108.69999999999999L95.09299999999998,111.59499999999998L97.51199999999997,111.00999999999999L98.04999999999997,110.36699999999999L99.33199999999997,111.282L100.87799999999997,111.595L101.64899999999997,108.567L102.89199999999997,107.951L102.89199999999997,105.142L103.60599999999997,104.62899999999999L103.50599999999997,102.526L106.59799999999997,102.654L110.38999999999997,103.554L113.30499999999998,105.887L119.05799999999998,107.025L120.64999999999998,111.01L122.26899999999998,113.647L123.16999999999997,114.839L126.22799999999998,117.094L129.415,119.75099999999999L131.15,120.39399999999999L134.814,120.008L143.81199999999998,127.464L130.701,150.088L117.06299999999999,172.357L114.76099999999998,171.155L104.73399999999998,160.726L103.28799999999998,159.086L103.09499999999998,152.145L96.06199999999998,152.145L96.06199999999998,147.517L100.87799999999999,147.132L103.19099999999999,145.87800000000001L101.16699999999999,143.56400000000002L96.06199999999998,141.347L91.71899999999998,141.25L86.41599999999998,142.89L86.31999999999998,145.396L89.30899999999998,146.35999999999999L89.98299999999999,148.422L87.862,149.542L87.18799999999999,151.084L82.65599999999999,151.47L81.017,152.72299999999998L79.732,155.327L78.221,156.772L75.61800000000001,157.351L72.46600000000001,158.058L73.01500000000001,154.362L71.79600000000002,150.024Z"
    stroke-width="1"
    stroke-linejoin="round"
    style="-webkit-tap-highlight-color: rgba(0, 0, 0, 0); stroke-linejoin: round;"></path>
  <path
    fill="#cccccc"
    stroke="#222222"
    d="M238.205,107.371L246.168,106.54299999999999L262.751,117.919L283.37899999999996,109.738L284.73199999999997,131.224L281.26099999999997,131.60899999999998L280.854,137.49099999999999L280.859,138.83999999999997L268.82399999999996,184.29299999999998L271.34299999999996,210.09099999999998H267.292V219.05999999999997L259.376,224.51699999999997L254.27599999999998,218.66999999999996L246.90699999999998,223.48799999999997L241.53199999999998,216.73799999999997C241.53199999999998,216.73799999999997,243.356,209.42199999999997,237.773,212.30399999999997S228.653,216.54599999999996,228.653,216.54599999999996L219.269,207.80499999999995L222.131,205.20699999999994L229.985,199.63799999999995L235.98100000000002,194.43499999999995L228.782,187.23699999999994L227.13600000000002,184.66699999999994L225.58900000000003,183.49299999999994L222.82700000000003,181.86199999999994L223.62300000000002,179.71699999999993L225.95600000000002,176.05299999999994L234.99,168.46299999999994L240.48000000000002,163.32699999999994L244.294,163.51999999999995L247.466,163.48999999999995L249.174,159.27099999999996L226.405,109.91599999999997L238.205,107.371Z"
    stroke-width="1"
    stroke-linejoin="round"
    style="-webkit-tap-highlight-color: rgba(0, 0, 0, 0); stroke-linejoin: round;"></path>
  <path
    fill="#cccccc"
    stroke="#222222"
    d="M162.516,158.884L163.22299999999998,148.022L172.50699999999998,142.237L173.95699999999997,140.245L177.68399999999997,140.272L180.38399999999996,137.738L197.46499999999995,131.22899999999998L209.62799999999996,126.29699999999998L225.95599999999996,109.90799999999999L232.57399999999996,123.79099999999998L240.47899999999996,138.63799999999998L245.87799999999996,150.97799999999998L249.54199999999994,160.61899999999997L248.57799999999995,163.12599999999998L246.26399999999995,164.66799999999998L242.02199999999996,164.66799999999998L240.47899999999996,163.70499999999998L234.50199999999995,169.296L225.95599999999996,176.43099999999998L222.71899999999997,182.439L216.76299999999998,177.587L213.87099999999998,177.009L206.158,165.90599999999998L201.75799999999998,183.17799999999997L191.41899999999998,193.12799999999996L179.69099999999997,175.84399999999997L178.73099999999997,168.56399999999996L176.46299999999997,165.90599999999998L177.68399999999997,162.35399999999998L173.33699999999996,160.677L165.47299999999996,158.884L163.15899999999996,158.884"
    stroke-width="1"
    stroke-linejoin="round"
    style="-webkit-tap-highlight-color: rgba(0, 0, 0, 0); stroke-linejoin: round;"></path>
  <path
    fill="#cccccc"
    stroke="#222222"
    d="M191.419,192.752L201.497,183.054L207.443,194.437L210.70000000000002,192.752L218.74,187.215L221.54600000000002,184.976L223.056,182.308L226.758,184.077L228.782,187.238L235.98000000000002,194.437L230.55700000000002,199.282L221.455,205.74900000000002L219.27,207.806L228.726,216.803L223.629,222.24699999999999L222.28799999999998,225.25L222.28799999999998,225.25L219.813,223.7L217.24499999999998,225.46499999999997L211.87699999999998,218.60599999999997L211.36599999999999,213.32099999999997L209.66199999999998,210.20899999999997L206.38799999999998,207.384L203.16099999999997,203.964L200.66499999999996,201.814L197.63799999999998,200.45999999999998L193.474,196.783Z"
    stroke-width="1"
    stroke-linejoin="round"
    style="-webkit-tap-highlight-color: rgba(0, 0, 0, 0); stroke-linejoin: round;"></path>
  <path
    fill="#cccccc"
    stroke="#222222"
    d="M201.497,183.378L206.02900000000002,164.92499999999998L213.12300000000002,175.55599999999998L214.55,176.76899999999998L216.763,177.21099999999998L223.056,182.308L221.198,185.59099999999998L216.95600000000002,188.39499999999998L209.757,193.409L207.443,194.43699999999998Z"
    stroke-width="1"
    stroke-linejoin="round"
    style="-webkit-tap-highlight-color: rgba(0, 0, 0, 0); stroke-linejoin: round;"></path>
  <path
    fill="#cccccc"
    stroke="#222222"
    d="M143.586,204.594L146.923,201.24699999999999L150.079,202.771L152.241,204.724L154.574,206.161L156.53500000000003,205.208L156.842,203.191L155.717,201.248L155.75900000000001,200.21699999999998L156.43300000000002,198.999L158.252,198.591L160.345,199.78L163.376,201.785L165.841,205.209L168.704,205.85L173.32500000000002,209.177L181.38500000000002,213.929L182.50900000000001,216.588L185.88400000000001,217.713C185.88400000000001,217.713,187.52,218.838,186.497,219.963C185.47500000000002,221.088,183.531,223.44,183.531,223.44S183.429,224.062,183.327,224.518C183.224,224.974,185.27,227.019,185.27,227.019S185.065,227.83700000000002,184.35000000000002,228.451C183.63400000000001,229.065,182.407,229.781,182.407,229.781L183.226,231.951L183.64,233.45499999999998L179.486,235.575L175.815,236.97899999999998L173.661,237.59599999999998L170.239,237.14399999999998C170.239,237.14399999999998,169.421,235.099,170.239,234.68999999999997C171.05700000000002,234.28099999999998,170.538,231.95799999999997,170.538,231.95799999999997L168.91000000000003,228.45199999999997L166.25200000000004,225.86599999999996L162.51800000000003,225.07799999999995L161.65000000000003,222.82799999999995L159.91100000000003,221.29399999999995L159.09300000000002,218.12399999999997L152.34400000000002,219.14699999999996L151.11700000000002,219.24899999999997L145.49300000000002,219.55599999999995L145.288,215.05599999999995L146.413,212.49899999999997L146.924,208.51099999999997L145.799,206.36399999999998L143.586,204.594Z"
    stroke-width="1"
    stroke-linejoin="round"
    style="-webkit-tap-highlight-color: rgba(0, 0, 0, 0); stroke-linejoin: round;"></path>
  <path
    fill="#cccccc"
    stroke="#222222"
    d="M120.458,166.533L129.994,149.81199999999998L135.33,154.49699999999999L146.143,157.41899999999998L162.516,158.50699999999998L167.559,159.343L173.337,160.29999999999998L177.684,161.97799999999998L176.885,165.52899999999997L179.06,168.57199999999997L179.712,175.88299999999998L190.56,191.48499999999999L191.419,192.75099999999998L193.685,197.23199999999997L196.047,199.37299999999996L193.041,201.65599999999995L189.871,204.62099999999995L187.82600000000002,205.20699999999997L187.31400000000002,210.44999999999996L185.57600000000002,211.36999999999995L182.01700000000002,213.48699999999994L181.38400000000001,213.92599999999993L173.817,209.52899999999994L168.704,205.84699999999995L165.841,205.20599999999996L163.285,201.65499999999997L160.422,199.81499999999997C160.422,199.81499999999997,157.35399999999998,198.28099999999998,156.434,198.99699999999996C155.514,199.71199999999996,155.718,201.24599999999995,155.718,201.24599999999995L156.843,203.18899999999996L156.946,205.20599999999996L154.901,206.35799999999995L152.24200000000002,204.72199999999995L149.07200000000003,201.85899999999995L146.92500000000004,201.24499999999995L144.88000000000005,203.28999999999994L143.85800000000006,205.20499999999993L140.27900000000005,197.05299999999994L138.13200000000006,194.43399999999994L138.33700000000007,192.24599999999995L141.81400000000008,188.39199999999994L142.6380000000001,187.01899999999995L140.79100000000008,184.37299999999996L131.69000000000008,177.21499999999997L129.44000000000008,176.60099999999997L126.37200000000009,173.43099999999998L120.46000000000008,165.928"
    stroke-width="1"
    stroke-linejoin="round"
    style="-webkit-tap-highlight-color: rgba(0, 0, 0, 0); stroke-linejoin: round;"></path>
  <path
    fill="#cccccc"
    stroke="#222222"
    d="M39.624,185.696L39.624,183.607L36.916000000000004,181.97L37.034000000000006,180.085L39.17400000000001,177.949L40.148,176.78500000000003L47.028000000000006,181.45200000000003L45.73100000000001,187.49600000000004L43.80300000000001,190.70900000000003L40.66100000000001,191.61400000000003L40.14800000000001,188.39500000000004Z"
    stroke-width="1"
    stroke-linejoin="round"
    style="-webkit-tap-highlight-color: rgba(0, 0, 0, 0); stroke-linejoin: round;"></path>
  <path
    fill="#cccccc"
    stroke="#222222"
    d="M43.695,190.848L46.13,191.83200000000002L48.726,192.12300000000002L51.528,191.22400000000002L54.253,191.22400000000002L56.695,192.366L56.695,188.395L56.695,185.567L58.228,184.59900000000002L61.708,181.87L62.608,181.454L59.522999999999996,176.312L58.718999999999994,175.20000000000002L56.18899999999999,177.71900000000002L54.45799999999999,179.187L51.05699999999999,183.51000000000002L48.472999999999985,182.47600000000003L46.957999999999984,181.55000000000004L45.932999999999986,184.21700000000004L45.578999999999986,186.97400000000005L44.01099999999999,190.66000000000005"
    stroke-width="1"
    stroke-linejoin="round"
    style="-webkit-tap-highlight-color: rgba(0, 0, 0, 0); stroke-linejoin: round;"></path>
  <path
    fill="#cccccc"
    stroke="#222222"
    d="M56.915,192.618V185.567L61.929,181.87L69.256,182.707L66.749,188.39499999999998L71.139,189.42399999999998L75.723,187.74099999999999L81.989,185.19299999999998L84.022,183.284L85.35600000000001,179.62199999999999H108.20500000000001L110.51800000000001,183.511L107.04700000000001,188.39499999999998H105.11900000000001L102.93400000000001,192.123L99.07800000000002,198.59L94.96500000000002,203.949L94.32200000000002,207.29100000000003H90.98L89.438,208.062L87.124,207.419L86.353,204.205L84.553,201.50500000000002L84.199,199.13300000000004C84.199,199.13300000000004,84.038,196.74900000000005,83.138,197.52000000000004C82.239,198.29100000000003,78.31800000000001,199.25400000000005,78.31800000000001,199.25400000000005L76.90700000000001,199.83600000000004L75.01800000000001,201.14100000000005L73.49700000000001,202.77000000000004L70.79800000000002,199.57700000000003L69.27700000000002,197.473L67.45600000000002,195.078L65.04900000000002,193.907L62.82800000000002,193.37900000000002L60.57800000000002,192.443L56.915,192.618Z"
    stroke-width="1"
    stroke-linejoin="round"
    style="-webkit-tap-highlight-color: rgba(0, 0, 0, 0); stroke-linejoin: round;"></path>
  <path
    fill="#cccccc"
    stroke="#222222"
    d="M88.151,225.417L91.485,216.852L93.743,207.292L100.50399999999999,210.751L105.89099999999999,212.17600000000002L110.615,215.775L114.295,219.022L115.018,219.953L115.344,221.773L115.344,223.35999999999999L117.008,223.52999999999997L119.20899999999999,224.003L118.81199999999998,227.13099999999997L121.44499999999998,230.50899999999996L121.05999999999997,236.34299999999996L118.42999999999998,237.73099999999997L115.78899999999997,238.55299999999997L114.38299999999997,238.28099999999998L113.26999999999997,240.99699999999999L111.13099999999997,242.13799999999998L109.87599999999998,239.17099999999996L103.44899999999998,233.77199999999996L97.52299999999998,231.32999999999996L92.90799999999999,229.53099999999995L87.66899999999998,229.17699999999994Z"
    stroke-width="1"
    stroke-linejoin="round"
    style="-webkit-tap-highlight-color: rgba(0, 0, 0, 0); stroke-linejoin: round;"></path>
  <path
    fill="#cccccc"
    stroke="#222222"
    d="M93.454,206.906L105.31299999999999,188.395L107.04799999999999,188.395L110.51899999999999,183.51100000000002L108.20499999999998,179.622L109.26599999999999,177.79000000000002L113.89299999999999,177.79000000000002L120.66799999999999,166.181L129.438,176.604L131.68699999999998,177.21800000000002L140.78799999999998,184.37500000000003L142.719,186.89300000000003L138.195,193.73300000000003L139.861,196.54800000000003L143.298,203.09800000000004L144.169,205.68300000000005L142.27,208.83400000000006L131.472,209.60500000000005L126.61800000000001,206.88700000000006L122.474,204.20700000000005L121.44500000000001,206.13500000000005L119.67800000000001,207.77300000000005L118.61700000000002,209.60500000000005L118.61700000000002,212.30500000000004L115.09500000000001,216.52100000000004L113.84200000000001,218.62300000000005L110.51900000000002,216.29000000000005L107.04800000000002,212.81900000000005L104.86300000000001,211.66200000000003L101.90600000000002,211.27700000000004L98.82100000000003,210.12000000000003L95.73600000000003,208.06300000000005Z"
    stroke-width="1"
    stroke-linejoin="round"
    style="-webkit-tap-highlight-color: rgba(0, 0, 0, 0); stroke-linejoin: round;"></path>
  <path
    fill="#cccccc"
    stroke="#222222"
    d="M51.613,206.823L53.663,205.208L54.824999999999996,203.96099999999998L56.91499999999999,204.29L57.80599999999999,204.494L58.45799999999999,203.469L60.50699999999999,202.772L62.45399999999999,199.988L62.827999999999996,197.88L62.827999999999996,197.322L68.208,195.816L70.509,199.386L73.497,202.772L75.817,200.28799999999998L80.25999999999999,198.45499999999998L83.71699999999998,197.35199999999998L85.03499999999998,202.22999999999996L86.90899999999998,206.10199999999998L89.12299999999998,207.42899999999997L92.76899999999998,207.05899999999997L93.45399999999998,206.90599999999998L93.37799999999999,210.17499999999998L88.15099999999998,225.065L87.66899999999998,229.177L82.14599999999999,228.182L78.31799999999998,226.94299999999998L76.34299999999999,228.182L73.76599999999999,230.482L72.53399999999999,231.354L63.785999999999994,223.82600000000002L60.937,219.139L58.736999999999995,215.114L55.437,211.244L51.806999999999995,208.148Z"
    stroke-width="1"
    stroke-linejoin="round"
    style="-webkit-tap-highlight-color: rgba(0, 0, 0, 0); stroke-linejoin: round;"></path>
  <path
    fill="#cccccc"
    stroke="#222222"
    d="M51.807,208.148L48.616,205.583L46.35,202.168L44.774,201.061L42.239000000000004,199.28L40.044000000000004,196.299L36.93000000000001,193.39100000000002L34.81000000000001,188.769V186.58100000000002L39.519000000000005,186.07000000000002L40.456,190.34900000000002L40.556000000000004,191.85500000000002L43.699000000000005,191.08400000000003L47.264,192.16400000000004L51.643,190.79500000000004L55.215,191.68800000000005L56.81,192.81900000000005H60.763000000000005L63.733000000000004,193.59600000000003L66.15,194.42600000000004L68.206,195.81600000000003L65.805,196.67200000000003L62.723000000000006,197.69600000000003V199.28000000000003L62.07900000000001,201.14300000000003L60.40200000000001,203.14600000000002L58.35300000000001,203.84400000000002L57.70100000000001,204.86900000000003L55.37200000000001,204.33600000000004C55.37200000000001,204.33600000000004,53.605000000000004,204.68300000000005,53.55700000000001,205.14800000000005C53.50900000000001,205.61500000000007,51.50800000000001,207.19800000000006,51.50800000000001,207.19800000000006L51.807,208.148Z"
    stroke-width="1"
    stroke-linejoin="round"
    style="-webkit-tap-highlight-color: rgba(0, 0, 0, 0); stroke-linejoin: round;"></path>
  <path
    fill="#cccccc"
    stroke="#222222"
    d="M129.512,226.625L134.083,225.065L136.678,224.694L140.54,224.50799999999998L143.58599999999998,225.06499999999997L145.79999999999998,226.62499999999997L148.38899999999998,227.55899999999997L150.75099999999998,227.55899999999997L152.932,225.43599999999998L155.09799999999998,223.93499999999997L156.416,222.87699999999998L158.684,219.60299999999998L159.221,218.623L159.909,221.292L162.516,223.091L163.06099999999998,225.19L166.24999999999997,225.863L168.90799999999996,228.45L169.70499999999996,229.664L170.71399999999994,232.445L170.23699999999994,234.688L169.95199999999994,236.173L170.71399999999994,237.112L174.02499999999995,237.653L172.06399999999994,240.189L170.64299999999994,240.928L169.85199999999995,241.339L169.35499999999993,243.228L164.70099999999994,246.841L164.05499999999995,248.68200000000002L159.49499999999995,249.288L157.98899999999995,245.91000000000003L156.03799999999995,245.70100000000002L153.45799999999994,245.61200000000002L150.82699999999994,242.13800000000003L151.07299999999995,241.14100000000002L136.96399999999994,240.84300000000002L133.38699999999994,234.782L132.59199999999996,232.596L130.49699999999996,232.211L129.61099999999996,231.602L129.41199999999995,226.93200000000002"
    stroke-width="1"
    stroke-linejoin="round"
    style="-webkit-tap-highlight-color: rgba(0, 0, 0, 0); stroke-linejoin: round;"></path>
  <path
    fill="#cccccc"
    stroke="#222222"
    d="M121.445,230.509L118.81099999999999,227.13099999999997L119.20899999999999,224.003L115.01799999999999,223.10299999999998V219.95299999999997L113.86099999999999,218.98999999999998L118.61699999999999,212.30499999999998L118.81099999999999,208.581L122.556,203.96099999999998L126.61699999999999,206.88699999999997L130.06099999999998,208.93499999999997L132.39199999999997,209.53999999999996L134.47899999999996,209.60499999999996L138.49299999999997,209.49999999999997L140.53399999999996,208.95799999999997L142.26999999999995,208.83299999999997L144.33799999999997,205.19399999999996L146.68899999999996,208.06199999999995L146.45499999999996,212.15899999999996L145.78199999999995,213.92699999999996L145.16799999999995,218.62099999999995L155.74999999999994,218.62699999999995L159.49599999999995,218.11999999999995L157.98999999999995,220.86999999999995L156.04199999999994,223.35399999999996L154.15399999999994,224.51599999999996L152.36599999999993,225.86199999999997L151.76999999999992,226.62299999999996L150.67699999999994,227.62599999999995L147.39799999999994,227.52699999999996L144.45699999999994,225.86099999999996L141.23799999999994,224.51499999999996C141.23799999999994,224.51499999999996,136.36999999999995,224.38999999999996,135.27699999999993,225.06299999999996C134.18299999999994,225.73699999999997,131.30199999999994,226.62199999999996,131.30199999999994,226.62199999999996H129.51399999999992H126.13199999999992L125.17899999999992,227.49699999999996L125.49499999999992,228.91399999999996L125.53899999999992,230.00899999999996L123.53999999999992,229.73499999999996L121.97799999999992,230.24299999999997"
    stroke-width="1"
    stroke-linejoin="round"
    style="-webkit-tap-highlight-color: rgba(0, 0, 0, 0); stroke-linejoin: round;"></path>
  <path
    fill="#cccccc"
    stroke="#222222"
    d="M157.989,266.75L162.201,262.209L165.209,256.26800000000003L165.858,254.34000000000003L157.374,254.34000000000003L156.21699999999998,253.08600000000004L156.21699999999998,249.90500000000003L157.237,247.46300000000002L157.989,246.36700000000002L159.495,249.288L163.96800000000002,248.928L164.70100000000002,246.841L169.472,242.78300000000002L169.852,241.33900000000003L172.475,239.65700000000004L174.025,237.65300000000005L177.87800000000001,236.19600000000005L183.64000000000001,233.45300000000006L184.091,245.63800000000006L184.145,247.07800000000006L191.889,251.78700000000006L189.443,256.4460000000001L185.98100000000002,264.8790000000001L185.13000000000002,269.0760000000001L185.54900000000004,276.4030000000001L185.84600000000003,278.50900000000007L186.87500000000003,280.9800000000001L185.57500000000002,282.7700000000001L183.40500000000003,281.2380000000001L182.24600000000004,284.29700000000014L175.78400000000005,280.7810000000001L171.95100000000005,278.5100000000001L168.77600000000004,275.6210000000001L165.85800000000003,273.1670000000001L159.96500000000003,268.7200000000001L157.68500000000003,267.0580000000001Z"
    stroke-width="1"
    stroke-linejoin="round"
    style="-webkit-tap-highlight-color: rgba(0, 0, 0, 0); stroke-linejoin: round;"></path>
  <path
    fill="#cccccc"
    stroke="#222222"
    d="M110.765,245.363L111.29,241.742L113.435,240.595L114.383,238.281L119.003,237.65300000000002L121.06,236.34300000000002L121.44500000000001,230.50900000000001L123.45800000000001,229.33200000000002L125.84800000000001,230.50900000000001L125.177,227.50000000000003L125.84800000000001,226.62500000000003L129.512,226.62500000000003L129.573,230.50900000000001L130.497,232.211L132.691,232.894L134.718,235.994L136.678,240.359L138.47899999999998,240.887L147.92299999999997,241.074L150.77399999999997,241.24L151.07299999999998,242.46200000000002L153.26899999999998,245.36300000000003L156.93499999999997,245.81100000000004L158.25199999999998,246.50600000000003L156.795,247.88000000000002L156.21699999999998,249.90500000000003L156.21699999999998,253.08600000000004L156.892,254.34000000000003L165.858,254.34000000000003L165.209,256.26800000000003L164.508,258.29200000000003L163.544,260.317L161.423,263.306L158.724,266.005L157.685,267.058L142.256,259.30899999999997L136.678,257.51599999999996L125.646,257.316L123.364,255.20999999999998L121.811,253.272L120.45800000000001,251.495L115.27300000000001,248Z"
    stroke-width="1"
    stroke-linejoin="round"
    style="-webkit-tap-highlight-color: rgba(0, 0, 0, 0); stroke-linejoin: round;"></path>
  <path
    fill="#cccccc"
    stroke="#222222"
    d="M217.245,225.465L219.81300000000002,223.70000000000002L222.288,225.25000000000003L223.056,222.89400000000003L228.065,217.23500000000004L231.867,214.74800000000005L236.557,212.92500000000004L240.518,211.50800000000004L241.881,213.46500000000003L241.532,216.73900000000003L246.907,223.48800000000003L254.10600000000002,218.47500000000002L259.704,224.29200000000003L267.29200000000003,219.06000000000003L270.90900000000005,222.82200000000003L273.773,224.06700000000004L275.178,226.62500000000003L278.246,231.03500000000003L281.75899999999996,234.68400000000003L284.73199999999997,235.82900000000004L285.80999999999995,239.16800000000003L289.45599999999996,243.15600000000003L285.66599999999994,244.04600000000002L282.77199999999993,242.38500000000002L276.6019999999999,242.38500000000002L270.3299999999999,244.04600000000002L264.2609999999999,242.12800000000001L251.99999999999991,240.971L248.91299999999993,244.046L243.56399999999994,249.28799999999998L239.19399999999993,245.213L235.97999999999993,248.863L234.66199999999992,250.493L231.86699999999993,253.697L231.86699999999993,250.483L227.88199999999992,250.329L226.9819999999999,247.78400000000002L224.41199999999992,246.841L225.1829999999999,244.442L223.6239999999999,241.02800000000002L223.6239999999999,240.20000000000002L223.6239999999999,237.65300000000002L221.1689999999999,233.79200000000003L217.9839999999999,230.50900000000004L217.2449999999999,226.52700000000004Z"
    stroke-width="1"
    stroke-linejoin="round"
    style="-webkit-tap-highlight-color: rgba(0, 0, 0, 0); stroke-linejoin: round;"></path>
  <path
    fill="#cccccc"
    stroke="#222222"
    d="M184.145,247.078L183.62300000000002,233.001L182.406,229.779L184.678,227.341L184.891,226.627L183.421,224.055L186.833,218.122L182.632,216.62900000000002L181.38400000000001,213.92800000000003L186.83300000000003,210.15000000000003L187.64700000000002,205.20800000000003L190.49,203.961L195.52,199.37400000000002L200.66500000000002,201.81400000000002L209.966,210.473L211.366,213.32100000000003L211.877,218.60600000000002L216.924,225.056L217.984,230.50900000000001L221.32600000000002,233.955L223.62400000000002,237.65300000000002L223.62400000000002,239.31300000000002L223.62400000000002,240.20000000000002L224.41200000000003,241.99900000000002L225.18300000000002,244.82800000000003L224.41200000000003,246.84100000000004L224.95100000000002,247.04000000000005L226.98200000000003,247.78400000000005L227.93000000000004,250.53100000000006L231.86700000000005,250.28600000000006L231.86700000000005,254.15400000000005L228.39600000000004,257.6820000000001L224.14300000000003,262.2950000000001L221.19800000000004,262.6960000000001L218.58100000000005,261.6670000000001L213.93500000000006,259.0830000000001L196.90200000000004,252.54000000000008L194.24300000000005,252.14100000000008L192.08100000000005,251.81500000000008Z"
    stroke-width="1"
    stroke-linejoin="round"
    style="-webkit-tap-highlight-color: rgba(0, 0, 0, 0); stroke-linejoin: round;"></path>
  <path
    fill="#cccccc"
    stroke="#222222"
    d="M213.922,296.938L217.992,293.977L217.24499999999998,291.84999999999997L217.51999999999998,289.46099999999996L220.082,287.05299999999994L223.128,284.5589999999999L225.308,282.5349999999999L228.832,279.4999999999999L232.512,277.6999999999999L236.674,276.4979999999999L239.449,277.88599999999985L243.42600000000002,280.9379999999999L243.42600000000002,283.2499999999999L241.94600000000003,283.5269999999999L240.28100000000003,284.55899999999986L240.37400000000002,286.71699999999987L239.264,288.1519999999999L240.281,290.0939999999999L242.131,290.3729999999999L243.426,291.5739999999999L245.27599999999998,290.0939999999999L246.016,289.63099999999986L246.755,289.35499999999985L247.403,292.31399999999985L248.143,294.81099999999986L247.403,296.9379999999999L244.29299999999998,298.88099999999986L242.96299999999997,297.8629999999999L241.94599999999997,296.9379999999999L241.48399999999998,296.9379999999999L241.11399999999998,298.88099999999986L241.85399999999998,301.00799999999987L241.207,302.21099999999984L239.171,304.1519999999998L237.507,307.2049999999998L237.969,313.2169999999998L236.674,313.2169999999998L235.195,311.9219999999998L234.362,309.6089999999998L232.975,311.45899999999983L232.79,314.32599999999985L232.605,315.06599999999986L231.03199999999998,315.06599999999986L229.45999999999998,315.06599999999986L227.98099999999997,310.1639999999999L224.65099999999995,305.72499999999985L218.91699999999994,300.54499999999985Z"
    stroke-width="1"
    stroke-linejoin="round"
    style="-webkit-tap-highlight-color: rgba(0, 0, 0, 0); stroke-linejoin: round;"></path>
  <path
    fill="#cccccc"
    stroke="#222222"
    d="M182.246,284.297L183.405,281.238L185.575,282.77L186.875,280.97999999999996L185.683,277.347L185.08599999999998,268.21299999999997L185.981,264.87899999999996L186.875,260.59L191.442,252.63699999999997L192.281,251.80399999999997L195.662,252.35399999999998L199.91400000000002,253.69699999999997L206.90500000000003,256.38199999999995L214.39600000000002,259.27699999999993L217.62800000000001,261.05099999999993L220.58200000000002,262.6959999999999L224.55800000000002,264.6599999999999L227.33300000000003,267.6189999999999L232.604,271.68799999999993L235.405,274.8329999999999L236.674,276.49799999999993L232.512,277.69999999999993L228.166,279.82699999999994L223.44899999999998,284.29699999999997L218.177,288.61299999999994L217.245,289.81399999999996L217.245,291.84999999999997L217.99200000000002,293.977L214.94000000000003,296.197L213.92200000000003,296.938L207.35500000000002,293.70099999999996L203.19400000000002,291.203L201.15900000000002,290.73999999999995L196.073,290.3709999999999L193.76000000000002,288.61299999999994L189.043,286.11699999999996L186.454,285.191Z"
    stroke-width="1"
    stroke-linejoin="round"
    style="-webkit-tap-highlight-color: rgba(0, 0, 0, 0); stroke-linejoin: round;"></path>
  <path
    fill="#cccccc"
    stroke="#222222"
    d="M270.752,280.563L273.07,279.505L275.27299999999997,275.26L275.693,271.852L279.02,273.60799999999995L280.779,274.3709999999999L282.303,275.75299999999993L283.111,277.6579999999999L284.07,279.0039999999999L287.37,281.2009999999999L288.555,281.5529999999999L289.668,280.6239999999999L292.059,276.49799999999993L292.059,274.3709999999999L296.36400000000003,273.2639999999999L297.36100000000005,268.2229999999999L297.36100000000005,265.7159999999999L298.74100000000004,262.6959999999999L305.708,271.3599999999999L311.148,278.2499999999999L310.52200000000005,279.2659999999999L307.05300000000005,279.62299999999993L302.47100000000006,282.78099999999995L302.8570000000001,285.09399999999994L301.5530000000001,286.74999999999994L298.7410000000001,284.79499999999996L297.5730000000001,286.74999999999994L290.9990000000001,287.89099999999996L289.9380000000001,289.145L291.2880000000001,291.65L292.5410000000001,291.65L292.92700000000013,295.78099999999995L289.45600000000013,295.78099999999995L287.7210000000001,296.47099999999995L285.4070000000001,296.47099999999995L285.2140000000001,293.578L276.1510000000001,293.289L276.3440000000001,288.854L274.9940000000001,285.383L272.9700000000001,282.58799999999997Z"
    stroke-width="1"
    stroke-linejoin="round"
    style="-webkit-tap-highlight-color: rgba(0, 0, 0, 0); stroke-linejoin: round;"></path>
  <path
    fill="#cccccc"
    stroke="#222222"
    d="M221.68,262.63L224.722,261.667L229.489,256.65299999999996L233.18,252.77399999999997L235.405,249.28799999999998L239.194,245.213L243.486,248.626L246.20399999999998,246.868L248.14299999999997,249.13299999999998L248.92399999999998,250.84199999999998L250.69899999999998,252.89399999999998L251.46999999999997,251.80399999999997L252.81999999999996,251.80399999999997L254.07299999999995,252.21899999999997L255.03799999999995,253.69699999999997L255.03799999999995,255.68899999999996L254.31399999999996,256.41299999999995L256.29099999999994,262.69599999999997L257.73699999999997,266.873L259.66499999999996,269.042L261.98099999999994,270.69599999999997L263.1359999999999,268.51199999999994L267.7199999999999,267.65099999999995L270.2699999999999,266.77699999999993L272.4339999999999,269.0419999999999L275.2729999999999,271.5539999999999L275.2729999999999,275.83899999999994L272.4339999999999,280.56299999999993L270.7519999999999,280.56299999999993L266.9909999999999,281.23999999999995L261.59299999999985,285.47999999999996L256.77599999999984,291.50199999999995L250.41599999999983,287.05299999999994L239.68599999999984,278.0679999999999L236.67399999999984,276.49799999999993L230.25999999999985,269.8619999999999L224.76499999999984,264.8479999999999L221.26999999999984,263.0359999999999"
    stroke-width="1"
    stroke-linejoin="round"
    style="-webkit-tap-highlight-color: rgba(0, 0, 0, 0); stroke-linejoin: round;"></path>
  <path
    fill="#cccccc"
    stroke="#222222"
    d="M246.126,246.777L252,240.97099999999998L264.261,242.128L270.79,243.92399999999998L276.60200000000003,242.385L282.129,242.51399999999998L285.16,243.962L289.833,243.22899999999998L290.271,246.777L291.017,247.559L292.464,250.309L293.766,251.60999999999999L296.012,250.86899999999997L296.266,253.69699999999997L297.124,256.18699999999995L296.33500000000004,259.27699999999993L298.74100000000004,262.6959999999999L297.36100000000005,266.2939999999999L297.36100000000005,268.2229999999999L296.68700000000007,271.4039999999999L296.30100000000004,273.6219999999999L292.059,274.3709999999999L292.059,276.49799999999993L290.42,279.02099999999996L289.426,281.14199999999994L288.203,281.72099999999995L286.65999999999997,280.756L283.38199999999995,278.539L282.61099999999993,276.032L280.77899999999994,274.371L276.82599999999996,272.65799999999996L273.16299999999995,270.054L270.46299999999997,267.54699999999997L269.21,267.258L265.546,268.22299999999996L262.461,269.86199999999997L262.365,270.92199999999997L259.183,269.042L257.73699999999997,266.873L256.29099999999994,262.69599999999997L255.03799999999995,259.277L253.97699999999995,256.75L255.22999999999993,255.497L255.03799999999993,253.697L254.07299999999992,252.219L252.81999999999994,251.804L251.46999999999994,251.804L250.69899999999996,252.894L249.15599999999995,251.351L248.14299999999994,249.133Z"
    stroke-width="1"
    stroke-linejoin="round"
    style="-webkit-tap-highlight-color: rgba(0, 0, 0, 0); stroke-linejoin: round;"></path>
  <path
    fill="#cccccc"
    stroke="#222222"
    d="M229.567,315.627L236.49800000000002,315.721L241.205,314.205L244.103,311.824L244.636,314.611L247.00799999999998,315.209L252.79699999999997,312.605L254.23799999999997,310.375L259.37499999999994,309.373L260.71199999999993,311.936L261.7149999999999,312.828L266.7569999999999,311.82599999999996L267.6359999999999,306.58599999999996L273.6429999999999,305.80699999999996L273.6429999999999,311.15599999999995L273.6429999999999,313.38699999999994L274.98099999999994,315.0659999999999L274.98099999999994,315.40399999999994L271.09599999999995,316.06299999999993L269.85299999999995,318.0679999999999L269.28499999999997,320.7659999999999L267.63599999999997,326.6499999999999L265.95199999999994,332.3359999999999L264.9479999999999,337.4649999999999L265.95199999999994,342.7029999999999L266.75699999999995,345.7129999999999L266.75699999999995,349.5019999999999L264.16799999999995,352.3999999999999L260.37699999999995,354.6309999999999L259.70899999999995,359.5349999999999L259.5969999999999,364.6619999999999L258.0369999999999,365.99999999999994L252.68799999999993,359.97999999999996L245.55299999999994,353.06999999999994L241.76199999999994,344.9339999999999L236.96899999999994,333.0059999999999L232.84499999999994,322.3049999999999Z"
    stroke-width="1"
    stroke-linejoin="round"
    style="-webkit-tap-highlight-color: rgba(0, 0, 0, 0); stroke-linejoin: round;"></path>
  <path
    fill="#cccccc"
    stroke="#222222"
    d="M230.761,315.404L233.185,313.289L234.063,309.15L236.17999999999998,312.15L237.92,312.15L237.106,307.27L241.85399999999998,301.008L241.11399999999998,298.881L241.48399999999998,296.938L244.29299999999998,298.432L248.14299999999997,294.81100000000004L246.75499999999997,289.355L243.42599999999996,291.574L240.28099999999995,290.094L239.26399999999995,288.152L240.19799999999995,284.29699999999997L243.45199999999994,282.70099999999996L243.42599999999993,280.938L254.10099999999994,289.631L256.77599999999995,291.50199999999995L258.58599999999996,292.98599999999993L257.917,298.1719999999999L259.06199999999995,299.6039999999999L262.15299999999996,303.4649999999999L265.051,305.13699999999994L267.292,306.58599999999996L266.414,312.383L261.373,312.828L260.37,311.936L259.032,309.373L256.022,309.93L254.238,310.375L252.455,312.605L247.662,315.06600000000003L245.321,315.40400000000005L244.293,314.61100000000005L243.76000000000002,311.82400000000007L240.639,314.38900000000007L237.62900000000002,315.40400000000005L232.502,316.50600000000003Z"
    stroke-width="1"
    stroke-linejoin="round"
    style="-webkit-tap-highlight-color: rgba(0, 0, 0, 0); stroke-linejoin: round;"></path>
  <path
    fill="#cccccc"
    stroke="#222222"
    d="M266.332,345.406L264.829,335.457L267.29200000000003,328.193L267.72900000000004,323.916L270.75200000000007,316.063L274.63700000000006,315.066L273.61500000000007,312.07599999999996L273.9680000000001,306.25199999999995L267.2920000000001,306.58599999999996L262.1530000000001,303.465L257.9170000000001,298.17199999999997L258.58600000000007,292.986L257.15900000000005,291.168L261.5930000000001,285.48L266.9910000000001,281.24L270.7520000000001,280.563L272.97000000000014,282.58799999999997L276.21700000000016,287.05299999999994L276.34400000000016,293.29499999999996L285.21400000000017,293.578L285.21400000000017,300.04699999999997L285.96900000000016,303.76199999999994L294.01800000000014,304.30899999999997L296.60400000000016,307.654L293.86600000000016,309.938L289.45600000000013,311.611L287.4690000000001,315.066L290.9500000000001,316.506L293.4670000000001,317.80899999999997L293.9400000000001,318.861L298.7410000000001,318.914L300.8650000000001,320.31399999999996L303.1470000000001,321.95699999999994L302.9950000000001,324.2029999999999L301.1690000000001,326.5209999999999L297.0610000000001,327.5859999999999L289.4560000000001,339.1479999999999L284.86300000000006,343.13499999999993L279.71600000000007,346.7009999999999L274.63700000000006,344.3219999999999L273.93500000000006,346.7009999999999L268.6430000000001,346.3889999999999Z"
    stroke-width="1"
    stroke-linejoin="round"
    style="-webkit-tap-highlight-color: rgba(0, 0, 0, 0); stroke-linejoin: round;"></path>
  <path
    fill="#cccccc"
    stroke="#222222"
    d="M285.407,296.471L285.407,302.705L286.258,304.30899999999997L289.45599999999996,304.30899999999997L294.018,304.30899999999997L294.931,305.80699999999996L296.604,307.65399999999994L302.447,302.06299999999993L299.19100000000003,293.92799999999994L301.08000000000004,294.4239999999999L306.03800000000007,296.93799999999993L306.6460000000001,294.56999999999994L305.4290000000001,292.5919999999999L304.9400000000001,289.19699999999995L298.7410000000001,283.59599999999995L297.5730000000001,286.74999999999994L291.7060000000001,287.7989999999999L289.9380000000001,289.1449999999999L292.2520000000001,292.5179999999999L292.92700000000013,295.7809999999999L289.45600000000013,295.7809999999999L287.7210000000001,296.4709999999999Z"
    stroke-width="1"
    stroke-linejoin="round"
    style="-webkit-tap-highlight-color: rgba(0, 0, 0, 0); stroke-linejoin: round;"></path>
  <path
    fill="#cccccc"
    stroke="#222222"
    d="M325.612,299.742L326.28200000000004,296.471L329.13100000000003,294.885L331.644,290.883L331.141,288.59999999999997L325.444,286.50399999999996L326.605,280.253L335.50300000000004,286.666L341.50500000000005,287.053L343.386,285.896L344.26800000000003,286.779L347.29200000000003,285.318L346.56800000000004,282.85699999999997L343.96400000000006,279.67499999999995L348.44900000000007,275.335L348.44900000000007,272.679L350.33000000000004,270.996L352.92400000000004,272.007L354.956,273.833L357.33500000000004,275.127L362.336,276.43L365.825,277.255L366.276,280.301L366.824,286.20099999999996L371.333,291.14099999999996L373.94300000000004,293.92799999999994L376.57000000000005,297.81299999999993L378.136,304.27699999999993L378.786,310.97299999999996L379.104,315.6039999999999L378.786,321.61299999999994L378.786,325.55099999999993L376.207,327.3929999999999L371.361,328.90199999999993L368.931,327.64599999999996L365.505,328.90199999999993L363.811,329.34599999999995L357.202,327.72999999999996L351.88,328.11699999999996L350.464,327.81399999999996L350.079,324.203L348.906,320.525L349.66,317.592L352.27500000000003,311.811L352.27500000000003,306.029L351.25100000000003,301.338L348.151,298.572L342.035,298.07L340.08000000000004,299.881L336.557,300.91999999999996L333.572,299.578L329.047,299.83Z"
    stroke-width="1"
    stroke-linejoin="round"
    style="-webkit-tap-highlight-color: rgba(0, 0, 0, 0); stroke-linejoin: round;"></path>
  <path
    fill="#cccccc"
    stroke="#222222"
    d="M302.112,302.383L298.74100000000004,293.207L302.112,294.771L306.038,296.938L306.646,294.57L305.845,293.268L305.25,289.41999999999996L302.145,286.67199999999997L303.147,284.74399999999997L302.471,282.78099999999995L307.053,279.62299999999993L310.12,279.30699999999996L311.148,278.24999999999994L307.509,273.59899999999993L317.78000000000003,272.00699999999995L318.35100000000006,273.78399999999993L319.98300000000006,274.01499999999993L320.09400000000005,277.79099999999994L322.51500000000004,279.5829999999999L326.605,280.25299999999993L325.947,283.59599999999995L325.444,286.50399999999996L328.37600000000003,287.76199999999994L331.141,288.59999999999997L331.644,290.883L330.639,292.36899999999997L329.13100000000003,294.885L327.37100000000004,295.625L326.28200000000004,296.471L325.696,299.324L324.543,303.10200000000003L322.76300000000003,304.43600000000004L318.99300000000005,304.60200000000003L316.898,303.514L314.33000000000004,303.262L311.53600000000006,305.021L307.91400000000004,303.752Z"
    stroke-width="1"
    stroke-linejoin="round"
    style="-webkit-tap-highlight-color: rgba(0, 0, 0, 0); stroke-linejoin: round;"></path>
  <path
    fill="#cccccc"
    stroke="#222222"
    d="M324.609,310.357L330.609,307.65400000000005L332.92699999999996,308.3960000000001L334.57199999999995,309.4940000000001L336.74999999999994,310.07400000000007L338.6569999999999,310.9200000000001L342.0799999999999,312.0180000000001L344.87799999999993,313.24000000000007L346.4199999999999,315.0880000000001L348.1729999999999,315.3140000000001L350.4639999999999,314.1000000000001L351.6179999999999,313.18000000000006L349.3249999999999,317.84400000000005L349.02499999999986,320.90000000000003L350.4639999999999,322.922L349.9499999999999,326.1L350.4639999999999,327.369L349.35699999999986,328.20300000000003L346.8149999999999,326.932L345.00799999999987,325.46500000000003L341.33799999999985,322.42800000000005L338.9039999999998,320.3140000000001L337.52599999999984,319.32200000000006L333.43199999999985,317.93000000000006L329.97299999999984,317.93000000000006L326.65599999999984,316.50000000000006L324.6089999999998,311.49600000000004Z"
    stroke-width="1"
    stroke-linejoin="round"
    style="-webkit-tap-highlight-color: rgba(0, 0, 0, 0); stroke-linejoin: round;"></path>
  <path
    fill="#cccccc"
    stroke="#222222"
    d="M324.609,310.357L328.703,308.451L330.609,307.654L332.585,308.17L334.703,309.582L336.14399999999995,310.35699999999997L338.98799999999994,310.99399999999997L343.2439999999999,312.404L345.6429999999999,313.631L346.4199999999999,315.08799999999997L348.6079999999999,315.36899999999997L350.9379999999999,313.777L352.33799999999985,312.54499999999996L352.27499999999986,307.65399999999994L351.3339999999999,301.72099999999995L348.0669999999999,298.49199999999996L344.01999999999987,298.12299999999993L342.03499999999985,298.06999999999994L340.07999999999987,299.8809999999999L337.7259999999999,300.5739999999999L334.5749999999999,299.9919999999999L333.0149999999999,299.6089999999999L328.5269999999999,300.1699999999999L325.61199999999985,299.7419999999999L324.66899999999987,302.7049999999999L323.54899999999986,303.7829999999999L321.5889999999999,304.2789999999999L320.59199999999987,304.5309999999999L320.2519999999999,306.7189999999999L319.9499999999999,308.6639999999999L322.77299999999985,309.8629999999999Z"
    stroke-width="1"
    stroke-linejoin="round"
    style="-webkit-tap-highlight-color: rgba(0, 0, 0, 0); stroke-linejoin: round;"></path>
  <path
    fill="#cccccc"
    stroke="#222222"
    d="M293.866,309.938L302.11199999999997,302.383L304.97799999999995,303.061L306.94599999999997,303.50399999999996L309.74699999999996,304.33L311.53599999999994,305.02099999999996L310.9529999999999,306.16399999999993L310.61799999999994,308.01399999999995L305.3299999999999,310.6039999999999L305.2049999999999,311.9079999999999L305.43299999999994,313.77699999999993L304.75199999999995,314.4749999999999L303.14699999999993,314.9609999999999L301.74299999999994,313.8589999999999L299.55299999999994,311.8159999999999L297.47999999999996,311.2729999999999L295.33599999999996,310.2579999999999Z"
    stroke-width="1"
    stroke-linejoin="round"
    style="-webkit-tap-highlight-color: rgba(0, 0, 0, 0); stroke-linejoin: round;"></path>
  <path
    fill="#cccccc"
    stroke="#222222"
    d="M293.964,310.258L297.762,311.35499999999996L299.842,312.33L301.16999999999996,313.24L302.84599999999995,315.053L304.75199999999995,314.475L305.43299999999994,313.77700000000004L308.21799999999996,315.11100000000005L312.37699999999995,315.11100000000005L313.98599999999993,316.80500000000006L316.01699999999994,317.93000000000006L316.01699999999994,319.09600000000006L315.1929999999999,321.58000000000004L303.48099999999994,321.95700000000005L301.74299999999994,321.56600000000003L299.5079999999999,319.96500000000003L298.5109999999999,318.91200000000003L293.8349999999999,319.098L293.4669999999999,317.809L287.46899999999994,315.06600000000003L288.08599999999996,313.63100000000003L289.45599999999996,311.61100000000005L291.078,310.99600000000004L292.673,310.64300000000003Z"
    stroke-width="1"
    stroke-linejoin="round"
    style="-webkit-tap-highlight-color: rgba(0, 0, 0, 0); stroke-linejoin: round;"></path>
  <path
    fill="#cccccc"
    stroke="#222222"
    d="M316.017,317.93L317.59499999999997,317.06600000000003L318.08299999999997,316.107L318.743,311.939L319.364,309.473L319.72299999999996,308.672L322.138,309.863L324.609,310.357L324.609,311.684L326.19399999999996,315.369L326.65599999999995,316.5L327.63899999999995,317.398L326.13599999999997,318.619L323.90099999999995,319.396L322.19199999999995,319.60900000000004L321.51099999999997,320.49600000000004L320.299,321.15600000000006L316.017,321.15600000000006L315.193,321.58000000000004L316.017,319.00600000000003Z"
    stroke-width="1"
    stroke-linejoin="round"
    style="-webkit-tap-highlight-color: rgba(0, 0, 0, 0); stroke-linejoin: round;"></path>
  <path
    fill="#cccccc"
    stroke="#222222"
    d="M305.433,313.777L305.592,310.258L310.728,307.654L311.536,305.021L314.33,303.262L316.89799999999997,303.514L319.64399999999995,304.455L320.98699999999997,305.02099999999996L319.95,308.16999999999996L319.009,310.258L317.97700000000003,316.77L316.487,317.93L315.19300000000004,317.20300000000003L312.37700000000007,315.11100000000005L309.3760000000001,314.96100000000007L306.6460000000001,314.4770000000001Z"
    stroke-width="1"
    stroke-linejoin="round"
    style="-webkit-tap-highlight-color: rgba(0, 0, 0, 0); stroke-linejoin: round;"></path>
</svg>
