<svg height="420" version="1.1" width="540" xmlns="http://www.w3.org/2000/svg" xmlns:xlink="http://www.w3.org/1999/xlink" style="overflow: hidden; position: relative; top: -0.4px;">
  <desc style="-webkit-tap-highlight-color: rgba(0, 0, 0, 0);">Created with Raphaël 2.2.0</desc>
  <defs style="-webkit-tap-highlight-color: rgba(0, 0, 0, 0);"></defs>
  <path
    fill="#cccccc"
    stroke="#222222"
    d="M198.657,59.77L198.657,58.637L199.73600000000002,57.903L201.246,55.725L201.345,54.796L202.139,51.266999999999996L213.348,47.736L213.70000000000002,41.293L215.81900000000002,38.117L220.40800000000002,38.733999999999995L220.67200000000003,33.705L221.556,32.998L224.114,29.909L221.37800000000001,28.673L215.907,25.407999999999998L213.25900000000001,23.730999999999998L211.49400000000003,25.055L209.19900000000004,25.849L206.55200000000005,25.32L202.84500000000006,23.996L199.58000000000007,22.054L196.84400000000008,19.848L195.69600000000008,17.2L194.90300000000008,16.229L192.87300000000008,15.789L190.5780000000001,17.024L187.22500000000008,14.112000000000002L184.57700000000008,17.024L178.3110000000001,17.995L177.6040000000001,17.289L173.1920000000001,14.200000000000001L169.3970000000001,12.258000000000001L166.8370000000001,11.464L165.3370000000001,12.082L167.4560000000001,17.024L165.4250000000001,22.231L165.8680000000001,31.586000000000002L164.6310000000001,33.792L162.7780000000001,34.938L164.9850000000001,36.527L163.75000000000009,41.47L169.3100000000001,46.147L171.07500000000007,46.147L171.07500000000007,52.943L169.83800000000008,54.531L169.39800000000008,55.855L169.83800000000008,66.00399999999999L168.42700000000008,66.00399999999999L168.42700000000008,67.94599999999998L163.22000000000008,66.00399999999999L160.6610000000001,67.68199999999999L163.2890000000001,83.32999999999998L172.0390000000001,81.61599999999999L171.1480000000001,78.37899999999999L179.40100000000012,74.981L179.0770000000001,63.895999999999994L181.3430000000001,66.48599999999999L188.5440000000001,59.44599999999999L191.2940000000001,58.79899999999999L192.7510000000001,58.23299999999999L197.5240000000001,59.44599999999999Z"
    stroke-width="1"
    stroke-linejoin="round"
    style="-webkit-tap-highlight-color: rgba(0, 0, 0, 0); stroke-linejoin: round;"></path>
  <path
    fill="#cccccc"
    stroke="#222222"
    d="M198.685,59.668L198.786,61.239L199.668,63.887L199.58100000000002,65.74L202.40400000000002,67.77L204.43400000000003,70.506L204.25700000000003,71.917L202.58100000000005,73.947L202.66900000000004,79.331L199.58100000000005,82.419L197.99200000000005,82.948L196.49100000000004,82.15499999999999L190.75500000000005,86.21399999999998L190.75500000000005,89.47899999999998L191.63700000000006,91.15599999999999L190.31300000000005,92.65599999999999L183.07700000000006,91.067L181.57700000000006,90.44999999999999L181.13600000000005,92.65599999999999L178.13500000000005,94.24499999999999L173.28100000000003,93.27399999999999L173.28100000000003,91.59699999999998L167.89700000000005,92.47899999999998L164.45600000000005,90.27399999999999L163.28900000000004,83.32999999999998L172.03900000000004,81.61599999999999L171.18000000000004,78.36599999999999L179.40100000000004,74.98099999999998L178.96900000000005,63.58699999999998L181.34300000000005,66.48599999999998L188.50300000000004,59.324999999999974L191.62400000000005,58.67099999999997L192.75100000000006,58.23299999999997Z"
    stroke-width="1"
    stroke-linejoin="round"
    style="-webkit-tap-highlight-color: rgba(0, 0, 0, 0); stroke-linejoin: round;"></path>
  <path
    fill="#cccccc"
    stroke="#222222"
    d="M276.665,56.714L276.411,47.391L275.804,45.732L275.804,41.081L273.61899999999997,35.74L271.07199999999995,35.578L267.5919999999999,32.706L265.52899999999994,31.047000000000004L263.5469999999999,33.03L259.9869999999999,33.07L257.1549999999999,29.348L257.1549999999999,22.714L255.90099999999993,20.61L254.88899999999992,18.709L254.88899999999992,20.368L253.51399999999992,20.368L253.10999999999993,23.805999999999997L246.63699999999992,30.238L242.79399999999993,30.684L242.79399999999993,33.313L239.96199999999993,35.012L239.03199999999993,34.769L236.88699999999992,35.538L235.18699999999993,35.942L233.20599999999993,34.607L230.21199999999993,32.504L228.59399999999994,31.977999999999998L225.38299999999992,30.845L224.11399999999992,29.909L221.65799999999993,32.873999999999995L220.67199999999994,33.705L220.40799999999993,38.733999999999995L215.81899999999993,38.117L213.69999999999993,41.293L213.34799999999993,47.736L202.13899999999992,51.266999999999996L201.26299999999992,55.56999999999999L199.73599999999993,57.90299999999999L198.60899999999992,58.50299999999999L198.78599999999992,61.23899999999999L199.66799999999992,63.88699999999999L199.58099999999993,65.74L202.40399999999994,67.77L204.43399999999994,70.353L204.25699999999995,71.917L202.58099999999996,73.947L202.66899999999995,79.331L199.87799999999996,82.122L208.18399999999997,97.834L213.02299999999997,93.483L213.55199999999996,90.84L219.16399999999996,88.644L220.82999999999996,94.245L227.83799999999997,92.647L233.44899999999996,87.68400000000001L233.23299999999995,81.427L238.84199999999996,80.24000000000001L246.17799999999997,79.91700000000002L246.39299999999997,76.23900000000002L250.06199999999998,71.50200000000002L250.70899999999997,68.15800000000003L253.72999999999996,64.27400000000003L254.05299999999997,60.39100000000003L261.17299999999994,60.60600000000003L262.14399999999995,66.21600000000004L264.30199999999996,67.94200000000004L265.05699999999996,65.35300000000004L266.78299999999996,64.59800000000004L268.18499999999995,58.27100000000004L269.69499999999994,58.23300000000005L269.69499999999994,56.39900000000004Z"
    stroke-width="1"
    stroke-linejoin="round"
    style="-webkit-tap-highlight-color: rgba(0, 0, 0, 0); stroke-linejoin: round;"></path>
  <path
    fill="#cccccc"
    stroke="#222222"
    d="M222.946,100.721L220.871,102.95700000000001L220.708,103.852L222.335,104.991L227.66,107.675L231.361,110.643L232.62199999999999,113.205L232.94699999999997,115.523L232.90699999999998,118.207L232.41799999999998,121.50099999999999L230.83299999999997,125.201L231.76799999999997,127.88399999999999L235.06199999999998,132.07299999999998L236.36399999999998,137.23699999999997L242.91099999999997,140.12499999999997L246.20399999999998,145.97999999999996L242.545,150.45299999999997L246.124,151.99799999999996L247.1,154.31599999999997L250.76,153.86799999999997V149.76099999999997L254.94799999999998,147.80899999999997L255.19299999999998,145.40999999999997L253.52499999999998,143.98699999999997L254.74599999999998,141.91299999999995L254.62499999999997,137.15499999999994L255.84399999999997,135.52799999999993L257.47099999999995,136.78899999999993L259.74799999999993,135.08099999999993V133.33199999999994L263.20399999999995,129.99799999999993L264.83099999999996,131.62399999999994L265.15599999999995,131.25799999999992L267.96199999999993,126.98799999999993L268.20599999999996,120.19699999999993L270.64599999999996,118.89499999999992L271.01199999999994,117.43099999999993L271.98699999999997,112.83599999999993L273.087,109.50199999999992L270.81,106.93899999999992L273.005,104.62199999999993L275.282,106.93899999999994L275.526,106.69499999999994L276.909,106.20699999999994L278.657,106.93799999999993H285.163L284.837,98.60299999999992L284.024,92.42199999999993L283.693,87.80299999999993L282.803,86.18499999999993L282.035,84.16199999999994L282.07500000000005,81.28999999999994C282.07500000000005,81.28999999999994,282.07500000000005,79.71199999999993,282.11600000000004,79.55099999999993C282.15600000000006,79.38899999999992,280.78000000000003,77.60899999999994,280.78000000000003,77.60899999999994L280.336,71.94499999999994L282.803,69.47699999999993V68.18299999999994L281.51,65.43199999999993L279.567,61.061999999999934L277.221,57.987999999999936L276.806,56.819999999999936L269.69599999999997,56.396999999999935V58.22999999999993L268.186,58.268999999999934L266.784,64.59499999999993L265.058,65.34999999999992L264.327,67.86099999999992L262.145,66.21399999999991L261.174,60.603999999999914L254.05399999999997,60.38799999999991L253.73899999999998,64.17399999999991L250.75999999999996,68.0899999999999L250.06299999999996,71.4999999999999L246.39399999999995,76.2369999999999L246.18399999999994,79.83699999999989L238.84299999999993,80.23899999999989L233.23399999999992,81.42599999999989L233.44999999999993,87.6829999999999L228.04199999999994,92.4669999999999L220.83099999999993,94.2439999999999L222.94599999999994,100.7209999999999Z"
    stroke-width="1"
    stroke-linejoin="round"
    style="-webkit-tap-highlight-color: rgba(0, 0, 0, 0); stroke-linejoin: round;"></path>
  <path
    fill="#cccccc"
    stroke="#222222"
    d="M171.075,46.147L169.31,46.147L163.75,41.47L164.985,36.527L162.77800000000002,34.938L158.72500000000002,37.947L152.29900000000004,43.721000000000004L149.13200000000003,46.04900000000001L148.76000000000002,47.912000000000006L145.03500000000003,51.26500000000001L143.17200000000003,53.50000000000001L142.14700000000002,55.36300000000001L137.95700000000002,60.11200000000001L135.163,63.74500000000001L132.089,67.19000000000001L130.227,69.42500000000001L126.967,72.778L125.85,73.337L126.12899999999999,77.9L124.07999999999998,79.391L124.07999999999998,81.253L128.153,83.951L132.55499999999998,80.07799999999999L133.52599999999998,77.89399999999999L144.12499999999997,70.36899999999999L145.90499999999997,72.14899999999999L148.00799999999998,70.28899999999999L149.70799999999997,72.716L153.02399999999997,70.773L157.79799999999997,65.27199999999999L159.33499999999998,63.57299999999999L157.39399999999998,58.96099999999999L157.06999999999996,57.18099999999999L158.04099999999997,55.40099999999999L159.73999999999998,53.377999999999986L161.92399999999998,51.92199999999998L163.289,49.170999999999985L166.13199999999998,48.76699999999998L167.74999999999997,49.332999999999984L169.61099999999996,50.950999999999986L169.20699999999997,47.79499999999999L171.07499999999996,47.87599999999999L171.07499999999996,46.33899999999999"
    stroke-width="1"
    stroke-linejoin="round"
    style="-webkit-tap-highlight-color: rgba(0, 0, 0, 0); stroke-linejoin: round;"></path>
  <path
    fill="#cccccc"
    stroke="#222222"
    d="M169.689,66.004H168.426V67.946L163.219,66.004L160.66,67.682L164.402,89.959L160.85399999999998,87.75800000000001L150.296,87.97800000000001L147.29,88.308L145.126,92.37800000000001L143.917,93.18400000000001L145.126,93.58800000000001L145.64000000000001,94.245L139.16600000000003,98.391C139.16600000000003,98.391,135.22400000000002,89.06,127.69900000000003,83.952L132.55300000000003,80.079L133.52400000000003,77.895L144.12300000000002,70.36999999999999L145.80200000000002,72.04899999999999L148.00700000000003,70.28899999999999L149.70600000000005,72.716L152.85100000000006,70.875L159.33400000000006,63.573L157.39200000000005,58.961L157.06900000000005,57.181L157.83800000000005,55.771L158.04000000000005,55.4L159.78400000000005,53.348L161.92400000000004,51.921L163.28800000000004,49.17L166.13100000000003,48.766L167.74900000000002,49.332L169.68800000000002,51.06L169.28900000000002,47.798H171.074V52.853L169.894,54.459L169.397,55.855000000000004L169.68699999999998,65.94200000000001"
    stroke-width="1"
    stroke-linejoin="round"
    style="-webkit-tap-highlight-color: rgba(0, 0, 0, 0); stroke-linejoin: round;"></path>
  <path
    fill="#cccccc"
    stroke="#222222"
    d="M164.837,113.817L164.837,112.621L166.85999999999999,109.28699999999999L169.43699999999998,111.00399999999999L170.712,108.54499999999999L170.712,108.29999999999998L174.355,108.63499999999998L173.896,111.05899999999998L174.86599999999999,112.11899999999999L174.22299999999998,113.25099999999999L174.22299999999998,116.413L172.40099999999998,117.627L169.74499999999998,115.56099999999999L167.02199999999996,115.404L167.11399999999998,114.43299999999999L164.88699999999997,113.832"
    stroke-width="1"
    stroke-linejoin="round"
    style="-webkit-tap-highlight-color: rgba(0, 0, 0, 0); stroke-linejoin: round;"></path>
  <path
    fill="#cccccc"
    stroke="#222222"
    d="M174.951,112.199L173.759,111.073L174.355,108.63499999999999L170.628,108.29299999999999L169.611,105.24099999999999L170.52499999999998,101.57999999999998L172.83799999999997,98.99199999999999L172.69999999999996,93.416L173.28099999999995,93.063L178.13499999999996,94.245L181.07799999999997,92.688L181.57699999999997,90.45L183.26199999999997,91.108L188.70699999999997,92.29100000000001L191.86099999999996,97.83400000000002L184.58899999999997,96.37500000000001L181.10099999999997,100.38700000000001L182.32899999999998,104.22700000000002L186.43999999999997,104.99900000000002L186.43999999999997,109.69100000000003L189.75699999999998,111.06600000000003L195.50199999999998,110.09600000000003L195.98799999999997,112.11800000000004L192.38799999999998,114.87000000000003L198.60899999999998,120.85600000000004L187.796,123.14100000000003L185.766,118.32200000000003L183.42399999999998,116.71400000000003L183.60799999999998,115.19300000000003L181.59599999999998,115.53700000000002L180.26399999999998,113.62900000000002Z"
    stroke-width="1"
    stroke-linejoin="round"
    style="-webkit-tap-highlight-color: rgba(0, 0, 0, 0); stroke-linejoin: round;"></path>
  <path
    fill="#cccccc"
    stroke="#222222"
    d="M190.313,92.656L191.637,91.156L190.755,89.379L190.755,86.214L196.439,82.191L197.992,82.94800000000001L199.49099999999999,82.44900000000001L199.878,82.12200000000001L203.00099999999998,88.02900000000001L206.70199999999997,95.03000000000002L208.18399999999997,97.83400000000002L213.02299999999997,93.48300000000002L213.55199999999996,90.84000000000002L219.16399999999996,88.64400000000002L222.92999999999995,100.67600000000002L220.97499999999994,102.84600000000002L220.70799999999994,103.85200000000002L221.88799999999995,104.67800000000001L223.66999999999996,105.66300000000001L226.01199999999997,106.84400000000001L227.90699999999998,107.87100000000001L229.50699999999998,109.15500000000002L231.06499999999997,110.40500000000002L231.63799999999998,111.20300000000002L232.623,113.20500000000001L232.844,114.78200000000001L232.844,116.00200000000001L232.93099999999998,116.56800000000001L227.987,116.77100000000002L223.90099999999998,113.53400000000002L222.647,116.48700000000002L217.914,117.45800000000003L208.14999999999998,117.13500000000003L206.58599999999998,120.85600000000004L205.34599999999998,121.98900000000003L202.271,124.63200000000003L201.732,125.17100000000003L199.413,123.44600000000004L191.538,123.76900000000003L191.10600000000002,121.98900000000003L198.60900000000004,120.85600000000004L192.38800000000003,114.87000000000003L195.98800000000003,112.11800000000004L195.50200000000004,110.09600000000003L189.75700000000003,111.06600000000003L186.44000000000003,109.69100000000003L186.44000000000003,104.99900000000002L182.39500000000004,104.43200000000003L181.10100000000003,100.38700000000003L184.41700000000003,96.34100000000002L191.86100000000002,97.83400000000002L188.70700000000002,92.29100000000001Z"
    stroke-width="1"
    stroke-linejoin="round"
    style="-webkit-tap-highlight-color: rgba(0, 0, 0, 0); stroke-linejoin: round;"></path>
  <path
    fill="#cccccc"
    stroke="#222222"
    d="M151.768,106.139L156.224,108.3L157.98899999999998,109.337L160.218,111.22800000000001L161.188,111.22800000000001L161.86599999999999,110.403L161.38099999999997,108.07700000000001L158.86099999999996,105.99300000000001L159.29699999999997,101.09800000000001L162.15699999999998,101.48500000000001L162.884,98.91700000000002L165.695,102.06700000000002L165.405,105.99300000000002L169.611,105.24100000000003L170.339,101.76200000000003L172.846,99.30100000000003L172.70000000000002,93.41600000000003L173.281,92.85900000000002L173.281,91.59700000000002L167.897,92.47900000000003L167.541,92.25000000000003L164.439,90.17700000000004L160.661,87.76300000000003L150.087,88.00100000000003L147.291,88.30900000000004L145.127,92.37800000000004L143.917,93.18400000000004L145.207,93.68900000000004L145.641,94.24500000000003L139.167,98.39000000000003L142.999,98.39000000000003L146.049,99.49500000000003L147.577,101.29200000000003L149.807,104.83300000000003Z"
    stroke-width="1"
    stroke-linejoin="round"
    style="-webkit-tap-highlight-color: rgba(0, 0, 0, 0); stroke-linejoin: round;"></path>
  <path
    fill="#cccccc"
    stroke="#222222"
    d="M147.835,122.828L145.76000000000002,120.772L143.20800000000003,116.43400000000001L143.64000000000001,110.177L141.48700000000002,103.361L139.16700000000003,98.39L142.57300000000004,98.39L146.29200000000003,99.495L148.30500000000004,102.447L149.57600000000002,104.465L149.80700000000002,104.833L153.294,106.88L155.98100000000002,108.18299999999999L154.431,110.609L154.42700000000002,114.16799999999999L156.22400000000002,114.16799999999999L156.22400000000002,115.73299999999999L158.69100000000003,116.43399999999998L159.66500000000002,116.13699999999999L159.87500000000003,115.08499999999998L162.30200000000002,115.30099999999997L162.19400000000002,116.43399999999997L162.68,117.62699999999997L163.975,119.18499999999997L163.975,119.62799999999997L151.57,120.07199999999997L150.346,120.69299999999997Z"
    stroke-width="1"
    stroke-linejoin="round"
    style="-webkit-tap-highlight-color: rgba(0, 0, 0, 0); stroke-linejoin: round;"></path>
  <path
    fill="#cccccc"
    stroke="#222222"
    d="M163.975,119.7L164.136,123.446L168.236,123.931L169.261,127.708L165.916,128.192L165.484,128.192L167.966,133.101L169.852,133.101L172.065,139.143L173.576,145.237L174.439,147.88L175.41,148.582L175.733,150.739L171.041,150.739L170.016,148.528L168.182,148.36599999999999L163.273,151.49499999999998L161.817,151.17099999999996L160.846,149.82199999999997L158.257,140.54399999999998L154.966,133.42399999999998L151.083,125.87299999999998L147.835,122.82799999999997L150.346,120.69299999999997L151.57,120.07199999999997L163.975,119.62799999999997"
    stroke-width="1"
    stroke-linejoin="round"
    style="-webkit-tap-highlight-color: rgba(0, 0, 0, 0); stroke-linejoin: round;"></path>
  <path
    fill="#cccccc"
    stroke="#222222"
    d="M172.362,117.782L174.22299999999998,116.41199999999999V113.25099999999999L174.867,112.32099999999998L176.54299999999998,112.38799999999998L180.265,113.62899999999998L181.398,115.56999999999998L183.609,115.19199999999998L183.425,116.71299999999998L185.76700000000002,118.31999999999998L188.044,123.26399999999998L191.144,122.13899999999998V125.16999999999999H188.62800000000001L188.75900000000001,127.79899999999999L188.69400000000002,129.30499999999998C188.69400000000002,129.30499999999998,184.865,132.96599999999998,184.76600000000002,133.099C184.668,133.232,169.853,133.099,169.853,133.099H167.967L165.65200000000002,128.19L169.26200000000003,127.705L168.23700000000002,123.929L164.13700000000003,123.444L163.97500000000002,119.183L166.67200000000003,119.992L166.07900000000004,116.64800000000001L165.51200000000003,114.599L167.02300000000002,114.464V115.516L169.74600000000004,115.56L172.36200000000005,117.782Z"
    stroke-width="1"
    stroke-linejoin="round"
    style="-webkit-tap-highlight-color: rgba(0, 0, 0, 0); stroke-linejoin: round;"></path>
  <path
    fill="#cccccc"
    stroke="#222222"
    d="M159.875,115.085L162.004,112.964L163.77499999999998,112.826L164.837,112.384L164.837,113.81700000000001L166.61999999999998,114.34500000000001L165.51099999999997,114.60000000000001L166.67099999999996,119.99400000000001L163.97499999999997,119.12300000000002L162.67699999999996,117.66700000000002L162.21799999999996,116.18900000000002L162.13899999999995,115.15600000000002L159.91999999999996,115.13400000000001"
    stroke-width="1"
    stroke-linejoin="round"
    style="-webkit-tap-highlight-color: rgba(0, 0, 0, 0); stroke-linejoin: round;"></path>
  <path
    fill="#cccccc"
    stroke="#222222"
    d="M163.775,112.826L164.83700000000002,112.384L165.95600000000002,110.609L166.86,109.28699999999999L169.497,110.889L170.71200000000002,108.545L169.61100000000002,105.241L165.42000000000002,105.775L165.627,101.99000000000001L162.88400000000001,98.91700000000002L162.126,101.28900000000002L159.269,100.96100000000001L158.86100000000002,105.99300000000001L161.38100000000003,108.07700000000001L161.42800000000003,108.30000000000001L161.866,110.403L161.18800000000002,111.22800000000001L160.21800000000002,111.22800000000001L157.989,109.337L156.22400000000002,108.3L154.40200000000002,110.646L154.42700000000002,114.021L156.22400000000002,114.168L156.22400000000002,115.733L158.69100000000003,116.434L159.44200000000004,116.205L159.87500000000003,115.085L162.15100000000004,112.964Z"
    stroke-width="1"
    stroke-linejoin="round"
    style="-webkit-tap-highlight-color: rgba(0, 0, 0, 0); stroke-linejoin: round;"></path>
  <path
    fill="#cccccc"
    stroke="#222222"
    d="M183.123,157.805L183.771,158.345L186.46699999999998,162.552L186.46699999999998,168.26999999999998L184.795,168.43099999999998L185.119,168.80899999999997L187.33,173.28599999999997L189.32600000000002,176.14499999999998L190.728,176.03699999999998L190.99800000000002,169.83299999999997L192.562,169.77999999999997L192.616,176.79199999999997L194.61200000000002,177.97899999999998L195.42100000000002,176.73799999999997L196.12300000000002,175.49699999999996L201.894,174.41799999999995L202.002,177.27799999999996L209.014,178.30199999999996L210.47,179.21799999999996L213.113,181.91599999999997L215.216,182.40099999999998L217.375,182.832L222.284,182.563L224.76399999999998,178.78699999999998L225.38299999999998,174.90399999999997L224.97899999999998,172.53099999999998L225.38299999999998,171.07399999999998L229.45799999999997,165.51899999999998L230.42699999999996,162.65999999999997L231.66799999999998,162.65999999999997L232.15399999999997,160.23199999999997L233.17899999999997,159.36899999999997L235.06599999999997,158.39799999999997L235.66099999999997,155.37799999999996L236.36199999999997,154.67599999999996L242.54399999999995,150.45299999999995L246.20399999999995,145.97999999999993L242.91099999999994,140.12499999999994L236.36399999999995,137.23699999999994L235.06199999999995,132.07299999999995L231.76799999999994,127.88399999999996L230.83299999999994,125.20099999999996L232.46599999999995,121.17299999999996L232.93099999999995,117.98399999999995L232.72099999999995,116.57699999999996L227.98699999999994,116.77099999999996L223.90099999999993,113.53399999999996L222.64699999999993,116.48699999999997L217.91399999999993,117.45799999999997L208.28799999999993,117.13899999999997L206.58599999999993,120.85599999999997L201.7319999999999,125.17099999999996L204.9679999999999,128.03099999999998L202.5949999999999,133.15999999999997L204.9679999999999,135.56099999999998L207.7729999999999,143.78099999999998L204.64499999999992,145.075L203.02599999999993,144.212L202.16399999999993,144.536L198.88399999999993,147.018L202.37899999999993,154.316L186.52099999999993,153.706L186.19699999999992,155.755Z"
    stroke-width="1"
    stroke-linejoin="round"
    style="-webkit-tap-highlight-color: rgba(0, 0, 0, 0); stroke-linejoin: round;"></path>
  <path
    fill="#cccccc"
    stroke="#222222"
    d="M183.123,157.805L180.696,153.86700000000002L178.862,151.495L175.733,150.739L175.41,148.582L174.373,147.677L172.14,139.44299999999998L172.14,138.783L169.874,133.16L184.765,133.101L188.69199999999998,129.307L188.75799999999998,127.80099999999999L188.68499999999997,126.31899999999999L188.62699999999998,125.17099999999999L191.14299999999997,125.05099999999999L191.38499999999996,123.14099999999999L191.72899999999996,123.761L199.41299999999995,123.446L201.73199999999994,125.17099999999999L204.96799999999993,128.031L202.59499999999994,133.16L204.96799999999993,135.561L207.77299999999994,143.781L204.64499999999992,145.07500000000002L203.02599999999993,144.21200000000002L202.2969999999999,144.48600000000002L198.8839999999999,147.01800000000003L202.3789999999999,154.31600000000003L186.5209999999999,153.70600000000002L186.1969999999999,155.75500000000002Z"
    stroke-width="1"
    stroke-linejoin="round"
    style="-webkit-tap-highlight-color: rgba(0, 0, 0, 0); stroke-linejoin: round;"></path>
  <path
    fill="#cccccc"
    stroke="#222222"
    d="M267.431,209.966L269.67199999999997,212.435L268.72499999999997,212.769L266.864,213.578L262.00899999999996,213.012L259.98699999999997,212.688L256.265,212.60799999999998L251.212,217.62399999999997L250.76299999999998,218.02899999999997L246.313,218.83799999999997L245.82799999999997,220.05099999999996L244.93699999999998,220.77999999999997L238.302,215.11699999999996L239.356,213.49799999999996L238.78799999999998,210.90899999999996L238.707,209.29099999999997L237.898,208.07699999999997L237.898,206.37699999999998L238.302,206.134L238.78799999999998,204.921L236.523,204.112L235.552,200.957L233.691,197.72L231.101,194.726L228.27,192.624L227.78400000000002,191.733L228.27,190.43800000000002L229.404,189.549L228.918,187.526L227.78400000000002,185.179L226.16700000000003,184.775L224.95200000000003,185.68800000000002L223.73900000000003,186.23100000000002L222.12100000000004,184.69400000000002L222.28400000000005,182.56300000000002L224.76400000000004,178.787L225.36200000000005,174.776L224.97900000000004,172.531L225.58700000000005,170.796L229.48000000000005,165.447L230.36000000000004,162.858L231.71300000000005,162.433L232.15400000000005,160.232L233.17900000000006,159.369L235.06600000000006,158.398L235.66100000000006,155.378L236.36200000000005,154.676L242.54400000000004,150.45299999999997L245.92000000000004,151.91099999999997L247.09900000000005,154.31599999999997L250.75900000000004,153.70299999999997L250.75900000000004,149.76199999999997L254.03300000000004,148.23599999999996L254.29100000000005,151.45499999999996L259.68300000000005,152.21099999999996L260.01200000000006,153.26299999999995L263.63000000000005,155.10499999999996L255.73800000000006,159.53099999999995L256.87300000000005,166.48899999999995L254.84900000000005,169.60399999999996L250.23800000000006,169.52299999999997L247.00100000000006,171.38399999999996L251.21200000000007,184.18199999999996L249.90100000000007,188.01099999999997L249.68400000000005,190.92299999999997L250.65600000000006,193.02799999999996L252.11200000000005,191.03199999999995L253.40700000000004,193.51299999999995L255.88700000000003,192.05599999999995L259.177,195.72499999999997L259.392,200.25599999999997L266.783,208.72399999999996Z"
    stroke-width="1"
    stroke-linejoin="round"
    style="-webkit-tap-highlight-color: rgba(0, 0, 0, 0); stroke-linejoin: round;"></path>
  <path
    fill="#cccccc"
    stroke="#222222"
    d="M254.739,141.667L254.431,137.196L255.842,135.528L257.577,136.708L259.747,135.082L259.853,133.22899999999998L263.20300000000003,129.998L264.91100000000006,131.533L267.9680000000001,126.79799999999999L268.2050000000001,120.198L270.5390000000001,118.95299999999999L271.9860000000001,112.83699999999999L273.0850000000001,109.50299999999999L270.8080000000001,106.93999999999998L273.0030000000001,104.62299999999999L275.2810000000001,106.94L276.90800000000013,106.209L278.3530000000001,106.81400000000001L285.16200000000015,106.753L284.8530000000001,99.039L284.35500000000013,94.94L283.9370000000001,91.212L283.81400000000014,89.5L283.6920000000001,87.805L286.34300000000013,88.17800000000001L288.06300000000016,86.51200000000001L288.06300000000016,84.91400000000002L287.37500000000017,83.71100000000001L288.06300000000016,80.79100000000001L288.86400000000015,79.93100000000001L291.78500000000014,83.25300000000001L293.1010000000001,84.05500000000002L295.0490000000001,87.54800000000002L297.2250000000001,87.37600000000002L300.1460000000001,84.28400000000002L304.50000000000006,85.77300000000002L306.90400000000005,84.34100000000002L306.90400000000005,81.36300000000003L309.31100000000004,79.01500000000003L310.225,75.17800000000003L314.46500000000003,75.17800000000003L314.46500000000003,78.04200000000003L324.20200000000006,84.39800000000002L328.9560000000001,84.62800000000003L330.5590000000001,83.42500000000003L332.2180000000001,82.73800000000003L333.4220000000001,82.33700000000003L338.06200000000007,81.67800000000003L344.3040000000001,81.67800000000003L346.8800000000001,83.54000000000002L347.33800000000014,85.65800000000002L346.76800000000014,86.74700000000001L347.05300000000017,88.98000000000002L347.6850000000002,91.90100000000002L348.9440000000002,94.07700000000003L350.3190000000002,95.22300000000003L350.3190000000002,97.45700000000002L348.2560000000002,99.23100000000002L344.9910000000002,101.06400000000002L341.72800000000024,101.92400000000002L339.8370000000002,102.72500000000002L338.6330000000002,103.92800000000003L338.69200000000023,106.21900000000002L335.94200000000023,106.44800000000002L335.4840000000002,108.45300000000002L334.9700000000002,109.99900000000002L335.5990000000002,110.68700000000003L339.2080000000002,110.68700000000003L343.0440000000002,112.40400000000002L345.5650000000002,113.77900000000002L346.82600000000025,115.32500000000003L346.82600000000025,115.72700000000003L349.68900000000025,115.95600000000003L351.4640000000002,118.07400000000003L351.80700000000024,119.79200000000003L350.83300000000025,121.39600000000003L349.05700000000024,122.36900000000003L347.9690000000002,124.77500000000003L347.16800000000023,127.23800000000003L345.10700000000026,130.61700000000002L344.1900000000003,132.56400000000002L320.5930000000003,133.65200000000002L319.0450000000003,134.51100000000002L317.3280000000003,133.02200000000002L314.9790000000003,136.80200000000002L309.82400000000035,133.996L288.8640000000004,145.16400000000002L288.5480000000004,147.799L286.1200000000004,150.065L289.8410000000004,151.683L290.9750000000004,153.94799999999998L291.7040000000004,156.37499999999997L291.7850000000004,158.55999999999997L293.8870000000004,159.93599999999998L292.2700000000004,162.60599999999997L294.8580000000004,164.54799999999997L291.6230000000004,172.23399999999998L292.2700000000004,175.46999999999997L292.0270000000004,176.92699999999996L288.5480000000004,184.69399999999996L289.8410000000004,185.83699999999996L289.9220000000004,188.25399999999996L290.6510000000004,190.19599999999997L291.2980000000004,193.26999999999998L289.9220000000004,195.04899999999998L284.34000000000043,200.30899999999997L287.25300000000044,204.03099999999998L289.7610000000004,206.21499999999997L290.3270000000004,208.319L292.1890000000004,208.319L291.7850000000004,212.76899999999998L287.5770000000004,212.76899999999998L288.1440000000004,215.03599999999997L287.8200000000004,218.83799999999997L285.2310000000004,216.08599999999996L284.8270000000004,214.22599999999994L285.8770000000004,212.28399999999993L286.2010000000004,211.79899999999992L283.6920000000004,211.87899999999993L282.2370000000004,213.65899999999993L280.7800000000004,214.30699999999993L279.64700000000045,213.09299999999993L278.59600000000046,212.36499999999992L272.85100000000045,212.68799999999993L269.6720000000005,212.43499999999995L267.4310000000005,209.96599999999995L266.78300000000047,208.72399999999996L259.39200000000045,200.25599999999997L259.1770000000005,195.72499999999997L255.94100000000049,192.11699999999996L253.4070000000005,193.51299999999995L252.12500000000048,191.05599999999995L250.64800000000048,193.01099999999997L249.68400000000048,190.92299999999997L249.9010000000005,188.01099999999997L251.2120000000005,184.27999999999997L247.0010000000005,171.38399999999996L250.12500000000048,169.58799999999997L254.84900000000047,169.60399999999996L256.87300000000045,166.48899999999995L255.73800000000045,159.53099999999995L263.63000000000045,155.10499999999996L260.01200000000046,153.26299999999995L259.68300000000045,152.21099999999996L254.29100000000045,151.45499999999996L254.03300000000044,148.23599999999996L254.94700000000043,147.80999999999997L255.19200000000043,145.40999999999997L253.52400000000043,143.98699999999997Z"
    stroke-width="1"
    stroke-linejoin="round"
    style="-webkit-tap-highlight-color: rgba(0, 0, 0, 0); stroke-linejoin: round;"></path>
  <path
    fill="#cccccc"
    stroke="#222222"
    d="M189.25,176.036L187.33,173.286L184.91600000000003,168.571L186.467,168.27L186.467,162.55200000000002L183.77100000000002,158.34500000000003L183.12300000000002,157.80500000000004L178.86200000000002,151.49500000000003L175.73300000000003,150.73900000000003L171.04100000000003,150.73900000000003L170.01600000000002,148.52800000000002L168.18200000000002,148.366L163.27300000000002,151.495L162.32200000000003,151.28300000000002L160.69600000000003,151.495L161.04600000000002,154.316L161.78400000000002,160.626L161.924,174.74200000000002L162.518,175.55100000000002L164.244,179.86700000000002L164.063,184.507L169.296,183.991L171.54999999999998,182.83200000000002L171.54999999999998,180.12600000000003L174.44899999999998,178.89900000000003L179.49399999999997,179.69700000000003L182.49999999999997,177.62200000000004L184.43299999999996,178.89900000000003L187.22499999999997,176.34400000000002L189.24999999999997,176.34400000000002"
    stroke-width="1"
    stroke-linejoin="round"
    style="-webkit-tap-highlight-color: rgba(0, 0, 0, 0); stroke-linejoin: round;"></path>
  <path
    fill="#cccccc"
    stroke="#222222"
    d="M150.32,178.864C150.32,178.864,152.826,175.446,155.676,176.571C155.676,176.571,156.74499999999998,177.255,155.91799999999998,178.22299999999998C155.91799999999998,178.22299999999998,151.92999999999998,179.07799999999997,150.31999999999996,178.86399999999998Z"
    stroke-width="1"
    stroke-linejoin="round"
    style="-webkit-tap-highlight-color: rgba(0, 0, 0, 0); stroke-linejoin: round;"></path>
  <path
    fill="#cccccc"
    stroke="#222222"
    d="M181.222,195.496L183.16400000000002,196.83100000000002L185.02400000000003,199.01600000000002L186.44000000000003,201.48300000000003L186.88500000000002,203.62500000000003L186.44000000000003,208.96700000000004L186.96600000000004,209.49300000000005L189.35300000000004,209.85600000000005L191.37600000000003,208.84500000000006L195.42100000000002,206.70100000000005L197.04000000000002,206.37700000000004L197.72700000000003,206.66100000000003L199.06200000000004,208.64300000000003L199.50700000000003,210.54400000000004L201.48900000000003,210.18000000000004L201.73200000000003,208.64300000000003L202.54100000000003,206.17500000000004L203.99800000000002,204.43500000000003L206.38400000000001,203.62500000000003L208.69000000000003,203.22100000000003L208.973,201.36100000000002L208.002,199.82500000000002L210.329,198.50900000000001L218.318,198.50900000000001L218.318,198.81300000000002L219.34900000000002,200.086L219.85500000000002,200.086L224.06300000000002,199.58200000000002L225.62,199.37900000000002L226.591,198.97400000000002L227.687,197.35600000000002L227.203,196.67900000000003L224.36,193.24900000000002L223.71900000000002,192.19100000000003L225.157,191.42900000000003L227.78400000000002,191.73300000000003L228.37900000000002,190.35400000000004L229.377,189.44100000000003L228.828,187.34100000000004L227.794,185.20000000000005L226.167,184.77500000000003L224.952,185.68800000000005L223.739,186.23100000000005L222.121,184.69400000000005L222.28400000000002,182.56300000000005L217.37500000000003,182.83200000000005L213.11300000000003,181.91600000000005L210.47000000000003,179.21800000000005L208.79900000000004,178.27100000000004L201.99700000000004,177.14600000000004L201.89400000000003,174.41800000000003L196.12300000000005,175.49700000000004L194.61200000000005,177.97900000000004L192.61600000000004,176.79200000000003L192.56200000000004,169.78000000000003L190.99800000000005,169.83300000000003L190.73500000000004,175.88400000000001L189.25000000000003,176.036L189.43300000000002,177.997L189.62600000000003,179.734L188.66100000000003,180.056L188.27500000000003,182.245L186.92300000000003,183.854L184.47800000000004,185.012L182.41700000000003,185.837L182.73900000000003,189.325L181.96700000000004,192.47799999999998Z"
    stroke-width="1"
    stroke-linejoin="round"
    style="-webkit-tap-highlight-color: rgba(0, 0, 0, 0); stroke-linejoin: round;"></path>
  <path
    fill="#cccccc"
    stroke="#222222"
    d="M181.222,195.496L177.999,197.342L177.244,200.04000000000002L176.542,200.741L171.85,205.37900000000002L171.85,210.544L169.045,213.30800000000002L160.415,213.30800000000002L162.141,210.71900000000002L163.273,208.13100000000003L164.352,204.40900000000002L164.945,198.961L164.945,194.96800000000002L164.945,189.62900000000002L164.063,184.507L169.16299999999998,184.005L171.54999999999998,182.832L171.54999999999998,180.126L174.44899999999998,178.899L179.49399999999997,179.697L182.49999999999997,177.622L184.30099999999996,178.812L187.22499999999997,176.34400000000002L189.24999999999997,176.34400000000002L189.79699999999997,179.55L188.66099999999997,180.056L188.31199999999998,182.03500000000003L187.03799999999998,183.717L182.41699999999997,185.83700000000002L182.73899999999998,189.32500000000002Z"
    stroke-width="1"
    stroke-linejoin="round"
    style="-webkit-tap-highlight-color: rgba(0, 0, 0, 0); stroke-linejoin: round;"></path>
  <path
    fill="#cccccc"
    stroke="#222222"
    d="M143.676,188.718C143.676,188.718,145.25699999999998,187.429,146.326,188.816C146.326,188.816,146.618,189.935,145.001,189.788C143.38400000000001,189.64200000000002,143.67600000000002,188.71800000000002,143.67600000000002,188.71800000000002Z"
    stroke-width="1"
    stroke-linejoin="round"
    style="-webkit-tap-highlight-color: rgba(0, 0, 0, 0); stroke-linejoin: round;"></path>
  <path
    fill="#cccccc"
    stroke="#222222"
    d="M142.581,198.3C142.581,198.3,143.45899999999997,196.45100000000002,144.18699999999998,198.34900000000002C144.70399999999998,199.70000000000002,142.654,199.83300000000003,142.581,198.3Z"
    stroke-width="1"
    stroke-linejoin="round"
    style="-webkit-tap-highlight-color: rgba(0, 0, 0, 0); stroke-linejoin: round;"></path>
  <path
    fill="#cccccc"
    stroke="#222222"
    d="M142.581,208.15L141.974,203.237L141.828,202.41L143.725,205.013L144.552,206.472C144.551,206.471,145.572,209.048,142.581,208.15Z"
    stroke-width="1"
    stroke-linejoin="round"
    style="-webkit-tap-highlight-color: rgba(0, 0, 0, 0); stroke-linejoin: round;"></path>
  <path
    fill="#cccccc"
    stroke="#222222"
    d="M259.837,212.685L256.265,212.608L250.58399999999997,218.06L246.313,218.838L245.82799999999997,220.051L244.93699999999998,220.78L238.302,215.117L239.356,213.498L238.78799999999998,210.909L238.707,209.291L237.898,207.981L237.959,206.34L238.302,206.13400000000001L238.78799999999998,204.92100000000002L236.523,204.11200000000002L234.428,207.12600000000003L234.128,209.93000000000004L233.625,213.30800000000005L233.527,216.64300000000006L234.72899999999998,217.84600000000006L236.03099999999998,220.05100000000007L237.43399999999997,223.35700000000008L237.93399999999997,225.15900000000008L237.33299999999997,226.86300000000008L236.83299999999997,230.67100000000008L237.33299999999997,231.5720000000001L236.83299999999997,232.97500000000008L234.62799999999996,236.8820000000001L232.72499999999997,237.4840000000001L231.22099999999998,238.6860000000001L229.91899999999998,237.4840000000001L227.165,239.2870000000001L229.91899999999998,241.89200000000008L224.409,241.89200000000008L224.426,243.23200000000008L224.831,245.21400000000008L224.063,245.4170000000001L223.82,246.9950000000001L224.507,247.5600000000001L224.668,248.81500000000008L221.797,251.6860000000001L221.797,253.3050000000001L222.566,253.3050000000001L226.248,250.8370000000001L229.363,249.4210000000001L233.732,253.1830000000001L236.685,253.10200000000012L238.707,254.11400000000012L241.458,255.40800000000013L241.727,258.6990000000001L242.861,260.9110000000001L244.61399999999998,263.7690000000001L246.39299999999997,265.3060000000001L247.44599999999997,266.6270000000001L247.24399999999997,268.15500000000014L249.62999999999997,268.55600000000015L251.21199999999996,270.45800000000014L252.82599999999996,266.9780000000001L251.51199999999997,265.80700000000013L251.80699999999996,264.4520000000001L253.27199999999996,264.71300000000014L256.34499999999997,263.05400000000014L257.31699999999995,261.35500000000013L256.00999999999993,259.68200000000013L255.40899999999993,259.02800000000013L255.32799999999995,258.6440000000001L254.42599999999996,257.38800000000015L254.83499999999995,252.96000000000015L255.65799999999996,251.32300000000015L256.472,250.79600000000016L257.43199999999996,250.68700000000015L258.328,250.71600000000015L257.541,247.96000000000015L262.154,247.53600000000014L262.223,248.91600000000014L264.72,249.01700000000014L269.857,243.63600000000014L267.622,239.13700000000014L265.519,238.78100000000015L263.141,233.89000000000016L261.202,234.05400000000014L256.76,219.85700000000014L256.683,219.49100000000013L256.905,219.04800000000012L257.363,218.45500000000013L257.687,218.20700000000014L258.144,217.92600000000013L258.516,217.81900000000013L259.02000000000004,217.92800000000014L259.69700000000006,218.23200000000014L260.47700000000003,219.04300000000015L260.973,219.78000000000014L260.582,218.62600000000015L260.327,216.51000000000013L260.072,214.73900000000015L260.028,213.63200000000015Z"
    stroke-width="1"
    stroke-linejoin="round"
    style="-webkit-tap-highlight-color: rgba(0, 0, 0, 0); stroke-linejoin: round;"></path>
  <path
    fill="#cccccc"
    stroke="#222222"
    d="M247.392,269.81L247.418,271.105L245.96200000000002,272.022L244.883,272.642L244.937,273.694L245.66600000000003,274.8L246.26000000000002,275.959L246.692,276.524L247.905,276.929L248.013,279.27599999999995H248.84900000000002L251.83200000000002,279.45899999999995L251.65900000000002,280.7219999999999L251.83200000000002,283.9409999999999L251.73300000000003,284.7079999999999L251.80700000000004,286.3169999999999L254.38000000000005,286.5649999999999L256.11300000000006,287.40699999999987L257.42600000000004,288.8919999999999L259.48100000000005,289.70799999999986L260.96500000000003,288.76899999999983L264.704,288.4209999999998L266.238,287.90099999999984L268.666,286.8369999999998L270.126,287.2579999999998L270.548,288.1499999999998L270.844,290.3779999999998L272.552,291.5409999999998L275.89500000000004,291.16999999999985L278.27000000000004,289.23899999999986L280.05300000000005,287.4809999999999L283.78100000000006,286.0379999999999L284.40700000000004,285.2569999999999L285.939,282.6609999999999L286.845,279.9099999999999V273.7819999999999L287.25100000000003,272.65599999999995L290.50300000000004,269.0609999999999L290.908,266.77899999999994L284.398,264.0659999999999L285.845,255.0109999999999L285.23,252.95299999999992L285.33700000000005,251.7659999999999L286.963,249.7159999999999L284.398,248.0979999999999L285.28200000000004,245.3929999999999L288.35800000000006,243.13599999999988L289.43600000000004,240.33099999999988L285.33700000000005,234.93699999999987L292.45700000000005,229.75799999999987L291.91700000000003,226.73699999999988L289.975,225.98099999999988L290.622,222.20699999999988L290.337,220.94599999999988L288.143,218.83599999999987L287.577,218.57799999999986L286.09,216.99999999999986L285.42499999999995,216.29199999999986L285.19599999999997,215.93099999999987L284.82699999999994,214.22599999999986L286.20099999999996,211.79899999999986L283.69199999999995,211.87899999999988L282.23699999999997,213.65799999999987L280.90099999999995,214.25199999999987L279.64699999999993,213.09299999999988L278.59599999999995,212.36399999999986L272.85099999999994,212.68699999999987L269.96999999999997,212.32899999999987L266.864,213.57699999999986L263.671,213.20599999999985L259.83799999999997,212.68499999999986L260.508,218.58099999999985L261.161,220.11899999999986C261.161,220.11899999999986,259.624,217.04299999999986,258.022,217.99199999999985C256.418,218.93999999999986,256.68,219.75899999999984,256.68,219.75899999999984L257.497,222.60399999999984L261.281,234.00799999999984L263.222,233.92799999999983L265.48699999999997,238.74099999999981L267.46999999999997,239.0239999999998L269.856,243.6359999999998L264.719,249.0169999999998L262.21,249.0569999999998L262.33099999999996,247.51999999999978L257.55799999999994,247.92399999999978L258.32699999999994,250.71599999999978C258.32699999999994,250.71599999999978,256.02099999999996,250.4729999999998,255.65699999999995,251.32199999999978C255.29299999999995,252.17099999999976,254.84799999999996,252.89899999999977,254.84799999999996,252.89899999999977L254.52399999999994,257.4299999999998C254.52399999999994,257.4299999999998,255.41399999999993,258.6839999999998,255.41399999999993,258.9269999999998C255.41399999999993,259.1699999999998,256.62799999999993,260.46399999999977,256.62799999999993,260.46399999999977L257.3159999999999,261.35399999999976L256.34399999999994,263.05299999999977L254.03799999999993,264.1459999999998L253.26999999999992,264.71199999999976L251.77199999999993,264.5909999999998L251.65099999999993,266.0859999999998L252.82399999999993,266.9769999999998L252.21799999999993,268.5949999999998L251.21099999999993,270.4569999999998L249.62899999999993,268.55499999999984L247.24199999999993,268.1539999999998L247.39199999999994,269.80999999999983Z"
    stroke-width="1"
    stroke-linejoin="round"
    style="-webkit-tap-highlight-color: rgba(0, 0, 0, 0); stroke-linejoin: round;"></path>
  <path fill="#cccccc" stroke="#222222" d="M344.19,132.564" stroke-width="1" stroke-linejoin="round" style="-webkit-tap-highlight-color: rgba(0, 0, 0, 0); stroke-linejoin: round;"></path>
  <path fill="#cccccc" stroke="#222222" d="M317.328,133.022" stroke-width="1" stroke-linejoin="round" style="-webkit-tap-highlight-color: rgba(0, 0, 0, 0); stroke-linejoin: round;"></path>
  <path
    fill="#cccccc"
    stroke="#222222"
    d="M287.82,218.838L288.144,215.035L287.577,212.768H291.785L292.189,208.318H290.45300000000003L289.76200000000006,206.214L287.2540000000001,204.029L284.4000000000001,200.383L289.9230000000001,195.048L291.2720000000001,193.138L290.6520000000001,190.195L289.9230000000001,188.253L289.8420000000001,185.83599999999998L288.5510000000001,184.68699999999998L292.0280000000001,176.926L292.2710000000001,175.469L291.6240000000001,172.233L294.8590000000001,164.546L292.2710000000001,162.60399999999998L293.8880000000001,159.934L291.7800000000001,158.414L291.6400000000001,156.161L290.9760000000001,153.947L289.8420000000001,151.68200000000002L286.1200000000001,150.06400000000002L288.5490000000001,147.79800000000003L288.8640000000001,145.16300000000004L309.82400000000007,133.99500000000003L314.97900000000004,136.80100000000004L317.32800000000003,133.02100000000004L319.04600000000005,134.51000000000005L320.59400000000005,133.65200000000004L344.19100000000003,132.56400000000005L346.725,134.80800000000005V137.56900000000005L345.74,138.78600000000006L346.725,140.29800000000006L346.232,142.63200000000006L345.247,145.13100000000006L345.707,147.00700000000006L345.971,147.62800000000007L347.384,148.12100000000007L348.797,149.00900000000007V150.65300000000008L347.975,152.7570000000001L346.826,154.43400000000008L345.117,154.9590000000001L343.538,156.7350000000001L343.07800000000003,159.4640000000001L341.401,161.9630000000001L341.071,163.7720000000001L340.973,164.8900000000001L339.1,164.9230000000001L337.983,163.5090000000001L334.038,165.5140000000001L332.427,165.8760000000001L331.73600000000005,165.7110000000001L330.38800000000003,164.6590000000001L327.494,164.7910000000001L325.95000000000005,166.00700000000012L325.32500000000005,168.3090000000001L324.47100000000006,169.8870000000001L322.0710000000001,173.4380000000001L321.1820000000001,175.6740000000001V184.4190000000001L319.2130000000001,187.2290000000001L316.42300000000006,189.9950000000001L315.77600000000007,190.7230000000001V192.0580000000001L316.9890000000001,194.2430000000001L317.1910000000001,195.4980000000001L316.3010000000001,197.0750000000001L314.6420000000001,198.4910000000001L313.3080000000001,199.0980000000001L312.9850000000001,198.6530000000001H308.4130000000001L306.5530000000001,200.0290000000001L305.2580000000001,201.32300000000012L305.46100000000007,202.90000000000012L305.5010000000001,207.39000000000013L306.8760000000001,207.95600000000013L308.1290000000001,207.91600000000014L309.38500000000005,209.25100000000015L310.1940000000001,210.42500000000015L311.2870000000001,211.39700000000016L312.7430000000001,212.81200000000015L313.2680000000001,214.47000000000014L312.9860000000001,217.66500000000013L312.7050000000001,219.38300000000012L310.8280000000001,222.76000000000013L310.5490000000001,223.16400000000013V225.16500000000013L311.6730000000001,224.94600000000014V228.35400000000013L310.7350000000001,229.88600000000014L309.6100000000001,232.35700000000014L308.0140000000001,231.85600000000014L305.7940000000001,229.69900000000013L304.7930000000001,229.66800000000012L304.4490000000001,230.32500000000013L304.38600000000014,231.26300000000012L304.79200000000014,232.54500000000013L305.38700000000017,234.04500000000013L305.7930000000002,235.04500000000013L305.85600000000017,236.48300000000012C305.85600000000017,236.48300000000012,301.13500000000016,235.54500000000013,300.1030000000002,238.20300000000012V241.0170000000001C300.1030000000002,241.0170000000001,300.8210000000002,245.0200000000001,305.4180000000002,244.4880000000001C305.6610000000002,244.46000000000012,305.3860000000002,247.1130000000001,305.3860000000002,247.1130000000001L303.1050000000002,249.1760000000001L303.1970000000002,251.0520000000001L304.19800000000015,254.0860000000001L304.22900000000016,256.1810000000001L303.29100000000017,258.3070000000001L302.85200000000015,260.33900000000006L302.1030000000001,262.84000000000003L301.2600000000001,264.372L301.1040000000001,265.528L300.8540000000001,265.99800000000005L296.5700000000001,268.15500000000003L295.0380000000001,267.59200000000004L292.9740000000001,265.93500000000006L292.5680000000001,265.46700000000004L290.9110000000001,266.78000000000003L284.4010000000001,264.067L285.8800000000001,255.113L285.2340000000001,252.955L285.3410000000001,251.768L285.8800000000001,251.229L286.9670000000001,249.71800000000002L284.4020000000001,248.10000000000002L285.1260000000001,245.51100000000002L288.3620000000001,243.13800000000003L289.44000000000005,240.33300000000003L286.41900000000004,236.23400000000004L285.34100000000007,234.93900000000005L292.46100000000007,229.76000000000005L291.92100000000005,226.73900000000006L289.97900000000004,225.98300000000006L290.62600000000003,222.20900000000006L290.30300000000005,220.77900000000005L288.14700000000005,218.83800000000005"
    stroke-width="1"
    stroke-linejoin="round"
    style="-webkit-tap-highlight-color: rgba(0, 0, 0, 0); stroke-linejoin: round;"></path>
  <path
    fill="#cccccc"
    stroke="#222222"
    d="M199.507,210.544L198.996,208.54500000000002L197.726,206.66000000000003L197.039,206.37700000000004L195.42,206.70000000000005L189.35199999999998,209.85500000000005L186.96499999999997,209.49200000000005L186.456,208.76300000000003L186.884,203.62400000000002L186.375,201.36900000000003L184.905,198.87400000000002L183.163,196.82900000000004L181.221,195.49400000000003L177.998,197.34100000000004L177.273,199.93200000000004L171.849,205.37800000000004V210.54300000000003L169.04399999999998,213.30700000000004H160.10299999999998L159.52599999999998,213.90800000000004L162.243,219.96000000000004C162.243,219.96000000000004,162.868,223.05400000000003,162.915,223.08600000000004C162.963,223.11700000000005,164.402,224.44800000000004,164.956,224.57300000000004C165.509,224.69900000000004,167.14399999999998,227.31300000000005,167.14399999999998,227.31300000000005C167.14399999999998,227.31300000000005,168.04899999999998,227.69200000000004,169.58299999999997,227.71600000000004C171.11699999999996,227.74100000000004,171.94499999999996,229.93000000000004,172.42299999999997,231.51400000000004C172.90099999999998,233.09800000000004,173.47899999999998,233.22400000000005,175.01299999999998,233.24900000000005C176.54699999999997,233.27300000000005,175.38899999999998,231.56300000000005,176.47099999999998,230.55800000000005C177.55299999999997,229.55200000000005,179.313,231.76600000000005,179.313,231.76600000000005L183.563,231.96600000000004C183.563,231.96600000000004,183.512,230.30600000000004,184.44199999999998,229.37600000000003C185.37199999999999,228.44500000000002,187.409,229.55200000000002,187.409,229.55200000000002L191.684,232.419L191.558,229.02300000000002L190.527,227.36500000000004L189.94799999999998,225.50400000000005L190.60699999999997,224.28100000000003L193.77099999999996,226.81000000000003L195.68899999999996,224.84900000000002L197.19899999999996,221.29000000000002L194.80199999999996,219.56300000000002L196.02099999999996,219.42700000000002L199.01899999999995,216.42800000000003L199.50699999999995,210.54400000000004Z"
    stroke-width="1"
    stroke-linejoin="round"
    style="-webkit-tap-highlight-color: rgba(0, 0, 0, 0); stroke-linejoin: round;"></path>
  <path fill="#cccccc" stroke="#222222" d="M199.555,210.531" stroke-width="1" stroke-linejoin="round" style="-webkit-tap-highlight-color: rgba(0, 0, 0, 0); stroke-linejoin: round;"></path>
  <path
    fill="#cccccc"
    stroke="#222222"
    d="M197.201,221.292L194.89499999999998,219.566L195.94299999999998,219.51L198.962,216.46699999999998L199.50699999999998,210.54299999999998L201.51799999999997,209.99299999999997L201.73199999999997,208.64099999999996L202.54099999999997,206.17299999999997L203.99799999999996,204.43299999999996L206.38499999999996,203.62299999999996L208.54999999999995,203.24399999999997L208.97399999999996,201.35799999999998L208.00299999999996,199.82199999999997L210.32899999999995,198.50699999999998H218.17899999999995L219.26799999999994,199.98399999999998L223.48299999999995,199.64899999999997L225.38299999999995,199.40899999999996L226.69499999999996,198.81899999999996L227.68699999999995,197.35399999999996L224.23399999999995,193.03799999999995L223.80799999999996,192.14199999999997L225.15699999999995,191.42799999999997L227.78399999999996,191.73199999999997L228.36199999999997,192.68999999999997L231.10099999999997,194.72499999999997L233.57399999999998,197.58399999999997L235.428,200.73899999999998L236.466,203.92699999999996L234.491,207.03099999999998L233.65,213.14899999999997L233.531,216.49499999999998L234.603,217.71999999999997L236.03,220.04999999999998L237.333,223.11999999999998L237.88,224.96299999999997L237.403,226.66299999999995C237.403,226.66299999999995,236.87,230.37599999999995,236.85899999999998,230.45599999999996C236.849,230.53699999999995,237.253,231.42699999999996,237.253,231.42699999999996L236.833,232.97399999999996L234.744,236.67499999999995L232.808,237.45599999999996L231.22,238.68499999999997L229.918,237.48299999999998L227.3,239.19599999999997L230.18800000000002,241.96099999999996L224.40800000000002,241.89199999999997L224.42200000000003,242.91399999999996L214.13700000000003,242.43499999999995L214.24500000000003,238.44299999999996L210.25300000000004,235.52999999999994L209.98400000000004,232.51099999999994L205.23700000000002,232.07799999999995C205.23700000000002,232.07799999999995,201.57000000000002,230.78299999999996,198.44100000000003,232.07799999999995L194.50400000000002,231.86199999999994C194.50400000000002,231.86199999999994,197.41600000000003,225.22699999999995,195.69100000000003,224.84899999999993L196.71500000000003,222.15399999999994L197.20100000000002,221.29199999999994Z"
    stroke-width="1"
    stroke-linejoin="round"
    style="-webkit-tap-highlight-color: rgba(0, 0, 0, 0); stroke-linejoin: round;"></path>
  <path
    fill="#cccccc"
    stroke="#222222"
    d="M198.441,232.08C202.331,230.98000000000002,205.56,232.109,205.56,232.109L209.90800000000002,232.505L210.353,235.60399999999998L214.246,238.445L214.142,242.28199999999998L224.385,242.91599999999997L224.82999999999998,245.21599999999998L224.06199999999998,245.41799999999998L223.83999999999997,246.85599999999997L224.63599999999997,247.31999999999996V248.56699999999998L221.79599999999996,251.527V253.54999999999998L219.36899999999997,253.34799999999998L216.86099999999996,255.976L213.42199999999997,256.058L212.81499999999997,258.323L211.31899999999996,256.18V253.833L208.32499999999996,253.994C208.32499999999996,253.994,208.80999999999997,254.075,207.83899999999997,251.768C206.86799999999997,249.462,205.08899999999997,250.676,205.08899999999997,250.676L203.18699999999998,252.456C203.18699999999998,252.456,201.08299999999997,251.161,197.84799999999998,249.503L196.67399999999998,241.26799999999997L197.92399999999998,239.95799999999997L202.49999999999997,240.21899999999997C202.49999999999997,240.21899999999997,202.84099999999998,240.04199999999997,202.94399999999996,239.82299999999998C203.04699999999997,239.60199999999998,203.45999999999995,238.313,203.45999999999995,238.313L203.80999999999995,236.23399999999998C203.80999999999995,236.23399999999998,203.69799999999995,235.60999999999999,203.64299999999994,235.509C203.58899999999994,235.41099999999997,203.09199999999996,234.97199999999998,203.09199999999996,234.97199999999998L202.15699999999995,234.78699999999998L201.02399999999994,234.93499999999997L200.51999999999995,235.08099999999996L199.99999999999994,235.49599999999995L199.46499999999995,235.86199999999997L199.04799999999994,236.09299999999996L198.55999999999995,236.28499999999997L198.09099999999995,236.36299999999997L197.68299999999996,236.30699999999996L197.31399999999996,236.10499999999996L197.10799999999998,235.88799999999995L196.908,235.55499999999995L196.742,235.10699999999994L196.63299999999998,234.59999999999994L196.58299999999997,234.18199999999993L196.56099999999998,233.80199999999994V233.47499999999994L196.56799999999998,233.10399999999993L196.61299999999997,232.89599999999993L197.08399999999997,232.03399999999993L198.44099999999997,232.07999999999993Z"
    stroke-width="1"
    stroke-linejoin="round"
    style="-webkit-tap-highlight-color: rgba(0, 0, 0, 0); stroke-linejoin: round;"></path>
  <path
    fill="#cccccc"
    stroke="#222222"
    d="M180.797,238.903L181.005,233.611L179.314,231.767L183.564,231.851L183.83599999999998,230.365L184.56199999999998,229.27700000000002L185.427,229.008L187.17,229.437L188.885,230.543L190.494,231.622L191.684,232.42000000000002L191.558,229.02400000000003L190.527,227.36600000000004L190.015,225.38000000000005L190.607,224.28200000000004L193.771,226.81100000000004L195.689,224.85000000000002C195.689,224.85000000000002,196.207,225.34400000000002,196.221,225.639C196.234,225.936,195.901,227.941,195.901,227.941L194.61800000000002,231.592L197.09900000000002,232.00400000000002L196.57700000000003,232.961C196.57700000000003,232.961,196.01900000000003,238.90900000000002,200.51700000000002,235.08100000000002C200.51700000000002,235.08100000000002,204.30900000000003,233.704,203.75100000000003,236.901C203.19300000000004,240.097,202.56100000000004,240.321,202.56100000000004,240.321L197.84600000000003,239.95L196.59200000000004,241.265H193.35600000000005L189.69,237C189.69,237,188.102,237.195,186.466,236.918C184.829,236.64100000000002,183.169,237.726,183.169,237.726L180.79700000000003,238.903Z"
    stroke-width="1"
    stroke-linejoin="round"
    style="-webkit-tap-highlight-color: rgba(0, 0, 0, 0); stroke-linejoin: round;"></path>
  <path
    fill="#cccccc"
    stroke="#222222"
    d="M197.849,249.502C194.612,247.84300000000002,193.48,251.03900000000002,193.48,251.03900000000002C193.48,251.03900000000002,189.231,250.514,186.238,249.866C183.244,249.21900000000002,181.586,251.76600000000002,181.586,251.76600000000002C181.586,251.76600000000002,181.586,251.76600000000002,180.17000000000002,250.71500000000003C178.75300000000001,249.66300000000004,177.459,250.27000000000004,177.459,250.27000000000004L171.836,247.11500000000004L170.137,246.83200000000005L169.49,244.89100000000005L166.9,245.90300000000005L164.999,243.51500000000004L165.444,245.57800000000003C165.444,245.57800000000003,166.29399999999998,245.86100000000002,163.583,247.72200000000004C160.873,249.58300000000003,157.928,246.39800000000002,157.928,246.39800000000002L157.788,238.37300000000002L158.804,235.88500000000002C158.804,235.88500000000002,158.38400000000001,229.716,158.208,229.29500000000002C158.033,228.87500000000003,157.08599999999998,228.59400000000002,157.051,226.948C157.016,225.3,156.84099999999998,225.055,158.80399999999997,224.424C160.76599999999996,223.793,161.18699999999998,225.722,161.18699999999998,225.722L163.956,224.21300000000002L164.322,224.23300000000003L165.14600000000002,224.67600000000004L166.08300000000003,225.75100000000003L167.23800000000003,227.35100000000003L168.33400000000003,227.61300000000003L170.08200000000002,227.80800000000002L171.17200000000003,228.69400000000002L172.08900000000003,230.507L172.69300000000004,232.227L173.37200000000004,232.995C173.37200000000004,232.995,174.40300000000005,233.23000000000002,175.19400000000005,233.141C175.98600000000005,233.052,175.85100000000006,232.73,175.85100000000006,232.73C175.85100000000006,232.73,175.91900000000007,232.214,175.99600000000007,231.458C176.07300000000006,230.7,176.47300000000007,230.562,176.56900000000007,230.49C177.78700000000006,229.556,179.31500000000008,231.77,179.31500000000008,231.77L181.00600000000009,233.614L180.7980000000001,238.906C180.7980000000001,238.906,184.8640000000001,236.499,186.98700000000008,236.985C189.11100000000008,237.46900000000002,189.51500000000007,236.762,189.83900000000008,237.086C190.1630000000001,237.40900000000002,193.3590000000001,241.27100000000002,193.3590000000001,241.27100000000002H196.59500000000008L197.84900000000007,249.502Z"
    stroke-width="1"
    stroke-linejoin="round"
    style="-webkit-tap-highlight-color: rgba(0, 0, 0, 0); stroke-linejoin: round;"></path>
  <path
    fill="#cccccc"
    stroke="#222222"
    d="M211.953,294.704C213.248,295.05400000000003,216.187,297.59000000000003,216.187,297.59000000000003L215.917,300.18C215.917,300.18,216.105,300.01800000000003,217.185,299.505C218.264,298.991,224.035,297.913,224.035,297.913L225.383,296.201L228.30200000000002,296.30400000000003L228.22600000000003,291.788L237.07800000000003,291.737L237.10300000000004,288.516C237.10300000000004,288.516,237.45900000000003,286.84200000000004,238.09200000000004,286.107C238.72600000000003,285.372,239.96900000000005,285.32000000000005,240.85700000000003,285.244C241.74500000000003,285.16900000000004,242.09900000000002,285.22,243.54500000000002,286.23400000000004C244.99,287.24800000000005,246.56400000000002,290.62100000000004,246.56400000000002,290.62100000000004L248.187,286.66400000000004L248.592,285.01700000000005L248.012,283.47L247.883,281.49100000000004L248.012,279.27700000000004L247.823,276.90500000000003L246.59,276.39300000000003L246.26,275.959L245.666,274.8L244.932,273.58500000000004L244.884,272.64200000000005L247.414,270.86500000000007L247.357,266.51500000000004L246.594,265.557L245.493,264.528L244.613,263.769L244.074,262.89L241.726,258.699L241.456,255.40800000000002L236.684,253.102L233.731,253.183L229.362,249.421L227.772,250.144L226.38299999999998,250.775L223.92799999999997,252.39100000000002L222.56499999999997,253.305H221.79599999999996L219.36899999999997,253.346L216.86099999999996,255.974L213.54299999999995,256.053L212.81499999999994,258.32099999999997L211.31899999999993,256.178V254.003L208.51999999999992,253.981L208.36499999999992,253.23399999999998L207.74699999999993,251.56099999999998L207.31299999999993,250.90499999999997L206.86499999999992,250.54499999999996L206.00099999999992,250.36599999999996L205.3209999999999,250.55099999999996L203.18699999999993,252.45599999999996L204.47299999999993,254.55999999999997L203.89099999999993,258.738L203.20499999999993,263.944L205.57899999999992,261.897L208.62299999999993,261.921L209.43799999999993,263.86199999999997C209.43799999999993,263.86199999999997,210.68499999999995,261.96799999999996,211.35599999999994,262.328C212.02799999999993,262.688,214.87999999999994,264.294,214.87999999999994,264.294L219.86599999999993,264.486L221.63999999999993,267.33799999999997L214.43299999999994,276.95799999999997C214.43299999999994,276.95799999999997,217.07599999999994,279.16799999999995,216.24099999999993,280.356C215.40499999999992,281.543,215.67499999999993,281.461,214.59499999999994,281.515C213.51699999999994,281.56899999999996,212.65299999999993,281.138,212.40999999999994,280.868C212.16699999999994,280.598,211.68199999999993,279.466,211.68199999999993,279.466V286.776C211.68199999999993,286.776,213.67799999999994,287.693,213.19199999999992,290.444C212.7069999999999,293.195,210.87699999999992,293.555,210.60299999999992,293.949C210.32999999999993,294.343,209.98299999999992,294.435,209.98299999999992,294.435L211.87599999999992,294.684"
    stroke-width="1"
    stroke-linejoin="round"
    style="-webkit-tap-highlight-color: rgba(0, 0, 0, 0); stroke-linejoin: round;"></path>
  <path
    fill="#cccccc"
    stroke="#222222"
    d="M203.206,263.943L205.547,261.925L208.625,261.92L209.465,263.942L209.997,263.13L210.37400000000002,262.731L211.00900000000001,262.31L211.229,262.286L214.883,264.293L219.869,264.485L221.643,267.337L214.436,276.957L215.22400000000002,277.714L215.72000000000003,278.296L216.22400000000002,279.104L216.406,279.823L216.139,280.506L215.667,281.195L215.103,281.368L214.268,281.515L213.346,281.36199999999997L212.686,281.07699999999994L212.42700000000002,280.7629999999999L211.687,279.75999999999993L211.597,279.57199999999995L211.687,286.77599999999995C211.687,286.77599999999995,212.86,287.51899999999995,212.959,288.12899999999996C213.058,288.739,213.257,288.828,213.263,289.32599999999996C213.268,289.82199999999995,213.142,290.727,213.119,290.82C213.096,290.913,212.525,292.277,212.427,292.409C212.328,292.543,211.69799999999998,293.18399999999997,211.69799999999998,293.18399999999997L210.32399999999998,294.03999999999996H209.78599999999997L208.41299999999998,294.25499999999994L207.035,295.09599999999995L205.381,296.5559999999999L203.786,298.04599999999994L202.484,298.6839999999999L202.625,289.4729999999999L202.867,281.1789999999999L202.874,266.53399999999993L203.206,263.9429999999999Z"
    stroke-width="1"
    stroke-linejoin="round"
    style="-webkit-tap-highlight-color: rgba(0, 0, 0, 0); stroke-linejoin: round;"></path>
  <path
    fill="#cccccc"
    stroke="#222222"
    d="M253.268,315.386C252.63,321.166,252.311,322.045,252.311,322.045C252.311,322.045,250.67600000000002,324.833,245.733,326.069C245.733,326.069,242.90200000000002,330.05600000000004,242.743,331.92900000000003C242.585,333.80300000000005,239.394,335.19800000000004,238.83599999999998,337.35C238.277,339.504,236.20399999999998,340.699,236.20399999999998,342.613C236.20399999999998,344.525,234.569,341.934,234.569,341.934L231.26,345.88100000000003C231.26,345.88100000000003,229.46699999999998,344.684,228.989,346.63800000000003C228.51,348.591,228.112,346.87600000000003,228.19,348.51000000000005C228.271,350.14500000000004,227.912,350.94300000000004,227.912,350.94300000000004L227.47400000000002,352.65600000000006L225.55900000000003,354.53100000000006L222.17100000000002,355.92600000000004L219.10100000000003,357.08200000000005L218.46300000000002,357.761L218.104,360.03200000000004C218.104,360.03200000000004,217.38600000000002,360.869,216.988,362.105C216.59,363.341,216.59,363.581,216.59,363.581C216.59,363.581,212.643,364.498,211.00900000000001,368.844L208.138,368.204L206.942,365.813L207.102,363.221C207.102,363.221,204.67000000000002,365.055,204.67000000000002,365.733C204.67000000000002,366.411,203.913,366.371,203.913,366.371L202.119,363.65999999999997L199.687,364.65599999999995L199.049,361.10699999999997C199.049,361.10699999999997,199.12900000000002,359.67199999999997,199.488,359.753C199.847,359.832,201.202,358.79499999999996,201.202,358.79499999999996L197.375,356.006C197.375,356.006,197.774,357.95899999999995,197.375,358.796C196.976,359.634,196.976,359.873,196.737,359.873C196.498,359.873,195.939,359.155,195.939,359.155C195.939,359.155,196.299,357.23999999999995,194.983,356.205C193.667,355.169,194.225,353.933,194.225,353.933L196.338,352.258C196.338,352.258,197.215,351.542,198.131,351.85999999999996C199.048,352.17799999999994,200.923,352.45899999999995,200.923,352.45899999999995L202.717,352.9769999999999C202.717,352.9769999999999,207.256,353.80799999999994,208.854,352.09599999999995L207.949,344.83699999999993L207.42000000000002,340.79499999999996L206.24800000000002,332.36899999999997L205.681,327.268L208.327,326.065L208.23499999999999,323.76L217.182,324.082L217.643,326.435L228.619,329.248L228.712,325.051L231.52499999999998,320.024L234.004,322.369L236.6,320.76300000000003L236.13899999999998,318.50300000000004L238.35,318.37000000000006L239.69,315.6890000000001L242.78,316.7950000000001L243.666,313.6120000000001L242.135,312.2750000000001L242.1,310.8460000000001L242.873,308.3540000000001L244.856,307.2010000000001L250.90099999999998,307.42800000000005L251.21499999999997,310.38400000000007L251.78599999999997,311.9630000000001L253.53599999999997,312.5520000000001L254.17899999999997,312.1470000000001L253.396,315.3240000000001"
    stroke-width="1"
    stroke-linejoin="round"
    style="-webkit-tap-highlight-color: rgba(0, 0, 0, 0); stroke-linejoin: round;"></path>
  <path fill="#cccccc" stroke="#222222" d="M248.01199,279.27701L251.832,279.45901000000003" stroke-width="1" stroke-linejoin="round" style="-webkit-tap-highlight-color: rgba(0, 0, 0, 0); stroke-linejoin: round;"></path>
  <path
    fill="#cccccc"
    stroke="#222222"
    d="M205.68,327.267L205.211,321.915L204.24,314.47200000000004L203.59300000000002,308.08000000000004L202.48100000000002,301.93100000000004V299.01900000000006L202.48300000000003,298.58400000000006L203.39100000000002,298.41200000000003L205.22100000000003,296.70200000000006L207.03200000000004,295.095L207.94600000000003,294.536L208.56500000000003,294.23L209.76000000000002,294.257L210.217,294.321L211.13600000000002,294.499L212.28300000000002,294.822L213.44000000000003,295.479L214.729,296.407L216.01600000000002,297.44L216.18800000000002,297.587L215.918,300.17699999999996L217.3,299.45099999999996L218.38400000000001,299.11999999999995L219.143,298.93199999999996L220.35,298.65799999999996L221.498,298.41399999999993L222.79,298.1529999999999L223.956,297.92599999999993L225.384,296.1979999999999L228.303,296.30099999999993L228.227,291.7849999999999L237.079,291.7339999999999L237.104,288.5129999999999L237.387,287.5079999999999L237.773,286.5859999999999L238.32399999999998,285.8859999999999L238.70199999999997,285.6539999999999L239.12299999999996,285.4929999999999L239.63899999999995,285.37399999999985L240.02399999999994,285.31799999999987L240.69199999999995,285.2549999999999L241.03099999999995,285.22899999999987H241.46899999999994L241.72399999999993,285.25399999999985L241.99899999999994,285.32899999999984L242.39899999999994,285.50199999999984L242.68899999999994,285.66499999999985L243.19299999999993,285.9859999999999L243.63399999999993,286.2959999999999L244.04599999999994,286.6629999999999L244.38099999999994,287.0359999999999L244.65599999999995,287.3809999999999L245.04699999999994,287.9309999999999L245.40699999999995,288.48999999999995L245.88499999999996,289.30699999999996L246.42799999999997,290.33699999999993L246.57099999999997,290.6039999999999L248.18799999999996,286.66099999999994L248.59299999999996,285.01399999999995L248.01299999999995,283.4669999999999L247.88399999999996,281.48799999999994L248.01299999999995,279.27399999999994L251.83199999999994,279.45699999999994L251.67899999999995,280.57199999999995L251.83199999999994,283.80499999999995L251.73299999999995,284.70399999999995L251.80299999999994,286.23099999999994L254.37999999999994,286.5609999999999L256.00699999999995,287.35099999999994L257.42599999999993,288.8879999999999L259.48099999999994,289.7039999999999L261.09899999999993,288.6579999999999L264.70399999999995,288.4169999999999L268.66599999999994,286.8329999999999L270.1259999999999,287.2539999999999L270.54799999999994,288.1459999999999L270.82099999999997,290.2019999999999L272.551,291.53699999999986L275.76599999999996,291.18099999999987L280.05199999999996,287.4779999999999L283.17699999999996,286.2669999999999L283.78,286.03499999999985L284.006,288.47499999999985V289.11199999999985L284.64399999999995,289.7909999999998L284.84299999999996,290.8269999999998L284.12499999999994,291.8229999999998L282.2919999999999,292.8999999999998L282.0929999999999,296.6869999999998L282.6109999999999,298.20199999999977C282.6109999999999,298.20199999999977,283.2499999999999,300.15499999999975,282.5719999999999,301.1509999999998C281.8939999999999,302.1479999999998,278.54399999999987,304.2219999999998,278.54399999999987,304.2219999999998C278.54399999999987,304.2219999999998,273.60199999999986,308.6069999999998,272.5649999999999,309.4439999999998C271.5279999999999,310.2809999999998,270.4919999999999,310.43999999999977,270.4919999999999,310.43999999999977L269.5359999999999,309.84199999999976L267.9009999999999,308.36699999999973L265.5469999999999,309.9999999999997L257.4539999999999,310.0799999999997L255.2179999999999,310.8399999999997L253.90499999999992,312.7099999999997L251.86299999999991,312.1779999999997L251.2119999999999,310.37899999999973L250.7109999999999,307.56599999999975L247.3429999999999,307.28999999999974L244.8529999999999,307.1969999999997L242.8699999999999,308.34999999999974L242.03999999999988,311.02499999999975L242.1319999999999,312.27099999999973L243.6629999999999,313.6079999999997L242.7769999999999,316.7909999999997L239.6869999999999,315.6849999999997L238.4419999999999,318.35999999999973L236.13599999999988,318.49899999999974L236.5969999999999,320.75899999999973L234.10699999999989,322.46499999999975L231.52299999999988,320.02099999999973L228.7099999999999,325.0479999999997L228.6169999999999,329.2449999999997L217.6409999999999,326.43199999999973L217.1799999999999,324.0789999999997L208.2329999999999,323.7569999999997L208.3249999999999,326.0619999999997L206.7109999999999,326.8939999999997L205.6799999999999,327.2669999999997Z"
    stroke-width="1"
    stroke-linejoin="round"
    style="-webkit-tap-highlight-color: rgba(0, 0, 0, 0); stroke-linejoin: round;"></path>
  <path
    fill="#cccccc"
    stroke="#222222"
    d="M148.048,310.832L147.279,311.924L148.129,315.768L147.684,317.30499999999995L145.945,316.53599999999994L145.338,314.34999999999997L144.934,313.13699999999994L143.559,311.35699999999997L143.316,309.659L138.38,307.312L135.063,308.76800000000003C135.063,308.76800000000003,133.36399999999998,309.77900000000005,133.32399999999998,309.94100000000003C133.283,310.10400000000004,132.91899999999998,311.23600000000005,132.91899999999998,311.23600000000005L128.38799999999998,315.44300000000004L124.62599999999998,315.88800000000003L123.41299999999998,317.30400000000003L122.60399999999998,318.841L120.82399999999998,319.205L120.21799999999999,320.378L119.49,320.70099999999996L118.67999999999999,320.45899999999995L118.27499999999999,320.09399999999994L118.43799999999999,318.6789999999999V317.2229999999999L117.79099999999998,315.5639999999999L116.65799999999999,313.3799999999999L116.94099999999999,308.99599999999987L117.18399999999998,306.7039999999999L121.02699999999999,306.3809999999999C121.02699999999999,306.3809999999999,123.00999999999999,306.5019999999999,123.576,304.7629999999999C124.142,303.02399999999994,124.58699999999999,302.2949999999999,124.58699999999999,302.2949999999999C124.58699999999999,302.2949999999999,125.75999999999999,304.9249999999999,127.05499999999999,304.7629999999999C128.349,304.60099999999994,131.1,303.2659999999999,131.1,303.2659999999999L134.337,302.74099999999993L138.463,303.50999999999993L140.52599999999998,303.75299999999993L140.16199999999998,305.7749999999999L142.42699999999996,304.9249999999999C142.42699999999996,304.9249999999999,142.50799999999995,304.0339999999999,143.64099999999996,304.3989999999999C144.77299999999997,304.76299999999986,146.10699999999997,305.37099999999987,146.10699999999997,305.37099999999987C146.10699999999997,305.37099999999987,149.66799999999998,305.4519999999999,149.66799999999998,305.89499999999987C149.66799999999998,306.3409999999999,149.30399999999997,307.1899999999999,149.10099999999997,307.27099999999984C148.89899999999997,307.35199999999986,147.07899999999998,309.13099999999986,147.11899999999997,309.7789999999998C147.15899999999996,310.42699999999985,148.04799999999997,310.8319999999998,148.04799999999997,310.8319999999998Z"
    stroke-width="1"
    stroke-linejoin="round"
    style="-webkit-tap-highlight-color: rgba(0, 0, 0, 0); stroke-linejoin: round;"></path>
  <path fill="#cccccc" stroke="#222222" d="M158.116,314.16501L157.79201,314.97601" stroke-width="1" stroke-linejoin="round" style="-webkit-tap-highlight-color: rgba(0, 0, 0, 0); stroke-linejoin: round;"></path>
  <path
    fill="#cccccc"
    stroke="#222222"
    d="M126.681,328.198L128.792,325.805L129.77700000000002,326.274L130.621,325.805L131.137,324.726L131.559,320.364L134.514,318.441L137.657,317.082L138.595,316.049L139.439,314.173C139.439,314.173,140.611,313.283,140.94,313.564C141.268,313.846,141.924,314.363,141.878,314.502C141.831,314.642,141.88,317.504,141.88,317.504L140.002,318.488L138.78300000000002,319.38C138.78300000000002,319.38,138.455,320.169,138.36100000000002,320.853C138.26800000000003,321.538,138.127,322.475,138.127,322.475C138.127,322.475,136.954,323.321,136.90800000000002,323.461C136.86100000000002,323.60200000000003,137.424,324.774,137.424,324.774L138.69,324.446L139.816,322.523L140.144,321.25500000000005L140.942,320.31700000000006L142.49,319.2850000000001C142.49,319.2850000000001,143.14700000000002,320.0830000000001,143.19400000000002,321.0680000000001C143.241,322.0520000000001,143.85100000000003,321.6780000000001,143.85100000000003,321.6780000000001L145.39900000000003,322.5220000000001C145.39900000000003,322.5220000000001,146.33700000000002,322.4280000000001,146.05500000000004,322.8970000000001C145.77400000000003,323.36700000000013,144.64800000000002,324.7260000000001,144.64800000000002,324.7260000000001C144.64800000000002,324.7260000000001,144.461,324.9600000000001,144.55400000000003,325.24200000000013C144.64800000000002,325.52300000000014,146.10800000000003,326.1340000000001,146.10800000000003,326.1340000000001C146.10800000000003,326.1340000000001,146.14900000000003,327.40000000000015,145.68000000000004,328.0090000000001C145.21100000000004,328.61900000000014,145.02300000000002,331.1060000000001,145.02300000000002,331.1060000000001C145.02300000000002,331.1060000000001,144.69500000000002,331.3400000000001,144.27300000000002,330.4500000000001C143.85100000000003,329.5580000000001,143.99200000000002,328.4790000000001,143.99200000000002,328.4790000000001C143.99200000000002,328.4790000000001,143.61700000000002,327.7770000000001,143.335,327.9630000000001C143.053,328.15100000000007,141.693,328.1980000000001,141.693,328.1980000000001C141.693,328.1980000000001,141.459,329.1820000000001,141.084,329.4180000000001C140.709,329.6510000000001,140.334,330.4970000000001,140.334,330.6370000000001C140.334,330.7770000000001,138.645,331.52800000000013,138.645,331.52800000000013L139.208,334.0140000000001C139.208,334.0140000000001,138.59799999999998,335.18600000000015,138.317,335.5150000000001C138.036,335.8420000000001,137.37900000000002,335.8890000000001,137.473,336.3580000000001C137.567,336.82800000000015,137.661,337.9540000000001,137.28500000000003,338.1880000000001C136.91000000000003,338.4230000000001,136.729,337.7650000000001,136.39800000000002,338.4690000000001C136.06500000000003,339.1710000000001,135.97200000000004,339.5470000000001,135.78400000000002,339.8750000000001C135.59600000000003,340.2040000000001,133.86100000000002,340.3920000000001,133.86100000000002,340.3920000000001L133.58,339.454L132.97,338C132.97,338,133.533,337.249,133.58,336.874C133.627,336.499,133.53400000000002,335.46700000000004,133.346,335.46700000000004C133.15800000000002,335.46700000000004,132.254,335.27900000000005,132.096,335.46700000000004C131.939,335.65500000000003,131.375,337.343,131.375,337.343L131.187,338.702L130.71800000000002,339.502L129.734,339.313L129.124,338.844L129.828,337.67199999999997L130.11,337.296L129.828,336.49899999999997L128.89000000000001,336.45199999999994L128.09300000000002,335.41999999999996L127.99900000000002,334.71599999999995L128.79600000000002,334.43499999999995L129.21800000000002,333.6859999999999L129.03000000000003,332.3259999999999L128.27900000000002,331.9959999999999L128.18500000000003,332.8419999999999L126.07500000000003,332.4669999999999L125.09000000000003,331.48099999999994L124.29300000000003,330.40199999999993L126.16900000000004,329.1359999999999L126.68100000000004,328.1979999999999Z"
    stroke-width="1"
    stroke-linejoin="round"
    style="-webkit-tap-highlight-color: rgba(0, 0, 0, 0); stroke-linejoin: round;"></path>
  <path
    fill="#cccccc"
    stroke="#222222"
    d="M117.394,335.043C117.394,335.043,116.831,336.076,116.831,336.216C116.831,336.357,117.113,337.43600000000004,117.113,337.43600000000004L118.004,337.90500000000003C118.004,337.90500000000003,118.33200000000001,337.67100000000005,118.426,337.389C118.52,337.108,118.708,336.029,118.708,336.029V335.372L120.16199999999999,335.46700000000004C120.16199999999999,335.46700000000004,120.443,335.65400000000005,120.67699999999999,335.84200000000004C120.91099999999999,336.03000000000003,120.91099999999999,336.03000000000003,120.91099999999999,336.03000000000003C120.91099999999999,336.03000000000003,121.66199999999999,335.233,121.70899999999999,335.045C121.75599999999999,334.857,122.03799999999998,335.421,121.89699999999999,334.624C121.75699999999999,333.824,121.288,333.497,121.288,333.497C121.288,333.497,121.053,333.122,120.91199999999999,332.79400000000004C120.77199999999999,332.46700000000004,121.663,332.278,121.663,332.278L122.36699999999999,331.199L123.07,330.07300000000004V329.51000000000005L122.55399999999999,328.66600000000005L121.19399999999999,327.7730000000001L120.49099999999999,326.9500000000001H119.59899999999999L118.755,327.3040000000001L118.051,328.4770000000001L117.723,328.8990000000001L117.113,328.5250000000001L117.066,327.5870000000001L116.41,326.9500000000001H115.66L114.862,326.3670000000001H114.065L113.831,327.63400000000007L114.34700000000001,329.04100000000005L114.67500000000001,330.07200000000006L115.894,330.21400000000006L116.644,330.49500000000006L117.16000000000001,333.82300000000004L117.394,335.04300000000006Z"
    stroke-width="1"
    stroke-linejoin="round"
    style="-webkit-tap-highlight-color: rgba(0, 0, 0, 0); stroke-linejoin: round;"></path>
  <path
    fill="#cccccc"
    stroke="#222222"
    d="M108.891,313.509L110.099,312.72200000000004C110.099,312.72200000000004,110.89500000000001,312.235,110.973,312.235C111.05,312.235,112.901,312.029,112.901,312.029C112.901,312.029,113.466,312.004,113.49199999999999,312.158C113.51799999999999,312.31100000000004,113.43999999999998,312.439,113.49199999999999,312.64500000000004C113.544,312.85100000000006,113.44099999999999,313.21400000000006,113.389,313.509C113.33699999999999,313.802,113.18299999999999,314.934,113.18299999999999,314.934C113.18299999999999,314.934,112.85,315.345,112.72099999999999,315.42100000000005C112.59199999999998,315.49800000000005,111.19899999999998,315.11300000000006,111.19899999999998,315.11300000000006L108.78699999999998,313.50900000000007H108.89099999999998Z"
    stroke-width="1"
    stroke-linejoin="round"
    style="-webkit-tap-highlight-color: rgba(0, 0, 0, 0); stroke-linejoin: round;"></path>
  <path
    fill="#cccccc"
    stroke="#222222"
    d="M114.882,318.61L116.50200000000001,318.252C116.50200000000001,318.252,117.016,318.021,117.016,318.71500000000003C117.016,319.40900000000005,116.91300000000001,319.89700000000005,116.476,319.999C116.039,320.103,115.268,319.896,115.139,319.74300000000005C115.00999999999999,319.5880000000001,114.88199999999999,318.61000000000007,114.88199999999999,318.61000000000007Z"
    stroke-width="1"
    stroke-linejoin="round"
    style="-webkit-tap-highlight-color: rgba(0, 0, 0, 0); stroke-linejoin: round;"></path>
  <path
    fill="#cccccc"
    stroke="#222222"
    d="M116.167,323.649L117.864,324.035C117.864,324.035,118.429,323.932,118.301,324.447C118.172,324.961,117.298,325.65500000000003,117.015,325.758C116.732,325.861,115.94800000000001,325.166,115.94800000000001,325.166C115.94800000000001,325.166,116.012,324.344,115.94800000000001,324.189C115.88400000000001,324.035,116.167,323.649,116.167,323.649Z"
    stroke-width="1"
    stroke-linejoin="round"
    style="-webkit-tap-highlight-color: rgba(0, 0, 0, 0); stroke-linejoin: round;"></path>
  <path fill="#cccccc" stroke="#222222" d="M138.38,307.312" stroke-width="1" stroke-linejoin="round" style="-webkit-tap-highlight-color: rgba(0, 0, 0, 0); stroke-linejoin: round;"></path>
  <path fill="#cccccc" stroke="#222222" d="M159.091,307.863" stroke-width="1" stroke-linejoin="round" style="-webkit-tap-highlight-color: rgba(0, 0, 0, 0); stroke-linejoin: round;"></path>
  <path
    fill="#cccccc"
    stroke="#222222"
    d="M117.182,306.705L116.697,303.55L115.96900000000001,302.01300000000003L114.998,300.63800000000003L114.108,300.15200000000004H112.328L111.438,300.63800000000003L110.387,300.557L108.44500000000001,299.666L107.879,298.938H106.584L104.48,299.828L102.781,299.989L101.406,298.048L101,296.348V285.992L101.647,284.85900000000004L103.18400000000001,283.564L104.72200000000001,284.05L105.77400000000002,285.425L106.17900000000002,285.91L107.15000000000002,286.07300000000004L107.63600000000002,284.939L108.44500000000002,284.211L109.09200000000003,283.887L115.64100000000003,283.834L116.51600000000003,284.646L117.52000000000004,285.18L118.39600000000004,285.779V286.963L117.90900000000005,288.096C117.90900000000005,288.096,117.95000000000005,288.541,117.90900000000005,288.662C117.86800000000005,288.78299999999996,117.70700000000005,290.15799999999996,117.70700000000005,290.15799999999996L118.07100000000005,291.57499999999993L117.82900000000005,292.30299999999994L119.77100000000004,290.56399999999996L120.37800000000004,287.81199999999995L121.06600000000005,286.80099999999993L121.39000000000004,286.2749999999999L121.87500000000004,285.9919999999999C121.87500000000004,285.9919999999999,122.48200000000004,286.6799999999999,122.60400000000004,286.8429999999999C122.72500000000004,287.0039999999999,123.25100000000005,287.65199999999993,123.25100000000005,287.65199999999993L124.30300000000005,287.8549999999999L124.95000000000006,287.0449999999999L126.08300000000006,286.5599999999999C126.08300000000006,286.5599999999999,127.45800000000006,286.4379999999999,127.58000000000006,286.5599999999999C127.70200000000006,286.68099999999987,128.83400000000006,287.4899999999999,128.83400000000006,287.4899999999999L129.56300000000007,287.6119999999999L131.78800000000007,286.3569999999999L132.39500000000007,285.3449999999999C132.39500000000007,285.3449999999999,133.00100000000006,283.84899999999993,133.08300000000006,283.56499999999994C133.16400000000004,283.28299999999996,133.69000000000005,282.1499999999999,133.69000000000005,282.1499999999999L134.86300000000006,281.1389999999999H137.16900000000007L138.94900000000007,281.5029999999999L140.36500000000007,281.9469999999999L141.86200000000008,282.5529999999999L142.1860000000001,281.4209999999999C142.1860000000001,281.4209999999999,142.67200000000008,279.9639999999999,140.2040000000001,279.59999999999985C137.7360000000001,279.2359999999999,137.13000000000008,279.0339999999999,137.13000000000008,279.0339999999999C137.13000000000008,279.0339999999999,136.88700000000009,277.4559999999999,137.6560000000001,276.7689999999999C138.4250000000001,276.0809999999999,140.0430000000001,276.4439999999999,140.0430000000001,276.4439999999999C140.0430000000001,276.4439999999999,141.9440000000001,277.1319999999999,142.3890000000001,277.6189999999999C142.8340000000001,278.1039999999999,144.8580000000001,279.8749999999999,144.89800000000008,282.87799999999993C144.91500000000008,284.2129999999999,144.69600000000008,284.3739999999999,144.69600000000008,284.3739999999999L146.1930000000001,285.5059999999999L147.6090000000001,285.8709999999999C147.6090000000001,285.8709999999999,148.3780000000001,285.9919999999999,148.4590000000001,286.1139999999999C148.54000000000008,286.23599999999993,149.71300000000008,287.44999999999993,149.71300000000008,287.44999999999993L152.0190000000001,289.3909999999999L152.46400000000008,290.8469999999999L152.7880000000001,292.6259999999999L153.0310000000001,293.92099999999994L155.3780000000001,294.16399999999993L155.8640000000001,294.20399999999995V296.75199999999995L154.32600000000008,299.26099999999997L154.36700000000008,300.23199999999997L155.13600000000008,301.20399999999995L156.59300000000007,302.82199999999995C156.59300000000007,302.82199999999995,156.75500000000008,305.12799999999993,156.59300000000007,305.53299999999996C156.43100000000007,305.93699999999995,155.82500000000007,306.342,155.62200000000007,306.705C155.42000000000007,307.06899999999996,154.69100000000006,307.798,154.32700000000008,307.87899999999996L154.08600000000007,308.23999999999995L154.29300000000006,308.77899999999994L155.83100000000007,309.32399999999996L159.09900000000007,307.95199999999994L160.63700000000009,308.75499999999994L163.1930000000001,309.32399999999996L162.4590000000001,311.15599999999995L161.2110000000001,312.31199999999995L159.1970000000001,309.81199999999995L158.82000000000008,310.376L158.5670000000001,312.92199999999997L157.6990000000001,314.97599999999994L155.7330000000001,311.7049999999999L154.2920000000001,310.78599999999994L151.3350000000001,310.99399999999997L149.8780000000001,310.38699999999994L148.3350000000001,310.76399999999995L147.4660000000001,310.42199999999997L147.1270000000001,309.779L147.40400000000008,309.10699999999997L147.92700000000008,308.428L148.60100000000008,307.709L149.33300000000008,306.996L149.6750000000001,305.894L148.5610000000001,305.535L146.6470000000001,305.389L145.9660000000001,305.30400000000003L143.50600000000009,304.36100000000005L142.8780000000001,304.35600000000005L142.5650000000001,304.5880000000001L141.99600000000012,305.0880000000001L140.16800000000012,305.7750000000001L140.53200000000012,303.7530000000001L138.46900000000014,303.5100000000001L135.40300000000013,302.9380000000001L134.34300000000013,302.7420000000001L131.27300000000014,303.24000000000007L129.98100000000014,303.7800000000001L127.35300000000014,304.7140000000001L126.45600000000013,304.6510000000001L125.92600000000013,304.2720000000001L124.81000000000013,302.7270000000001L124.59400000000014,302.2970000000001L123.99200000000013,303.61500000000007L123.53800000000014,304.88400000000007L122.89200000000014,305.7950000000001L121.80000000000014,306.3070000000001L120.44900000000014,306.4320000000001L118.84500000000014,306.5680000000001L117.77500000000015,306.6580000000001L117.18200000000014,306.7050000000001Z"
    stroke-width="1"
    stroke-linejoin="round"
    style="-webkit-tap-highlight-color: rgba(0, 0, 0, 0); stroke-linejoin: round;"></path>
  <path
    fill="#cccccc"
    stroke="#222222"
    d="M155.29,291.642V290.413L154.10899999999998,288.949L152.314,287.767L150.66,286.254L149.43099999999998,284.22200000000004L149.998,282.47400000000005L150.84799999999998,281.43500000000006H152.35999999999999L153.11599999999999,282.66400000000004C153.11599999999999,282.66400000000004,154.10799999999998,283.70300000000003,154.20299999999997,283.84600000000006C154.29699999999997,283.98800000000006,154.72299999999998,285.83000000000004,154.72299999999998,285.83000000000004L155.00699999999998,287.24800000000005L155.80999999999997,286.91800000000006L156.61299999999997,286.01900000000006L156.89699999999996,284.7440000000001L157.51199999999997,283.8470000000001L158.07899999999998,283.61000000000007L158.36299999999997,284.1770000000001L157.18199999999996,287.9090000000001L157.36999999999995,291.6430000000001V292.3510000000001H156.75599999999994H155.71599999999995L155.28999999999996,291.6420000000001Z"
    stroke-width="1"
    stroke-linejoin="round"
    style="-webkit-tap-highlight-color: rgba(0, 0, 0, 0); stroke-linejoin: round;"></path>
  <path
    fill="#cccccc"
    stroke="#222222"
    d="M155.29,291.42V290.19100000000003L154.10899999999998,288.72700000000003L152.314,287.545L150.66,286.033L149.43099999999998,284.00100000000003L149.998,282.254L150.84799999999998,281.213H152.35999999999999L153.11599999999999,282.442C153.11599999999999,282.442,154.10799999999998,283.48,154.20299999999997,283.623C154.29699999999997,283.765,154.72299999999998,285.60699999999997,154.72299999999998,285.60699999999997L155.00699999999998,287.025L155.80999999999997,286.695L156.61299999999997,285.796L156.89699999999996,284.522L157.51199999999997,283.62399999999997L158.07899999999998,283.388L158.36299999999997,283.95399999999995L157.18199999999996,287.68699999999995L157.36999999999995,291.41999999999996V292.12899999999996H156.75599999999994H155.71599999999995L155.28999999999996,291.41999999999996Z"
    stroke-width="1"
    stroke-linejoin="round"
    style="-webkit-tap-highlight-color: rgba(0, 0, 0, 0); stroke-linejoin: round;"></path>
</svg>
