<svg height="420" version="1.1" width="540" xmlns="http://www.w3.org/2000/svg" xmlns:xlink="http://www.w3.org/1999/xlink" style="overflow: hidden; position: relative; top: -0.4px;">
  <desc style="-webkit-tap-highlight-color: rgba(0, 0, 0, 0);">Created with Raphaël 2.2.0</desc>
  <defs style="-webkit-tap-highlight-color: rgba(0, 0, 0, 0);"></defs>
  <path
    fill="#cccccc"
    stroke="#222222"
    d="M100.547,180.573L110.007,179.877L110.74900000000001,181.407C110.74900000000001,181.407,112.79,180.99,114.08800000000001,181.453S117.61500000000001,183.586,117.61500000000001,183.586L121.83500000000001,180.062C121.83500000000001,180.062,125.26700000000001,180.758,125.405,180.758S127.95700000000001,176.90800000000002,127.95700000000001,176.90800000000002S131.06400000000002,179.08800000000002,132.919,180.15400000000002S134.774,179.598,134.913,179.45900000000003S134.68200000000002,172.40900000000002,134.68200000000002,172.40900000000002S142.79700000000003,171.11100000000002,142.751,170.693S142.612,168.699,144.142,168.00400000000002S145.767,169.76600000000002,145.767,169.76600000000002S152.862,167.35500000000002,154.995,166.937S161.766,167.911,161.766,167.911S162.137,166.242,162.554,165.361S166.31,165.361,166.31,165.361L165.697,164.195C165.697,164.195,164.881,161.673,164.287,162.415S158.945,162.415,158.945,162.415L159.464,156.257H161.096L161.467,150.174L159.538,147.354L159.315,142.60500000000002C159.315,142.60500000000002,159.018,142.531,158.202,141.71500000000003S155.08599999999998,134.66700000000003,155.012,134.37000000000003S157.534,132.44100000000003,157.534,132.44100000000003L156.718,127.54500000000003L155.53099999999998,122.50000000000003L156.49499999999998,121.46100000000003C156.49499999999998,121.46100000000003,155.753,119.75500000000002,156.34699999999998,118.79000000000002L153.75,118L153.875,121.75C153.875,121.75,154.728,122.51,152.75,123.375S149.375,124.25,149.375,124.25L147.128,128.143L145.51399999999998,129.625L143.64899999999997,129.547L140.87499999999997,127.5L138.87999999999997,125.547L134.24999999999997,121.125L130.62499999999997,120.375L112.125,137L108.412,136.388L105.73100000000001,135.544L105.45100000000001,137L104.07900000000001,138.587L105.73100000000001,139.63V142.049C105.73100000000001,142.049,102.70100000000001,143.967,103.81800000000001,144.324S107.26000000000002,143.93300000000002,107.26000000000002,143.93300000000002L105.39900000000002,146.87500000000003L109.20900000000002,151.88800000000003L108.11900000000001,153.89000000000004L103.47100000000002,156.75700000000003L104.96100000000001,162.33800000000002L106.53000000000002,166.175C106.53000000000002,166.175,107.10700000000001,168.49200000000002,106.66400000000002,169S104.57900000000002,169.997,104.57900000000002,169.997L102.25300000000003,169.45200000000003L102.01800000000003,173.21800000000002L97.89700000000003,173.627C97.89700000000003,173.627,97.33200000000004,171.991,97.14100000000003,173.244S97.14100000000003,175.174,97.14100000000003,175.174L98.59900000000003,180.157L100.547,180.573Z"
    stroke-width="1"
    stroke-linejoin="round"
    style="-webkit-tap-highlight-color: rgba(0, 0, 0, 0); stroke-linejoin: round;"></path>
  <path
    fill="#cccccc"
    stroke="#222222"
    d="M122.812,64.722C124.663,64.80999999999999,132.156,67.80699999999999,132.156,67.80699999999999L139.648,59.52099999999999L149.344,47.70899999999999L156.043,39.68799999999999L166.621,44.62399999999999L167.502,47.179999999999986L173.76100000000002,49.911999999999985L177.99200000000002,50.704999999999984L176.08400000000003,53.944999999999986L175.12000000000003,55.502999999999986L175.34300000000005,57.505999999999986L173.41400000000004,58.396999999999984L176.60400000000004,58.841999999999985L174.45200000000006,63.515999999999984L176.67800000000005,64.18399999999998L177.19700000000006,67.15199999999999C177.19700000000006,67.15199999999999,179.94300000000007,69.08099999999999,179.94300000000007,70.26799999999999S180.31300000000007,74.12599999999999,178.60700000000006,74.942S170.96500000000006,75.951,170.00100000000006,76.708S166.36600000000007,77.243,166.14300000000006,81.39699999999999S165.92000000000004,86.145,165.92000000000004,86.145S163.69500000000005,86.368,163.99100000000004,86.887S167.10700000000006,88.594,167.62600000000003,89.558S168.44200000000004,94.45500000000001,168.44200000000004,94.45500000000001L172.44800000000004,93.71300000000001C172.44800000000004,93.71300000000001,168.66500000000005,95.346,168.96200000000005,96.68100000000001S170.37100000000004,98.90700000000001,169.33300000000006,99.64900000000002S166.06900000000005,99.94500000000002,165.84600000000006,101.65200000000002S166.81000000000006,104.99000000000001,167.18100000000007,106.10400000000001S167.10700000000006,108.55300000000001,167.10700000000006,108.55300000000001S165.40000000000006,108.47900000000001,165.47500000000005,108.924S166.73600000000005,111.149,167.03300000000004,111.668S165.62400000000005,112.822,164.73300000000003,113.72900000000001S162.73000000000002,114.78400000000002,163.62000000000003,115.97100000000002S165.62300000000005,118.04900000000002,165.62300000000005,118.04900000000002S166.14200000000005,119.45800000000003,165.62300000000005,119.82900000000002S163.24900000000005,119.01300000000002,163.24900000000005,119.01300000000002S163.39700000000005,117.45500000000001,161.24600000000004,118.12300000000002S156.94200000000004,117.82600000000002,156.34900000000005,118.79000000000002L153.75,118L153.875,121.75C153.875,121.75,154.25,122.125,152.75,123.375S149.375,124.25,149.375,124.25S146.625,130.75,144.125,129.75S140.875,127.5,140.875,127.5L134.875,121.625L134.25,121.125L130.625,120.375L117.75,112.25L115.238,108.881L113.598,104.8L112.625,101.499H122.375L122.16,99.27199999999999L121.215,96.002L121.572,95.11999999999999L122.28,94.877L124.251,95.124V92.66199999999999L117.376,91.249L114.31,87.366L121.39,76.499L120.252,74.249L121.377,70.124C121.377,70.124,121.862,69.893,121.015,69.34299999999999S118.206,68.48899999999999,118.051,67.59199999999998S118.56,65.24999999999999,118.56,65.24999999999999L121.35900000000001,64.74499999999999L122.812,64.722Z"
    stroke-width="1"
    stroke-linejoin="round"
    style="-webkit-tap-highlight-color: rgba(0, 0, 0, 0); stroke-linejoin: round;"></path>
  <path
    fill="#cccccc"
    stroke="#222222"
    d="M65.209,91.776L70.367,92.663L71.82900000000001,90.871L70.49700000000001,88.03999999999999L70.50900000000001,85.08699999999999L71.61500000000001,83.448L73.27000000000001,82.68599999999999H75.09100000000001L76.923,83.19099999999999L80.105,79.10199999999999C80.105,79.10199999999999,81.388,77.80799999999999,80.836,77.49499999999999S79.447,77.14899999999999,79.447,77.14899999999999L77.278,77.83299999999998C77.278,77.83299999999998,76.21700000000001,77.58299999999998,76.08600000000001,76.79099999999998S76.89100000000002,75.48599999999998,76.89100000000002,75.48599999999998L79.44800000000002,74.94399999999997L78.54600000000002,71.34199999999997L80.97500000000002,66.49799999999998C80.97500000000002,66.49799999999998,90.76100000000002,68.35199999999998,92.14100000000002,69.47899999999997S96.96100000000001,75.03599999999997,96.96100000000001,75.03599999999997L108.37500000000001,69.11999999999998L116.20200000000001,65.24799999999998H118.75100000000002C118.75100000000002,65.24799999999998,116.75100000000002,67.24699999999997,118.75100000000002,68.12199999999997S121.50100000000002,69.49699999999997,121.37600000000002,70.12199999999997S120.25100000000002,74.24699999999997,120.25100000000002,74.24699999999997L121.38900000000002,76.49699999999997L114.5,87.25L117.375,91.25L124.25,92.663V95.125C124.25,95.125,120.375,93.875,121.375,96.75S122.375,100.375,122.375,100.375V101.5H112.625C112.625,101.5,114.75,110.25,117.75,112.25S130.625,120.375,130.625,120.375L117,133L112.125,137L105.656,135.934L105.113,135.097L103.217,133.425L102.176,131.734L101.616,129.78400000000002L101.168,128.68L99.89800000000001,127.58000000000001L98.56400000000001,126.40400000000001L97.15,124.24300000000001L95.971,121.84100000000001L96.324,121.26L97.487,120.137L98.493,118.658L98.713,117.745L98.21499999999999,117.134L98.329,116.726L98.25399999999999,115.545L97.297,113.545L93.577,113.79C93.577,113.79,94.387,112.765,94.117,112.052S91.99600000000001,109.55000000000001,91.99600000000001,109.55000000000001L89.35100000000001,107.47700000000002L82.36600000000001,107.59200000000001L79.48200000000001,104.38400000000001L77.52400000000002,103.13200000000002L72.89700000000002,100.66700000000002L68.53500000000003,98.86300000000001L65.21000000000002,97.12000000000002L64.51500000000003,96.20600000000002L63.94800000000003,95.04900000000002L64.44000000000003,94.29500000000002L64.79600000000002,92.51000000000002L65.209,91.776Z"
    stroke-width="1"
    stroke-linejoin="round"
    style="-webkit-tap-highlight-color: rgba(0, 0, 0, 0); stroke-linejoin: round;"></path>
  <path
    fill="#cccccc"
    stroke="#222222"
    d="M81.116,152.702H83.298C83.298,152.702,80.983,146.608,81.116,146.578S82.75,146.875,82.75,146.875L83.298,142.858L84.428,141.372C84.428,141.372,83.381,135.014,82.365,133.375S81.46199999999999,131.262,79.201,130.154S74.41699999999999,128.529,73.38,126.646S73.29599999999999,123.992,73.29599999999999,123.992L75.21499999999999,119.423L78.142,111.119L78.875,108.374L81.838,107.71H89.211C89.211,107.71,93.472,110.16199999999999,93.993,111.636S93.993,113.80499999999999,93.993,113.80499999999999L97.297,113.544C97.297,113.544,97.90599999999999,113.80499999999999,98.25399999999999,115.544S97.89899999999999,117.457,97.89899999999999,117.457S99.40399999999998,117.02199999999999,98.35099999999998,118.93499999999999S95.73299999999999,121.28199999999998,95.99399999999999,122.06499999999998S98.08099999999999,125.80299999999998,98.34199999999998,126.15099999999998S99.64599999999999,127.45599999999999,100.68999999999998,128.15099999999998S101.73399999999998,131.10799999999998,102.51599999999998,132.499S105.73299999999998,135.542,105.73299999999998,135.542L105.29799999999997,137.803L104.08099999999997,138.585L105.73299999999998,139.62800000000001V142.41000000000003C105.73299999999998,142.41000000000003,102.69099999999997,143.62700000000004,103.81999999999998,144.32300000000004S106.68899999999998,144.58400000000003,106.68899999999998,144.58400000000003L105.12399999999998,147.36600000000004L109.20999999999998,151.88700000000003C109.20999999999998,151.88700000000003,108.86199999999998,153.80000000000004,107.29699999999998,154.40800000000002S103.47099999999999,156.75500000000002,103.47099999999999,156.75500000000002S104.34199999999998,161.538,105.38499999999999,163.19000000000003S107.38399999999999,168.842,106.341,169.45000000000002S102.255,169.45000000000002,102.255,169.45000000000002L101.99499999999999,173.62500000000003H97.89999999999999C97.89999999999999,173.62500000000003,96.344,172.32100000000003,96.952,174.49500000000003S98.602,180.15500000000003,98.602,180.15500000000003L93.31400000000001,177.92600000000002L89.99400000000001,175.15900000000002L88.58400000000002,173.984L88.30600000000001,172.59300000000002V167.626L88.17500000000001,165.262L85.86000000000001,160.847L84,157.956L81.733,153.69L81.116,152.702Z"
    stroke-width="1"
    stroke-linejoin="round"
    style="-webkit-tap-highlight-color: rgba(0, 0, 0, 0); stroke-linejoin: round;"></path>
  <path
    fill="#cccccc"
    stroke="#222222"
    d="M81.116,152.702C80.56,152.145,75.597,145.234,73.557,144.539S64.745,142.22,63.586,141.802S58.16,135.68,56.583999999999996,134.98499999999999S47.44799999999999,130.94899999999998,46.334999999999994,129.51199999999997S38.358999999999995,127.65699999999997,36.27199999999999,127.84299999999998S32.65399999999999,129.32699999999997,30.93799999999999,128.53799999999998S27.22799999999999,126.96099999999998,25.79099999999999,126.58999999999999S22.26699999999999,126.451,22.26699999999999,126.451L18.974999999999987,121.48899999999999L17.444999999999986,118.892L15.821999999999987,115.27499999999999L16.514999999999986,113.72899999999998L20.921999999999986,113.11199999999998C20.921999999999986,113.11199999999998,22.420999999999985,112.75899999999999,23.125999999999987,111.96599999999998S27.091999999999988,107.91099999999997,27.091999999999988,107.91099999999997S26.38699999999999,107.29399999999997,29.559999999999988,107.38199999999998S33.350999999999985,107.37299999999998,33.350999999999985,107.37299999999998S37.317999999999984,102.35699999999997,39.78599999999999,101.73999999999998S42.78299999999999,101.21099999999998,42.78299999999999,101.21099999999998L50.185999999999986,92.83799999999998C50.185999999999986,92.83799999999998,55.20999999999999,88.07899999999998,55.65099999999998,86.66799999999998S56.35599999999998,84.81699999999998,55.65099999999998,84.46399999999998S54.679999999999986,83.31799999999998,55.03299999999998,82.61299999999999S57.500999999999976,79.70399999999998,57.500999999999976,79.70399999999998S60.32099999999998,79.79199999999997,61.290999999999976,81.64299999999997S61.202999999999975,82.43599999999998,61.290999999999976,84.72799999999997S60.52799999999998,89.39999999999996,61.702999999999975,90.54599999999996C61.702999999999975,90.54599999999996,64.54599999999998,91.56399999999996,64.79799999999997,92.50899999999996S63.60099999999997,95.02799999999996,64.73499999999997,96.57099999999996S67.22299999999997,98.11399999999996,70.65499999999997,99.84599999999996S78.24299999999997,103.15199999999996,79.69199999999998,104.56899999999996S82.36899999999999,107.59199999999996,82.36899999999999,107.59199999999996L78.87799999999999,108.37399999999995C78.87799999999999,108.37399999999995,78.37799999999999,110.78199999999995,76.50299999999999,116.20299999999995S71.87799999999999,124.87399999999994,73.62799999999999,126.99899999999994S81.10899999999998,129.74899999999994,82.36899999999999,133.37399999999994S84,142,84,142L82.875,143.375L82.75,146.875C82.75,146.875,80.75,146.125,81,146.875S82.375,150.25,82.375,150.25L83,152.702H81.116Z"
    stroke-width="1"
    stroke-linejoin="round"
    style="-webkit-tap-highlight-color: rgba(0, 0, 0, 0); stroke-linejoin: round;"></path>
  <path
    fill="#cccccc"
    stroke="#222222"
    d="M269.729,162.092C269.729,162.092,268.555,163.149,268.203,164.91000000000003S267.178,170.72400000000002,267.178,170.72400000000002S263.866,182.14100000000002,263.866,182.36900000000003S262.096,184.76600000000002,262.096,184.76600000000002H249.653C249.653,184.76600000000002,246.971,181.56900000000002,244.402,181.056S234.243,182.369,230.81799999999998,183.168S224.42499999999998,184.481,224.42499999999998,184.481L224.31099999999998,187.792L219.117,186.365L218.319,188.42000000000002L212.04,193.67100000000002L201.48,188.705L206.846,184.424L210.556,181C210.556,181,211.013,179.401,211.526,178.545S213.752,176.54799999999997,213.923,176.034S214.722,173.636,214.722,172.78S211.75400000000002,167.757,211.75400000000002,167.757L210.44100000000003,167.243V162.619C210.44100000000003,162.619,208.10000000000002,161.649,209.01400000000004,160.45S211.06900000000005,157.539,211.06900000000005,157.539L210.89800000000005,152.63C210.89800000000005,152.63,209.12600000000006,151.75,207.56400000000005,151.625S203.31400000000005,151.25,203.31400000000005,151.25L199.37600000000006,147.812C199.37600000000006,147.812,198.25400000000005,146.859,198.02600000000007,145.78500000000003S197.64000000000007,142.67000000000002,198.02600000000007,142.05200000000002S199.28100000000006,140.27,199.28100000000006,140.27L203.85100000000006,136.019L203.76800000000006,138.564L205.77700000000004,137.81799999999998C205.77700000000004,137.81799999999998,205.61000000000004,134.82099999999997,207.17900000000003,134.00799999999998S209.59200000000004,133.135,209.59200000000004,133.135L213.81100000000004,134.47799999999998L215.53400000000005,135.49099999999999L215.75900000000004,133.648L219.83800000000005,134.05599999999998V137.10399999999998L223.99900000000005,136.39L225,131.9L226.243,136.912L226.29399999999998,139.816C226.29399999999998,139.816,228.499,141.506,229.416,141.833S231.948,142.937,233.028,143.411S234.385,144.014,234.385,144.014L235.672,144.98000000000002L236.589,145.936L238.775,147.114L242.294,142.135L242.21900000000002,146.826L245.08800000000002,151.274C245.08800000000002,151.274,248.20700000000002,151.704,250.764,153.041S256.997,157.587,256.997,157.587S258.664,158.654,260.101,158.45999999999998S262.281,156.94199999999998,262.685,156.546S263.923,155.19199999999998,265.609,155.477S270.099,156.726,270.099,156.726V160.266L269.729,162.092Z"
    stroke-width="1"
    stroke-linejoin="round"
    style="-webkit-tap-highlight-color: rgba(0, 0, 0, 0); stroke-linejoin: round;"></path>
  <path
    fill="#cccccc"
    stroke="#222222"
    d="M167.23,106.296L167.23299999999998,108.03800000000001C167.23299999999998,108.03800000000001,166.91599999999997,108.549,166.49799999999996,108.55700000000002S165.47399999999996,108.92400000000002,165.47399999999996,108.92400000000002L166.96199999999996,112.03100000000002L163.31499999999997,115.07500000000002L165.46699999999996,117.91800000000002C165.46699999999996,117.91800000000002,165.73099999999997,118.40000000000002,165.84699999999995,119.32700000000003S165.44899999999996,119.88900000000002,165.44899999999996,119.88900000000002L163.24899999999997,119.01300000000002C163.24899999999997,119.01300000000002,163.24899999999997,119.01300000000002,163.13399999999996,118.44700000000002S162.29199999999994,117.96300000000002,161.75399999999996,118.00000000000001S160.36699999999996,118.31300000000002,160.36699999999996,118.31300000000002L159.04299999999995,118.37500000000001C159.04299999999995,118.37500000000001,157.87599999999995,118.33300000000001,157.19599999999994,118.35600000000001S156.34799999999993,118.79,156.34799999999993,118.79L156.12299999999993,119.79100000000001L156.45899999999995,121.36900000000001L155.53199999999995,122.50000000000001L156.71899999999997,127.54500000000002L157.48599999999996,132.472L156.22399999999996,133.309L155.15899999999996,134.142L155.76599999999996,136.42L156.81099999999995,139.009L157.90699999999995,141.29799999999997L159.31599999999995,142.60399999999998L159.53899999999996,147.35299999999998L161.46799999999996,150.17299999999997L161.09699999999995,156.25599999999997H159.46499999999995L159.15099999999995,162.44399999999996L163.66699999999994,162.45799999999997L164.37499999999994,162.04099999999997L165.16699999999994,162.93699999999995L166.58299999999994,165.33299999999994L170.37499999999994,162.74999999999994L177.87499999999994,161.74999999999994L180.45799999999994,163.79199999999994L182.37499999999994,166.37499999999994L184.49999999999994,167.41699999999994L185.40399999999994,165.91699999999994L186.83399999999995,165.62499999999994L188.91699999999994,167.95799999999994L188.87499999999994,169.83299999999994H191.08299999999994L191.91599999999994,171.58299999999994L193.45799999999994,175.58299999999994L197.29099999999994,175.24999999999994L196.66599999999994,173.33299999999994C196.66599999999994,173.33299999999994,198.33299999999994,170.12499999999994,198.74899999999994,168.54099999999994S196.87399999999994,166.20799999999994,198.16599999999994,165.54099999999994S199.08299999999994,162.70799999999994,199.16599999999994,162.54099999999994S196.87399999999994,160.87399999999994,195.66599999999994,159.49899999999994S196.66599999999994,158.16599999999994,196.66599999999994,158.16599999999994S196.95799999999994,155.33299999999994,197.20799999999994,153.83299999999994S198.87499999999994,152.16599999999994,198.87499999999994,152.16599999999994L198.77199999999993,147.68499999999995C198.77199999999993,147.68499999999995,197.83699999999993,146.04999999999995,197.72099999999995,143.98499999999996S199.28099999999995,140.26999999999995,199.28099999999995,140.26999999999995L196.43899999999994,139.30399999999995L193.66699999999994,138.11299999999994L191.32599999999994,136.53099999999995L188.66699999999994,134.41799999999995L187.34799999999996,133.23799999999994L185.40399999999997,128.80499999999995L187.75399999999996,126.56699999999995L188.40499999999997,124.30199999999995H191.28599999999997L192.72099999999998,123.58399999999995C192.72099999999998,123.58399999999995,192.408,120.21699999999994,192.91499999999996,119.50399999999995L195.94299999999996,116.28399999999995L196.25099999999995,115.79699999999995L194.23199999999994,115.34599999999996L195.50899999999993,112.11899999999996C195.50899999999993,112.11899999999996,189.33899999999994,113.00099999999996,187.07599999999994,112.96899999999995S183.63099999999994,113.59799999999996,182.35899999999992,113.07499999999995S178.67899999999992,109.23899999999995,178.67899999999992,109.23899999999995L177.81099999999992,108.89099999999995C177.81099999999992,108.89099999999995,174.85299999999992,110.83999999999995,174.5949999999999,111.11199999999995S173.95399999999992,112.28599999999996,173.53599999999992,112.42099999999995S172.6819999999999,112.25199999999995,172.6819999999999,112.25199999999995S172.5709999999999,109.96599999999995,172.6969999999999,109.62799999999996S173.1249999999999,108.43399999999995,173.1249999999999,108.43399999999995S173.3579999999999,105.38599999999995,171.9599999999999,104.62999999999995S166.4029999999999,104.07299999999995,166.4029999999999,104.07299999999995L167.23,106.296Z"
    stroke-width="1"
    stroke-linejoin="round"
    style="-webkit-tap-highlight-color: rgba(0, 0, 0, 0); stroke-linejoin: round;"></path>
  <path
    fill="#cccccc"
    stroke="#222222"
    d="M165.96,103.125L165.979,101.194C165.979,101.194,166.455,100.577,166.79000000000002,100.458S168.424,100.02499999999999,168.424,100.02499999999999L169.598,99.39899999999999L169.663,98.43299999999999L168.96,96.39699999999999L173.751,93.29199999999999L168.43,94.29799999999999C168.43,94.29799999999999,168.142,91.60199999999999,168.031,91.04399999999998S167.406,89.26999999999998,167.406,89.26999999999998S163.916,86.95699999999998,164.125,86.58299999999998S165.716,86.17099999999998,165.716,86.17099999999998L166.108,82.04799999999997L166.71,79.00799999999997L167.894,77.71599999999997L169.83700000000002,76.81799999999997L171.157,76.30199999999996L174.483,75.78699999999996L176.742,75.44599999999997L178.608,74.94399999999997L179.537,74.03599999999997L179.977,71.58399999999997L179.665,69.49999999999997L177.713,67.54099999999997L177.143,66.83199999999997L176.581,64.15699999999997L174.45399999999998,63.517999999999965L176.60599999999997,58.843999999999966L173.58199999999997,58.322999999999965L174.93499999999997,57.697999999999965L175.34599999999998,57.508999999999965L175.12299999999996,55.505999999999965L177.86699999999996,50.925999999999966C177.86699999999996,50.925999999999966,181.50499999999997,52.87699999999997,182.21299999999997,53.75199999999997S184.92099999999996,55.584999999999965,184.92099999999996,55.584999999999965S193.33699999999996,60.25199999999997,195.50399999999996,61.50199999999997S199.75399999999996,62.66899999999997,202.67099999999996,63.41899999999997S213.917,65,213.917,65L221.991,66.337L218.54700000000003,70.355L218.97800000000004,80.111L214.53100000000003,76.093L208.25100000000003,80.51400000000001L209.22200000000004,83.98400000000001C209.22200000000004,83.98400000000001,210.35600000000002,84.20100000000001,210.98400000000004,83.808S212.52300000000002,82.549,212.52300000000002,82.549S214.38000000000002,80.44600000000001,215.75200000000004,82.10700000000001S216.25900000000004,82.83700000000002,216.25900000000004,82.83700000000002L216.54000000000005,87.46000000000002L216.39700000000005,91.87600000000002C216.39700000000005,91.87600000000002,216.75800000000004,92.70300000000002,217.29500000000004,92.79100000000003S219.18200000000004,92.79100000000003,219.18200000000004,92.79100000000003L220.27000000000004,92.58900000000003L217.43400000000003,97.13600000000002L221.55800000000002,101.17200000000003L224.35000000000002,103.93600000000002L222.104,104.63800000000002L219.93300000000002,105.17900000000002L217.73200000000003,106.36800000000002L217.40100000000004,106.65300000000002L219.04800000000003,107.79400000000003C219.04800000000003,107.79400000000003,219.34800000000004,109.18100000000003,218.93100000000004,110.04200000000003S218.24500000000003,111.13200000000003,217.43400000000003,111.04200000000003S216.15000000000003,110.19200000000004,216.15000000000003,110.19200000000004L217.29900000000004,113.20600000000003L217.50200000000004,113.67100000000003L222.02400000000003,119.42700000000004L217.11200000000002,120.85900000000004L211.086,113.82900000000004L210.799,108.80700000000003C210.799,108.80700000000003,208.691,107.33000000000003,208.238,107.28000000000003S205.174,108.97500000000002,203.194,111.63900000000002L200.18099999999998,115.69500000000002C200.18099999999998,115.69500000000002,197.534,115.32400000000003,196.88099999999997,115.69500000000002S194.23099999999997,115.34800000000003,194.23099999999997,115.34800000000003L195.50799999999995,112.12100000000002C195.50799999999995,112.12100000000002,192.38499999999996,112.22500000000002,189.36599999999996,112.64200000000002S183.84799999999996,113.57900000000002,181.86999999999995,112.95400000000002S178.85099999999994,109.31000000000002,178.85099999999994,109.31000000000002L177.80999999999995,108.89300000000001C177.80999999999995,108.89300000000001,174.47899999999996,110.84600000000002,174.16599999999994,111.63900000000001S172.70799999999994,113.24000000000001,172.49999999999994,111.63900000000001S173.02099999999993,108.89300000000001,173.02099999999993,108.89300000000001S174.35199999999992,104.34600000000002,170.31399999999994,104.20800000000001S166.27699999999993,104.07000000000001,166.27699999999993,104.07000000000001L165.96,103.125Z"
    stroke-width="1"
    stroke-linejoin="round"
    style="-webkit-tap-highlight-color: rgba(0, 0, 0, 0); stroke-linejoin: round;"></path>
  <path
    fill="#cccccc"
    stroke="#222222"
    d="M278.058,118.643L280.815,127.601C280.815,127.601,276.098,126.883,275.659,130.04S276.655,137.106,276.655,137.106L273.354,141.375V146.397C273.354,146.397,271.203,146.828,271.203,149.267S271.203,153.284,271.203,153.284L270.05499999999995,156.87099999999998C270.05499999999995,156.87099999999998,264.45899999999995,153.71499999999997,262.45099999999996,156.87099999999998S256.99899999999997,157.588,256.99899999999997,157.588S250.11099999999996,151.132,245.08999999999997,151.275L242.22099999999998,146.827V142.379L238.77799999999996,147.114C238.77799999999996,147.114,236.91199999999995,146.54,235.90799999999996,145.249S233.46999999999997,143.671,233.46999999999997,143.671S231.89199999999997,142.668,229.74099999999996,141.95S226.29799999999994,139.941,226.29799999999994,139.941V137.106L225,132.17L223.999,136.391L219.838,137.105V134.057L215.534,133.62599999999998V135.492C215.534,135.492,210.512,132.04899999999998,207.92999999999998,133.483S205.778,137.818,205.778,137.818L203.769,138.56400000000002V136.39000000000001L199.608,140.36900000000003C199.608,140.36900000000003,195.018,138.99600000000004,193.153,137.81800000000004S188.992,134.63100000000003,187.844,133.77000000000004S185.405,129.03600000000003,185.405,129.03600000000003L187.7,126.74000000000002L188.41799999999998,124.44400000000002L191.28799999999998,124.30100000000002L192.72299999999998,123.58300000000001L192.867,119.56600000000002C192.867,119.56600000000002,195.594,116.12300000000002,196.885,115.69200000000002S200.185,115.69200000000002,200.185,115.69200000000002L203.198,111.63600000000002C203.198,111.63600000000002,206.35500000000002,107.22600000000003,207.78900000000002,107.22600000000003S210.80200000000002,108.80400000000003,210.80200000000002,108.80400000000003S210.94500000000002,113.25200000000004,211.08900000000003,113.82600000000004S217.11500000000004,120.85600000000004,217.11500000000004,120.85600000000004L222.13700000000003,119.56500000000004L217.40200000000002,113.53900000000004L216.54100000000003,110.66900000000004C216.54100000000003,110.66900000000004,218.40600000000003,111.81600000000005,218.836,110.38200000000003S219.26700000000002,107.94300000000004,219.26700000000002,107.94300000000004L217.40200000000002,106.65100000000004C217.40200000000002,106.65100000000004,218.693,105.35900000000004,220.84500000000003,104.92900000000004S224.14500000000004,103.92500000000004,224.14500000000004,103.92500000000004L217.54500000000004,96.89500000000004L219.98400000000004,92.73400000000004C219.98400000000004,92.73400000000004,216.39700000000005,93.45100000000004,216.39700000000005,91.87300000000003S216.25300000000004,82.54700000000003,216.25300000000004,82.54700000000003S214.38800000000003,80.39500000000002,212.52300000000005,82.54700000000003S209.22300000000004,83.98200000000003,209.22300000000004,83.98200000000003L208.21900000000005,80.39500000000002L214.53200000000004,76.09100000000002L218.97900000000004,80.10900000000002L218.54800000000003,70.35300000000002L221.99200000000002,66.33500000000002H225L236.051,60.88400000000002L247.95899999999997,55.00100000000002L252.694,52.27500000000002L259.868,50.69700000000002L271.49,48.40100000000002L283.091,46.65100000000002L282.67400000000004,56.396000000000015C282.67400000000004,56.396000000000015,283.38300000000004,57.14400000000001,283.682,57.56000000000002S283.682,59.25100000000002,283.682,59.25100000000002L282.355,61.77300000000002L285.596,61.728000000000016C285.596,61.728000000000016,286.243,63.128000000000014,285.766,64.58600000000001S283.86600000000004,67.40100000000001,283.86600000000004,67.40100000000001L282.81500000000005,68.70300000000002C282.81500000000005,68.70300000000002,282.47400000000005,74.00500000000002,282.3670000000001,74.18200000000002S278.84400000000005,74.67300000000002,278.84400000000005,74.67300000000002S279.0930000000001,75.71300000000002,278.362,76.66900000000001S274.812,79.44400000000002,274.812,79.44400000000002L267.65500000000003,82.06000000000002L267.45300000000003,85.96000000000002C267.45300000000003,85.96000000000002,268.766,85.01600000000002,268.84900000000005,85.87800000000003S267.65600000000006,89.86000000000003,267.65600000000006,89.86000000000003L272.51000000000005,96.17200000000003L274.91400000000004,117.94300000000003L278.058,118.643Z"
    stroke-width="1"
    stroke-linejoin="round"
    style="-webkit-tap-highlight-color: rgba(0, 0, 0, 0); stroke-linejoin: round;"></path>
  <path
    fill="#cccccc"
    stroke="#222222"
    d="M282.438,117.005C285.412,117.838,286.65999999999997,119.503,286.65999999999997,119.503L291.65799999999996,118.553C291.65799999999996,118.553,295.93899999999996,122.657,296.53399999999993,121.824S300.8159999999999,116.71,300.8159999999999,116.71S301.9459999999999,116.472,303.61099999999993,117.95899999999999S304.62299999999993,121.94399999999999,304.62299999999993,121.94399999999999L315.32699999999994,123.07399999999998L319.8469999999999,125.98799999999999L325.9119999999999,129.378L366.76499999999993,132.172C366.76499999999993,132.172,366.4679999999999,130.686,366.40899999999993,130.507S365.4579999999999,126.34400000000001,365.3979999999999,125.988S365.6359999999999,125.155,367.77699999999993,124.204S372.9509999999999,123.01499999999999,372.9509999999999,123.01499999999999L374.0209999999999,120.33899999999998C374.0209999999999,120.33899999999998,374.7339999999999,119.92299999999999,374.9719999999999,120.57699999999998S377.4099999999999,120.81499999999998,377.4099999999999,120.81499999999998L380.7999999999999,119.20999999999998L381.8699999999999,119.62599999999998L381.5719999999999,121.82599999999998H385.3189999999999L386.0909999999999,125.15599999999998L386.50799999999987,126.46399999999998L388.46999999999986,127.83199999999998L393.04899999999986,128.546C393.04899999999986,128.546,393.5839999999999,127.535,393.6439999999999,127.297S401.9689999999999,122.064,401.7899999999999,120.339S400.9569999999999,119.565,400.9569999999999,119.565S400.8969999999999,118.494,401.3729999999999,115.105S410.7089999999999,109.634,412.0769999999999,108.801S421.2329999999999,108.206,421.2329999999999,108.206S431.0449999999999,103.50800000000001,435.0879999999999,102.2S439.7259999999999,99.99900000000001,439.7259999999999,99.99900000000001S439.8449999999999,99.34500000000001,438.6559999999999,98.096S435.6239999999999,95.598,435.6239999999999,95.598L432.8889999999999,95.242L424.9799999999999,94.29L419.8059999999999,93.158L408.6859999999999,90.185L395.0089999999999,85.309L381.0939999999999,80.61099999999999L371.8769999999999,78.469L352.0149999999999,73.41399999999999L331.79699999999985,68.53799999999998L330.84199999999987,67.22799999999998C330.84199999999987,67.22799999999998,330.54499999999985,65.97899999999998,331.1989999999999,63.83799999999998S331.1989999999999,61.39999999999998,331.1989999999999,61.39999999999998L321.5059999999999,58.00999999999998L310.8619999999999,54.38199999999998L292.5469999999999,48.01899999999998L284.7569999999999,45.87799999999998L283.0909999999999,46.65199999999998C283.0909999999999,46.65199999999998,282.4059999999999,55.62499999999998,282.7299999999999,56.78099999999998S284.3019999999999,57.336999999999975,284.0709999999999,57.79899999999998S282.1289999999999,61.589999999999975,282.1289999999999,61.72899999999998S285.5969999999999,61.72899999999998,285.5969999999999,61.72899999999998S286.1049999999999,64.13299999999998,285.5499999999999,65.56599999999997S282.8679999999999,67.55399999999997,282.6839999999999,69.21799999999998S282.36099999999993,74.34999999999998,282.36099999999993,74.34999999999998L278.84399999999994,74.67299999999997C278.84399999999994,74.67299999999997,279.3999999999999,77.63199999999998,274.49799999999993,79.57399999999997S267.6549999999999,81.83999999999997,267.6549999999999,81.83999999999997V85.86199999999998C267.6549999999999,85.86199999999998,268.9489999999999,85.39999999999998,268.5789999999999,86.60199999999998S267.7489999999999,89.37599999999998,267.6549999999999,89.69999999999997S272.5089999999999,96.17299999999997,272.5089999999999,96.17299999999997L273.5279999999999,105.32699999999997L274.2219999999999,114.06599999999997L274.7299999999999,117.90299999999998L278.0589999999999,118.64299999999997C278.0589999999999,118.64299999999997,277.9669999999999,117.20999999999997,278.93799999999993,116.88599999999997S282.438,117.005,282.438,117.005Z"
    stroke-width="1"
    stroke-linejoin="round"
    style="-webkit-tap-highlight-color: rgba(0, 0, 0, 0); stroke-linejoin: round;"></path>
  <path
    fill="#cccccc"
    stroke="#222222"
    d="M339.052,298.216L334.408,297.75600000000003L312.91700000000003,287.91200000000003C312.91700000000003,287.91200000000003,314.795,286.797,315.653,285.89000000000004S317.87300000000005,282.59800000000007,317.85,281.47300000000007S317.76800000000003,279.80000000000007,317.76800000000003,279.80000000000007L318.31500000000005,275.01500000000004H323.37600000000003V270.119L322.22600000000006,270.59700000000004L316.42900000000003,270.48L315.744,272.259L312.209,269.694C312.209,269.694,309.329,273.18,308.407,272.918S307.856,271.911,307.856,271.911L307.533,264.536C307.533,264.536,307.37,263.461,308.21000000000004,263.798S309.25300000000004,264.276,309.25300000000004,264.276L310.403,261.455L308.06,257.37399999999997L310.85,257.12999999999994L311.879,250.48199999999994L315.108,249.97999999999993L314.056,248.62899999999993L313.895,245.17299999999994L314.7,243.26699999999994L316.373,241.87899999999993L319.435,240.38199999999992L319.408,231.88999999999993L315.33000000000004,226.83299999999994L313.67900000000003,230.70999999999995C313.67900000000003,230.70999999999995,313.81100000000004,232.34399999999994,313.76000000000005,232.90299999999996S313.58700000000005,235.03099999999995,313.07500000000005,235.62499999999997S312.12700000000007,236.35799999999998,312.12700000000007,236.35799999999998L302.4360000000001,237.587L307.80500000000006,231.629L302.7490000000001,225.035L302.7430000000001,222.702L303.4480000000001,221.427L303.90100000000007,219.876L304.19700000000006,212.541L301.94300000000004,212.917L301.11600000000004,210.062L301.86800000000005,208.443L302.77700000000004,207.31500000000003L303.99800000000005,206.70200000000003H305.18600000000004L305.80800000000005,207.76100000000002L306,208.25C306,208.25,306.973,208.135,307.059,207.201S306.96900000000005,205.295,306.96900000000005,205.295L304.62300000000005,201.375C304.62300000000005,201.375,304.11300000000006,200.756,304.65400000000005,199.353S305.99500000000006,196.502,305.99500000000006,196.502L307.2060000000001,194.76500000000001L308.62500000000006,193.12500000000003L309.47900000000004,191.82500000000002C309.47900000000004,191.82500000000002,309.593,191.02100000000002,309.42100000000005,190.76100000000002S307,188.625,307,188.625L306.329,187.5L307.125,183.25C307.125,183.25,309.87,183.2,310.793,183.25S315.071,182.889,315.071,182.889L315.839,181.95600000000002C315.839,181.95600000000002,315.777,181.56000000000003,316.779,181.40400000000002S318.416,181.60700000000003,318.416,181.60700000000003L324.25,185.06200000000004L328.688,186.75000000000003L332.41499999999996,189.13800000000003L336.751,189.43800000000005C336.751,189.43800000000005,340.041,191.40700000000004,341.654,191.03300000000004S344.203,190.19000000000005,344.203,190.19000000000005L345.92999999999995,188.25200000000007C345.92999999999995,188.25200000000007,346.71199999999993,187.72000000000006,345.73699999999997,187.25200000000007S344.054,187.78300000000007,343.61899999999997,187.50100000000006S342.31399999999996,187.12600000000006,342.31399999999996,187.12600000000006L341.328,184.22100000000006L341.31399999999996,182.75100000000006L345.14899999999994,183.65100000000007L349.9789999999999,184.21200000000007L350.96099999999996,183.67800000000008L351.41099999999994,182.36300000000008L351.78399999999993,180.20000000000007L350.93799999999993,177.50200000000007L350.90899999999993,172.27700000000007L352.3449999999999,170.95400000000006L354.1329999999999,170.21700000000007L355.3759999999999,170.12700000000007L355.8839999999999,170.50600000000006V171.59700000000007L355.8309999999999,172.83700000000007L356.0479999999999,173.55600000000007L357.2209999999999,174.13600000000008L358.4099999999999,174.25000000000009L358.9759999999999,173.72600000000008L359.0399999999999,172.43900000000008L359.7259999999999,171.1670000000001L360.9809999999999,169.98200000000008L361.83999999999986,169.4430000000001L362.66299999999984,169.1110000000001L363.31199999999984,169.0630000000001L363.8969999999998,169.7140000000001L363.8449999999998,171.1760000000001L363.6659999999998,171.9560000000001L363.5,172.5L366.927,174.383L369.28200000000004,176.246L370.956,178.586L371.38100000000003,179.51000000000002L371.83500000000004,183.89200000000002L372.28000000000003,188.79200000000003L373.08000000000004,190.31900000000002L374.86400000000003,192.33300000000003C374.86400000000003,192.33300000000003,371.879,199.15600000000003,371.52000000000004,200.02600000000004S370.82800000000003,201.70800000000003,370.82800000000003,201.70800000000003V206.81200000000004L371.723,208.84900000000005L369.68,211.19300000000004L373.86,215.54800000000003L346.29900000000004,214.37700000000004C346.29900000000004,214.37700000000004,345.70900000000006,213.85700000000003,345.129,213.73500000000004S340.856,213.54700000000005,340.856,213.54700000000005L340.811,217.22500000000005C340.811,217.22500000000005,340.488,220.28400000000005,340.30199999999996,220.65200000000004S339.33,221.41700000000003,338.799,222.38300000000004S337.10299999999995,228.61600000000004,337.10299999999995,228.61600000000004S337.46399999999994,224.53100000000003,337.30299999999994,226.30000000000004S336.22499999999997,238.60100000000003,336.22499999999997,238.60100000000003V247.22400000000002C336.22499999999997,247.22400000000002,335.75499999999994,248.865,335.104,249.42100000000002S333.62,250.454,333.464,251.234S333.565,253.63400000000001,333.565,253.63400000000001S331.538,257.26800000000003,330.767,258.309S329.181,260.622,329.783,260.872S334.75100000000003,262.399,334.75100000000003,262.399L338.54800000000006,263.367L354.41600000000005,264.197C354.41600000000005,264.197,352.14000000000004,264.332,352.24300000000005,266.177S352.92400000000004,269.78900000000004,352.92400000000004,269.78900000000004L347.31300000000005,270.74700000000007L350.17400000000004,273.60600000000005C350.17400000000004,273.60600000000005,346.19100000000003,274.13400000000007,345.73600000000005,274.60600000000005S343.237,279.84200000000004,343.237,279.84200000000004L339.685,288.89700000000005L339.052,298.216Z"
    stroke-width="1"
    stroke-linejoin="round"
    style="-webkit-tap-highlight-color: rgba(0, 0, 0, 0); stroke-linejoin: round;"></path>
  <path
    fill="#cccccc"
    stroke="#222222"
    d="M312.917,287.912L311.789,287.08599999999996L293.904,286.33399999999995L289.245,285.35699999999997L281.579,281.97299999999996L276.62,278.14099999999996L272.261,273.181L265.122,269.048L266.024,267.545C266.024,267.545,266.925,266.868,266.85,262.51S266.324,258.452,266.324,258.452S267.301,255.672,269.48,254.094S272.56100000000004,251.76399999999998,272.56100000000004,251.76399999999998L278.12300000000005,252.36599999999999L280.076,250.487L280.82800000000003,250.637L281.204,252.516C281.204,252.516,280.526,257.402,281.42900000000003,257.476S283.233,257.401,283.233,257.401L283.985,254.62C283.985,254.62,285.63800000000003,256.724,286.84000000000003,257.626S289.47,258.00199999999995,289.47,258.00199999999995L290.37100000000004,256.87499999999994L290.071,254.09499999999994L295.10400000000004,248.68499999999995L295.33000000000004,245.30299999999994L298.63700000000006,245.07699999999994L299.53800000000007,244.70099999999994L299.4630000000001,241.69499999999994L302.0930000000001,240.86899999999994L302.99500000000006,240.79399999999995L302.31800000000004,237.71299999999997C302.31800000000004,237.71299999999997,310.89300000000003,236.35599999999997,312.12600000000003,236.35599999999997S314.01500000000004,233.23599999999996,313.687,231.51099999999997S315.33,226.82999999999996,315.33,226.82999999999996L319.435,231.92099999999996V240.37899999999996C319.435,240.37899999999996,314.261,242.18499999999997,313.933,244.81299999999996S314.262,249.49399999999997,314.262,249.49399999999997L315.411,250.14999999999998L311.88,250.47899999999998L310.813,257.37199999999996H308.432C308.432,257.37199999999996,309.82800000000003,260.18499999999995,310.321,260.87499999999994S309.254,264.27399999999994,309.254,264.27399999999994S307.365,262.79499999999996,307.529,265.01199999999994S307.85699999999997,271.90899999999993,307.85699999999997,271.90899999999993S307.775,273.8809999999999,309.49999999999994,272.31999999999994S312.2099999999999,269.69199999999995,312.2099999999999,269.69199999999995L315.6579999999999,272.4839999999999L316.4789999999999,270.34899999999993L322.22599999999994,270.5949999999999L323.3759999999999,270.4309999999999V275.35799999999995L318.2849999999999,275.27599999999995C318.2849999999999,275.27599999999995,317.62799999999993,279.79299999999995,317.7919999999999,280.203S318.03899999999993,283.323,316.3139999999999,285.212S312.917,287.912,312.917,287.912Z"
    stroke-width="1"
    stroke-linejoin="round"
    style="-webkit-tap-highlight-color: rgba(0, 0, 0, 0); stroke-linejoin: round;"></path>
  <path
    fill="#cccccc"
    stroke="#222222"
    d="M341.246,298.433L351.01599999999996,299.485C351.01599999999996,299.485,353.34499999999997,299.485,358.00399999999996,301.73900000000003S366.27,308.201,366.27,308.201L368.524,307.90000000000003L368.75,305.12000000000006H371.681L371.98199999999997,304.59400000000005C371.98199999999997,304.59400000000005,371.381,302.86500000000007,370.10299999999995,300.76200000000006S365.06899999999996,298.4320000000001,365.06899999999996,298.4320000000001S364.99399999999997,297.8310000000001,365.895,296.7030000000001S370.62899999999996,295.27600000000007,370.62899999999996,295.27600000000007S378.44399999999996,295.35100000000006,378.21899999999994,293.7730000000001S376.26499999999993,290.9930000000001,376.26499999999993,290.9930000000001S377.4679999999999,290.61700000000013,379.21099999999996,291.3680000000001S380.698,293.9990000000001,380.698,293.9990000000001S381.59999999999997,294.14900000000006,383.553,293.9990000000001S386.334,294.3740000000001,386.334,294.3740000000001L385.13100000000003,296.2530000000001C385.13100000000003,296.2530000000001,384.38000000000005,297.9060000000001,384.906,298.6580000000001S385.13100000000003,299.4840000000001,386.709,299.86000000000007S389.34,297.68000000000006,389.34,297.68000000000006L389.19,294.59900000000005C389.19,294.59900000000005,389.941,293.84800000000007,390.543,294.22400000000005S391.82,295.65200000000004,391.82,295.65200000000004L393.849,296.32800000000003L394.59999999999997,295.35100000000006H396.32899999999995V292.72100000000006L397.98199999999997,292.04400000000004L398.20799999999997,290.54100000000005C398.20799999999997,290.54100000000005,397.22999999999996,289.18800000000005,397.08099999999996,288.7370000000001S396.931,286.85800000000006,396.931,286.85800000000006H399.561L399.63599999999997,286.3330000000001H401.59L403.167,283.9280000000001L401.364,282.4250000000001L401.51399999999995,279.94600000000014L401.96399999999994,277.61700000000013L400.61099999999993,277.24100000000016L399.2579999999999,275.6630000000002V269.20000000000016H397.6049999999999L398.5829999999999,268.37800000000016L398.9579999999999,264.99600000000015C398.9579999999999,264.99600000000015,398.2819999999999,264.01800000000014,397.9059999999999,263.04200000000014S396.1769999999999,262.29100000000017,396.1769999999999,262.29100000000017L395.42599999999993,264.16900000000015L394.2989999999999,262.89200000000017L392.94499999999994,263.04200000000014L391.74299999999994,264.54500000000013C391.74299999999994,264.54500000000013,389.56399999999996,264.6200000000001,388.8879999999999,263.56800000000015S385.8069999999999,260.5620000000002,385.8069999999999,260.5620000000002L386.1829999999999,263.56800000000015H378.8189999999999L378.4429999999999,262.44100000000014L378.5179999999999,259.58500000000015C378.5179999999999,259.58500000000015,377.6919999999999,258.0070000000002,376.1139999999999,257.6320000000002S373.70899999999995,260.11100000000016,373.70899999999995,260.11100000000016S372.50699999999995,257.4060000000002,372.0559999999999,256.01300000000015S372.2819999999999,252.22000000000014,372.2819999999999,252.22000000000014H370.10299999999995L368.14899999999994,255.37600000000015C368.14899999999994,255.37600000000015,366.57099999999997,256.42900000000014,364.8419999999999,255.82700000000014S361.0849999999999,252.97200000000015,361.0849999999999,252.97200000000015S361.00999999999993,249.21400000000014,361.0849999999999,248.91300000000015S360.18299999999994,247.78600000000014,360.18299999999994,247.78600000000014L359.35599999999994,244.48000000000013C359.35599999999994,244.48000000000013,359.28099999999995,241.92400000000012,358.60499999999996,241.47300000000013S355.37399999999997,242.52600000000012,355.37399999999997,242.52600000000012S354.772,242.37600000000012,356.275,239.8210000000001S364.316,236.2140000000001,364.316,236.2140000000001S364.316,236.2140000000001,365.59299999999996,233.0580000000001S369.57599999999996,229.9020000000001,369.67999999999995,229.75100000000012S373.18299999999994,227.34700000000012,373.18299999999994,227.34700000000012L373.85999999999996,215.54900000000012C373.85999999999996,215.54900000000012,351.282,214.84000000000012,350.359,214.84000000000012S346.299,214.37800000000013,346.299,214.37800000000013S345.65299999999996,213.54800000000012,343.623,213.54800000000012S340.855,213.54800000000012,340.855,213.54800000000012S341.03900000000004,219.7300000000001,340.11600000000004,221.02100000000013S337.439,221.48300000000012,336.70200000000006,233.10700000000014S336.1480000000001,247.22400000000013,336.333,248.05400000000014S332.733,250.36000000000016,333.38000000000005,252.39000000000016S332.8260000000001,255.80300000000017,332.55000000000007,256.26500000000016S328.5830000000001,260.22500000000014,329.7820000000001,260.87400000000014S338.5470000000001,263.36900000000014,338.5470000000001,263.36900000000014L354.4150000000001,264.1990000000001C354.4150000000001,264.1990000000001,351.6480000000001,265.6760000000001,352.1090000000001,267.24400000000014S353.0310000000001,270.1030000000001,353.0310000000001,270.1030000000001L347.3110000000001,270.74900000000014L350.1720000000001,273.6080000000001L346.20400000000006,274.3460000000001C346.20400000000006,274.3460000000001,344.9120000000001,274.5310000000001,343.7130000000001,278.4060000000001S339.56200000000007,288.9240000000001,339.56200000000007,289.2930000000001S339.37700000000007,297.2280000000001,339.37700000000007,297.2280000000001L339.3860000000001,298.24900000000014L341.246,298.433Z"
    stroke-width="1"
    stroke-linejoin="round"
    style="-webkit-tap-highlight-color: rgba(0, 0, 0, 0); stroke-linejoin: round;"></path>
  <path
    fill="#cccccc"
    stroke="#222222"
    d="M301.115,210.059C301.115,210.059,296.008,210.96099999999998,294.58,214.494S289.846,216.899,289.846,216.899S285.262,214.194,283.609,214.945S280.75399999999996,216.674,280.75399999999996,216.674L276.621,217.049L268.881,222.38500000000002C268.881,222.38500000000002,268.505,218.77800000000002,265.123,217.35000000000002S259.111,217.72600000000003,259.111,217.72600000000003L254.903,221.25800000000004L249.042,221.10800000000003V215.99800000000002L251.672,214.645L252.349,213.36800000000002L250.771,211.18800000000002L253.54999999999998,208.70800000000003L256.481,205.32700000000003L258.134,202.09600000000003L259.111,199.31600000000003L261.065,197.43700000000004L260.689,189.24600000000004L259.637,188.04400000000004L260.689,186.39100000000005L261.74100000000004,184.77000000000004L263.97,181.95100000000005L266.757,172.18300000000005L267.912,166.46500000000006L268.71,163.50000000000006L270.101,162.26900000000006L270.634,153.70000000000007L271.076,148.3100000000001L272.569,145.9900000000001L274.322,142.9670000000001L274.696,139.6430000000001L276.65500000000003,137.1100000000001L274.82700000000006,130.3300000000001L277.0760000000001,129.0880000000001L277.5220000000001,128.9900000000001L279.8220000000001,128.6650000000001H280.2570000000001L280.69600000000014,127.2180000000001L280.7140000000001,125.1560000000001L279.35500000000013,122.30000000000011L278.40800000000013,119.77900000000011L279.0120000000001,117.83100000000012L280.0150000000001,117.04300000000012L281.6280000000001,116.85600000000012L282.4410000000001,117.00800000000012L284.3550000000001,117.75000000000013L286.42100000000005,119.23300000000013L291.66,118.55600000000013L294.93600000000004,121.29800000000013L295.77700000000004,121.79500000000013L296.37100000000004,121.92900000000013L298.33900000000006,119.62200000000013L300.81800000000004,116.71300000000012C300.81800000000004,116.71300000000012,303.57900000000006,117.08200000000012,304.134,118.56000000000012S304.624,121.94700000000012,304.624,121.94700000000012L306.103,126.82400000000011L306.247,127.2990000000001L307.75,147.4850000000001L307.828,152.7910000000001L312.335,153.29800000000012L312.738,153.34700000000012L310.815,157.19400000000013L309.144,157.44700000000012L308.992,164.8380000000001C308.992,164.8380000000001,311.613,162.3980000000001,311.999,162.2260000000001S313.66,162.16200000000012,313.461,163.45400000000012S314.873,162.71600000000012,315.51800000000003,162.4580000000001S317.495,161.2320000000001,317.59700000000004,162.3260000000001S319.218,163.7250000000001,319.218,163.7250000000001L328.178,164.5350000000001L332.228,167.1170000000001L336.22700000000003,167.7240000000001L333.523,169.5490000000001L327.88300000000004,173.67700000000008L317.57000000000005,181.12400000000008C317.57000000000005,181.12400000000008,315.62800000000004,181.62700000000007,315.37800000000004,182.62700000000007S307.12800000000004,183.25200000000007,307.12800000000004,183.25200000000007S305.87800000000004,187.37700000000007,307.00300000000004,188.62700000000007S309.25300000000004,190.50200000000007,309.25300000000004,190.50200000000007S310.25300000000004,191.50200000000007,308.62800000000004,193.12700000000007S303.749,199.12700000000007,304.62600000000003,201.37700000000007S307.37800000000004,204.50200000000007,307.12800000000004,206.75200000000007S306.00300000000004,208.25200000000007,306.00300000000004,208.25200000000007S305.50300000000004,206.25200000000007,303.75300000000004,206.75200000000007S301.115,210.059,301.115,210.059Z"
    stroke-width="1"
    stroke-linejoin="round"
    style="-webkit-tap-highlight-color: rgba(0, 0, 0, 0); stroke-linejoin: round;"></path>
  <path
    fill="#cccccc"
    stroke="#222222"
    d="M304.623,121.943L315.327,123.073L325.912,129.376L366.765,132.17000000000002L365.64,125.42900000000002C365.64,125.42900000000002,367.251,124.25800000000001,368.614,123.87700000000001S373.08599999999996,122.674,373.08599999999996,122.674L374.02199999999993,120.33600000000001C374.02199999999993,120.33600000000001,374.1839999999999,119.86000000000001,374.86699999999996,120.38100000000001S376.36299999999994,121.12300000000002,376.36299999999994,121.12300000000002L378.1089999999999,120.48100000000002L380.7999999999999,119.20600000000002L381.8699999999999,119.62200000000001L381.5719999999999,121.82200000000002H385.3189999999999L386.3909999999999,126.09100000000002L388.4699999999999,127.82800000000002L393.1569999999999,128.335L394.11999999999995,126.926L401.4959999999999,121.117L402.1959999999999,122.20100000000001C402.1959999999999,122.20100000000001,399.2629999999999,127.20400000000001,398.7459999999999,127.85100000000001S395.25299999999993,130.352,395.25299999999993,130.352L393.33399999999995,131.748V135L388.167,136.5H385.5C385.5,136.5,384.166,142.583,383.416,144.333S382.83299999999997,148.25,382.83299999999997,148.25S385.332,151.084,385.916,154.667S387.582,159.084,385.166,160.167S382.166,161.167,382.166,161.167V170.834L381.167,173.667L380.25,177.151C380.25,177.151,377.166,178.917,377.083,179.334S376.583,184.417,376.583,184.417L376.083,188.834L375.083,192.334C375.083,192.334,372.62,190.149,372.35600000000005,189.21S371.56700000000006,180.042,371.56700000000006,180.042S370.81200000000007,177.313,368.31200000000007,175.375S363.5,172.5,363.5,172.5S364.625,169.312,363.312,169.062S358.75,171.313,359,173S357.75,174.438,356.375,173.813S356.813,170.375,355.375,170.125S351,171.313,350.75,172.688S350.938,177.50099999999998,350.938,177.50099999999998S352.251,179.68899999999996,351.626,181.62599999999998S351.313,184.31399999999996,349.063,184.25099999999998S341.313,182.75099999999998,341.313,182.75099999999998S341.063,185.81399999999996,342.313,187.12599999999998S346.501,186.25099999999998,346.063,187.87599999999998S343.938,190.688,342,191S336.75,189.437,336.75,189.437L332.687,189.312L328.687,186.74900000000002L324.249,185.06100000000004L320.43600000000004,182.74800000000005L317.56100000000004,181.12300000000005L323.36600000000004,176.88200000000006L332.124,170.65500000000006L334.60400000000004,168.68100000000007L336.22300000000007,167.71900000000008L332.22400000000005,167.11200000000008L328.17400000000004,164.5300000000001L319.21400000000006,163.72000000000008L317.69500000000005,163.41500000000008C317.69500000000005,163.41500000000008,318.30300000000005,161.99800000000008,316.68300000000005,162.09900000000007S313.494,164.12400000000008,313.494,164.12400000000008S313.54600000000005,161.69400000000007,312.38100000000003,162.0480000000001S308.98800000000006,164.83200000000008,308.98800000000006,164.83200000000008L309.14000000000004,157.4410000000001L310.81100000000004,157.1880000000001L312.73400000000004,153.3410000000001L310.254,153.0370000000001L307.824,152.7840000000001L307.72200000000004,145.8480000000001L307.266,137.0390000000001L306.185,126.7460000000001L305.06,123.3710000000001L304.621,121.7460000000001"
    stroke-width="1"
    stroke-linejoin="round"
    style="-webkit-tap-highlight-color: rgba(0, 0, 0, 0); stroke-linejoin: round;"></path>
  <path
    fill="#cccccc"
    stroke="#222222"
    d="M128.544,206.046C128.544,206.046,132.32600000000002,202.959,132.882,201.803S133.713,197.082,133.713,197.082L140.231,191.559C140.231,191.559,141.317,190.975,142.335,191.161S147.571,193.15200000000002,147.571,193.15200000000002L147.57,196.95600000000002L146.111,197.70600000000002L145.80499999999998,201.354C145.80499999999998,201.354,147.85599999999997,202.65,147.78599999999997,203.619S147.33199999999997,205.352,147.33199999999997,205.352L145.82299999999998,206.821L145.98899999999998,208.561L149.468,211.626L153.362,216.183C153.362,216.183,154.153,220.232,154.583,221.428S155.813,224.315,155.883,225.328S155.518,228.209,155.518,228.209L149.994,228.553C149.994,228.553,149.431,228.958,148.831,229.62S146.648,230.03300000000002,146.648,230.03300000000002L140.628,228.425L135.958,219.649L133.558,214.741L130.01999999999998,209.37800000000001L128.124,206.40800000000002L128.544,206.046Z"
    stroke-width="1"
    stroke-linejoin="round"
    style="-webkit-tap-highlight-color: rgba(0, 0, 0, 0); stroke-linejoin: round;"></path>
  <path
    fill="#cccccc"
    stroke="#222222"
    d="M155.518,228.209C155.518,228.209,156.658,226.454,155.258,223.224S153.36200000000002,216.183,153.36200000000002,216.183L149.46800000000002,211.626L145.989,208.561C145.989,208.561,145.57500000000002,206.74,145.989,206.40800000000002S147.572,205.16500000000002,147.572,205.16500000000002S148.078,203.67300000000003,147.572,202.92800000000003S145.805,201.35500000000002,145.805,201.35500000000002V197.79200000000003L147.572,197.29500000000002L147.553,193.41600000000003L147.898,188.53100000000003L152.646,192.25600000000003C152.646,192.25600000000003,153.66199999999998,190.23200000000003,154.137,190.44000000000003S155.528,190.74900000000002,155.398,191.82700000000003S155.259,194.33500000000004,155.259,194.33500000000004L165.16799999999998,202.50200000000004L168.16799999999998,203.33500000000004L177.22099999999998,209.16800000000003L178.80399999999997,211.84500000000003L179.46199999999996,215.61500000000004L179.63899999999995,217.27200000000005L177.32299999999995,222.78300000000004L178.54199999999994,226.88700000000006L179.63899999999995,228.03100000000006L181.79799999999994,228.44400000000007H185.09199999999996H185.92099999999996L183.01599999999996,235.94700000000006L176.97799999999995,231.79800000000006L172.16799999999995,228.77700000000007L167.42999999999995,228.69400000000007L160.98399999999995,228.25300000000007L155.518,228.209Z"
    stroke-width="1"
    stroke-linejoin="round"
    style="-webkit-tap-highlight-color: rgba(0, 0, 0, 0); stroke-linejoin: round;"></path>
  <path
    fill="#cccccc"
    stroke="#222222"
    d="M151.144,168.014L155.592,166.87C155.592,166.87,160.633,167.576,161.32100000000003,167.784S162.31300000000002,165.965,162.31300000000002,165.965S162.62500000000003,165.28900000000002,163.127,165.02100000000002S166.131,165.02100000000002,166.131,165.02100000000002L168.098,165.078L169.221,164.538L169.82500000000002,163.702L170.376,162.75C170.376,162.75,176.42000000000002,162.21,177.221,161.837S179.404,162.179,179.404,162.179L180.784,164.109L183.849,168.10000000000002C183.849,168.10000000000002,184.22799999999998,168.883,184.646,168.71800000000002S185.56699999999998,167.52,185.56699999999998,167.52L185.933,164.371C185.933,164.371,187.93599999999998,166.841,188.602,167.56S188.876,169.833,188.876,169.833L191.548,170.807L193.729,175.13L197.376,176.18699999999998C197.376,176.18699999999998,197.61100000000002,174.921,197.604,174.45899999999997S197.881,171.77299999999997,197.881,171.77299999999997L199.439,168.74899999999997C199.439,168.74899999999997,197.993,166.32699999999997,197.793,165.89699999999996S198.939,164.87699999999995,199.282,164.40699999999995S199.672,162.78399999999996,199.672,162.78399999999996L196.466,160.00099999999998L195.989,158.95399999999998C195.989,158.95399999999998,196.317,158.57,196.668,158.164S197.814,157.30999999999997,197.814,157.30999999999997L197.20999999999998,153.83099999999996L198.576,152.23699999999997L199.28199999999998,147.59099999999998L203.158,151.11199999999997L208.302,151.73199999999997L210.898,152.62799999999996L211.063,157.34299999999996C211.063,157.34299999999996,208.69799999999998,160.22899999999996,209.05599999999998,161.11599999999996S210.44199999999998,162.61599999999996,210.44199999999998,162.61599999999996L210.55299999999997,167.28299999999996L211.83699999999996,167.86899999999997L214.63099999999997,172.41299999999998C214.63099999999997,172.41299999999998,214.38799999999998,175.45499999999998,213.92399999999998,176.03099999999998S211.63299999999998,178.224,211.34999999999997,178.86799999999997S210.63999999999996,180.71999999999997,210.63999999999996,180.71999999999997L207.10199999999995,184.18499999999997L201.18899999999994,188.90099999999998L199.26199999999994,189.99599999999998L199.19799999999995,195.83399999999997L197.79299999999995,198.14399999999998V204.17399999999998L194.51599999999996,206.99599999999998C194.51599999999996,206.99599999999998,189.70399999999995,213.54,190.34599999999998,214.951S186.68899999999996,213.476,184.765,215.208S179.95399999999998,215.913,179.505,217.581C179.505,217.581,179.775,211.32899999999998,177.222,209.16299999999998S171.50300000000001,204.82999999999998,168.169,203.32999999999998S165.169,202.49699999999999,165.169,202.49699999999999L155.26000000000002,194.32999999999998C155.26000000000002,194.32999999999998,156.15400000000002,193.03799999999998,155.26000000000002,191.564S154.121,190.13899999999998,153.58,191.12199999999999S152.64600000000002,192.25199999999998,152.64600000000002,192.25199999999998L147.57500000000002,188.27299999999997L147.61300000000003,179.04099999999997L149.76800000000003,177.63899999999998C149.76800000000003,177.63899999999998,150.76700000000002,175.22099999999998,150.53500000000003,174.493S150.59300000000002,173.429,149.62300000000002,173.724S147.93900000000002,173.82299999999998,147.93900000000002,173.82299999999998S147.53900000000002,173.17799999999997,147.57500000000002,172.71299999999997S148.72500000000002,171.43399999999997,148.72500000000002,171.43399999999997L150.193,168.84899999999996L150.958,168.07199999999997"
    stroke-width="1"
    stroke-linejoin="round"
    style="-webkit-tap-highlight-color: rgba(0, 0, 0, 0); stroke-linejoin: round;"></path>
  <path
    fill="#cccccc"
    stroke="#222222"
    d="M128.124,206.407L122.82799999999999,201.40200000000002C122.82799999999999,201.40200000000002,121.478,196.42200000000003,115.99799999999999,193.67100000000002S109.80399999999999,190.603,109.80399999999999,190.603L103.92799999999998,189.25300000000001L95.88699999999999,179.465L99.08399999999999,180.15800000000002L100.54699999999998,180.573L109.96299999999998,179.465L110.58899999999998,181.077C110.58899999999998,181.077,113.18199999999999,181.156,113.82999999999998,181.386S117.35599999999998,183.397,117.35599999999998,183.397L121.83499999999998,180.063L125.40499999999997,180.759L127.95699999999998,176.909C127.95699999999998,176.909,132.29,179.869,132.91899999999998,180.155S135.009,180.964,134.94299999999998,178.758S134.945,172.36800000000002,134.945,172.36800000000002L142.751,170.69500000000002C142.751,170.69500000000002,142.538,168.56900000000002,143.721,168.247S145.041,167.98700000000002,145.041,167.98700000000002L145.656,169.026L145.934,169.71L151.144,168.01500000000001C151.144,168.01500000000001,150.154,168.34,149.622,170.055S146.54600000000002,172.65800000000002,147.78900000000002,173.722S150.21400000000003,172.598,150.51000000000002,174.31300000000002S149.741,177.68400000000003,149.741,177.68400000000003L147.61200000000002,179.04400000000004L147.55300000000003,193.41500000000005C147.55300000000003,193.41500000000005,145.06900000000002,191.76000000000005,143.354,191.34600000000006S140.51500000000001,190.93300000000005,138.32700000000003,193.00200000000007S133.71400000000003,197.08200000000008,133.71400000000003,197.08200000000008S134.18700000000004,200.3350000000001,132.65000000000003,202.10900000000007S128.124,206.407,128.124,206.407Z"
    stroke-width="1"
    stroke-linejoin="round"
    style="-webkit-tap-highlight-color: rgba(0, 0, 0, 0); stroke-linejoin: round;"></path>
  <path
    fill="#cccccc"
    stroke="#222222"
    d="M180.353,217.134C180.353,217.134,182.764,216.31099999999998,183.449,215.987S185.25900000000001,214.823,185.639,214.74699999999999S187.05,214.61599999999999,188.333,214.922S190.24,215.353,190.24,215.353S190.226,214.472,190.517,213.715S193.262,208.851,193.262,208.851L194.777,206.774L196.343,205.425L197.88799999999998,209.04000000000002L200.24899999999997,211.62600000000003C200.24899999999997,211.62600000000003,203.96599999999998,210.51100000000002,204.78199999999995,211.49300000000002S204.99899999999997,213.62600000000003,204.99899999999997,213.62600000000003L209.99599999999998,214.25900000000004C209.99599999999998,214.25900000000004,211.628,214.22800000000004,211.783,213.62200000000004S212.343,211.72600000000006,212.343,211.72600000000006S212.185,211.35100000000006,213.345,211.03800000000007S216.686,210.22000000000006,217.405,210.59500000000006S218.966,212.28800000000007,218.966,212.28800000000007L219.127,214.51900000000006V216.95700000000005C219.127,216.95700000000005,219.25900000000001,216.14500000000004,219.638,216.76900000000006S220.311,218.09400000000005,220.311,218.09400000000005L220.198,221.33100000000005C220.198,221.33100000000005,219.769,222.17600000000004,219.632,222.23200000000006S215.299,222.75400000000005,215.299,222.75400000000005S212.57,225.70700000000005,212.957,226.33200000000005S213.749,226.99900000000005,214.03799999999998,226.98200000000006S215.374,226.54100000000005,215.374,226.54100000000005L215.31799999999998,228.70700000000005L215.69899999999998,230.20800000000006L216.515,231.20400000000006L217.849,230.85500000000008L220.83599999999998,229.6550000000001L223.48199999999997,228.5960000000001L223.95799999999997,231.4660000000001C223.95799999999997,231.4660000000001,224.02799999999996,232.7960000000001,224.49399999999997,233.3930000000001S224.49899999999997,236.0540000000001,224.49899999999997,236.0540000000001L220.55699999999996,238.4840000000001L220.08799999999997,238.88000000000008L216.22399999999996,236.8340000000001L215.43599999999995,233.4360000000001L207.93399999999994,230.32700000000008L202.19499999999994,227.81500000000008L201.81199999999993,227.62400000000008L201.51599999999993,225.9050000000001L199.06799999999993,223.76000000000008L195.84999999999994,222.88300000000007C195.84999999999994,222.88300000000007,196.01499999999993,223.78600000000006,195.31199999999993,223.83400000000006S191.26199999999992,224.03200000000007,190.39199999999994,223.79800000000006S188.68899999999994,223.24900000000005,188.68899999999994,223.24900000000005L183.50299999999993,222.31100000000006L183.48199999999994,219.72600000000006C183.48199999999994,219.72600000000006,183.54199999999994,219.40500000000006,183.06199999999995,219.58800000000005S181.31099999999995,219.58500000000006,181.31099999999995,219.58500000000006L180.353,217.134Z"
    stroke-width="1"
    stroke-linejoin="round"
    style="-webkit-tap-highlight-color: rgba(0, 0, 0, 0); stroke-linejoin: round;"></path>
  <path
    fill="#cccccc"
    stroke="#222222"
    d="M225,233.813C225,233.813,224.094,233.40699999999998,224.018,232.10899999999998S223.484,228.59799999999998,223.484,228.59799999999998S218.067,230.76,216.99800000000002,231.20499999999998S215.31900000000002,229.13199999999998,215.31900000000002,229.13199999999998V226.82999999999998C215.31900000000002,226.82999999999998,212.26700000000002,227.45299999999997,212.72500000000002,226.23199999999997S215.09000000000003,222.79799999999997,215.09000000000003,222.79799999999997S216.71300000000002,222.42599999999996,218.83900000000003,222.38299999999998S219.97400000000002,220.58599999999998,220.05000000000004,218.14399999999998S218.83900000000003,217.22799999999998,218.83900000000003,217.22799999999998L219.25000000000003,213.37399999999997L221.34800000000004,211.05199999999996C221.34800000000004,211.05199999999996,223.08700000000005,212.12999999999997,223.42200000000005,212.31399999999996S226.07800000000006,211.05199999999996,226.07800000000006,211.05199999999996L229.09000000000006,211.46899999999997L232.09700000000007,211.51199999999997L234.65000000000006,210.85599999999997L235.97400000000007,209.64299999999997L237.34900000000007,209.06599999999997L240.19500000000008,208.84899999999996L243.9470000000001,209.40899999999996L250.7700000000001,211.18599999999995L252.2330000000001,213.20699999999994L251.86100000000008,214.66199999999995L248.84300000000007,216.07699999999994L248.87700000000007,221.22999999999993C248.87700000000007,221.22999999999993,250.41700000000006,222.50099999999992,249.62500000000006,223.08399999999995S247.77900000000005,224.52499999999995,247.12200000000007,224.69199999999995S245.96900000000008,225.02299999999994,245.96900000000008,225.02299999999994S245.49300000000008,225.25699999999995,246.8220000000001,226.10499999999993S248.91600000000008,227.81499999999994,249.1670000000001,228.55299999999994S249.0420000000001,230.16599999999994,249.0420000000001,230.16599999999994V231.43299999999994C249.0420000000001,231.43299999999994,248.8410000000001,230.38799999999995,247.92100000000008,231.09999999999994S246.9050000000001,232.05399999999995,246.43400000000008,232.23599999999993S242.37400000000008,232.90899999999993,242.37400000000008,232.90899999999993L240.7930000000001,232.93999999999994L239.5020000000001,231.24499999999995L234.9610000000001,231.12899999999993L232.8760000000001,229.43799999999993L227.5390000000001,229.87599999999992L227.3340000000001,232.54899999999992L225,233.813Z"
    stroke-width="1"
    stroke-linejoin="round"
    style="-webkit-tap-highlight-color: rgba(0, 0, 0, 0); stroke-linejoin: round;"></path>
  <path
    fill="#cccccc"
    stroke="#222222"
    d="M197.792,204.177V198.147L199.197,195.837L199.40200000000002,189.91899999999998L201.854,188.88199999999998L212.03900000000002,193.67099999999996L218.37900000000002,188.26299999999998L219.05800000000002,186.515L224.31000000000003,187.79299999999998L224.42400000000004,184.48199999999997C224.42400000000004,184.48199999999997,234.53200000000004,182.30799999999996,235.56200000000004,182.09499999999997S242.11500000000004,180.94499999999996,243.04200000000003,180.97099999999998S245.17900000000003,181.12099999999998,246.96400000000003,182.28999999999996S249.65200000000002,184.76799999999997,249.65200000000002,184.76799999999997H250H261.5H261.836L259.636,188.04199999999997L260.68800000000005,189.24399999999997L261.064,197.43499999999997L259.23,199.19899999999998L258.18,201.95999999999998L256.541,205.206L253.27,208.956L250.77,211.18699999999998C250.77,211.18699999999998,241.875,208.37499999999997,238.375,208.87499999999997S236.141,210.37299999999996,233.945,211.18699999999998S226.5,211.18699999999998,226.5,211.18699999999998S225.5,211.66099999999997,224.5,212.456S222,210.25099999999998,220.75,211.25099999999998S219.25,213.37599999999998,219.25,213.37599999999998S219.125,210.20399999999998,215.375,210.60299999999998S212.125,212.37599999999998,211.875,213.37599999999998S210.375,214.37599999999998,208.75,214.12599999999998S205,213.62599999999998,205,213.62599999999998S206.125,211.25099999999998,203.75,211.25099999999998S200.25,211.62599999999998,200.25,211.62599999999998S198.333,209.37599999999998,197.792,208.75099999999998S196.344,205.42499999999998,196.344,205.42499999999998L197.792,204.177Z"
    stroke-width="1"
    stroke-linejoin="round"
    style="-webkit-tap-highlight-color: rgba(0, 0, 0, 0); stroke-linejoin: round;"></path>
  <path
    fill="#cccccc"
    stroke="#222222"
    d="M250.063,232.875C251.00099999999998,234.875,248.625,233.875,248.625,233.875L249.041,236.375C249.041,236.375,250.5,237.875,250.5,239.188S249.312,240.12599999999998,249.312,240.12599999999998L248.437,241.93899999999996L247.937,246.00199999999995L243.946,245.56399999999996C243.946,245.56399999999996,243,242.62599999999998,241.062,241.43899999999996S237.687,243.68899999999996,237.687,243.68899999999996L236.281,246.81399999999996L237.469,249.87699999999995C237.469,249.87699999999995,238.78199999999998,251.31499999999994,240.094,251.31499999999994S240.5,249.59599999999995,240.5,249.59599999999995L245.719,249.37699999999995L246,250.84599999999995C246,250.84599999999995,247.531,251.31499999999994,249.406,251.34599999999995S251.031,249.65799999999996,251.031,249.65799999999996S255.281,250.25199999999995,256.156,250.03299999999996S260.281,246.37699999999995,260.781,246.62699999999995S264.606,250.60299999999995,264.606,250.60299999999995L266.544,248.74499999999995C266.544,248.74499999999995,266.544,248.74499999999995,267.36199999999997,250.20399999999995S271.17299999999994,252.84799999999996,271.17299999999994,252.84799999999996L272.5609999999999,251.76799999999994L278.2819999999999,252.21599999999995L280.0759999999999,250.48999999999995L280.8279999999999,250.63999999999996L281.2039999999999,252.51899999999995L281.0229999999999,254.25499999999994L280.9779999999999,256.31899999999996L281.4279999999999,257.47799999999995L283.23199999999986,257.40299999999996L283.98399999999987,254.62199999999996L285.87899999999985,256.76899999999995L287.54799999999983,258.00299999999993H289.46999999999986L290.37099999999987,256.8759999999999L290.07099999999986,254.09599999999992L295.12399999999985,248.38699999999992L295.32999999999987,245.30399999999992L298.6369999999999,245.07799999999992L299.5379999999999,244.7019999999999L299.4629999999999,241.6959999999999L302.8339999999999,240.06099999999992L302.4349999999999,237.58399999999992L307.6829999999999,231.4689999999999L302.8219999999999,225.1269999999999L302.5449999999999,222.9839999999999L303.9149999999999,219.5299999999999L304.1969999999999,212.5379999999999L301.94299999999987,212.9139999999999L301.1159999999999,210.0589999999999L298.6109999999999,210.85299999999992L295.6159999999999,212.88099999999991C295.6159999999999,212.88099999999991,294.71999999999986,214.1959999999999,293.9379999999999,215.6479999999999S289.8459999999999,216.89899999999992,289.8459999999999,216.89899999999992S285.8929999999999,214.7949999999999,284.7189999999999,214.8379999999999S280.44299999999987,216.7009999999999,280.44299999999987,216.7009999999999L276.62099999999987,217.04799999999992L268.8319999999999,222.0869999999999C266.4799999999999,214.61299999999991,259.7479999999999,217.3849999999999,259.7479999999999,217.3849999999999L254.90299999999988,221.2569999999999L249.0419999999999,221.4369999999999C249.0419999999999,221.4369999999999,250.65299999999988,223.1499999999999,248.6459999999999,224.1539999999999S244.1729999999999,224.7019999999999,247.0939999999999,226.2539999999999S249.04199999999992,229.63099999999991,249.04199999999992,229.63099999999991V231.43499999999992L250.063,232.875Z"
    stroke-width="1"
    stroke-linejoin="round"
    style="-webkit-tap-highlight-color: rgba(0, 0, 0, 0); stroke-linejoin: round;"></path>
  <path
    fill="#cccccc"
    stroke="#222222"
    d="M236.281,246.875L237.469,249.875C237.469,249.875,238.89499999999998,251.209,239.605,251.251S240.554,251.196,240.554,251.196L240.758,250.289L240.5,249.594L245.719,249.375L246,250.844C246,250.844,248.268,251.36499999999998,249.092,251.334S250.209,251.32500000000002,250.477,251.074S251.04,249.833,251.04,249.833L256.262,250.145L260.475,246.691L264.798,250.735L266.634,248.9L267.69100000000003,250.65200000000002L268.33700000000005,251.336L270.6940000000001,252.638L270.9720000000001,252.99800000000002L268.7500000000001,254.70600000000002L266.89600000000013,257.206L266.02500000000015,258.75H266.7330000000002L266.77500000000015,264.926L266.33000000000015,267.046L265.12300000000016,268.702L264.58700000000016,269.346L253.90800000000016,269.041L250.36200000000017,267.279L247.16500000000016,264.278L244.07700000000017,262.603L236.46500000000017,262.254L229.98400000000018,259.40500000000003L221.77000000000018,254.93700000000004V249.37400000000005L216.25100000000018,248.81100000000006L215.83500000000018,248.11500000000007L215.56000000000017,245.11700000000008C215.56000000000017,245.11700000000008,216.44700000000017,245.4830000000001,217.26500000000019,244.9830000000001S218.54800000000017,244.4010000000001,219.00200000000018,244.1430000000001S225,243.5,225,243.5S224.568,243.793,224.146,244.288S223.724,246.372,223.97299999999998,246.68900000000002S225.333,247.66700000000003,225.333,247.66700000000003L228.039,247.57200000000003C228.039,247.57200000000003,230.19899999999998,245.75800000000004,230.921,246.82700000000003S231.301,249.12400000000002,232.658,248.96500000000003S236.28099999999998,246.81300000000005,236.28099999999998,246.81300000000005"
    stroke-width="1"
    stroke-linejoin="round"
    style="-webkit-tap-highlight-color: rgba(0, 0, 0, 0); stroke-linejoin: round;"></path>
  <path
    fill="#cccccc"
    stroke="#222222"
    d="M225.333,247.667H227.916C227.916,247.667,229.916,246.022,230.666,246.887S231.665,249.752,233.749,248.918S236.28,246.875,236.28,246.875S238.01,242.902,238.418,242.411S239.154,241.531,239.71,241.423S241.32000000000002,241.394,241.687,241.77700000000002S243.859,245.32000000000002,243.859,245.32000000000002L244.02200000000002,245.57200000000003L247.82800000000003,245.98900000000003L248.41700000000003,242.05900000000003L249.38700000000003,240.03000000000003C249.38700000000003,240.03000000000003,250.22400000000002,240.28000000000003,250.47500000000002,239.49500000000003S250.12000000000003,237.55400000000003,249.93400000000003,237.31900000000005S249.07500000000002,236.41100000000006,249.07500000000002,236.41100000000006L248.626,233.87600000000006C248.626,233.87600000000006,249.16400000000002,234.08300000000006,249.642,234.12400000000005S250.346,234.34000000000006,250.40099999999998,233.87600000000006S249.712,231.71800000000007,249.27999999999997,231.49500000000006S248.19299999999998,230.72600000000006,247.54999999999998,231.26300000000006S246.43499999999997,232.23800000000006,246.43499999999997,232.23800000000006L240.68399999999997,232.79800000000006L239.50299999999996,231.24700000000007L234.96199999999996,231.13100000000006L233.00799999999995,229.54600000000005H227.48199999999994L227.18199999999993,232.87200000000004L225.18999999999994,233.81400000000005L224.41899999999995,235.91800000000006L220.09099999999995,238.88300000000007L216.19399999999996,236.69500000000008L215.23199999999997,233.50800000000007L210.46799999999996,231.59500000000006L210.15099999999995,233.28800000000007C210.15099999999995,233.28800000000007,209.33699999999996,233.96000000000006,208.29499999999996,233.98000000000008S207.42399999999995,233.98500000000007,207.42399999999995,233.98500000000007L207.48699999999994,237.90700000000007L210.62799999999993,239.15700000000007L209.83099999999993,244.06300000000007C209.83099999999993,244.06300000000007,210.86199999999994,243.44000000000008,212.23699999999994,243.59500000000008S214.18999999999994,244.1570000000001,214.18999999999994,244.1570000000001L215.72099999999995,244.9540000000001C215.72099999999995,244.9540000000001,216.62699999999995,245.5630000000001,217.75199999999995,244.6880000000001S222.85699999999994,243.5000000000001,224.14799999999994,243.5000000000001S225.43899999999994,243.5000000000001,225.43899999999994,243.5000000000001S223.43899999999994,243.8750000000001,223.68899999999994,245.4380000000001S224.14799999999994,246.9620000000001,224.14799999999994,246.9620000000001L225.333,247.667Z"
    stroke-width="1"
    stroke-linejoin="round"
    style="-webkit-tap-highlight-color: rgba(0, 0, 0, 0); stroke-linejoin: round;"></path>
  <path
    fill="#cccccc"
    stroke="#222222"
    d="M221.769,255.337V249.375L216.25,248.812L215.834,248.116L215.537,244.88000000000002L213.725,244.16700000000003C213.725,244.16700000000003,213.962,243.66200000000003,212.50799999999998,243.60300000000004S210.46599999999998,243.81100000000004,210.46599999999998,243.81100000000004L209.896,244.07800000000003L210.46599999999998,239.09000000000003L208.183,238.58800000000002L207.965,240.30800000000002L207.038,240.52100000000002H205.946L204.877,239.98200000000003L204.43200000000002,240.52100000000002L204.10600000000002,241.288L205.21400000000003,242.935L205.75500000000002,244.005L205.52700000000002,244.91L201.55900000000003,248.134L201.33,248.31099999999998L203.574,249.783L206.679,251.196L208.613,252.071L215.061,252.189L221.114,255.015L221.769,255.337Z"
    stroke-width="1"
    stroke-linejoin="round"
    style="-webkit-tap-highlight-color: rgba(0, 0, 0, 0); stroke-linejoin: round;"></path>
  <path
    fill="#cccccc"
    stroke="#222222"
    d="M199.76,238.613C199.851,238.377,199.54899999999998,237.72,199.30599999999998,237.316S197.85799999999998,236.648,197.85799999999998,236.648L191.62999999999997,236.055L191.53799999999995,232.273L194.27499999999995,233.844L195.99699999999996,234.35L197.79999999999995,233.81199999999998L198.38999999999996,232.90099999999998L198.99099999999996,232.82299999999998L200.41099999999994,234.004L201.63299999999995,235.408L202.38299999999995,235.61399999999998L203.43799999999996,235.73299999999998L203.97499999999997,235.31499999999997L203.95199999999997,234.39099999999996L203.55599999999998,233.50699999999998L202.308,231.623L200.527,230.232L199.968,229.285V228.282L201.128,227.71L202.19699999999997,227.815L210.46799999999996,231.303C210.46799999999996,231.303,210.14799999999997,232.834,210.14799999999997,233.341S207.80099999999996,234.029,207.80099999999996,234.029L207.73799999999997,237.844C207.73799999999997,237.844,208.68899999999996,236.512,208.11899999999997,238.88S207.73799999999997,239.81,207.04099999999997,240.518S205.89899999999997,239.62,204.50399999999996,240.254S205.32799999999997,243.04399999999998,205.32799999999997,243.04399999999998S205.96199999999996,244.18599999999998,205.83499999999998,244.56499999999997S201.33299999999997,248.30699999999996,201.33299999999997,248.30699999999996L198.31399999999996,246.55999999999995L196.43899999999996,244.38699999999994L195.79699999999997,243.14199999999994L196.34499999999997,240.82599999999994L197.70099999999996,240.22599999999994L199.20899999999997,239.50999999999993L199.73999999999998,238.68199999999993"
    stroke-width="1"
    stroke-linejoin="round"
    style="-webkit-tap-highlight-color: rgba(0, 0, 0, 0); stroke-linejoin: round;"></path>
  <path
    fill="#cccccc"
    stroke="#222222"
    d="M201.813,227.625L201.313,225.594L198.59799999999998,223.53799999999998L195.91199999999998,223.063L195.39,223.65599999999998L193.119,224.04899999999998C193.119,224.04899999999998,190.702,223.86299999999997,190.392,223.79999999999998S188.916,223.33299999999997,188.916,223.33299999999997L183.499,222.38399999999996L183.519,221.97999999999996C183.519,221.97999999999996,183.483,219.92499999999995,183.312,219.48699999999997S182.77900000000002,219.65099999999995,182.77900000000002,219.65099999999995L181.37500000000003,219.75099999999995L181.10000000000002,219.19399999999996L180.21000000000004,216.76999999999995L179.63700000000003,217.26999999999995L177.32100000000003,222.78099999999995L178.34000000000003,226.21399999999994C178.34000000000003,226.21399999999994,179.06200000000004,227.43099999999995,180.35200000000003,227.94399999999993S185.80000000000004,228.44199999999992,185.80000000000004,228.44199999999992L184.82200000000003,231.2729999999999L183.54300000000003,235.92999999999992L186.74300000000002,238.88199999999992H192.026L191.662,239.6529999999999H196.34300000000002L196.97400000000002,240.51899999999992C196.97400000000002,240.51899999999992,200.05900000000003,239.44999999999993,199.75300000000001,238.3199999999999S199.08100000000002,236.73299999999992,197.096,236.54899999999992S191.629,236.05499999999992,191.629,236.05499999999992L191.53699999999998,232.2729999999999L194.16299999999998,233.8119999999999L195.99599999999998,234.3499999999999L197.706,234.1059999999999C197.706,234.1059999999999,198.10299999999998,232.4869999999999,198.98899999999998,232.82299999999992S201.81099999999998,235.63299999999992,201.81099999999998,235.63299999999992S205.403,236.7019999999999,203.47799999999998,233.37299999999993S200.39299999999997,230.22699999999995,200.39299999999997,230.22699999999995S199.07999999999998,228.63799999999995,200.27099999999996,228.05799999999994S201.813,227.625,201.813,227.625Z"
    stroke-width="1"
    stroke-linejoin="round"
    style="-webkit-tap-highlight-color: rgba(0, 0, 0, 0); stroke-linejoin: round;"></path>
</svg>
