<svg height="420" version="1.1" width="540" xmlns="http://www.w3.org/2000/svg" xmlns:xlink="http://www.w3.org/1999/xlink" style="overflow: hidden; position: relative; top: -0.4px;">
  <desc style="-webkit-tap-highlight-color: rgba(0, 0, 0, 0);">Created with Raphaël 2.2.0</desc>
  <defs style="-webkit-tap-highlight-color: rgba(0, 0, 0, 0);"></defs>
  <path fill="#cccccc" stroke="#222222" d="M275.609,336.404C275.609,336.404,278.144,336.404,278.416,335.861" stroke-width="1" stroke-linejoin="round" style="-webkit-tap-highlight-color: rgba(0, 0, 0, 0); stroke-linejoin: round;"></path>
  <path
    fill="#cccccc"
    stroke="#222222"
    d="M333.165,353.676L331.39000000000004,352.167L329.081,354.11999999999995L324.372,360.2459999999999L283.88800000000003,365.3959999999999L255.43600000000004,368.9739999999999C255.43600000000004,368.9739999999999,253.17300000000003,365.5359999999999,251.09300000000005,364.72199999999987S249.28300000000004,362.90999999999985,250.36900000000006,361.1009999999999S252.26800000000006,357.20999999999987,252.26800000000006,357.20999999999987L256.2490000000001,354.76799999999986C256.2490000000001,354.76799999999986,257.7870000000001,352.5049999999999,259.0540000000001,350.0629999999999S261.49500000000006,346.53499999999985,262.6720000000001,344.00099999999986S264.4820000000001,340.1109999999999,264.4820000000001,340.1109999999999S267.82900000000006,337.3959999999999,269.7290000000001,335.4059999999999C269.7290000000001,335.4059999999999,270.8310000000001,333.8919999999999,273.0690000000001,335.0429999999999S278.0900000000001,336.7619999999999,278.9870000000001,335.6959999999999S283.93700000000007,329.8109999999999,283.93700000000007,329.8109999999999S290.68300000000005,332.1909999999999,291.35100000000006,332.74299999999994S293.39700000000005,334.00399999999996,292.08900000000006,335.51599999999996S287.9390000000001,340.64199999999994,287.9390000000001,340.64199999999994S288.3590000000001,341.47299999999996,289.0850000000001,341.64099999999996S294.9230000000001,342.58799999999997,296.3150000000001,341.90599999999995S301.9060000000001,339.28299999999996,302.6810000000001,340.75499999999994S303.6860000000001,342.53599999999994,303.4510000000001,344.30099999999993S303.0580000000001,347.2459999999999,303.0580000000001,347.2459999999999L305.3900000000001,350.26699999999994L307.4590000000001,348.73599999999993C307.4590000000001,348.73599999999993,308.2670000000001,348.2029999999999,308.08800000000014,347.50899999999996S307.15000000000015,345.26499999999993,307.15000000000015,345.26499999999993L311.40400000000017,341.9699999999999C311.40400000000017,341.9699999999999,311.9440000000002,341.10599999999994,311.87100000000015,339.86799999999994S312.00100000000015,337.66299999999995,312.00100000000015,337.66299999999995S311.93800000000016,336.9,313.27900000000017,336.81399999999996S317.1530000000002,336.14899999999994,317.97000000000014,337.20199999999994S319.4010000000001,340.36599999999993,319.4010000000001,340.36599999999993S320.3150000000001,341.3209999999999,321.1440000000001,341.2009999999999S324.0020000000001,340.4169999999999,324.5480000000001,340.3589999999999S326.39600000000013,340.4239999999999,326.7750000000001,340.5759999999999S331.4980000000001,345.2979999999999,331.4980000000001,345.2979999999999L332.4890000000001,346.68599999999986L333.165,353.676Z"
    stroke-width="1"
    stroke-linejoin="round"
    style="-webkit-tap-highlight-color: rgba(0, 0, 0, 0); stroke-linejoin: round;"></path>
  <path
    fill="#cccccc"
    stroke="#222222"
    d="M277.421,333.237L276.154,332.87600000000003C276.154,332.87600000000003,272.625,329.8,270.997,328.985S268.735,327.99,268.735,327.99S267.469,326.27,268.19300000000004,324.371S270.72600000000006,320.75399999999996,270.18300000000005,318.491S270.99700000000007,306.27799999999996,271.08700000000005,305.28299999999996S273.34900000000005,301.92499999999995,274.07200000000006,301.70399999999995S278.24300000000005,301.56299999999993,278.24300000000005,301.56299999999993C280.64500000000004,302.3639999999999,283.21000000000004,299.4799999999999,283.21000000000004,299.4799999999999L288.528,299.1049999999999L288.922,298.4469999999999C288.922,298.4469999999999,292.42100000000005,296.8619999999999,293.411,294.8819999999999S297.636,290.2619999999999,297.636,290.2619999999999L300.47400000000005,290.32799999999986L300.672,289.20599999999985C300.672,289.20599999999985,301.002,285.97199999999987,301.20000000000005,285.70799999999986S305.35800000000006,284.65099999999984,305.35800000000006,284.65099999999984L307.4050000000001,286.49999999999983C307.4050000000001,286.49999999999983,307.9980000000001,286.76399999999984,309.12000000000006,286.16999999999985S310.1770000000001,287.48999999999984,310.1770000000001,287.48999999999984L309.25200000000007,289.53599999999983L309.58200000000005,292.10999999999984L311.10100000000006,292.8369999999998L311.49700000000007,294.5529999999998L314.26900000000006,295.47799999999984L314.86300000000006,297.58999999999986L317.76700000000005,298.05199999999985L317.63400000000007,297.52399999999983L317.1720000000001,295.5439999999998L320.2750000000001,293.89399999999983L322.2550000000001,295.6759999999998L322.9820000000001,293.36499999999984L325.2920000000001,293.23299999999983L329.6240000000001,295.5009999999998L330.19700000000006,303.6389999999998L330.2490000000001,304.3759999999998L329.3430000000001,306.3019999999998L331.5920000000001,311.01699999999977C331.5920000000001,311.01699999999977,329.3470000000001,310.8619999999998,328.9230000000001,312.0569999999998S329.99900000000014,316.1259999999998,329.99900000000014,316.1259999999998L329.62400000000014,324.8759999999998L332.87400000000014,325.5009999999998L335.99900000000014,330.5009999999998L334.12400000000014,338.7509999999998C334.12400000000014,338.7509999999998,331.53300000000013,338.34599999999983,331.49600000000015,339.1419999999998S333.16000000000014,341.9119999999998,333.16000000000014,341.9119999999998L331.49800000000016,345.3009999999998L327.33700000000016,340.8209999999998C327.33700000000016,340.8209999999998,325.66600000000017,339.8869999999998,323.94800000000015,340.5259999999998S321.02700000000016,341.21399999999977,321.02700000000016,341.21399999999977S319.5550000000002,340.8699999999998,319.23600000000016,340.10899999999975S318.69500000000016,336.52499999999975,316.36300000000017,336.62299999999976S311.47900000000016,336.89299999999974,311.7980000000002,338.63599999999974S311.40400000000017,341.97499999999974,311.40400000000017,341.97499999999974L306.93600000000015,345.43599999999975C306.93600000000015,345.43599999999975,308.97400000000016,347.4229999999998,307.64900000000017,348.57799999999975S305.39000000000016,350.27199999999976,305.39000000000016,350.27199999999976L303.05800000000016,347.25099999999975L303.45100000000014,344.30599999999976C303.45100000000014,344.30599999999976,304.0650000000001,341.9489999999997,302.49400000000014,340.5739999999997S297.04500000000013,341.6539999999997,296.11200000000014,341.9979999999997S287.2260000000001,342.19399999999973,287.93800000000016,340.6479999999997S290.8100000000002,337.06499999999966,291.52200000000016,336.2299999999997S293.2400000000002,334.2899999999997,291.7180000000002,333.0129999999997S283.9360000000002,329.81699999999967,283.9360000000002,329.81699999999967L278.9860000000002,335.70199999999966L277.421,333.237Z"
    stroke-width="1"
    stroke-linejoin="round"
    style="-webkit-tap-highlight-color: rgba(0, 0, 0, 0); stroke-linejoin: round;"></path>
  <path
    fill="#cccccc"
    stroke="#222222"
    d="M333.165,353.676C333.165,353.676,333.165,353.676,335.208,352.877S341.156,352.345,341.156,352.345L344.973,353.41L359.26800000000003,357.139C359.26800000000003,357.139,360.6,358.117,365.30600000000004,357.139S370.499,352.75,370.499,352.75L363,280L358.58,239.515L355.71099999999996,238.94099999999997L351.54999999999995,234.34999999999997L348.25199999999995,233.74899999999997L347.94899999999996,232.35299999999998L346.24999999999994,233.86999999999998L344.0659999999999,233.01999999999998L342.4269999999999,234.355L341.3959999999999,233.203L338.1559999999999,232.895C338.1559999999999,232.895,337.5779999999999,232.691,335.9819999999999,232.583S333.5089999999999,235.629,333.5089999999999,235.629L326.4499999999999,238.982C326.4499999999999,238.982,325.11699999999985,238.35,323.0599999999999,237.667S319.6339999999999,238.304,319.6339999999999,238.304L318.9549999999999,240.756L315.9839999999999,247.819L318.4249999999999,263.067L321.6599999999999,265.641C321.6599999999999,265.641,324.36599999999993,265.641,325.5549999999999,266.89500000000004S326.7429999999999,268.14900000000006,326.7429999999999,268.14900000000006S329.3169999999999,266.96100000000007,330.57099999999986,268.41400000000004S333.60699999999986,271.05500000000006,333.60699999999986,271.05500000000006L334.20099999999985,271.84600000000006L329.51299999999986,275.87200000000007C329.51299999999986,275.87200000000007,328.65599999999984,277.98300000000006,330.1079999999999,278.24800000000005S334.2009999999999,277.78600000000006,334.2009999999999,277.78600000000006S336.4439999999999,279.43600000000004,337.6989999999999,278.3140000000001S338.9539999999999,277.19200000000006,338.9539999999999,277.19200000000006L342.5839999999999,277.78600000000006C342.5839999999999,277.78600000000006,344.3009999999999,279.8330000000001,343.6409999999999,280.75700000000006S342.5839999999999,281.55000000000007,342.9809999999999,283.72800000000007S343.2449999999999,287.7540000000001,342.9149999999999,288.2830000000001S341.7939999999999,291.84600000000006,341.7269999999999,292.11100000000005S338.7559999999999,296.40200000000004,338.7559999999999,296.40200000000004L336.6439999999999,295.742L334.53199999999987,291.584L332.61699999999985,290.924L331.8249999999999,288.48199999999997L325.4229999999999,288.217L325.2909999999999,293.234L329.6229999999999,295.50199999999995L330.2479999999999,304.37699999999995L329.2479999999999,306.50199999999995L330.9979999999999,309.87699999999995L331.7479999999999,311.00199999999995C331.7479999999999,311.00199999999995,328.3729999999999,311.25199999999995,328.7479999999999,312.87699999999995S329.9979999999999,316.12699999999995,329.9979999999999,316.12699999999995L329.6229999999999,324.87699999999995L332.8729999999999,325.50199999999995L335.9979999999999,330.50199999999995L334.1229999999999,338.75199999999995C334.1229999999999,338.75199999999995,330.8729999999999,338.50199999999995,331.3729999999999,339.75199999999995S333.2479999999999,341.75199999999995,333.2479999999999,341.75199999999995L331.3729999999999,345.12699999999995L332.6229999999999,346.87699999999995L333.165,353.676Z"
    stroke-width="1"
    stroke-linejoin="round"
    style="-webkit-tap-highlight-color: rgba(0, 0, 0, 0); stroke-linejoin: round;"></path>
  <path
    fill="#cccccc"
    stroke="#222222"
    d="M247.417,191.574C245,188.667,240.5,182.93,240.5,182.93S237.583,182.249,236.75,181.249S233.334,171.666,233.084,170.832S232.493,166.65699999999998,232.493,166.65699999999998L235.158,164.189L237.83399999999997,161.28L238.98199999999997,159.345L240.05499999999998,157.81L240.87099999999998,157.268L242.46599999999998,156.921H244.11399999999998L245.35699999999997,156.885L248.02399999999997,157.128L250.04099999999997,155.40499999999997L250.84799999999996,157.03399999999996L252.06699999999995,159.28899999999996L253.55899999999994,161.14599999999996L254.76699999999994,162.51899999999995L255.43699999999993,163.24799999999996L252.34299999999993,168.69399999999996L258.3549999999999,171.90699999999995L247.417,191.574Z"
    stroke-width="1"
    stroke-linejoin="round"
    style="-webkit-tap-highlight-color: rgba(0, 0, 0, 0); stroke-linejoin: round;"></path>
  <path
    fill="#cccccc"
    stroke="#222222"
    d="M262.5,174.125L260.875,177.625L266.625,179L272.53,180.911L276.62899999999996,182.205C276.62899999999996,182.205,280.53599999999994,183.32700000000003,281.62499999999994,182.931S284.22599999999994,181.62800000000001,284.22599999999994,181.62800000000001L286.24899999999997,180.32700000000003L287.527,179.93000000000004L287.522,182.30200000000002L288.77799999999996,183.555L290.71599999999995,184.309L290.58199999999994,186.938V190.45899999999997L286.31999999999994,200.39399999999998L291.22599999999994,205.94499999999996L291.64699999999993,206.38699999999997C291.64699999999993,206.38699999999997,291.36499999999995,209.07899999999998,292.03299999999996,210.40999999999997S293.46399999999994,212.48099999999997,293.46399999999994,212.48099999999997S296.53799999999995,213.71399999999997,297.20899999999995,214.08399999999997S297.86699999999996,214.628,297.86699999999996,214.628L297.59299999999996,218.521L300.26199999999994,217.672L301.24699999999996,218.529L303.34999999999997,218.626L307.381,222.769L310.77799999999996,226.627C310.77799999999996,226.627,315.84099999999995,233.20000000000002,316.10999999999996,233.597S316.46099999999996,236.601,316.46099999999996,236.601L315.816,240.001H313.52L310.633,240.953L311.41999999999996,237.05L309.13399999999996,238.03900000000002C309.13399999999996,238.03900000000002,308.52699999999993,237.086,308.09,236.76800000000003S305.337,235.64000000000004,304.69599999999997,236.45900000000003S304.289,237.93200000000004,305.49899999999997,238.78000000000003S308.919,242.38600000000002,308.919,242.38600000000002L308.60999999999996,242.74300000000002L301.66499999999996,242.27500000000003L299.518,244.79400000000004L297.614,244.39500000000004L295.97299999999996,240.13100000000003C295.97299999999996,240.13100000000003,295.453,239.29800000000003,294.92799999999994,239.99900000000002S294.12499999999994,243.04100000000003,294.12499999999994,243.04100000000003S293.38199999999995,243.50700000000003,292.74199999999996,243.04100000000003S290.22299999999996,241.69500000000002,289.525,242.54900000000004S289.082,244.16800000000003,289.253,245.38100000000003S288.895,249.18800000000002,287.977,249.70000000000002S284.924,251.465,283.73999999999995,250.51200000000003S281.72799999999995,248.59000000000003,281.79999999999995,247.12300000000002S281.54299999999995,244.92000000000002,281.54299999999995,244.92000000000002S280.97999999999996,244.31,280.35099999999994,243.79100000000003S278.6019999999999,242.57100000000003,278.1909999999999,242.60000000000002S276.5659999999999,242.967,276.0349999999999,243.312S273.7499999999999,245.16600000000003,273.7499999999999,245.16600000000003L270.9999999999999,244.33200000000002H269.9159999999999L268.4999999999999,241.24900000000002L267.8329999999999,238.24900000000002L265.9999999999999,229.24900000000002L264.0829999999999,222.83200000000002L262.9999999999999,220.08200000000002L261.2499999999999,218.41600000000003H259.4999999999999C259.4999999999999,218.41600000000003,256.91699999999986,215.74800000000002,256.9999999999999,213.83200000000002S260.0829999999999,208.91600000000003,260.0829999999999,208.91600000000003L260.5829999999999,202.91600000000003L261.41599999999994,201.00700000000003L261.16599999999994,199.91600000000003H258.24999999999994L254.91599999999994,195.58200000000002C254.91599999999994,195.58200000000002,249.83399999999995,194.48000000000002,247.41699999999994,191.57300000000004L252.22299999999996,183.14500000000004L258.35599999999994,171.90900000000005L262.39699999999993,174.06900000000005"
    stroke-width="1"
    stroke-linejoin="round"
    style="-webkit-tap-highlight-color: rgba(0, 0, 0, 0); stroke-linejoin: round;"></path>
  <path
    fill="#cccccc"
    stroke="#222222"
    d="M316.462,236.601L319.63599999999997,238.304L318.957,240.756L315.986,247.819L318.42699999999996,263.067L321.662,265.641C321.662,265.641,324.368,265.641,325.55699999999996,266.89500000000004S326.74499999999995,268.14900000000006,326.74499999999995,268.14900000000006S329.31899999999996,266.96100000000007,330.5729999999999,268.41400000000004S333.6089999999999,271.05500000000006,333.6089999999999,271.05500000000006L334.2029999999999,271.84600000000006L329.51499999999993,275.87200000000007C329.51499999999993,275.87200000000007,328.6579999999999,277.98300000000006,330.10999999999996,278.24800000000005S334.203,277.78600000000006,334.203,277.78600000000006S336.44599999999997,279.43600000000004,337.70099999999996,278.3140000000001S338.95599999999996,277.19200000000006,338.95599999999996,277.19200000000006L342.58599999999996,277.78600000000006C342.58599999999996,277.78600000000006,344.30299999999994,279.8330000000001,343.643,280.75700000000006S342.58599999999996,281.55000000000007,342.98299999999995,283.72800000000007S343.24699999999996,287.7540000000001,342.917,288.2830000000001S341.796,291.84600000000006,341.729,292.11100000000005S338.758,296.40200000000004,338.758,296.40200000000004L336.64599999999996,295.742L334.53399999999993,291.584L332.6189999999999,290.924L331.82699999999994,288.48199999999997L325.42499999999995,288.217L325.29299999999995,293.234L322.98299999999995,293.366L322.256,295.67699999999996L320.27599999999995,293.895L317.17299999999994,295.54499999999996L317.63499999999993,297.525L317.7679999999999,298.053L314.8639999999999,297.591L314.2699999999999,295.479L311.49799999999993,294.554L311.1019999999999,292.83799999999997L309.5829999999999,292.111L309.25299999999993,289.537L310.17799999999994,287.491C310.17799999999994,287.491,310.24299999999994,285.577,309.1209999999999,286.171S307.40599999999995,286.501,307.40599999999995,286.501L305.3589999999999,284.652C305.3589999999999,284.652,301.39899999999994,285.445,301.2009999999999,285.709S300.6729999999999,289.207,300.6729999999999,289.207L300.4749999999999,290.329L297.6369999999999,290.26300000000003C297.6369999999999,290.26300000000003,294.4029999999999,292.903,293.41199999999986,294.88300000000004S288.9229999999999,298.44800000000004,288.9229999999999,298.44800000000004L288.5289999999999,299.10600000000005L283.2109999999999,299.48100000000005C283.2109999999999,299.48100000000005,280.6469999999999,302.36500000000007,278.2439999999999,301.5640000000001S272.39699999999993,297.1190000000001,272.39699999999993,297.1190000000001S274.15899999999993,294.0370000000001,273.71799999999996,291.6740000000001S272.39699999999993,283.10300000000007,272.39699999999993,283.10300000000007S266.16799999999995,263.50200000000007,264.58399999999995,262.41800000000006S259.917,260.5010000000001,259.917,260.5010000000001V258.16800000000006L262.416,256.41800000000006L262.33299999999997,254.25100000000006L273.74999999999994,245.16800000000006C273.74999999999994,245.16800000000006,277.41099999999994,241.21600000000007,279.54299999999995,243.11800000000005S281.6739999999999,244.06900000000005,281.8059999999999,247.25100000000006S284.6599999999999,251.48200000000006,286.7919999999999,250.36700000000008S289.5779999999999,247.0540000000001,289.0209999999999,245.02000000000007S289.8749999999999,241.41200000000006,291.8749999999999,242.46100000000007S294.0379999999999,242.92000000000007,294.0379999999999,242.92000000000007S294.9239999999999,237.93600000000006,295.9739999999999,240.13300000000007S297.6149999999999,244.39700000000008,297.6149999999999,244.39700000000008L299.6479999999999,244.82400000000007L301.4849999999999,242.26500000000007L309.2579999999999,242.78900000000007C309.2579999999999,242.78900000000007,309.3549999999999,242.79000000000008,307.1239999999999,240.52600000000007S303.6139999999999,236.68800000000007,305.05799999999994,236.29500000000007S307.87799999999993,236.19600000000008,308.40399999999994,237.18100000000007S309.28999999999996,238.06700000000006,309.28999999999996,238.06700000000006L311.42199999999997,237.05000000000007L310.635,240.95300000000006L313.522,240.00100000000006H315.818L316.462,236.601Z"
    stroke-width="1"
    stroke-linejoin="round"
    style="-webkit-tap-highlight-color: rgba(0, 0, 0, 0); stroke-linejoin: round;"></path>
  <path
    fill="#cccccc"
    stroke="#222222"
    d="M243.744,255.656L243.234,252.304L244.4,249.608L245.055,248.151V247.13000000000002V244.50700000000003L245.347,243.41400000000004C245.347,243.41400000000004,246.949,241.81200000000004,246.731,244.28900000000004S246.75199999999998,247.13000000000005,246.75199999999998,247.13000000000005L246.003,248.87900000000005L246.75199999999998,253.25100000000003L245.34799999999998,256.02000000000004L244.40099999999998,256.60300000000007L243.744,255.656Z"
    stroke-width="1"
    stroke-linejoin="round"
    style="-webkit-tap-highlight-color: rgba(0, 0, 0, 0); stroke-linejoin: round;"></path>
  <path
    fill="#cccccc"
    stroke="#222222"
    d="M243.599,260.102C243.599,260.102,246.86399999999998,257.551,247.417,256.604S249.209,254.41699999999997,249.573,255.65699999999998S248.918,260.102,248.918,260.102S246.586,261.486,246.00300000000001,262.79699999999997S244.691,264.837,244.691,264.837S242.87,266.221,242.87,264.473S243.599,260.102,243.599,260.102Z"
    stroke-width="1"
    stroke-linejoin="round"
    style="-webkit-tap-highlight-color: rgba(0, 0, 0, 0); stroke-linejoin: round;"></path>
  <path
    fill="#cccccc"
    stroke="#222222"
    d="M308.231,203.667L313.667,207.667C313.667,207.667,314.83299999999997,206.75,316.5,205.334S319,202.201,319,202.201S318.5,200.25,318.667,198.584S319.95599999999996,197.084,319.95599999999996,197.084L317.83299999999997,194.667H320.417L317.943,192.234L319.95599999999996,189.642C319.95599999999996,189.642,320.176,189.57,321.90399999999994,191.01S325.93699999999995,190.577,325.93699999999995,190.577S326.94599999999997,188.70499999999998,327.59299999999996,186.999S323.92099999999994,185.896,323.92099999999994,185.896S320.24799999999993,184.95999999999998,320.24799999999993,184.384S319.5999999999999,183.016,317.7269999999999,182.224S314.7029999999999,182.00699999999998,314.4869999999999,180.71099999999998S318.6629999999999,179.124,318.6629999999999,179.124L318.8799999999999,176.462L321.54399999999987,176.96599999999998L323.7039999999999,174.301L329.4659999999999,174.661L330.9779999999999,172.213L329.3219999999999,168.97199999999998L327.0169999999999,167.60399999999998L327.5389999999999,164.886L325.74899999999985,162.499L321.62399999999985,164.249L318.5869999999999,165.019L318.0839999999999,165.858L314.6239999999999,164.312L311.7079999999999,163.562L311.1989999999999,163.74800000000002L308.6239999999999,179.12400000000002H304.3739999999999L303.3499999999999,180.20000000000002L306.9949999999999,186.627L307.2069999999999,187C307.2069999999999,187,306.0699999999999,187.28,305.9329999999999,188.762S306.6409999999999,191.437,306.6409999999999,191.437L308.6679999999999,196.31L308.231,203.667Z"
    stroke-width="1"
    stroke-linejoin="round"
    style="-webkit-tap-highlight-color: rgba(0, 0, 0, 0); stroke-linejoin: round;"></path>
  <path
    fill="#cccccc"
    stroke="#222222"
    d="M291.648,206.387L286.73400000000004,201.231L286.249,200.563L290.495,190.67399999999998L290.617,184.84999999999997L290.85900000000004,184.36499999999995L288.675,183.51499999999996L287.522,182.30199999999996L287.318,179.98499999999996L288.74899999999997,179.60699999999997L290.37899999999996,179.43499999999997L291.78499999999997,179.64799999999997L293.585,179.87999999999997L295.25,180.25099999999998L297.933,177.65999999999997L298.81399999999996,176.94199999999998L300.2,176.76399999999998L301.55,177.17L302.519,178.623L303.37600000000003,180.25099999999998L307.208,187.00099999999998C307.208,187.00099999999998,305.29900000000004,188.53599999999997,305.99300000000005,190.01099999999997S308.6820000000001,196.08299999999997,308.6820000000001,196.08299999999997L308.2320000000001,203.66799999999998L304.08400000000006,203.33499999999998C304.08400000000006,203.33499999999998,304.5810000000001,202.015,302.5280000000001,201.39799999999997S294.8500000000001,201.03399999999996,294.06200000000007,201.36199999999997S293.3880000000001,201.64399999999998,293.3880000000001,201.64399999999998L293.2750000000001,197.17399999999998L291.648,197L291.18800000000005,197.716L290.583,201.834L291.648,206.387Z"
    stroke-width="1"
    stroke-linejoin="round"
    style="-webkit-tap-highlight-color: rgba(0, 0, 0, 0); stroke-linejoin: round;"></path>
  <path
    fill="#cccccc"
    stroke="#222222"
    d="M291.648,206.387C291.648,206.387,291.648,206.387,291.951,209.92S297.89700000000005,214.213,297.89700000000005,214.213L297.5930000000001,218.521L298.0780000000001,218.339L300.2620000000001,217.672L301.0510000000001,218.521L303.7210000000001,218.643C303.7210000000001,218.643,310.57600000000014,226.347,312.2140000000001,228.289S316.4610000000001,234.113,316.4610000000001,234.113V236.601L319.73700000000014,238.35999999999999C319.73700000000014,238.35999999999999,320.04000000000013,238.057,322.10200000000015,237.69299999999998S326.2280000000001,239.08899999999997,326.2280000000001,239.08899999999997L333.5080000000001,235.63099999999997C333.5080000000001,235.63099999999997,333.2040000000001,236.41899999999998,334.3580000000001,233.93199999999996S338.42200000000014,233.02199999999996,338.42200000000014,233.02199999999996L341.39500000000015,233.20499999999996L342.42600000000016,234.35699999999994L344.06500000000017,233.02199999999993L346.2490000000002,233.87199999999993L347.9480000000002,232.35499999999993L348.2510000000002,233.75099999999992L351.5490000000002,234.35199999999992L355.7100000000002,238.94299999999993L358.57900000000024,239.51699999999994L352.84000000000026,180.32899999999995L352.5050000000003,179.24699999999996L352.6240000000003,172.50199999999995L348,171.875L346.125,170.25L343.275,172.432L340.625,170.625L338.69,171.602L333,170.875L332.884,169.03L331.14500000000004,167.617L330.12500000000006,165.625L327.5400000000001,164.887L327.0180000000001,167.605L329.3230000000001,168.97299999999998L330.9790000000001,172.214L329.4670000000001,174.662L323.7050000000001,174.302L321.5450000000001,176.96699999999998L318.8810000000001,176.463L318.6640000000001,179.125C318.6640000000001,179.125,314.2720000000001,179.416,314.4880000000001,180.712S315.8560000000001,181.433,317.7280000000001,182.225S320.24900000000014,183.809,320.24900000000014,184.385S323.92200000000014,185.897,323.92200000000014,185.897S328.24100000000016,185.29299999999998,327.59400000000016,187S325.93800000000016,190.578,325.93800000000016,190.578S323.63300000000015,192.451,321.90500000000014,191.011S319.95700000000016,189.643,319.95700000000016,189.643L317.9440000000002,192.235L320.4180000000002,194.668H317.8340000000002L319.95700000000016,197.085C319.95700000000016,197.085,318.83500000000015,196.919,318.6680000000002,198.585S319.0010000000002,202.202,319.0010000000002,202.202S318.1680000000002,203.919,316.5010000000002,205.335S313.6680000000002,207.668,313.6680000000002,207.668L308.2320000000002,203.668L304.0840000000002,203.335C304.0840000000002,203.335,304.9170000000002,201.6,300.8340000000002,201.00900000000001S293.5860000000002,201.501,293.5860000000002,201.501L293.2510000000002,196.835L291.648,197L291.166,197.75L290.58299999999997,201.834L291.648,206.387Z"
    stroke-width="1"
    stroke-linejoin="round"
    style="-webkit-tap-highlight-color: rgba(0, 0, 0, 0); stroke-linejoin: round;"></path>
  <path
    fill="#cccccc"
    stroke="#222222"
    d="M250.535,143.525C249.813,144.094,246.91,146.126,246.91,146.126S246.412,149.076,246.657,149.804S249.972,155.281,249.972,155.281L248.025,157.131C248.025,157.131,242.037,156.291,240.40200000000002,157.528S239.341,159.539,237.353,161.881S231.741,167.316,231.741,167.316L229.44600000000003,165.174C229.44600000000003,165.174,227.83200000000002,157.972,228.00500000000002,155.959S228.46500000000003,152.29,228.46500000000003,152.29S230.82300000000004,147.909,232.20300000000003,144.74599999999998C232.20300000000003,144.74599999999998,235.06600000000003,141.96099999999998,239.06200000000004,142.112S246.93800000000005,142.847,246.93800000000005,142.847L250.535,143.525Z"
    stroke-width="1"
    stroke-linejoin="round"
    style="-webkit-tap-highlight-color: rgba(0, 0, 0, 0); stroke-linejoin: round;"></path>
  <path
    fill="#cccccc"
    stroke="#222222"
    d="M250.535,143.525C251.257,142.95600000000002,251.81199999999998,143.365,251.81199999999998,143.365L252.808,145.375C252.808,145.375,253.885,147.248,255.04399999999998,149.131S257.93699999999995,149.366,258.388,149.076S259.74399999999997,148.00199999999998,259.921,146.951S259.15999999999997,145.757,259.15999999999997,145.757S256.135,143.74800000000002,255.83799999999997,143.30100000000002S256.03799999999995,141.853,256.65399999999994,141.21800000000002S258.69999999999993,139.364,258.69999999999993,139.364L254.40399999999994,138.476L251.56099999999995,135.624L252.81099999999995,133.832L249.18599999999995,133.561L243.93599999999995,130.49800000000002L245.84199999999996,126.74800000000002L239.06099999999995,125.63200000000002C239.06099999999995,125.63200000000002,238.04199999999994,130.82000000000002,236.78199999999995,134.03400000000002S232.38499999999996,144.33,232.38499999999996,144.33S236.86399999999998,141.99300000000002,240.25499999999997,142.038S250.535,143.525,250.535,143.525Z"
    stroke-width="1"
    stroke-linejoin="round"
    style="-webkit-tap-highlight-color: rgba(0, 0, 0, 0); stroke-linejoin: round;"></path>
  <path
    fill="#cccccc"
    stroke="#222222"
    d="M240.424,119.158L243.99200000000002,120.08200000000001C243.99200000000002,120.08200000000001,245.12400000000002,120.188,246.86900000000003,119.158S251.30900000000003,116.973,251.95300000000003,116.864S252.73300000000003,116.864,252.73300000000003,116.864L249.68000000000004,113.482L251.11300000000003,111.743L252.95400000000004,111.283L253.67000000000004,109.953C253.67000000000004,109.953,255.70700000000005,111.641,256.22800000000007,112.306S257.4530000000001,113.7,257.39400000000006,115.191S256.74000000000007,117.012,256.74000000000007,117.012L260.0130000000001,117.626L260.1160000000001,121.717L263.6960000000001,124.939L261.49700000000007,127.90599999999999L261.5010000000001,130.944L261.32900000000006,131.61399999999998L259.8040000000001,130.95299999999997C259.8040000000001,130.95299999999997,257.80000000000007,130.36399999999998,257.21600000000007,130.81099999999998S255.48000000000008,132.206,255.50600000000006,133.015S256.37200000000007,136.129,256.37200000000007,136.129S258.2290000000001,138.14499999999998,258.38000000000005,138.46599999999998S258.70200000000006,139.36399999999998,258.70200000000006,139.36399999999998L256.81300000000005,138.93699999999998L254.56300000000005,138.63299999999998L251.56300000000005,135.624L252.81300000000005,133.832L249.18800000000005,133.561L243.93800000000005,130.49800000000002L245.84400000000005,126.74800000000002L239.14800000000005,125.76000000000002L240.09900000000005,121.05600000000003L240.424,119.158Z"
    stroke-width="1"
    stroke-linejoin="round"
    style="-webkit-tap-highlight-color: rgba(0, 0, 0, 0); stroke-linejoin: round;"></path>
  <path
    fill="#cccccc"
    stroke="#222222"
    d="M295.25,180.25C295.25,180.25,296.345,179.133,296.438,179.125S298.082,177.37,298.81399999999996,176.941S301.419,177.037,301.419,177.037L303.255,180.327L304.448,178.77L306.167,170.417L305.90299999999996,169.228C305.90299999999996,169.228,305.11499999999995,167.567,304.79999999999995,166.43S304.36899999999997,163.95000000000002,304.42999999999995,161.75900000000001S306.04099999999994,159.19500000000002,306.04099999999994,159.19500000000002L306.09799999999996,151.17400000000004C306.09799999999996,151.17400000000004,306.77399999999994,150.50600000000003,307.234,150.06200000000004S305.659,148.89400000000003,305.659,148.89400000000003L303.99899999999997,143.10700000000003L306.104,139.86800000000002C306.104,139.86800000000002,307.075,138.39000000000001,308.032,137.09400000000002S306.193,135.84400000000002,306.193,135.84400000000002L303.775,136.20800000000003L300.77,136.95100000000002C300.77,136.95100000000002,298.772,137.89700000000002,297.88599999999997,138.246S295.28099999999995,138.732,294.873,138.072S295.532,136.913,295.532,136.913L290.58099999999996,137.561L292.765,134.979C292.765,134.979,291.05,134.626,290.736,134.05100000000002S291.038,132.372,291.296,131.92200000000003S291.32,131.02600000000004,291.067,130.48800000000003S286.915,128.53300000000002,286.915,128.53300000000002S286.601,128.871,285.58500000000004,129.042S284.03600000000006,128.335,284.362,127.627S285.62300000000005,126.303,285.62300000000005,126.303S285.4560000000001,125.384,284.80600000000004,124.44S282.16900000000004,126.417,282.13500000000005,126.822S281.72600000000006,128.406,281.26400000000007,128.727S279.40400000000005,128.09,279.1980000000001,127.818S279.7490000000001,126.748,278.1200000000001,125.502S276.3010000000001,127.252,276.29200000000014,127.42S276.41900000000015,130.541,276.41900000000015,130.541L274.91900000000015,130.791L274.68900000000014,130.088C274.68900000000014,130.088,274.40300000000013,128.975,273.3390000000001,128.09799999999998S270.43400000000014,127.04599999999998,270.43400000000014,127.04599999999998L269.3290000000001,127.05699999999997L268.67000000000013,127.31799999999997L267.70500000000015,128.16499999999996L266.96400000000017,129.06699999999995L265.9440000000002,130.49999999999994L265.08700000000016,132.28999999999994L261.08200000000016,131.38799999999995C261.08200000000016,131.38799999999995,259.55600000000015,130.69899999999996,258.0280000000002,130.68599999999995S255.93000000000018,131.83899999999994,255.6710000000002,132.28999999999996S255.69200000000018,134.57899999999995,256.0540000000002,135.54599999999996S258.1580000000002,138.07599999999996,258.4600000000002,138.57599999999996S258.3370000000002,139.91799999999998,257.6710000000002,140.33099999999996S256.1090000000002,141.30999999999997,255.73800000000023,142.41299999999995S256.7070000000002,144.21599999999995,257.51600000000025,144.73499999999996S261.12700000000024,147.49999999999994,261.12700000000024,147.49999999999994C261.12700000000024,150.49899999999994,259.62700000000024,154.49899999999994,259.62700000000024,154.49899999999994S260.25200000000024,156.24899999999994,261.50200000000024,155.49899999999994S264.75200000000024,154.49899999999994,264.75200000000024,154.49899999999994L269.25200000000024,155.49899999999994C269.25200000000024,155.49899999999994,270.00200000000024,154.37399999999994,271.75200000000024,153.87399999999994S277.87700000000024,154.12399999999994,277.87700000000024,154.12399999999994L280.50200000000024,154.24899999999994L283.6130000000002,152.62399999999994L286.75,160C286.75,160,289.875,158.75,290.5,160S288.875,163.75,288.875,163.75S291.625,165.625,292.5,170.25L293.585,173.982V179.982L295.25,180.25Z"
    stroke-width="1"
    stroke-linejoin="round"
    style="-webkit-tap-highlight-color: rgba(0, 0, 0, 0); stroke-linejoin: round;"></path>
  <path
    fill="#cccccc"
    stroke="#222222"
    d="M291,179.5C289.25,179.125,285.875,180.375,285,181S282.875,183.25,279.625,182.875S268.5,179.375,266.625,179S260.875,177.625,260.875,177.625L262.5,174.125L252.318,168.683L255.437,163.25C255.437,163.25,251.37400000000002,158.943,250.99900000000002,157.472S247.24900000000002,150.75,246.74900000000002,150S246.74900000000002,146.261,246.74900000000002,146.261S250.99900000000002,142.596,251.74900000000002,143.298S252.62400000000002,145.50300000000001,253.87400000000002,147.501S255.99900000000002,150.625,258.124,149.25C258.124,149.25,261.124,144.503,261.124,147.501S259.624,154.5,259.624,154.5S260.249,156.25,261.499,155.5S264.749,154.5,264.749,154.5L269.249,155.5C269.249,155.5,269.999,154.375,271.749,153.875S277.874,154.125,277.874,154.125L280.499,154.25L283.61,152.625L286.75,160C286.75,160,289.875,158.75,290.5,160S288.875,163.75,288.875,163.75S291.625,165.625,292.5,170.25L293.585,173.982V179.982L291,179.5Z"
    stroke-width="1"
    stroke-linejoin="round"
    style="-webkit-tap-highlight-color: rgba(0, 0, 0, 0); stroke-linejoin: round;"></path>
  <path
    fill="#cccccc"
    stroke="#222222"
    d="M304.375,179.125H308.625L309.875,172.5L311.427,162.25V163.5L314.25,164.125L318,166L318.75,164.75L321.625,164.25L325.75,162.5L327.625,165L330.125,165.625L331,167.5L333,169.125V170.875L338.875,171.625L340.625,170.625L343.375,172.5L346.125,170.25L348,171.875L352.625,172.5L354.418,133.833L352.088,131.269L350.55,128.256C350.55,128.256,347.73,128.256,347.153,128.833S345.999,129.41,345.999,129.41S346.06300000000005,127.55199999999999,343.75600000000003,127.038S339.97400000000005,127.615,339.97400000000005,127.615L336.25700000000006,127.872C336.25700000000006,127.872,333.94800000000004,125.18,332.7950000000001,125.692S328.8210000000001,129.85899999999998,328.8210000000001,129.85899999999998L328.2440000000001,131.20499999999998L324.2060000000001,130.821L321.3210000000001,128.77L317.1540000000001,128.193C317.1540000000001,128.193,311.3840000000001,123.44900000000001,310.5510000000001,123.001S307.9880000000001,124.155,307.9880000000001,124.155S305.5510000000001,124.348,305.29500000000013,123.002S304.33300000000014,119.53999999999999,304.33300000000014,119.53999999999999L303.3720000000001,118.13L301.1280000000001,118.451L300.5520000000001,119.86099999999999L299.7180000000001,120.30999999999999L298.56500000000005,119.41299999999998L298.50100000000003,118.57999999999998L296.57800000000003,117.36199999999998L295.42400000000004,117.29799999999999L294.461,118.29399999999998L292.66900000000004,116.54399999999998C292.66900000000004,116.54399999999998,294.41900000000004,116.46099999999998,293.04400000000004,114.71099999999998S288.00300000000004,110.87699999999998,287.25300000000004,112.91899999999998S287.126,117,287.126,117S287.334,117.458,286.709,117.75S285.959,117.125,285.584,118.375S286.126,122.208,286.126,122.208S287.584,121.625,288.334,121.708S289.79200000000003,122.666,289.79200000000003,122.666L290.62600000000003,122.249L290.70900000000006,119.957C290.70900000000006,119.957,292.5830000000001,119.957,292.6670000000001,120.957S292.6250000000001,122.374,292.1670000000001,123.124S289.3760000000001,126.166,289.3760000000001,126.166S287.7500000000001,123,287.2090000000001,123.833S286.9180000000001,128.375,286.9180000000001,128.375S291.2330000000001,130.042,291.44600000000014,130.979S290.63800000000015,132.639,290.59500000000014,133.31900000000002S291.02100000000013,134.51000000000002,291.02100000000013,134.51000000000002L292.76500000000016,134.978L290.76500000000016,137.40300000000002L295.19100000000014,137.10500000000002C295.19100000000014,137.10500000000002,294.00100000000015,138.67900000000003,296.12800000000016,138.59400000000002S300.12800000000016,137.062,301.19100000000014,136.80700000000002S307.14900000000017,135.233,308.00000000000017,136.126S305.78700000000015,140.211,305.78700000000015,140.211L303.99900000000014,143.10500000000002L305.65900000000016,148.89200000000002C305.65900000000016,148.89200000000002,308.1700000000002,149.40200000000002,306.9780000000002,150.33900000000003S306.04100000000017,151.40300000000002,306.04100000000017,151.40300000000002V159.276C306.04100000000017,159.276,303.83200000000016,160.167,304.41600000000017,164.333S306.00000000000017,169.333,306.00000000000017,169.333L306.16600000000017,170.416L304.375,179.125Z"
    stroke-width="1"
    stroke-linejoin="round"
    style="-webkit-tap-highlight-color: rgba(0, 0, 0, 0); stroke-linejoin: round;"></path>
  <path
    fill="#cccccc"
    stroke="#222222"
    d="M296.576,117.359L295.422,117.295L294.459,118.291L292.66700000000003,116.541C292.66700000000003,116.541,294.41700000000003,116.458,293.04200000000003,114.708S288.00100000000003,110.874,287.25100000000003,112.916S287.126,117,287.126,117S287.334,117.458,286.709,117.75S285.959,117.125,285.584,118.375S286.126,122.208,286.126,122.208S287.584,121.625,288.334,121.708S289.79200000000003,122.666,289.79200000000003,122.666L290.62600000000003,122.249L290.70900000000006,119.957C290.70900000000006,119.957,292.5830000000001,119.957,292.6670000000001,120.957S292.6250000000001,122.374,292.1670000000001,123.124S289.3760000000001,126.166,289.3760000000001,126.166S287.7500000000001,123,287.2090000000001,123.833S286.9180000000001,128.375,286.9180000000001,128.375S287.1250000000001,129.042,285.5840000000001,129.042S283.8350000000001,127.917,284.7930000000001,127.125S285.2930000000001,125.75,285.2930000000001,125.75S285.0850000000001,123.417,283.6680000000001,124.583S282.1680000000001,126.416,282.1680000000001,126.416S282.0840000000001,128.125,281.5840000000001,128.583S279.0010000000001,128.583,279.0010000000001,127.083S276.5420000000001,123.916,276.3340000000001,126.708S276.41700000000014,130.541,276.41700000000014,130.541L276.25100000000015,130.833L274.91700000000014,130.791C274.91700000000014,130.791,274.25100000000015,127.833,271.75100000000015,127.291S268.71000000000015,126.791,266.9180000000001,129.124S265.0840000000001,132.291,265.0840000000001,132.291L261.5010000000001,131.541L261.4960000000001,127.904L263.6950000000001,124.937L260.1150000000001,121.715L260.0120000000001,117.62400000000001L256.7390000000001,117.01C256.7390000000001,117.01,258.5290000000001,114.81,256.2270000000001,112.304L254.54700000000008,110.32900000000001C254.54700000000008,110.32900000000001,255.62900000000008,109.97300000000001,255.76700000000008,109.697S256.22100000000006,107.971,256.22100000000006,107.971L256.23300000000006,106.913L253.43700000000007,104.886C253.43700000000007,104.886,251.90300000000008,98.761,252.42600000000007,97.636S253.73900000000006,96.749,254.06300000000007,96.697S261.70400000000006,96.804,261.70400000000006,96.804L271.81200000000007,90.5V88.671L269.5930000000001,88.33200000000001L268.4820000000001,82.53200000000001L263.7250000000001,80.24400000000001V78.72600000000001L261.3620000000001,77.54400000000001L257.3230000000001,72.30900000000001C257.3230000000001,72.30900000000001,258.8800000000001,73.153,259.6530000000001,72.63300000000001S262.20400000000006,70.65,262.20400000000006,70.65L272.68700000000007,72.373C272.68700000000007,72.373,274.13500000000005,71.28,276.1890000000001,71.629S280.1050000000001,72.55600000000001,280.1050000000001,72.55600000000001L282.75000000000006,73.60100000000001C282.75000000000006,73.60100000000001,284.01000000000005,74.21600000000001,283.61100000000005,75.13700000000001S282.53200000000004,76.60000000000001,282.53200000000004,76.60000000000001L281.59700000000004,77.153L280.124,77.623L281.812,78.923C281.812,78.923,283.874,78.275,284.661,78.173S285.448,78.071,285.448,78.071L285.42699999999996,79.738L285.12899999999996,81.801C285.12899999999996,81.801,285.936,85.197,285.953,86.273S285.91799999999995,89.965,285.91799999999995,89.965S283.65,93.221,283.66599999999994,93.705S284.0589999999999,94.471,284.0589999999999,94.471L285.3579999999999,94.607L284.6129999999999,98.264L289.0229999999999,98.479L289.6539999999999,97.595C289.6539999999999,97.595,289.7709999999999,95.222,289.3819999999999,94.666S288.31799999999987,92.90299999999999,288.5339999999999,92.459S288.90499999999986,91.151,290.3609999999999,91.97800000000001S293.5569999999999,94.35400000000001,293.5569999999999,94.35400000000001L293.7249999999999,94.53700000000002L297.1139999999999,91.97800000000002L297.25299999999993,97.23300000000002C297.25299999999993,97.23300000000002,298.23499999999996,97.15500000000002,298.22099999999995,97.64800000000002S297.6689999999999,99.86000000000003,297.6689999999999,99.86000000000003L301.74299999999994,99.76100000000002L311.42799999999994,108.01900000000002C311.42799999999994,108.01900000000002,311.09299999999996,108.90000000000002,310.76099999999997,109.03200000000002S308.395,108.83200000000002,308.109,108.78000000000003S303.724,107.28400000000003,303.22799999999995,107.57600000000004S302.46999999999997,108.24900000000004,302.44599999999997,108.70100000000004S302.34499999999997,110.10800000000003,302.34499999999997,110.10800000000003L300.01899999999995,110.30100000000003L299.52299999999997,111.72600000000003L297.669,111.61500000000002L298.606,114.43000000000002C298.606,114.43000000000002,297.76099999999997,115.09800000000003,297.669,115.96300000000002S298.27,118.23100000000002,298.27,118.23100000000002L296.576,117.359Z"
    stroke-width="1"
    stroke-linejoin="round"
    style="-webkit-tap-highlight-color: rgba(0, 0, 0, 0); stroke-linejoin: round;"></path>
  <path
    fill="#cccccc"
    stroke="#222222"
    d="M291.188,78.925C295.626,81,297.376,81.937,297.376,81.937L296.501,78.874C296.501,78.874,297.501,77.374,298.43899999999996,77.249S301.43899999999996,77.812,301.43899999999996,77.812L302.00199999999995,85.312H313.06499999999994C313.06499999999994,85.312,313.62799999999993,83.874,314.75299999999993,84.562S316.8159999999999,85.312,316.8159999999999,85.312L320.4409999999999,81.812L320.9409999999999,79.812L326,77.25C326,77.25,326.875,76.875,325.562,75.75S325.062,73.375,325.062,73.375L326.937,72.375L329.687,69.062C329.687,69.062,331.875,71,332.562,71.687S338.25,72.312,338,73.375S333.875,84.938,333.937,86.313S337.312,89.438,337.687,88.313S340.375,82.25,342.125,81S345.5,80.562,347.438,79.437S352.188,76.749,352.188,76.749L356.27299999999997,78.92399999999999L354.419,133.832L352.089,131.268L350.551,128.255C350.551,128.255,347.731,128.255,347.154,128.832S346,129.409,346,129.409S346.064,127.55099999999999,343.757,127.03699999999999S339.975,127.61399999999999,339.975,127.61399999999999L336.25800000000004,127.871C336.25800000000004,127.871,333.949,125.179,332.79600000000005,125.69099999999999S328.82200000000006,129.85799999999998,328.82200000000006,129.85799999999998L328.24500000000006,131.20399999999998L324.20700000000005,130.82L321.32200000000006,128.769L317.1550000000001,128.192C317.1550000000001,128.192,311.3850000000001,123.44800000000001,310.5520000000001,123S307.9890000000001,124.154,307.9890000000001,124.154S305.5520000000001,124.347,305.2960000000001,123.00099999999999S304.3340000000001,119.53899999999999,304.3340000000001,119.53899999999999L303.3730000000001,118.12899999999999L301.1290000000001,118.44999999999999L300.55300000000005,119.85999999999999L299.71900000000005,120.30899999999998L298.56600000000003,119.41199999999998L298.502,118.57899999999998C298.502,118.57899999999998,296.91200000000003,116.39099999999998,297.671,115.62999999999998S298.637,114.52399999999999,298.637,114.52399999999999L297.671,111.61999999999999L299.467,111.89699999999999L300.02099999999996,110.306L302.50999999999993,110.099C302.50999999999993,110.099,301.8879999999999,106.918,303.96199999999993,107.679S308.10999999999996,108.785,308.10999999999996,108.785S310.46099999999996,109.68299999999999,310.94499999999994,108.854S311.4289999999999,108.024,311.4289999999999,108.024L303.8229999999999,101.451L301.61099999999993,99.65799999999999L297.67099999999994,99.86499999999998C297.67099999999994,99.86499999999998,298.36099999999993,98.20599999999997,298.22299999999996,97.65299999999998S297.25499999999994,97.23799999999997,297.25499999999994,97.23799999999997L297.11599999999993,91.98299999999998L293.7269999999999,94.54199999999997C293.7269999999999,94.54199999999997,291.72099999999995,92.25999999999998,289.92299999999994,91.84499999999997S288.40199999999993,93.15899999999996,288.81699999999995,93.84999999999997S289.57899999999995,94.54099999999997,289.78599999999994,96.20099999999996S289.0249999999999,98.48299999999996,289.0249999999999,98.48299999999996L284.59899999999993,98.34499999999996L285.35999999999996,94.61099999999996C285.35999999999996,94.61099999999996,282.77599999999995,94.81899999999996,283.895,93.29699999999997S285.91299999999995,90.18499999999997,285.91299999999995,90.18499999999997S286.05099999999993,86.86599999999997,285.91299999999995,85.62099999999998S285.08399999999995,81.61099999999998,285.08399999999995,81.61099999999998L285.42999999999995,79.74399999999997L285.45099999999996,78.07699999999997L287.27299999999997,78.01699999999997L288.54999999999995,78.13899999999997L289.93499999999995,78.45199999999997L291.188,78.925Z"
    stroke-width="1"
    stroke-linejoin="round"
    style="-webkit-tap-highlight-color: rgba(0, 0, 0, 0); stroke-linejoin: round;"></path>
  <path
    fill="#cccccc"
    stroke="#222222"
    d="M253.67,109.952L252.95399999999998,111.282L251.11299999999997,111.74199999999999L249.67999999999998,113.481L252.59599999999998,116.75399999999999C252.59599999999998,116.75399999999999,250.75399999999996,116.95899999999999,248.96399999999997,117.931S245.33299999999997,120.386,243.69599999999997,120.02799999999999S240.42299999999997,119.15799999999999,240.42299999999997,119.15799999999999S241.24899999999997,111.83299999999998,241.41599999999997,110.08299999999998S240.99899999999997,99.16599999999998,240.91599999999997,96.41599999999998S240,82,240,82L239.062,77.062L245.062,78.187L255.75,70.187L261.109,77.419L263.72499999999997,78.727V80.245L268.48199999999997,82.533L269.43399999999997,88.309L271.81199999999995,88.672V90.50099999999999L261.70399999999995,96.80499999999999C261.70399999999995,96.80499999999999,252.78299999999996,95.734,252.42699999999996,97.63699999999999S253.49799999999996,105.12999999999998,253.49799999999996,105.12999999999998L256.23299999999995,106.91399999999999C256.23299999999995,106.91399999999999,256.39199999999994,108.96499999999999,255.61799999999994,109.91599999999998S253.77799999999993,109.98299999999998,253.77799999999993,109.98299999999998"
    stroke-width="1"
    stroke-linejoin="round"
    style="-webkit-tap-highlight-color: rgba(0, 0, 0, 0); stroke-linejoin: round;"></path>
  <path
    fill="#cccccc"
    stroke="#222222"
    d="M238,58C237.875,59.5,239.063,77.063,239.063,77.063L245.063,78.188L255.75099999999998,70.188C255.75099999999998,70.188,258.06399999999996,74.063,260.18899999999996,72.313S262.31399999999996,70.563,262.31399999999996,70.563L272.68899999999996,72.376C272.68899999999996,72.376,273.56399999999996,71.626,276.00199999999995,71.626S282.93999999999994,73.68900000000001,282.93999999999994,73.68900000000001S284.62799999999993,74.93900000000001,283.00299999999993,76.25200000000001S280.12799999999993,77.62700000000001,280.12799999999993,77.62700000000001L281.8159999999999,78.927C281.8159999999999,78.927,286.7539999999999,76.852,291.1909999999999,78.927L293.9769999999999,80.247L295.4129999999999,62.760999999999996L285.9809999999999,62.760999999999996L286.14799999999985,62.260999999999996L286.07799999999986,61.367999999999995C286.07799999999986,61.367999999999995,285.30599999999987,59.25299999999999,285.19399999999985,58.818S285.41999999999985,56.997,285.4209999999998,56.672999999999995S285.47099999999983,55.47299999999999,284.8009999999998,54.83S281.3379999999998,51.085,281.3379999999998,51.085S280.8939999999998,52.042,280.2539999999998,51.752S276.0489999999998,49.575,276.0489999999998,49.575L275.2899999999998,49.051L274.4899999999998,51.325L271.5639999999998,56.505L266.21899999999977,56.511L262.08699999999976,54.418000000000006C262.08699999999976,54.418000000000006,262.4899999999998,52.21000000000001,262.23899999999975,50.87400000000001S261.62599999999975,48.44700000000001,261.48499999999973,48.10900000000001S260.8369999999997,46.75200000000001,260.8369999999997,46.75200000000001L246.4199999999997,47.41900000000001L243.3729999999997,50.137000000000015C243.3729999999997,50.137000000000015,244.0519999999997,50.625000000000014,244.35699999999972,51.329000000000015S244.46699999999973,53.44000000000001,244.46699999999973,53.44000000000001L243.81399999999974,55.06500000000001C243.81399999999974,55.06500000000001,241.76199999999974,55.03100000000001,241.00199999999973,55.55100000000001S238,58,238,58Z"
    stroke-width="1"
    stroke-linejoin="round"
    style="-webkit-tap-highlight-color: rgba(0, 0, 0, 0); stroke-linejoin: round;"></path>
  <path
    fill="#cccccc"
    stroke="#222222"
    d="M297.375,81.938L296.5,78.875C296.5,78.875,297.5,77.375,298.438,77.25S301.438,77.813,301.438,77.813L302.001,85.313H313.06399999999996C313.06399999999996,85.313,313.62699999999995,83.875,314.75199999999995,84.563S316.81499999999994,85.313,316.81499999999994,85.313L320.43999999999994,81.813L320.93999999999994,79.813L326,77.25C326,77.25,326.875,76.875,325.562,75.75S325.062,73.375,325.062,73.375L326.937,72.375L329.687,69.062C329.687,69.062,331.875,71,332.562,71.687S338.25,72.312,338,73.375S333.875,84.938,333.937,86.313S337.312,89.438,337.687,88.313S340.375,82.25,342.125,81S345.5,80.562,347.438,79.437S352.188,76.749,352.188,76.749L356.27299999999997,78.92399999999999L357.162,54.67699999999999L357.86899999999997,34.410999999999994C357.86899999999997,34.410999999999994,356.799,34.56799999999999,356.27299999999997,35.745999999999995S356.29699999999997,37.867,355.198,38.023999999999994S353.156,36.21699999999999,353.39099999999996,35.58899999999999S354.65399999999994,33.15299999999999,353.35499999999996,32.68199999999999S350.013,31.974999999999987,350.013,31.974999999999987S346.40099999999995,30.01099999999999,345.61499999999995,30.48199999999999S343.41599999999994,31.18899999999999,343.41599999999994,31.18899999999999L341.0589999999999,30.95299999999999C341.0589999999999,30.95299999999999,340.5329999999999,26.590999999999987,339.1259999999999,25.965999999999987S330.4699999999999,25.277999999999988,330.4699999999999,25.277999999999988L327.5639999999999,24.83999999999999L325.1259999999999,22.68399999999999C325.1259999999999,22.68399999999999,323.68799999999993,23.15299999999999,323.9069999999999,24.52799999999999S324.7999999999999,30.09099999999999,323.88499999999993,29.30899999999999S319.8449999999999,26.40299999999999,318.7819999999999,26.58999999999999S315.6259999999999,28.120999999999988,314.7509999999999,28.652999999999988S312.5949999999999,28.87199999999999,312.5949999999999,28.87199999999999S311.8759999999999,25.34099999999999,308.7509999999999,25.777999999999988S304.0319999999999,27.683999999999987,302.68799999999993,27.090999999999987S298.87499999999994,23.465999999999987,297.6569999999999,24.184999999999988S295.8759999999999,26.965999999999987,295.8759999999999,27.65399999999999S294.0319999999999,29.591999999999988,293.3449999999999,28.02899999999999S293.5009999999999,24.434999999999988,291.5009999999999,24.96599999999999S287.4699999999999,26.65399999999999,287.4699999999999,26.65399999999999L285.1569999999999,26.49799999999999V28.81099999999999L285.1529999999999,42.27999999999999L282.4709999999999,45.56299999999999C282.4709999999999,45.56299999999999,282.26999999999987,47.591999999999985,281.93599999999986,49.04799999999999S281.3339999999999,51.082999999999984,281.3339999999999,51.082999999999984S284.8699999999999,54.441999999999986,285.29899999999986,55.67899999999999S284.8699999999999,58.41899999999999,285.29899999999986,59.16999999999999S286.14499999999987,62.25799999999999,286.14499999999987,62.25799999999999L285.9779999999999,62.75799999999999H294.9929999999999L295.40999999999985,62.75799999999999L293.9739999999999,80.24399999999999L297.375,81.938Z"
    stroke-width="1"
    stroke-linejoin="round"
    style="-webkit-tap-highlight-color: rgba(0, 0, 0, 0); stroke-linejoin: round;"></path>
  <path
    fill="#cccccc"
    stroke="#222222"
    d="M238,58C238.125,56.5,235.75,45.875,235.75,45.875L234,45.188C234,45.188,229.812,36,229.062,34S225.562,28.312,225.562,28.312L223.687,28.062C223.687,28.062,220.062,25.624000000000002,218.99900000000002,24.562S211.24900000000002,21.749000000000002,210.43600000000004,20.999000000000002S209.87300000000005,18.436000000000003,210.43600000000004,17.249000000000002S216.68600000000004,16.436000000000003,216.68600000000004,16.436000000000003S223.74900000000002,18.624000000000002,223.93600000000004,18.561000000000003S225.31100000000004,17.373000000000005,226.31100000000004,17.561000000000003S228.37400000000002,19.124000000000002,229.56100000000004,19.061000000000003S232.87400000000002,15.748000000000003,232.87400000000002,15.748000000000003S232.937,13.060000000000002,233.812,10.435000000000002S236.562,10.873000000000003,238.062,13.060000000000002S241.812,14.623000000000003,241.937,14.373000000000003S243.125,11.060000000000002,244.75,11.123000000000003S247.25,13.436000000000003,247.563,14.748000000000003S249.12599999999998,16.248000000000005,249.313,15.998000000000003S253.063,14.748000000000003,253.063,14.748000000000003S256.688,17.061000000000003,258.813,18.248000000000005S266.813,25.436000000000003,266.813,25.436000000000003S268.438,25.749000000000002,270.876,25.874000000000002S275.56399999999996,28.062,275.56399999999996,28.062S278.62699999999995,26.874000000000002,280.87699999999995,25.999000000000002S282.56499999999994,28.437,282.56499999999994,28.437S283.75299999999993,29.375,284.75299999999993,29.875L285.3019999999999,30.292L285.1559999999999,42.281000000000006L282.2539999999999,45.833000000000006C282.2539999999999,45.833000000000006,282.0879999999999,50.00000000000001,281.3379999999999,51.083000000000006S280.2539999999999,51.75000000000001,280.2539999999999,51.75000000000001S275.7539999999999,49.76400000000001,275.5039999999999,49.04900000000001S274.4209999999999,51.584,274.4209999999999,51.584L271.4209999999999,56.751000000000005L266,56.5L262.084,54.417C262.084,54.417,262.583,51.5,262,49.584S260.834,46.751000000000005,260.834,46.751000000000005L246.417,47.418000000000006L243.334,50.168000000000006C243.334,50.168000000000006,245.251,51.668000000000006,244.584,53.168000000000006S243.75,55.251000000000005,243.75,55.251000000000005S241.168,54.834,240.084,56.251000000000005S238,58,238,58Z"
    stroke-width="1"
    stroke-linejoin="round"
    style="-webkit-tap-highlight-color: rgba(0, 0, 0, 0); stroke-linejoin: round;"></path>
  <path
    fill="#cccccc"
    stroke="#222222"
    d="M188.755,198.557C188.755,198.557,186.055,203.582,184.07399999999998,206.696S181.01299999999998,209.089,179.843,213.769L176.726,226.23600000000002C176.726,226.23600000000002,174.123,223.574,173.753,221.84400000000002S173.177,219.28300000000002,172.58599999999998,218.853S167.21599999999998,215.888,167.21599999999998,215.888L164.11899999999997,215.138C164.11899999999997,215.138,162.88899999999998,215.267,162.56699999999998,214.645S162.09199999999998,214.30200000000002,162.01799999999997,213.05100000000002S161.76899999999998,211.52800000000002,161.76899999999998,211.52800000000002L160.20499999999998,209.97600000000003L160.35299999999998,208.08300000000003L160.09099999999998,207.10200000000003L159.98199999999997,206.69600000000003L163.01899999999998,206.16600000000003C163.01899999999998,206.16600000000003,167.19599999999997,205.60300000000004,169.17199999999997,205.08200000000002S173.77799999999996,203.70000000000002,174.80299999999997,203.17200000000003S175.82799999999997,202.64400000000003,175.82799999999997,202.64400000000003S177.36199999999997,200.01500000000004,177.79099999999997,199.00200000000004S178.46699999999996,196.56600000000003,179.08799999999997,195.88800000000003S180.32999999999996,194.72100000000003,180.85599999999997,194.94600000000003S181.59799999999996,195.29500000000002,182.00999999999996,195.79600000000002S183.29599999999996,197.38600000000002,183.29599999999996,197.38600000000002L186.98399999999995,197.538L188.755,198.557Z"
    stroke-width="1"
    stroke-linejoin="round"
    style="-webkit-tap-highlight-color: rgba(0, 0, 0, 0); stroke-linejoin: round;"></path>
  <path
    fill="#cccccc"
    stroke="#222222"
    d="M186.276,218.373V213.16C186.276,213.16,187.982,211.994,190.04600000000002,208.404S192.31300000000002,203.647,192.31300000000002,203.647L194.354,201.94199999999998H197.405V204.634C197.405,204.634,198.93,204.903,199.11,207.057S199.11,210.737,199.11,210.737S198.661,211.994,198.57100000000003,213.519S198.21200000000002,215.942,198.21200000000002,215.942S196.866,217.662,195.07100000000003,218.37300000000002S188.34000000000003,219.48800000000003,188.43000000000004,221.84400000000002S188.87900000000005,224.64800000000002,188.52000000000004,226.26300000000003S187.89200000000005,229.58300000000003,186.27600000000004,229.13500000000005S184.03200000000004,226.53200000000004,184.21200000000005,225.54500000000004S184.18200000000004,220.07000000000005,184.18200000000004,220.07000000000005L186.276,218.373Z"
    stroke-width="1"
    stroke-linejoin="round"
    style="-webkit-tap-highlight-color: rgba(0, 0, 0, 0); stroke-linejoin: round;"></path>
  <path
    fill="#cccccc"
    stroke="#222222"
    d="M159.984,206.695C159.211,206.783,158.33700000000002,207.453,158.33700000000002,207.453S157.87300000000002,208.425,157.28900000000002,209.288S155.747,209.477,155.14700000000002,208.869S153.61300000000003,208.483,153.61300000000003,208.483S148.59200000000004,211.056,147.54700000000003,211.603S144.85800000000003,211.721,143.79000000000002,211.608S143.00700000000003,212.781,143.00700000000003,212.781L143.49700000000004,213.55700000000002L144.34300000000005,214.72600000000003L144.17500000000004,214.94600000000003L142.80500000000004,215.49500000000003L142.88000000000002,218.06000000000003L144.20200000000003,219.78200000000004L146.52800000000002,219.21500000000003C146.52800000000002,219.21500000000003,147.92900000000003,219.17600000000004,149.68900000000002,219.91300000000004S151.544,222.12300000000005,151.544,222.12300000000005L151.84400000000002,224.59100000000004L154.69100000000003,227.12100000000004L155.04800000000003,228.78700000000003C155.04800000000003,228.78700000000003,156.04200000000003,229.93100000000004,155.87100000000004,230.98800000000003S154.36800000000005,232.44800000000004,154.36800000000005,232.44800000000004H149.95000000000005L150.04800000000006,234.74200000000005L144.37900000000005,244.59500000000006C144.37900000000005,244.59500000000006,145.90700000000004,245.63500000000005,148.33700000000005,246.98500000000004S153.10800000000003,250.58600000000004,153.10800000000003,250.58600000000004L156.88900000000004,257.15700000000004V260.48800000000006L162.29000000000005,263.9080000000001C162.29000000000005,263.9080000000001,164.63000000000005,261.8380000000001,165.44000000000005,260.7580000000001S164.36000000000004,258.3280000000001,164.81000000000006,254.2780000000001S171.47200000000007,244.6460000000001,171.47200000000007,244.6460000000001V241.2250000000001C171.47200000000007,241.2250000000001,172.01200000000006,239.33400000000012,172.64200000000005,238.43500000000012S174.98200000000006,233.2130000000001,175.25300000000004,232.13300000000012L176.72700000000003,226.23700000000014C176.72700000000003,226.23700000000014,175.02400000000003,225.23200000000014,174.05000000000004,222.76000000000013S174.12500000000003,219.31600000000014,170.98000000000005,217.89300000000014S166.78700000000003,215.57700000000014,166.78700000000003,215.57700000000014L164.01600000000005,215.12300000000013C164.01600000000005,215.12300000000013,162.59400000000005,215.42200000000014,162.21900000000005,213.92500000000013S161.77000000000004,211.52900000000014,161.77000000000004,211.52900000000014L160.35400000000004,210.03100000000015V208.08500000000015L159.984,206.695Z"
    stroke-width="1"
    stroke-linejoin="round"
    style="-webkit-tap-highlight-color: rgba(0, 0, 0, 0); stroke-linejoin: round;"></path>
  <path
    fill="#cccccc"
    stroke="#222222"
    d="M154.185,269.005C154.185,269.005,156.83,268.701,157.27,269.005S158.621,268.322,159.199,268.87S160.27300000000002,269.914,160.191,270.658S159.55700000000002,272.918,158.841,271.95300000000003S157.161,270.19000000000005,156.66500000000002,271.26500000000004S155.78300000000002,273.35900000000004,155.78300000000002,273.35900000000004L153.16600000000003,269.833C153.165,269.832,153.413,268.619,154.185,269.005Z"
    stroke-width="1"
    stroke-linejoin="round"
    style="-webkit-tap-highlight-color: rgba(0, 0, 0, 0); stroke-linejoin: round;"></path>
  <path
    fill="#cccccc"
    stroke="#222222"
    d="M165.726,198.992L164.572,197.333L167.385,192.283L158.65699999999998,182.40099999999998L166.695,173.03099999999998L169.766,174.24999999999997L171.64499999999998,172.83799999999997C171.64499999999998,172.83799999999997,172.56599999999997,173.20299999999997,173.14499999999998,173.50699999999998S178.40499999999997,173.70099999999996,179.206,173.74099999999999S180.909,173.36999999999998,181.61399999999998,174.646S182.31799999999998,177.45899999999997,182.31799999999998,177.45899999999997L186.718,176.19699999999997L187.16799999999998,178.72099999999998L189.575,178.89399999999998C189.575,178.89399999999998,189.646,180.76899999999998,190.24699999999999,181.79599999999996S192.37099999999998,183.74399999999997,191.20299999999997,186.25599999999997S190.70699999999997,188.09499999999997,190.31799999999998,192.23699999999997S188.75699999999998,198.55499999999998,188.75699999999998,198.55499999999998L186.98799999999997,197.534L183.21699999999998,197.378C183.21699999999998,197.378,181.48799999999997,194.785,180.85999999999999,194.94199999999998S179.368,194.629,178.504,197.21999999999997S175.833,202.63999999999996,175.833,202.63999999999996S172.663,204.52599999999995,167.60999999999999,205.38999999999996S161.85799999999998,206.34699999999995,161.85799999999998,206.34699999999995S162.277,205.13799999999995,162.12199999999999,204.11099999999996S162.266,202.63499999999996,162.266,202.63499999999996L165.726,198.992Z"
    stroke-width="1"
    stroke-linejoin="round"
    style="-webkit-tap-highlight-color: rgba(0, 0, 0, 0); stroke-linejoin: round;"></path>
  <path
    fill="#cccccc"
    stroke="#222222"
    d="M176.26,151.625L173.515,157.472H166.74099999999999L164.39899999999997,156.895H163.58199999999997L162.17499999999995,157.472L161.82399999999996,157.732L161.38399999999996,157.82L158.47099999999995,156.272L159.45199999999994,154.72299999999998L159.90799999999993,153.74599999999998C159.90799999999993,153.74599999999998,160.00699999999992,153.26399999999998,159.25799999999992,152.87999999999997S157.62599999999992,151.91299999999995,157.62599999999992,151.91299999999995S159.2609999999999,151.45599999999996,160.16299999999993,151.41599999999994S161.09299999999993,151.47499999999994,161.09299999999993,151.47499999999994S164.10999999999993,148.83699999999993,164.66999999999993,148.55499999999995S166.51599999999993,147.85099999999994,167.00899999999993,148.81999999999994S167.60999999999993,150.09499999999994,167.60999999999993,150.09499999999994S169.41499999999994,149.38699999999994,169.89199999999994,149.27399999999994S171.76999999999992,149.21899999999994,172.06599999999995,149.42999999999995S174.08099999999993,149.49299999999994,174.51399999999995,149.28699999999995S176.65099999999995,148.11499999999995,176.65099999999995,148.11499999999995L178.38799999999995,147.37899999999996L180.25799999999995,146.70099999999996L180.60299999999995,147.13899999999995L181.05499999999995,147.74099999999996L181.26799999999994,148.97399999999996L181.22099999999995,150.15599999999995L181.14299999999994,151.96899999999994L180.72099999999995,153.42199999999994L180.26799999999994,154.35999999999993C180.26799999999994,154.35999999999993,179.78899999999993,154.67899999999992,179.11199999999994,154.60999999999993S178.08399999999995,154.40599999999992,178.08399999999995,154.40599999999992S177.75499999999994,153.74099999999993,177.56299999999996,153.4279999999999S176.64299999999997,152.09599999999992,176.64299999999997,152.09599999999992L176.26,151.625Z"
    stroke-width="1"
    stroke-linejoin="round"
    style="-webkit-tap-highlight-color: rgba(0, 0, 0, 0); stroke-linejoin: round;"></path>
  <path
    fill="#cccccc"
    stroke="#222222"
    d="M166.592,173.213L169.76600000000002,174.251C169.76600000000002,174.251,171.64100000000002,172.73600000000002,171.85800000000003,172.73600000000002S173.58900000000003,173.818,173.58900000000003,173.818S178.49400000000003,173.602,180.39700000000002,173.818S182.317,177.461,182.317,177.461L186.717,176.199L187.006,178.723H189.458L192.313,170.84400000000002C192.313,170.84400000000002,191.28199999999998,169.62500000000003,190.40699999999998,168.68300000000002S188.719,168.68300000000002,188.719,168.68300000000002H185.406L185.108,168.46200000000002L183.556,164.56600000000003C183.556,164.56600000000003,181.322,158.93900000000002,181.06,158.03800000000004S180.429,154.14500000000004,180.429,154.14500000000004S178.187,155.07800000000003,177.89600000000002,154.14500000000004S176.25900000000001,151.62500000000003,176.25900000000001,151.62500000000003L173.36300000000003,157.79200000000003C173.36300000000003,157.79200000000003,174.86200000000002,159.11500000000004,174.19800000000004,160.48400000000004S171.49900000000002,164.81800000000004,171.28200000000004,165.17400000000004S167.14000000000004,172.24700000000004,167.14000000000004,172.24700000000004L166.592,173.213Z"
    stroke-width="1"
    stroke-linejoin="round"
    style="-webkit-tap-highlight-color: rgba(0, 0, 0, 0); stroke-linejoin: round;"></path>
  <path
    fill="#cccccc"
    stroke="#222222"
    d="M166.592,173.213L158.657,182.40099999999998L167.38500000000002,192.283L164.57200000000003,197.333L165.72600000000003,198.992C165.72600000000003,198.992,161.54300000000003,202.959,162.12000000000003,204.113S161.75900000000004,206.493,161.75900000000004,206.493L159.98400000000004,206.695C159.98400000000004,206.695,160.90500000000003,203.916,159.09900000000005,202.374S157.29300000000003,200.832,157.29300000000003,200.832L155.83300000000003,201.09L154.26900000000003,198.967L149.75600000000003,192.95800000000003V190.76700000000002L148.45700000000002,189.58L146.443,189.19000000000003L146.63000000000002,179.50100000000003L146.47800000000004,179.29400000000004L145.12500000000003,177.87600000000003C145.12500000000003,177.87600000000003,144.30800000000002,176.51200000000003,144.42900000000003,176.32100000000003S144.13000000000002,176.01600000000002,144.54900000000004,175.48200000000003S146.23500000000004,173.21200000000002,146.23500000000004,173.21200000000002L147.03300000000004,172.602L146.80800000000005,169.27L145.47200000000004,169.12800000000001L145.54400000000004,167.471L143.93800000000005,167.623C143.93800000000005,167.623,142.76900000000003,165.721,142.91700000000006,165.00799999999998S143.64500000000007,162.85999999999999,143.64500000000007,162.85999999999999L145.02200000000008,160.898L146.64500000000007,159.106L147.78900000000007,158.043L149.33500000000006,158.74800000000002L149.59500000000006,157.04100000000003L150.07400000000007,156.85700000000003H151.65900000000008L151.08500000000006,154.747L153.47500000000005,153.76500000000001L157.25200000000004,152.08C157.25200000000004,152.08,160.53700000000003,152.853,159.81300000000005,154.108S158.36500000000004,156.425,158.36500000000004,156.425L161.82400000000004,158.018C161.82400000000004,158.018,162.95100000000005,156.583,164.40000000000003,156.89000000000001S166.52500000000003,157.467,166.52500000000003,157.467H173.04300000000003C173.04300000000003,157.467,174.63600000000002,158.88600000000002,174.39500000000004,159.901S173.04300000000003,162.846,172.31900000000005,163.619S166.592,173.213,166.592,173.213Z"
    stroke-width="1"
    stroke-linejoin="round"
    style="-webkit-tap-highlight-color: rgba(0, 0, 0, 0); stroke-linejoin: round;"></path>
  <path
    fill="#cccccc"
    stroke="#222222"
    d="M198.684,147.246L197.60999999999999,148.82500000000002C197.60999999999999,148.82500000000002,197.32399999999998,149.00900000000001,197.749,149.562S198.613,150.604,198.613,150.604L201.104,149.98700000000002C201.104,149.98700000000002,201.144,151.41800000000003,200.262,152.48600000000002S197.968,155.79800000000003,197.968,155.79800000000003S195.274,157.42300000000003,194.50199999999998,159.89500000000004S192.75199999999998,163.78000000000003,192.25199999999998,164.84000000000003S189.63299999999998,168.16000000000003,189.63299999999998,168.16000000000003L188.856,168.68200000000002H185.172C185.172,168.68200000000002,184.876,166.965,185.578,166.086S188.877,163.54100000000003,188.877,163.54100000000003L189.335,160.12400000000002L192.96,156.16600000000003C192.96,156.16600000000003,190.49800000000002,153.78400000000002,190.54600000000002,152.44200000000004S190.871,150.87500000000003,191.32100000000003,150.28900000000004S195.33900000000003,146.46700000000004,195.33900000000003,146.46700000000004L197.67400000000004,146.26000000000005L198.684,147.246Z"
    stroke-width="1"
    stroke-linejoin="round"
    style="-webkit-tap-highlight-color: rgba(0, 0, 0, 0); stroke-linejoin: round;"></path>
  <path
    fill="#cccccc"
    stroke="#222222"
    d="M183.98,165.546C182.99099999999999,163.286,181.649,159.96599999999998,181.649,159.96599999999998S180.095,155.37499999999997,180.448,154.03199999999998L181.148,151.09499999999997H184.209L186.72,150.57799999999997L188.813,149.62399999999997L190.38299999999998,148.55099999999996L192.022,147.25999999999996L193.414,146.25999999999996H195.62599999999998C195.62599999999998,146.25999999999996,189.70899999999997,150.37299999999996,190.62599999999998,152.78999999999996S192.95899999999997,156.16499999999996,192.95899999999997,156.16499999999996L189.33399999999997,160.12299999999996C189.33399999999997,160.12299999999996,188.87599999999998,163.37299999999996,188.87599999999998,163.53999999999996S185.87599999999998,164.87299999999996,185.50099999999998,166.28999999999996S184.84599999999998,167.67599999999996,184.84599999999998,167.67599999999996L183.98,165.546Z"
    stroke-width="1"
    stroke-linejoin="round"
    style="-webkit-tap-highlight-color: rgba(0, 0, 0, 0); stroke-linejoin: round;"></path>
  <path
    fill="#cccccc"
    stroke="#222222"
    d="M181.013,147.907C180.23600000000002,146.333,179.75400000000002,146.34,179.75400000000002,146.34L179.336,138.846L179.69400000000002,136.522C179.69400000000002,136.522,180.247,134.82399999999998,181.02100000000002,135.809S181.971,137.401,181.971,137.401L188.499,142.001L191.218,142.251L193.97899999999998,142.318L195.29199999999997,142.473L198.27299999999997,142.805C198.27299999999997,142.805,198.89099999999996,143.11700000000002,198.93399999999997,143.518S198.77899999999997,144.219,198.27999999999997,144.376S196.69199999999998,145.065,197.15499999999997,145.689L196.93599999999998,146.37699999999998L193.06099999999998,146.25199999999998C193.06099999999998,146.25199999999998,191.998,147.56499999999997,188.81099999999998,149.62699999999998S181.165,150.98,181.165,150.98L181.285,149.066L181.013,147.907Z"
    stroke-width="1"
    stroke-linejoin="round"
    style="-webkit-tap-highlight-color: rgba(0, 0, 0, 0); stroke-linejoin: round;"></path>
  <path
    fill="#cccccc"
    stroke="#222222"
    d="M214.033,139.833C212.809,142.283,209.253,142.166,208.321,143.507S205.115,149.977,205.115,149.977H201.15200000000002L198.58700000000002,150.501C198.58700000000002,150.501,197.12900000000002,149.335,197.71200000000002,148.636S198.936,146.829,198.936,146.829S201.479,147.20100000000002,201.733,146.785S202.764,144.414,203.11,144.023S204.562,142.72,205.092,142.388S207.32100000000003,140.9,207.32100000000003,140.9S208.56800000000004,141.671,209.43100000000004,140.76000000000002S211.20600000000005,139.62600000000003,212.42800000000005,139.59300000000002S214.033,139.833,214.033,139.833Z"
    stroke-width="1"
    stroke-linejoin="round"
    style="-webkit-tap-highlight-color: rgba(0, 0, 0, 0); stroke-linejoin: round;"></path>
  <path
    fill="#cccccc"
    stroke="#222222"
    d="M194.5,129.75C194.5,129.75,202.258,133.89,204.007,134.356S212.226,134.53,213.45000000000002,135.522S215.257,137.384,214.03300000000002,139.834S209.25300000000001,142.167,208.32100000000003,143.508S205.11500000000004,149.978,205.11500000000004,149.978H201.15200000000004L198.58700000000005,150.502C198.58700000000005,150.502,197.12900000000005,149.336,197.71200000000005,148.637S198.93600000000004,146.83,198.93600000000004,146.83S196.89600000000004,146.247,197.07100000000003,145.31500000000003S198.93600000000004,144.20700000000002,198.93600000000004,144.20700000000002S199.40200000000004,142.69100000000003,197.36200000000002,142.633S191.15800000000002,141.919,191.15800000000002,141.919L192.81500000000003,138.21800000000002L192.25000000000003,132.08300000000003L194.5,129.75Z"
    stroke-width="1"
    stroke-linejoin="round"
    style="-webkit-tap-highlight-color: rgba(0, 0, 0, 0); stroke-linejoin: round;"></path>
  <path
    fill="#cccccc"
    stroke="#222222"
    d="M192.907,138.246L199.12800000000001,139.99200000000002L199.781,137.782L201.739,139.156L202.934,137.262C202.934,137.262,205.957,140.344,206.982,140.727S203.961,142.532,202.934,144.282S202.06199999999998,147.032,201.31199999999998,146.876S198.593,146.892,198.593,146.892S197.343,146.376,197.155,145.688S197.468,144.65699999999998,198.28,144.375S199.499,143.094,197.749,142.75S191.218,141.844,191.218,141.844L192.06199999999998,139.906L192.907,138.246Z"
    stroke-width="1"
    stroke-linejoin="round"
    style="-webkit-tap-highlight-color: rgba(0, 0, 0, 0); stroke-linejoin: round;"></path>
  <path
    fill="#cccccc"
    stroke="#222222"
    d="M192.815,138.218L192.25,132.083L194.5,129.75C194.5,129.75,202.258,133.89,204.007,134.356S212.226,134.53,213.45000000000002,135.522S215.257,137.384,214.03300000000002,139.834C214.03300000000002,139.834,210.67000000000002,139.064,210.00400000000002,140.126S208.007,141.726,206.144,140.126S202.935,137.261,202.935,137.261S201.684,138.859,201.751,139.125S199.754,137.927,199.754,137.927L199.088,140.126L192.815,138.218Z"
    stroke-width="1"
    stroke-linejoin="round"
    style="-webkit-tap-highlight-color: rgba(0, 0, 0, 0); stroke-linejoin: round;"></path>
  <path
    fill="#cccccc"
    stroke="#222222"
    d="M184.663,113.116L185.17100000000002,109.989L182.51700000000002,110.11800000000001L180.69800000000004,109.644L176.36700000000005,107.464C176.36700000000005,107.464,173.77100000000004,109.43599999999999,173.02100000000004,109.806S166.59600000000003,112.49,166.36900000000006,113.116S164.77100000000004,116.77,164.34200000000007,117.086S159.43600000000006,119.24,158.97200000000007,119.629S157.96300000000008,120.56400000000001,157.96300000000008,120.56400000000001L157.84800000000007,120.771L159.24900000000008,123.259C159.24900000000008,123.259,160.49200000000008,122.988,160.86200000000008,122.649S162.75400000000008,121.07300000000001,163.75900000000007,121.911S164.92400000000006,122.917,164.89300000000006,123.827S163.82500000000005,132.019,163.82500000000005,132.019L163.77000000000004,132.309C163.77000000000004,132.309,165.17300000000003,132.947,166.03700000000003,133.306S167.45400000000004,133.607,167.32300000000004,134.423S166.72000000000003,136.599,166.65900000000005,137.05S166.41000000000005,139.76500000000001,166.49600000000004,140.23600000000002S167.48100000000005,141.80200000000002,167.48100000000005,141.80200000000002L170.22500000000005,143.38100000000003L173.09300000000005,144.65200000000002L174.21300000000005,146.31L177.02800000000005,147.907L180,146.75L179.5,145.917C179.5,145.917,179.301,140.935,179.321,139.834S179.682,136.25900000000001,179.917,135.917S181.344,135.32,181.344,135.32S180.553,133.356,179.75,131.942S178.482,130.143,178.198,128.828S177.942,125.3,178.382,124.16S180.094,120.78099999999999,180.094,120.78099999999999L182.40699999999998,117.567L182.658,115.91399999999999L182.531,113L184.663,113.116Z"
    stroke-width="1"
    stroke-linejoin="round"
    style="-webkit-tap-highlight-color: rgba(0, 0, 0, 0); stroke-linejoin: round;"></path>
  <path fill="#cccccc" stroke="#222222" d="M134.95,166.306" stroke-width="1" stroke-linejoin="round" style="-webkit-tap-highlight-color: rgba(0, 0, 0, 0); stroke-linejoin: round;"></path>
  <path fill="#cccccc" stroke="#222222" d="M143.938,167.624L143.89,170.024L140.97299999999998,169.506L139.60799999999998,167.342" stroke-width="1" stroke-linejoin="round" style="-webkit-tap-highlight-color: rgba(0, 0, 0, 0); stroke-linejoin: round;"></path>
  <path
    fill="#cccccc"
    stroke="#222222"
    d="M185.083,118.083C186.25,122.666,188.75,124.416,189.75,125.5S194.5,129.75,194.5,129.75L192.25,132.083L192.833,138.416L191,142.25L188.5,142L182,137.5C182,137.5,181.558,135.917,180.997,134.267S177.71900000000002,129.5,177.906,126.937S178.594,123.124,180.094,120.78099999999999C180.094,120.78099999999999,182.15699999999998,118.34299999999999,182.5,117.34299999999999S182.531,112.999,182.531,112.999L184.662,113.115L185.083,118.083Z"
    stroke-width="1"
    stroke-linejoin="round"
    style="-webkit-tap-highlight-color: rgba(0, 0, 0, 0); stroke-linejoin: round;"></path>
  <path
    fill="#cccccc"
    stroke="#222222"
    d="M133.483,114.41C133.483,114.41,133.02,114.827,132.031,116.238S132.69,121.178,132.69,121.178L134.384,126.167L135.51299999999998,131.343L135.70199999999997,135.48399999999998L134.19599999999997,136.23699999999997C134.19599999999997,136.23699999999997,133.67799999999997,136.75499999999997,134.43099999999998,138.11899999999997S135.60699999999997,139.43599999999998,135.60699999999997,139.43599999999998L137.72499999999997,138.11899999999997C137.72499999999997,138.11899999999997,139.18299999999996,138.58999999999997,139.46599999999998,138.91899999999998S138.61899999999997,140.09499999999997,138.61899999999997,140.09499999999997S137.06599999999997,141.03599999999997,136.50099999999998,141.31899999999996S134.05399999999997,141.78899999999996,134.05399999999997,141.78899999999996S133.91299999999998,145.55399999999995,134.94799999999998,147.20099999999996S134.52499999999998,149.13099999999997,134.52499999999998,149.13099999999997L132.12499999999997,150.91899999999998L132.17199999999997,153.13C132.17199999999997,153.13,131.18399999999997,153.977,129.72499999999997,154.40099999999998S130.00699999999998,156.89499999999998,130.00699999999998,156.89499999999998L133.301,160.707L133.48899999999998,162.637L133.81799999999998,164.519L134.94699999999997,166.30700000000002L136.02899999999997,163.39000000000001L137.44099999999997,165.31900000000002H139.60599999999997V167.342L140.97099999999998,169.507L143.88799999999998,170.025L143.93499999999997,167.625C143.93499999999997,167.625,142.99699999999999,166.084,142.914,165.334S143.414,163.251,143.914,162.334S147.331,158.334,147.664,158.084S149.331,158.751,149.331,158.751S149.498,157.918,149.498,157.251S151.665,156.89600000000002,151.665,156.89600000000002L151.082,154.751C151.082,154.751,155.249,153.084,157.249,152.084S161.249,151.501,161.249,151.501S162.166,150.334,164.499,148.668S167.582,150.001,167.582,150.001S168.749,149.834,169.749,149.334S172,149.5,172,149.5S174.333,149.667,175.333,148.833L177.027,147.907C177.027,147.907,174.76899999999998,146.923,174.53799999999998,146.769S173.384,144.769,173.384,144.769S167.076,142.308,166.61499999999998,140.846S166.84499999999997,135.923,166.84499999999997,135.923S168.22999999999996,133.923,166.30699999999996,133.385S163.76799999999997,132.308,163.76799999999997,132.308S165.46099999999998,123.61699999999999,164.69099999999997,122.61699999999999S162.22999999999996,121.30899999999998,161.22999999999996,122.30899999999998S159.38499999999996,123.45799999999998,159.38499999999996,123.45799999999998S157.76899999999995,121.15399999999998,157.84499999999997,120.76999999999998S159.38499999999996,119.30799999999998,159.38499999999996,119.30799999999998S158.60399999999996,117.74799999999998,158.86099999999996,115.99699999999999S160.02799999999996,112.78199999999998,160.02799999999996,112.78199999999998L161.12799999999996,110.55399999999999C161.12799999999996,110.55399999999999,161.22299999999996,109.19699999999999,159.97099999999995,109.79499999999999S156.99099999999996,112.83399999999999,156.14399999999995,113.99599999999998S151.23099999999994,121.53799999999998,151.23099999999994,121.53799999999998S150.76699999999994,121.97299999999998,149.68099999999993,122.45699999999998S146.74799999999993,123.45799999999998,146.74799999999993,123.45799999999998L146.82899999999992,116.19599999999998L146.51199999999992,114.54699999999998L142.99999999999991,113.08199999999998C142.99999999999991,113.08199999999998,142.07999999999993,113.14999999999998,141.4579999999999,113.46599999999998S139.5109999999999,114.45899999999997,139.5109999999999,114.45899999999997L133.483,114.41Z"
    stroke-width="1"
    stroke-linejoin="round"
    style="-webkit-tap-highlight-color: rgba(0, 0, 0, 0); stroke-linejoin: round;"></path>
  <path
    fill="#cccccc"
    stroke="#222222"
    d="M134.432,113.462C134.432,113.462,135.373,111.43900000000001,134.05599999999998,110.35600000000001S132.97299999999998,108.897,132.97299999999998,108.897L134.00799999999998,108.191C134.00799999999998,108.191,134.14999999999998,106.638,134.14999999999998,106.12100000000001S134.80799999999996,105.745,134.76099999999997,105.08600000000001S134.10199999999998,103.06300000000002,134.10199999999998,103.06300000000002L132.73799999999997,103.72200000000002L132.55999999999997,102.70200000000003L134.86299999999997,100.19400000000003C134.86299999999997,100.19400000000003,138.68699999999998,96.98700000000004,139.91999999999996,95.01300000000003S145.42999999999995,88.31000000000003,145.42999999999995,88.31000000000003S149.54199999999994,90.84000000000003,149.95299999999995,91.75400000000003S150.81699999999995,92.91600000000004,150.81699999999995,92.91600000000004S158.13699999999994,91.64100000000003,160.10999999999996,93.73800000000004S161.50799999999995,96.16400000000004,161.91899999999995,97.56200000000004S161.46699999999996,100.11200000000004,162.45399999999995,100.97500000000004S165.04399999999995,102.78400000000003,167.30599999999995,102.12600000000003S169.97899999999996,99.57700000000003,173.76199999999994,101.13900000000004S180.30099999999993,103.44200000000004,180.30099999999993,103.44200000000004L184.82399999999993,103.56600000000003C184.82399999999993,103.56600000000003,186.83999999999992,103.97700000000003,186.01699999999994,106.89700000000003L185.17099999999994,109.98900000000003C185.17099999999994,109.98900000000003,183.58399999999995,110.07400000000003,182.28699999999995,110.12800000000003S176.30799999999994,107.69400000000003,176.30799999999994,107.69400000000003S175.30199999999994,108.19600000000003,173.84699999999992,109.30800000000004S166.94099999999992,112.11300000000004,166.19999999999993,113.62100000000004S164.84999999999994,117.06000000000003,163.79199999999994,117.45700000000004S159.38699999999994,119.31000000000003,159.38699999999994,119.31000000000003S158.36799999999994,116.61100000000003,158.84399999999994,114.99700000000003S161.19899999999993,110.44600000000003,161.19899999999993,110.44600000000003S161.56999999999994,108.27700000000003,158.55299999999994,111.26600000000002S154.08099999999993,117.14000000000001,154.08099999999993,117.14000000000001S151.54099999999994,121.29300000000002,151.08299999999994,121.71000000000001S147.37499999999994,123.46000000000001,147.37499999999994,123.46000000000001H146.74999999999994L146.83299999999994,116.00200000000001L146.54099999999994,114.79400000000001C146.54099999999994,114.79400000000001,142.79099999999994,112.79400000000001,142.45799999999994,112.96100000000001S139.51199999999994,114.46100000000001,139.51199999999994,114.46100000000001L133.48799999999994,114.44800000000001L134.432,113.462Z"
    stroke-width="1"
    stroke-linejoin="round"
    style="-webkit-tap-highlight-color: rgba(0, 0, 0, 0); stroke-linejoin: round;"></path>
  <path
    fill="#cccccc"
    stroke="#222222"
    d="M96.859,217.17L95.829,196.265L98.44,194.68699999999998L101.375,194.37499999999997L108.125,195.12499999999997C108.125,195.12499999999997,108.696,186.37999999999997,109.105,184.82799999999997S110.893,180.557,110.893,180.557L114.75,179.25L114.012,173.794L117.538,172.27800000000002C117.538,172.27800000000002,119.348,170.69500000000002,120.478,169.31300000000002S123.871,164.972,123.871,164.972S123.999,161.38500000000002,125.021,160.221S126.967,158.34300000000002,126.967,158.34300000000002L130.009,156.895L133.313,160.81400000000002L133.82,164.51900000000003L134.94899999999998,166.30700000000004L136.219,163.64600000000004L137.44299999999998,165.31900000000005H139.60799999999998V167.15300000000005L140.97299999999998,169.50700000000006L143.89,170.02500000000006L143.93699999999998,167.62500000000006L145.53699999999998,167.34300000000005L145.63099999999997,169.27200000000005L146.82099999999997,169.47200000000004L147.29599999999996,172.42700000000005C147.29599999999996,172.42700000000005,144.31999999999996,174.30200000000005,144.39799999999997,176.03600000000006S146.47799999999998,179.29600000000005,146.47799999999998,179.29600000000005L146.20399999999998,189.01600000000005L144.81599999999997,190.02800000000005C144.81599999999997,190.02800000000005,144.79099999999997,188.74400000000006,143.39,189.42300000000006S140.796,191.00300000000007,140.20399999999998,193.13200000000006S139.51299999999998,195.86100000000008,139.51299999999998,195.86100000000008L139.97299999999998,198.83300000000008L138.42399999999998,199.10700000000008C138.42399999999998,199.10700000000008,136.117,200.9480000000001,136.016,202.24100000000007S135.46099999999998,207.30800000000008,135.46099999999998,207.30800000000008S133.47899999999998,206.51600000000008,132.379,208.62800000000007S130.833,211.77400000000006,130.833,211.77400000000006L128.713,212.83100000000005L128.417,214.90200000000004L126.21600000000001,218.09300000000005L122.58300000000001,217.87200000000004L121.56400000000001,219.92000000000004C121.56400000000001,219.92000000000004,118.00800000000001,219.26100000000005,117.27300000000001,221.09100000000004S116.08800000000001,224.36600000000004,116.08800000000001,224.36600000000004L112.786,226.89800000000005L112.346,228.65900000000005L109.70400000000001,229.43000000000004L101.66900000000001,235.59300000000005C101.66900000000001,235.59300000000005,101.58800000000001,233.96300000000005,100.22300000000001,233.08900000000006S97.94500000000001,231.25200000000007,97.22700000000002,230.77000000000007S92.20300000000002,229.98000000000008,92.20300000000002,229.98000000000008L92.53300000000002,227.22900000000007L91.36000000000001,226.14200000000008L89.13100000000001,225.0430000000001C89.13100000000001,225.0430000000001,91.70200000000001,223.1230000000001,92.37600000000002,222.87500000000009S93.43100000000003,222.1970000000001,94.64700000000002,222.85600000000008S97.06700000000002,223.91600000000008,97.06700000000002,223.91600000000008S97.81100000000002,223.6450000000001,98.13800000000002,222.70000000000007S98.46200000000002,220.45400000000006,98.46200000000002,220.45400000000006L97.45100000000002,218.40300000000008L96.859,217.17Z"
    stroke-width="1"
    stroke-linejoin="round"
    style="-webkit-tap-highlight-color: rgba(0, 0, 0, 0); stroke-linejoin: round;"></path>
  <path
    fill="#cccccc"
    stroke="#222222"
    d="M88.688,225.375C88.688,225.375,89.751,228.625,89.376,231.188S88.626,234.62599999999998,86.063,237.75099999999998S83.188,243.68899999999996,83.375,244.06399999999996S86.625,248.06399999999996,86.625,248.06399999999996S86.562,251.37699999999995,86.813,252.00199999999995S89.563,256.37699999999995,90.251,253.75199999999995S90.43900000000001,247.37699999999995,90.43900000000001,247.37699999999995S90.87700000000001,244.75199999999995,92.56400000000001,244.18899999999996S98.31400000000001,242.62599999999998,101.62700000000001,244.25199999999995S106.31500000000001,246.12699999999995,106.31500000000001,246.12699999999995S106.94000000000001,243.75199999999995,110.50300000000001,243.62699999999995S115.81600000000002,244.12699999999995,116.25300000000001,244.81499999999994S119.19100000000002,243.43999999999994,119.19100000000002,243.43999999999994L119.31600000000002,239.75199999999995L122.81600000000002,239.31399999999996C122.81600000000002,239.31399999999996,127.56600000000002,240.56399999999996,129.44100000000003,242.37699999999995S132.00400000000002,244.68999999999994,132.00400000000002,244.68999999999994L133.00400000000002,246.68999999999994L135.192,249.12799999999993L136.442,249.94099999999992L137.317,248.50299999999993L138.005,246.93999999999994L137.813,246L143.063,245.062L144.20299999999997,244.91000000000003L149.65899999999996,235.22600000000003V233.04300000000003L149.95199999999997,232.44700000000003H154.82399999999996C154.82399999999996,232.44700000000003,156.25299999999996,231.14800000000002,155.92799999999997,230.17400000000004S155.08299999999997,228.94000000000003,155.08299999999997,228.94000000000003L154.69299999999998,227.12100000000004L151.76999999999998,224.52300000000002L151.575,222.18500000000003C151.575,222.18500000000003,150.795,220.49600000000004,149.821,219.97600000000003S146.378,219.19700000000003,146.378,219.19700000000003L144.202,219.78200000000004L142.805,217.96300000000005V215.49500000000006L144.429,214.84500000000006L143.065,212.96100000000007C143.065,212.96100000000007,142.35,211.27300000000008,144.494,211.66200000000006S147.547,211.60300000000007,147.547,211.60300000000007L153.393,208.54300000000006C153.393,208.54300000000006,154.692,208.08900000000006,155.147,208.86800000000005S156.706,210.10200000000006,157.42,209.12800000000004S158.45999999999998,207.11400000000003,158.45999999999998,207.11400000000003L160.34399999999997,206.59400000000002C160.34399999999997,206.59400000000002,160.47299999999996,204.32300000000004,159.82399999999996,203.34900000000002S157.74499999999995,200.75000000000003,157.74499999999995,200.75000000000003L155.53699999999995,201.14000000000001L154.17299999999994,198.80100000000002L149.75599999999994,192.95600000000002L149.95099999999994,190.942L148.45699999999994,189.578L146.44299999999993,189.18800000000002L144.81599999999992,190.02400000000003C144.81599999999992,190.02400000000003,144.37599999999992,187.82300000000004,142.17399999999992,189.91400000000002S139.51299999999992,195.85700000000003,139.51299999999992,195.85700000000003L139.97299999999993,198.82900000000004L138.10199999999992,199.16000000000003C138.10199999999992,199.16000000000003,135.7909999999999,201.47100000000003,135.90099999999993,203.01200000000003S135.46099999999993,207.30500000000004,135.46099999999993,207.30500000000004S133.36899999999991,206.97400000000005,132.37899999999993,208.62500000000003S130.72799999999992,212.03700000000003,130.72799999999992,212.03700000000003L128.74699999999993,212.58800000000002L128.41599999999994,214.90000000000003L126.21499999999995,218.09100000000004L122.58199999999995,217.87000000000003L121.84299999999995,219.96200000000005C121.84299999999995,219.96200000000005,118.28999999999995,219.30100000000004,117.51899999999995,220.62200000000004S116.08799999999995,224.36400000000003,116.08799999999995,224.36400000000003L112.78599999999994,226.89600000000004L112.34599999999995,228.65700000000004L109.70399999999995,229.42800000000003L101.66899999999995,235.59100000000004C101.66899999999995,235.59100000000004,101.33799999999995,233.61100000000005,99.68799999999996,232.73000000000005S96.82599999999996,230.30800000000005,96.82599999999996,230.30800000000005L92.20299999999996,229.97800000000004L92.53299999999996,227.22700000000003L91.24099999999996,226.03100000000003L90.17699999999996,225.58100000000005L88.688,225.375Z"
    stroke-width="1"
    stroke-linejoin="round"
    style="-webkit-tap-highlight-color: rgba(0, 0, 0, 0); stroke-linejoin: round;"></path>
  <path
    fill="#cccccc"
    stroke="#222222"
    d="M82.757,286.933C82.757,286.933,83.461,283.36,83.361,282.102S85.878,276.61699999999996,86.381,277.97499999999997S85.878,280.64099999999996,85.827,281.49699999999996S85.313,285.222,84.639,285.97599999999994S82.757,286.933,82.757,286.933Z"
    stroke-width="1"
    stroke-linejoin="round"
    style="-webkit-tap-highlight-color: rgba(0, 0, 0, 0); stroke-linejoin: round;"></path>
  <path
    fill="#cccccc"
    stroke="#222222"
    d="M95.625,192.125L93.812,190.312C93.812,190.312,93.437,188.87400000000002,92.937,186.437S90.687,179.187,90.187,176.187S90.625,171.49900000000002,90.625,168.99900000000002S90.375,166.49900000000002,91,165.93600000000004S91.125,163.62300000000005,92.125,160.68600000000004S93.625,156.74800000000005,93.5,155.62300000000005S93.938,151.06000000000006,94.875,149.49800000000005S96.688,143.99800000000005,96.5,141.99800000000005S97.445,134.96400000000006,97.445,134.96400000000006L95.139,134.82300000000006L93.586,133.03500000000005C93.586,133.03500000000005,94.198,131.10600000000005,93.774,130.25900000000004S92.645,128.98900000000003,92.645,128.98900000000003L88.692,128.94200000000004L86.198,126.96600000000004L81.869,126.49500000000003C81.869,126.49500000000003,85.257,123.62500000000003,86.057,122.21300000000004S87.092,119.57800000000003,86.763,119.01300000000003S84.881,117.64800000000004,84.881,117.64800000000004S84.881,116.61300000000004,85.352,115.38900000000004S88.081,114.44800000000004,88.97500000000001,112.84800000000004S88.552,106.02400000000004,87.70400000000001,105.08300000000004S87.751,101.13000000000004,87.751,101.13000000000004L83.46900000000001,98.40100000000004C83.46900000000001,98.40100000000004,83.18700000000001,95.81300000000005,83.46900000000001,94.68400000000004S88.739,93.17800000000004,89.68,92.19000000000004S91.751,92.19000000000004,91.751,92.19000000000004L92.033,93.97900000000004L91.751,95.25000000000004L92.22200000000001,95.95600000000005C92.22200000000001,95.95600000000005,92.36300000000001,96.61500000000005,94.01,97.32100000000004S96.268,97.65000000000003,97.11500000000001,96.80300000000004S99.421,96.80300000000004,99.421,96.80300000000004L99.985,99.53200000000004C99.985,99.53200000000004,100.879,100.19100000000005,102.526,100.14400000000003S105.067,99.01500000000003,105.067,99.01500000000003L105.255,99.81500000000003L104.738,103.39100000000002C104.738,103.39100000000002,104.55,103.62600000000002,107.938,105.79100000000003S113.35000000000001,106.16700000000003,115.23100000000001,105.65000000000002S119.23100000000001,102.45000000000002,120.501,102.35600000000002S123.418,103.43900000000002,123.418,103.43900000000002L126.241,103.39200000000002L126.947,104.09800000000003C126.947,104.09800000000003,127.653,104.19200000000002,129.441,102.35700000000003S132.735,103.72200000000002,132.735,103.72200000000002L134.09900000000002,103.06300000000002C134.09900000000002,103.06300000000002,134.711,104.42700000000002,134.758,105.08600000000001S134.14700000000002,105.60400000000001,134.14700000000002,106.12100000000001S134.00500000000002,108.191,134.00500000000002,108.191L132.97000000000003,108.897C132.97000000000003,108.897,132.735,109.27300000000001,134.05300000000003,110.35600000000001S134.42900000000003,113.462,134.42900000000003,113.462S133.01700000000002,114.827,132.02900000000002,116.238S132.68800000000002,121.178,132.68800000000002,121.178L134.382,126.167L135.511,131.343L135.7,135.48399999999998L134.194,136.23699999999997C134.194,136.23699999999997,133.676,136.75499999999997,134.429,138.11899999999997S135.605,139.43599999999998,135.605,139.43599999999998L137.72299999999998,138.11899999999997C137.72299999999998,138.11899999999997,139.18099999999998,138.58999999999997,139.464,138.91899999999998S138.617,140.09499999999997,138.617,140.09499999999997S137.064,141.03599999999997,136.499,141.31899999999996S134.052,141.78899999999996,134.052,141.78899999999996S133.911,145.55399999999995,134.946,147.20099999999996S134.523,149.13099999999997,134.523,149.13099999999997L132.123,150.91899999999998L132.17,153.13C132.17,153.13,131.182,153.977,129.72299999999998,154.40099999999998S130.005,156.89499999999998,130.005,156.89499999999998S125.246,158.24999999999997,124.371,161.62499999999997S124.121,164.62499999999997,124.121,164.62499999999997S119.246,171.37499999999997,117.371,172.37499999999997S113.746,173.87499999999997,113.746,173.87499999999997L114.746,179.24999999999997L110.687,180.62499999999997C110.687,180.62499999999997,108.996,183.12499999999997,108.746,187.49999999999997S108.121,195.12499999999997,108.121,195.12499999999997L101.371,194.37499999999997L98.75,194.5L95.829,196.265L95.625,192.125Z"
    stroke-width="1"
    stroke-linejoin="round"
    style="-webkit-tap-highlight-color: rgba(0, 0, 0, 0); stroke-linejoin: round;"></path>
</svg>
