<svg height="420" version="1.1" width="540" xmlns="http://www.w3.org/2000/svg" xmlns:xlink="http://www.w3.org/1999/xlink" style="overflow: hidden; position: relative; left: -0.6px; top: -0.4px;">
  <desc style="-webkit-tap-highlight-color: rgba(0, 0, 0, 0);">Created with Raphaël 2.2.0</desc>
  <defs style="-webkit-tap-highlight-color: rgba(0, 0, 0, 0);"></defs>
  <path
    fill="#cccccc"
    stroke="#222222"
    d="M189.224,257.066L184.861,257.13599999999997C184.861,257.13599999999997,183.673,255.57399999999996,182.43699999999998,255.33999999999997S180.557,255.74099999999999,180.057,255.82599999999996S178.71699999999998,255.80499999999998,178.71699999999998,255.80499999999998V252.79699999999997C178.71699999999998,252.79699999999997,179.95499999999998,250.81299999999996,179.66199999999998,249.12999999999997S179.93299999999996,245.05499999999998,180.12699999999998,244.47399999999996S179.194,241.29099999999997,179.18999999999997,240.20999999999995S178.71599999999998,237.36299999999994,178.71599999999998,237.36299999999994L176.79899999999998,232.80999999999995L174.01899999999998,236.04999999999995L170.39299999999997,233.31799999999996L170.86699999999996,231.42899999999995C170.86699999999996,231.42899999999995,171.86999999999995,230.76199999999994,171.56399999999996,230.25899999999996S170.39299999999997,228.97899999999996,170.39299999999997,228.97899999999996L171.17899999999997,225.58299999999997L174.22199999999998,225.63999999999996L175.85099999999997,227.51099999999997L176.11399999999998,227.78399999999996L184.05499999999998,224.27099999999996L181.45899999999997,231.06399999999996C181.45899999999997,231.06399999999996,181.52399999999997,231.60899999999995,182.35199999999998,232.55899999999997S184.40699999999998,234.96699999999996,184.49799999999996,235.13199999999998S185.13799999999995,235.60999999999999,185.13799999999995,235.60999999999999S186.74399999999994,235.28199999999998,186.85199999999995,236.04899999999998S187.17899999999995,240.45399999999998,187.17899999999995,240.45399999999998L187.20699999999994,240.74299999999997L186.41099999999994,241.04199999999997L188.45999999999995,245.66299999999998L190.11699999999996,248.409C190.11699999999996,248.409,191.38699999999997,248.302,191.38699999999997,248.79899999999998S190.86399999999998,250.653,191.03899999999996,251.075S194.36899999999997,253.62599999999998,194.36899999999997,253.62599999999998L195.06599999999997,261.919L189.224,257.066Z"
    stroke-width="1"
    stroke-linejoin="round"
    style="-webkit-tap-highlight-color: rgba(0, 0, 0, 0); stroke-linejoin: round;"></path>
  <path
    fill="#cccccc"
    stroke="#222222"
    d="M153.471,279.628C153.471,279.628,152.416,283.10699999999997,154.316,282.191S167.969,274.308,167.969,274.308L165.297,267.763L171.279,269.45099999999996L172.898,282.049L175.291,280.431L183.596,282.471L183.03300000000002,277.194C183.03300000000002,277.194,186.341,277.757,186.411,276.13800000000003S184.792,260.23300000000006,184.792,260.23300000000006L184.862,257.1360000000001C184.862,257.1360000000001,183.457,254.7740000000001,181.46,255.44000000000008S178.714,255.93900000000008,178.714,255.93900000000008L178.797,252.75000000000009C178.797,252.75000000000009,179.962,251.5310000000001,179.629,248.78500000000008S180.212,244.2920000000001,180.212,244.2920000000001S179.796,242.62900000000008,179.463,241.46400000000008S178.797,237.5540000000001,178.797,237.5540000000001L176.79999999999998,232.8120000000001L173.80499999999998,236.0520000000001L170.26399999999998,233.2160000000001L169.796,234.4970000000001L167.70999999999998,234.3960000000001L167.03099999999998,236.3670000000001C167.03099999999998,236.3670000000001,165.72199999999998,234.0930000000001,165.379,234.12000000000012S164.251,234.47900000000013,163.968,234.63200000000012S161.83499999999998,235.6530000000001,161.83499999999998,235.6530000000001S160.22799999999998,234.26800000000011,159.62699999999998,234.6950000000001S158.82299999999998,236.3410000000001,158.868,236.74500000000012S155.12,237.88900000000012,155.12,237.88900000000012S155.94,238.46200000000013,155.806,238.98100000000014S155.042,239.85800000000015,155.042,239.85800000000015L154.54,240.00800000000015L152.673,237.69000000000014C152.673,237.69000000000014,153.321,236.55400000000014,153.472,235.48200000000014S153.434,233.89000000000013,152.98000000000002,233.72300000000016S152.00000000000003,233.78900000000016,152.00000000000003,233.78900000000016L150.77900000000002,234.67200000000017V239.07900000000018L149.97600000000003,241.43700000000018L147.26000000000002,245.04900000000018C147.26000000000002,245.04900000000018,144.98200000000003,253.4920000000002,144.87400000000002,254.74300000000017S145.09400000000002,258.07700000000017,145.09400000000002,258.07700000000017S146.175,260.06500000000017,146.51500000000001,261.05600000000015S147.473,264.0860000000001,147.473,264.0860000000001S146.74200000000002,265.20800000000014,147.144,266.27800000000013S150.434,271.43200000000013,150.434,271.43200000000013L151.969,273.51500000000016L150.195,274.72900000000016L149.885,274.94100000000014L153.471,277.35400000000016V279.628Z"
    stroke-width="1"
    stroke-linejoin="round"
    style="-webkit-tap-highlight-color: rgba(0, 0, 0, 0); stroke-linejoin: round;"></path>
  <path
    fill="#cccccc"
    stroke="#222222"
    d="M141.085,222.166C140.25,223.666,137.167,222.667,136.084,224.5S134.834,228.916,134.834,228.916S133.5,230.166,134.167,232.166S134.834,234.166,134.834,234.166L133.084,238.833C133.084,238.833,130.917,238.832,130.084,239.916S127.75,240.583,126.917,241.583S123.25,242,122.917,243S124.167,244.25,123.75,246.25S125.167,254.25,126.167,255.833S129.917,256.33299999999997,130.167,258.83299999999997S131.667,263.49999999999994,131.667,263.49999999999994L137.834,276.08299999999997L141.085,283.31699999999995L141.437,282.61299999999994L144.46300000000002,283.52799999999996L153.47100000000003,279.628V277.35699999999997L149.88500000000002,274.94399999999996L151.96800000000002,273.518L150.43300000000002,271.43499999999995C150.43300000000002,271.43499999999995,147.252,267.59599999999995,147.14300000000003,266.28099999999995S147.47200000000004,264.08899999999994,147.47200000000004,264.08899999999994S146.37500000000003,260.0299999999999,145.38900000000004,258.60599999999994S144.62100000000004,255.20699999999994,145.71800000000005,250.49199999999993S147.03400000000005,245.33799999999994,147.03400000000005,245.33799999999994L149.88500000000005,241.71999999999994L150.76200000000006,238.97899999999993L150.77800000000005,234.54799999999992C150.77800000000005,234.54799999999992,149.09500000000006,231.44299999999993,148.81400000000005,229.5449999999999S148.54800000000006,225.8159999999999,147.72500000000005,224.0869999999999S146.90200000000004,221.8329999999999,145.76000000000005,221.2449999999999S143.05200000000005,220.2979999999999,143.05200000000005,220.2979999999999L141.085,222.166Z"
    stroke-width="1"
    stroke-linejoin="round"
    style="-webkit-tap-highlight-color: rgba(0, 0, 0, 0); stroke-linejoin: round;"></path>
  <path
    fill="#cccccc"
    stroke="#222222"
    d="M144,219.167C143.917,218.334,142.833,218.333,141.75,214.583S145.25,206.834,146.583,205.917S146.083,202.833,147.166,201.333S150.333,201.083,150.333,201.083S152.416,199.5,152.416,198.583S150.916,196.083,150.916,196.083L149.166,196.448L149.083,194C149.083,194,151.916,194.333,153,194.167S153.833,188.333,153.833,188.333S153.166,188.25,152.666,187.5S152.916,186.75,152.916,186.75L153.916,180.667C153.916,180.667,151.083,177.75,151.666,177.167S151.749,174.584,151.749,174.584L150.832,171.334C150.832,171.334,149.499,168.834,149.249,167.751S150.499,167.084,151.332,166.251S150.582,163.918,150.582,163.918S150.665,162.668,151.249,161.751S150.499,160.084,150.499,160.084L151.082,157.584C151.082,157.584,149.582,155.417,149.582,154.417S150.249,153.167,150.082,151.25S148.665,145.75,148.665,145.75S148.415,141,148.915,139.083S151.998,137.583,152.665,136.25S151.748,131.75,151.748,131.75S152.248,130.917,152.331,129.5S151.664,128.167,151.664,128.167L151.99699999999999,125.864H150.07999999999998V124.834C150.07999999999998,124.834,150.32999999999998,124.084,150.74699999999999,122.584S152.57999999999998,123.501,152.57999999999998,123.501L153.91299999999998,124.334L155.32999999999998,126.584L155.57999999999998,129.084L158.49699999999999,129.584L159.24699999999999,128.834L159.57999999999998,127.584L159.82999999999998,126.584L162.57999999999998,127.167L164.32999999999998,133.167L165.62699999999998,131.244L165.78699999999998,132.456L171.67999999999998,175.265L178.17299999999997,177.41L184.45199999999997,179.025L194.58999999999997,182.513C194.58999999999997,182.513,195.21099999999998,183.022,195.48099999999997,183.799S195.69599999999997,189.578,195.69599999999997,189.578S194.57699999999997,190.958,194.28499999999997,191.412S195.26599999999996,193.309,195.26599999999996,193.309S194.60999999999996,194.281,194.49799999999996,195.196S195.11199999999997,197.194,194.78499999999997,197.934S193.93499999999997,199.265,193.93499999999997,199.265L193.43499999999997,204.117L184.17199999999997,224.003L175.85799999999998,227.90499999999997L174.218,225.64199999999997L171.17499999999998,225.58499999999998L170.59799999999998,229.03499999999997C170.59799999999998,229.03499999999997,171.922,229.93899999999996,171.17499999999998,230.90099999999998S169.97599999999997,234.521,169.97599999999997,234.521L167.82699999999997,234.23899999999998L168.27999999999997,232.42899999999997L167.09199999999998,236.50099999999998C167.09199999999998,236.50099999999998,165.677,233.44599999999997,164.773,234.12499999999997S161.832,235.65199999999996,161.832,235.65199999999996S159.796,234.06799999999996,159.23,234.74699999999996S158.891,237.00999999999996,158.891,237.00999999999996L154.932,237.68899999999996C154.932,237.68899999999996,156.289,239.04599999999996,155.667,239.49899999999997S154.536,240.00799999999995,154.536,240.00799999999995L152.669,237.68999999999994C152.669,237.68999999999994,153.353,236.32699999999994,153.44400000000002,235.34399999999994S153.014,233.13499999999993,152.15500000000003,233.68699999999993S150.77400000000003,234.54599999999994,150.77400000000003,234.54599999999994S149.02500000000003,231.41499999999994,148.81000000000003,229.54299999999995S148.34900000000002,226.74899999999994,147.85800000000003,224.60199999999995S146.26300000000003,221.37899999999993,145.00400000000002,220.82799999999995S143.746,220.27599999999995,143.746,220.27599999999995L144,219.167Z"
    stroke-width="1"
    stroke-linejoin="round"
    style="-webkit-tap-highlight-color: rgba(0, 0, 0, 0); stroke-linejoin: round;"></path>
  <path
    fill="#cccccc"
    stroke="#222222"
    d="M194.362,253.548L196.614,253.618L197.951,254.744L203.29999999999998,252.35L203.582,250.87199999999999L205.34099999999998,250.09799999999998L205.76299999999998,248.54999999999998L207.73399999999998,248.12699999999998C207.73399999999998,248.12699999999998,209.634,244.396,212.30899999999997,242.91699999999997S215.61699999999996,239.46799999999996,216.60199999999998,238.06099999999998S216.53199999999998,235.38699999999997,216.53199999999998,235.38699999999997L218.01,234.47199999999998L216.321,232.712L218.503,231.375L217.658,229.404L218.503,228.631L219.488,226.52L215.617,226.449L217.039,223.14100000000002C217.039,223.14100000000002,218.57199999999997,222.29500000000002,218.85399999999998,220.466S217.587,217.441,217.587,217.441L218.07999999999998,215.118L217.039,214.555L219.12199999999999,211.54600000000002L217.605,210.36800000000002L215.79899999999998,211.31900000000002L216.39899999999997,208.76800000000003C216.39899999999997,208.76800000000003,214.63599999999997,207.84000000000003,214.16999999999996,208.08700000000002S212.62999999999997,209.56400000000002,211.52699999999996,209.74200000000002S210.44599999999997,210.21800000000002,210.44599999999997,210.21800000000002L208.76999999999998,212.883L207.74499999999998,208.818L198.67099999999996,206.16500000000002L195.97699999999998,204.91600000000003L195.43999999999997,203.21500000000003L193.43899999999996,204.11500000000004L184.17599999999996,224.00100000000003C184.17599999999996,224.00100000000003,181.16799999999995,230.65500000000003,181.48199999999997,231.38900000000004S184.23999999999998,234.53200000000004,184.58899999999997,235.29900000000004S186.99799999999996,235.05500000000004,186.96299999999997,236.55600000000004S187.20799999999997,240.74500000000003,187.20799999999997,240.74500000000003L186.09099999999998,241.16400000000004C186.09099999999998,241.16400000000004,187.52299999999997,243.71300000000005,188.325,245.38900000000004S190.349,248.74100000000004,190.349,248.74100000000004S191.641,248.42700000000005,191.641,248.67100000000005S190.453,250.73200000000006,191.327,251.63900000000004S194.369,253.62900000000005,194.369,253.62900000000005"
    stroke-width="1"
    stroke-linejoin="round"
    style="-webkit-tap-highlight-color: rgba(0, 0, 0, 0); stroke-linejoin: round;"></path>
  <path
    fill="#cccccc"
    stroke="#222222"
    d="M262.445,244.867L253.08499999999998,236.052C253.08499999999998,236.052,253.26299999999998,236.16899999999998,251.31199999999998,236.057S246.255,237.791,245.08299999999997,238.272S239.41999999999996,239.618,239.41999999999996,239.618L237.97999999999996,238.74099999999999C237.97999999999996,238.74099999999999,236.82599999999996,240.75199999999998,236.58399999999997,241.42899999999997S236.75199999999998,244.03999999999996,236.92499999999998,244.94299999999998S238.277,247.70299999999997,238.277,247.70299999999997S240.31699999999998,250.259,241.381,251.87499999999997S242.158,257.87699999999995,242.158,257.87699999999995S241.57199999999997,258.99299999999994,240.52599999999998,259.92199999999997S233.10899999999998,262.50699999999995,233.10899999999998,262.50699999999995L232.11299999999997,263.55199999999996L227.69899999999998,263.21899999999994C227.69899999999998,263.21899999999994,217.01999999999998,274.78099999999995,215.642,276.19999999999993S206.292,284.00899999999996,206.292,284.00899999999996L204.441,284.294L198.526,291.138L196.42000000000002,291.36699999999996L193.68900000000002,293.82699999999994L198.93800000000002,299.51599999999996C198.93800000000002,299.51599999999996,202.496,304.00699999999995,204.639,306.75699999999995S213.085,317.75199999999995,213.085,317.75199999999995L216.002,315.25199999999995C216.002,315.25199999999995,216.252,314.50199999999995,217.041,313.335S219.418,312.50199999999995,219.502,311.918S222.585,309.835,222.585,309.835L227.085,299.00199999999995C227.085,299.00199999999995,232.752,294.585,234.502,293.085S239.418,288.00199999999995,239.418,288.00199999999995S239.335,287.41799999999995,239.918,286.085S243.085,284.668,243.085,284.668L249.085,278.168C249.085,278.168,260.002,261.668,261.168,259.668S265.335,256.668,265.335,256.668S264.835,255.252,265.918,253.585L267.368,252.657L269.127,252.752L269.623,252.18800000000002L262.445,244.867Z"
    stroke-width="1"
    stroke-linejoin="round"
    style="-webkit-tap-highlight-color: rgba(0, 0, 0, 0); stroke-linejoin: round;"></path>
  <path
    fill="#cccccc"
    stroke="#222222"
    d="M154.316,282.191C152.416,283.106,153.471,279.628,153.471,279.628L144.463,283.52799999999996L141.43699999999998,282.61299999999994L141.08499999999998,283.31699999999995C141.08499999999998,283.31699999999995,140.522,286.34299999999996,141.08499999999998,287.96199999999993S145.16699999999997,298.4479999999999,145.16699999999997,298.4479999999999S145.09699999999998,300.55799999999994,145.44899999999998,302.24799999999993S150.65699999999998,313.01699999999994,150.65699999999998,313.01699999999994V314.77699999999993L154.31699999999998,323.92499999999995V326.10699999999997L156.569,331.315L159.14,336.062C159.14,336.062,161.73999999999998,329.951,162.488,328.809S165.434,325.74600000000004,165.434,325.74600000000004L167.078,324.85800000000006L168.197,323.02500000000003C168.197,323.02500000000003,172.909,320.36800000000005,173.844,319.17600000000004S174.637,316.59400000000005,174.637,316.59400000000005L171.217,306.951L174.77800000000002,305.97400000000005L176.87300000000002,310.23400000000004C176.87300000000002,310.23400000000004,180.335,310.95500000000004,180.055,309.66800000000006S178.881,305.88900000000007,178.881,305.88900000000007S178.409,304.86000000000007,180.071,304.7510000000001S181.97,304.6480000000001,181.97,304.6480000000001L182.179,303.25200000000007L193.00900000000001,294.1140000000001L196.419,291.3640000000001L196.704,282.8680000000001L183.978,282.4830000000001L175.562,280.49900000000014L172.89700000000002,282.0500000000001L171.27800000000002,269.4520000000001L164.95100000000002,267.4670000000001L167.96800000000002,274.3090000000001L154.316,282.191Z"
    stroke-width="1"
    stroke-linejoin="round"
    style="-webkit-tap-highlight-color: rgba(0, 0, 0, 0); stroke-linejoin: round;"></path>
  <path
    fill="#cccccc"
    stroke="#222222"
    d="M160.228,338.07L159.735,338.704C159.735,338.704,160.86100000000002,341.66,161.424,343.91200000000003S167.547,354.04600000000005,167.547,354.04600000000005L181.059,367.48900000000003C181.059,367.48900000000003,183.311,368.545,183.804,367.91100000000006S183.522,365.94100000000003,183.804,365.02600000000007S186.549,362.4920000000001,187.252,361.6480000000001S186.9,359.8180000000001,187.322,359.3250000000001S188.37800000000001,358.0580000000001,187.111,357.2140000000001S187.18099999999998,356.15800000000013,187.392,355.80700000000013S187.603,353.90700000000015,187.392,353.41400000000016S186.266,351.5840000000002,185.773,350.8100000000002S187.884,349.33200000000016,187.884,349.33200000000016V345.24900000000014C187.884,345.24900000000014,190.91,343.35000000000014,193.022,341.52000000000015S198.37099999999998,338.0720000000002,198.37099999999998,338.0720000000002S198.582,335.4680000000002,198.86399999999998,333.9900000000002S203.087,327.37500000000017,204.21299999999997,326.0380000000002S213.08399999999997,317.7510000000002,213.08399999999997,317.7510000000002S198.65999999999997,298.7830000000002,196.42499999999998,296.5490000000002S194.18999999999997,294.3150000000002,194.18999999999997,294.3150000000002L193.35199999999998,293.82600000000025L182.17899999999997,303.25400000000025L181.96999999999997,304.65000000000026C181.96999999999997,304.65000000000026,178.89799999999997,304.5100000000003,178.82799999999997,305.4880000000003S180.92299999999997,309.9570000000003,179.66599999999997,310.37600000000026S176.87299999999996,310.2360000000003,176.87299999999996,310.2360000000003L174.77799999999996,305.9760000000003L171.21699999999996,306.95300000000026C171.21699999999996,306.95300000000026,175.12799999999996,316.30900000000025,174.77899999999997,317.9860000000003S168.42399999999998,322.0360000000003,167.86499999999998,323.50300000000027S166.67799999999997,325.24900000000025,166.189,325.3890000000003S163.67499999999998,326.5770000000003,162.488,328.8110000000003S159.14,336.0640000000003,159.14,336.0640000000003L160.228,338.07Z"
    stroke-width="1"
    stroke-linejoin="round"
    style="-webkit-tap-highlight-color: rgba(0, 0, 0, 0); stroke-linejoin: round;"></path>
  <path
    fill="#cccccc"
    stroke="#222222"
    d="M183.594,282.472L183.031,277.195C183.031,277.195,186.339,277.758,186.409,276.139S184.79,260.23400000000004,184.79,260.23400000000004L184.85999999999999,257.13700000000006L189.22299999999998,257.06700000000006L195.064,261.9220000000001L194.35999999999999,253.5480000000001L196.612,253.61800000000008L197.94899999999998,254.74400000000009L203.29799999999997,252.35000000000008L203.57999999999998,250.87200000000007L205.33899999999997,250.09800000000007L205.76099999999997,248.55000000000007L207.73199999999997,248.12700000000007C207.73199999999997,248.12700000000007,209.63199999999998,244.39600000000007,212.30699999999996,242.91700000000006S215.61499999999995,239.46800000000005,216.59999999999997,238.06100000000006S216.52999999999997,235.38700000000006,216.52999999999997,235.38700000000006L218.00799999999998,234.47200000000007L216.319,232.71200000000007L218.50099999999998,231.37500000000009L217.65599999999998,229.40400000000008L218.50099999999998,228.63100000000009L219.486,226.5200000000001L215.61499999999998,226.4490000000001L217.03699999999998,223.1410000000001C217.03699999999998,223.1410000000001,218.56999999999996,222.2950000000001,218.85199999999998,220.4660000000001S217.58499999999998,217.4410000000001,217.58499999999998,217.4410000000001L218.07799999999997,215.11800000000008L217.03699999999998,214.5550000000001L219.11999999999998,211.5460000000001L220.14899999999997,212.4200000000001C222.14999999999998,214.4210000000001,224.90099999999998,214.3710000000001,224.90099999999998,214.3710000000001S224.90099999999998,214.3710000000001,224.998,213.1200000000001S227.552,210.7690000000001,227.552,210.7690000000001L229.153,216.4950000000001H230.304V219.6270000000001C230.304,219.6270000000001,234.596,231.2900000000001,235.079,233.0340000000001S235.17000000000002,235.4740000000001,236.229,236.8120000000001S238.22000000000003,238.9180000000001,238.22000000000003,238.9180000000001S236.14400000000003,240.6220000000001,236.52300000000002,242.7110000000001S236.80800000000002,245.0690000000001,237.56700000000004,246.61900000000009S241.41100000000003,251.01500000000007,241.69600000000003,252.74800000000008S242.88400000000001,258.2780000000001,240.93700000000004,259.6550000000001S233.10500000000005,262.5030000000001,233.10500000000005,262.5030000000001L232.10900000000004,263.5480000000001C232.10900000000004,263.5480000000001,227.74300000000005,263.0720000000001,227.69500000000005,263.2150000000001S217.48900000000006,274.1810000000001,216.49300000000005,275.3670000000001S206.28900000000004,284.00500000000005,206.28900000000004,284.00500000000005L204.43800000000005,284.2900000000001C204.43800000000005,284.2900000000001,199.21700000000004,291.31500000000005,198.03000000000006,291.3620000000001S196.41600000000005,291.3620000000001,196.41600000000005,291.3620000000001L196.70100000000005,282.8660000000001L183.594,282.472Z"
    stroke-width="1"
    stroke-linejoin="round"
    style="-webkit-tap-highlight-color: rgba(0, 0, 0, 0); stroke-linejoin: round;"></path>
  <path
    fill="#cccccc"
    stroke="#222222"
    d="M230.306,216.496L233.107,213.222C233.107,213.222,233.608,214.973,234.208,215.023S235.358,214.72299999999998,235.358,214.72299999999998L235.008,212.32199999999997C235.008,212.32199999999997,235.008,212.32199999999997,236.208,212.12199999999999S241.31,214.773,241.31,214.773L245.663,213.123L246.96300000000002,214.92399999999998C246.96300000000002,214.92399999999998,247.264,215.07399999999998,248.96400000000003,215.87399999999997S255.56800000000004,216.47499999999997,255.56800000000004,216.47499999999997L258.76900000000006,213.82399999999996L262.72100000000006,213.57399999999996L264.9220000000001,212.30299999999997L270.5250000000001,212.27299999999997C270.5250000000001,212.27299999999997,270.5750000000001,212.62399999999997,271.2750000000001,210.92199999999997S275.2780000000001,208.01999999999998,275.2780000000001,208.01999999999998L277.8790000000001,204.91799999999998V203.86799999999997C277.8790000000001,203.86799999999997,278.5300000000001,203.61699999999996,279.9310000000001,202.76699999999997S282.5820000000001,203.51699999999997,282.5820000000001,203.51699999999997L284.8330000000001,203.86799999999997C284.8330000000001,203.86799999999997,284.6830000000001,203.61699999999996,284.7320000000001,202.86699999999996S285.23500000000007,201.41699999999997,285.83600000000007,201.41699999999997S287.73600000000005,200.21599999999998,288.18700000000007,199.41599999999997S287.63700000000006,197.66499999999996,287.63700000000006,197.66499999999996H289.38800000000003C289.38800000000003,197.66499999999996,291.23900000000003,196.31399999999996,293.08900000000006,193.86299999999997S296.89200000000005,194.81299999999996,296.89200000000005,194.81299999999996S296.89200000000005,194.81299999999996,299.1940000000001,192.11199999999997S305.0470000000001,193.21299999999997,305.0470000000001,193.21299999999997S306.84800000000007,191.56299999999996,308.2480000000001,191.46199999999996S312.3660000000001,192.44299999999996,312.3660000000001,192.44299999999996S311.4400000000001,200.75099999999995,311.2530000000001,204.18799999999996S310,217.375,309.5,218.5S289.75,235.625,289.75,235.625L270.166,252.75C270.166,252.75,254.32999999999998,236.312,252.861,235.944S246.47,237.708,244.487,238.515S239.41899999999998,239.617,239.41899999999998,239.617S236.18599999999998,238.221,235.67199999999997,235.283S230.30599999999998,219.343,230.30599999999998,219.343V216.496Z"
    stroke-width="1"
    stroke-linejoin="round"
    style="-webkit-tap-highlight-color: rgba(0, 0, 0, 0); stroke-linejoin: round;"></path>
  <path
    fill="#cccccc"
    stroke="#222222"
    d="M245.662,213.122L251.68,201.60500000000002C251.68,201.60500000000002,252.256,196.811,252.11700000000002,196.50300000000001S251.598,195.78300000000002,249.90800000000002,196.074S247.12800000000001,196.45600000000002,247.12800000000001,196.45600000000002L238.89800000000002,195.40500000000003L238.437,192.97000000000003L235.836,191.21200000000002V189.502L231.55800000000002,188.43300000000002L229.43600000000004,184.116L230.24300000000002,176.21400000000003C230.24300000000002,176.21400000000003,226.68900000000002,176.09300000000002,226.03300000000002,176.87400000000002S225.29600000000002,178.43300000000002,225.74300000000002,179.247S226.92300000000003,180.75500000000002,226.68900000000002,181.37400000000002S226.09500000000003,182.187,226.09500000000003,182.187L221.31500000000003,180.61800000000002L217.18000000000004,184.16000000000003C217.18000000000004,184.16000000000003,216.12100000000004,187.73200000000003,215.57100000000003,188.66100000000003S214.88000000000002,190.80100000000002,213.49500000000003,189.95400000000004S211.64800000000002,188.66300000000004,211.64800000000002,188.66300000000004L210.65600000000003,191.67200000000003L211.98700000000002,193.92400000000004L210.13700000000003,195.91900000000004L210.71200000000002,202.51800000000003L212.29600000000002,203.13400000000004C212.29600000000002,203.13400000000004,212.61200000000002,204.51100000000005,212.77100000000002,205.45900000000003S213.514,208.19800000000004,213.514,208.19800000000004S215.904,207.83500000000004,216.098,208.53100000000003S215.8,211.31900000000005,215.8,211.31900000000005L217.60600000000002,210.36800000000005C217.60600000000002,210.36800000000005,219.43000000000004,211.71600000000007,220.419,212.67000000000004S224.72400000000002,214.62700000000004,224.815,214.49900000000005S225.135,212.67000000000004,225.135,212.67000000000004S226.982,211.05100000000004,227.26899999999998,210.91000000000005S229.12699999999998,216.68600000000006,229.12699999999998,216.68600000000006L230.47099999999998,216.49500000000006L233.10899999999998,213.22100000000006C233.10899999999998,213.22100000000006,233.09599999999998,214.15600000000006,233.784,214.71800000000007S235.35999999999999,214.72200000000007,235.35999999999999,214.72200000000007L235.25099999999998,212.28100000000006C235.25099999999998,212.28100000000006,236.44899999999998,211.64400000000006,238.60099999999997,213.01000000000008S241.31299999999996,214.77200000000008,241.31299999999996,214.77200000000008L245.662,213.122Z"
    stroke-width="1"
    stroke-linejoin="round"
    style="-webkit-tap-highlight-color: rgba(0, 0, 0, 0); stroke-linejoin: round;"></path>
  <path
    fill="#cccccc"
    stroke="#222222"
    d="M173.512,174.684C173.512,174.684,182.07,162.20499999999998,182.994,161.398S184.813,163.68699999999998,184.813,163.68699999999998L186.65599999999998,162.95399999999998L185.62499999999997,160.18699999999998L205.98299999999998,159.52599999999998C205.98299999999998,159.52599999999998,207.50099999999998,169.283,207.66599999999997,169.873S206.63299999999998,172.237,206.63299999999998,172.237L219.778,172.914L222.19299999999998,171.82299999999998L223.20799999999997,173.57799999999997V177.02399999999997L221.98499999999996,180.04199999999997L217.03899999999996,184.27899999999997C217.03899999999996,184.27899999999997,216.69199999999995,186.33799999999997,215.41699999999994,188.98399999999998S211.49499999999995,188.49599999999998,211.49499999999995,188.49599999999998L210.61299999999994,191.82999999999998L211.98599999999993,193.92399999999998L209.92699999999994,196.14499999999998L210.71099999999993,202.51799999999997L212.4759999999999,203.20499999999998C212.4759999999999,203.20499999999998,212.76999999999992,204.57799999999997,212.76999999999992,205.45999999999998S213.59799999999993,208.41899999999998,213.59799999999993,208.41899999999998C212.34799999999993,209.51999999999998,210.44699999999992,210.21999999999997,210.44699999999992,210.21999999999997L208.74599999999992,212.67099999999996L207.74599999999992,208.81899999999996C207.74599999999992,208.81899999999996,204.54499999999993,207.66799999999995,202.59399999999994,207.16799999999995S198.09199999999993,206.01799999999994,198.09199999999993,206.01799999999994L196.04099999999994,205.11799999999994L195.44099999999995,203.21699999999993L193.43999999999994,204.11699999999993C193.43999999999994,204.11699999999993,193.73999999999995,200.16599999999994,193.93999999999994,199.26499999999993S195.39099999999993,198.06499999999994,194.79099999999994,196.56399999999994S194.64099999999993,193.86399999999995,195.04099999999994,193.51299999999995S193.99099999999993,192.06199999999995,194.29099999999994,191.41099999999994S195.69099999999995,189.80999999999995,195.69099999999995,189.80999999999995S195.99099999999996,183.85799999999995,195.14099999999993,182.90799999999996S187.88799999999992,179.90699999999995,187.88799999999992,179.90699999999995L176.583,177L172.895,175.694L173.512,174.684Z"
    stroke-width="1"
    stroke-linejoin="round"
    style="-webkit-tap-highlight-color: rgba(0, 0, 0, 0); stroke-linejoin: round;"></path>
  <path
    fill="#cccccc"
    stroke="#222222"
    d="M171.442,175.179L165.445,129.844C165.445,129.844,166.237,127.28,167.237,127.363S168.362,127.321,169.278,127.905S170.98499999999999,127.363,170.652,126.905S169.902,125.69800000000001,170.194,125.364S171.81799999999998,123.656,171.81799999999998,123.656S170.65099999999998,122.406,169.85999999999999,121.36500000000001S169.069,116.409,169.069,116.409S167.278,114.66000000000001,166.903,113.45200000000001S166.903,111.037,166.903,111.037S168.736,109.57900000000001,168.82,108.20400000000001S167.904,103.873,167.154,103.498S164.988,104.123,164.988,104.123S160.74,101.665,160.324,101.16600000000001S160.074,98.001,160.074,98.001S160.449,96.918,159.866,96.33500000000001S159.491,90.13000000000001,159.491,90.13000000000001S157.82600000000002,89.21300000000001,158.36700000000002,88.00600000000001S159.07500000000002,86.46500000000002,159.07500000000002,86.46500000000002S159.57500000000002,86.00700000000002,158.57500000000002,85.09000000000002S157.36700000000002,83.09100000000002,157.86700000000002,82.59100000000002S159.53300000000002,81.29900000000002,159.53300000000002,81.29900000000002L159.57500000000002,79.42500000000003C159.57500000000002,79.42500000000003,158.74200000000002,79.38300000000002,158.82500000000002,78.17600000000003S160.03300000000002,75.88400000000003,159.53300000000002,73.80200000000004S158.95100000000002,70.63700000000003,158.95100000000002,70.63700000000003L162.032,68.68000000000004C162.032,68.68000000000004,163.657,68.93000000000004,164.448,68.30500000000004S168.487,64.18200000000003,168.487,64.18200000000003L168.82,61.85000000000003L167.446,59.43400000000003L167.363,56.56000000000003L166.322,53.77000000000003L167.446,50.93800000000003L167.654,45.19100000000003C167.654,45.19100000000003,167.196,43.900000000000034,166.53,44.10800000000003S165.28,44.56600000000003,165.28,44.56600000000003L161.657,37.153000000000034C161.657,37.153000000000034,159.95000000000002,35.48600000000003,161.699,35.153000000000034S165.155,34.48700000000004,165.155,34.48700000000004L167.446,32.113000000000035L167.071,29.989000000000036L171.817,21.494000000000035C171.817,21.494000000000035,173.401,20.120000000000037,172.443,19.287000000000035S172.151,18.079000000000036,172.151,18.079000000000036L178.77200000000002,15.205000000000036C178.77200000000002,15.205000000000036,180.14700000000002,13.914000000000035,180.48000000000002,13.331000000000035S181.35500000000002,13.164000000000035,181.64600000000002,13.623000000000035S184.27,11.125000000000036,185.144,10.750000000000036S186.477,9.792000000000035,186.643,11.333000000000036S186.643,14.373000000000037,186.643,14.373000000000037L189.433,15.706000000000037C189.433,15.706000000000037,191.432,14.790000000000036,192.09799999999998,14.915000000000036S193.13899999999998,15.623000000000037,193.13899999999998,15.623000000000037L193.92999999999998,16.206000000000035L194.30499999999998,18.580000000000034H195.42899999999997V20.705000000000034C195.42899999999997,20.705000000000034,197.71999999999997,22.247000000000035,197.80299999999997,23.829000000000033S197.17799999999997,28.201000000000032,197.17799999999997,28.201000000000032L199.96799999999996,31.409000000000034C199.96799999999996,31.409000000000034,200.75999999999996,30.659000000000034,201.09299999999996,31.284000000000034S201.67599999999996,32.659000000000034,201.67599999999996,32.659000000000034L204.21599999999995,32.909000000000034L204.54899999999995,34.32500000000003L202.51499999999996,38.67300000000003L198.18299999999996,43.58700000000003L193.17299999999997,45.61700000000003L192.74299999999997,45.29500000000003L190.91699999999997,45.08000000000003C190.91699999999997,45.08000000000003,188.47599999999997,47.37100000000002,188.10399999999998,48.33900000000003S187.35199999999998,49.96100000000003,187.908,51.09100000000003S189.40099999999998,55.06900000000003,189.40099999999998,55.06900000000003V64.95000000000003L191.56199999999998,68.92400000000004C191.56199999999998,68.92400000000004,191.688,73.00500000000004,191.753,73.36500000000004S192.38899999999998,73.60900000000004,192.12199999999999,74.80600000000004S191.34699999999998,76.76400000000004,191.34699999999998,76.76400000000004L189.40099999999998,85.26600000000003L218.355,84.53500000000004C218.355,84.53500000000004,219.48299999999998,84.46100000000004,219.07399999999998,85.16900000000004S217.273,87.95100000000004,217.273,87.95100000000004S219.41899999999998,89.69400000000003,219.07,90.63200000000003S217.56199999999998,92.49900000000004,217.56199999999998,92.49900000000004L214.296,93.89600000000004L211.388,101.84100000000004L206.601,111.91000000000004L218.898,108.09800000000004C218.898,108.09800000000004,220.898,107.19100000000005,221.86599999999999,108.36200000000004S223.029,109.24500000000003,223.499,110.92600000000004S224.331,113.77300000000004,224.165,114.92900000000004S223.379,116.67000000000004,223.57,117.52500000000005S224.643,120.13600000000005,224.995,120.63300000000005S229.484,125.85700000000006,229.484,125.85700000000006L229.359,153.67000000000004L226.505,170.13400000000004L222.188,171.81700000000004C222.188,171.81700000000004,219.827,172.82600000000002,219.773,172.90800000000004S206.628,172.23100000000005,206.628,172.23100000000005S208.17299999999997,170.44100000000006,207.49599999999998,169.27600000000004S205.97799999999998,159.51900000000003,205.97799999999998,159.51900000000003L185.61999999999998,160.18000000000004L186.80799999999996,163.36800000000002L184.80799999999996,163.681C184.80799999999996,163.681,183.99499999999998,160.49300000000002,182.80799999999996,161.36800000000002S173.18299999999996,175.17200000000003,173.18299999999996,175.17200000000003L171.74499999999998,176.18000000000004L171.442,175.179Z"
    stroke-width="1"
    stroke-linejoin="round"
    style="-webkit-tap-highlight-color: rgba(0, 0, 0, 0); stroke-linejoin: round;"></path>
  <path
    fill="#cccccc"
    stroke="#222222"
    d="M274.601,108.571C274.601,108.571,275.685,111.866,276.723,112.769S279.882,115.20700000000001,279.882,115.20700000000001L280.469,117.058C280.469,117.058,281.193,117.87100000000001,282.456,118.141S285.074,118.99900000000001,285.661,118.412S287.784,117.19300000000001,288.144,118.412S288.685,120.12700000000001,288.685,120.12700000000001S293.064,120.263,293.335,122.24900000000001S293.154,124.822,293.154,124.822S294.238,127.07900000000001,294.689,127.486S295.502,128.163,296.314,127.351S299.204,125.997,300.197,127.125S302.228,130.33,302.228,130.33L302.59000000000003,135.793C302.59000000000003,135.793,303.809,135.793,303.98900000000003,136.199S304.35,137.644,304.35,137.644S306.69800000000004,138.817,306.562,139.991S307.058,145.363,307.058,145.363S309.723,148.479,311.574,151.368S315.366,158.90699999999998,315.366,158.90699999999998S315.33299999999997,164.916,314.916,166.916S314.165,180.499,313.832,182.416S312.361,192.441,312.361,192.441S309.643,191.359,308.243,191.46S305.042,193.211,305.042,193.211S301.491,189.40900000000002,299.18899999999996,192.11S296.88699999999994,194.811,296.88699999999994,194.811S294.93499999999995,191.41,293.08399999999995,193.86100000000002S289.3829999999999,197.663,289.3829999999999,197.663H287.63199999999995C287.63199999999995,197.663,288.63199999999995,198.614,288.18199999999996,199.41400000000002S286.43199999999996,201.41500000000002,285.83099999999996,201.41500000000002S284.777,202.115,284.727,202.865S284.828,203.866,284.828,203.866L282.577,203.51500000000001C282.577,203.51500000000001,281.326,201.91500000000002,279.926,202.76500000000001S277.87399999999997,203.866,277.87399999999997,203.866V204.91600000000003L275.27299999999997,208.01800000000003C275.27299999999997,208.01800000000003,271.96999999999997,209.21900000000002,271.27,210.92000000000002S270.52,212.27100000000002,270.52,212.27100000000002L264.917,212.30100000000002L262.71599999999995,213.572L258.76399999999995,213.822L255.56299999999996,216.473C255.56299999999996,216.473,250.65999999999997,216.67200000000003,248.95899999999995,215.872S246.95799999999994,214.92200000000003,246.95799999999994,214.92200000000003L245.65799999999993,213.12100000000004L251.67599999999993,201.60400000000004C251.67599999999993,201.60400000000004,252.40799999999993,196.77400000000003,252.04199999999994,196.26200000000003S248.74899999999994,196.11600000000004,247.57799999999995,196.55500000000004S238.79699999999994,195.38400000000004,238.79699999999994,195.38400000000004L238.43199999999993,192.97000000000006L235.72399999999993,191.14000000000004V189.60400000000004L231.55299999999994,188.43300000000005L229.43099999999993,184.11600000000004L230.23799999999991,176.21400000000006C230.23799999999991,176.21400000000006,225.77399999999992,176.21400000000006,225.55399999999992,177.82400000000007S226.65199999999993,180.60400000000007,226.65199999999993,180.60400000000007S227.48099999999994,182.43400000000008,225.52999999999992,181.99500000000006S221.30999999999992,180.82400000000007,221.30999999999992,180.82400000000007S223.28699999999992,178.77600000000007,223.2139999999999,177.45800000000006S223.50599999999991,173.28700000000006,222.9209999999999,172.84800000000004S222.1899999999999,171.82400000000004,222.1899999999999,171.82400000000004L226.50699999999992,170.14100000000005L229.36099999999993,153.67700000000005L229.48599999999993,125.86400000000005L230.61999999999992,120.29700000000005L231.5159999999999,113.17900000000006H237.4359999999999L244.5689999999999,111.76300000000006L247.8579999999999,110.93000000000006L255.67799999999988,110.08900000000007L264.3509999999999,109.35000000000007L274.601,108.571Z"
    stroke-width="1"
    stroke-linejoin="round"
    style="-webkit-tap-highlight-color: rgba(0, 0, 0, 0); stroke-linejoin: round;"></path>
  <path
    fill="#cccccc"
    stroke="#222222"
    d="M204.551,34.33L208.00799999999998,34.413L208.71599999999998,35.163L211.21499999999997,34.995999999999995C211.21499999999997,34.995999999999995,213.71399999999997,36.495,214.46299999999997,36.28699999999999S216.95099999999996,35.495999999999995,217.03999999999996,34.82999999999999S216.54599999999996,32.538999999999994,218.12799999999996,33.12199999999999S220.91799999999995,31.996999999999993,221.29299999999995,31.455999999999992S221.75099999999995,28.45799999999999,221.75099999999995,28.45799999999999S224.33299999999994,27.374999999999993,223.83399999999995,25.66699999999999S223.66799999999995,22.58599999999999,225.29199999999994,23.04399999999999S226.41599999999994,23.16899999999999,226.70799999999994,22.33599999999999S227.74899999999994,21.66999999999999,228.66499999999994,22.627999999999993S230.45599999999993,24.584999999999994,230.45599999999993,24.584999999999994V26.292999999999992C230.45599999999993,26.292999999999992,231.33099999999993,27.25099999999999,231.66399999999993,28.374999999999993S232.37099999999992,30.49899999999999,232.87099999999992,30.831999999999994S235.50299999999993,29.812999999999995,236.25299999999993,28.687999999999995S239,27.375,240.125,27S242.688,26.75,242.688,26.75L243.938,26.5V25C243.938,25,244.688,24.625,246.188,24.312S247.813,23.249000000000002,248.938,23.749000000000002S250.063,24.249000000000002,250.063,24.249000000000002L252.25099999999998,22.624000000000002C252.25099999999998,22.624000000000002,254.06399999999996,22.687,255.00099999999998,24.374000000000002S256.18899999999996,26.937,256.001,27.624000000000002S253.75099999999998,31.437,253.75099999999998,31.437V33.812C253.75099999999998,33.812,252.50099999999998,35.375,252.62599999999998,37.375S253.68899999999996,40.125,254.50099999999998,41.625S255.37599999999998,44.438,255.37599999999998,44.438S257.251,46.501000000000005,258.001,46.438S260.31399999999996,44.125,261.18899999999996,44.75S262.56399999999996,45.5,263.00199999999995,48.063S263.87699999999995,52.001000000000005,264.75199999999995,53.251000000000005S266.68999999999994,55.81400000000001,268.12699999999995,56.06400000000001S270.18999999999994,55.501000000000005,271.06499999999994,55.18900000000001S273.37799999999993,54.68900000000001,273.87799999999993,55.50200000000001S274.50299999999993,57.19000000000001,274.50299999999993,57.19000000000001S276.0659999999999,57.69000000000001,276.62799999999993,57.06500000000001S279.3159999999999,55.69000000000001,280.00299999999993,56.44000000000001S282.59399999999994,56.47700000000001,281.0589999999999,58.82500000000001S277.80799999999994,64.06200000000001,277.80799999999994,64.06200000000001S275.55199999999996,64.78500000000001,275.5059999999999,65.507S277.6729999999999,68.351,277.6729999999999,68.351L277.71699999999987,74.039C277.71699999999987,74.039,274.4659999999999,75.258,274.0149999999999,76.522S273.60899999999987,79.501,273.60899999999987,79.501S274.3319999999999,80.043,274.96299999999985,79.63600000000001S276.58799999999985,77.83000000000001,276.9039999999998,79.049S277.2199999999998,82.48,277.2199999999998,82.48S278.9819999999998,84.286,278.7549999999998,85.27900000000001S279.0699999999998,87.40100000000001,279.0699999999998,87.40100000000001S281.41799999999984,88.48400000000001,279.6569999999998,90.742S272.7509999999998,96.47500000000001,272.7509999999998,96.47500000000001L270.4479999999998,97.01700000000001L267.87499999999983,98.91300000000001L265.70799999999986,98.64200000000001C265.70799999999986,98.64200000000001,265.25799999999987,98.32600000000001,265.2119999999999,99.409S266.0689999999999,102.20800000000001,266.0689999999999,102.20800000000001L268.7779999999999,103.96800000000002L269.7249999999999,104.10400000000001L270.9439999999999,103.33600000000001C270.9439999999999,103.33600000000001,271.8029999999999,102.74900000000001,272.9769999999999,103.65200000000002S274.3759999999999,105.09600000000002,274.3759999999999,105.09600000000002L274.6019999999999,108.57200000000002C274.6019999999999,108.57200000000002,247.75799999999992,110.47400000000002,245.89699999999993,111.32000000000002S237.43999999999994,113.18000000000002,237.43999999999994,113.18000000000002H231.51999999999995C231.51999999999995,113.18000000000002,231.18199999999996,117.74700000000001,230.33599999999996,121.80600000000003S229.48999999999995,125.86500000000002,229.48999999999995,125.86500000000002S222.38599999999994,118.93000000000002,223.73899999999995,116.73200000000003S223.23199999999994,106.41500000000002,219.34199999999996,107.93700000000003S206.48799999999994,112.16600000000003,206.48799999999994,112.16600000000003L211.39299999999994,101.84900000000002L213.76099999999994,94.06900000000002C213.76099999999994,94.06900000000002,219.84999999999994,92.37700000000002,219.00399999999993,90.34800000000001S217.03999999999994,87.811,217.03999999999994,87.811S219.84999999999994,84.936,219.00399999999993,84.59800000000001S189.40499999999994,85.27500000000002,189.40499999999994,85.27500000000002L191.35099999999994,76.77300000000002C191.35099999999994,76.77300000000002,192.53299999999993,75.48400000000002,191.99599999999995,74.30300000000003S191.56599999999995,68.93200000000003,191.56599999999995,68.93200000000003L189.40499999999994,64.95800000000003V55.07700000000003L188.45099999999994,52.17700000000003C188.45099999999994,52.17700000000003,186.73299999999995,49.81400000000003,188.45099999999994,47.88100000000003S190.92099999999994,45.08900000000003,190.92099999999994,45.08900000000003L192.74699999999993,45.30400000000003L193.17699999999994,45.62600000000003L197.04399999999993,44.23000000000003L197.90299999999993,43.90800000000003L202.41399999999993,38.96800000000003L203.16599999999994,36.927000000000035L204.551,34.33Z"
    stroke-width="1"
    stroke-linejoin="round"
    style="-webkit-tap-highlight-color: rgba(0, 0, 0, 0); stroke-linejoin: round;"></path>
</svg>
