<svg height="420" version="1.1" width="540" xmlns="http://www.w3.org/2000/svg" xmlns:xlink="http://www.w3.org/1999/xlink" style="overflow: hidden; position: relative; top: -0.4px;">
  <desc style="-webkit-tap-highlight-color: rgba(0, 0, 0, 0);">Created with Raphaël 2.2.0</desc>
  <defs style="-webkit-tap-highlight-color: rgba(0, 0, 0, 0);"></defs>
  <path
    fill="#cccccc"
    stroke="#222222"
    d="M299.813,292.063C299.813,292.063,299.313,295.313,298.75,296.313S297.812,299.438,298,300.501S297.875,303.18899999999996,297.562,303.81399999999996S295.958,304.87699999999995,295.666,305.56399999999996S293.749,307.43899999999996,293.562,307.56399999999996S292.591,308.12899999999996,292.591,308.12899999999996S291.66,305.81399999999996,291.009,305.43199999999996S287.70500000000004,304.98499999999996,287.70500000000004,304.98499999999996L287.874,302.75199999999995C287.874,302.75199999999995,288.56600000000003,301.32599999999996,286.009,301.12499999999994S279.21500000000003,300.45899999999995,278.269,300.21999999999997S276.697,299.80899999999997,276.697,299.80899999999997S274.154,299.73299999999995,272.85,299.53099999999995S268.50800000000004,298.55899999999997,267.88100000000003,298.40599999999995S264,297.875,264,297.875S262.209,295.007,260.808,293.988S255.125,290.625,255.125,290.625S252.349,288.043,251.82,286.931S251.292,285.81899999999996,251.292,285.81899999999996S251.256,284.36899999999997,250.25300000000001,284.22399999999993S248.67800000000003,284.5469999999999,248.298,284.87499999999994S247.219,285.78499999999997,246.735,284.7049999999999S245.92600000000002,282.0349999999999,244.98700000000002,281.1169999999999S242.62300000000002,279.5779999999999,241.73100000000002,278.3119999999999S240.41600000000003,276.2079999999999,240.41600000000003,276.2079999999999L239.92200000000003,274.8119999999999C239.92200000000003,274.8119999999999,241.04400000000004,276.4609999999999,241.52600000000004,275.9759999999999S242.82300000000004,274.10699999999986,242.82300000000004,274.10699999999986L243.77800000000005,272.85399999999987C243.77800000000005,272.85399999999987,244.62900000000005,272.13299999999987,244.95400000000004,271.9779999999999S245.27900000000002,271.8229999999999,245.27900000000002,271.8229999999999S245.82800000000003,269.7099999999999,246.23900000000003,269.0879999999999S246.98600000000005,267.5739999999999,247.15200000000004,266.5369999999999S247.37600000000003,265.0619999999999,247.37600000000003,265.0619999999999L250.37600000000003,264.3739999999999L250.18800000000005,263.3109999999999L251.87600000000003,262.24799999999993L253.54800000000003,266.12999999999994L254.37600000000003,271.12299999999993L256.312,270.21199999999993C256.312,270.21199999999993,258.06100000000004,270.10999999999996,258.793,269.7459999999999S260.44100000000003,269.0979999999999,260.44100000000003,269.0979999999999L261.88000000000005,268.9909999999999L263.45200000000006,268.58799999999985L264.62500000000006,267.87399999999985C264.62500000000006,267.87399999999985,266.35900000000004,266.56899999999985,266.49300000000005,267.34499999999986S266.62500000000006,270.98899999999986,266.62500000000006,270.98899999999986L269.23300000000006,269.50599999999986C269.23300000000006,269.50599999999986,270.54900000000004,270.97499999999985,270.90100000000007,270.84499999999986S272.04600000000005,270.0769999999999,272.04600000000005,270.0769999999999L272.36400000000003,269.2499999999999L272.406,266.5949999999999C272.406,266.5949999999999,273.764,267.0279999999999,275.148,266.5349999999999S276.773,265.6289999999999,276.773,265.6289999999999S277.966,264.7909999999999,278.55800000000005,265.7159999999999S280.1580000000001,268.4649999999999,280.41400000000004,269.2909999999999S281.03900000000004,271.5359999999999,280.88500000000005,272.64499999999987S280.43700000000007,275.3199999999999,280.14500000000004,275.43899999999985S278.033,275.99399999999986,278.033,275.99399999999986S276.733,275.7019999999999,276.699,276.37499999999983S276.949,277.72799999999984,277.43600000000004,277.93899999999985S278.94100000000003,278.32899999999984,279.02400000000006,279.4379999999999S278.95900000000006,283.1679999999999,278.95900000000006,283.1679999999999S278.80800000000005,284.4369999999999,279.69900000000007,284.08499999999987S281.8950000000001,282.91899999999987,281.8950000000001,282.91899999999987L282.8890000000001,282.10199999999986C282.8890000000001,282.10199999999986,283.63100000000014,281.3339999999999,284.18600000000015,281.44899999999984S286.24900000000014,282.25099999999986,286.24900000000014,282.25099999999986S287.0170000000001,282.57299999999987,287.48200000000014,281.80599999999987S288.24800000000016,280.5909999999999,288.80800000000016,280.55399999999986S289.62800000000016,280.60199999999986,289.62800000000016,280.60199999999986S290.19000000000017,281.03099999999984,290.48900000000015,281.0599999999999S291.9470000000002,281.0979999999999,292.4180000000001,280.8499999999999S293.61900000000014,279.2549999999999,293.61900000000014,279.2549999999999S293.74300000000017,281.6229999999999,294.2450000000001,282.5749999999999S296.5440000000001,286.7769999999999,296.5440000000001,286.7769999999999L297.7600000000001,288.9709999999999L299.0560000000001,290.66199999999986L299.813,292.063Z"
    stroke-width="1"
    stroke-linejoin="round"
    style="-webkit-tap-highlight-color: rgba(0, 0, 0, 0); stroke-linejoin: round;"></path>
  <path
    fill="#cccccc"
    stroke="#222222"
    d="M294.545,275.974C294.545,274.001,292.51300000000003,272.719,292.59200000000004,269.957S293.26300000000003,260.883,293.26300000000003,260.883S295.33400000000006,258.31899999999996,295.63000000000005,256.642S294.34800000000007,248.85,294.34800000000007,248.85L292.5920000000001,246.114C292.5920000000001,246.114,285.5000000000001,246.56300000000002,283.6880000000001,246.751S278.8750000000001,248.626,278.8750000000001,248.626S275.6870000000001,244.81300000000002,274.8120000000001,245.376S272.3120000000001,249.439,272.3120000000001,249.439S267.24900000000014,250.814,266.62400000000014,252.25199999999998S265.37400000000014,256.19,265.37400000000014,256.19S266.62400000000014,256.565,266.62400000000014,258.128S266.56100000000015,261.066,266.56100000000015,261.066S265.06100000000015,261.25399999999996,264.87300000000016,262.066S265.43600000000015,267.066,264.62300000000016,267.87899999999996C264.62300000000016,267.87899999999996,266.60900000000015,266.27,266.62300000000016,267.86199999999997S266.62300000000016,270.99299999999994,266.62300000000016,270.99299999999994L269.32800000000015,269.4549999999999C269.32800000000015,269.4549999999999,270.70200000000017,271.37799999999993,271.25100000000015,270.71899999999994S272.40400000000017,270.44499999999994,272.40400000000017,268.52199999999993S272.40400000000017,266.59899999999993,272.40400000000017,266.59899999999993S274.6560000000002,266.9289999999999,275.70000000000016,266.32499999999993S277.7880000000002,264.62199999999996,278.55600000000015,265.72099999999995S280.97400000000016,269.62199999999996,280.9180000000002,271.9839999999999S280.1430000000002,275.4439999999999,280.1430000000002,275.4439999999999S278.6120000000002,276.1299999999999,277.6220000000002,275.9789999999999S276.2490000000002,276.81699999999995,277.0180000000002,277.6409999999999S279.1600000000002,277.8049999999999,279.1050000000002,280.5519999999999S278.3360000000002,284.8929999999999,280.5880000000002,283.7389999999999S283.2780000000002,281.2129999999999,284.4330000000002,281.4869999999999S286.2460000000002,282.2559999999999,286.2460000000002,282.2559999999999S287.2340000000002,282.5309999999999,287.6190000000002,281.5419999999999S289.4320000000002,280.2229999999999,289.8160000000002,280.77199999999993S292.5060000000002,281.1569999999999,293.0560000000002,280.4429999999999S294.0450000000002,277.75199999999995,294.0450000000002,277.75199999999995L294.545,275.974Z"
    stroke-width="1"
    stroke-linejoin="round"
    style="-webkit-tap-highlight-color: rgba(0, 0, 0, 0); stroke-linejoin: round;"></path>
  <path
    fill="#cccccc"
    stroke="#222222"
    d="M269.887,329.827L272.254,325.882C272.254,325.882,273.043,322.035,272.451,319.964S272.15500000000003,316.61,272.15500000000003,316.61S275.41,318.28700000000003,277.67800000000005,318.188S289.31700000000006,317.498,289.31700000000006,317.498S291.8810000000001,317.202,291.9800000000001,314.144S292.59100000000007,308.127,292.59100000000007,308.127S291.62500000000006,305.064,290.01500000000004,304.982S287.70500000000004,304.982,287.70500000000004,304.982S287.838,306.021,286.874,306.249S285.904,306.524,285.49300000000005,306.541S284.23100000000005,306.313,284.41900000000004,306.8S285.35800000000006,308.07,285.754,308.19100000000003S286.42,308.365,286.42,308.365S286.98,310.111,286.942,310.63800000000003S286.744,312.088,286.226,312.21700000000004S285.65,312.30000000000007,285.1,312.04200000000003S282.202,311.165,281.53700000000003,311.11800000000005S277.035,311.107,277.035,311.107S275.73100000000005,310.951,274.70700000000005,311.437S272.74600000000004,312.245,272.74600000000004,312.245S272.33200000000005,312.296,271.48400000000004,312.166S269.37600000000003,311.846,268.81700000000006,312.286S267.75700000000006,312.781,267.76400000000007,313.976S267.87500000000006,316.16,267.9390000000001,316.524S268.1530000000001,317.684,268.1530000000001,317.684S268.45900000000006,318.56300000000005,267.98800000000006,318.49100000000004S265.26900000000006,317.65700000000004,265.26900000000006,317.65700000000004L264.72100000000006,317.516C264.72100000000006,317.516,264.14400000000006,317.51300000000003,264.3040000000001,317.988S265.1890000000001,320.082,265.5770000000001,320.562S267.5440000000001,322.283,267.5440000000001,322.283L267.74700000000007,322.374L268.14900000000006,325.798L268.49700000000007,328.749L269.887,329.827Z"
    stroke-width="1"
    stroke-linejoin="round"
    style="-webkit-tap-highlight-color: rgba(0, 0, 0, 0); stroke-linejoin: round;"></path>
  <path
    fill="#cccccc"
    stroke="#222222"
    d="M269.887,329.827C269.887,329.827,268.999,332.293,268.605,335.646S272.452,339.79,272.452,339.79L272.057,347.285C272.057,347.285,272.353,349.35600000000005,273.635,350.54S275.01599999999996,353.992,274.621,356.853S271.859,361.193,270.577,361.48900000000003S270.281,364.25100000000003,270.281,364.25100000000003L271.859,367.309L270.873,368.788C270.873,368.788,269.68899999999996,368.887,268.9,368.788S267.02599999999995,366.421,266.631,364.547S263.96799999999996,359.221,262.094,357.939S261.995,354.783,262.587,353.106S259.036,350.542,258.247,349.161S257.951,346.892,257.458,345.61S254.99200000000002,345.413,254.104,346.79400000000004S251.04600000000002,346.79400000000004,251.04600000000002,346.79400000000004S251.04600000000002,346.79400000000004,250.651,343.78900000000004S249.566,342.65100000000007,248.48100000000002,343.34200000000004S245.22600000000003,343.83500000000004,244.81500000000003,343.34200000000004S239.80100000000002,340.28400000000005,239.40700000000004,339.89000000000004S238.02600000000004,337.03000000000003,235.36300000000003,334.66200000000003S230.72700000000003,333.18300000000005,228.65600000000003,333.28100000000006S227.76800000000003,329.7300000000001,227.76800000000003,329.7300000000001S225.40100000000004,329.82900000000006,222.73800000000003,328.54600000000005S218.69400000000002,328.84200000000004,218.10200000000003,328.05300000000005S214.94600000000003,327.26400000000007,214.05800000000002,327.75700000000006S209.42200000000003,328.9410000000001,208.73200000000003,329.4340000000001S204.59000000000003,332.0970000000001,204.59000000000003,332.0970000000001S199.36200000000002,329.6310000000001,198.27700000000004,328.4480000000001S196.50200000000004,324.8970000000001,197.58700000000005,324.3050000000001S202.02500000000003,320.75400000000013,202.02500000000003,320.75400000000013L202.71500000000003,315.4280000000001C202.71500000000003,315.4280000000001,202.12300000000002,314.34300000000013,200.94000000000003,312.0740000000001S203.40600000000003,306.3530000000001,203.40600000000003,306.3530000000001S202.91300000000004,302.99900000000014,203.40600000000003,300.7310000000001S207.35100000000003,299.4490000000001,207.35100000000003,299.4490000000001S207.84400000000002,296.09500000000014,209.02700000000002,292.54500000000013S214.353,292.6440000000001,216.52300000000002,292.54500000000013S217.70700000000002,291.16400000000016,217.70700000000002,291.16400000000016S215.241,286.72600000000017,215.241,284.95000000000016S216.918,282.68100000000015,218.39700000000002,281.5960000000002S219.122,279.43800000000016,219.122,279.43800000000016S219.372,278.81300000000016,219.56,277.43800000000016S221.123,275.98900000000015,221.123,275.98900000000015S221.43599999999998,274.25100000000015,223.31099999999998,273.25100000000015S224.31099999999998,274.12600000000015,224.31099999999998,274.12600000000015S225.74899999999997,273.68800000000016,227.62399999999997,274.93900000000014S230.12399999999997,275.68900000000014,230.12399999999997,275.68900000000014S232.68699999999995,273.81400000000014,234.68699999999995,272.50100000000015S238.12499999999994,272.50100000000015,239.91999999999996,274.81400000000014C239.91999999999996,274.81400000000014,240.62399999999997,277.8770000000001,242.99899999999997,279.43900000000014S245.62399999999997,282.0020000000001,246.24899999999997,283.6270000000001S247.34499999999997,285.8770000000001,248.29699999999997,284.8770000000001S251.24899999999997,283.8770000000001,251.24899999999997,285.5020000000001S255.12399999999997,290.6270000000001,255.12399999999997,290.6270000000001S259.24899999999997,292.5020000000001,261.24899999999997,294.3770000000001S263.99899999999997,297.8770000000001,263.99899999999997,297.8770000000001S265.37399999999997,297.6270000000001,269.12399999999997,298.7520000000001S276.49899999999997,299.7520000000001,276.49899999999997,299.7520000000001S279.87399999999997,300.7520000000001,282.12399999999997,300.8770000000001S288.12399999999997,300.7520000000001,287.87399999999997,302.7520000000001S287.99899999999997,305.6270000000001,286.87399999999997,306.2520000000001S283.99899999999997,305.90000000000015,284.49899999999997,307.07600000000014S286.49899999999997,308.3770000000001,286.49899999999997,308.3770000000001S287.49899999999997,311.1270000000001,286.49899999999997,312.0020000000001S285.87399999999997,312.0020000000001,283.24899999999997,311.3770000000001S275.62399999999997,311.1270000000001,274.87399999999997,311.3770000000001S272.99899999999997,312.5020000000001,271.87399999999997,312.2520000000001S267.49899999999997,311.2520000000001,267.74899999999997,314.8770000000001S269.12399999999997,319.0020000000001,266.62399999999997,318.1270000000001S263.74899999999997,317.0020000000001,264.87399999999997,319.3770000000001S267.74899999999997,322.3770000000001,267.74899999999997,322.3770000000001L268.49899999999997,328.7520000000001L269.887,329.827Z"
    stroke-width="1"
    stroke-linejoin="round"
    style="-webkit-tap-highlight-color: rgba(0, 0, 0, 0); stroke-linejoin: round;"></path>
  <path
    fill="#cccccc"
    stroke="#222222"
    d="M288.645,213.807V218.522L285.404,218.77599999999998C285.404,218.77599999999998,284.222,218.54999999999998,283.591,217.40099999999998S282.814,216.427,282.952,215.66899999999998S283.166,214.04299999999998,283.587,213.808S284.106,213.47799999999998,284.971,213.57899999999998S287.95,213.76999999999998,287.95,213.76999999999998L288.645,213.807Z"
    stroke-width="1"
    stroke-linejoin="round"
    style="-webkit-tap-highlight-color: rgba(0, 0, 0, 0); stroke-linejoin: round;"></path>
  <path
    fill="#cccccc"
    stroke="#222222"
    d="M266.625,252.25C267.25,250.812,272.313,249.437,272.313,249.437S273.938,245.937,274.813,245.37400000000002S278.876,248.62400000000002,278.876,248.62400000000002S281.876,246.93600000000004,283.68899999999996,246.74900000000002S292.59299999999996,246.11200000000002,292.59299999999996,246.11200000000002S291.33,240.52100000000002,290.65399999999994,238.26700000000002S290.8349999999999,234.389,290.8349999999999,234.389S292.05299999999994,229.339,292.1429999999999,228.347S290.7009999999999,223.793,289.7979999999999,221.81L288.91899999999987,218.498L285.16199999999986,218.79299999999998L285.64599999999984,219.14999999999998L287.62599999999986,221.30999999999997C287.62599999999986,221.30999999999997,286.05599999999987,222.47399999999996,285.72999999999985,222.85599999999997S284.5339999999998,224.81299999999996,284.2549999999998,225.00299999999996S284.0899999999998,225.32399999999996,283.32399999999984,225.05899999999997S280.2769999999998,222.70099999999996,280.2769999999998,222.70099999999996L280.3759999999998,219.87299999999996C280.3759999999998,219.87299999999996,279.6559999999998,218.53399999999996,278.9869999999998,218.29499999999996S275.57699999999977,218.03799999999995,274.7409999999998,218.33599999999996S273.1879999999998,219.06099999999995,273.1879999999998,219.06099999999995S272.4679999999998,219.75699999999995,272.1879999999998,219.19499999999994S271.4169999999998,216.89299999999994,271.3199999999998,216.71799999999993S269.77399999999983,214.75799999999992,268.92299999999983,214.55299999999994S265.68899999999985,214.43599999999995,265.68899999999985,214.43599999999995L263.81399999999985,215.95999999999995L260.64599999999984,216.58899999999994C260.64599999999984,216.58899999999994,259.94899999999984,219.24599999999995,259.82399999999984,220.33499999999995S259.53099999999984,223.82999999999996,259.50599999999986,224.01899999999995S259.10499999999985,224.86399999999995,259.50599999999986,225.61199999999994S261.69599999999986,228.90699999999993,261.68199999999985,229.28999999999994S262.2429999999998,235.59699999999992,262.2429999999998,235.59699999999992S263.5419999999998,238.5469999999999,263.89599999999984,239.80499999999992S264.41699999999986,242.03699999999992,263.93499999999983,243.19099999999992S264.28299999999984,245.6179999999999,264.1639999999998,246.54899999999992S264.3029999999998,248.88299999999992,264.3029999999998,248.88299999999992S264.6759999999998,248.37399999999994,264.82199999999983,248.76999999999992S264.8369999999998,250.03599999999992,265.11699999999985,250.70999999999992S265.65499999999986,251.70299999999992,265.65499999999986,251.70299999999992L266.625,252.25Z"
    stroke-width="1"
    stroke-linejoin="round"
    style="-webkit-tap-highlight-color: rgba(0, 0, 0, 0); stroke-linejoin: round;"></path>
  <path
    fill="#cccccc"
    stroke="#222222"
    d="M290.788,213.2C290.788,213.2,288.398,209.95399999999998,288.218,209.18699999999998S287.226,205.71499999999997,287.226,205.71499999999997L281.444,197.35899999999998C281.444,197.35899999999998,280.704,197.30999999999997,280.125,197.432S279.442,197.885,279.325,198.405S279.142,199.291,278.88,199.605S276.487,200.96599999999998,275.57099999999997,201.316S274.143,201.327,273.772,201.133S272.712,199.842,271.983,199.036S269.416,197.348,268.713,197.098S267.77000000000004,196.787,267.37300000000005,196.83200000000002S266.33900000000006,198.01200000000003,266.0570000000001,198.45900000000003S265.05000000000007,198.93100000000004,264.1770000000001,198.42600000000004L260.0440000000001,205.48600000000005C260.0440000000001,205.48600000000005,259.3170000000001,204.99400000000006,258.7390000000001,205.63400000000004S257.40100000000007,207.59800000000004,257.58600000000007,208.04900000000004S257.9820000000001,208.55500000000004,258.1430000000001,209.03600000000003S258.6410000000001,210.66900000000004,258.9240000000001,211.19100000000003S260.0700000000001,213.00800000000004,260.3140000000001,213.40100000000004S260.9270000000001,214.24300000000005,260.9120000000001,214.85800000000003S260.6450000000001,216.58900000000003,260.6450000000001,216.58900000000003L263.9380000000001,215.93600000000004L265.6880000000001,214.43600000000004L268.8130000000001,214.49900000000002C268.8130000000001,214.49900000000002,271.0630000000001,215.562,271.5010000000001,217.187S272.1260000000001,220,273.1890000000001,219.062S278.25200000000007,217.437,279.25200000000007,218.49900000000002S280.37700000000007,219.87400000000002,280.37700000000007,219.87400000000002L280.44000000000005,222.74900000000002C280.44000000000005,222.74900000000002,283.37800000000004,225.74900000000002,284.12800000000004,225.12400000000002S285.06600000000003,223.31100000000004,286.00300000000004,222.62400000000002S287.62800000000004,221.31100000000004,287.62800000000004,221.31100000000004L285.56500000000005,219.06100000000004C285.56500000000005,219.06100000000004,282.69000000000005,217.31100000000004,282.94000000000005,215.74800000000005S283.37800000000004,213.31000000000006,284.87800000000004,213.56000000000006S289.25300000000004,213.81000000000006,289.25300000000004,213.81000000000006L290.788,213.2Z"
    stroke-width="1"
    stroke-linejoin="round"
    style="-webkit-tap-highlight-color: rgba(0, 0, 0, 0); stroke-linejoin: round;"></path>
  <path
    fill="#cccccc"
    stroke="#222222"
    d="M336.761,208.025C336.761,208.025,337.40700000000004,208.382,336.98400000000004,208.919S335.19700000000006,209.40900000000002,335.55400000000003,210.125S337.36400000000003,212.494,337.36400000000003,212.494L337.879,212.739L339.24100000000004,210.841L338.61600000000004,210.148L338.682,208.517C338.682,208.517,339.219,207.803,338.236,207.311S336.761,208.025,336.761,208.025Z"
    stroke-width="1"
    stroke-linejoin="round"
    style="-webkit-tap-highlight-color: rgba(0, 0, 0, 0); stroke-linejoin: round;"></path>
  <path
    fill="#cccccc"
    stroke="#222222"
    d="M266.625,252.25C266,253.688,265.375,256.188,265.375,256.188S266.625,256.563,266.625,258.126S266.562,261.06399999999996,266.562,261.06399999999996S265.062,261.25199999999995,264.874,262.06399999999996S265.437,267.06399999999996,264.624,267.87699999999995S262.063,269,262.063,269S260.313,268.875,259.313,269.5S256.5,270.125,256.5,270.125L254.375,271.125L253.625,266.312L251.875,262.249L250.187,263.312L250.375,264.375L247.375,265.063C247.375,265.063,247,268.251,246.437,268.813S245.24900000000002,271.938,245.24900000000002,271.938S244.56100000000004,271.813,243.49900000000002,273.188S242.06100000000004,275.313,242.06100000000004,275.313S241.71500000000003,277.126,239.91900000000004,274.813S236.68600000000004,271.188,234.68600000000004,272.5S230.12300000000005,275.688,230.12300000000005,275.688S229.49800000000005,276.188,227.62300000000005,274.938S224.31000000000006,274.125,224.31000000000006,274.125S225.18500000000006,272.25,223.31000000000006,273.25S221.12200000000007,275.988,221.12200000000007,275.988S219.74700000000007,276.062,219.55900000000008,277.437S219.1210000000001,279.437,219.1210000000001,279.437L217.0580000000001,277.687L216.49500000000012,274.374L212.8450000000001,270.52000000000004C212.8450000000001,270.52000000000004,212.57400000000013,269.163,212.0980000000001,268.34700000000004S211.35100000000008,266.92,211.35100000000008,266.92S211.0800000000001,265.088,210.12900000000008,265.90200000000004S207.14100000000008,267.25900000000007,207.14100000000008,267.25900000000007L206.80200000000008,270.85800000000006C206.80200000000008,270.85800000000006,206.05500000000006,271.74100000000004,203.61100000000008,270.1790000000001S196.95800000000008,268.8900000000001,195.26000000000008,269.0930000000001S193.42700000000008,268.2770000000001,193.02000000000007,267.25900000000007S189.21800000000007,264.0680000000001,188.74200000000008,263.38900000000007S188.06300000000007,259.7900000000001,188.06300000000007,259.7900000000001S186.49600000000007,257.2100000000001,187.24600000000007,255.30900000000008S187.99600000000007,251.8460000000001,187.99600000000007,251.8460000000001S190.84900000000007,252.2530000000001,191.86700000000008,250.6920000000001S190.71200000000007,246.4150000000001,190.71200000000007,246.4150000000001S189.21800000000007,244.9210000000001,192.47800000000007,244.1740000000001S194.65100000000007,242.07000000000008,193.49700000000007,241.59400000000008S192.27400000000006,239.1500000000001,191.79900000000006,237.86000000000007S188.94700000000006,234.46400000000008,188.94700000000006,234.46400000000008L187.24700000000007,233.24800000000008L187.49700000000007,225.3100000000001L188.12700000000007,223.30200000000008L191.82300000000006,222.25900000000007L192.51800000000006,221.34600000000006C192.51800000000006,221.34600000000006,193.08300000000006,221.25900000000007,195.82300000000006,219.60700000000006S196.21400000000006,216.99900000000005,195.60600000000005,214.99900000000005S197.12700000000004,211.65000000000006,197.12700000000004,211.65000000000006S196.99700000000004,210.82400000000007,196.08400000000003,209.38900000000007S197.19600000000003,208.50200000000007,198.38200000000003,208.50200000000007S200.28300000000004,207.74900000000008,201.48700000000002,208.27600000000007S205.02400000000003,208.80300000000005,205.02400000000003,208.80300000000005L207.05700000000002,207.29700000000005H210.972L211.499,205.79100000000005C211.499,205.79100000000005,211.424,204.21100000000004,213.005,202.93100000000004S217.37099999999998,205.49100000000004,219.404,205.26500000000004S220.608,201.95300000000003,220.458,200.67300000000003S222.49099999999999,199.31900000000002,222.942,200.59800000000004S223.92100000000002,201.87800000000004,224.14700000000002,200.97500000000005S225.87800000000001,200.44800000000006,226.40500000000003,199.24400000000006C226.93100000000004,198.04000000000005,228.21200000000002,200.14700000000005,228.21200000000002,200.14700000000005S228.89000000000001,199.31900000000005,229.341,197.13500000000005S228.589,196.53300000000004,228.739,195.10300000000004S228.061,192.09100000000004,228.061,192.09100000000004S227.911,190.88700000000003,228.211,189.68200000000004S230.996,189.68200000000004,230.996,189.68200000000004S231.674,188.10100000000006,232.125,185.91800000000003S235.212,185.91800000000003,235.212,185.91800000000003L236.566,185.16500000000005C236.566,185.16500000000005,239.954,187.04700000000005,240.555,186.36900000000006S242.964,184.78800000000007,244.094,185.16500000000005S246.72899999999998,187.87500000000006,246.72899999999998,188.77800000000005S248.385,189.68100000000004,248.385,189.68100000000004L251.321,187.87400000000005C251.321,187.87400000000005,250.418,186.14300000000006,250.878,185.31400000000005S253.85899999999998,184.94200000000004,253.754,184.64300000000006L254.57999999999998,190.39400000000006C254.57999999999998,190.39400000000006,254.28599999999997,191.35200000000006,255.505,191.80600000000007S259.777,193.05600000000007,259.777,193.05600000000007S261.25399999999996,193.48500000000007,261.29499999999996,194.44500000000008S261.43899999999996,195.62900000000008,261.43899999999996,195.62900000000008L263.59999999999997,195.93200000000007C263.59999999999997,195.93200000000007,263.301,197.9170000000001,264.174,198.42200000000008L260.041,205.48200000000008C260.041,205.48200000000008,258.624,204.85700000000008,257.887,206.8420000000001S257.943,208.0890000000001,258.283,209.4500000000001S259.13300000000004,211.7190000000001,260.211,213.2500000000001S260.949,215.40500000000011,260.439,217.3330000000001S259.70300000000003,222.8320000000001,259.418,224.59000000000012S261.971,228.4460000000001,261.856,230.2610000000001S262.252,235.70400000000012,262.252,235.70400000000012S263.725,238.9930000000001,264.17900000000003,240.75100000000012S263.442,243.0760000000001,263.896,245.00400000000013S264.237,248.69000000000014,264.237,248.69000000000014S265.03000000000003,248.01000000000013,265.03000000000003,249.99500000000015S266.625,252.25,266.625,252.25Z"
    stroke-width="1"
    stroke-linejoin="round"
    style="-webkit-tap-highlight-color: rgba(0, 0, 0, 0); stroke-linejoin: round;"></path>
  <path
    fill="#cccccc"
    stroke="#222222"
    d="M240.485,133.151C240.485,133.151,238.942,134.87,239.074,135.579S239.24900000000002,137.71,239.161,138.51500000000001S238.855,139.893,238.855,139.893S238.68699999999998,139,238.093,139.157S234.867,140.663,234.867,140.663S234.481,141.04600000000002,234.474,140.663S234.289,139.108,234.289,139.108S233.908,138.132,233.07799999999997,138.145S231.21399999999997,138.64200000000002,231.21399999999997,138.64200000000002L230.91999999999996,134.90800000000002C230.91999999999996,134.90800000000002,231.65199999999996,132.853,231.90099999999995,132.585S232.61699999999996,131.81,233.00299999999996,132.335S234.71699999999996,134.485,235.01399999999995,134.704S236.01199999999994,135.275,236.23299999999995,134.485S236.63299999999995,132.73000000000002,236.54399999999995,132.00400000000002S236.40099999999995,130.669,236.40099999999995,130.669S237.73999999999995,129.449,237.92099999999996,129.312S238.24799999999996,129.25900000000001,237.97799999999995,128.872S238.26399999999995,128.47400000000002,238.26399999999995,128.47400000000002S239.76699999999994,128.573,239.96299999999997,128.95300000000003S240.37399999999997,131.35700000000003,240.37399999999997,131.35700000000003S240.12399999999997,132.04700000000003,240.24899999999997,132.39100000000002S240.485,133.151,240.485,133.151Z"
    stroke-width="1"
    stroke-linejoin="round"
    style="-webkit-tap-highlight-color: rgba(0, 0, 0, 0); stroke-linejoin: round;"></path>
  <path
    fill="#cccccc"
    stroke="#222222"
    d="M237.468,128.498L236.391,128.566V128.729L232.81699999999998,128.94400000000002L230.50099999999998,130.12500000000003L220,131.75L219.767,136.273C219.767,136.273,220.609,138.401,220.889,139.161S222.41500000000002,143.333,222.41500000000002,143.333S223.04500000000002,144.92,223.08800000000002,145.84S222.59400000000002,150.34300000000002,222.59400000000002,150.34300000000002L223.30300000000003,149.674L223.83900000000003,148.332L224.25800000000004,148.44C224.25800000000004,148.44,225.30300000000003,148.316,225.88200000000003,147.73499999999999S228.59800000000004,143.813,228.59800000000004,143.813L231.23300000000003,138.92899999999997L231,134.969C231,134.969,231.875,130.594,233.375,132.75S236.125,135.875,236.438,133.813S236.344,131.15699999999998,236.391,130.719S238.063,129.25,238.15699999999998,129.125S237.468,128.498,237.468,128.498Z"
    stroke-width="1"
    stroke-linejoin="round"
    style="-webkit-tap-highlight-color: rgba(0, 0, 0, 0); stroke-linejoin: round;"></path>
  <path
    fill="#cccccc"
    stroke="#222222"
    d="M261.125,162.188C260.25,160.375,257.5,154.625,257.187,153.375S253.49900000000002,148.812,253.312,146.625S252.12400000000002,143.375,250.312,141.125S247.99900000000002,137.781,247.37400000000002,136.719S245.514,132.052,245.514,132.052L243.64000000000001,132.35399999999998L241.786,132.59599999999998L241.434,132.85499999999996C241.434,132.85499999999996,240.932,133.37699999999995,240.48499999999999,133.15099999999995C240.48499999999999,133.15099999999995,238.74999999999997,134.93799999999996,239.12499999999997,135.93799999999996S238.90599999999998,140.49699999999996,238.81099999999998,141.25499999999997S238.32799999999997,143.81299999999996,238.36299999999997,144.78599999999997S238.62499999999997,146.66399999999996,238.88399999999996,147.11999999999998S240.16999999999996,148.94099999999997,240.62999999999997,149.16899999999998S241.92499999999995,149.73199999999997,242.75399999999996,149.19699999999997S244.84299999999996,147.765,244.84299999999996,147.765S246.03899999999996,146.69899999999998,246.16499999999996,148.14499999999998S246.37699999999995,153.003,246.37699999999995,153.003L249.18899999999996,153.18699999999998L249.13999999999996,154.45799999999997L249.75,157L251.346,157.092C251.346,157.092,251.923,157.06300000000002,252.129,157.57000000000002S252.129,158.42000000000002,252,158.62500000000003S251.214,159.61900000000003,251.214,159.61900000000003S250.856,159.91900000000004,251.334,160.24100000000004S254.774,162.79100000000005,254.774,162.79100000000005S255.734,162.50200000000007,255.763,163.06000000000006S255.82500000000002,164.61300000000006,255.82500000000002,164.61300000000006L257.534,164.30400000000006C257.534,164.30400000000006,258.418,163.95500000000007,258.521,163.79000000000005S259.096,163.07000000000005,259.337,162.93600000000004S261.125,162.188,261.125,162.188Z"
    stroke-width="1"
    stroke-linejoin="round"
    style="-webkit-tap-highlight-color: rgba(0, 0, 0, 0); stroke-linejoin: round;"></path>
  <path
    fill="#cccccc"
    stroke="#222222"
    d="M268.998,139.25C268.998,139.25,267.866,139.888,268.394,140.833S268.922,142.381,269.413,142.495S271.71500000000003,141.816,272.205,142.495S272.959,143.966,272.959,143.966L274.166,143.74C274.166,143.74,274.846,143.25,274.317,142.306S273.26,140.042,273.26,140.042L272.77,139.25L272.582,138.722C272.582,138.722,271.813,137.257,271.387,138.14000000000001S271.224,139.21200000000002,271.224,139.21200000000002L268.998,139.25Z"
    stroke-width="1"
    stroke-linejoin="round"
    style="-webkit-tap-highlight-color: rgba(0, 0, 0, 0); stroke-linejoin: round;"></path>
  <path
    fill="#cccccc"
    stroke="#222222"
    d="M262.375,163.625C263.25,165.438,265.438,169.688,265.438,169.688L265.688,172.188C265.688,172.188,269.001,175.12599999999998,270.188,177.50099999999998S274.376,184.81399999999996,275.438,186.75099999999998S277.438,190.68899999999996,278.751,192.62599999999998S281.76399999999995,197.24399999999997,281.76399999999995,197.24399999999997S279.78799999999995,197.19499999999996,279.4429999999999,197.88699999999997S279.78899999999993,199.22099999999998,278.20899999999995,200.05999999999997S274.4549999999999,202.37999999999997,273.27099999999996,200.60299999999998S270.60499999999996,197.736,269.12399999999997,197.24399999999997S267.544,196.40499999999997,266.70399999999995,197.49199999999996S266.15999999999997,198.92499999999995,264.82699999999994,198.77599999999995S263.4939999999999,195.96199999999996,263.4939999999999,195.96199999999996L261.3209999999999,195.61599999999996C261.3209999999999,195.61599999999996,261.6189999999999,193.63999999999996,260.43299999999994,193.24599999999995S254.90199999999993,192.11099999999996,254.70399999999992,191.12299999999996S253.86399999999992,184.94999999999996,253.86399999999992,184.94999999999996S253.2539999999999,183.04999999999995,252.46799999999993,182.47899999999996S251.39799999999994,180.09899999999996,250.73099999999994,178.95599999999996S246.37499999999994,173.26699999999997,246.37499999999994,173.26699999999997L243.63799999999995,170.43399999999997L241.63799999999995,168.00599999999997H239.90099999999995C239.90099999999995,168.00599999999997,237.49699999999996,165.64999999999998,236.78299999999996,163.26899999999998S235.28299999999996,158.38899999999998,233.75999999999996,158.34099999999998S231.90399999999997,159.24599999999998,230.49899999999997,158.67399999999998S225.23799999999997,153.295,225.23799999999997,153.295S223.42599999999996,151.61499999999998,223.09499999999997,150.748S223.79799999999997,149.59099999999998,223.67399999999998,148.227C223.67399999999998,148.227,225.31499999999997,149.758,228.06499999999997,144.786S231.43999999999997,138.527,231.43999999999997,138.527S233.87799999999996,137.314,234.31499999999997,139.189S234.00199999999998,141.189,235.31499999999997,140.37699999999998S238.49899999999997,138.37699999999998,238.81299999999996,139.62699999999998S238.18999999999997,144.12699999999998,238.37699999999995,145.62699999999998S240.25199999999995,149.75199999999998,241.93999999999994,149.50199999999998S245.93999999999994,145.939,246.18999999999994,148.314S246.31499999999994,153.00199999999998,246.31499999999994,153.00199999999998L249.18999999999994,153.18999999999997L249.12699999999995,154.81499999999997L249.75,157L251.188,157.063C251.188,157.063,252.813,157.25099999999998,252.00099999999998,158.62599999999998S250.438,159.68899999999996,251.813,160.56399999999996S254.87599999999998,162.87699999999995,254.87599999999998,162.87699999999995S255.87599999999998,162.56399999999996,255.81399999999996,163.37699999999995S255.68899999999996,164.62699999999995,255.68899999999996,164.62699999999995S258.31399999999996,164.43899999999996,258.62699999999995,163.62699999999995S261.12699999999995,162.18899999999996,261.12699999999995,162.18899999999996L262.375,163.625Z"
    stroke-width="1"
    stroke-linejoin="round"
    style="-webkit-tap-highlight-color: rgba(0, 0, 0, 0); stroke-linejoin: round;"></path>
  <path
    fill="#cccccc"
    stroke="#222222"
    d="M236.149,125.212L236.39000000000001,128.729L232.67700000000002,128.95200000000003C232.67700000000002,128.95200000000003,230.07800000000003,126.78200000000002,229.90500000000003,126.48400000000002S229.38000000000002,125.19900000000003,229.25000000000003,124.21400000000003S229.03500000000003,122.34300000000003,229.03500000000003,122.34300000000003L229.60000000000002,121.38600000000004L230.46300000000002,120.73000000000003L231.05500000000004,120.57500000000003C231.05500000000004,120.57500000000003,232.15100000000004,120.47800000000004,232.87000000000003,120.53700000000003S233.88000000000002,120.54800000000003,233.88000000000002,120.54800000000003S232.62100000000004,121.79700000000003,234.31300000000002,123.89900000000003S235.328,125.21300000000002,235.328,125.21300000000002H236.149Z"
    stroke-width="1"
    stroke-linejoin="round"
    style="-webkit-tap-highlight-color: rgba(0, 0, 0, 0); stroke-linejoin: round;"></path>
  <path
    fill="#cccccc"
    stroke="#222222"
    d="M245.515,132.191L241.98,132.57C241.98,132.57,240.559,133.637,240.36599999999999,132.983S240.309,131.859,240.36599999999999,131.469S240.319,129.24699999999999,239.96499999999997,128.953S239.61099999999996,128.659,239.61099999999996,128.659S241.36299999999997,126.10799999999999,241.39199999999997,125.51599999999999S241.42999999999998,122.99699999999999,241.42999999999998,122.99699999999999L244.43899999999996,129.426L245.51599999999996,131.969V132.191Z"
    stroke-width="1"
    stroke-linejoin="round"
    style="-webkit-tap-highlight-color: rgba(0, 0, 0, 0); stroke-linejoin: round;"></path>
  <path
    fill="#cccccc"
    stroke="#222222"
    d="M239.619,128.662C239.619,128.662,238.884,128.421,237.775,128.481S236.39000000000001,128.566,236.39000000000001,128.566L236.149,125.212C236.149,125.212,237.028,123.845,237.416,123.486S240.57399999999998,121.35000000000001,240.57399999999998,121.35000000000001L241.361,122.849C241.361,122.849,241.682,124.327,241.231,125.82900000000001S239.619,128.662,239.619,128.662Z"
    stroke-width="1"
    stroke-linejoin="round"
    style="-webkit-tap-highlight-color: rgba(0, 0, 0, 0); stroke-linejoin: round;"></path>
  <path
    fill="#cccccc"
    stroke="#222222"
    d="M236.149,125.212H235.328C235.328,125.212,233.346,123.379,233.466,122.2S233.578,120.971,233.699,120.794S233.881,120.547,233.881,120.547S235.283,121.066,236.032,120.689S237.12400000000002,119.76499999999999,237.12400000000002,119S237.12400000000002,117.109,237.12400000000002,117.109L240.57800000000003,119.875L240.87500000000003,121.161C240.87500000000003,121.161,240.53100000000003,121.39,238.71900000000002,122.46900000000001S236.149,125.212,236.149,125.212Z"
    stroke-width="1"
    stroke-linejoin="round"
    style="-webkit-tap-highlight-color: rgba(0, 0, 0, 0); stroke-linejoin: round;"></path>
  <path
    fill="#cccccc"
    stroke="#222222"
    d="M214.811,134.551C215.113,134.119,217.184,130.363,217.67700000000002,129.655S220.67200000000003,125.83500000000001,221.55,125.212S223.66400000000002,123.869,224.286,123.63900000000001S227.109,122.84700000000001,227.659,122.74600000000001S229.036,122.343,229.036,122.343S229.281,125.714,229.906,126.48400000000001S232.678,128.952,232.678,128.952L230.5,130.124L220,131.75L219.758,136.449C219.758,136.449,217.616,135.103,217.01600000000002,135.049S214.811,134.551,214.811,134.551Z"
    stroke-width="1"
    stroke-linejoin="round"
    style="-webkit-tap-highlight-color: rgba(0, 0, 0, 0); stroke-linejoin: round;"></path>
  <path
    fill="#cccccc"
    stroke="#222222"
    d="M228.802,157.319L230.125,158.464C230.125,158.464,230.359,159.01,231.48,158.847S233.23399999999998,158.101,233.887,158.35500000000002S235.364,159.3,235.783,160.37300000000002S237.04199999999997,164.08300000000003,237.357,164.63400000000001S238.418,166.31500000000003,238.801,166.774S239.898,168.005,239.898,168.005L241.716,168.103C241.716,168.103,244.124,170.93900000000002,244.714,171.549S246.165,173.05100000000002,246.165,173.05100000000002S248.975,176.51700000000002,249.589,177.347S250.867,179.113,251.13,179.805S251.78799999999998,181.757,252.127,182.11700000000002S253.18200000000002,183.38100000000003,253.18200000000002,183.38100000000003S253.651,184.34800000000004,253.75600000000003,184.64800000000002S251.34000000000003,184.491,250.88000000000002,185.31900000000002S251.32300000000004,187.87900000000002,251.32300000000004,187.87900000000002L248.38700000000003,189.686C248.38700000000003,189.686,246.73100000000002,189.686,246.73100000000002,188.78300000000002S245.22600000000003,185.54600000000002,244.09600000000003,185.17000000000002S241.15800000000004,185.69600000000003,240.55700000000004,186.37400000000002S236.56800000000004,185.17000000000002,236.56800000000004,185.17000000000002L235.21400000000003,185.923C235.21400000000003,185.923,232.57800000000003,183.74,232.12700000000004,185.923S230.99800000000005,189.687,230.99800000000005,189.687S228.51400000000004,188.482,228.21300000000005,189.687S228.06300000000005,192.096,228.06300000000005,192.096S228.89100000000005,193.677,228.74100000000004,195.108S229.79400000000004,194.957,229.34300000000005,197.14000000000001S228.21400000000006,200.15200000000002,228.21400000000006,200.15200000000002S226.93400000000005,198.04500000000002,226.40700000000007,199.24900000000002C225.88000000000008,200.45300000000003,224.37500000000006,200.07700000000003,224.14900000000006,200.98000000000002S223.39600000000007,201.882,222.94400000000005,200.603S220.30900000000005,199.398,220.46000000000004,200.678S221.43900000000005,205.04399999999998,219.40600000000003,205.27S214.58800000000002,201.656,213.00700000000003,202.936S211.50100000000003,205.79600000000002,211.50100000000003,205.79600000000002L210.97400000000005,207.30200000000002H207.05900000000005L205.02600000000007,208.80800000000002C205.02600000000007,208.80800000000002,202.69300000000007,208.80800000000002,201.48900000000006,208.28100000000003S199.56900000000007,208.50700000000003,198.38400000000007,208.50700000000003S195.17300000000006,207.95900000000003,196.08600000000007,209.39400000000003L193.95300000000006,210.65200000000004C193.95300000000006,210.65200000000004,192.60700000000006,210.90400000000005,193.21000000000006,209.71400000000006S193.85600000000005,208.29900000000006,193.85600000000005,208.29900000000006S194.45400000000006,207.98200000000006,192.20900000000006,207.06400000000005S190.55400000000006,205.01300000000006,190.55400000000006,205.01300000000006S191.02600000000007,204.15400000000005,192.25200000000007,204.00300000000007S193.97900000000007,203.84800000000007,194.19600000000005,203.57800000000006S194.71800000000005,202.49800000000005,195.21800000000005,201.94700000000006S196.93300000000005,199.30800000000005,197.20800000000006,198.51900000000006S198.16300000000007,195.49000000000007,198.16300000000007,195.49000000000007L198.73300000000006,195.38700000000006C198.73300000000006,195.38700000000006,199.30300000000005,194.62400000000005,199.48700000000005,194.08900000000006S200.10600000000005,192.59600000000006,200.10600000000005,192.59600000000006S200.75700000000006,190.87000000000006,202.12700000000004,192.04500000000007S203.49800000000005,193.22000000000008,203.49800000000005,193.22000000000008S203.81900000000005,193.6800000000001,204.83000000000004,193.2520000000001S206.81900000000005,192.2710000000001,207.78100000000003,193.0610000000001S209.14200000000002,194.2520000000001,209.14200000000002,194.2520000000001S210.038,193.2780000000001,210.10600000000002,193.1450000000001S210.22200000000004,192.3720000000001,210.98600000000002,192.5150000000001S211.747,192.6870000000001,211.86700000000002,192.0790000000001S212.65900000000002,189.0980000000001,213.03300000000002,188.4790000000001S215.39600000000002,186.6980000000001,215.39600000000002,186.6980000000001L215.763,182.0480000000001H217.354C217.354,182.0480000000001,217.882,181.9370000000001,218.079,181.47400000000007S219.05700000000002,178.54400000000007,218.82000000000002,176.58500000000006S218.62900000000002,175.62600000000006,218.62900000000002,175.62600000000006L216.98700000000002,174.09400000000005L216.74200000000002,171.64600000000004L218.41700000000003,169.16900000000004C218.41700000000003,169.16900000000004,218.08400000000003,168.50200000000004,221.16700000000003,168.83600000000004S224.25000000000003,169.16900000000004,224.25000000000003,169.16900000000004S225.41700000000003,168.25200000000004,225.66700000000003,167.25200000000004S226.41600000000003,165.66900000000004,225.00000000000003,165.58500000000004C223.58300000000003,165.50200000000004,223.08300000000003,164.30900000000003,223.08300000000003,164.07200000000003S219.50000000000003,161.91800000000003,218.83300000000003,161.50200000000004S217.41600000000003,161.08500000000004,217.41600000000003,161.08500000000004S214.91600000000003,159.83500000000004,217.99900000000002,159.58500000000004S223.49900000000002,159.25200000000004,224.99900000000002,158.83500000000004S228.802,157.319,228.802,157.319Z"
    stroke-width="1"
    stroke-linejoin="round"
    style="-webkit-tap-highlight-color: rgba(0, 0, 0, 0); stroke-linejoin: round;"></path>
  <path
    fill="#cccccc"
    stroke="#222222"
    d="M196.087,209.392C197,210.827,197.13,211.653,197.13,211.653S195,213.00199999999998,195.609,215.00199999999998S198.566,217.95799999999997,195.82600000000002,219.60999999999999S192.52100000000002,221.349,192.52100000000002,221.349L191.82600000000002,222.262L188.13000000000002,223.305L187.50000000000003,225.31300000000002L187.25000000000003,233.251L181.62500000000003,232.126C181.62500000000003,232.126,176.93800000000002,234.924,174.85100000000003,233.251S172.76400000000004,231.578,172.76400000000004,231.578L171.24300000000005,231.224C171.24300000000005,231.224,170.11100000000005,230.516,168.83800000000005,231.082S167.84700000000004,231.29399999999998,167.84700000000004,231.29399999999998S165.65400000000002,229.844,164.16800000000003,228.35799999999998S162.25800000000004,226.51799999999997,162.25800000000004,226.51799999999997L160.34800000000004,225.98799999999997C160.34800000000004,225.98799999999997,157.30600000000004,223.79499999999996,156.63400000000004,222.45099999999996S154.75900000000004,218.63199999999998,155.00700000000003,218.06499999999997S156.59900000000005,215.02299999999997,155.92700000000002,213.07799999999997S154.19400000000002,209.682,154.19400000000002,209.682L152.81400000000002,207.737L152.85000000000002,206.428C152.85000000000002,206.428,154.865,205.048,153.55700000000002,203.81S151.93,202.607,151.93,202.607L149.49,202.147L146.09400000000002,199L143.72400000000002,198.929C143.72400000000002,198.929,138.347,195.357,136.68400000000003,194.614S134.63300000000004,193.624,133.71300000000002,194.119S130.98900000000003,195.746,129.50400000000002,194.473S128.05300000000003,193.65900000000002,128.61900000000003,192.20800000000003S129.71600000000004,190.12100000000004,129.71600000000004,190.12100000000004L129.78700000000003,188.91800000000003L130.31800000000004,188.10500000000005L130.63600000000005,187.50200000000004C130.63600000000005,187.50200000000004,130.10500000000005,186.40700000000004,130.28200000000004,185.66400000000004S130.91900000000004,184.03700000000003,130.91900000000004,184.03700000000003S127.34600000000005,179.54400000000004,127.41700000000004,178.16500000000002S127.62900000000005,176.538,127.94800000000005,176.14900000000003S130.77800000000005,174.98100000000002,130.53000000000006,172.82300000000004S129.75200000000007,170.52300000000002,129.75200000000007,170.52300000000002L129.04400000000007,169.42700000000002L129.36200000000008,167.94100000000003C129.36200000000008,167.94100000000003,126.67400000000008,165.04100000000003,126.88600000000008,164.22700000000003S127.02800000000008,162.70600000000005,127.02800000000008,162.70600000000005L129.78700000000006,162.21000000000004C129.78700000000006,162.21000000000004,131.20200000000006,160.93700000000004,131.34300000000007,159.41600000000003S131.16600000000008,157.33,129.8220000000001,156.30400000000003S125.82500000000009,154.46400000000003,125.82500000000009,154.46400000000003S124.62200000000009,154.00500000000002,124.30400000000009,152.979S120.4840000000001,150.43200000000002,119.03300000000009,149.477S116.0970000000001,147.886,115.2130000000001,147.602S112.4190000000001,146.78900000000002,112.4190000000001,146.78900000000002S111.5350000000001,146.329,111.99500000000009,145.23200000000003S113.55200000000009,142.61500000000004,113.51600000000009,142.15500000000003S113.1270000000001,138.22800000000004,113.0910000000001,135.15100000000004S112.80800000000009,125.77700000000004,112.80800000000009,125.77700000000004S113.05700000000009,124.39700000000005,114.0110000000001,122.84100000000004S114.5420000000001,119.23300000000003,114.1880000000001,118.38400000000004S115.95700000000011,116.08500000000004,115.95700000000011,116.08500000000004L116.61500000000011,115.81500000000004L119.12200000000011,116.96500000000005C119.12200000000011,116.96500000000005,119.8110000000001,117.19400000000005,120.28700000000012,116.81200000000004S122.00600000000011,115.59400000000004,123.52000000000012,116.00600000000004S125.37400000000012,116.58900000000004,125.37400000000012,116.58900000000004L126.18600000000012,117.12700000000004C126.18600000000012,117.12700000000004,126.69400000000012,116.93900000000004,127.16500000000012,117.12000000000003S128.17300000000012,117.56500000000003,128.58400000000012,118.09700000000004S129.27000000000012,119.27500000000003,129.79200000000012,119.63600000000004S130.66700000000012,120.35200000000003,131.21700000000013,120.13200000000003S131.95000000000013,120.17000000000003,132.63900000000012,118.95900000000003S134.0710000000001,116.01200000000003,134.0710000000001,116.01200000000003S133.8910000000001,115.67900000000003,134.52400000000011,115.56600000000003S136.74000000000012,115.15400000000002,137.3390000000001,114.44800000000004S138.0390000000001,113.80500000000004,138.2840000000001,113.81200000000004S138.9790000000001,113.96200000000005,139.2260000000001,114.17800000000004S140.09000000000012,114.75800000000004,140.5530000000001,114.33100000000005S141.66200000000012,113.44700000000005,141.21500000000012,112.83900000000004S140.28700000000012,111.90800000000004,140.26300000000012,111.42300000000004S140.6370000000001,110.48900000000005,140.85900000000012,110.13200000000005S142.15800000000013,108.37200000000004,141.32600000000014,107.44800000000005S140.24100000000013,106.34400000000005,140.24100000000013,106.34400000000005S140.29900000000012,105.84900000000005,140.56900000000013,105.34700000000005S142.14900000000014,104.20500000000006,142.40200000000013,103.39800000000005S142.22800000000012,101.84100000000005,142.14000000000013,101.55100000000006S142.08700000000013,101.01900000000006,142.31100000000012,100.80700000000006S143.31100000000012,99.79700000000005,143.19300000000013,98.90100000000005S142.87400000000014,97.75000000000006,142.67100000000013,97.42700000000005S141.93900000000014,96.43400000000005,141.93900000000014,96.43400000000005L142.71400000000014,95.78300000000006L143.30400000000014,95.27600000000005L143.01300000000015,94.35800000000005C143.22200000000015,95.07900000000005,145.80500000000015,94.66900000000005,145.80500000000015,94.66900000000005S147.46200000000016,96.52200000000005,147.88500000000016,97.46500000000006S153.47600000000017,101.88600000000007,153.67200000000017,103.47900000000006S151.72100000000017,107.96600000000005,152.79400000000018,109.49400000000006S156.66200000000018,110.27500000000006,157.4100000000002,109.23400000000005S158.1900000000002,107.80300000000005,158.1900000000002,107.80300000000005L158.3530000000002,113.81700000000005C158.3530000000002,113.81700000000005,158.22400000000022,119.14900000000004,160.62900000000022,119.08400000000005S165.99200000000022,119.01900000000005,166.2530000000002,121.71700000000004S166.0910000000002,132.15300000000005,166.0910000000002,132.15300000000005L166.8390000000002,132.67400000000004C166.8390000000002,132.67400000000004,168.8220000000002,133.03100000000003,169.4400000000002,133.87700000000004S173.9590000000002,138.26600000000005,173.9590000000002,138.26600000000005S176.6900000000002,139.79400000000004,177.9910000000002,138.94900000000004S182.08700000000022,135.47000000000003,182.08700000000022,135.47000000000003L183.29000000000022,135.04800000000003L183.6800000000002,133.71500000000003L185.0130000000002,133.16200000000003C185.0130000000002,133.16200000000003,186.2160000000002,132.51200000000003,186.3460000000002,132.31700000000004S187.7430000000002,130.78900000000004,188.3940000000002,131.56900000000005S189.4020000000002,132.80400000000006,189.4020000000002,132.80400000000006L190.67100000000022,134.36500000000007L191.2230000000002,134.72200000000007H193.92100000000022C193.92100000000022,134.72200000000007,195.35100000000023,136.05500000000006,195.41700000000023,137.16000000000005S195.90500000000023,139.07700000000006,196.55500000000023,139.66300000000007S198.57100000000023,140.99600000000007,198.86300000000023,142.19900000000007S200.26100000000022,145.19000000000008,201.23700000000022,144.70200000000006S203.57700000000023,142.68700000000007,203.57700000000023,142.68700000000007S204.19600000000023,141.87400000000008,205.3660000000002,142.00400000000008S207.70700000000022,142.29700000000008,209.4940000000002,140.4110000000001S211.2820000000002,138.5250000000001,211.2820000000002,138.5250000000001S214.5130000000002,134.9830000000001,214.8160000000002,134.5510000000001C214.8160000000002,134.5510000000001,220.0890000000002,135.4560000000001,220.1930000000002,137.2730000000001S220.1930000000002,141.04800000000012,220.1930000000002,141.04800000000012L219.44000000000023,141.29300000000012L220.1930000000002,143.25100000000012C220.1930000000002,143.25100000000012,215.64700000000022,144.7200000000001,215.4010000000002,145.69900000000013S216.7470000000002,147.65700000000012,216.5020000000002,149.1250000000001S214.29000000000022,151.32800000000012,214.29000000000022,151.32800000000012H211.2820000000002L209.6510000000002,154.14300000000011C209.6510000000002,154.14300000000011,205.3650000000002,154.2660000000001,208.05800000000022,156.83500000000012S210.75000000000023,159.40500000000011,210.75000000000023,159.40500000000011S209.15900000000022,160.6290000000001,209.03700000000023,161.4860000000001S209.16400000000024,163.7170000000001,209.65100000000024,164.0700000000001S211.48400000000024,164.66800000000012,210.75000000000023,166.0140000000001S207.69000000000023,170.54100000000008,210.75000000000023,170.1750000000001S213.81000000000023,169.8080000000001,213.81000000000023,169.8080000000001L216.74800000000022,171.64300000000011L216.99300000000022,174.09100000000012L218.82900000000024,175.80400000000012C218.82900000000024,175.80400000000012,218.95100000000025,182.04500000000013,217.36000000000024,182.04500000000013S215.76900000000023,182.04500000000013,215.76900000000023,182.04500000000013L215.40200000000024,186.69500000000014C215.40200000000024,186.69500000000014,213.44400000000024,187.79600000000013,213.07700000000025,188.40800000000013S211.73100000000025,191.83500000000012,211.85300000000026,192.56900000000013S210.62900000000027,191.83600000000013,210.26200000000026,192.81400000000014S209.03800000000027,194.16000000000014,209.03800000000027,194.16000000000014S207.20200000000025,191.95800000000014,205.85600000000028,192.81400000000014S203.40800000000027,193.18100000000013,203.40800000000027,193.18100000000013S201.57300000000026,190.97700000000012,200.59400000000028,191.95600000000013S199.61500000000026,194.28200000000012,199.00300000000027,195.13900000000012S198.40500000000026,194.28200000000012,197.84700000000026,196.48500000000013S196.29200000000026,200.99300000000014,195.22400000000027,201.94200000000012S194.98700000000028,203.78000000000011,193.02900000000028,203.89900000000011S189.70700000000028,205.02600000000012,191.01200000000028,206.2720000000001S194.3940000000003,207.4000000000001,193.7410000000003,208.7050000000001S192.4950000000003,210.7220000000001,193.5040000000003,210.7220000000001S196.087,209.392,196.087,209.392Z"
    stroke-width="1"
    stroke-linejoin="round"
    style="-webkit-tap-highlight-color: rgba(0, 0, 0, 0); stroke-linejoin: round;"></path>
  <path
    fill="#cccccc"
    stroke="#222222"
    d="M220.188,137.273C220.292,139.09,220.188,141.048,220.188,141.048L219.435,141.293L220.188,143.251C220.188,143.251,215.642,144.72,215.396,145.699S216.742,147.657,216.49699999999999,149.125S214.285,151.328,214.285,151.328H211.277L209.646,154.143C209.646,154.143,205.35999999999999,154.266,208.053,156.835S210.745,159.405,210.745,159.405S209.154,160.629,209.032,161.486S209.15900000000002,163.71699999999998,209.64600000000002,164.07S211.479,164.668,210.745,166.01399999999998S207.685,170.54099999999997,210.745,170.17499999999998S213.805,169.808,213.805,169.808L216.743,171.643L218.785,168.826L223.624,169.09799999999998L224.25,169.166L225.15,168.239L225.75,166.95600000000002C225.75,166.95600000000002,226.109,165.79800000000003,225.646,165.698S223.86399999999998,165.483,223.32899999999998,164.64700000000002S222.79299999999998,163.811,222.79299999999998,163.811S218.944,161.338,218.18099999999998,161.21S217.41799999999998,161.08200000000002,217.41799999999998,161.08200000000002S215.71399999999997,160.00400000000002,216.85699999999997,159.79300000000003S221.42099999999996,159.33500000000004,222.12299999999996,159.26700000000002S223.54499999999996,159.33200000000002,225.00099999999998,158.83200000000002S228.69899999999998,157.36700000000002,228.69899999999998,157.36700000000002S222.688,151.15500000000003,222.59499999999997,150.34300000000002S223.78299999999996,147.15500000000003,222.68899999999996,144.09300000000002S220.188,137.273,220.188,137.273Z"
    stroke-width="1"
    stroke-linejoin="round"
    style="-webkit-tap-highlight-color: rgba(0, 0, 0, 0); stroke-linejoin: round;"></path>
  <path
    fill="#cccccc"
    stroke="#222222"
    d="M118.559,47.126L124.48,41.542L130.06300000000002,35.135000000000005L131.97400000000002,33.036L136.18800000000002,35.172000000000004V40.114000000000004C136.18800000000002,40.114000000000004,132.193,40.876000000000005,131.829,41.32300000000001S130.389,43.37800000000001,131.01500000000001,43.852000000000004C131.01500000000001,43.852000000000004,129.376,45.62500000000001,127.87600000000002,45.708000000000006S125.91800000000002,46.374,126.66800000000002,47.791000000000004S127.52700000000002,50.791000000000004,126.48300000000002,51.083000000000006S125.11000000000001,51.39000000000001,125.11000000000001,51.39000000000001S124.34500000000001,50.72800000000001,124.19400000000002,50.54100000000001S123.76400000000001,49.77600000000001,123.20300000000002,49.78600000000001S120.38400000000001,49.41700000000001,119.89000000000001,49.28800000000001S118.65800000000002,48.77700000000001,118.55900000000001,48.45400000000001S118.559,47.126,118.559,47.126Z"
    stroke-width="1"
    stroke-linejoin="round"
    style="-webkit-tap-highlight-color: rgba(0, 0, 0, 0); stroke-linejoin: round;"></path>
  <path
    fill="#cccccc"
    stroke="#222222"
    d="M162.563,19.002C162.563,19.002,159.878,17.886,160.15699999999998,16.386S161.58599999999998,14.293999999999999,162.17899999999997,13.91S163.08599999999998,9.655000000000001,163.08599999999998,9.655000000000001H164.82999999999998C164.82999999999998,9.655000000000001,164.58599999999998,13.490000000000002,164.34199999999998,14.328000000000001S162.563,19.002,162.563,19.002Z"
    stroke-width="1"
    stroke-linejoin="round"
    style="-webkit-tap-highlight-color: rgba(0, 0, 0, 0); stroke-linejoin: round;"></path>
  <path
    fill="#cccccc"
    stroke="#222222"
    d="M164.83,18.584L166.71300000000002,16.212V12.725L167.09600000000003,11.504999999999999L168.56100000000004,11.748999999999999L168.77000000000004,13.04C168.77000000000004,13.04,170.75800000000004,14.854,171.35100000000003,16.073999999999998S173.05900000000003,18.758999999999997,171.87400000000002,19.491S169.81600000000003,19.84,169.81600000000003,19.84S169.57200000000003,18.236,168.77000000000004,18.863S167.96800000000005,19.491,167.96800000000005,19.491V21.688H166.25900000000004L166.18900000000005,19.7L164.83,18.584Z"
    stroke-width="1"
    stroke-linejoin="round"
    style="-webkit-tap-highlight-color: rgba(0, 0, 0, 0); stroke-linejoin: round;"></path>
  <path
    fill="#cccccc"
    stroke="#222222"
    d="M124.042,50.354C123.229,49.229,120.5,49.646,119.25,49.104S118.559,47.126,118.559,47.126S113.125,52.373,112.562,53.384S110.014,57.093,107.691,58.705S105.367,61.291,105.517,61.704S106.90299999999999,64.702,106.753,65.413S107.053,68.86099999999999,107.315,69.685S109.826,73.058,109.826,73.058L109.85799999999999,72.935L110.835,69.543L111.625,69.614C111.625,69.614,113.388,69.717,114.159,69.54100000000001S114.679,68.79100000000001,114.81,68.07600000000001S113.943,65.69300000000001,114.179,65.191S115.258,63.93,115.507,63.576S118.513,61.008,118.513,61.008S118.751,60.778000000000006,118.649,60.222S118.672,59.49,118.976,58.851S121.479,58.376,121.479,58.376L121.92999999999999,58.690999999999995C121.92999999999999,58.690999999999995,122.47999999999999,58.553,122.59299999999999,58.336999999999996S122.68499999999999,57.925999999999995,122.69999999999999,57.70099999999999S122.496,54.400999999999996,122.496,54.400999999999996L122.678,54.205999999999996C122.678,54.205999999999996,124.74199999999999,52.812999999999995,124.747,52.81099999999999C124.747,52.81099999999999,126.019,52.96099999999999,126.844,53.92999999999999S128.97,56.72099999999999,128.97,56.72099999999999L129.917,57.71799999999999L132.602,54.98999999999999C132.602,54.98999999999999,133.088,54.48899999999999,133.17000000000002,53.77999999999999S133.264,52.65399999999999,133.483,52.34899999999999S134.77,51.60099999999999,134.77,51.60099999999999L135.47500000000002,51.09899999999999C135.47500000000002,51.09899999999999,136.39100000000002,50.93799999999999,136.562,50.91299999999999S137.04000000000002,50.78699999999999,137.04000000000002,50.78699999999999L138.604,49.51199999999999C138.604,49.51199999999999,138.901,49.602999999999994,138.937,48.934999999999995S138.67000000000002,47.510999999999996,138.67000000000002,47.510999999999996L136.95800000000003,46.544999999999995L132.03300000000002,44.50299999999999C132.03300000000002,44.50299999999999,131.311,44.04299999999999,130.99900000000002,44.10699999999999S130.37400000000002,44.35699999999999,129.98300000000003,44.63799999999999S128.82800000000003,45.54799999999999,128.35100000000003,45.62699999999999S126.49900000000002,45.694999999999986,126.41200000000003,46.27599999999999S126.87400000000004,48.51299999999999,126.87400000000004,48.51299999999999S127.41000000000004,49.54599999999999,127.24400000000004,49.91999999999999S126.78100000000005,51.05999999999999,126.57700000000004,51.13799999999999S125.04600000000003,51.38799999999999,125.04600000000003,51.38799999999999L124.042,50.354Z"
    stroke-width="1"
    stroke-linejoin="round"
    style="-webkit-tap-highlight-color: rgba(0, 0, 0, 0); stroke-linejoin: round;"></path>
  <path
    fill="#cccccc"
    stroke="#222222"
    d="M139.253,51.648C140.95,51.867000000000004,142.154,53.291000000000004,142.154,53.291000000000004L148.341,53.182C148.341,53.182,148.45000000000002,53.839,148.615,54.77S151.46200000000002,55.865,151.46200000000002,55.865L155.40400000000002,53.073C155.40400000000002,53.073,153.82100000000003,51.174,152.54700000000003,49.413S150.11,45.589,149.211,44.352999999999994S142.12900000000002,39.78099999999999,140.705,38.956999999999994S136.883,35.172,136.883,35.172L136.18800000000002,34.748V40.294999999999995C136.18800000000002,40.294999999999995,132.27700000000002,40.721999999999994,131.70800000000003,41.43299999999999S130.42800000000003,43.56699999999999,131.28100000000003,44.135999999999996S138.39300000000003,46.839,138.74900000000002,47.620999999999995S139.17600000000002,49.184999999999995,138.67800000000003,49.46999999999999S136.90000000000003,50.91599999999999,136.90000000000003,50.91599999999999L139.253,51.648Z"
    stroke-width="1"
    stroke-linejoin="round"
    style="-webkit-tap-highlight-color: rgba(0, 0, 0, 0); stroke-linejoin: round;"></path>
  <path
    fill="#cccccc"
    stroke="#222222"
    d="M129.014,58.985L130.43300000000002,61.942C130.43300000000002,61.942,134.21500000000003,68.676,134.37900000000002,69.771S134.65300000000002,71.304,134.65300000000002,71.304L135.25600000000003,71.741C135.25600000000003,71.741,138.04800000000003,72.617,139.36200000000002,73.876S143.30400000000003,76.39500000000001,143.30400000000003,76.39500000000001L145.93200000000002,76.83300000000001C145.93200000000002,76.83300000000001,147.246,78.69500000000001,147.13700000000003,80.44700000000002S146.80800000000002,82.74600000000002,146.80800000000002,82.74600000000002S145.54900000000004,83.67700000000002,145.877,84.71700000000003S146.80800000000002,85.48300000000003,147.136,86.63300000000002S146.863,87.40000000000002,145.439,89.09700000000002S143.358,91.94400000000002,143.03,92.98400000000002S143.304,95.28400000000002,143.304,95.28400000000002L141.935,96.43300000000002C141.935,96.43300000000002,143.304,97.85700000000003,143.194,99.28000000000002S141.771,100.75800000000001,142.099,101.47000000000001S143.03,103.38600000000001,141.49699999999999,104.48100000000001S140.238,106.343,140.238,106.343S141.771,107.274,141.552,108.58800000000001S140.019,110.88700000000001,140.293,111.545S141.552,112.804,141.333,113.571S139.8,114.666,139.472,114.392S138.323,113.187,137.33700000000002,114.447S134.16100000000003,115.304,134.10700000000003,115.834S133.01200000000003,118.554,132.30000000000004,119.43S130.32800000000003,120.68900000000001,129.12400000000005,118.82700000000001S126.82400000000005,116.96500000000002,126.49600000000005,117.18400000000001S125.73000000000005,116.36300000000001,123.70400000000005,116.03500000000001S120.63800000000005,116.364,120.14500000000005,116.96600000000001S116.71600000000005,115.834,116.71600000000005,115.834S118.25800000000005,115.59400000000001,115.40900000000005,113.38300000000001S107.91500000000005,107.94900000000001,107.91500000000005,107.94900000000001S105.62900000000005,106.412,107.39000000000004,104.87600000000002S110.01300000000005,103.41400000000002,109.90100000000004,101.35300000000002S107.54100000000004,95.95700000000002,107.35300000000004,95.62000000000002S107.54100000000004,91.64700000000002,107.54100000000004,91.64700000000002S105.66700000000004,89.43700000000003,105.74200000000003,89.06200000000003S106.41700000000003,87.90100000000002,107.57800000000003,87.48800000000003S109.33800000000004,86.28700000000003,109.45100000000004,85.68800000000003S110.05100000000003,83.89000000000003,110.27600000000004,83.59000000000003S109.30100000000004,80.29200000000003,109.03900000000004,79.65500000000003S108.36400000000005,78.30500000000004,108.55200000000005,76.69400000000003S109.82600000000005,73.05900000000003,109.82600000000005,73.05900000000003S110.70900000000005,69.67000000000003,110.83500000000005,69.54500000000003S114.15800000000004,70.26600000000003,114.56500000000005,69.13700000000003S114.87800000000006,67.47600000000003,114.28300000000006,66.19100000000003S114.81600000000006,64.68600000000004,115.41100000000006,63.714000000000034S118.76500000000006,60.830000000000034,118.76500000000006,60.830000000000034S118.01300000000006,58.51000000000003,120.05000000000005,58.41600000000003S121.46100000000006,58.41600000000003,121.46100000000006,58.41600000000003S122.90300000000005,59.732000000000035,122.68400000000005,56.97400000000003S122.49600000000005,54.40400000000003,122.49600000000005,54.40400000000003S124.31400000000005,52.30400000000003,125.63000000000005,52.93100000000003S128.97000000000006,56.72400000000003,128.97000000000006,56.72400000000003L129.91700000000006,57.72100000000003L129.014,58.985Z"
    stroke-width="1"
    stroke-linejoin="round"
    style="-webkit-tap-highlight-color: rgba(0, 0, 0, 0); stroke-linejoin: round;"></path>
  <path
    fill="#cccccc"
    stroke="#222222"
    d="M212.079,136.994C212.079,136.994,209.118,134.423,209.729,133.159S211.639,129.808,211.912,128.063S212.976,124.91599999999998,213.55700000000002,124.38699999999999S216.495,122.39599999999999,217.138,122.09899999999999S220.303,120.731,220.303,120.731S220.992,120.434,221.68099999999998,119.79799999999999S224.28599999999997,117.31299999999999,224.28599999999997,117.31299999999999L228.67199999999997,117.20499999999998L230.72899999999996,120.57999999999998C230.72899999999996,120.57999999999998,229.78199999999995,121.07899999999998,229.48499999999996,121.53199999999998S229.07899999999995,122.23599999999998,229.07899999999995,122.23599999999998L228.98499999999996,122.50099999999998C228.98499999999996,122.50099999999998,227.79699999999997,122.64199999999998,227.23499999999996,122.81399999999998S223.17199999999997,124.06399999999998,222.75099999999995,124.45499999999998S220.81299999999996,125.31399999999998,219.00099999999995,127.68899999999998S215.77299999999994,133.20199999999997,215.17899999999995,134.01899999999998S212.67899999999995,136.99599999999998,212.67899999999995,136.99599999999998L212.42599999999996,137.27599999999998L212.079,136.994Z"
    stroke-width="1"
    stroke-linejoin="round"
    style="-webkit-tap-highlight-color: rgba(0, 0, 0, 0); stroke-linejoin: round;"></path>
  <path
    fill="#cccccc"
    stroke="#222222"
    d="M230.729,120.579L228.67200000000003,117.204L230.729,114.291C230.729,114.291,232.08,115.387,233.204,115.67999999999999S236.609,116.45599999999999,236.609,116.45599999999999L237.08200000000002,117.073C237.08200000000002,117.073,237.17900000000003,118.26499999999999,237.08200000000002,119.062S236.907,120.05799999999999,236.52400000000003,120.37299999999999S235.17200000000003,120.70499999999998,234.17200000000003,120.579S231.84000000000003,120.481,231.51400000000004,120.553S230.82700000000003,120.73,230.82700000000003,120.73L230.729,120.579Z"
    stroke-width="1"
    stroke-linejoin="round"
    style="-webkit-tap-highlight-color: rgba(0, 0, 0, 0); stroke-linejoin: round;"></path>
  <path
    fill="#cccccc"
    stroke="#222222"
    d="M236.717,116.476C236.717,116.476,232.732,115.756,231.76000000000002,115.128S230.729,114.292,230.729,114.292S227.644,110.136,227.77,109.53S228.579,106.431,228.625,106.156S228.758,106.01100000000001,228.758,106.01100000000001L232.571,111.69800000000001L235.519,115.07100000000001L236.717,116.476Z"
    stroke-width="1"
    stroke-linejoin="round"
    style="-webkit-tap-highlight-color: rgba(0, 0, 0, 0); stroke-linejoin: round;"></path>
  <path
    fill="#cccccc"
    stroke="#222222"
    d="M228.672,105.881C226.932,103.271,220.934,98.146,220.934,98.146L221.355,98.95400000000001C221.355,98.95400000000001,221.214,99.659,221.411,101.096S221.974,102.28,222.538,103.295S224.28500000000003,108.254,224.28500000000003,108.254L224.03100000000003,109.15700000000001C224.03100000000003,109.15700000000001,223.52400000000003,109.74900000000001,222.53800000000004,110.989S221.38200000000003,111.412,220.73400000000004,110.059S216.76000000000005,108.566,215.97100000000003,108.904S212.15500000000003,109.256,212.15500000000003,109.256L212.34800000000004,111.82300000000001L211.89100000000005,111.94600000000001L209.69300000000004,112.68400000000001C209.69300000000004,112.68400000000001,209.69300000000004,110.55700000000002,209.44700000000003,109.397S209.25400000000002,107.411,208.81400000000002,106.51400000000001S208.28700000000003,105.17800000000001,208.16400000000002,104.03500000000001S207.443,102.47000000000001,206.687,101.96000000000001S203.61100000000002,102.50500000000001,203.61100000000002,102.50500000000001L202.09900000000002,101.76700000000001C202.09900000000002,101.76700000000001,200.04200000000003,99.781,199.269,99.218S197.979,99.513,197.979,99.513L198.044,100.61800000000001V103.86900000000001C198.044,103.86900000000001,198.857,107.51000000000002,199.312,109.00600000000001S199.149,112.09500000000001,199.149,112.09500000000001S198.27100000000002,112.94000000000001,198.044,113.915S199.247,116.51700000000001,199.247,116.51700000000001S199.34400000000002,118.85700000000001,200.02700000000002,120.15800000000002S200.352,121.39400000000002,200.352,121.39400000000002L198.20600000000002,122.95400000000002C198.20600000000002,122.95400000000002,198.07600000000002,123.47400000000002,197.84900000000002,124.22200000000002S201.29500000000002,126.56300000000002,201.29500000000002,126.56300000000002L201.65300000000002,129.94400000000002L203.21300000000002,131.50500000000002L211.27500000000003,138.52700000000002L212.70900000000003,137.489C212.70900000000003,137.489,208.39300000000003,134.46800000000002,210.12000000000003,132.202S211.85900000000004,126.807,213.25500000000002,124.758S220.26100000000002,120.87299999999999,220.90900000000002,120.442S224.28400000000002,117.314,224.28400000000002,117.314L228.67000000000002,117.20599999999999L230.727,114.29299999999999C230.727,114.29299999999999,227.275,110.30099999999999,227.814,109.11399999999999S228.672,105.881,228.672,105.881Z"
    stroke-width="1"
    stroke-linejoin="round"
    style="-webkit-tap-highlight-color: rgba(0, 0, 0, 0); stroke-linejoin: round;"></path>
  <path
    fill="#cccccc"
    stroke="#222222"
    d="M158.187,107.803L158.35000000000002,113.817C158.35000000000002,113.817,158.22100000000003,119.14899999999999,160.62600000000003,119.08399999999999S165.98900000000003,119.01899999999999,166.25000000000003,121.71699999999998S166.08800000000002,132.153,166.08800000000002,132.153L166.836,132.67399999999998C166.836,132.67399999999998,168.81900000000002,133.03099999999998,169.437,133.87699999999998S173.95600000000002,138.266,173.95600000000002,138.266S176.687,139.79399999999998,177.98800000000003,138.94899999999998S182.08400000000003,135.46999999999997,182.08400000000003,135.46999999999997L183.28700000000003,135.04799999999997L183.67700000000002,133.71499999999997L185.01000000000002,133.16199999999998C185.01000000000002,133.16199999999998,186.21300000000002,132.51199999999997,186.34300000000002,132.31699999999998S187.74,130.789,188.39100000000002,131.569S189.39900000000003,132.804,189.39900000000003,132.804L190.66800000000003,134.365L191.22000000000003,134.722H193.91800000000003C193.91800000000003,134.722,195.34800000000004,136.055,195.41400000000004,137.16S195.90200000000004,139.077,196.55200000000005,139.663S198.56800000000004,140.996,198.86000000000004,142.199S200.25800000000004,145.19000000000003,201.23400000000004,144.702S203.57400000000004,142.687,203.57400000000004,142.687S204.19300000000004,141.87400000000002,205.36300000000003,142.00400000000002S207.70400000000004,142.29700000000003,209.49100000000004,140.41100000000003S211.27900000000005,138.52500000000003,211.27900000000005,138.52500000000003L203.21700000000004,131.50300000000004L201.65700000000004,129.94200000000004L201.29900000000004,126.56100000000004C201.29900000000004,126.56100000000004,197.62600000000003,124.96800000000003,197.85300000000004,124.22000000000004S198.21000000000004,122.95200000000004,198.21000000000004,122.95200000000004L200.35600000000002,121.39200000000004C200.35600000000002,121.39200000000004,200.71300000000002,121.45600000000003,200.03100000000003,120.15600000000003S199.25100000000003,116.51500000000003,199.25100000000003,116.51500000000003S197.82000000000002,114.88900000000002,198.04800000000003,113.91300000000003S199.15300000000002,112.09300000000003,199.15300000000002,112.09300000000003S199.77100000000002,110.50000000000003,199.31600000000003,109.00400000000003S198.04800000000003,103.86700000000003,198.04800000000003,103.86700000000003V100.61600000000003L197.98300000000003,99.51100000000002C197.98300000000003,99.51100000000002,196.38100000000003,97.99000000000002,196.23000000000005,97.56900000000003S195.86100000000005,95.83900000000003,195.97300000000004,95.03000000000003S196.30700000000004,92.94200000000004,196.30700000000004,92.94200000000004S197.06600000000003,91.77800000000003,195.46500000000003,91.13200000000003S191.61700000000002,90.17500000000004,190.91800000000003,89.92300000000003S187.87700000000004,88.54800000000003,187.87700000000004,88.54800000000003S187.06600000000003,87.69300000000003,186.96200000000005,87.08100000000003S186.30600000000004,86.93800000000003,185.89800000000005,87.37000000000003S182.12200000000004,91.52800000000003,181.62600000000006,91.86600000000003S176.86300000000006,95.50400000000003,176.86300000000006,95.50400000000003S176.97900000000007,96.90400000000004,176.72200000000007,97.69600000000003S176.24400000000006,98.09800000000003,176.02300000000005,98.47700000000003S175.01200000000006,99.11400000000003,176.59600000000006,99.69500000000004S179.89800000000005,100.83600000000004,179.58800000000005,101.80700000000003S177.45400000000006,104.84900000000003,176.88400000000004,104.89300000000003S175.96600000000004,104.73700000000002,175.56700000000004,103.94300000000003S173.78300000000004,101.36400000000003,172.88300000000004,102.81400000000002S171.45900000000003,105.85800000000002,171.45900000000003,105.85800000000002L169.23600000000002,105.17600000000002L168.73000000000002,104.64300000000001L168.055,104.05800000000002L167.309,103.80300000000003L166.332,103.92800000000003L164.964,104.82300000000002C164.964,104.82300000000002,164.049,105.22100000000002,164.381,106.23800000000003S165.014,107.78400000000003,165.014,107.78400000000003S165.49,108.08000000000004,164.935,108.46400000000004S162.125,108.69400000000005,162.125,108.69400000000005L159.864,108.25100000000005L158.187,107.803Z"
    stroke-width="1"
    stroke-linejoin="round"
    style="-webkit-tap-highlight-color: rgba(0, 0, 0, 0); stroke-linejoin: round;"></path>
  <path
    fill="#cccccc"
    stroke="#222222"
    d="M158.187,107.803C158.187,107.803,158.155,108.193,157.407,109.234S153.864,111.02199999999999,152.791,109.494S153.864,105.072,153.66899999999998,103.479S148.30499999999998,98.408,147.88199999999998,97.465S145.80199999999996,94.669,145.80199999999996,94.669S143.21899999999997,95.079,143.00999999999996,94.35799999999999S142.93799999999996,93.57999999999998,143.50299999999996,91.859S146.87899999999996,87.719,146.87899999999996,87.719S147.14599999999996,87.41999999999999,147.19099999999997,86.84599999999999S146.86599999999999,86.02,146.86599999999999,86.02S146.05399999999997,85.12299999999999,145.833,84.47999999999999S146.857,82.58899999999998,146.857,82.58899999999998S147.03,81.62299999999999,147.143,80.13299999999998S145.969,76.88499999999998,145.969,76.88499999999998L151.952,76.07699999999997C151.952,76.07699999999997,151.653,73.73899999999998,152.012,72.51099999999997S153.22,69.62699999999997,153.902,68.90199999999997S155.00199999999998,67.79299999999998,155.00199999999998,67.79299999999998L154.99599999999998,59.67699999999998C154.99599999999998,59.67699999999998,155.08999999999997,59.24699999999998,154.09499999999997,58.17299999999998S151.58099999999996,55.94499999999998,151.58099999999996,55.94499999999998S151.25099999999995,55.81299999999998,151.61099999999996,55.06299999999998S153.62699999999995,53.99999999999998,153.82999999999996,53.81299999999998S155.40599999999995,53.07299999999998,155.40599999999995,53.07299999999998L159.85699999999994,57.70999999999998C159.85699999999994,57.70999999999998,164.83899999999994,61.71299999999998,167.19699999999995,63.04799999999998S174.71499999999995,67.85199999999998,175.73899999999995,68.47499999999998S182.54499999999996,75.10199999999998,184.36899999999994,76.79299999999998S191.57599999999994,82.17599999999997,193.17699999999994,83.24299999999998S200.20599999999993,86.13499999999998,201.98499999999993,86.40199999999999S205.18799999999993,85.28999999999999,205.18799999999993,85.28999999999999S205.85499999999993,86.13499999999999,206.96699999999993,87.15899999999999S212.0829999999999,90.62799999999999,212.0829999999999,90.62799999999999S208.30399999999992,94.62799999999999,207.38299999999992,95.52799999999999S204.26299999999992,98.64999999999999,203.98099999999994,99.00399999999999S202.10299999999995,101.76599999999999,202.10299999999995,101.76599999999999S200.53199999999995,99.31599999999999,199.05199999999996,99.31599999999999S195.80999999999997,98.40599999999999,195.92399999999998,95.67499999999998S197.29,91.40799999999999,194.95699999999997,91.00899999999999S187.84499999999997,89.07399999999998,187.38999999999996,88.04999999999998S186.93499999999995,86.22999999999999,185.62599999999995,87.65199999999999S182.72399999999996,91.23599999999999,181.13099999999994,92.20399999999998S176.86399999999995,95.50399999999998,176.86399999999995,95.50399999999998L176.74999999999994,96.69899999999997C176.74999999999994,96.69899999999997,176.97699999999995,97.95099999999996,176.29399999999995,98.29199999999997S175.38299999999995,99.37299999999998,177.26099999999997,99.94199999999998S180.44799999999998,101.42099999999998,178.91099999999997,103.29899999999998S175.95299999999997,105.40299999999998,175.66799999999998,104.26599999999998S174.01799999999997,101.02299999999998,172.652,103.12799999999997S171.457,105.85899999999997,171.457,105.85899999999997S169.067,105.40399999999997,168.84,104.83499999999997S167.247,103.18499999999996,165.824,104.20899999999996S164.11700000000002,105.23299999999996,164.458,106.59899999999996S165.938,108.24899999999997,164.288,108.70399999999997S158.187,107.803,158.187,107.803Z"
    stroke-width="1"
    stroke-linejoin="round"
    style="-webkit-tap-highlight-color: rgba(0, 0, 0, 0); stroke-linejoin: round;"></path>
  <path
    fill="#cccccc"
    stroke="#222222"
    d="M145.968,76.885C145.968,76.885,144.14499999999998,76.53500000000001,143.304,76.39500000000001S139.666,74.15,139.053,73.608S135.422,71.795,135.422,71.795L134.653,71.303C134.653,71.303,134.23999999999998,69.314,134.07,68.902S131.5,63.875,131.402,63.695S128.969,59.088,128.969,59.088S129.052,59.066,129.498,58.29S131.797,55.717999999999996,132.49699999999999,55.086999999999996S133.093,54.355,133.22799999999998,53.235S133.629,52.277,133.926,52.035S135.003,51.599,135.40099999999998,51.166999999999994S136.242,50.94199999999999,137.237,51.166999999999994S138.567,51.63999999999999,139.065,51.62S139.932,51.803999999999995,140.571,52.071S142.113,53.245999999999995,142.113,53.245999999999995L148.344,53.214C148.344,53.214,148.396,53.519999999999996,148.573,54.542S151.46,55.863,151.46,55.863S155.163,58.322,154.993,59.675S154.999,67.791,154.999,67.791S151.95,70.327,151.95,73.202S151.95,76.077,151.95,76.077L145.968,76.885Z"
    stroke-width="1"
    stroke-linejoin="round"
    style="-webkit-tap-highlight-color: rgba(0, 0, 0, 0); stroke-linejoin: round;"></path>
  <path
    fill="#cccccc"
    stroke="#222222"
    d="M202.101,101.766L203.613,102.504C203.613,102.504,205.933,101.449,206.689,101.959S208.043,102.891,208.166,104.034S208.376,105.616,208.816,106.513S209.203,108.236,209.449,109.396S209.69500000000002,112.683,209.69500000000002,112.683L211.89300000000003,111.94500000000001L212.35000000000002,111.822L212.157,109.255C212.157,109.255,215.184,109.241,215.973,108.90299999999999S220.08800000000002,108.705,220.73600000000002,110.05799999999999S221.55300000000003,112.228,222.54000000000002,110.988S224.03300000000002,109.156,224.03300000000002,109.156L224.287,108.253C224.287,108.253,223.104,104.308,222.54,103.294S221.60999999999999,102.532,221.41299999999998,101.095S221.35699999999997,98.953,221.35699999999997,98.953L220.93599999999998,98.145L212.08299999999997,90.627C212.08299999999997,90.627,208.35799999999998,94.68199999999999,205.85099999999997,97.003S202.101,101.766,202.101,101.766Z"
    stroke-width="1"
    stroke-linejoin="round"
    style="-webkit-tap-highlight-color: rgba(0, 0, 0, 0); stroke-linejoin: round;"></path>
  <path
    fill="#cccccc"
    stroke="#222222"
    d="M212.658,43.249C212.658,43.249,210.992,37.47,211.28599999999997,36.785000000000004S212.36399999999998,35.414,212.36399999999998,35.414L211.95499999999998,32.133C211.95499999999998,32.133,212.55999999999997,31.447000000000003,213.68599999999998,32.133S216.331,33.113,216.03699999999998,34.239000000000004S215.59599999999998,36.002,215.59599999999998,36.002S215.98799999999997,37.019000000000005,216.86899999999997,37.539S218.77899999999997,38.402,218.68099999999998,39.039S218.338,41.39,218.338,41.39L215.351,45.259L214.714,42.81L214.469,42.076L212.658,43.249Z"
    stroke-width="1"
    stroke-linejoin="round"
    style="-webkit-tap-highlight-color: rgba(0, 0, 0, 0); stroke-linejoin: round;"></path>
</svg>
