<svg height="510" version="1.1" width="964" xmlns="http://www.w3.org/2000/svg" xmlns:xlink="http://www.w3.org/1999/xlink" style="overflow: hidden; position: relative; left: -0.6px; top: -0.6px;">
  <desc style="-webkit-tap-highlight-color: rgba(0, 0, 0, 0);">Created with Raphaël 2.2.0</desc>
  <defs style="-webkit-tap-highlight-color: rgba(0, 0, 0, 0);"></defs>
  <path
    fill="#cccccc"
    stroke="#222222"
    d="M642.262,176.705C642.262,176.705,644.3209999999999,172.22500000000002,645.6529999999999,170.89200000000002C646.9849999999999,169.55900000000003,648.9239999999999,166.77400000000003,648.9239999999999,166.77400000000003C648.9239999999999,166.77400000000003,651.3459999999999,165.20000000000002,652.0719999999999,167.62200000000004C652.7979999999999,170.04400000000004,653.2839999999999,173.31400000000005,654.2529999999999,174.76800000000003C655.222,176.22200000000004,658.007,176.94900000000004,657.5229999999999,179.12800000000004C657.0389999999999,181.30700000000004,656.9179999999999,184.94100000000003,655.949,185.30500000000004C654.9799999999999,185.66900000000004,654.011,184.33700000000005,650.983,183.12500000000003C647.9549999999999,181.91300000000004,646.1379999999999,180.82300000000004,644.9269999999999,179.73300000000003C643.7159999999999,178.64300000000003,642.262,176.70500000000004,642.262,176.70500000000004Z"
    stroke-width="1"
    stroke-linejoin="round"
    style="-webkit-tap-highlight-color: rgba(0, 0, 0, 0); stroke-linejoin: round;"></path>
  <path
    fill="#cccccc"
    stroke="#222222"
    d="M51.452,68.78C51.452,68.78,50.931,66.248,50.483999999999995,65.727C50.03699999999999,65.206,48.919999999999995,64.387,47.653999999999996,64.238C46.388,64.089,44.973,63.493,44.973,63.493V61.631H47.803L48.212999999999994,62.003H51.45199999999999L55.10099999999999,60.365L56.440999999999995,60.738V62.004L56.888,62.748999999999995L58.824,63.047V67.217L54.355999999999995,66.621L53.834999999999994,68.259L51.45199999999999,68.78Z"
    stroke-width="1"
    stroke-linejoin="round"
    style="-webkit-tap-highlight-color: rgba(0, 0, 0, 0); stroke-linejoin: round;"></path>
  <path
    fill="#cccccc"
    stroke="#222222"
    d="M81.909,131.873L78.24300000000001,131.873L78.016,128.941L78.14200000000001,125.22500000000001L77.08000000000001,124.97200000000001L76.95400000000001,123.025L80.84700000000001,123.025L81.049,122.01400000000001L83.98100000000001,122.01400000000001L83.98100000000001,122.87400000000001L84.86600000000001,123.07600000000001L84.99300000000001,125.73L83.70400000000001,125.75500000000001L83.754,128.81400000000002L82.69200000000001,128.865L82.92,130.812L82.01,130.812Z"
    stroke-width="1"
    stroke-linejoin="round"
    style="-webkit-tap-highlight-color: rgba(0, 0, 0, 0); stroke-linejoin: round;"></path>
  <path
    fill="#cccccc"
    stroke="#222222"
    d="M98.878,140.642L92.106,140.642L92.31299999999999,139.918L93.14099999999999,139.918L93.14099999999999,135.78300000000002L92.106,135.78300000000002L92.106,130.252L90.969,128.805L89.832,127.409L89.05699999999999,126.168L89.05699999999999,124.97900000000001L90.19399999999999,124.51400000000001L89.987,118.93200000000002L89.05699999999999,118.93200000000002L89.05699999999999,115.98500000000001L93.96699999999998,115.98500000000001L93.96699999999998,116.76100000000001L93.96699999999998,117.22600000000001L96.91399999999999,117.12300000000002L96.65499999999999,126.94300000000001L97.99999999999999,126.94300000000001L97.89599999999999,137.851L98.87799999999999,138.264Z"
    stroke-width="1"
    stroke-linejoin="round"
    style="-webkit-tap-highlight-color: rgba(0, 0, 0, 0); stroke-linejoin: round;"></path>
  <path
    fill="#cccccc"
    stroke="#222222"
    d="M78.875,70.393L79.863,69.487L80.275,67.592L81.75800000000001,66.274L84.724,63.474000000000004L85.3,62.155L88.678,59.107L89.749,58.531L89.749,54.412L93.61999999999999,54.412L93.61999999999999,55.318L96.25599999999999,55.318L106.71899999999998,60.509L107.37699999999998,61.167L108.77799999999998,61.496L109.43699999999998,60.509L109.76699999999998,60.014L110.75499999999998,59.354000000000006L113.63899999999998,59.18900000000001L114.95699999999998,60.50900000000001L116.68699999999998,63.63900000000001L117.42799999999998,65.45100000000001L119.23999999999998,71.54700000000001L119.23999999999998,73.936L119.23999999999998,74.84200000000001L120.96999999999998,74.84200000000001L124.59499999999998,74.84200000000001L126.32499999999999,72.61800000000001L127.31299999999999,71.465L130.033,71.63000000000001L130.033,72.78300000000002L134.481,72.28900000000002L134.976,73.19500000000002L135.634,73.27700000000002L135.634,74.84200000000001L132.422,76.49000000000001L131.351,77.14900000000002L131.624,78.08900000000001L134.513,80.75000000000001L135.806,81.81500000000001L135.806,83.031L134.66500000000002,83.031L135.312,85.19900000000001L135.806,85.19900000000001L135.806,89.98900000000002L134.817,90.75000000000001L133.67600000000002,92.00500000000001L130.93900000000002,92.00500000000001L130.901,93.98200000000001L129.228,95.808L128.354,97.82300000000001L128.65800000000002,99.99000000000001L126.77400000000002,99.99000000000001L125.85800000000002,100.47200000000001L124.64500000000002,103.41900000000001L124.69400000000003,105.15200000000002L126.67500000000003,106.49000000000001L126.84900000000003,107.95100000000001L124.86800000000004,110.155L124.86800000000004,117.04L124.84300000000003,118.179L121.00400000000003,117.906L120.83100000000003,120.036L119.79100000000003,120.036L119.86500000000002,125.955L118.33000000000003,128.308L116.64600000000003,129.793L114.04500000000003,129.793L112.16300000000003,129.62L111.91600000000003,130.735L110.70200000000003,131.824L109.48900000000003,132.81500000000003L108.89400000000003,133.08700000000002L108.77100000000003,136.80200000000002L107.50700000000003,137.44600000000003L105.79900000000004,138.48600000000002L104.56100000000004,139.62500000000003L103.64400000000003,141.11100000000002L101.96000000000004,144.25600000000003L101.29200000000003,143.83500000000004L101.06800000000003,142.54700000000003L101.88600000000002,142.20100000000002L102.11500000000002,141.73700000000002L102.13900000000002,138.74800000000002L101.14200000000002,138.41500000000002L100.97600000000003,135.116L100.97600000000003,130.204L100.97600000000003,128.21L101.04700000000003,127.665L100.07400000000003,127.665L100.07400000000003,121.305L100.07400000000003,115.18100000000001L100.05000000000003,114.778L88.94400000000003,114.778L88.08900000000003,113.259L88.04200000000003,110.316L88.87300000000003,110.435L88.94400000000003,111.313L89.84600000000003,111.194L89.98800000000003,112.333L93.14400000000003,112.144L93.16800000000003,110.174L89.06200000000004,106.80300000000001L89.16700000000004,94.10300000000001L89.16700000000004,92.936L88.00000000000004,92.769L88.00000000000004,89.10300000000001L86.95800000000004,89.144L86.95800000000004,85.019L85.95800000000004,85.019L86.20800000000004,82.811L84.29200000000004,82.97800000000001L84.17500000000004,81.537L83.85500000000005,80.367L82.82800000000005,80.083L83.00500000000005,77.745L82.08300000000006,77.674L82.06100000000005,75.27900000000001L80.77300000000005,73.71600000000001L79.31600000000006,71.98500000000001Z"
    stroke-width="1"
    stroke-linejoin="round"
    style="-webkit-tap-highlight-color: rgba(0, 0, 0, 0); stroke-linejoin: round;"></path>
  <path
    fill="#cccccc"
    stroke="#222222"
    d="M76.324,68.259C76.324,68.259,73.866,62.301,73.866,61.855000000000004C73.866,61.409000000000006,76.473,58.131,76.696,57.908C76.919,57.685,77.217,55.302,77.217,55.302L76.398,54.781V50.239L77.217,49.866V44.057H79.30199999999999V44.876000000000005V45.621L82.42999999999999,45.174V44.057H84.36599999999999L84.81299999999999,47.259L83.84499999999998,49.27L84.36599999999999,50.685L86.59999999999998,52.77L87.49399999999999,53.961000000000006V55.749L76.175,68.78"
    stroke-width="1"
    stroke-linejoin="round"
    style="-webkit-tap-highlight-color: rgba(0, 0, 0, 0); stroke-linejoin: round;"></path>
  <path
    fill="#cccccc"
    stroke="#222222"
    d="M148.457,231.665L147.404,231.39499999999998L145.62199999999999,229.612L144.677,228.58599999999998H140.221L140.005,227.398H135.63L134.252,225.94L131.443,224.266L128.74200000000002,222.42999999999998L127.50000000000001,220.378L114.13200000000002,220.56699999999998L113.24000000000002,219.16199999999998L112.26800000000003,217.54199999999997V214.38199999999998H114.69900000000003L114.72600000000003,215.24599999999998L117.10200000000003,215.219L117.21000000000004,214.057H118.34400000000004L118.12800000000004,213.058L119.85700000000004,213.19299999999998V216.325L121.88200000000005,216.082L122.01700000000005,217.16299999999998H124.82500000000005L125.09500000000004,216.19099999999997H126.09500000000004L126.01400000000004,214.94899999999998L124.98800000000004,214.814L125.04200000000004,211.843H124.36700000000005L124.01600000000005,209.81799999999998L122.90900000000005,209.629L122.69300000000005,210.81699999999998L120.02000000000005,209.87199999999999L120.29000000000005,208.71099999999998H118.02100000000004L117.31900000000005,209.65599999999998L116.42800000000004,210.70899999999997L115.18600000000004,210.682L115.05100000000003,209.439L115.07800000000003,209.061L115.91500000000003,208.872L116.13100000000003,208.71V206.41500000000002L115.15800000000003,206.63000000000002L114.18600000000004,205.57700000000003L112.86300000000004,203.95700000000002L111.37800000000004,202.76900000000003L110.05500000000005,201.93100000000004H109.21800000000005L109.05600000000004,200.77000000000004L105.97700000000005,200.93200000000004L106.16600000000004,200.04100000000005L105.97700000000005,199.17700000000005H108.83900000000004L109.00200000000004,198.01500000000004H110.24400000000004L110.19000000000004,196.71900000000005L109.11000000000004,196.50300000000004L109.05600000000004,194.96300000000005H110.05600000000004V187.37500000000006L108.89400000000003,187.64500000000007V188.53600000000006L107.38200000000003,188.72500000000005L107.89500000000004,189.83200000000005L105.57300000000004,189.69700000000006L106.00500000000004,190.99300000000005L105.76200000000004,191.80300000000005L107.08500000000004,192.12700000000007L107.11200000000004,194.61100000000008L105.76200000000004,194.85400000000007L105.81600000000005,195.98800000000006H105.33000000000004L104.84400000000004,194.69200000000006L104.14200000000004,194.71900000000005L103.98000000000003,188.07600000000005V187.37400000000005L105.24900000000004,186.91400000000004H105.89700000000003L106.08600000000003,182.16100000000006L107.05900000000003,181.97200000000007L107.03200000000002,180.91900000000007L108.08500000000002,180.73000000000008L107.97700000000002,178.0840000000001L108.89500000000002,177.7590000000001L109.11100000000002,174.8420000000001L108.00400000000002,174.6800000000001L108.05800000000002,173.70700000000008L107.16700000000002,173.86900000000009L106.78900000000002,174.6800000000001L106.08700000000002,174.9500000000001L106.00600000000001,175.9760000000001L105.00600000000001,176.1110000000001L104.92500000000001,174.8960000000001H103.98000000000002V174.0320000000001L106.32900000000002,173.70800000000008L106.89600000000002,172.08800000000008L108.92100000000002,171.6020000000001L109.16400000000002,167.7400000000001L107.13900000000001,167.5510000000001L106.95000000000002,168.8740000000001L103.98000000000002,168.8200000000001L103.81800000000001,166.6060000000001L106.16700000000002,164.0400000000001L107.51800000000001,163.14900000000011L106.60000000000001,161.50200000000012L103.17,162.98700000000014L102.927,159.09800000000013L100.01,156.18100000000013L95.932,154.21000000000012L94.825,153.80500000000012H93.232L93.097,150.53700000000012V149.5110000000001L92.044,149.7540000000001L91.018,148.1070000000001V145.2720000000001L92.017,145.0020000000001L92.125,143.97600000000008L93.178,143.7870000000001L93.151,142.76100000000008L96.797,142.95000000000007L97.607,144.11600000000007L98.093,145.89400000000006L97.905,146.27200000000005L103.657,146.11000000000004L104.30499999999999,145.11000000000004L106.58699999999999,142.82800000000003L106.11399999999999,141.22100000000003L108.51799999999999,139.19600000000003L110.65099999999998,137.73800000000003L111.62399999999998,137.52200000000002L111.08399999999997,134.06500000000003L112.54199999999997,132.95800000000003L113.13599999999997,132.09400000000002H118.67199999999997L119.73799999999997,129.87900000000002L120.91299999999997,127.71900000000002L121.96599999999997,127.09800000000003L122.18199999999996,126.42300000000003V120.96800000000003H124.82799999999996L125.15199999999996,119.88800000000003L126.12399999999995,119.72600000000003L126.17799999999995,118.05200000000002L127.39299999999996,117.80900000000003L127.09599999999996,111.27300000000002L126.98799999999996,110.19300000000003L128.28399999999996,109.86900000000003L128.14899999999997,108.92400000000004L129.25599999999997,108.68100000000004L129.17499999999998,107.08800000000004H130.39L129.93099999999998,105.76500000000004H129.337L128.06699999999998,104.25300000000004L127.95999999999998,102.11900000000004L129.95799999999997,101.76800000000004L130.25499999999997,101.01200000000004L130.98399999999998,101.28200000000004L130.957,101.79500000000004L131.956,102.57800000000005L133.064,104.49600000000005L134.522,106.38700000000006L135.926,108.11500000000005L136.11499999999998,110.73500000000006L136.844,110.70800000000006L136.655,112.81400000000005L139.329,112.00400000000005L143.137,111.95000000000005L143.435,110.68100000000004L144.677,109.38500000000003L145.325,107.25200000000004L146.432,105.01100000000004L146.027,102.09400000000004L148.32199999999997,99.58200000000004L149.48399999999998,99.06900000000003L150.915,100.25700000000003L151.59,100.85100000000003L152.454,101.63400000000003L154.12900000000002,98.85200000000003L155.10100000000003,97.36700000000003L159.93500000000003,97.23200000000003L161.28500000000003,96.39500000000002L162.93200000000002,94.47800000000002L164.03900000000002,93.93700000000003L166.71200000000002,94.18000000000002L167.11800000000002,95.20600000000002H169.008L169.73700000000002,95.15200000000002L169.98000000000002,98.01500000000001L170.79000000000002,98.04200000000002V101.71500000000002V102.20100000000002L172.89600000000002,102.33600000000003V103.76700000000002L171.76200000000003,104.09100000000002L171.84300000000002,107.92600000000002L170.763,107.92600000000002L170.898,110.00600000000001L169.87199999999999,109.89800000000001L169.76399999999998,111.84200000000001L170.97899999999998,112.08500000000001L171.033,116.91900000000001L170.809,118.06800000000001L171.184,119.88100000000001L174.309,120.38100000000001L175.059,122.06900000000002V125.69400000000002L174.309,127.13200000000002L172.5,128.00000000000003L170.687,127.62500000000003L168.62400000000002,127.06200000000003L166.93600000000004,126.24900000000002L162.06100000000004,133.312L160.93600000000004,136.937L159.24800000000005,142.062L159.93600000000004,144.11200000000002L157.12300000000005,148.687L156.43500000000006,150.375L157.18500000000006,153.5L157.31000000000006,156.25L153.62200000000007,161.938L153.05900000000008,165.25099999999998L152.05900000000008,168.93899999999996L151.55900000000008,171.50199999999995L151.62200000000007,175.43999999999994L151.74700000000007,180.81499999999994C151.74700000000007,180.81499999999994,151.12200000000007,182.43999999999994,150.99700000000007,182.68999999999994C150.87200000000007,182.93999999999994,149.37500000000006,183.99999999999994,149.37500000000006,183.99999999999994V184.99999999999994L151.87500000000006,188.62499999999994L151.93800000000005,189.18799999999993L155.87600000000003,189.50099999999992L156.06400000000002,192.8139999999999L157.002,192.3139999999999L156.752,193.6889999999999L156.815,199.5639999999999L158.815,199.12599999999992L160.003,202.9389999999999L161.94099999999997,204.6889999999999L164.75399999999996,206.6269999999999L164.31599999999997,208.1269999999999L163.31599999999997,208.31499999999988L163.69099999999997,210.93999999999988L163.628,213.25299999999987L164.753,213.06499999999988L164.628,216.25299999999987L164.94099999999997,217.75299999999987L165.87899999999996,217.31499999999988L165.94199999999995,219.93999999999988L166.69199999999995,220.25299999999987L166.87999999999994,225.69099999999986L165.31699999999995,226.69099999999986L163.49999999999994,229.49999999999986L162.74999999999994,230.56299999999985L159.31199999999995,226.68799999999985L156.93699999999995,224.06299999999985L155.74899999999997,222.68799999999985L154.31099999999998,222.18799999999985L152.248,222.56299999999985L151.373,225.68799999999985L151.43599999999998,228.06299999999985L151.123,230.43799999999985L148.457,231.66499999999985Z"
    stroke-width="1"
    stroke-linejoin="round"
    style="-webkit-tap-highlight-color: rgba(0, 0, 0, 0); stroke-linejoin: round;"></path>
  <path
    fill="#cccccc"
    stroke="#222222"
    d="M153.961,171.428L155.59900000000002,166.357L156.37900000000002,162.223L159.42200000000003,157.30800000000002L160.592,156.06000000000003L160.592,153.64100000000002L159.032,152.93900000000002L159.11,149.50600000000003L160.98100000000002,146.38600000000002L162.074,145.13800000000003L162.074,140.14500000000004L163.322,137.18000000000004L166.208,132.03100000000003L168.002,130.00300000000004L172.60500000000002,130.00300000000004L174.79000000000002,130.00300000000004L175.72600000000003,129.14500000000004L177.28600000000003,128.75500000000005L178.45700000000002,128.75500000000005L177.83200000000002,124.23000000000005L177.13000000000002,123.37200000000004L177.98800000000003,122.51400000000004L178.45700000000002,118.92500000000004L175.06300000000002,117.36500000000004L173.30800000000002,116.50700000000003L173.30800000000002,112.68400000000004L173.229,109.48500000000004L174.478,107.92500000000004L174.08700000000002,104.80500000000004L175.06300000000002,104.41500000000003L175.49200000000002,101.91800000000003L176.97400000000002,102.30800000000004L177.98800000000003,103.47900000000004L179.23600000000002,104.33600000000004L181.73200000000003,104.02300000000004L182.43500000000003,103.47800000000004L184.77500000000003,100.35700000000004L187.35000000000002,100.35700000000004L186.02300000000002,99.49900000000004L189.45600000000002,98.40700000000004L190.08,95.13000000000004L189.066,93.93000000000004L190.08,92.32100000000004L192.186,88.42100000000003L192.186,87.40700000000004L194.839,85.06600000000005L197.179,83.11600000000004L198.27100000000002,82.10200000000005L198.27100000000002,80.15100000000005L198.97400000000002,79.76100000000005L198.97400000000002,77.26500000000006L200.144,76.71900000000005L200.144,74.37800000000006L202.406,74.92400000000006L203.42000000000002,76.56300000000006L203.03000000000003,77.42100000000006L206.38500000000002,77.18700000000007L207.32100000000003,79.44900000000007L208.33500000000004,82.18000000000006L209.66200000000003,82.10200000000006L209.34900000000005,79.68300000000006L210.28600000000006,76.64100000000006L211.84600000000006,76.48400000000007L213.64000000000007,77.57700000000007L215.98000000000008,81.08700000000007L218.16500000000008,85.61200000000008L220.50500000000008,91.38500000000008L221.20800000000008,93.93000000000008L224.3280000000001,95.91100000000007L224.87500000000009,97.62700000000007L224.25000000000009,99.03100000000006L221.13000000000008,102.30800000000006L218.6330000000001,105.03900000000006L216.2150000000001,107.92500000000005L215.4350000000001,109.01700000000005L215.5130000000001,111.20200000000006L216.76100000000008,110.34400000000005L216.83900000000008,113.77600000000005L218.16500000000008,114.16600000000005L217.30700000000007,115.80500000000005L216.83900000000008,115.88200000000005L216.83900000000008,120.17300000000004L216.9170000000001,124.85400000000004L217.7750000000001,125.71200000000005L219.3350000000001,127.03800000000004L220.0380000000001,127.81800000000004L219.0230000000001,128.36400000000003L218.7110000000001,130.93900000000002L217.3070000000001,131.407L217.4630000000001,136.322L218.55500000000012,136.556L218.71100000000013,139.75400000000002L220.58300000000014,140.145L222.30000000000015,140.847L224.87500000000014,141.86100000000002L224.87500000000014,145.293L223.62500000000014,147.478L223.62500000000014,149.19400000000002L223.54800000000014,150.67600000000002L224.87500000000014,151.61200000000002L224.87500000000014,156.99600000000004L227.13600000000014,156.91800000000003L228.07300000000015,158.16600000000003L231.58300000000014,158.40000000000003L233.68900000000014,159.57000000000002L233.68900000000014,161.52100000000002L233.68900000000014,162.847L232.20800000000014,163.549L230.72500000000014,164.875L230.80300000000014,166.514L226.74700000000013,166.514L226.27800000000013,167.918L224.56200000000013,167.372L222.14400000000012,166.592L218.71100000000013,165.34400000000002L215.98000000000013,168.621L210.75300000000013,168.698L208.56900000000013,170.571L204.66800000000012,167.84L202.9520000000001,165.968L200.5330000000001,162.14499999999998L195.9300000000001,164.642L191.25000000000009,162.302L190.0790000000001,163.238L190.0790000000001,165.656L189.0640000000001,165.734L188.9080000000001,168.231L187.5820000000001,168.855L185.3200000000001,167.21599999999998L181.8090000000001,163.15999999999997L179.78100000000012,163.47199999999998L176.97200000000012,164.564L177.59600000000012,170.493L175.49000000000012,171.897L172.37000000000012,174.54999999999998L165.5820000000001,174.54999999999998L163.7100000000001,172.20899999999997L160.58900000000008,173.61399999999998L159.4190000000001,174.54999999999998L156.7670000000001,173.146L154.7380000000001,173.302Z"
    stroke-width="1"
    stroke-linejoin="round"
    style="-webkit-tap-highlight-color: rgba(0, 0, 0, 0); stroke-linejoin: round;"></path>
  <path
    fill="#cccccc"
    stroke="#222222"
    d="M226.974,98.925L229.67499999999998,99.539L233.689,103.467L236.058,107.395L239.863,109.604L246.614,115.374L251.156,118.934L254.59300000000002,118.934L257.17,121.02L263.922,126.91199999999999L264.781,129.612L266.991,131.577L268.832,137.22299999999998L271.287,141.028L273.005,144.465L273.987,143.852L274.84700000000004,148.761L275.951,149.375L279.879,154.407L281.72,158.703L283.07000000000005,160.17600000000002L283.56200000000007,163.61300000000003L283.56200000000007,166.68200000000002L284.4200000000001,167.787L284.4200000000001,168.89100000000002L284.84600000000006,170.02700000000002L282.80100000000004,170.02700000000002L283.90600000000006,172.126L283.96100000000007,173.231L284.84600000000006,173.231L284.84600000000006,176.214L285.67400000000004,176.214L286.17100000000005,177.706L284.51400000000007,177.706L285.0660000000001,185.82799999999997L285.7290000000001,186.932L286.9450000000001,188.47899999999998L286.9450000000001,190.13699999999997L288.10500000000013,190.74399999999997L288.71200000000016,192.62299999999996L287.33200000000016,193.39599999999996L287.00000000000017,194.77699999999996L284.5140000000002,195.10899999999995L284.7900000000002,199.69399999999996L282.5250000000002,203.17499999999995L282.4140000000002,204.05899999999994L277.49700000000024,204.05899999999994L276.44700000000023,204.83199999999994L272.9670000000002,207.92599999999993L272.6910000000002,211.35099999999994L272.6910000000002,213.28499999999994L274.0170000000002,214.33399999999995L273.90600000000023,217.20799999999994L275.06600000000026,217.20799999999994L274.4040000000003,218.91999999999993L272.91200000000026,218.36799999999994L270.8680000000003,216.54399999999993L268.4370000000003,213.72699999999992L268.1050000000003,212.8979999999999L264.4590000000003,212.6219999999999L262.3050000000003,210.1909999999999L259.4320000000003,208.6439999999999L258.1620000000003,207.81499999999988L256.8910000000003,207.37299999999988L252.5820000000003,207.53899999999987L250.0400000000003,208.42299999999986L251.1450000000003,206.59999999999985L250.9790000000003,201.29599999999985L252.1390000000003,199.19699999999986L255.78600000000029,196.04799999999986L257.05600000000027,194.66699999999986L257.00100000000026,189.36299999999986L255.67500000000027,187.65099999999987L254.12800000000027,186.21399999999986L252.41500000000028,185.49599999999987L246.94600000000028,185.71699999999987L246.0620000000003,184.39099999999988L245.8960000000003,181.68399999999988L246.5030000000003,181.07599999999988L247.3880000000003,180.3579999999999L247.1110000000003,175.4409999999999L246.6140000000003,174.00399999999988L244.1270000000003,172.73399999999987L241.4200000000003,172.56799999999987L237.3320000000003,172.62399999999988L235.5090000000003,170.9659999999999L233.4100000000003,168.8669999999999L233.0230000000003,166.2699999999999L234.3490000000003,164.8889999999999L236.5030000000003,164.0049999999999L237.0000000000003,163.7289999999999L237.16700000000031,161.7399999999999L236.0060000000003,161.8499999999999L235.9510000000003,158.4249999999999L234.6810000000003,157.2099999999999L232.3600000000003,156.2149999999999L228.3270000000003,155.4969999999999L227.44300000000032,154.9999999999999L226.97400000000033,150.02799999999988L226.11700000000033,149.47499999999988L226.11700000000033,146.2159999999999L227.11200000000034,145.8289999999999L227.22200000000035,139.8069999999999L221.36600000000035,137.54199999999992L219.87500000000034,135.60799999999992L220.15100000000035,132.0169999999999L221.03500000000034,131.68599999999992L221.14600000000033,128.25999999999993L222.47100000000032,127.92899999999993L222.1950000000003,124.99999999999993L219.8750000000003,124.46399999999993L219.2120000000003,123.34399999999992L219.2120000000003,116.93499999999992L219.2120000000003,115.71899999999992L219.9300000000003,114.94599999999993L220.04100000000028,113.56499999999993L218.99100000000027,113.67499999999993L218.99100000000027,110.08399999999993L218.16200000000026,109.31099999999994L218.99100000000027,108.26099999999994L220.92400000000026,106.16199999999994L224.51600000000028,102.29399999999994Z"
    stroke-width="1"
    stroke-linejoin="round"
    style="-webkit-tap-highlight-color: rgba(0, 0, 0, 0); stroke-linejoin: round;"></path>
  <path
    fill="#cccccc"
    stroke="#222222"
    d="M141.722,250.626L138.389,246.043L136.472,242.96V240.543L135.305,239.543L132.388,236.043L129.888,234.293L126.971,232.208L124.721,229.127L123.388,226.96H121.221V225.877H119.554V224.627H121.637L121.47,223.794H126.97L128.97,225.794L132.22,228.211L134.137,229.044L135.22,230.377L135.387,231.794L137.304,232.209L137.637,230.87800000000001L140.22,230.79500000000002L140.387,232.21L142.97,233.54500000000002L143.553,232.21L145.22,232.62900000000002L145.803,234.04600000000002L146.636,234.87900000000002L149.053,234.96200000000002L150.47,234.04500000000002L152.72,233.04500000000002L153.637,231.71200000000002L154.804,231.29500000000002L154.471,228.04500000000002L153.139,228.12800000000001V227.461L154.137,226.87800000000001L156.054,226.54500000000002L157.221,228.12800000000001L158.888,230.711L160.805,233.62800000000001L162.138,235.04500000000002L164.138,234.87800000000001L165.138,232.209L167.055,230.12800000000001L167.805,228.87800000000001L168.472,227.711L169.472,228.37800000000001L170.305,229.37800000000001V230.211L171.888,230.87800000000001L172.471,231.79500000000002L175.284,231.87800000000001L178.138,235.04500000000002L180.055,237.21200000000002V239.96200000000002L178.388,241.46200000000002L178.888,246.46200000000002L177.388,248.37900000000002L176.721,250.62900000000002L177.221,252.12900000000002L179.138,254.21200000000002L180.055,256.462L182.805,258.545L185.555,259.962L186.722,262.37899999999996L187.472,264.29599999999994L188.139,265.2129999999999L188.806,266.79599999999994L189.473,269.04599999999994L190.89000000000001,270.79599999999994V272.7129999999999L188.89000000000001,275.29599999999994L187.723,277.29599999999994L186.306,279.7129999999999L184.473,281.4629999999999L182.473,282.3799999999999L181.14000000000001,281.79699999999985L179.55700000000002,281.8799999999999L178.39000000000001,282.3799999999999L176.64000000000001,283.9629999999999L176.80700000000002,285.8789999999999L178.05700000000002,286.7959999999999L178.80700000000002,288.96299999999985V292.5459999999999C178.80700000000002,292.5459999999999,178.22400000000002,294.2119999999999,177.80700000000002,294.7959999999999C177.39000000000001,295.3779999999999,176.97400000000002,296.2119999999999,176.14000000000001,296.7959999999999C175.30700000000002,297.3779999999999,174.89000000000001,299.1279999999999,174.89000000000001,299.1279999999999L173.14000000000001,297.9619999999999H172.723L172.39000000000001,296.8779999999999L168.55700000000002,297.2119999999999L167.14000000000001,295.3779999999999L163.30700000000002,295.0459999999999L161.39000000000001,293.5459999999999L160.05700000000002,291.8779999999999L158.47400000000002,290.04499999999985L158.30700000000002,286.6279999999999L159.22400000000002,286.3779999999999L159.55700000000002,283.54499999999985L160.97400000000002,284.04499999999985L160.89100000000002,284.9619999999998L162.39100000000002,284.79499999999985V283.1279999999999L162.05800000000002,281.2109999999999L161.30800000000002,280.2939999999999L159.89100000000002,278.2109999999999L157.80800000000002,276.1279999999999L155.80800000000002,274.1279999999999L154.64100000000002,273.04499999999985L154.72400000000002,269.6279999999999L151.55700000000002,266.79499999999985L151.39000000000001,262.7119999999998L150.39000000000001,262.2119999999998L150.223,257.6289999999998L148.473,256.2119999999998L146.806,254.21199999999982L145.806,252.87899999999982L145.723,251.12899999999982L141.722,250.62599999999983Z"
    stroke-width="1"
    stroke-linejoin="round"
    style="-webkit-tap-highlight-color: rgba(0, 0, 0, 0); stroke-linejoin: round;"></path>
  <path
    fill="#cccccc"
    stroke="#222222"
    d="M149.973,285.05L150.174,283.39L150.979,282.98699999999997L150.979,282.08099999999996L151.88500000000002,282.48299999999995L151.88500000000002,282.98699999999997L154.20000000000002,282.78599999999994L154.20000000000002,282.08099999999996L155.86100000000002,282.53399999999993L155.609,285.80499999999995L150.174,285.80499999999995Z"
    stroke-width="1"
    stroke-linejoin="round"
    style="-webkit-tap-highlight-color: rgba(0, 0, 0, 0); stroke-linejoin: round;"></path>
  <path
    fill="#cccccc"
    stroke="#222222"
    d="M172.238,270.195C172.238,270.195,171.157,267.503,172.407,267.863C173.657,268.223,176.09400000000002,269.05,175.925,269.728C175.756,270.406,175.268,271.211,174.65400000000002,271.487C174.03900000000002,271.762,173.87000000000003,272.54600000000005,173.086,271.868C172.30100000000002,271.191,172.238,270.195,172.238,270.195Z"
    stroke-width="1"
    stroke-linejoin="round"
    style="-webkit-tap-highlight-color: rgba(0, 0, 0, 0); stroke-linejoin: round;"></path>
  <path
    fill="#cccccc"
    stroke="#222222"
    d="M160.004,251.432C160.004,251.432,157.78099999999998,245.898,160.35299999999998,246.63899999999998C162.92399999999998,247.38,167.93399999999997,249.07899999999998,167.58499999999998,250.47299999999998C167.236,251.867,166.23399999999998,253.523,164.96999999999997,254.089C163.70699999999997,254.655,163.35799999999998,256.267,161.74599999999998,254.873C160.135,253.47899999999998,160.004,251.432,160.004,251.432Z"
    stroke-width="1"
    stroke-linejoin="round"
    style="-webkit-tap-highlight-color: rgba(0, 0, 0, 0); stroke-linejoin: round;"></path>
  <path
    fill="#cccccc"
    stroke="#222222"
    d="M153.961,175.229H155.728L156.16,176.14700000000002L157.78,177.443H159.724L161.61399999999998,176.336H163.61299999999997L163.23499999999999,177.173H173.713L174.037,176.336L176.62900000000002,174.09400000000002H178.89800000000002L179.38400000000001,173.122L180.032,172.852V171.609V166.208H181.00400000000002L181.76000000000002,168.85399999999998L183.97400000000002,169.178L184.78400000000002,170.582L185.81000000000003,171.446V172.904H189.86000000000004V170.095L190.99400000000003,169.771L191.21000000000004,167.17899999999997L191.75000000000003,167.12499999999997L192.12800000000001,166.20699999999997H193.586L193.823,167.07099999999997L197.096,167.01699999999997V166.20699999999997H199.635L203.362,169.87999999999997L205.792,172.14799999999997L208.061,173.11999999999998L209.84300000000002,172.90399999999997L211.085,171.01299999999998L215.622,171.06699999999998L216.216,172.20099999999996L217.512,171.82299999999998V170.90499999999997L218.7,169.015L221.887,169.177L222.589,170.095L224.695,169.987L224.911,170.797L227.665,171.17499999999998L228.421,169.33899999999997L230.689,169.82499999999996L232.147,170.85099999999997L235.54899999999998,174.25299999999996L236.68299999999996,175.54899999999995L243.75899999999996,175.49599999999995L244.94699999999995,176.73799999999994L244.56899999999996,179.43799999999993L243.70499999999996,180.78899999999993V181.59899999999993V185.81199999999993L244.67799999999997,186.56799999999993L245.48799999999997,188.02599999999993L245.86599999999996,188.83599999999993V189.48399999999992L249.21499999999995,189.26799999999992L249.48499999999996,188.07999999999993L253.04899999999995,188.18799999999993V189.21399999999994L254.07499999999996,189.05199999999994V190.23999999999992H254.83099999999996V193.96699999999993L253.43299999999996,194.93899999999994L251.31999999999996,196.82899999999992L249.86199999999997,198.50299999999993L249.32199999999997,199.58399999999992L248.61999999999998,201.09599999999992L248.99799999999996,205.68699999999993L247.64799999999997,207.84699999999992L246.89199999999997,208.71099999999993L247.10799999999998,210.33099999999993H247.75599999999997L248.51199999999997,211.24899999999994L248.88999999999996,212.54499999999993L251.53599999999994,212.22099999999992L251.15799999999996,211.03299999999993L252.45399999999995,210.76299999999992L252.29199999999994,210.00699999999992L256.6669999999999,210.33099999999993L258.3959999999999,211.41199999999992L260.3949999999999,212.54499999999993L262.7169999999999,214.48999999999992L263.74299999999994,215.6239999999999V216.2719999999999H267.63199999999995L269.792,218.5409999999999L271.35799999999995,221.3499999999999H272.3299999999999H275.40899999999993L276.38199999999995,220.4309999999999L277.2459999999999,219.6209999999999V217.2989999999999L276.1649999999999,216.3809999999999V214.1669999999999L275.0309999999999,213.5729999999999L275.08499999999987,209.0899999999999L275.94899999999984,208.87399999999988L276.2189999999998,206.9299999999999L277.24499999999983,206.1199999999999L281.83599999999984,206.2279999999999V207.9569999999999V209.2529999999999L282.6999999999998,209.0909999999999V211.6289999999999L283.78099999999984,212.1699999999999L283.18699999999984,212.8719999999999L281.2429999999998,215.3019999999999L280.75699999999983,216.5979999999999L280.70299999999986,222.5929999999999L278.54199999999986,223.0789999999999L278.70399999999984,225.61799999999988H277.19199999999984L277.62399999999985,229.6149999999999V230.5869999999999H278.75799999999987L279.8919999999999,233.0709999999999L281.07999999999987,236.09599999999992L282.37599999999986,238.0939999999999L284.53699999999986,240.36299999999991L283.40299999999985,240.9569999999999L281.29699999999985,239.3359999999999L281.0269999999999,237.9319999999999L276.9759999999999,237.49999999999991L276.7599999999999,238.47299999999993L277.02999999999986,239.22899999999993L270.22499999999985,239.82299999999992L268.6589999999999,240.14699999999993L263.5279999999999,242.63099999999994L262.3939999999999,243.65699999999995L263.4739999999999,244.19699999999995H270.33299999999986L271.30499999999984,243.06299999999996H274.27599999999984L275.30199999999985,242.41499999999996L279.46099999999984,242.19899999999996L280.97299999999984,243.54899999999995L282.6469999999998,245.06099999999995H286.0489999999998V246.08699999999996L284.5909999999998,246.35699999999997V247.38299999999998L283.6189999999998,248.08499999999998L283.5109999999998,258.45599999999996H284.6989999999998L284.8069999999998,260.18399999999997H285.8329999999998L286.0479999999998,266.611H284.58999999999975L284.91399999999976,278.27799999999996L284.8599999999998,280.59999999999997L286.0479999999998,282.05899999999997L286.75099999999975,283.84099999999995L287.99299999999977,284.05699999999996C287.99299999999977,284.05699999999996,287.6149999999998,286.70399999999995,287.66899999999976,286.866C287.72299999999973,287.02799999999996,291.39599999999973,289.995,291.39599999999973,289.995L294.7449999999997,293.509L295.77099999999973,294.75100000000003V298.531L296.9059999999997,299.504V301.826L293.8269999999997,303.98600000000005L296.3109999999997,305.22800000000007L296.6889999999997,306.41600000000005L296.0949999999997,307.06300000000005L293.1239999999997,305.66L293.0699999999997,304.903L291.2339999999997,304.25600000000003L289.4509999999997,303.499L286.7509999999997,302.365L282.6459999999997,300.367L281.40399999999966,299.665L277.08299999999963,299.50300000000004L275.89499999999964,300.15100000000007L273.7349999999996,301.44700000000006L271.4129999999996,302.47300000000007L269.2519999999996,303.44500000000005L266.9829999999996,303.76900000000006L264.1749999999996,302.2030000000001L261.5289999999996,301.5010000000001L258.6119999999996,299.5030000000001L255.63999999999962,296.9640000000001L252.18299999999962,293.9940000000001L248.9959999999996,290.3210000000001L247.05199999999962,287.9980000000001L242.89299999999963,284.7030000000001H242.13699999999963L240.08499999999964,283.2990000000001L239.27499999999964,281.6250000000001L234.95399999999964,278.70800000000014L230.57899999999964,276.60200000000015L228.36499999999964,275.1970000000002L225.42999999999964,272.22600000000017L222.85499999999965,269.6340000000002L221.23499999999964,268.17600000000016L220.10099999999966,266.82600000000014L218.31899999999965,265.4760000000001L218.48099999999965,264.6660000000001L209.19099999999966,264.4500000000001L206.16699999999966,261.5870000000001L198.65999999999966,261.5870000000001L195.52699999999965,259.1030000000001L193.47499999999965,257.4830000000001L190.82899999999967,256.1870000000001L188.07399999999967,255.97100000000012L187.80399999999966,257.4830000000001L186.29099999999966,257.6990000000001L184.18499999999966,256.02500000000015L181.97099999999966,253.59400000000014L179.05399999999966,250.57000000000014L179.80999999999966,248.67900000000014L181.48399999999967,245.87100000000015L181.26799999999966,241.28000000000014L182.40199999999965,239.49700000000016L183.37399999999965,237.28300000000016L182.99599999999967,236.09500000000017L180.99699999999967,234.20400000000018L178.3509999999997,231.01700000000017L177.2169999999997,229.28800000000015L177.0549999999997,228.42400000000015L173.86799999999968,228.26200000000014H172.78799999999967L169.43899999999968,224.26500000000016L169.0069999999997,220.32200000000014L168.1969999999997,217.67600000000016L167.11699999999968,213.57200000000014L166.36099999999968,211.57300000000015L166.46899999999968,208.54900000000015L167.27899999999968,207.68400000000014L167.4949999999997,204.93000000000015L164.1999999999997,202.66100000000014L162.25599999999972,201.04000000000013L162.47199999999972,197.20600000000013L159.50199999999973,197.15200000000013L159.23199999999972,193.10200000000012L159.1779999999997,190.56300000000013L158.04399999999973,190.29300000000012L158.09799999999973,186.24200000000013L153.95499999999973,186.02600000000012L152.91299999999973,184.56800000000013L153.18299999999974,182.94800000000012L154.37099999999973,181.3270000000001L154.20899999999972,178.7350000000001L153.96099999999973,175.2290000000001Z"
    stroke-width="1"
    stroke-linejoin="round"
    style="-webkit-tap-highlight-color: rgba(0, 0, 0, 0); stroke-linejoin: round;"></path>
  <path
    fill="#cccccc"
    stroke="#222222"
    d="M231.292,308.853L231.292,302.048L233.182,297.259L233.182,291.588L235.32399999999998,290L236.45799999999997,288.059L236.45799999999997,283.52200000000005L232.04699999999997,280.37100000000004L227.76299999999998,277.85100000000006L223.09999999999997,274.07000000000005L218.43699999999995,269.40700000000004L216.67299999999994,268.14700000000005L212.63999999999996,268.14700000000005L212.63999999999996,267.26500000000004L208.35499999999996,267.26500000000004L204.82699999999997,264.24000000000007L198.90399999999997,264.24000000000007L194.87099999999998,261.5930000000001L189.70399999999998,259.32400000000007L189.07299999999998,259.32400000000007L189.07299999999998,262.85300000000007L190.66699999999997,265.24800000000005L192.34999999999997,268.1460000000001L193.86199999999997,271.0440000000001L192.34999999999997,273.5650000000001L189.07299999999998,278.1020000000001L186.93099999999998,281.75700000000006L184.03199999999998,284.0880000000001L180.12499999999997,284.0880000000001L180.12499999999997,285.28600000000006L181.13399999999996,285.66400000000004L181.13299999999995,286.92500000000007L181.38499999999996,292.00000000000006L180.62899999999996,292.00000000000006L180.12499999999997,294.36000000000007L180.12499999999997,296.2510000000001L178.48699999999997,297.00700000000006L177.47899999999996,298.5830000000001L178.36099999999996,299.14900000000006L180.37699999999995,298.5830000000001L182.01499999999996,301.1650000000001L184.15799999999996,304.9460000000001L185.92199999999997,307.8450000000001L186.29999999999995,310.4910000000001L188.82099999999994,310.4910000000001L190.66699999999994,311.6250000000001L192.72699999999995,311.6250000000001L194.23999999999995,309.6090000000001L195.87799999999996,307.0690000000001L199.53199999999995,307.0690000000001L201.29699999999994,305.95400000000006L206.33799999999994,307.0690000000001L209.73999999999992,305.32400000000007L220.19999999999993,305.8280000000001L222.84699999999992,307.0690000000001L226.37499999999991,307.97100000000006L228.1399999999999,308.4750000000001Z"
    stroke-width="1"
    stroke-linejoin="round"
    style="-webkit-tap-highlight-color: rgba(0, 0, 0, 0); stroke-linejoin: round;"></path>
  <path
    fill="#cccccc"
    stroke="#222222"
    d="M223.57,329.647L223.22899999999998,328.851L219.646,328.851L218.79299999999998,327.998L216.688,327.998L215.20899999999997,327.998L214.58399999999997,326.746L213.67399999999998,325.779L212.36599999999999,325.779L211.00099999999998,324.699L210.26199999999997,324.699L209.06699999999998,323.846L206.96899999999997,323.846L205.19999999999996,322.651L203.20899999999995,321.514L203.20899999999995,319.922L201.33299999999994,319.353L200.08099999999993,318.557L199.45599999999993,316.736L198.14699999999993,315.20099999999996L195.92899999999995,314.40399999999994L195.30399999999995,314.11999999999995L195.30399999999995,312.64199999999994L197.52199999999993,310.36599999999993L199.73999999999992,309.62699999999995L202.81099999999992,309.62699999999995L203.32299999999992,309.00199999999995L205.8259999999999,308.31899999999996L206.9689999999999,308.83099999999996L209.9199999999999,308.31899999999996L212.7069999999999,307.06899999999996L219.1339999999999,307.35299999999995L219.7029999999999,308.65999999999997L222.54599999999988,309.969L225.16299999999987,310.31L225.90199999999987,310.366L225.90199999999987,311.625L228.06299999999987,311.276L227.72199999999987,312.58500000000004L226.75499999999985,315.201L226.75499999999985,316.851L225.50399999999985,317.59L225.78799999999984,319.69399999999996L224.91499999999985,320.83099999999996L224.30999999999986,321.741L223.51299999999986,322.76599999999996L223.91199999999986,324.301L224.91499999999985,325.779L226.52799999999985,326.519L226.98199999999986,327.145L226.58399999999986,328.055L225.61799999999985,329.07800000000003L224.65099999999984,329.98800000000006Z"
    stroke-width="1"
    stroke-linejoin="round"
    style="-webkit-tap-highlight-color: rgba(0, 0, 0, 0); stroke-linejoin: round;"></path>
  <path
    fill="#cccccc"
    stroke="#222222"
    d="M289.969,379.866L289.969,379.024L288.993,378.855L288.993,377.879L287.98199999999997,377.879L288.251,375.858L287.039,375.656L287.039,374.04L286.063,373.90500000000003L286.063,372.05300000000005L286.063,370.90700000000004L285.187,370.90700000000004L285.01800000000003,369.021L284.04200000000003,368.584L284.04200000000003,367.034L283.09900000000005,366.799L283.09900000000005,365.755L281.886,365.755L282.122,364.677L281.111,364.677L281.111,363.83500000000004L279.966,363.70000000000005L279.966,362.65600000000006L278.41700000000003,362.65600000000006L277.37300000000005,361.4770000000001L274.64500000000004,360.3980000000001L271.85,359.6240000000001L268.617,358.4790000000001L267.135,357.4360000000001L266.057,356.4920000000001L264.77700000000004,354.94200000000006L263.63200000000006,354.53900000000004L261.4770000000001,353.49500000000006L259.89400000000006,352.6190000000001L257.06500000000005,352.6190000000001L256.62700000000007,351.7440000000001L253.39400000000006,351.5080000000001L252.54200000000006,349.6670000000001L251.58300000000006,347.2510000000001L249.75000000000006,346.2510000000001L247.66700000000006,345.4590000000001L245.25000000000006,344.3760000000001L244.50000000000006,343.5010000000001L238.41700000000006,343.5010000000001L237.12500000000006,341.16800000000006L235.37500000000006,338.6260000000001L233.25000000000006,336.4590000000001L232.04200000000006,335.5010000000001L232.29200000000006,333.3340000000001L233.62500000000006,333.7090000000001L233.20800000000006,332.3760000000001L231.00000000000006,332.3760000000001L229.37500000000006,331.7090000000001L228.29200000000006,331.7090000000001L227.33300000000006,330.5430000000001L227.54200000000006,329.9880000000001L229.16700000000006,329.2930000000001L230.79200000000006,329.0430000000001L230.50000000000006,327.6680000000001L229.58300000000006,325.87600000000015L228.33300000000006,324.4180000000001L227.33300000000006,323.4590000000001L226.25000000000006,323.4590000000001L226.25000000000006,322.2930000000001L228.70800000000006,321.4180000000001L229.08300000000006,319.66700000000014L228.45800000000006,319.29200000000014L228.45800000000006,317.3340000000001L229.37500000000006,316.5010000000001L229.79200000000006,315.1260000000001L229.25000000000006,314.0840000000001L230.91700000000006,312.7930000000001L233.58300000000006,311.25100000000015L233.58300000000006,308.0430000000001L234.41700000000006,308.0430000000001L234.25000000000006,304.1880000000001L235.12500000000006,304.1880000000001L235.25000000000006,299.0000000000001L236.06300000000005,298.6880000000001L236.06300000000005,294.4380000000001L236.45800000000006,293.9380000000001L237.31300000000005,292.0000000000001L238.43800000000005,291.0630000000001L239.37500000000006,291.0630000000001L239.25000000000006,286.0630000000001L241.81300000000005,287.3130000000001L244.62500000000006,289.3750000000001L246.56300000000005,292.0000000000001L249.50000000000006,295.1250000000001L251.06300000000005,297.4380000000001L253.50000000000006,298.9380000000001L256.00000000000006,300.3750000000001L259.00000000000006,302.7500000000001L261.75000000000006,304.1880000000001L264.43800000000005,305.3130000000001L267.62500000000006,306.3750000000001L270.18800000000005,306.5000000000001L271.75000000000006,305.2500000000001L277.75000000000006,302.1250000000001L280.18800000000005,302.1880000000001L281.18800000000005,302.6250000000001L284.37500000000006,304.3750000000001L286.81300000000005,305.2500000000001L289.25000000000006,306.6880000000001L291.31300000000005,307.0690000000001L293.56300000000005,308.1880000000001L296.12500000000006,309.2500000000001L297.56300000000005,310.3130000000001L299.25000000000006,310.1250000000001L299.25000000000006,303.3750000000001L298.31300000000005,303.6250000000001L298.06300000000005,302.1250000000001L299.25000000000006,301.7500000000001L299.25000000000006,297.5000000000001L304.31300000000005,298.2500000000001L305.93800000000005,299.6250000000001L309.43800000000005,302.5000000000001L310.37500000000006,303.6250000000001L310.81300000000005,306.5630000000001L309.31300000000005,306.8130000000001L310.12500000000006,308.4380000000001L310.81300000000005,308.3750000000001L311.62500000000006,310.8750000000001L313.25000000000006,313.0630000000001L315.43800000000005,315.1880000000001L317.62500000000006,316.4380000000001L318.81300000000005,317.3750000000001L318.81300000000005,319.1880000000001L319.62500000000006,320.0000000000001L319.62500000000006,321.7500000000001L318.31300000000005,322.2500000000001L318.75000000000006,324.8750000000001L321.50000000000006,327.5000000000001L323.81300000000005,331.0000000000001L325.68800000000005,333.6880000000001L327.06300000000005,336.0000000000001L327.87500000000006,337.5000000000001L328.68800000000005,338.3750000000001L328.68800000000005,345.0630000000001L329.56300000000005,346.5630000000001L329.87500000000006,348.2500000000001L333.00000000000006,348.2500000000001L334.00000000000006,350.8130000000001L334.87500000000006,353.3130000000001L335.93800000000005,355.0000000000001L335.93800000000005,357.5000000000001L336.50000000000006,357.6880000000001L337.56300000000005,359.0000000000001L337.56300000000005,361.0000000000001L337.56300000000005,362.7500000000001L339.25000000000006,366.2500000000001L339.81300000000005,367.5000000000001L338.56300000000005,368.1250000000001L339.81300000000005,369.8130000000001L339.81300000000005,371.6880000000001L338.43800000000005,373.9380000000001L336.43800000000005,376.1880000000001L331.43800000000005,376.6880000000001L331.06300000000005,374.2500000000001L332.31300000000005,373.6250000000001L331.93800000000005,372.5000000000001L331.18800000000005,372.1250000000001L329.56300000000005,371.1250000000001L327.31300000000005,369.0630000000001L330.31300000000005,368.6880000000001L331.06300000000005,367.1880000000001L333.25000000000006,365.8130000000001L334.56300000000005,365.0630000000001L334.68800000000005,363.4380000000001L328.75000000000006,363.4380000000001L329.25000000000006,364.7500000000001L327.00000000000006,364.5630000000001L325.93800000000005,363.6250000000001L324.56300000000005,360.7500000000001L323.18800000000005,359.2500000000001L321.12500000000006,357.1250000000001L319.43800000000005,357.0000000000001L315.00000000000006,356.1880000000001L316.00000000000006,357.7500000000001L318.93800000000005,360.7500000000001L320.18800000000005,362.8750000000001L321.56300000000005,364.5630000000001L321.68800000000005,367.4380000000001L321.68800000000005,370.1880000000001L321.37500000000006,370.8130000000001L317.31300000000005,370.9380000000001L315.06300000000005,369.6880000000001L313.68800000000005,369.1250000000001L311.87500000000006,368.4380000000001L303.75000000000006,368.9380000000001L303.06300000000005,370.0630000000001L302.00000000000006,371.3750000000001L298.68800000000005,374.0630000000001L296.75000000000006,375.8130000000001L295.81300000000005,375.4380000000001L295.12500000000006,372.6880000000001L294.06300000000005,370.6880000000001L293.06300000000005,368.6880000000001L292.31300000000005,371.9380000000001L291.62500000000006,373.8130000000001L291.62500000000006,376.0630000000001L291.56300000000005,377.6880000000001L291.43800000000005,379.3750000000001L291.06300000000005,379.8660000000001Z"
    stroke-width="1"
    stroke-linejoin="round"
    style="-webkit-tap-highlight-color: rgba(0, 0, 0, 0); stroke-linejoin: round;"></path>
  <path
    fill="#cccccc"
    stroke="#222222"
    d="M696.942,247.742L691.99,240.148V235.856H691V231.894L684.892,226.446L681.2600000000001,219.677L679.1140000000001,216.045V203.16899999999998V202.17899999999997L673.9970000000002,195.74099999999999L678.9490000000002,190.78799999999998V184.35L684.2320000000002,179.067L680.2700000000002,174.445L674.8220000000002,178.737L665.5780000000002,170.648L681.2610000000002,154.47V155.791L679.2800000000002,158.432L679.9400000000002,160.248L681.2610000000002,158.267L685.3880000000001,158.763L690.8350000000002,158.102L699.4200000000002,157.112L701.5660000000001,155.79L706.0230000000001,143.244L712.9570000000001,135.32L714.9390000000001,125.41499999999999L717.085,127.06599999999999L719.892,116.16999999999999L724.514,110.06199999999998L731.283,108.90599999999998L727.6510000000001,104.11799999999998L731.283,103.45799999999998L732.933,99.49599999999998L737.721,95.53399999999998L741.848,92.89299999999997L744.9849999999999,91.40699999999997L747.4599999999999,83.81299999999997L751.257,79.52099999999997L754.7239999999999,76.87999999999997V65.652L757.2009999999999,62.681L760.1729999999999,56.903L760.9979999999999,54.262L762.814,56.408V58.224000000000004L765.4549999999999,58.719V60.865L764.6299999999999,62.186L761.3279999999999,63.672L760.5029999999998,64.167L761.4929999999998,65.32300000000001L765.4549999999998,66.47900000000001L766.2809999999998,66.97400000000002V68.79000000000002L766.6799999999998,71.28400000000002L765.8859999999999,73.44800000000002L765.4529999999999,75.03500000000003L764.0109999999999,76.55000000000003L761.3409999999999,76.83900000000003V82.97100000000003L763.9389999999999,82.25000000000003L765.5259999999998,83.18800000000003L768.5549999999998,83.26000000000003L770.5759999999998,83.18800000000003L771.2249999999998,81.31300000000003L772.6669999999998,79.29300000000003H775.0479999999998L775.4809999999998,78.42700000000004L778.1499999999997,78.06600000000003L779.1609999999997,76.84000000000003L782.6229999999997,73.01600000000003L786.1579999999997,68.68800000000003L787.3119999999997,67.67800000000003V65.58500000000002L786.5179999999997,64.07000000000002L785.7959999999997,61.61700000000002L784.9299999999997,59.52500000000002L785.8679999999997,57.79400000000002L788.6809999999997,56.13500000000002L790.9169999999997,55.12500000000002L792.4319999999997,55.70200000000002L793.8739999999997,56.929000000000016L795.8219999999997,58.30000000000002L796.8319999999997,58.58900000000002L797.9859999999996,60.32000000000002L797.6259999999996,66.59600000000002L796.8319999999997,67.96700000000001L796.4719999999996,70.05900000000001L796.9049999999996,72.72800000000001L797.6269999999996,74.459L798.6369999999996,76.262L799.7899999999996,79.004L800.8009999999996,80.735L801.8109999999996,82.68299999999999L804.4799999999996,83.044L805.9219999999996,83.837L808.0869999999995,85.135L810.5389999999995,87.227L813.2799999999995,89.607L815.3009999999995,90.401L816.4549999999995,89.824V88.237L817.6079999999995,84.919L818.4019999999995,83.981L819.3399999999995,84.63L819.9169999999995,86.434V88.309L821.4329999999994,88.52499999999999L822.4429999999994,89.463L826.9159999999994,89.39099999999999L829.8739999999993,91.55499999999999L832.4709999999993,94.008L833.5529999999993,95.523L833.8419999999993,102.59299999999999L833.2649999999993,104.32499999999999L831.6779999999993,106.34499999999998L829.7299999999993,107.78799999999998L826.1949999999994,109.30299999999998L823.9589999999994,110.16899999999998L822.9489999999994,110.67399999999998L823.5969999999994,112.98299999999998L823.8139999999994,115.07499999999997L824.6069999999994,115.86799999999998L825.8339999999994,119.25899999999999C825.8339999999994,119.25899999999999,826.7719999999994,121.56799999999998,826.7719999999994,121.78399999999999C826.7719999999994,121.99999999999999,826.5549999999994,124.237,826.5549999999994,124.237L823.0919999999994,130.153L822.8029999999994,131.38L837.6629999999994,131.308V128.422L843.0739999999994,128.206L844.1559999999994,127.05199999999999L846.4639999999994,127.413L847.0409999999994,124.455V123.084L851.9469999999993,119.333H854.7599999999993V128.423L855.9139999999993,128.351L856.8519999999993,130.299L858.8719999999993,131.958L858.2949999999993,134.411L856.9969999999993,134.7L849.0609999999992,134.628L848.9889999999992,135.349L845.5979999999993,135.926L844.8039999999993,136.28699999999998L842.5679999999993,136.43099999999998L843.8669999999993,138.73999999999998L846.0309999999993,140.183L846.6079999999993,143.069L846.3919999999993,149.706L848.6999999999992,148.48L850.8649999999992,147.326L852.8119999999992,146.099L855.4809999999992,144.224L858.1509999999992,144.945L861.2529999999991,146.316L863.2739999999991,146.605L863.9219999999991,143.72L863.4169999999991,138.814L864.7869999999991,137.44299999999998L873.0839999999992,137.515L874.7429999999991,138.381V140.401L876.4739999999991,140.61700000000002L877.2669999999991,138.38100000000003L878.6379999999991,136.93800000000002L881.3069999999991,138.81300000000002L884.5529999999991,140.68900000000002L888.520999999999,143.14200000000002L891.261999999999,144.94600000000003V146.82100000000003L890.179999999999,148.62500000000003L888.592999999999,148.84100000000004L886.9339999999991,147.61400000000003L885.6349999999991,147.39800000000002L884.6249999999991,147.61400000000003L884.6969999999991,153.24100000000004L886.6439999999991,154.03400000000005L889.9619999999991,155.26100000000005L892.4869999999991,155.18900000000005L892.919999999999,153.38600000000005L894.795999999999,149.77900000000005L895.733999999999,148.76900000000006L898.330999999999,150.28400000000005L903.019999999999,153.60200000000006L906.9159999999989,156.63200000000006L907.4209999999989,158.36300000000006V160.59900000000005L908.6479999999989,162.61900000000006V166.01000000000005L918.8199999999989,166.08200000000005L921.0569999999989,163.84600000000006L922.2109999999989,162.69200000000006C922.2109999999989,162.69200000000006,922.4279999999989,162.40300000000008,922.6439999999989,162.40300000000008C922.8599999999989,162.40300000000008,926.0359999999989,162.7630000000001,926.1789999999988,163.12400000000008C926.3219999999989,163.48500000000007,927.1889999999988,164.13400000000007,927.1889999999988,164.13400000000007L930.2909999999988,162.76300000000006L935.0529999999987,161.10400000000007C935.0529999999987,161.10400000000007,936.2059999999988,161.82500000000007,936.4949999999988,162.54600000000008C936.7839999999987,163.26700000000008,938.8759999999987,165.35900000000007,938.8759999999987,165.35900000000007L940.7519999999987,167.23500000000007V174.66500000000008C940.7519999999987,174.66500000000008,937.4319999999987,178.12900000000008,937.2879999999986,178.4170000000001C937.1439999999986,178.7050000000001,934.4019999999987,182.0960000000001,934.4019999999987,182.0960000000001L932.4549999999987,183.17800000000008C932.4549999999987,183.17800000000008,928.1979999999987,183.9710000000001,927.6929999999987,184.40400000000008C927.1879999999987,184.83700000000007,922.8599999999988,186.3520000000001,922.4269999999988,186.71300000000008C921.9939999999988,187.07400000000007,921.2009999999988,187.50600000000009,918.0989999999988,188.1560000000001C914.9969999999988,188.8060000000001,914.4189999999988,189.67100000000008,912.7599999999987,190.4650000000001C911.1009999999987,191.2590000000001,906.3409999999988,194.0720000000001,904.8979999999988,194.9380000000001C903.4549999999988,195.80400000000012,900.0639999999988,195.9480000000001,900.0639999999988,195.9480000000001C900.0639999999988,195.9480000000001,894.6539999999989,196.88600000000008,890.1809999999988,196.23700000000008C885.7079999999988,195.58800000000008,887.0069999999988,195.44400000000007,886.3579999999988,195.51600000000008C885.7089999999988,195.58800000000008,879.6489999999989,191.40400000000008,879.6489999999989,191.40400000000008L875.1759999999989,189.1680000000001L859.0169999999989,202.9470000000001L858.8009999999989,204.67800000000008L862.8399999999989,205.4710000000001L866.1589999999989,211.0260000000001L869.1169999999988,217.2300000000001L872.6519999999988,219.6100000000001L875.8259999999988,220.6920000000001L877.3409999999988,221.12500000000009L879.1449999999987,222.85600000000008L883.6899999999987,222.35100000000008L884.0499999999987,224.2270000000001L882.6799999999987,224.8040000000001L882.2469999999987,226.0300000000001L883.9769999999987,226.39100000000008L889.3159999999988,230.57500000000007L890.7579999999988,228.91600000000008L891.7689999999988,226.1030000000001L892.3459999999988,225.8140000000001L891.9119999999988,224.22700000000012H894.2929999999988L895.2309999999987,227.7620000000001L895.1599999999987,232.4510000000001L890.5429999999988,235.9860000000001L888.5219999999988,235.1200000000001L884.1219999999988,234.97500000000008L883.4729999999988,236.05700000000007L881.5979999999988,236.99500000000006L877.7749999999988,236.12900000000005L872.6529999999989,236.49000000000004L866.3779999999989,238.29400000000004L861.4729999999989,240.16900000000004L856.711999999999,241.32300000000004L853.104999999999,242.83800000000002L847.333999999999,244.28100000000003L845.313999999999,243.92000000000004L841.200999999999,239.88000000000005L834.636999999999,234.18100000000004L829.5149999999991,229.56400000000005L821.8689999999991,236.20100000000005L822.2289999999991,237.78800000000004L824.3209999999991,239.30300000000003L825.9079999999991,242.18900000000002L827.1349999999991,243.34300000000002L826.3419999999991,246.734L824.8259999999991,248.609L820.5719999999991,248.17600000000002L814.583999999999,247.52700000000002L808.8849999999991,246.084L802.8249999999991,245.074L795.1789999999992,243.41500000000002L787.6039999999991,242.11700000000002L779.6679999999991,240.45800000000003L775.1239999999991,240.81800000000004L767.9099999999991,243.27100000000004L758.602999999999,246.37300000000005L753.9869999999991,247.02200000000005L745.329999999999,245.43500000000006L737.972999999999,242.91000000000005L730.830999999999,240.67400000000006L727.078999999999,242.76600000000008L722.1009999999991,244.06500000000008L719.5769999999991,245.29100000000008L716.3299999999991,245.14700000000008L713.8779999999991,243.92000000000007L707.3849999999991,238.79800000000006L705.8699999999991,240.52900000000005L701.6859999999991,244.28000000000006L698.3669999999992,247.02100000000007L696.9419999999992,247.74200000000008Z"
    stroke-width="1"
    stroke-linejoin="round"
    style="-webkit-tap-highlight-color: rgba(0, 0, 0, 0); stroke-linejoin: round;"></path>
  <path
    fill="#cccccc"
    stroke="#222222"
    d="M786.541,42.657L786.541,35.172999999999995L789.7130000000001,32.76299999999999L793.1370000000001,29.972999999999992L800.113,29.972999999999992L800.113,32.50899999999999L798.7180000000001,33.14399999999999L798.7180000000001,35.42699999999999L799.6060000000001,36.31399999999999L800.113,38.47099999999999L798.465,41.00799999999999L792.249,40.62699999999999L791.615,41.64199999999999L790.854,42.65699999999999Z"
    stroke-width="1"
    stroke-linejoin="round"
    style="-webkit-tap-highlight-color: rgba(0, 0, 0, 0); stroke-linejoin: round;"></path>
  <path
    fill="#cccccc"
    stroke="#222222"
    d="M772.843,37.71L774.9989999999999,35.3L777.9159999999999,34.032L779.9449999999999,34.032L777.2819999999999,37.709999999999994Z"
    stroke-width="1"
    stroke-linejoin="round"
    style="-webkit-tap-highlight-color: rgba(0, 0, 0, 0); stroke-linejoin: round;"></path>
  <path
    fill="#cccccc"
    stroke="#222222"
    d="M807.47,76.777L810.515,76.777L811.783,75.635L811.0210000000001,74.62100000000001L813.051,73.733L814.446,73.733L815.842,75.25500000000001L814.0649999999999,76.77700000000002L812.4169999999999,79.56700000000002L808.992,79.56700000000002L807.4699999999999,77.41100000000002Z"
    stroke-width="1"
    stroke-linejoin="round"
    style="-webkit-tap-highlight-color: rgba(0, 0, 0, 0); stroke-linejoin: round;"></path>
  <path
    fill="#cccccc"
    stroke="#222222"
    d="M286.946,443.908L271.077,433.538L267.149,421.12600000000003L262.121,414.99800000000005L260.079,412.48400000000004L257.722,405.09900000000005L261.179,403.37000000000006L262.436,407.29800000000006L262.90799999999996,409.49800000000005L262.59399999999994,412.01200000000006L262.90799999999996,414.36800000000005L264.479,415.46900000000005L265.579,417.66800000000006L267.779,420.1820000000001L272.335,421.2820000000001L276.263,423.6390000000001L280.662,425.9950000000001L281.604,427.2520000000001L279.876,430.55200000000013L284.275,431.33700000000016L285.532,433.38000000000017H286.94599999999997L289.61699999999996,432.12300000000016L298.573,431.33700000000016L300.929,431.80900000000014L304.85699999999997,435.26600000000013L309.256,436.6800000000001L313.81199999999995,436.9930000000001L312.86999999999995,425.83800000000014L315.38399999999996,427.72400000000016L318.36899999999997,430.08000000000015L319.78299999999996,431.33700000000016L322.768,428.19500000000016L321.51099999999997,431.9660000000002L319.31199999999995,438.40700000000015V439.9780000000002L325.12499999999994,436.0500000000002L324.18299999999994,437.9360000000002L322.2969999999999,440.1350000000002L323.2399999999999,443.90600000000023L324.0259999999999,446.2620000000002L326.06799999999987,444.6910000000002L328.73899999999986,440.4490000000002L330.3099999999999,438.56300000000016L332.35199999999986,438.09200000000016L337.3799999999999,439.34900000000016L340.52299999999985,439.97700000000015L339.73699999999985,443.43400000000014L336.9089999999999,445.32000000000016L335.0239999999999,447.20500000000015V450.03300000000013L336.7519999999999,452.2330000000001L336.5949999999999,456.00400000000013L336.6819999999999,459.2330000000001H338.0589999999999L338.9069999999999,457.6440000000001L339.86099999999993,456.1610000000001L341.13199999999995,454.5190000000001L343.03899999999993,453.1950000000001L345.42299999999994,451.5000000000001L346.2169999999999,450.60000000000014L345.89899999999994,449.43400000000014L344.7339999999999,449.4880000000001L341.9789999999999,448.7460000000001L343.5679999999999,446.57400000000007L344.94499999999994,444.03100000000006L346.21599999999995,441.11800000000005L346.799,440.05800000000005L349.183,440.535L351.673,441.065L356.652,443.025L359.46,444.82599999999996L363.06199999999995,447.316L366.50499999999994,449.964L369.25899999999996,451.712L371.85499999999996,452.931L378.63599999999997,452.34799999999996L381.12499999999994,455.20899999999995L382.39599999999996,456.37399999999997L386.89799999999997,454.20199999999994L390.924,452.77099999999996L390.34099999999995,451.765L387.74499999999995,451.235L385.6259999999999,451.765L383.1889999999999,450.387L381.8649999999999,448.851L379.9579999999999,447.209L376.9389999999999,446.573L374.4489999999999,445.46099999999996L372.9659999999999,445.98999999999995L373.8139999999999,446.573L371.4829999999999,446.361L369.73399999999987,445.248L367.24399999999986,444.295L365.07199999999983,442.91700000000003L364.1179999999998,441.22200000000004L362.6879999999998,439.528L362.31699999999984,437.038L363.27099999999984,435.236L364.48899999999986,432.481L365.65499999999986,431.301H368.25099999999986L369.83999999999986,432.95799999999997L371.1109999999999,433.80499999999995L372.01099999999985,434.3349999999999L377.46699999999987,434.17599999999993L377.62599999999986,431.30099999999993L374.55399999999986,430.14899999999994L372.6999999999999,428.55999999999995L370.6339999999999,426.65299999999996L368.9919999999999,424.32199999999995L368.0379999999999,422.67999999999995L368.9919999999999,418.12399999999997L370.3159999999999,415.739L371.2699999999999,412.56L372.38199999999995,409.435L373.70599999999996,405.673L376.19599999999997,402.389L378.58,399.158H380.275L382.18199999999996,400.165L385.36099999999993,400.483L387.74499999999995,398.204L390.60499999999996,396.085L390.393,394.39099999999996L388.16799999999995,392.11299999999994L386.102,391.37199999999996L385.678,393.11999999999995L384.99,393.86099999999993L383.507,395.2919999999999L381.282,394.81499999999994L381.388,392.1669999999999L382.289,391.0009999999999L384.673,391.26699999999994L385.626,391.58399999999995L386.315,390.78899999999993L385.415,389.5709999999999L384.88500000000005,386.8689999999999L383.45400000000006,385.7039999999999L384.1960000000001,384.2729999999999L388.0630000000001,384.4849999999999L389.4400000000001,383.3729999999999L393.0950000000001,382.26099999999985L395.3200000000001,381.51999999999987L394.6840000000001,380.1419999999999L391.93000000000006,376.59199999999987L392.5130000000001,375.26799999999986H393.7310000000001L394.5790000000001,374.41999999999985L396.85700000000014,373.41299999999984L399.66500000000013,372.7769999999998L398.97700000000015,371.5059999999998L396.43400000000014,371.2409999999998L393.30900000000014,370.1809999999998L391.66600000000017,370.44699999999983L391.0840000000002,370.49899999999985L391.13700000000017,360.64599999999984L392.4610000000002,360.16799999999984L392.2490000000002,356.98999999999984L393.25500000000017,356.30199999999985L395.4270000000002,355.08299999999986L396.7510000000002,353.91799999999984L398.6580000000002,353.0699999999998L400.2470000000002,351.7459999999998L402.26000000000016,350.4749999999998L403.84900000000016,349.2039999999998H404.9080000000002L405.38500000000016,350.3689999999998L409.46400000000017,350.2099999999998L410.4180000000002,351.4809999999998L413.3840000000002,350.79299999999984L414.3910000000002,349.4159999999998L413.2250000000002,348.88599999999985L411.1600000000002,347.45399999999984L413.3850000000002,346.44799999999987L417.25200000000024,346.1829999999999L420.11200000000025,345.49399999999986L425.83300000000025,345.0169999999999L428.64100000000025,344.4879999999999L434.09700000000026,344.1699999999999H434.8390000000003L435.0510000000003,343.4819999999999L442.46700000000027,343.11099999999993L442.2550000000003,342.21099999999996L448.40000000000026,342.52799999999996L449.1420000000003,342.21099999999996V341.46899999999994L450.14800000000025,340.93999999999994L450.41300000000024,340.0919999999999L452.90300000000025,338.23799999999994L454.9160000000002,337.28499999999997H458.3590000000002L458.5710000000002,336.59599999999995L462.4910000000002,336.38399999999996V335.32399999999996H466.41100000000023V334.26499999999993H470.9670000000002L470.7550000000002,333.3639999999999H474.46300000000025L474.72800000000024,332.0929999999999L478.54200000000026,332.5169999999999L478.96600000000024,331.40499999999986H483V330.13399999999984L486.49,330.45099999999985L486.861,329.5509999999999H490.51599999999996V328.4909999999999L495.655,328.2259999999999L495.07199999999995,327.43099999999987L499.25699999999995,327.2189999999999L498.46299999999997,326.4249999999999H502.01199999999994L502.85999999999996,325.0999999999999L503.972,323.6689999999999L504.979,321.9749999999999L505.827,321.1269999999999V316.4119999999999L507.46999999999997,315.2989999999999L510.171,313.2339999999999L512.609,311.37999999999994L513.562,310.63899999999995V306.34799999999996L516.9540000000001,304.2289999999999L519.3910000000001,301.95199999999994L522.2510000000001,300.09799999999996L523.522,299.674L523.1510000000001,294.96L527.4960000000001,290.881L530.1980000000001,288.02099999999996L531.522,286.43199999999996L532.475,282.989L533.428,279.599C533.428,279.599,538.568,275.414,538.727,275.414C538.886,275.414,544.712,270.964,544.712,270.964L549.109,267.415L553.9290000000001,261.641L557.214,256.184L561.346,250.14500000000004L564.949,245.32400000000004L568.286,240.18600000000004L570.458,237.85500000000005V235.20700000000005L569.293,234.30700000000004L568.976,230.65200000000004L569.453,226.09600000000003L571.148,226.41400000000004L572.525,227.15600000000003L574.909,227.89800000000002V227.10300000000004L575.492,226.09700000000004H578.193V225.35500000000005V225.09000000000006H580.841V226.73200000000006L581.848,226.57300000000006L583.49,227.79100000000005L584.338,229.43400000000005L585.2909999999999,231.97600000000006L586.404,234.57200000000006L588.046,236.32000000000005L589.4770000000001,237.38000000000005L590.748,238.86300000000006L592.23,240.29400000000007L593.29,241.40600000000006L596.8399999999999,241.61800000000005L597.1049999999999,242.36000000000004L598.7479999999999,242.25400000000005V245.22100000000006L599.7549999999999,245.59200000000007L600.8149999999998,250.41300000000007L602.0329999999998,253.90900000000008L603.3579999999998,257.5110000000001L605.2119999999999,260.2650000000001L608.4419999999999,262.0140000000001L611.4089999999999,264.18600000000015L615.2229999999998,263.5500000000001L618.9849999999998,261.80200000000013L621.2099999999998,259.6830000000001L622.9579999999999,256.5050000000001L624.8119999999999,253.5390000000001L625.6599999999999,250.6780000000001V247.6060000000001L626.7719999999998,247.0230000000001L626.3479999999998,237.96500000000012L627.7259999999999,237.91200000000012L627.0899999999999,233.78000000000011L624.2819999999999,229.91300000000012L623.434,228.37700000000012V224.29800000000012L624.283,223.9270000000001L624.441,219.6360000000001L625.6070000000001,219.2120000000001L625.6600000000001,216.1930000000001L631.1160000000001,212.0610000000001L635.0360000000001,208.6700000000001L639.168,205.3860000000001H640.704V207.6110000000001V208.0880000000001L642.77,208.1410000000001L643.14,209.7830000000001L643.6179999999999,209.3060000000001V212.3790000000001L642.664,212.7500000000001L642.77,215.29200000000012L641.975,215.82200000000012L641.922,217.5170000000001L641.71,230.44200000000012L641.764,232.03100000000012L642.717,232.98500000000013L645.577,238.12300000000013L647.961,241.09000000000015L649.2860000000001,242.41400000000016L657.8670000000001,242.09600000000015V238.86500000000015L659.4560000000001,236.53400000000016L660.0920000000001,236.37500000000017V232.45500000000018L661.2040000000001,232.1900000000002V224.4560000000002L660.464,223.39600000000019L659.0340000000001,221.2240000000002L658.2390000000001,218.73400000000018L656.9150000000002,216.56200000000018L656.4910000000002,215.13200000000018L657.2330000000002,214.3370000000002L658.6630000000001,213.2250000000002L661.5240000000001,211.31800000000018L662.1600000000001,209.72900000000018L661.7360000000001,208.35200000000017L659.7760000000001,204.22000000000017L659.1400000000001,202.41900000000018L659.4570000000001,201.1480000000002L661.5230000000001,200.9360000000002L662.1590000000001,202.26000000000022H665.5770000000001L667.1390000000001,202.31300000000022L667.4040000000001,201.30700000000022L669.3120000000001,200.14100000000022L670.3180000000001,199.08100000000022L671.325,198.1810000000002H673.2850000000001V199.66400000000021L675.5100000000001,201.78300000000021L676.8340000000001,203.9020000000002V215.1850000000002V218.2570000000002L677.9470000000001,220.0060000000002L679.2180000000001,222.6540000000002L680.8070000000001,226.04400000000018L682.2370000000001,228.0570000000002L683.9320000000001,230.38800000000018L685.9980000000002,231.81800000000018L688.1700000000002,233.40700000000018L688.6990000000002,233.7780000000002L689.4410000000001,234.2020000000002L689.7590000000001,242.83600000000018L692.4070000000002,246.54400000000018L694.9500000000002,249.61600000000018L697.0160000000002,253.6420000000002L698.3930000000001,256.9270000000002L699.8240000000002,259.6280000000002V262.5420000000002L693.0430000000002,268.9520000000002L692.7780000000002,273.3490000000002L692.6190000000003,276.8980000000002L693.6260000000002,277.2160000000002C693.6260000000002,277.2160000000002,693.5730000000002,282.8840000000002,693.5730000000002,283.0430000000002C693.5730000000002,283.20200000000017,694.7380000000002,282.6190000000002,694.7380000000002,282.6190000000002L694.6330000000002,285.8500000000002L688.9100000000002,294.11300000000017L682.9770000000002,303.4900000000002L679.0570000000002,309.58200000000016L675.4540000000003,315.6730000000002L670.7920000000003,321.65900000000016L665.4950000000002,325.79100000000017L660.4100000000002,329.4990000000002L657.0180000000001,330.7190000000002L652.6220000000002,331.30200000000025L650.0790000000002,332.94400000000024L646.7420000000002,336.0700000000002L645.0470000000001,339.2500000000002L640.2260000000001,342.5340000000002L636.2530000000002,344.65300000000025L635.3000000000002,347.03700000000026L633.2860000000002,353.76600000000025L631.3260000000001,361.12900000000025L631.2730000000001,363.83000000000027L634.3450000000001,366.79900000000026L640.9130000000001,369.6590000000003L642.6610000000002,370.13600000000025L642.7670000000002,372.99600000000027L639.7470000000002,378.66400000000027L636.6210000000002,385.7110000000003L633.1250000000002,395.4580000000003L630.4220000000003,398.7410000000003L625.9730000000003,402.29100000000034L621.4690000000003,406.5830000000003L617.3370000000003,409.7080000000003L613.2580000000004,414.3160000000003L610.7680000000004,418.0790000000003L608.6490000000003,423.5880000000003L606.8480000000003,429.0970000000003L604.6220000000003,436.3020000000003L603.2980000000003,435.6140000000003L599.0600000000003,432.2230000000003L597.4180000000002,430.9520000000003C597.4180000000002,430.9520000000003,593.9760000000002,432.1180000000003,592.9690000000003,432.59500000000025C591.9620000000003,433.07200000000023,590.0030000000003,433.28300000000024,587.9900000000002,434.0770000000003C585.9770000000002,434.87100000000027,583.9640000000003,436.03700000000026,583.9640000000003,436.03700000000026C583.9640000000003,436.03700000000026,575.0130000000003,435.82600000000025,571.8340000000003,434.97800000000024C568.6550000000003,434.1300000000002,567.5960000000002,434.0770000000002,567.5960000000002,434.0770000000002C567.5960000000002,434.0770000000002,563.7290000000003,436.6210000000002,563.4640000000003,436.9380000000002C563.1990000000003,437.2550000000002,548.3670000000003,447.53300000000024,548.3670000000003,447.53300000000024L527.8140000000003,447.63900000000024L524.6880000000003,444.61900000000026L519.4440000000003,437.3080000000003L518.2260000000003,436.09000000000026L516.7430000000004,437.04300000000023L509.0090000000004,437.14800000000025L498.3610000000004,441.81000000000023L497.72500000000036,440.22000000000025L500.53300000000036,435.1880000000003L502.6520000000004,430.58000000000027L503.55200000000036,427.50800000000027L501.7510000000004,427.3490000000003L499.63200000000035,428.1970000000003L494.7050000000003,429.09700000000026L488.03100000000035,429.83800000000025L480.34900000000033,430.58000000000027L464.19200000000035,430.6850000000003L446.87000000000035,430.5790000000003L442.36700000000036,441.8100000000003L437.8110000000004,451.7160000000003L430.55400000000037,461.9930000000003L426.1570000000004,467.97900000000027L423.93200000000036,470.8390000000003L416.41000000000037,471.5280000000003L416.35700000000037,472.6940000000003H411.7L411.489,471.1580000000003L401.90099999999995,471.6880000000003L402.05999999999995,470.5220000000003L395.6499999999999,470.4690000000003L393.3189999999999,471.42200000000025L388.55099999999993,473.2240000000003L385.5849999999999,473.8600000000003L381.7179999999999,473.2230000000003L378.7519999999999,471.74100000000027L370.8589999999999,470.3630000000003L363.75999999999993,471.6340000000003L357.61499999999995,473.4880000000003L349.56299999999993,474.8120000000003L345.0609999999999,476.5070000000003L339.92299999999994,477.46000000000026L332.02899999999994,483.07600000000025L329.6979999999999,485.0890000000002L323.18299999999994,480.26900000000023L316.3499999999999,474.54700000000025L310.9999999999999,470.09800000000024L305.3319999999999,466.38800000000026L297.8629999999999,460.61500000000024L289.9699999999999,455.7410000000002L288.5399999999999,454.5760000000002L287.5329999999999,449.3320000000002L286.8449999999999,448.4840000000002L286.9459999999999,443.9080000000002Z"
    stroke-width="1"
    stroke-linejoin="round"
    style="-webkit-tap-highlight-color: rgba(0, 0, 0, 0); stroke-linejoin: round;"></path>
  <path
    fill="#cccccc"
    stroke="#222222"
    d="M373.427,386.647L374.591,383.578L375.544,381.673L376.073,380.509L376.073,378.498L376.073,377.01599999999996L377.97799999999995,377.01599999999996L380.20099999999996,377.96899999999994L380.20099999999996,380.93199999999996L379.671,384.21299999999997L379.143,385.16499999999996L378.613,388.02299999999997L378.825,388.55199999999996L376.81399999999996,388.55199999999996L374.06199999999995,387.917Z"
    stroke-width="1"
    stroke-linejoin="round"
    style="-webkit-tap-highlight-color: rgba(0, 0, 0, 0); stroke-linejoin: round;"></path>
  <path
    fill="#cccccc"
    stroke="#222222"
    d="M381.576,372.359L381.576,354.685L382.63500000000005,353.838L384.6460000000001,354.896L385.4920000000001,357.754L385.4920000000001,359.97700000000003L385.4920000000001,368.12600000000003L386.33900000000006,373.1L386.86800000000005,374.476L385.81000000000006,375.852L385.91600000000005,377.863L386.86800000000005,377.863L386.86800000000005,379.133L385.0690000000001,379.133L384.2220000000001,376.48699999999997L383.4810000000001,375.00499999999994L382.6350000000001,373.62899999999996Z"
    stroke-width="1"
    stroke-linejoin="round"
    style="-webkit-tap-highlight-color: rgba(0, 0, 0, 0); stroke-linejoin: round;"></path>
  <path
    fill="#cccccc"
    stroke="#222222"
    d="M373.814,395.954L373.814,394.154L376.814,394.154L376.814,394.835L375.314,395.055L375.314,395.954Z"
    stroke-width="1"
    stroke-linejoin="round"
    style="-webkit-tap-highlight-color: rgba(0, 0, 0, 0); stroke-linejoin: round;"></path>
</svg>
